<?xml version="1.0" encoding="utf-8"?>
<!-- Generator: Adobe Illustrator 19.1.0, SVG Export Plug-In . SVG Version: 6.00 Build 0)  -->
<svg version="1.1" id="图层_1" xmlns="http://www.w3.org/2000/svg" xmlns:xlink="http://www.w3.org/1999/xlink" x="0px" y="0px"
	 viewBox="0 0 129.4 127.9" style="enable-background:new 0 0 129.4 127.9;" xml:space="preserve">
<style type="text/css">
	.st0{fill-rule:evenodd;clip-rule:evenodd;fill:#2D2E33;}
	.st1{fill-rule:evenodd;clip-rule:evenodd;fill:#0F0D0F;}
	.st2{fill-rule:evenodd;clip-rule:evenodd;fill:#16171A;}
	.st3{fill:#F6BD4B;}
	.st4{fill:none;stroke:#F6BD4B;stroke-width:0.4583;stroke-linecap:round;stroke-linejoin:round;stroke-miterlimit:22.9256;}
	.st5{fill:#FFFFFF;}
	.st6{fill:none;stroke:#FFFFFF;stroke-width:0.4583;stroke-linecap:round;stroke-linejoin:round;stroke-miterlimit:22.9256;}
	.st7{fill:#A9C8D4;}
	.st8{fill:none;stroke:#A9C8D4;stroke-width:0.4583;stroke-linecap:round;stroke-linejoin:round;stroke-miterlimit:22.9256;}
	.st9{fill-rule:evenodd;clip-rule:evenodd;fill:#F6BD4B;}
</style>
<path class="st0" d="M64.2,1c3.9,0,8.5-0.4,10.6-0.7c2.1-0.3,2.8,1.5,6.9,2.9c4.1,1.4,16,4.5,22.3,9.4c6.3,4.8,14.3,15.8,18.2,19.5
	c3.9,3.7,5,5.6,6.6,7.2c1.7,1.5,0.3,3.7-5.1,8.9c-5.4,5.2-10.2,8.7-12.7,6.6c-2.5-2.1-10-9.1-11.1-9.8c-1.1-0.7-1.1-0.7-2.2,2.9
	S95.1,61.7,94.7,80c-0.4,18.3,0.1,22.3,0.8,27.9c0.7,5.6,1.2,12,1.5,13.8c0.3,1.8-1.5,6.7-14.4,6.1c-12.9-0.7-28.6-0.4-37.3,0.1
	c-8.7,0.6-16.2-1.5-16-5.6c0.3-4.1,1-13.6,1.7-21.7c0.7-8.1,2.5-19,2.2-28.2c-0.3-9.2,0.1-9.3-0.5-14c-0.6-4.7-1.8-9.7-2.5-10.9
	c-0.7-1.1-0.6-1-2.3,0.5c-1.7,1.4-10.5,9.2-11.6,10.2c-1.1,1-4.8-0.3-9.9-6C1.3,46.4-1.2,43.4,0.6,41C2.4,38.7,12,25.4,15.9,20.5
	c3.9-4.9,5-6.5,11.8-10.1S44,3.9,47.3,2.7C50.7,1.5,52-0.2,54.8,0C57.6,0.3,60.1,1,64.2,1L64.2,1z"/>
<path class="st1" d="M64.2,1c3.9,0,8.5-0.4,10.6-0.7c0.5-0.1,0.9,0,1.3,0.1c0.8,2.6-1,8.8-12.1,9.1C52.7,9.9,52.1,1.5,53.3,0.1
	C53.8,0,54.3,0,54.8,0C57.6,0.3,60.1,1,64.2,1L64.2,1z"/>
<path class="st2" d="M30.2,47.4c-0.6-1.1-0.6-0.9-2.3,0.5c-1.7,1.4-10.5,9.2-11.6,10.2c-1.1,1-4.8-0.3-9.9-6l-0.3-0.4
	c2.6,2.1,5.8,3.7,7.2,3.9c1.5,0.2,3.4,0.6,0-1.9c-3.4-2.5-10-10.2-11-11.9c-1.1-1.7,3.5,4,6.3,6.8c2.9,2.7,10.5,5,13.1,1.7
	c2.6-3.3-0.4-9.2,1.2-12.5c1.5-3.3,0.1-8.9,1.4-9.2c1.3-0.2,0.7-1.9-1.2-5.1c-1.9-3.2-2.5-6.3-2.6-7.3c-0.1-1,1.8,5.1,3,6.9
	c1.2,1.8,3.6,6.1,3.2,4.4c-0.4-1.7-1-5.4-1.9-6.9c-1-1.5-1.5-4.9-0.5-3.6c1.1,1.3,2.7,7.3,2.9,10.8c0.1,3.6,2.1,16.6,3,19.2
	C30.2,47.1,30.2,47.3,30.2,47.4L30.2,47.4z"/>
<path class="st2" d="M125.4,46.4c-0.5,0.6-1.2,1.2-1.8,1.8c-5.4,5.2-10.2,8.7-12.7,6.6c-2.5-2.1-10-9.1-11.1-9.8
	c-0.4-0.3-0.7-0.4-0.9-0.3c0.6-1.8,1.3-4,1.3-6.1c0-2.7,0.4-8.4,0.5-9.9c0.1-1.5,1.6-2.9,3.2-5.1c1.6-2.1,3.1-4.8,3.6-5.8
	c0.5-0.9,0.4,1.6-2.9,6c-3.3,4.4-2.9,7.5-2.4,11.1c0.5,3.6,0.8,8.3,3.7,11.5c2.9,3.2,4.1,4.6,5.5,5.4c1.3,0.8,5.1-0.5,8.3-3.2
	c3.2-2.7,7.2-7,8-7.9c0.8-0.9-0.8,2-5.5,6.3c-4.7,4.3-8.8,6.8-6,6C118.9,52.3,122.9,48.6,125.4,46.4L125.4,46.4z"/>
<path class="st2" d="M64.2,1c3.9,0,8.5-0.4,10.6-0.7c2.1-0.3,2.8,1.5,6.9,2.9c4.1,1.4,16,4.5,22.3,9.4c0.7,0.5,1.4,1.1,2.1,1.7
	c-0.1,4.8-4.6,12.2-5.1,10.3c-0.6-2.3,0.2-5.8,2.5-6.7c2.3-0.9,2.6-3,1.1-4.4c-1.6-1.4-12.8-5.7-17.5-4.1
	c-4.6,1.6-15.3,4.6-22.4,4.4c-7-0.2-11.6-1.8-13.4-3.4c-1.8-1.6-12.8-2.4-16.8-1.2c-4,1.2-7.1,2.1-10.8,3.7c1.1-0.7,2.5-1.5,4.1-2.4
	C34.5,6.9,44,3.9,47.3,2.7C50.7,1.5,52-0.2,54.8,0C57.6,0.3,60.1,1,64.2,1L64.2,1z M49.3,2.3c-1,0.5-1,3,0.5,5c1.5,2,2,4.1,8.8,5.3
	c6.7,1.2,11.7,0.7,15.1-1.3c3.4-2,5.4-6,5.5-7.3c0.1-1.3-0.4-1.8-1.5-2.4c-1.1-0.6-1.3-0.9-1.3,0.5c0,1.4-2.1,7.4-11.8,7.7
	c-9.8,0.3-12.5-4.6-12.1-8.2C52.8-0.1,50.4,1.8,49.3,2.3L49.3,2.3z"/>
<path class="st2" d="M30,122.1c1.1,1.6,4.7,3.4,12,3.1c7.3-0.3,15.6-1.7,25-1.1c9.5,0.6,24.8,0.7,27.4-0.9c2.6-1.6,3.5-2.6,1.5-1.4
	c-2,1.2-4.5,2.6-15.3,2.3c-10.8-0.3-17.1-0.8-21.2-0.6c-4.1,0.2-14.2,1.1-18.3,1.1C36.9,124.6,34.5,124.9,30,122.1L30,122.1z"/>
<path class="st0" d="M64.2,2.1c3.6,0,7.9-0.3,9.8-0.5c0.4,0,0.8,0,1.2,0.1c0.7,2-0.9,6.8-11.2,7.1C53.6,9.1,53,2.5,54.1,1.4
	c0.4-0.1,0.9-0.1,1.4-0.1C58.2,1.5,60.4,2.1,64.2,2.1L64.2,2.1z"/>
<path class="st3" d="M55.4,22.7c0,0.2,0,0.4,0,0.4c0,0.5-0.1,1-0.1,1.6c0,0,0,0,0,0.1c0,0,0,0,0,0c0,0.2-0.1,0.5,0,0.7
	c0,0.3,0,0.5,0,0.8c0,0.3,0,0.5,0,0.8c0,0.3,0,0.5,0,0.8c0,0.2,0,0.5,0,0.7c0,0.2,0,0.5,0,0.7c0,0.5-0.1,1-0.1,1.5c0,0.5,0,1,0,1.5
	c0,0,0,0,0,0c0,0,0,0,0,0c0,0,0,0,0,0c0,0,0,0,0,0c0,0.2,0,0.4,0,0.7c0,0.3,0,0.6,0,0.8c0,0.3,0,0.6,0,0.8c0,0.3,0,0.6-0.1,0.9
	c0,0.1,0,0.3,0,0.4c0,0.1,0,0.3-0.1,0.4c-0.1,0-0.1-0.1-0.1-0.2c0-0.1,0-0.2,0-0.2c0-0.2,0-0.5,0.1-0.9c0-0.3,0-0.6,0-0.8
	c0-0.2,0-0.4,0-0.6c0-0.2,0-0.4,0-0.7c0,0,0,0,0,0c0,0,0,0,0-0.1c0-0.2,0-0.5,0-0.9c0-0.4,0-0.7,0.1-0.9c0-0.3,0-0.5,0-0.8
	c0-0.3,0-0.5,0-0.7c0-0.2,0-0.5,0-0.8c0-0.3,0-0.5,0-0.8c0-0.5,0.1-1,0.1-1.5c0-0.5,0-1,0.1-1.5c0-0.2,0-0.4,0-0.7
	c0-0.3,0-0.6,0.1-0.9c0-0.1,0-0.3,0-0.4c0-0.2,0-0.3,0-0.4c-0.3,0-0.5,0-0.8,0c-0.2,0-0.5,0-0.7,0c-0.1,0-0.2,0-0.3,0
	c-0.1,0-0.2,0-0.2-0.1c0-0.1,0-0.1,0.2-0.1c0.2,0,0.3,0,0.3,0c0.2,0,0.4,0,0.7,0c0.2,0,0.4,0,0.6,0c0.1,0,0.1,0,0.2,0
	c0.1,0,0.1,0,0.2,0c0.1,0,0.1,0,0.1,0c0,0,0,0,0.1,0c0.1,0,0.3,0,0.6,0c0.3,0,0.5,0,0.6,0c0,0,0.1,0,0.2,0c0.1,0,0.1,0,0.1,0.1
	c0,0.1-0.1,0.1-0.4,0.1c-0.2,0-0.4,0-0.6,0c-0.2,0-0.4,0-0.5,0c-0.1,0-0.2,0-0.2,0C55.5,22.7,55.5,22.7,55.4,22.7L55.4,22.7z"/>
<path class="st3" d="M59.1,22.5C59.2,22.5,59.2,22.5,59.1,22.5c0.1,0.4,0.1,0.8,0.1,1.3c0,0.5,0,0.9,0,1.1c0,0.7,0,1.4,0,2.2
	c0,0.8,0,1.5,0.1,2.2c0.4-0.1,0.7-0.2,1.1-0.3c0.4-0.1,0.7-0.2,1.1-0.3c0-0.3,0-0.6,0-0.9c0-0.3,0-0.5,0-0.6c0-0.6,0-1.3,0-1.9
	c0-0.7,0-1.4,0-2.1c0-0.1,0-0.2,0-0.3c0-0.1,0-0.2,0.1-0.2c0,0,0.1,0.1,0.1,0.3c0,0.2,0,0.4,0,0.6c0,0.2,0,0.5,0,0.8
	c0,0.2,0,0.5,0,0.9c0,0.3,0,0.6,0,0.9c0,0.1,0,0.1,0,0.2c0,0.1,0,0.2,0,0.3c0,0.4,0,0.8,0,1.2c0,0.4,0,0.8,0,1.2c0,0.4,0,0.8,0,1.3
	c0,0.4,0,0.8,0,1c0,0.7,0,1.4,0,2.1c0,0.8,0,1.5,0,2.2c0,0.1,0,0.1,0,0.2c0,0,0,0.1,0,0.1c0,0,0,0.1,0,0.1c0,0,0,0.1,0,0.1
	c0,0,0,0.1,0,0.1c0,0,0,0,0,0c0,0.1,0,0.1,0,0.2c0,0,0,0.1-0.1,0.1c0,0-0.1-0.2-0.1-0.4c0-0.5,0-1,0-1.6c0-0.6,0-1.1,0-1.7
	c-0.1-0.1-0.1-0.2,0-0.3c0-0.1,0-0.1,0-0.2c0-0.1,0-0.1,0-0.2c0-0.2,0-0.5,0-0.8c0-0.3,0-0.6,0-0.8c0-0.3,0-0.5,0-0.8
	c0-0.3,0-0.5,0-0.8c-0.4,0.1-0.7,0.2-1.1,0.3c-0.4,0.1-0.7,0.2-1.1,0.3c0,0,0,0.1,0,0.1c0,0.4,0,0.8,0,1.2c0,0.4,0,0.8,0.1,1.3
	c0,0,0,0,0,0c0,0,0,0,0,0c0,0.1,0,0.3,0,0.6c0,0.2,0,0.4,0,0.6c0,0.5,0,0.9,0,1.3c0,0.3,0,0.8,0,1.3c0,0,0,0.1,0,0.2
	c0,0.1,0,0.2-0.1,0.2c-0.1,0-0.1-0.1-0.1-0.2c0-0.1,0-0.2,0-0.3c0-0.3,0-0.6,0-0.9c0-0.3,0-0.5,0-0.8c0-0.3-0.1-0.7-0.1-1s0-0.7,0-1
	c0,0,0,0,0-0.1c0,0,0,0,0-0.1c0,0,0-0.1,0-0.1c0,0,0-0.1,0-0.1c0-0.2,0-0.4,0-0.6c0-0.2,0-0.4,0-0.7c0-0.5,0-1,0-1.5
	c0-0.6,0-1.1,0-1.7c0-0.1,0-0.2,0-0.2c0-0.1,0-0.2,0-0.2c0,0,0-0.1,0-0.1c0,0,0-0.1,0-0.2c0-0.2,0-0.3,0-0.5c0-0.2,0-0.4,0-0.6
	s0-0.4,0-0.7c0-0.2,0-0.4,0-0.5c0-0.1,0-0.4,0-0.7C59.1,23.1,59.1,22.8,59.1,22.5C59.1,22.5,59.1,22.5,59.1,22.5L59.1,22.5z"/>
<path class="st3" d="M64.2,22.5c0.1,0,0.1,0.1,0.1,0.2c0,0.1,0,0.3,0,0.3c0,0.1,0,0.2,0,0.3c0,0,0,0.1,0,0.2c0,0.6,0,1.2-0.1,1.8
	c0,0.6,0,1.2,0,1.8c0,0.3,0,0.6,0,1c0,0.4,0,0.7,0,1c0,0.1,0,0.1,0,0.2c0,0.1,0,0.1,0,0.2c0,0.3,0,0.7,0,1.1c0,0.4,0,0.8,0,1.1
	c0,0.4-0.1,0.8-0.1,1.4s0,1,0,1.2c0,0.4,0,0.7,0,1c0,0.3,0,0.6,0,1c0,0.2,0,0.2-0.1,0.2c-0.1,0-0.1-0.1-0.1-0.2c0-0.1,0-0.2,0-0.2
	c0-0.2,0-0.5,0-0.7c0-0.3,0-0.5,0-0.7c0-0.4,0-0.8,0-1.3c0-0.5,0-0.9,0.1-1.3c0-0.4,0-0.7,0-1.1c0-0.4,0-0.7,0-1.1c0-0.3,0-0.7,0-1
	c0-0.3,0-0.7,0-1c0-0.4,0-0.8,0-1.2c0-0.4,0-0.8,0-1.2c0-0.5,0.1-0.9,0-1.4C64.1,23.5,64.1,23,64.2,22.5
	C64.1,22.5,64.1,22.5,64.2,22.5C64.1,22.5,64.2,22.5,64.2,22.5L64.2,22.5z M64.3,21.8c0.2,0.1,0.2,0.3,0,0.4c-0.1,0-0.2,0-0.2-0.2
	C64.1,21.8,64.1,21.7,64.3,21.8L64.3,21.8z"/>
<path class="st3" d="M66.8,22.5C66.8,22.5,66.8,22.5,66.8,22.5C66.8,22.5,66.8,22.5,66.8,22.5c0.1,0.1,0.1,0.2,0.2,0.4
	c0,0.1,0,0.3,0.1,0.4c0.2,0.7,0.3,1.4,0.5,2.1c0.2,0.7,0.3,1.4,0.5,2c0.3,1.3,0.6,2.5,0.8,3.8c0.3,1.3,0.6,2.5,0.9,3.7
	c0,0.1,0.1,0.3,0.1,0.5c0-0.2,0-0.4,0-0.6c0-0.2,0-0.4,0-0.6c0-0.2,0-0.5,0-0.8c0-0.3,0-0.6,0-0.9c0,0,0-0.1,0-0.1c0,0,0-0.1,0-0.1
	c0-0.1,0-0.2,0-0.2c0-0.3,0-0.6,0-0.9c0-0.3,0-0.6,0-0.9c0-0.3,0-0.6,0-0.9c0-0.3,0-0.6,0-0.9c0,0,0,0,0,0c0,0,0,0,0,0
	c0-0.2,0-0.4,0-0.7c0-0.2,0-0.4,0-0.7c0-0.2,0-0.5,0-0.7c0-0.3,0-0.5,0-0.7c0-0.2,0-0.5,0-0.7c0-0.1,0-0.2,0-0.4c0-0.2,0-0.4,0-0.6
	c0-0.1,0-0.3,0-0.5c0-0.2,0-0.3,0-0.5c0,0,0-0.1,0-0.2c0-0.1,0-0.1,0.1-0.1c0.1,0,0.1,0.1,0.1,0.3c0,0.2,0,0.2,0,0.2
	c0,0,0,0.1,0,0.1c0,0,0,0,0,0c0,0,0,0,0,0c0,0,0,0,0,0c0,0.3,0,0.6,0,0.9c0,0.3,0,0.6,0.1,0.9c0,0.5,0,1,0,1.5c0,0.5,0,1,0.1,1.5
	c0,0.4,0,0.9,0,1.3c0,0.4,0,0.8,0.1,1.3c0,0.3,0,0.6,0,0.8c0,0.3,0,0.5,0,0.8c0,0.3,0,0.6,0,0.9c0,0.3,0,0.6,0,0.9c0,0,0,0,0,0
	c0,0,0,0,0,0c0,0,0,0,0,0.1c0,0,0,0,0,0c0,0.3,0,0.6,0,0.9c0,0.3,0,0.6,0,0.8c0,0,0,0,0,0.1c0,0.2-0.1,0.3-0.1,0.3
	c-0.1,0-0.1-0.1-0.1-0.2c0-0.1,0-0.2-0.1-0.3c-0.2-0.6-0.3-1.3-0.5-1.9c-0.1-0.6-0.3-1.3-0.4-1.9c0-0.2-0.1-0.4-0.1-0.5
	c0-0.2-0.1-0.4-0.1-0.5c0-0.2-0.1-0.4-0.1-0.5c0-0.2-0.1-0.4-0.1-0.5c0,0,0-0.1,0-0.1c0,0,0-0.1,0-0.1c-0.1-0.3-0.2-0.6-0.2-0.9
	c-0.1-0.3-0.1-0.7-0.2-1c0-0.1-0.1-0.2-0.1-0.3c0-0.1,0-0.2-0.1-0.3c-0.2-0.6-0.3-1.3-0.4-2c-0.1-0.7-0.3-1.3-0.4-2
	c0,0.1,0,0.3,0,0.4c0,0.2,0,0.2,0,0.3c0,0,0,0.1,0,0.1c0,0,0,0.1,0,0.1c0,0.1,0,0.2,0,0.3c0,0.7-0.1,1.4-0.1,2.2c0,0.8,0,1.6,0,2.3
	c0,0.2,0,0.4,0,0.7c0,0.2,0,0.4,0,0.5c0,0.1,0,0.2,0,0.2c0,0.1,0,0.2,0,0.2c0,0.6-0.1,1.2,0,1.8c0,0.6,0,1.2,0,1.8
	c0,0.2,0,0.5,0,0.7c0,0.2,0,0.4,0,0.6c0,0,0,0.1,0,0.1c0,0.1,0,0.1,0,0.1c0,0,0,0.1,0,0.2c0,0.2,0,0.2-0.1,0.2
	c-0.1,0-0.1-0.1-0.1-0.3c0-0.2,0-0.3,0-0.4c0-0.3,0-0.7,0-1.1c0-0.4,0-0.7,0-1c0-0.3,0-0.5,0-0.9c0-0.3,0-0.6,0-0.8c0,0,0-0.1,0-0.1
	c0,0,0-0.1,0-0.1c0,0,0,0,0,0c0,0,0,0,0-0.1c0,0,0,0,0,0c0,0,0,0,0,0c0,0,0,0,0,0c0,0,0,0,0-0.1c0-0.2,0-0.4,0-0.6
	c0-0.2,0-0.4,0-0.6c0-0.5,0-1,0-1.5c0-0.5,0-0.9,0-1.4c0-0.1,0-0.2,0-0.2c0-0.1,0-0.2,0-0.2c0-0.7,0.1-1.4,0-2.2
	C66.7,23.9,66.7,23.2,66.8,22.5C66.7,22.5,66.7,22.5,66.8,22.5L66.8,22.5z"/>
<path class="st3" d="M72.5,22.5C72.5,22.5,72.5,22.5,72.5,22.5C72.5,22.5,72.6,22.5,72.5,22.5c0.1,0.1,0.1,0.2,0.1,0.4
	c0,0.1,0,0.3,0,0.4c0,0.5-0.1,1-0.1,1.5c0,0.5,0,1,0,1.6c0,0.7,0,1.5-0.1,2.2c-0.1,0.7-0.1,1.4-0.1,2.1c0.5-1.3,1-2.5,1.5-3.8
	c0.5-1.3,1-2.6,1.5-3.8c0-0.1,0.1-0.2,0.1-0.3c0-0.1,0.1-0.2,0.2-0.2c0,0.1,0,0.3-0.1,0.5c0,0.1-0.1,0.1-0.1,0.2
	c0,0.1-0.1,0.2-0.1,0.2c-0.1,0.2-0.1,0.3-0.2,0.5c0,0.2-0.1,0.3-0.2,0.5c-0.4,0.8-0.7,1.7-1,2.5c-0.1,0.2-0.2,0.5-0.3,0.8
	c-0.1,0.3-0.2,0.6-0.3,0.8c-0.1,0.3-0.2,0.6-0.3,0.9c-0.1,0.2-0.2,0.4-0.2,0.6c-0.1,0.2-0.2,0.4-0.2,0.7c0,0.1-0.1,0.1-0.1,0.2
	c0,0.1-0.1,0.1-0.1,0.2c0,0,0,0.1,0,0.2c0,0.1,0,0.1,0.1,0.2c0.2,0.7,0.5,1.5,0.8,2.3c0.3,0.8,0.5,1.5,0.8,2.3
	c0,0.1,0.1,0.1,0.1,0.2c0,0.1,0,0.2,0,0.2c-0.1,0-0.2-0.1-0.2-0.2c0-0.1,0-0.2-0.1-0.2c0-0.1-0.1-0.2-0.1-0.3c0-0.1,0-0.2-0.1-0.2
	c-0.2-0.7-0.4-1.3-0.7-2c-0.2-0.6-0.4-1.3-0.7-2c0,0.7-0.1,1.5-0.1,2.3c0,0.8-0.1,1.6-0.1,2.3c0,0.1,0,0.1,0,0.2
	c0,0.1,0,0.1-0.1,0.2c-0.1,0-0.1-0.1-0.1-0.2c0-0.1,0-0.1,0-0.2c0-0.5,0-1,0.1-1.5c0-0.5,0-1,0.1-1.6c0-0.7,0.1-1.4,0.1-2.1
	c0-0.7,0-1.4,0.1-2.1c0.1-0.7,0.1-1.5,0.1-2.2c0-0.7,0-1.5,0.1-2.2c0-0.3,0-0.6,0-1C72.4,23.1,72.4,22.8,72.5,22.5
	C72.5,22.5,72.5,22.5,72.5,22.5L72.5,22.5z"/>
<path class="st4" d="M55.4,22.7c0,0.2,0,0.4,0,0.4c0,0.5-0.1,1-0.1,1.6c0,0,0,0,0,0.1c0,0,0,0,0,0c0,0.2-0.1,0.5,0,0.7
	c0,0.3,0,0.5,0,0.8c0,0.3,0,0.5,0,0.8c0,0.3,0,0.5,0,0.8c0,0.2,0,0.5,0,0.7c0,0.2,0,0.5,0,0.7c0,0.5-0.1,1-0.1,1.5c0,0.5,0,1,0,1.5
	c0,0,0,0,0,0c0,0,0,0,0,0c0,0,0,0,0,0c0,0,0,0,0,0c0,0.2,0,0.4,0,0.7c0,0.3,0,0.6,0,0.8c0,0.3,0,0.6,0,0.8c0,0.3,0,0.6-0.1,0.9
	c0,0.1,0,0.3,0,0.4c0,0.1,0,0.3-0.1,0.4c-0.1,0-0.1-0.1-0.1-0.2c0-0.1,0-0.2,0-0.2c0-0.2,0-0.5,0.1-0.9c0-0.3,0-0.6,0-0.8
	c0-0.2,0-0.4,0-0.6c0-0.2,0-0.4,0-0.7c0,0,0,0,0,0c0,0,0,0,0-0.1c0-0.2,0-0.5,0-0.9c0-0.4,0-0.7,0.1-0.9c0-0.3,0-0.5,0-0.8
	c0-0.3,0-0.5,0-0.7c0-0.2,0-0.5,0-0.8c0-0.3,0-0.5,0-0.8c0-0.5,0.1-1,0.1-1.5c0-0.5,0-1,0.1-1.5c0-0.2,0-0.4,0-0.7
	c0-0.3,0-0.6,0.1-0.9c0-0.1,0-0.3,0-0.4c0-0.2,0-0.3,0-0.4c-0.3,0-0.5,0-0.8,0c-0.2,0-0.5,0-0.7,0c-0.1,0-0.2,0-0.3,0
	c-0.1,0-0.2,0-0.2-0.1c0-0.1,0-0.1,0.2-0.1c0.2,0,0.3,0,0.3,0c0.2,0,0.4,0,0.7,0c0.2,0,0.4,0,0.6,0c0.1,0,0.1,0,0.2,0
	c0.1,0,0.1,0,0.2,0c0.1,0,0.1,0,0.1,0c0,0,0,0,0.1,0c0.1,0,0.3,0,0.6,0c0.3,0,0.5,0,0.6,0c0,0,0.1,0,0.2,0c0.1,0,0.1,0,0.1,0.1
	c0,0.1-0.1,0.1-0.4,0.1c-0.2,0-0.4,0-0.6,0c-0.2,0-0.4,0-0.5,0c-0.1,0-0.2,0-0.2,0C55.5,22.7,55.5,22.7,55.4,22.7L55.4,22.7z
	 M59.1,22.5C59.2,22.5,59.2,22.5,59.1,22.5c0.1,0.4,0.1,0.8,0.1,1.3c0,0.5,0,0.9,0,1.1c0,0.7,0,1.4,0,2.2c0,0.8,0,1.5,0.1,2.2
	c0.4-0.1,0.7-0.2,1.1-0.3c0.4-0.1,0.7-0.2,1.1-0.3c0-0.3,0-0.6,0-0.9c0-0.3,0-0.5,0-0.6c0-0.6,0-1.3,0-1.9c0-0.7,0-1.4,0-2.1
	c0-0.1,0-0.2,0-0.3c0-0.1,0-0.2,0.1-0.2c0,0,0.1,0.1,0.1,0.3c0,0.2,0,0.4,0,0.6c0,0.2,0,0.5,0,0.8c0,0.2,0,0.5,0,0.9
	c0,0.3,0,0.6,0,0.9c0,0.1,0,0.1,0,0.2c0,0.1,0,0.2,0,0.3c0,0.4,0,0.8,0,1.2c0,0.4,0,0.8,0,1.2c0,0.4,0,0.8,0,1.3c0,0.4,0,0.8,0,1
	c0,0.7,0,1.4,0,2.1c0,0.8,0,1.5,0,2.2c0,0.1,0,0.1,0,0.2c0,0,0,0.1,0,0.1c0,0,0,0.1,0,0.1c0,0,0,0.1,0,0.1c0,0,0,0.1,0,0.1
	c0,0,0,0,0,0c0,0.1,0,0.1,0,0.2c0,0,0,0.1-0.1,0.1c0,0-0.1-0.2-0.1-0.4c0-0.5,0-1,0-1.6c0-0.6,0-1.1,0-1.7c-0.1-0.1-0.1-0.2,0-0.3
	c0-0.1,0-0.1,0-0.2c0-0.1,0-0.1,0-0.2c0-0.2,0-0.5,0-0.8c0-0.3,0-0.6,0-0.8c0-0.3,0-0.5,0-0.8c0-0.3,0-0.5,0-0.8
	c-0.4,0.1-0.7,0.2-1.1,0.3c-0.4,0.1-0.7,0.2-1.1,0.3c0,0,0,0.1,0,0.1c0,0.4,0,0.8,0,1.2c0,0.4,0,0.8,0.1,1.3c0,0,0,0,0,0
	c0,0,0,0,0,0c0,0.1,0,0.3,0,0.6c0,0.2,0,0.4,0,0.6c0,0.5,0,0.9,0,1.3c0,0.3,0,0.8,0,1.3c0,0,0,0.1,0,0.2c0,0.1,0,0.2-0.1,0.2
	c-0.1,0-0.1-0.1-0.1-0.2c0-0.1,0-0.2,0-0.3c0-0.3,0-0.6,0-0.9c0-0.3,0-0.5,0-0.8c0-0.3-0.1-0.7-0.1-1s0-0.7,0-1c0,0,0,0,0-0.1
	c0,0,0,0,0-0.1c0,0,0-0.1,0-0.1c0,0,0-0.1,0-0.1c0-0.2,0-0.4,0-0.6c0-0.2,0-0.4,0-0.7c0-0.5,0-1,0-1.5c0-0.6,0-1.1,0-1.7
	c0-0.1,0-0.2,0-0.2c0-0.1,0-0.2,0-0.2c0,0,0-0.1,0-0.1c0,0,0-0.1,0-0.2c0-0.2,0-0.3,0-0.5c0-0.2,0-0.4,0-0.6s0-0.4,0-0.7
	c0-0.2,0-0.4,0-0.5c0-0.1,0-0.4,0-0.7C59.1,23.1,59.1,22.8,59.1,22.5C59.1,22.5,59.1,22.5,59.1,22.5L59.1,22.5z M64.2,22.5
	c0.1,0,0.1,0.1,0.1,0.2c0,0.1,0,0.3,0,0.3c0,0.1,0,0.2,0,0.3c0,0,0,0.1,0,0.2c0,0.6,0,1.2-0.1,1.8c0,0.6,0,1.2,0,1.8
	c0,0.3,0,0.6,0,1c0,0.4,0,0.7,0,1c0,0.1,0,0.1,0,0.2c0,0.1,0,0.1,0,0.2c0,0.3,0,0.7,0,1.1c0,0.4,0,0.8,0,1.1c0,0.4-0.1,0.8-0.1,1.4
	s0,1,0,1.2c0,0.4,0,0.7,0,1c0,0.3,0,0.6,0,1c0,0.2,0,0.2-0.1,0.2c-0.1,0-0.1-0.1-0.1-0.2c0-0.1,0-0.2,0-0.2c0-0.2,0-0.5,0-0.7
	c0-0.3,0-0.5,0-0.7c0-0.4,0-0.8,0-1.3c0-0.5,0-0.9,0.1-1.3c0-0.4,0-0.7,0-1.1c0-0.4,0-0.7,0-1.1c0-0.3,0-0.7,0-1c0-0.3,0-0.7,0-1
	c0-0.4,0-0.8,0-1.2c0-0.4,0-0.8,0-1.2c0-0.5,0.1-0.9,0-1.4C64.1,23.5,64.1,23,64.2,22.5C64.1,22.5,64.1,22.5,64.2,22.5
	C64.1,22.5,64.2,22.5,64.2,22.5L64.2,22.5z M64.3,21.8c0.2,0.1,0.2,0.3,0,0.4c-0.1,0-0.2,0-0.2-0.2C64.1,21.8,64.1,21.7,64.3,21.8
	L64.3,21.8z M66.8,22.5C66.8,22.5,66.8,22.5,66.8,22.5C66.8,22.5,66.8,22.5,66.8,22.5c0.1,0.1,0.1,0.2,0.2,0.4c0,0.1,0,0.3,0.1,0.4
	c0.2,0.7,0.3,1.4,0.5,2.1c0.2,0.7,0.3,1.4,0.5,2c0.3,1.3,0.6,2.5,0.8,3.8c0.3,1.3,0.6,2.5,0.9,3.7c0,0.1,0.1,0.3,0.1,0.5
	c0-0.2,0-0.4,0-0.6c0-0.2,0-0.4,0-0.6c0-0.2,0-0.5,0-0.8c0-0.3,0-0.6,0-0.9c0,0,0-0.1,0-0.1c0,0,0-0.1,0-0.1c0-0.1,0-0.2,0-0.2
	c0-0.3,0-0.6,0-0.9c0-0.3,0-0.6,0-0.9c0-0.3,0-0.6,0-0.9c0-0.3,0-0.6,0-0.9c0,0,0,0,0,0c0,0,0,0,0,0c0-0.2,0-0.4,0-0.7
	c0-0.2,0-0.4,0-0.7c0-0.2,0-0.5,0-0.7c0-0.3,0-0.5,0-0.7c0-0.2,0-0.5,0-0.7c0-0.1,0-0.2,0-0.4c0-0.2,0-0.4,0-0.6c0-0.1,0-0.3,0-0.5
	c0-0.2,0-0.3,0-0.5c0,0,0-0.1,0-0.2c0-0.1,0-0.1,0.1-0.1c0.1,0,0.1,0.1,0.1,0.3c0,0.2,0,0.2,0,0.2c0,0,0,0.1,0,0.1c0,0,0,0,0,0
	c0,0,0,0,0,0c0,0,0,0,0,0c0,0.3,0,0.6,0,0.9c0,0.3,0,0.6,0.1,0.9c0,0.5,0,1,0,1.5c0,0.5,0,1,0.1,1.5c0,0.4,0,0.9,0,1.3
	c0,0.4,0,0.8,0.1,1.3c0,0.3,0,0.6,0,0.8c0,0.3,0,0.5,0,0.8c0,0.3,0,0.6,0,0.9c0,0.3,0,0.6,0,0.9c0,0,0,0,0,0c0,0,0,0,0,0
	c0,0,0,0,0,0.1c0,0,0,0,0,0c0,0.3,0,0.6,0,0.9c0,0.3,0,0.6,0,0.8c0,0,0,0,0,0.1c0,0.2-0.1,0.3-0.1,0.3c-0.1,0-0.1-0.1-0.1-0.2
	c0-0.1,0-0.2-0.1-0.3c-0.2-0.6-0.3-1.3-0.5-1.9c-0.1-0.6-0.3-1.3-0.4-1.9c0-0.2-0.1-0.4-0.1-0.5c0-0.2-0.1-0.4-0.1-0.5
	c0-0.2-0.1-0.4-0.1-0.5c0-0.2-0.1-0.4-0.1-0.5c0,0,0-0.1,0-0.1c0,0,0-0.1,0-0.1c-0.1-0.3-0.2-0.6-0.2-0.9c-0.1-0.3-0.1-0.7-0.2-1
	c0-0.1-0.1-0.2-0.1-0.3c0-0.1,0-0.2-0.1-0.3c-0.2-0.6-0.3-1.3-0.4-2c-0.1-0.7-0.3-1.3-0.4-2c0,0.1,0,0.3,0,0.4c0,0.2,0,0.2,0,0.3
	c0,0,0,0.1,0,0.1c0,0,0,0.1,0,0.1c0,0.1,0,0.2,0,0.3c0,0.7-0.1,1.4-0.1,2.2c0,0.8,0,1.6,0,2.3c0,0.2,0,0.4,0,0.7c0,0.2,0,0.4,0,0.5
	c0,0.1,0,0.2,0,0.2c0,0.1,0,0.2,0,0.2c0,0.6-0.1,1.2,0,1.8c0,0.6,0,1.2,0,1.8c0,0.2,0,0.5,0,0.7c0,0.2,0,0.4,0,0.6c0,0,0,0.1,0,0.1
	c0,0.1,0,0.1,0,0.1c0,0,0,0.1,0,0.2c0,0.2,0,0.2-0.1,0.2c-0.1,0-0.1-0.1-0.1-0.3c0-0.2,0-0.3,0-0.4c0-0.3,0-0.7,0-1.1
	c0-0.4,0-0.7,0-1c0-0.3,0-0.5,0-0.9c0-0.3,0-0.6,0-0.8c0,0,0-0.1,0-0.1c0,0,0-0.1,0-0.1c0,0,0,0,0,0c0,0,0,0,0-0.1c0,0,0,0,0,0
	c0,0,0,0,0,0c0,0,0,0,0,0c0,0,0,0,0-0.1c0-0.2,0-0.4,0-0.6c0-0.2,0-0.4,0-0.6c0-0.5,0-1,0-1.5c0-0.5,0-0.9,0-1.4c0-0.1,0-0.2,0-0.2
	c0-0.1,0-0.2,0-0.2c0-0.7,0.1-1.4,0-2.2C66.7,23.9,66.7,23.2,66.8,22.5C66.7,22.5,66.7,22.5,66.8,22.5L66.8,22.5z M72.5,22.5
	C72.5,22.5,72.5,22.5,72.5,22.5C72.5,22.5,72.6,22.5,72.5,22.5c0.1,0.1,0.1,0.2,0.1,0.4c0,0.1,0,0.3,0,0.4c0,0.5-0.1,1-0.1,1.5
	c0,0.5,0,1,0,1.6c0,0.7,0,1.5-0.1,2.2c-0.1,0.7-0.1,1.4-0.1,2.1c0.5-1.3,1-2.5,1.5-3.8c0.5-1.3,1-2.6,1.5-3.8c0-0.1,0.1-0.2,0.1-0.3
	c0-0.1,0.1-0.2,0.2-0.2c0,0.1,0,0.3-0.1,0.5c0,0.1-0.1,0.1-0.1,0.2c0,0.1-0.1,0.2-0.1,0.2c-0.1,0.2-0.1,0.3-0.2,0.5
	c0,0.2-0.1,0.3-0.2,0.5c-0.4,0.8-0.7,1.7-1,2.5c-0.1,0.2-0.2,0.5-0.3,0.8c-0.1,0.3-0.2,0.6-0.3,0.8c-0.1,0.3-0.2,0.6-0.3,0.9
	c-0.1,0.2-0.2,0.4-0.2,0.6c-0.1,0.2-0.2,0.4-0.2,0.7c0,0.1-0.1,0.1-0.1,0.2c0,0.1-0.1,0.1-0.1,0.2c0,0,0,0.1,0,0.2
	c0,0.1,0,0.1,0.1,0.2c0.2,0.7,0.5,1.5,0.8,2.3c0.3,0.8,0.5,1.5,0.8,2.3c0,0.1,0.1,0.1,0.1,0.2c0,0.1,0,0.2,0,0.2
	c-0.1,0-0.2-0.1-0.2-0.2c0-0.1,0-0.2-0.1-0.2c0-0.1-0.1-0.2-0.1-0.3c0-0.1,0-0.2-0.1-0.2c-0.2-0.7-0.4-1.3-0.7-2
	c-0.2-0.6-0.4-1.3-0.7-2c0,0.7-0.1,1.5-0.1,2.3c0,0.8-0.1,1.6-0.1,2.3c0,0.1,0,0.1,0,0.2c0,0.1,0,0.1-0.1,0.2
	c-0.1,0-0.1-0.1-0.1-0.2c0-0.1,0-0.1,0-0.2c0-0.5,0-1,0.1-1.5c0-0.5,0-1,0.1-1.6c0-0.7,0.1-1.4,0.1-2.1c0-0.7,0-1.4,0.1-2.1
	c0.1-0.7,0.1-1.5,0.1-2.2c0-0.7,0-1.5,0.1-2.2c0-0.3,0-0.6,0-1C72.4,23.1,72.4,22.8,72.5,22.5C72.5,22.5,72.5,22.5,72.5,22.5
	L72.5,22.5z"/>
<path class="st5" d="M50.4,48.3c0.7,0.5,1.2,1.3,1.3,2.3c0,0.1,0,0.2,0,0.4c0,0.2,0,0.3-0.1,0.4c-0.2,0.4-0.4,0.7-0.7,0.9
	c0,0-0.1,0.1-0.2,0.1c-0.1,0-0.1,0.1-0.1,0.1c-0.1,0-0.3,0.1-0.4,0.2c-0.1,0.1-0.2,0.1-0.4,0c0-0.4,0-0.7,0-1.1c0-0.4,0-0.7,0-1.1
	c0,0,0,0,0-0.1c0-0.1,0-0.2,0-0.3c0-0.6,0-1.2,0-1.8c0-0.6,0-1.2,0-1.8c0-0.1,0-0.2,0-0.2c0-0.4,0-0.9,0-1.3c0-0.4,0-0.8,0-1.2
	c0-0.4,0-0.8,0-1.2c0-0.4,0-0.8,0-1.2c0-0.1,0-0.1,0-0.2c0-0.1,0-0.1,0-0.2c0-0.3,0-0.7,0-1.1c0-0.4,0-0.8,0-1.1
	c0.1-0.1,0.2-0.1,0.3-0.1c0.2,0,0.3,0.1,0.4,0.1c0.2,0.2,0.4,0.5,0.5,0.8c0.1,0.3,0.3,0.6,0.4,0.9c0.1,0.4,0.2,0.8,0.3,1.3
	c0.1,0.4,0.2,0.9,0.3,1.3c0,0.1,0,0.2,0,0.3c0,0.1,0,0.2,0.1,0.2c0,1,0,1.9-0.2,2.8C51.6,47.5,51.1,48.1,50.4,48.3L50.4,48.3z
	 M51.6,46.4C51.6,46.4,51.6,46.4,51.6,46.4C51.6,46.4,51.6,46.4,51.6,46.4c0-0.1,0-0.1,0-0.2c0.1-0.4,0.1-0.8,0.1-1.2
	c0-0.5,0-0.9,0-1.3c0-0.1-0.1-0.2-0.1-0.2c0-0.1,0-0.2,0-0.3c-0.1-0.3-0.1-0.7-0.2-1.1c-0.1-0.4-0.2-0.7-0.3-1
	c-0.1-0.3-0.2-0.5-0.3-0.8c-0.1-0.2-0.2-0.4-0.3-0.6c-0.1-0.2-0.2-0.4-0.4-0.5c-0.1,0-0.1,0-0.2-0.1c-0.1,0-0.1,0-0.2,0c0,0,0,0,0,0
	c0,0,0,0.1,0,0.1c0,0,0,0.1,0,0.1c0,0.4,0,0.9,0,1.3c0,0.4,0,0.8,0,1.2c0,0.2,0,0.4,0,0.6c0,0.2,0,0.4,0,0.6c0,0,0,0.1,0,0.3
	c0,0.2,0,0.3,0,0.3c0,0.2,0.1,0.3,0,0.5c0,0.2,0,0.4,0,0.6c0,0.4,0,0.9,0,1.3c0,0.5,0,0.9,0.1,1.4c0,0,0,0.1,0,0.1c0,0,0,0.1,0,0.1
	c0,0.1,0,0.1,0,0.2c0,0.1,0,0.2,0,0.3c0.5,0,0.9-0.2,1.2-0.6C51.3,47.3,51.5,46.9,51.6,46.4L51.6,46.4z M49.9,48.4
	c0,0.4,0,0.9,0,1.4c0,0.5,0,1,0.1,1.4c0,0,0,0.1,0,0.1c0,0.1,0,0.3,0,0.6c0,0.3,0,0.5,0,0.7c0.5-0.1,0.8-0.3,1.1-0.6
	c0.3-0.3,0.4-0.8,0.4-1.4c0,0,0,0,0,0c0,0,0,0,0,0c0-0.2,0-0.3-0.1-0.5c-0.1-0.1-0.1-0.3-0.1-0.4c-0.1-0.2-0.2-0.4-0.4-0.6
	c-0.1-0.2-0.3-0.4-0.5-0.5C50.3,48.4,50.1,48.4,49.9,48.4C49.9,48.4,49.9,48.4,49.9,48.4C49.9,48.4,49.9,48.4,49.9,48.4L49.9,48.4z"
	/>
<path class="st5" d="M53.7,38.8c0.3,0,0.6,0,0.9,0c0.3,0,0.6,0,1,0c0,0,0.2,0,0.3,0c0.2,0,0.2,0,0.2,0.1c0,0-0.1,0.1-0.2,0
	c-0.1,0-0.2,0-0.2,0c-0.3,0-0.7,0-1,0c-0.3,0-0.6,0-0.9,0c0,0.2,0,0.5,0,0.7c0,0.3,0,0.5,0,0.7c0,0,0,0.1,0,0.1c0,0,0,0.1,0,0.1
	c0,0.1,0,0.2,0,0.2c0,0.1,0,0.2,0,0.2c0,0.3,0,0.5,0,0.7c0,0.2,0,0.5,0,0.7c0,0.3,0,0.6,0,1c0,0.3,0,0.6,0,1c0,0.1,0,0.1,0,0.2
	c0,0.1,0,0.1,0,0.2c0,0,0,0.1,0,0.2c0,0.4,0,0.7,0,1.1c0,0.4,0,0.8,0,1.2c0,0.2,0,0.4,0,0.7c0,0.2,0,0.5,0,0.6c0,0.1,0,0.3,0,0.5
	c0,0.2,0,0.4,0,0.5c0.2,0,0.4,0,0.6,0c0.2,0,0.4,0,0.5,0c0.2,0,0.3,0,0.3,0.1c0,0.1-0.1,0.1-0.3,0.1c-0.2,0-0.3,0-0.3,0
	c-0.2,0-0.3,0-0.4,0c-0.1,0-0.2,0-0.4,0c0,0.4,0,0.9,0,1.4c0,0.5,0,0.9,0,1.4c0.5,0,1,0,1.5,0c0.5,0,1,0,1.3,0c0.1,0,0.2,0,0.3,0
	c0.1,0,0.2,0,0.3,0c0.1,0,0.1,0.1,0.1,0.1c0,0.1-0.1,0.1-0.3,0.1c-0.2,0-0.4,0-0.5,0c-0.5,0-1,0-1.5,0c-0.5,0-1,0-1.4,0
	c-0.1-0.1-0.1-0.1,0-0.2c0-0.1,0-0.2,0-0.3c0-0.6,0-1.3,0-1.9c0-0.6,0-1.3,0-1.9c0-0.1,0-0.1,0-0.2c0-0.1,0-0.1,0-0.2
	c0-0.1,0-0.3,0-0.5c0-0.2,0-0.3,0-0.5c0-0.4,0-0.8,0-1.2c0-0.4,0-0.8,0-1.2c0-0.3,0-0.5,0-0.6c0-0.2,0-0.4,0-0.5c0-0.3,0-0.7,0-1.2
	c0-0.4,0-0.9,0-1.3c0-0.4,0-0.7,0-1.1C53.7,39.6,53.7,39.2,53.7,38.8C53.7,38.8,53.7,38.8,53.7,38.8L53.7,38.8z"/>
<path class="st5" d="M63.4,38.9C63.4,38.9,63.4,38.9,63.4,38.9c0,0.1,0,0.2-0.1,0.1c-0.1,0-0.1,0-0.1,0c-0.1,0-0.1,0-0.2,0
	c0,0-0.1,0-0.1,0c0,0,0,0,0,0c0,0,0,0,0,0c0,0-0.1,0-0.1,0c0,0-0.1,0-0.1,0c0,0,0,0,0,0c0,0,0,0,0,0c-0.3,0-0.7,0-1.2,0
	c-0.4,0-1,0-1.5,0c0,0.1,0,0.3,0,0.5c0,0.2,0,0.3,0,0.4c0,0.4-0.1,0.8,0,1.3c0,0.4,0,0.8,0,1.2c0.1,0,0.2,0,0.3,0c0.1,0,0.2,0,0.3,0
	c0.1,0,0.3,0,0.4,0c0.1,0,0.3,0,0.4,0.1c0,0,0,0,0,0.1c0,0,0,0,0,0c-0.3,0-0.5,0-0.7,0c-0.2,0-0.5-0.1-0.7-0.1c0,0.5,0,1,0,1.4
	c0,0.4,0,0.8,0,1.3c0,0.2,0,0.4,0,0.7c0,0.2,0,0.5,0,0.7c0,0,0,0,0,0.1c0,0.1,0,0.3,0,0.4c0,0.1,0,0.3,0,0.4c0,0.3,0,0.5,0,0.8
	c0,0.3,0,0.6,0,0.8c0,0.4,0,0.7,0,1.1s0,0.8,0,1.2c0,0.1,0,0.1,0,0.1c0,0,0,0,0,0.1c0,0.2,0,0.4,0,0.5c0,0.2,0,0.4,0,0.5
	c0,0.1,0,0.2-0.1,0.1c0,0-0.1-0.1-0.1-0.2c0-0.1,0-0.2,0-0.3c0-0.1,0-0.1,0-0.2c0-0.3,0-0.6,0-1.1c0-0.4,0-0.8,0-1.2
	c0-0.2,0-0.2,0-0.2c0-0.6,0.1-1.3,0-1.9c0-0.6,0-1.3,0-1.9c0-0.1,0-0.3,0-0.5c0-0.2,0-0.3,0-0.4c0-0.4,0-0.7,0-1.1
	c0-0.4,0-0.7,0.1-1.1c0-0.2,0-0.4,0-0.7c0-0.3,0-0.5,0-0.8c0-0.3,0-0.5,0-0.8c0,0,0,0,0-0.1c0,0,0-0.1,0-0.1c0,0,0-0.1,0-0.1
	c0-0.1,0-0.2,0-0.3c0-0.1,0-0.2,0-0.2c0-0.1,0-0.2,0-0.3c0-0.2,0-0.3,0-0.4c0,0,0,0,0.1-0.1c0.1,0,0.3,0,0.4,0c0.1,0,0.2,0,0.3,0
	c0,0,0.1,0,0.1,0c0,0,0.1,0,0.1,0c0.1,0,0.2,0,0.3,0c0.1,0,0.2,0,0.3,0c0.1,0,0.2,0,0.3,0c0.1,0,0.2,0,0.4,0c0.2,0,0.4,0.1,0.8,0
	C62.9,38.8,63.2,38.9,63.4,38.9L63.4,38.9z"/>
<path class="st5" d="M68.4,39c0.2,0.2,0.4,0.5,0.5,0.9c0.1,0.4,0.2,0.8,0.3,1.2c0,0.3,0,0.6,0.1,0.9c0,0.3,0,0.6,0.1,0.9
	c0,0.3,0,0.6,0,0.9c0,0.3,0,0.6,0,1c0,0.1,0,0.3,0,0.4c0,0.1,0,0.3,0,0.3c0,0,0,0.1,0,0.1c0,0.2,0,0.4,0,0.6c0,0.2,0,0.4,0,0.6
	c0,0.2,0,0.4-0.1,0.7c0,0.3,0,0.6-0.1,0.8c-0.1,0.8-0.3,1.6-0.5,2.3c-0.2,0.7-0.5,1.4-1,1.9c-0.1,0-0.2,0.1-0.3,0.1
	c-0.1,0-0.2,0.1-0.2,0.1c-0.3,0-0.6-0.1-0.8-0.2c-0.5-0.4-0.8-0.9-1-1.6c0-0.1-0.1-0.2-0.1-0.3c0-0.1,0-0.2-0.1-0.3
	c0-0.2-0.1-0.4-0.1-0.6c0-0.2,0-0.4,0-0.6c0,0,0,0,0,0c0,0,0,0,0,0c0-0.3,0-0.7,0-1.1c0-0.4,0-0.7,0-0.8c0,0,0-0.1,0,0c0,0,0,0,0,0
	c0-0.2,0-0.6,0-1.3c0-0.3,0-0.5,0-0.8c0-0.3,0-0.5,0-0.7c0-0.1,0-0.2,0-0.3c0-0.1,0-0.2,0-0.3c0.1-0.5,0.2-1,0.2-1.5
	c0.1-0.5,0.2-0.9,0.3-1.4c0,0,0,0,0.1,0c0.1-0.4,0.3-0.8,0.5-1.1c0.2-0.3,0.5-0.6,0.8-0.8c0.2,0,0.4-0.1,0.6-0.1
	C68.1,38.8,68.3,38.9,68.4,39L68.4,39z M68.1,39c-0.2,0-0.3,0-0.5,0c-0.2,0-0.3,0.1-0.4,0.1c0,0-0.1,0.1-0.1,0.1
	c-0.2,0.2-0.4,0.4-0.5,0.6c-0.1,0.2-0.2,0.5-0.4,0.8c-0.3,0.8-0.6,1.7-0.7,2.7c-0.1,1-0.2,2-0.2,3.1c0,0.4,0,0.8,0,1.1
	c0,0.4,0,0.7,0,1.1c0,0.1,0,0.3,0,0.4c0,0.2,0,0.3,0,0.5c0,0.1,0,0.3,0.1,0.4c0,0.2,0,0.3,0.1,0.4c0.1,0.6,0.3,1.1,0.5,1.5
	c0.2,0.4,0.7,0.7,1.3,0.7c0,0,0.1,0,0.1,0c0,0,0.1,0,0.1,0c0.1-0.1,0.2-0.1,0.3-0.2c0.1-0.1,0.2-0.2,0.3-0.3
	c0.4-0.8,0.7-1.7,0.8-2.7c0.2-1,0.2-2,0.3-3.2c0-0.6,0.1-1.3,0.1-1.9c0-0.7,0-1.3-0.1-1.9c0-0.3,0-0.5-0.1-0.8
	c-0.1-0.4-0.1-0.8-0.2-1.2c-0.1-0.4-0.2-0.7-0.4-1c-0.1,0-0.1-0.1-0.2-0.1C68.3,39.1,68.2,39,68.1,39L68.1,39z"/>
<path class="st5" d="M71.5,48.3c0.2,0.4,0.3,0.7,0.5,1.1c0.2,0.4,0.4,0.7,0.5,1.1c0.1,0.3,0.3,0.7,0.4,1c0.2,0.3,0.3,0.6,0.4,0.9
	c0.1,0.1,0.1,0.2,0.1,0.3c0,0-0.1,0-0.2-0.2c-0.1-0.2-0.2-0.4-0.3-0.6c-0.1-0.2-0.2-0.4-0.3-0.7c-0.1-0.2-0.2-0.4-0.2-0.5
	c-0.3-0.7-0.7-1.4-1-2.1c0,0.2,0,0.6,0,1c0,0.4,0,0.8,0,1.2c0,0.2,0,0.4,0,0.5c0,0.2,0,0.3,0,0.4c0,0.2,0,0.3,0,0.5
	c0,0.2,0,0.3,0,0.5c0,0-0.1,0-0.1,0c0-0.7-0.1-1.5-0.1-2.3c0-0.8,0-1.6,0-2.4c0-0.1,0-0.3,0-0.5c0-0.2,0-0.3,0-0.4
	c0-0.1,0-0.1,0-0.1c0-0.3,0-0.6,0-1c0-0.4,0-0.8,0-1.1c0-0.2,0-0.4,0-0.6c0-0.2,0-0.4,0-0.5c0-0.5,0-1.1,0-1.5c0-0.5,0-1,0-1.5
	c0-0.1,0-0.2,0-0.1c0-0.2,0-0.5,0-0.8c0-0.3,0-0.6,0-0.9c0.3-0.2,0.6-0.2,0.8,0.1c0.2,0.3,0.4,0.5,0.5,0.7c0.1,0.3,0.2,0.5,0.3,0.7
	c0.3,1,0.6,2.1,0.7,3.2c0,0.2,0,0.4,0,0.6c0,0.2,0,0.3,0.1,0.4c0,0,0,0.1,0,0.3c0,0.1,0,0.1,0,0.2c0,0.1,0,0.2,0,0.2
	c0,0.8-0.2,1.4-0.5,2C72.7,47.9,72.2,48.3,71.5,48.3L71.5,48.3z M71.3,39c0,0.2,0,0.5,0,0.8c0,0.3,0,0.6,0,0.9c0,0.3,0,0.6,0,0.7
	c0,0.2,0,0.3,0,0.4c0,0.1,0,0.3,0,0.4c0,0.2,0,0.3,0,0.3c0,1,0.1,1.9,0.1,2.8c0,0.9,0,1.9,0,2.8c0.5,0,0.9-0.2,1.2-0.7
	c0.3-0.4,0.5-0.9,0.5-1.4c0.1-0.6,0.1-1.2,0.1-1.9c0-0.1,0-0.2-0.1-0.4c0-0.1,0-0.3,0-0.4c-0.1-1-0.3-1.8-0.5-2.4
	c-0.1-0.3-0.2-0.6-0.4-0.9c-0.1-0.3-0.3-0.6-0.5-0.8c-0.1-0.1-0.1-0.2-0.2-0.2C71.6,39,71.5,39,71.3,39C71.4,39,71.4,39,71.3,39
	L71.3,39z"/>
<path class="st5" d="M75.3,38.8c0.3,0,0.6,0,0.9,0c0.3,0,0.6,0,1,0c0,0,0.2,0,0.3,0c0.2,0,0.2,0,0.2,0.1c0,0-0.1,0.1-0.2,0
	c-0.1,0-0.2,0-0.2,0c-0.3,0-0.7,0-1,0c-0.3,0-0.6,0-0.9,0c0,0.2,0,0.5,0,0.7c0,0.3,0,0.5,0,0.7c0,0,0,0.1,0,0.1c0,0,0,0.1,0,0.1
	c0,0.1,0,0.2,0,0.2c0,0.1,0,0.2,0,0.2c0,0.3,0,0.5,0,0.7c0,0.2,0,0.5,0,0.7c0,0.3,0,0.6,0,1c0,0.3,0,0.6,0,1c0,0.1,0,0.1,0,0.2
	c0,0.1,0,0.1,0,0.2c0,0,0,0.1,0,0.2c0,0.4,0,0.7,0,1.1c0,0.4,0,0.8,0,1.2c0,0.2,0,0.4,0,0.7c0,0.2,0,0.5,0,0.6c0,0.1,0,0.3,0,0.5
	c0,0.2,0,0.4,0,0.5c0.2,0,0.4,0,0.6,0c0.2,0,0.4,0,0.5,0c0.2,0,0.3,0,0.3,0.1c0,0.1-0.1,0.1-0.3,0.1c-0.2,0-0.3,0-0.3,0
	c-0.2,0-0.3,0-0.4,0c-0.1,0-0.2,0-0.4,0c0,0.4,0,0.9,0,1.4c0,0.5,0,0.9,0,1.4c0.5,0,1,0,1.5,0c0.5,0,1,0,1.3,0c0.1,0,0.2,0,0.3,0
	c0.1,0,0.2,0,0.3,0c0.1,0,0.1,0.1,0.1,0.1c0,0.1-0.1,0.1-0.3,0.1c-0.2,0-0.4,0-0.5,0c-0.5,0-1,0-1.5,0c-0.5,0-1,0-1.4,0
	c-0.1-0.1-0.1-0.1,0-0.2c0-0.1,0-0.2,0-0.3c0-0.6,0-1.3,0-1.9c0-0.6,0-1.3,0-1.9c0-0.1,0-0.1,0-0.2c0-0.1,0-0.1,0-0.2
	c0-0.1,0-0.3,0-0.5c0-0.2,0-0.3,0-0.5c0-0.4,0-0.8,0-1.2c0-0.4,0-0.8,0-1.2c0-0.3,0-0.5,0-0.6c0-0.2,0-0.4,0-0.5c0-0.3,0-0.7,0-1.2
	c0-0.4,0-0.9,0-1.3c0-0.4,0-0.7,0-1.1C75.2,39.6,75.2,39.2,75.3,38.8C75.3,38.8,75.3,38.8,75.3,38.8L75.3,38.8z"/>
<path class="st6" d="M50.4,48.3c0.7,0.5,1.2,1.3,1.3,2.3c0,0.1,0,0.2,0,0.4c0,0.2,0,0.3-0.1,0.4c-0.2,0.4-0.4,0.7-0.7,0.9
	c0,0-0.1,0.1-0.2,0.1c-0.1,0-0.1,0.1-0.1,0.1c-0.1,0-0.3,0.1-0.4,0.2c-0.1,0.1-0.2,0.1-0.4,0c0-0.4,0-0.7,0-1.1c0-0.4,0-0.7,0-1.1
	c0,0,0,0,0-0.1c0-0.1,0-0.2,0-0.3c0-0.6,0-1.2,0-1.8c0-0.6,0-1.2,0-1.8c0-0.1,0-0.2,0-0.2c0-0.4,0-0.9,0-1.3c0-0.4,0-0.8,0-1.2
	c0-0.4,0-0.8,0-1.2c0-0.4,0-0.8,0-1.2c0-0.1,0-0.1,0-0.2c0-0.1,0-0.1,0-0.2c0-0.3,0-0.7,0-1.1c0-0.4,0-0.8,0-1.1
	c0.1-0.1,0.2-0.1,0.3-0.1c0.2,0,0.3,0.1,0.4,0.1c0.2,0.2,0.4,0.5,0.5,0.8c0.1,0.3,0.3,0.6,0.4,0.9c0.1,0.4,0.2,0.8,0.3,1.3
	c0.1,0.4,0.2,0.9,0.3,1.3c0,0.1,0,0.2,0,0.3c0,0.1,0,0.2,0.1,0.2c0,1,0,1.9-0.2,2.8C51.6,47.5,51.1,48.1,50.4,48.3L50.4,48.3z
	 M51.6,46.4C51.6,46.4,51.6,46.4,51.6,46.4C51.6,46.4,51.6,46.4,51.6,46.4c0-0.1,0-0.1,0-0.2c0.1-0.4,0.1-0.8,0.1-1.2
	c0-0.5,0-0.9,0-1.3c0-0.1-0.1-0.2-0.1-0.2c0-0.1,0-0.2,0-0.3c-0.1-0.3-0.1-0.7-0.2-1.1c-0.1-0.4-0.2-0.7-0.3-1
	c-0.1-0.3-0.2-0.5-0.3-0.8c-0.1-0.2-0.2-0.4-0.3-0.6c-0.1-0.2-0.2-0.4-0.4-0.5c-0.1,0-0.1,0-0.2-0.1c-0.1,0-0.1,0-0.2,0c0,0,0,0,0,0
	c0,0,0,0.1,0,0.1c0,0,0,0.1,0,0.1c0,0.4,0,0.9,0,1.3c0,0.4,0,0.8,0,1.2c0,0.2,0,0.4,0,0.6c0,0.2,0,0.4,0,0.6c0,0,0,0.1,0,0.3
	c0,0.2,0,0.3,0,0.3c0,0.2,0.1,0.3,0,0.5c0,0.2,0,0.4,0,0.6c0,0.4,0,0.9,0,1.3c0,0.5,0,0.9,0.1,1.4c0,0,0,0.1,0,0.1c0,0,0,0.1,0,0.1
	c0,0.1,0,0.1,0,0.2c0,0.1,0,0.2,0,0.3c0.5,0,0.9-0.2,1.2-0.6C51.3,47.3,51.5,46.9,51.6,46.4L51.6,46.4z M49.9,48.4
	c0,0.4,0,0.9,0,1.4c0,0.5,0,1,0.1,1.4c0,0,0,0.1,0,0.1c0,0.1,0,0.3,0,0.6c0,0.3,0,0.5,0,0.7c0.5-0.1,0.8-0.3,1.1-0.6
	c0.3-0.3,0.4-0.8,0.4-1.4c0,0,0,0,0,0c0,0,0,0,0,0c0-0.2,0-0.3-0.1-0.5c-0.1-0.1-0.1-0.3-0.1-0.4c-0.1-0.2-0.2-0.4-0.4-0.6
	c-0.1-0.2-0.3-0.4-0.5-0.5C50.3,48.4,50.1,48.4,49.9,48.4C49.9,48.4,49.9,48.4,49.9,48.4C49.9,48.4,49.9,48.4,49.9,48.4L49.9,48.4z
	 M53.7,38.8c0.3,0,0.6,0,0.9,0c0.3,0,0.6,0,1,0c0,0,0.2,0,0.3,0c0.2,0,0.2,0,0.2,0.1c0,0-0.1,0.1-0.2,0c-0.1,0-0.2,0-0.2,0
	c-0.3,0-0.7,0-1,0c-0.3,0-0.6,0-0.9,0c0,0.2,0,0.5,0,0.7c0,0.3,0,0.5,0,0.7c0,0,0,0.1,0,0.1c0,0,0,0.1,0,0.1c0,0.1,0,0.2,0,0.2
	c0,0.1,0,0.2,0,0.2c0,0.3,0,0.5,0,0.7c0,0.2,0,0.5,0,0.7c0,0.3,0,0.6,0,1c0,0.3,0,0.6,0,1c0,0.1,0,0.1,0,0.2c0,0.1,0,0.1,0,0.2
	c0,0,0,0.1,0,0.2c0,0.4,0,0.7,0,1.1c0,0.4,0,0.8,0,1.2c0,0.2,0,0.4,0,0.7c0,0.2,0,0.5,0,0.6c0,0.1,0,0.3,0,0.5c0,0.2,0,0.4,0,0.5
	c0.2,0,0.4,0,0.6,0c0.2,0,0.4,0,0.5,0c0.2,0,0.3,0,0.3,0.1c0,0.1-0.1,0.1-0.3,0.1c-0.2,0-0.3,0-0.3,0c-0.2,0-0.3,0-0.4,0
	c-0.1,0-0.2,0-0.4,0c0,0.4,0,0.9,0,1.4c0,0.5,0,0.9,0,1.4c0.5,0,1,0,1.5,0c0.5,0,1,0,1.3,0c0.1,0,0.2,0,0.3,0c0.1,0,0.2,0,0.3,0
	c0.1,0,0.1,0.1,0.1,0.1c0,0.1-0.1,0.1-0.3,0.1c-0.2,0-0.4,0-0.5,0c-0.5,0-1,0-1.5,0c-0.5,0-1,0-1.4,0c-0.1-0.1-0.1-0.1,0-0.2
	c0-0.1,0-0.2,0-0.3c0-0.6,0-1.3,0-1.9c0-0.6,0-1.3,0-1.9c0-0.1,0-0.1,0-0.2c0-0.1,0-0.1,0-0.2c0-0.1,0-0.3,0-0.5c0-0.2,0-0.3,0-0.5
	c0-0.4,0-0.8,0-1.2c0-0.4,0-0.8,0-1.2c0-0.3,0-0.5,0-0.6c0-0.2,0-0.4,0-0.5c0-0.3,0-0.7,0-1.2c0-0.4,0-0.9,0-1.3c0-0.4,0-0.7,0-1.1
	C53.7,39.6,53.7,39.2,53.7,38.8C53.7,38.8,53.7,38.8,53.7,38.8L53.7,38.8z M63.4,38.9C63.4,38.9,63.4,38.9,63.4,38.9
	c0,0.1,0,0.2-0.1,0.1c-0.1,0-0.1,0-0.1,0c-0.1,0-0.1,0-0.2,0c0,0-0.1,0-0.1,0c0,0,0,0,0,0c0,0,0,0,0,0c0,0-0.1,0-0.1,0
	c0,0-0.1,0-0.1,0c0,0,0,0,0,0c0,0,0,0,0,0c-0.3,0-0.7,0-1.2,0c-0.4,0-1,0-1.5,0c0,0.1,0,0.3,0,0.5c0,0.2,0,0.3,0,0.4
	c0,0.4-0.1,0.8,0,1.3c0,0.4,0,0.8,0,1.2c0.1,0,0.2,0,0.3,0c0.1,0,0.2,0,0.3,0c0.1,0,0.3,0,0.4,0c0.1,0,0.3,0,0.4,0.1c0,0,0,0,0,0.1
	c0,0,0,0,0,0c-0.3,0-0.5,0-0.7,0c-0.2,0-0.5-0.1-0.7-0.1c0,0.5,0,1,0,1.4c0,0.4,0,0.8,0,1.3c0,0.2,0,0.4,0,0.7c0,0.2,0,0.5,0,0.7
	c0,0,0,0,0,0.1c0,0.1,0,0.3,0,0.4c0,0.1,0,0.3,0,0.4c0,0.3,0,0.5,0,0.8c0,0.3,0,0.6,0,0.8c0,0.4,0,0.7,0,1.1s0,0.8,0,1.2
	c0,0.1,0,0.1,0,0.1c0,0,0,0,0,0.1c0,0.2,0,0.4,0,0.5c0,0.2,0,0.4,0,0.5c0,0.1,0,0.2-0.1,0.1c0,0-0.1-0.1-0.1-0.2c0-0.1,0-0.2,0-0.3
	c0-0.1,0-0.1,0-0.2c0-0.3,0-0.6,0-1.1c0-0.4,0-0.8,0-1.2c0-0.2,0-0.2,0-0.2c0-0.6,0.1-1.3,0-1.9c0-0.6,0-1.3,0-1.9
	c0-0.1,0-0.3,0-0.5c0-0.2,0-0.3,0-0.4c0-0.4,0-0.7,0-1.1c0-0.4,0-0.7,0.1-1.1c0-0.2,0-0.4,0-0.7c0-0.3,0-0.5,0-0.8
	c0-0.3,0-0.5,0-0.8c0,0,0,0,0-0.1c0,0,0-0.1,0-0.1c0,0,0-0.1,0-0.1c0-0.1,0-0.2,0-0.3c0-0.1,0-0.2,0-0.2c0-0.1,0-0.2,0-0.3
	c0-0.2,0-0.3,0-0.4c0,0,0,0,0.1-0.1c0.1,0,0.3,0,0.4,0c0.1,0,0.2,0,0.3,0c0,0,0.1,0,0.1,0c0,0,0.1,0,0.1,0c0.1,0,0.2,0,0.3,0
	c0.1,0,0.2,0,0.3,0c0.1,0,0.2,0,0.3,0c0.1,0,0.2,0,0.4,0c0.2,0,0.4,0.1,0.8,0C62.9,38.8,63.2,38.9,63.4,38.9L63.4,38.9z M68.4,39
	c0.2,0.2,0.4,0.5,0.5,0.9c0.1,0.4,0.2,0.8,0.3,1.2c0,0.3,0,0.6,0.1,0.9c0,0.3,0,0.6,0.1,0.9c0,0.3,0,0.6,0,0.9c0,0.3,0,0.6,0,1
	c0,0.1,0,0.3,0,0.4c0,0.1,0,0.3,0,0.3c0,0,0,0.1,0,0.1c0,0.2,0,0.4,0,0.6c0,0.2,0,0.4,0,0.6c0,0.2,0,0.4-0.1,0.7
	c0,0.3,0,0.6-0.1,0.8c-0.1,0.8-0.3,1.6-0.5,2.3c-0.2,0.7-0.5,1.4-1,1.9c-0.1,0-0.2,0.1-0.3,0.1c-0.1,0-0.2,0.1-0.2,0.1
	c-0.3,0-0.6-0.1-0.8-0.2c-0.5-0.4-0.8-0.9-1-1.6c0-0.1-0.1-0.2-0.1-0.3c0-0.1,0-0.2-0.1-0.3c0-0.2-0.1-0.4-0.1-0.6
	c0-0.2,0-0.4,0-0.6c0,0,0,0,0,0c0,0,0,0,0,0c0-0.3,0-0.7,0-1.1c0-0.4,0-0.7,0-0.8c0,0,0-0.1,0,0c0,0,0,0,0,0c0-0.2,0-0.6,0-1.3
	c0-0.3,0-0.5,0-0.8c0-0.3,0-0.5,0-0.7c0-0.1,0-0.2,0-0.3c0-0.1,0-0.2,0-0.3c0.1-0.5,0.2-1,0.2-1.5c0.1-0.5,0.2-0.9,0.3-1.4
	c0,0,0,0,0.1,0c0.1-0.4,0.3-0.8,0.5-1.1c0.2-0.3,0.5-0.6,0.8-0.8c0.2,0,0.4-0.1,0.6-0.1C68.1,38.8,68.3,38.9,68.4,39L68.4,39z
	 M68.1,39c-0.2,0-0.3,0-0.5,0c-0.2,0-0.3,0.1-0.4,0.1c0,0-0.1,0.1-0.1,0.1c-0.2,0.2-0.4,0.4-0.5,0.6c-0.1,0.2-0.2,0.5-0.4,0.8
	c-0.3,0.8-0.6,1.7-0.7,2.7c-0.1,1-0.2,2-0.2,3.1c0,0.4,0,0.8,0,1.1c0,0.4,0,0.7,0,1.1c0,0.1,0,0.3,0,0.4c0,0.2,0,0.3,0,0.5
	c0,0.1,0,0.3,0.1,0.4c0,0.2,0,0.3,0.1,0.4c0.1,0.6,0.3,1.1,0.5,1.5c0.2,0.4,0.7,0.7,1.3,0.7c0,0,0.1,0,0.1,0c0,0,0.1,0,0.1,0
	c0.1-0.1,0.2-0.1,0.3-0.2c0.1-0.1,0.2-0.2,0.3-0.3c0.4-0.8,0.7-1.7,0.8-2.7c0.2-1,0.2-2,0.3-3.2c0-0.6,0.1-1.3,0.1-1.9
	c0-0.7,0-1.3-0.1-1.9c0-0.3,0-0.5-0.1-0.8c-0.1-0.4-0.1-0.8-0.2-1.2c-0.1-0.4-0.2-0.7-0.4-1c-0.1,0-0.1-0.1-0.2-0.1
	C68.3,39.1,68.2,39,68.1,39L68.1,39z M71.5,48.3c0.2,0.4,0.3,0.7,0.5,1.1c0.2,0.4,0.4,0.7,0.5,1.1c0.1,0.3,0.3,0.7,0.4,1
	c0.2,0.3,0.3,0.6,0.4,0.9c0.1,0.1,0.1,0.2,0.1,0.3c0,0-0.1,0-0.2-0.2c-0.1-0.2-0.2-0.4-0.3-0.6c-0.1-0.2-0.2-0.4-0.3-0.7
	c-0.1-0.2-0.2-0.4-0.2-0.5c-0.3-0.7-0.7-1.4-1-2.1c0,0.2,0,0.6,0,1c0,0.4,0,0.8,0,1.2c0,0.2,0,0.4,0,0.5c0,0.2,0,0.3,0,0.4
	c0,0.2,0,0.3,0,0.5c0,0.2,0,0.3,0,0.5c0,0-0.1,0-0.1,0c0-0.7-0.1-1.5-0.1-2.3c0-0.8,0-1.6,0-2.4c0-0.1,0-0.3,0-0.5
	c0-0.2,0-0.3,0-0.4c0-0.1,0-0.1,0-0.1c0-0.3,0-0.6,0-1c0-0.4,0-0.8,0-1.1c0-0.2,0-0.4,0-0.6c0-0.2,0-0.4,0-0.5c0-0.5,0-1.1,0-1.5
	c0-0.5,0-1,0-1.5c0-0.1,0-0.2,0-0.1c0-0.2,0-0.5,0-0.8c0-0.3,0-0.6,0-0.9c0.3-0.2,0.6-0.2,0.8,0.1c0.2,0.3,0.4,0.5,0.5,0.7
	c0.1,0.3,0.2,0.5,0.3,0.7c0.3,1,0.6,2.1,0.7,3.2c0,0.2,0,0.4,0,0.6c0,0.2,0,0.3,0.1,0.4c0,0,0,0.1,0,0.3c0,0.1,0,0.1,0,0.2
	c0,0.1,0,0.2,0,0.2c0,0.8-0.2,1.4-0.5,2C72.7,47.9,72.2,48.3,71.5,48.3L71.5,48.3z M71.3,39c0,0.2,0,0.5,0,0.8c0,0.3,0,0.6,0,0.9
	c0,0.3,0,0.6,0,0.7c0,0.2,0,0.3,0,0.4c0,0.1,0,0.3,0,0.4c0,0.2,0,0.3,0,0.3c0,1,0.1,1.9,0.1,2.8c0,0.9,0,1.9,0,2.8
	c0.5,0,0.9-0.2,1.2-0.7c0.3-0.4,0.5-0.9,0.5-1.4c0.1-0.6,0.1-1.2,0.1-1.9c0-0.1,0-0.2-0.1-0.4c0-0.1,0-0.3,0-0.4
	c-0.1-1-0.3-1.8-0.5-2.4c-0.1-0.3-0.2-0.6-0.4-0.9c-0.1-0.3-0.3-0.6-0.5-0.8c-0.1-0.1-0.1-0.2-0.2-0.2C71.6,39,71.5,39,71.3,39
	C71.4,39,71.4,39,71.3,39L71.3,39z M75.3,38.8c0.3,0,0.6,0,0.9,0c0.3,0,0.6,0,1,0c0,0,0.2,0,0.3,0c0.2,0,0.2,0,0.2,0.1
	c0,0-0.1,0.1-0.2,0c-0.1,0-0.2,0-0.2,0c-0.3,0-0.7,0-1,0c-0.3,0-0.6,0-0.9,0c0,0.2,0,0.5,0,0.7c0,0.3,0,0.5,0,0.7c0,0,0,0.1,0,0.1
	c0,0,0,0.1,0,0.1c0,0.1,0,0.2,0,0.2c0,0.1,0,0.2,0,0.2c0,0.3,0,0.5,0,0.7c0,0.2,0,0.5,0,0.7c0,0.3,0,0.6,0,1c0,0.3,0,0.6,0,1
	c0,0.1,0,0.1,0,0.2c0,0.1,0,0.1,0,0.2c0,0,0,0.1,0,0.2c0,0.4,0,0.7,0,1.1c0,0.4,0,0.8,0,1.2c0,0.2,0,0.4,0,0.7c0,0.2,0,0.5,0,0.6
	c0,0.1,0,0.3,0,0.5c0,0.2,0,0.4,0,0.5c0.2,0,0.4,0,0.6,0c0.2,0,0.4,0,0.5,0c0.2,0,0.3,0,0.3,0.1c0,0.1-0.1,0.1-0.3,0.1
	c-0.2,0-0.3,0-0.3,0c-0.2,0-0.3,0-0.4,0c-0.1,0-0.2,0-0.4,0c0,0.4,0,0.9,0,1.4c0,0.5,0,0.9,0,1.4c0.5,0,1,0,1.5,0c0.5,0,1,0,1.3,0
	c0.1,0,0.2,0,0.3,0c0.1,0,0.2,0,0.3,0c0.1,0,0.1,0.1,0.1,0.1c0,0.1-0.1,0.1-0.3,0.1c-0.2,0-0.4,0-0.5,0c-0.5,0-1,0-1.5,0
	c-0.5,0-1,0-1.4,0c-0.1-0.1-0.1-0.1,0-0.2c0-0.1,0-0.2,0-0.3c0-0.6,0-1.3,0-1.9c0-0.6,0-1.3,0-1.9c0-0.1,0-0.1,0-0.2
	c0-0.1,0-0.1,0-0.2c0-0.1,0-0.3,0-0.5c0-0.2,0-0.3,0-0.5c0-0.4,0-0.8,0-1.2c0-0.4,0-0.8,0-1.2c0-0.3,0-0.5,0-0.6c0-0.2,0-0.4,0-0.5
	c0-0.3,0-0.7,0-1.2c0-0.4,0-0.9,0-1.3c0-0.4,0-0.7,0-1.1C75.2,39.6,75.2,39.2,75.3,38.8C75.3,38.8,75.3,38.8,75.3,38.8L75.3,38.8z"
	/>
<path class="st5" d="M50.2,55.2C50.2,55.2,50.2,55.2,50.2,55.2C50.2,55.2,50.2,55.2,50.2,55.2c0.1,0.1,0.1,0.3,0,0.5
	c0,0.2-0.1,0.3-0.1,0.5c-0.1,0.3-0.1,0.6-0.2,0.8c-0.1,0.3-0.1,0.5-0.2,0.8c-0.1,0.4-0.2,0.9-0.3,1.3c-0.1,0.4-0.2,0.8-0.3,1.3
	c-0.1,0.4-0.2,0.9-0.3,1.4c-0.1,0.5-0.2,0.9-0.3,1.4c0,0.1-0.1,0.3-0.1,0.4c0,0.1-0.1,0.3-0.1,0.4c-0.2,0.8-0.5,1.7-0.7,2.5
	c-0.2,0.8-0.5,1.7-0.7,2.5c-0.1,0.2-0.1,0.3-0.1,0.3c-0.1,0-0.1-0.1,0-0.3c0.1-0.2,0.1-0.3,0.1-0.3c0.2-0.8,0.4-1.6,0.6-2.4
	c0.2-0.8,0.5-1.6,0.7-2.4c-0.2-1.2-0.4-2.4-0.6-3.6c-0.2-1.2-0.4-2.4-0.6-3.7c0-0.2,0-0.4-0.1-0.5c0-0.3,0-0.4,0-0.5
	c0.1,0.1,0.1,0.1,0.2,0.2c0,0.1,0,0.2,0,0.3c0,0.1,0,0.2,0,0.3c0,0.1,0,0.2,0.1,0.3c0,0.2,0.1,0.4,0.1,0.6c0,0.2,0.1,0.4,0.1,0.6
	c0,0.3,0.1,0.6,0.1,0.9c0,0.3,0.1,0.6,0.1,0.9c0.1,0.6,0.2,1.2,0.3,1.8c0.1,0.6,0.2,1.2,0.3,1.8c0.3-1.3,0.6-2.6,1-4
	C49.4,57.9,49.8,56.5,50.2,55.2C50.1,55.2,50.1,55.2,50.2,55.2L50.2,55.2z"/>
<path class="st5" d="M54.1,55.3c0.3,0.2,0.4,0.5,0.5,0.9c0.1,0.4,0.2,0.8,0.3,1.2c0,0.3,0,0.6,0.1,0.9c0,0.3,0,0.6,0.1,0.9
	c0,0.3,0,0.6,0,0.9c0,0.3,0,0.6,0,1c0,0.1,0,0.3,0,0.4c0,0.1,0,0.3,0,0.3c0,0,0,0.1,0,0.1c0,0.2,0,0.4,0,0.6c0,0.2,0,0.4,0,0.6
	c0,0.2,0,0.4-0.1,0.7c0,0.3,0,0.6-0.1,0.8c-0.1,0.8-0.3,1.6-0.5,2.3c-0.2,0.7-0.5,1.4-1,1.9c-0.1,0-0.2,0.1-0.3,0.1
	c-0.1,0-0.2,0.1-0.2,0.1c-0.3,0-0.6-0.1-0.8-0.2c-0.5-0.4-0.8-0.9-1-1.6c0-0.1-0.1-0.2-0.1-0.3c0-0.1,0-0.2-0.1-0.3
	c0-0.2-0.1-0.4-0.1-0.6c0-0.2,0-0.4,0-0.6c0,0,0,0,0,0c0,0,0,0,0,0c0-0.3,0-0.7,0-1.1c0-0.4,0-0.7,0-0.8c0,0,0-0.1,0,0c0,0,0,0,0,0
	c0-0.2,0-0.6,0-1.3c0-0.3,0-0.5,0-0.8c0-0.3,0-0.5,0-0.7c0-0.1,0-0.2,0-0.3c0-0.1,0-0.2,0-0.3c0.1-0.5,0.2-1,0.2-1.5
	c0.1-0.5,0.2-0.9,0.3-1.4c0,0,0,0,0.1,0c0.1-0.4,0.3-0.8,0.5-1.1c0.2-0.3,0.5-0.6,0.8-0.8c0.2,0,0.4-0.1,0.6-0.1
	C53.8,55.2,54,55.2,54.1,55.3L54.1,55.3z M53.9,55.4c-0.2,0-0.3,0-0.5,0s-0.3,0.1-0.4,0.1c0,0-0.1,0.1-0.1,0.1
	c-0.2,0.2-0.4,0.4-0.5,0.6c-0.1,0.2-0.2,0.5-0.4,0.8c-0.3,0.8-0.6,1.7-0.7,2.7c-0.1,1-0.2,2-0.2,3.1c0,0.4,0,0.8,0,1.1
	c0,0.4,0,0.7,0,1.1c0,0.1,0,0.3,0,0.4c0,0.2,0,0.3,0,0.5c0,0.1,0,0.3,0.1,0.4c0,0.2,0,0.3,0.1,0.4c0.1,0.6,0.3,1.1,0.5,1.5
	c0.2,0.4,0.7,0.7,1.3,0.7c0,0,0.1,0,0.1,0c0,0,0.1,0,0.1,0c0.1-0.1,0.2-0.1,0.3-0.2c0.1-0.1,0.2-0.2,0.3-0.3
	c0.4-0.8,0.7-1.7,0.8-2.7c0.2-1,0.2-2,0.3-3.2c0-0.6,0.1-1.3,0.1-1.9c0-0.7,0-1.3-0.1-1.9c0-0.3,0-0.5-0.1-0.8
	c-0.1-0.4-0.1-0.8-0.2-1.2s-0.2-0.7-0.4-1c-0.1,0-0.1-0.1-0.2-0.1C54,55.4,53.9,55.4,53.9,55.4L53.9,55.4z"/>
<path class="st5" d="M58.9,55.2c0,0,0.1,0.1,0.1,0.3c0,0.4,0,0.8,0,1.2c0,0.4,0,0.8,0,1c0,0.1,0,0.3,0,0.4c0,0.1,0,0.3,0,0.4
	c0,0.4,0,0.7,0,0.9c0,0.5-0.1,1.1-0.1,1.7c0,0.6,0,1.1-0.1,1.7c0,0.3,0,0.6,0,0.9c0,0.3,0,0.6,0,0.9c0,0.3,0,0.5,0,0.8
	c0,0.3,0,0.5,0,0.8c0,0.3,0,0.6,0,0.9c0,0.3,0,0.6,0,0.9c0,0.2-0.1,0.4-0.1,0.4c0,0.1-0.1,0.2-0.2,0.3c-0.1,0.1-0.1,0.1-0.2,0.2
	c-0.2,0.1-0.5,0.2-0.7,0.2c-0.4,0-0.7,0-1-0.1c-0.4-0.2-0.7-0.4-0.7-0.8c0-0.1,0-0.3,0-0.6c0-0.2,0-0.5,0-0.7c0-0.3,0-0.5,0-0.6
	c0-0.4,0-0.9,0-1.3c0-0.4,0-0.9,0-1.4c0-0.2,0-0.4,0-0.7c0-0.3,0-0.5,0-0.7c0-1.1,0.1-2.1,0.1-3.2c0-0.5,0-1,0-1.4
	c0-0.4,0-0.8,0.1-1.2c0-0.1,0-0.3,0-0.4c0-0.1,0-0.3,0-0.5c0-0.1,0.1-0.2,0.1-0.2c0,0,0.1,0.2,0.1,0.4c0,0.5,0,1,0,1.5
	c0,0.5,0,1,0,1.5c0,0.2,0,0.5,0,0.7c0,0.2,0,0.4,0,0.7c0,0.4,0,0.9,0,1.3c0,0.4,0,0.9,0,1.3c-0.1,0.6-0.1,1.2-0.1,1.8
	c0,0.6,0,1.1,0,1.5c0,0.2,0,0.4,0,0.6c0,0.2,0,0.4,0,0.7c0,0.2,0,0.4,0,0.7c0,0.2,0,0.4,0,0.6c0.1,0.4,0.5,0.6,1.1,0.6
	c0.6,0,1.1-0.1,1.2-0.5c0,0,0-0.1,0-0.1c0,0,0-0.1,0.1-0.1c0-0.1,0-0.2,0-0.4c0-0.1,0-0.2,0-0.4c0-0.4,0-0.8,0-1.3
	c0-0.5,0-0.9,0.1-1.3c0-0.2,0-0.5,0-0.8c0-0.3,0-0.5,0-0.8c0-0.4,0-0.7,0-1.1c0-0.3,0-0.7,0-1c0-0.2,0-0.5,0-0.8c0-0.3,0-0.5,0-0.8
	c0-0.6,0.1-1.1,0.1-1.7c0-0.6,0-1.1,0.1-1.7c0-0.1,0-0.2,0-0.3c0-0.1,0-0.2,0-0.3c0-0.1,0-0.2,0-0.3C58.8,55.3,58.8,55.2,58.9,55.2
	L58.9,55.2z"/>
<path class="st6" d="M50.2,55.2C50.2,55.2,50.2,55.2,50.2,55.2C50.2,55.2,50.2,55.2,50.2,55.2c0.1,0.1,0.1,0.3,0,0.5
	c0,0.2-0.1,0.3-0.1,0.5c-0.1,0.3-0.1,0.6-0.2,0.8c-0.1,0.3-0.1,0.5-0.2,0.8c-0.1,0.4-0.2,0.9-0.3,1.3c-0.1,0.4-0.2,0.8-0.3,1.3
	c-0.1,0.4-0.2,0.9-0.3,1.4c-0.1,0.5-0.2,0.9-0.3,1.4c0,0.1-0.1,0.3-0.1,0.4c0,0.1-0.1,0.3-0.1,0.4c-0.2,0.8-0.5,1.7-0.7,2.5
	c-0.2,0.8-0.5,1.7-0.7,2.5c-0.1,0.2-0.1,0.3-0.1,0.3c-0.1,0-0.1-0.1,0-0.3c0.1-0.2,0.1-0.3,0.1-0.3c0.2-0.8,0.4-1.6,0.6-2.4
	c0.2-0.8,0.5-1.6,0.7-2.4c-0.2-1.2-0.4-2.4-0.6-3.6c-0.2-1.2-0.4-2.4-0.6-3.7c0-0.2,0-0.4-0.1-0.5c0-0.3,0-0.4,0-0.5
	c0.1,0.1,0.1,0.1,0.2,0.2c0,0.1,0,0.2,0,0.3c0,0.1,0,0.2,0,0.3c0,0.1,0,0.2,0.1,0.3c0,0.2,0.1,0.4,0.1,0.6c0,0.2,0.1,0.4,0.1,0.6
	c0,0.3,0.1,0.6,0.1,0.9c0,0.3,0.1,0.6,0.1,0.9c0.1,0.6,0.2,1.2,0.3,1.8c0.1,0.6,0.2,1.2,0.3,1.8c0.3-1.3,0.6-2.6,1-4
	C49.4,57.9,49.8,56.5,50.2,55.2C50.1,55.2,50.1,55.2,50.2,55.2L50.2,55.2z M54.1,55.3c0.3,0.2,0.4,0.5,0.5,0.9
	c0.1,0.4,0.2,0.8,0.3,1.2c0,0.3,0,0.6,0.1,0.9c0,0.3,0,0.6,0.1,0.9c0,0.3,0,0.6,0,0.9c0,0.3,0,0.6,0,1c0,0.1,0,0.3,0,0.4
	c0,0.1,0,0.3,0,0.3c0,0,0,0.1,0,0.1c0,0.2,0,0.4,0,0.6c0,0.2,0,0.4,0,0.6c0,0.2,0,0.4-0.1,0.7c0,0.3,0,0.6-0.1,0.8
	c-0.1,0.8-0.3,1.6-0.5,2.3c-0.2,0.7-0.5,1.4-1,1.9c-0.1,0-0.2,0.1-0.3,0.1c-0.1,0-0.2,0.1-0.2,0.1c-0.3,0-0.6-0.1-0.8-0.2
	c-0.5-0.4-0.8-0.9-1-1.6c0-0.1-0.1-0.2-0.1-0.3c0-0.1,0-0.2-0.1-0.3c0-0.2-0.1-0.4-0.1-0.6c0-0.2,0-0.4,0-0.6c0,0,0,0,0,0
	c0,0,0,0,0,0c0-0.3,0-0.7,0-1.1c0-0.4,0-0.7,0-0.8c0,0,0-0.1,0,0c0,0,0,0,0,0c0-0.2,0-0.6,0-1.3c0-0.3,0-0.5,0-0.8
	c0-0.3,0-0.5,0-0.7c0-0.1,0-0.2,0-0.3c0-0.1,0-0.2,0-0.3c0.1-0.5,0.2-1,0.2-1.5c0.1-0.5,0.2-0.9,0.3-1.4c0,0,0,0,0.1,0
	c0.1-0.4,0.3-0.8,0.5-1.1c0.2-0.3,0.5-0.6,0.8-0.8c0.2,0,0.4-0.1,0.6-0.1C53.8,55.2,54,55.2,54.1,55.3L54.1,55.3z M53.9,55.4
	c-0.2,0-0.3,0-0.5,0s-0.3,0.1-0.4,0.1c0,0-0.1,0.1-0.1,0.1c-0.2,0.2-0.4,0.4-0.5,0.6c-0.1,0.2-0.2,0.5-0.4,0.8
	c-0.3,0.8-0.6,1.7-0.7,2.7c-0.1,1-0.2,2-0.2,3.1c0,0.4,0,0.8,0,1.1c0,0.4,0,0.7,0,1.1c0,0.1,0,0.3,0,0.4c0,0.2,0,0.3,0,0.5
	c0,0.1,0,0.3,0.1,0.4c0,0.2,0,0.3,0.1,0.4c0.1,0.6,0.3,1.1,0.5,1.5c0.2,0.4,0.7,0.7,1.3,0.7c0,0,0.1,0,0.1,0c0,0,0.1,0,0.1,0
	c0.1-0.1,0.2-0.1,0.3-0.2c0.1-0.1,0.2-0.2,0.3-0.3c0.4-0.8,0.7-1.7,0.8-2.7c0.2-1,0.2-2,0.3-3.2c0-0.6,0.1-1.3,0.1-1.9
	c0-0.7,0-1.3-0.1-1.9c0-0.3,0-0.5-0.1-0.8c-0.1-0.4-0.1-0.8-0.2-1.2s-0.2-0.7-0.4-1c-0.1,0-0.1-0.1-0.2-0.1
	C54,55.4,53.9,55.4,53.9,55.4L53.9,55.4z M58.9,55.2c0,0,0.1,0.1,0.1,0.3c0,0.4,0,0.8,0,1.2c0,0.4,0,0.8,0,1c0,0.1,0,0.3,0,0.4
	c0,0.1,0,0.3,0,0.4c0,0.4,0,0.7,0,0.9c0,0.5-0.1,1.1-0.1,1.7c0,0.6,0,1.1-0.1,1.7c0,0.3,0,0.6,0,0.9c0,0.3,0,0.6,0,0.9
	c0,0.3,0,0.5,0,0.8c0,0.3,0,0.5,0,0.8c0,0.3,0,0.6,0,0.9c0,0.3,0,0.6,0,0.9c0,0.2-0.1,0.4-0.1,0.4c0,0.1-0.1,0.2-0.2,0.3
	c-0.1,0.1-0.1,0.1-0.2,0.2c-0.2,0.1-0.5,0.2-0.7,0.2c-0.4,0-0.7,0-1-0.1c-0.4-0.2-0.7-0.4-0.7-0.8c0-0.1,0-0.3,0-0.6
	c0-0.2,0-0.5,0-0.7c0-0.3,0-0.5,0-0.6c0-0.4,0-0.9,0-1.3c0-0.4,0-0.9,0-1.4c0-0.2,0-0.4,0-0.7c0-0.3,0-0.5,0-0.7
	c0-1.1,0.1-2.1,0.1-3.2c0-0.5,0-1,0-1.4c0-0.4,0-0.8,0.1-1.2c0-0.1,0-0.3,0-0.4c0-0.1,0-0.3,0-0.5c0-0.1,0.1-0.2,0.1-0.2
	c0,0,0.1,0.2,0.1,0.4c0,0.5,0,1,0,1.5c0,0.5,0,1,0,1.5c0,0.2,0,0.5,0,0.7c0,0.2,0,0.4,0,0.7c0,0.4,0,0.9,0,1.3c0,0.4,0,0.9,0,1.3
	c-0.1,0.6-0.1,1.2-0.1,1.8c0,0.6,0,1.1,0,1.5c0,0.2,0,0.4,0,0.6c0,0.2,0,0.4,0,0.7c0,0.2,0,0.4,0,0.7c0,0.2,0,0.4,0,0.6
	c0.1,0.4,0.5,0.6,1.1,0.6c0.6,0,1.1-0.1,1.2-0.5c0,0,0-0.1,0-0.1c0,0,0-0.1,0.1-0.1c0-0.1,0-0.2,0-0.4c0-0.1,0-0.2,0-0.4
	c0-0.4,0-0.8,0-1.3c0-0.5,0-0.9,0.1-1.3c0-0.2,0-0.5,0-0.8c0-0.3,0-0.5,0-0.8c0-0.4,0-0.7,0-1.1c0-0.3,0-0.7,0-1c0-0.2,0-0.5,0-0.8
	c0-0.3,0-0.5,0-0.8c0-0.6,0.1-1.1,0.1-1.7c0-0.6,0-1.1,0.1-1.7c0-0.1,0-0.2,0-0.3c0-0.1,0-0.2,0-0.3c0-0.1,0-0.2,0-0.3
	C58.8,55.3,58.8,55.2,58.9,55.2L58.9,55.2z"/>
<path class="st7" d="M66.6,57.8c-0.1-0.3-0.1-0.6-0.2-0.9c0-0.3-0.1-0.7-0.2-1c-0.1-0.4-0.3-0.6-0.5-0.6c-0.1,0-0.2,0-0.4,0.1
	c-0.2,0.2-0.3,0.4-0.5,0.7c-0.1,0.3-0.2,0.6-0.3,0.9c0,0,0,0.1-0.1,0.1c0,0.1,0,0.1,0,0.2c-0.1,0.4-0.1,0.7-0.1,1.1
	c0,0.4,0,0.8,0,1.2c0,0,0,0,0,0.1c0,0.5,0,0.9,0.1,1.4c0.1,0.4,0.2,0.8,0.3,1.1c0.1,0.1,0.3,0.1,0.5,0.2c0.2,0.1,0.3,0.1,0.4,0.2
	c0.2,0.2,0.4,0.3,0.6,0.5c0.2,0.3,0.3,0.6,0.4,1c0,0.1,0,0.2,0,0.3c0,0.1,0,0.2,0.1,0.2c-0.1,0.1-0.1,0.1,0,0.2c0,0,0,0,0,0
	c0,0,0,0,0,0c0,0.2,0,0.4,0,0.5c0,0.2,0,0.3,0,0.5c0,0.1,0,0.2,0,0.3c0,0.1,0,0.2,0,0.2c0,0,0,0,0,0c0,0,0,0,0,0c0,0,0,0.1,0,0.2
	c0,0.1,0,0.2,0,0.2c0,0.1,0,0.2-0.1,0.3c0,0.1,0,0.2,0,0.3c-0.1,0.3-0.2,0.6-0.3,0.9c-0.1,0.3-0.3,0.6-0.6,0.7c0,0-0.1,0-0.1,0
	c0,0-0.1,0-0.1,0c-0.4-0.2-0.7-0.5-0.9-1c-0.2-0.5-0.3-1-0.3-1.4c0-0.2,0-0.4,0-0.6c0-0.2,0-0.4,0.1-0.6c0,0,0.1,0,0.1,0
	c0,0.3,0,0.5,0,0.7c0,0.2,0,0.5,0,0.7c0.1,0.3,0.2,0.7,0.3,1.1c0.1,0.4,0.3,0.7,0.6,0.8c0.2,0.1,0.3,0.1,0.5,0
	c0.1-0.1,0.2-0.2,0.3-0.3c0,0,0,0,0.1-0.1c0,0,0,0,0-0.1c0,0,0-0.1,0-0.1c0.1-0.2,0.2-0.3,0.2-0.3c0-0.2,0.1-0.3,0.1-0.5
	c0-0.2,0.1-0.3,0.1-0.5c0-0.1,0-0.3,0-0.5c0-0.2,0-0.3,0-0.4c0.1-0.5,0.1-1,0.1-1.5c0,0,0,0,0,0c0,0,0,0,0,0c0-0.2,0-0.5-0.1-0.7
	c-0.1-0.2-0.2-0.4-0.3-0.6c-0.1-0.1-0.2-0.2-0.4-0.3c-0.1-0.1-0.3-0.2-0.5-0.3c0,0,0,0,0,0c0,0,0,0,0,0c-0.1,0-0.3-0.1-0.6-0.2
	c-0.1,0-0.2-0.1-0.2-0.3c0-0.1-0.1-0.2-0.1-0.4c0-0.2-0.1-0.3-0.1-0.4c0-0.1,0-0.2,0-0.4c0-0.1-0.1-0.2-0.1-0.4c0-0.2,0-0.3,0-0.4
	c0,0,0,0,0,0c0,0,0,0,0,0c0-0.1-0.1-0.4-0.1-0.7c0-0.3,0-0.6,0-0.7c0-0.1,0-0.1,0-0.1c0,0,0-0.1,0,0c0,0,0,0,0,0c0,0,0-0.1,0-0.1
	c0-0.1,0-0.1,0-0.1c0,0,0,0,0-0.1c0-0.6,0.1-1.2,0.3-1.8c0,0,0-0.1,0.1-0.1c0,0,0.1-0.1,0.1-0.2c0-0.1,0.1-0.3,0.1-0.3
	c0,0,0.1-0.1,0.1-0.1c0.1-0.1,0.1-0.2,0.2-0.3c0.2-0.2,0.5-0.3,0.7-0.2c0.2,0.1,0.3,0.3,0.4,0.6c0.1,0.2,0.2,0.5,0.3,0.7
	c0,0.2,0.1,0.4,0.1,0.7c0,0.3,0.1,0.5,0.1,0.7c0,0.1,0,0.2,0,0.3c0,0.1,0,0.2,0,0.3c0,0,0,0,0,0c0,0,0,0,0,0c0,0,0,0,0,0
	c0,0.2,0,0.3-0.1,0.3c-0.1,0-0.1,0-0.1-0.1c0-0.1,0-0.2,0-0.2c0-0.1,0-0.2,0-0.3C66.6,58.1,66.6,58,66.6,57.8L66.6,57.8z"/>
<path class="st7" d="M67.7,64.7c0,0.3,0,0.5,0,0.8c0,0.3,0,0.5,0.1,0.8c0,0,0,0.1,0,0.1c0,0,0,0.1,0,0.1c0,0.4,0,0.8,0,1.1
	c0,0.4,0,0.8,0,1.2c0,0.2,0,0.3-0.1,0.3c-0.1,0-0.1-0.1-0.1-0.3c0-0.1,0-0.2,0-0.2c0-0.2,0-0.5,0-1c0-0.4,0-0.8,0-1.2
	c0-0.1,0-0.3,0-0.4c0-0.2,0-0.3,0-0.4c0,0,0-0.1,0-0.1c0,0,0,0,0-0.1c0-0.7-0.1-1.4-0.1-2.1c0-0.7,0-1.4,0-2.1c0-0.1,0-0.1,0-0.1
	c0-0.9-0.1-1.9-0.1-2.9c0-1,0-2,0-3c0.1-0.1,0.3-0.1,0.4-0.1c0.1,0,0.2,0.1,0.2,0.1c0.1,0.1,0.1,0.1,0.2,0.1
	c0.4,0.6,0.7,1.3,0.9,2.1c0.2,0.8,0.4,1.6,0.5,2.5c0.1,1.5,0,2.6-0.4,3.5c-0.1,0.1-0.2,0.2-0.2,0.3c-0.1,0.1-0.2,0.2-0.2,0.3
	c-0.1,0.1-0.2,0.1-0.3,0.2c-0.1,0.1-0.2,0.1-0.3,0.2c-0.1,0-0.2,0-0.2,0.1c0,0-0.1,0-0.1,0C67.8,64.7,67.7,64.7,67.7,64.7L67.7,64.7
	z M68.2,64.4c0,0,0.1,0,0.2-0.1c0.1-0.1,0.2-0.1,0.3-0.2c0.1,0,0.1-0.1,0.2-0.2c0-0.1,0.1-0.2,0.2-0.2c0.2-0.3,0.3-0.8,0.4-1.2
	c0.1-0.5,0.1-0.9,0.1-1.4c0,0,0-0.1,0-0.2c0-0.1-0.1-0.3-0.1-0.4c0-0.1,0-0.3,0-0.4c0-0.1-0.1-0.2,0-0.3c0-0.1,0-0.2,0-0.3
	c0-0.2-0.1-0.4-0.1-0.6c0-0.2-0.1-0.4-0.1-0.6c-0.2-0.5-0.3-1.1-0.5-1.6c-0.2-0.5-0.5-0.9-0.9-1.3c-0.2,0-0.3,0-0.3,0
	c0,0.2,0,0.4,0,0.6c0,0.2,0,0.4,0,0.6c0,0,0,0.1,0,0.1c0,0,0,0,0,0.1c0,0,0,0.1,0,0.1c0,0.5,0,1,0,1.5c0,0.5,0,1,0,1.5
	c0,0,0,0.1,0,0.2c0,0.1,0,0.1,0,0.2c0,0.2,0,0.3,0,0.5c0,0.2,0,0.3,0,0.5c0,0.3,0,0.6,0,0.9c0,0.3,0,0.6,0,0.8c0,0,0,0,0,0.1
	c0,0,0,0,0,0c0,0,0,0.1,0,0.1c0,0,0,0,0,0.1c0,0.2,0,0.4,0,0.7c0,0.3,0,0.6,0,0.8C67.9,64.6,68.1,64.5,68.2,64.4L68.2,64.4z"/>
<path class="st7" d="M70.4,55.2c0.3,0,0.6,0,0.9,0c0.3,0,0.6,0,1,0c0,0,0.2,0,0.3,0c0.2,0,0.2,0,0.2,0.1c0,0-0.1,0.1-0.2,0
	c-0.1,0-0.2,0-0.2,0c-0.3,0-0.7,0-1,0c-0.3,0-0.6,0-0.9,0c0,0.2,0,0.5,0,0.7c0,0.3,0,0.5,0,0.7c0,0,0,0.1,0,0.1c0,0,0,0.1,0,0.1
	c0,0.1,0,0.2,0,0.2c0,0.1,0,0.2,0,0.2c0,0.3,0,0.5,0,0.7c0,0.2,0,0.5,0,0.7c0,0.3,0,0.6,0,1c0,0.3,0,0.6,0,1c0,0.1,0,0.1,0,0.2
	c0,0.1,0,0.1,0,0.2c0,0,0,0.1,0,0.2c0,0.4,0,0.7,0,1.1c0,0.4,0,0.8,0,1.2c0,0.2,0,0.4,0,0.7c0,0.2,0,0.5,0,0.6c0,0.1,0,0.3,0,0.5
	c0,0.2,0,0.4,0,0.5c0.2,0,0.4,0,0.6,0c0.2,0,0.4,0,0.5,0c0.2,0,0.3,0,0.3,0.1c0,0.1-0.1,0.1-0.3,0.1c-0.2,0-0.3,0-0.3,0
	c-0.2,0-0.3,0-0.4,0c-0.1,0-0.2,0-0.4,0c0,0.4,0,0.9,0,1.4c0,0.5,0,0.9,0,1.4c0.5,0,1,0,1.5,0c0.5,0,1,0,1.3,0c0.1,0,0.2,0,0.3,0
	c0.1,0,0.2,0,0.3,0c0.1,0,0.1,0.1,0.1,0.1c0,0.1-0.1,0.1-0.3,0.1c-0.2,0-0.4,0-0.5,0c-0.5,0-1,0-1.5,0c-0.5,0-1,0-1.4,0
	c-0.1-0.1-0.1-0.1,0-0.2s0-0.2,0-0.3c0-0.6,0-1.3,0-1.9c0-0.6,0-1.3,0-1.9c0-0.1,0-0.1,0-0.2c0-0.1,0-0.1,0-0.2c0-0.1,0-0.3,0-0.5
	c0-0.2,0-0.3,0-0.5c0-0.4,0-0.8,0-1.2c0-0.4,0-0.8,0-1.2c0-0.3,0-0.5,0-0.6c0-0.2,0-0.4,0-0.5c0-0.3,0-0.7,0-1.2c0-0.4,0-0.9,0-1.3
	c0-0.4,0-0.7,0-1.1C70.4,55.9,70.4,55.6,70.4,55.2C70.4,55.2,70.4,55.2,70.4,55.2L70.4,55.2z"/>
<path class="st7" d="M76.5,55.2c0,0.4,0.1,0.8,0.1,1.1c0,0.4,0.1,0.7,0.1,1c0,0.3,0,0.6,0.1,0.8c0,0.3,0,0.6,0.1,0.8
	c0,0.2,0,0.4,0.1,0.6c0,0.2,0.1,0.4,0.1,0.6c0.1,0.8,0.2,1.7,0.2,2.6c0.1,0.9,0.2,1.7,0.3,2.6c0.1,0.5,0.1,1.1,0.2,1.7
	c0,0.6,0.1,1.1,0.2,1.6c0,0.1,0,0.2,0,0.3c0,0.1,0,0.2,0,0.2c-0.1,0-0.2-0.1-0.2-0.2c0-0.1,0-0.3,0-0.4c-0.1-0.4-0.1-0.7-0.1-1.1
	c0-0.4-0.1-0.8-0.1-1.1c-0.1-0.9-0.2-1.8-0.3-2.8c-0.1-1-0.2-1.9-0.3-2.8c0-0.2,0-0.4,0-0.5c0-0.2,0-0.4,0-0.6
	c-0.1,0-0.3,0.1-0.4,0.1c-0.1,0-0.2,0-0.4,0.1c0,0.3-0.1,0.6-0.1,0.9c0,0.3-0.1,0.6-0.1,0.9c0,0.3-0.1,0.6-0.1,0.9
	c0,0.3,0,0.6-0.1,0.9c-0.1,0.6-0.1,1.2-0.2,1.8c-0.1,0.6-0.1,1.2-0.2,1.8c0,0.1,0,0.2,0,0.3c0,0.1,0,0.2,0,0.3
	c0,0.2-0.1,0.4-0.1,0.6c0,0.2,0,0.4-0.1,0.6c0,0.1,0,0.1,0,0.2c0,0.1,0,0.1-0.1,0.2c-0.1,0-0.2-0.1-0.1-0.2c0-0.1,0-0.2,0.1-0.2
	c0-0.3,0-0.5,0.1-0.8c0-0.3,0-0.6,0.1-0.9c0.1-0.8,0.2-1.6,0.2-2.4c0.1-0.8,0.2-1.6,0.2-2.4c0-0.4,0.1-0.8,0.1-1.2
	c0-0.4,0.1-0.8,0.1-1.2c0.1-0.7,0.2-1.4,0.2-2.1c0.1-0.7,0.1-1.5,0.2-2.2c0-0.2,0-0.3,0-0.3C76.4,55.2,76.4,55.2,76.5,55.2
	L76.5,55.2z M76.1,59.5c0.1,0,0.2,0,0.3-0.1c0.1,0,0.2-0.1,0.4-0.1c0-0.1,0-0.3,0-0.5c0-0.2,0-0.3-0.1-0.5c0-0.4-0.1-0.8-0.1-1.1
	c0-0.3-0.1-0.7-0.1-1.2c0,0,0,0,0,0c0,0,0,0,0,0c0,0.6-0.1,1.2-0.2,1.8C76.2,58.5,76.1,59,76.1,59.5L76.1,59.5z"/>
<path class="st7" d="M79.2,55.2C79.2,55.2,79.2,55.2,79.2,55.2C79.2,55.2,79.2,55.2,79.2,55.2c0.1,0.1,0.1,0.2,0.1,0.4
	c0,0.1,0,0.3,0,0.4c0,0.5-0.1,1-0.1,1.5c0,0.5,0,1,0,1.6c0,0.7,0,1.5-0.1,2.2C79,61.9,79,62.6,79,63.3c0.5-1.3,1-2.5,1.5-3.8
	c0.5-1.3,1-2.6,1.5-3.8c0-0.1,0.1-0.2,0.1-0.3c0-0.1,0.1-0.2,0.2-0.2c0,0.1,0,0.3-0.1,0.5c0,0.1-0.1,0.1-0.1,0.2
	c0,0.1-0.1,0.2-0.1,0.2c-0.1,0.2-0.1,0.3-0.2,0.5c0,0.2-0.1,0.3-0.2,0.5c-0.4,0.8-0.7,1.7-1,2.5c-0.1,0.2-0.2,0.5-0.3,0.8
	c-0.1,0.3-0.2,0.6-0.3,0.8c-0.1,0.3-0.2,0.6-0.3,0.9c-0.1,0.2-0.2,0.4-0.2,0.6c-0.1,0.2-0.2,0.4-0.2,0.7c0,0.1-0.1,0.1-0.1,0.2
	c0,0.1-0.1,0.1-0.1,0.2c0,0,0,0.1,0,0.2c0,0.1,0,0.1,0.1,0.2c0.2,0.7,0.5,1.5,0.8,2.3c0.3,0.8,0.5,1.5,0.8,2.3
	c0,0.1,0.1,0.1,0.1,0.2c0,0.1,0,0.2,0,0.2c-0.1,0-0.2-0.1-0.2-0.2c0-0.1,0-0.2-0.1-0.2c0-0.1-0.1-0.2-0.1-0.3c0-0.1,0-0.2-0.1-0.2
	c-0.2-0.7-0.4-1.3-0.7-2c-0.2-0.6-0.4-1.3-0.7-2c0,0.7-0.1,1.5-0.1,2.3c0,0.8-0.1,1.6-0.1,2.3c0,0.1,0,0.1,0,0.2
	c0,0.1,0,0.1-0.1,0.2c-0.1,0-0.1-0.1-0.1-0.2c0-0.1,0-0.1,0-0.2c0-0.5,0-1,0.1-1.5c0-0.5,0-1,0.1-1.6c0-0.7,0.1-1.4,0.1-2.1
	c0-0.7,0-1.4,0.1-2.1c0.1-0.7,0.1-1.5,0.1-2.2c0-0.7,0-1.5,0.1-2.2c0-0.3,0-0.6,0-1C79.1,55.8,79.1,55.5,79.2,55.2
	C79.2,55.2,79.2,55.2,79.2,55.2L79.2,55.2z"/>
<path class="st8" d="M66.6,57.8c-0.1-0.3-0.1-0.6-0.2-0.9c0-0.3-0.1-0.7-0.2-1c-0.1-0.4-0.3-0.6-0.5-0.6c-0.1,0-0.2,0-0.4,0.1
	c-0.2,0.2-0.3,0.4-0.5,0.7c-0.1,0.3-0.2,0.6-0.3,0.9c0,0,0,0.1-0.1,0.1c0,0.1,0,0.1,0,0.2c-0.1,0.4-0.1,0.7-0.1,1.1
	c0,0.4,0,0.8,0,1.2c0,0,0,0,0,0.1c0,0.5,0,0.9,0.1,1.4c0.1,0.4,0.2,0.8,0.3,1.1c0.1,0.1,0.3,0.1,0.5,0.2c0.2,0.1,0.3,0.1,0.4,0.2
	c0.2,0.2,0.4,0.3,0.6,0.5c0.2,0.3,0.3,0.6,0.4,1c0,0.1,0,0.2,0,0.3c0,0.1,0,0.2,0.1,0.2c-0.1,0.1-0.1,0.1,0,0.2c0,0,0,0,0,0
	c0,0,0,0,0,0c0,0.2,0,0.4,0,0.5c0,0.2,0,0.3,0,0.5c0,0.1,0,0.2,0,0.3c0,0.1,0,0.2,0,0.2c0,0,0,0,0,0c0,0,0,0,0,0c0,0,0,0.1,0,0.2
	c0,0.1,0,0.2,0,0.2c0,0.1,0,0.2-0.1,0.3c0,0.1,0,0.2,0,0.3c-0.1,0.3-0.2,0.6-0.3,0.9c-0.1,0.3-0.3,0.6-0.6,0.7c0,0-0.1,0-0.1,0
	c0,0-0.1,0-0.1,0c-0.4-0.2-0.7-0.5-0.9-1c-0.2-0.5-0.3-1-0.3-1.4c0-0.2,0-0.4,0-0.6c0-0.2,0-0.4,0.1-0.6c0,0,0.1,0,0.1,0
	c0,0.3,0,0.5,0,0.7c0,0.2,0,0.5,0,0.7c0.1,0.3,0.2,0.7,0.3,1.1c0.1,0.4,0.3,0.7,0.6,0.8c0.2,0.1,0.3,0.1,0.5,0
	c0.1-0.1,0.2-0.2,0.3-0.3c0,0,0,0,0.1-0.1c0,0,0,0,0-0.1c0,0,0-0.1,0-0.1c0.1-0.2,0.2-0.3,0.2-0.3c0-0.2,0.1-0.3,0.1-0.5
	c0-0.2,0.1-0.3,0.1-0.5c0-0.1,0-0.3,0-0.5c0-0.2,0-0.3,0-0.4c0.1-0.5,0.1-1,0.1-1.5c0,0,0,0,0,0c0,0,0,0,0,0c0-0.2,0-0.5-0.1-0.7
	c-0.1-0.2-0.2-0.4-0.3-0.6c-0.1-0.1-0.2-0.2-0.4-0.3c-0.1-0.1-0.3-0.2-0.5-0.3c0,0,0,0,0,0c0,0,0,0,0,0c-0.1,0-0.3-0.1-0.6-0.2
	c-0.1,0-0.2-0.1-0.2-0.3c0-0.1-0.1-0.2-0.1-0.4c0-0.2-0.1-0.3-0.1-0.4c0-0.1,0-0.2,0-0.4c0-0.1-0.1-0.2-0.1-0.4c0-0.2,0-0.3,0-0.4
	c0,0,0,0,0,0c0,0,0,0,0,0c0-0.1-0.1-0.4-0.1-0.7c0-0.3,0-0.6,0-0.7c0-0.1,0-0.1,0-0.1c0,0,0-0.1,0,0c0,0,0,0,0,0c0,0,0-0.1,0-0.1
	c0-0.1,0-0.1,0-0.1c0,0,0,0,0-0.1c0-0.6,0.1-1.2,0.3-1.8c0,0,0-0.1,0.1-0.1c0,0,0.1-0.1,0.1-0.2c0-0.1,0.1-0.3,0.1-0.3
	c0,0,0.1-0.1,0.1-0.1c0.1-0.1,0.1-0.2,0.2-0.3c0.2-0.2,0.5-0.3,0.7-0.2c0.2,0.1,0.3,0.3,0.4,0.6c0.1,0.2,0.2,0.5,0.3,0.7
	c0,0.2,0.1,0.4,0.1,0.7c0,0.3,0.1,0.5,0.1,0.7c0,0.1,0,0.2,0,0.3c0,0.1,0,0.2,0,0.3c0,0,0,0,0,0c0,0,0,0,0,0c0,0,0,0,0,0
	c0,0.2,0,0.3-0.1,0.3c-0.1,0-0.1,0-0.1-0.1c0-0.1,0-0.2,0-0.2c0-0.1,0-0.2,0-0.3C66.6,58.1,66.6,58,66.6,57.8L66.6,57.8z M67.7,64.7
	c0,0.3,0,0.5,0,0.8c0,0.3,0,0.5,0.1,0.8c0,0,0,0.1,0,0.1c0,0,0,0.1,0,0.1c0,0.4,0,0.8,0,1.1c0,0.4,0,0.8,0,1.2c0,0.2,0,0.3-0.1,0.3
	c-0.1,0-0.1-0.1-0.1-0.3c0-0.1,0-0.2,0-0.2c0-0.2,0-0.5,0-1c0-0.4,0-0.8,0-1.2c0-0.1,0-0.3,0-0.4c0-0.2,0-0.3,0-0.4c0,0,0-0.1,0-0.1
	c0,0,0,0,0-0.1c0-0.7-0.1-1.4-0.1-2.1c0-0.7,0-1.4,0-2.1c0-0.1,0-0.1,0-0.1c0-0.9-0.1-1.9-0.1-2.9c0-1,0-2,0-3
	c0.1-0.1,0.3-0.1,0.4-0.1c0.1,0,0.2,0.1,0.2,0.1c0.1,0.1,0.1,0.1,0.2,0.1c0.4,0.6,0.7,1.3,0.9,2.1c0.2,0.8,0.4,1.6,0.5,2.5
	c0.1,1.5,0,2.6-0.4,3.5c-0.1,0.1-0.2,0.2-0.2,0.3c-0.1,0.1-0.2,0.2-0.2,0.3c-0.1,0.1-0.2,0.1-0.3,0.2c-0.1,0.1-0.2,0.1-0.3,0.2
	c-0.1,0-0.2,0-0.2,0.1c0,0-0.1,0-0.1,0C67.8,64.7,67.7,64.7,67.7,64.7L67.7,64.7z M68.2,64.4c0,0,0.1,0,0.2-0.1
	c0.1-0.1,0.2-0.1,0.3-0.2c0.1,0,0.1-0.1,0.2-0.2c0-0.1,0.1-0.2,0.2-0.2c0.2-0.3,0.3-0.8,0.4-1.2c0.1-0.5,0.1-0.9,0.1-1.4
	c0,0,0-0.1,0-0.2c0-0.1-0.1-0.3-0.1-0.4c0-0.1,0-0.3,0-0.4c0-0.1-0.1-0.2,0-0.3c0-0.1,0-0.2,0-0.3c0-0.2-0.1-0.4-0.1-0.6
	c0-0.2-0.1-0.4-0.1-0.6c-0.2-0.5-0.3-1.1-0.5-1.6c-0.2-0.5-0.5-0.9-0.9-1.3c-0.2,0-0.3,0-0.3,0c0,0.2,0,0.4,0,0.6c0,0.2,0,0.4,0,0.6
	c0,0,0,0.1,0,0.1c0,0,0,0,0,0.1c0,0,0,0.1,0,0.1c0,0.5,0,1,0,1.5c0,0.5,0,1,0,1.5c0,0,0,0.1,0,0.2c0,0.1,0,0.1,0,0.2
	c0,0.2,0,0.3,0,0.5c0,0.2,0,0.3,0,0.5c0,0.3,0,0.6,0,0.9c0,0.3,0,0.6,0,0.8c0,0,0,0,0,0.1c0,0,0,0,0,0c0,0,0,0.1,0,0.1
	c0,0,0,0,0,0.1c0,0.2,0,0.4,0,0.7c0,0.3,0,0.6,0,0.8C67.9,64.6,68.1,64.5,68.2,64.4L68.2,64.4z M70.4,55.2c0.3,0,0.6,0,0.9,0
	c0.3,0,0.6,0,1,0c0,0,0.2,0,0.3,0c0.2,0,0.2,0,0.2,0.1c0,0-0.1,0.1-0.2,0c-0.1,0-0.2,0-0.2,0c-0.3,0-0.7,0-1,0c-0.3,0-0.6,0-0.9,0
	c0,0.2,0,0.5,0,0.7c0,0.3,0,0.5,0,0.7c0,0,0,0.1,0,0.1c0,0,0,0.1,0,0.1c0,0.1,0,0.2,0,0.2c0,0.1,0,0.2,0,0.2c0,0.3,0,0.5,0,0.7
	c0,0.2,0,0.5,0,0.7c0,0.3,0,0.6,0,1c0,0.3,0,0.6,0,1c0,0.1,0,0.1,0,0.2c0,0.1,0,0.1,0,0.2c0,0,0,0.1,0,0.2c0,0.4,0,0.7,0,1.1
	c0,0.4,0,0.8,0,1.2c0,0.2,0,0.4,0,0.7c0,0.2,0,0.5,0,0.6c0,0.1,0,0.3,0,0.5c0,0.2,0,0.4,0,0.5c0.2,0,0.4,0,0.6,0c0.2,0,0.4,0,0.5,0
	c0.2,0,0.3,0,0.3,0.1c0,0.1-0.1,0.1-0.3,0.1c-0.2,0-0.3,0-0.3,0c-0.2,0-0.3,0-0.4,0c-0.1,0-0.2,0-0.4,0c0,0.4,0,0.9,0,1.4
	c0,0.5,0,0.9,0,1.4c0.5,0,1,0,1.5,0c0.5,0,1,0,1.3,0c0.1,0,0.2,0,0.3,0c0.1,0,0.2,0,0.3,0c0.1,0,0.1,0.1,0.1,0.1
	c0,0.1-0.1,0.1-0.3,0.1c-0.2,0-0.4,0-0.5,0c-0.5,0-1,0-1.5,0c-0.5,0-1,0-1.4,0c-0.1-0.1-0.1-0.1,0-0.2s0-0.2,0-0.3
	c0-0.6,0-1.3,0-1.9c0-0.6,0-1.3,0-1.9c0-0.1,0-0.1,0-0.2c0-0.1,0-0.1,0-0.2c0-0.1,0-0.3,0-0.5c0-0.2,0-0.3,0-0.5c0-0.4,0-0.8,0-1.2
	c0-0.4,0-0.8,0-1.2c0-0.3,0-0.5,0-0.6c0-0.2,0-0.4,0-0.5c0-0.3,0-0.7,0-1.2c0-0.4,0-0.9,0-1.3c0-0.4,0-0.7,0-1.1
	C70.4,55.9,70.4,55.6,70.4,55.2C70.4,55.2,70.4,55.2,70.4,55.2L70.4,55.2z M76.5,55.2c0,0.4,0.1,0.8,0.1,1.1c0,0.4,0.1,0.7,0.1,1
	c0,0.3,0,0.6,0.1,0.8c0,0.3,0,0.6,0.1,0.8c0,0.2,0,0.4,0.1,0.6c0,0.2,0.1,0.4,0.1,0.6c0.1,0.8,0.2,1.7,0.2,2.6
	c0.1,0.9,0.2,1.7,0.3,2.6c0.1,0.5,0.1,1.1,0.2,1.7c0,0.6,0.1,1.1,0.2,1.6c0,0.1,0,0.2,0,0.3c0,0.1,0,0.2,0,0.2
	c-0.1,0-0.2-0.1-0.2-0.2c0-0.1,0-0.3,0-0.4c-0.1-0.4-0.1-0.7-0.1-1.1c0-0.4-0.1-0.8-0.1-1.1c-0.1-0.9-0.2-1.8-0.3-2.8
	c-0.1-1-0.2-1.9-0.3-2.8c0-0.2,0-0.4,0-0.5c0-0.2,0-0.4,0-0.6c-0.1,0-0.3,0.1-0.4,0.1c-0.1,0-0.2,0-0.4,0.1c0,0.3-0.1,0.6-0.1,0.9
	c0,0.3-0.1,0.6-0.1,0.9c0,0.3-0.1,0.6-0.1,0.9c0,0.3,0,0.6-0.1,0.9c-0.1,0.6-0.1,1.2-0.2,1.8c-0.1,0.6-0.1,1.2-0.2,1.8
	c0,0.1,0,0.2,0,0.3c0,0.1,0,0.2,0,0.3c0,0.2-0.1,0.4-0.1,0.6c0,0.2,0,0.4-0.1,0.6c0,0.1,0,0.1,0,0.2c0,0.1,0,0.1-0.1,0.2
	c-0.1,0-0.2-0.1-0.1-0.2c0-0.1,0-0.2,0.1-0.2c0-0.3,0-0.5,0.1-0.8c0-0.3,0-0.6,0.1-0.9c0.1-0.8,0.2-1.6,0.2-2.4
	c0.1-0.8,0.2-1.6,0.2-2.4c0-0.4,0.1-0.8,0.1-1.2c0-0.4,0.1-0.8,0.1-1.2c0.1-0.7,0.2-1.4,0.2-2.1c0.1-0.7,0.1-1.5,0.2-2.2
	c0-0.2,0-0.3,0-0.3C76.4,55.2,76.4,55.2,76.5,55.2L76.5,55.2z M76.1,59.5c0.1,0,0.2,0,0.3-0.1c0.1,0,0.2-0.1,0.4-0.1
	c0-0.1,0-0.3,0-0.5c0-0.2,0-0.3-0.1-0.5c0-0.4-0.1-0.8-0.1-1.1c0-0.3-0.1-0.7-0.1-1.2c0,0,0,0,0,0c0,0,0,0,0,0
	c0,0.6-0.1,1.2-0.2,1.8C76.2,58.5,76.1,59,76.1,59.5L76.1,59.5z M79.2,55.2C79.2,55.2,79.2,55.2,79.2,55.2
	C79.2,55.2,79.2,55.2,79.2,55.2c0.1,0.1,0.1,0.2,0.1,0.4c0,0.1,0,0.3,0,0.4c0,0.5-0.1,1-0.1,1.5c0,0.5,0,1,0,1.6
	c0,0.7,0,1.5-0.1,2.2C79,61.9,79,62.6,79,63.3c0.5-1.3,1-2.5,1.5-3.8c0.5-1.3,1-2.6,1.5-3.8c0-0.1,0.1-0.2,0.1-0.3
	c0-0.1,0.1-0.2,0.2-0.2c0,0.1,0,0.3-0.1,0.5c0,0.1-0.1,0.1-0.1,0.2c0,0.1-0.1,0.2-0.1,0.2c-0.1,0.2-0.1,0.3-0.2,0.5
	c0,0.2-0.1,0.3-0.2,0.5c-0.4,0.8-0.7,1.7-1,2.5c-0.1,0.2-0.2,0.5-0.3,0.8c-0.1,0.3-0.2,0.6-0.3,0.8c-0.1,0.3-0.2,0.6-0.3,0.9
	c-0.1,0.2-0.2,0.4-0.2,0.6c-0.1,0.2-0.2,0.4-0.2,0.7c0,0.1-0.1,0.1-0.1,0.2c0,0.1-0.1,0.1-0.1,0.2c0,0,0,0.1,0,0.2
	c0,0.1,0,0.1,0.1,0.2c0.2,0.7,0.5,1.5,0.8,2.3c0.3,0.8,0.5,1.5,0.8,2.3c0,0.1,0.1,0.1,0.1,0.2c0,0.1,0,0.2,0,0.2
	c-0.1,0-0.2-0.1-0.2-0.2c0-0.1,0-0.2-0.1-0.2c0-0.1-0.1-0.2-0.1-0.3c0-0.1,0-0.2-0.1-0.2c-0.2-0.7-0.4-1.3-0.7-2
	c-0.2-0.6-0.4-1.3-0.7-2c0,0.7-0.1,1.5-0.1,2.3c0,0.8-0.1,1.6-0.1,2.3c0,0.1,0,0.1,0,0.2c0,0.1,0,0.1-0.1,0.2
	c-0.1,0-0.1-0.1-0.1-0.2c0-0.1,0-0.1,0-0.2c0-0.5,0-1,0.1-1.5c0-0.5,0-1,0.1-1.6c0-0.7,0.1-1.4,0.1-2.1c0-0.7,0-1.4,0.1-2.1
	c0.1-0.7,0.1-1.5,0.1-2.2c0-0.7,0-1.5,0.1-2.2c0-0.3,0-0.6,0-1C79.1,55.8,79.1,55.5,79.2,55.2C79.2,55.2,79.2,55.2,79.2,55.2
	L79.2,55.2z"/>
<path class="st7" d="M70,73.5c0.3,0,0.5-0.4,0.2-0.6c-0.1,0-0.1-0.1-0.2-0.1l0,0l-0.1,0l-0.1,0l-0.1,0l-0.1,0l-0.1,0l-0.1,0l-0.1,0
	l-0.1,0l-0.1,0l-0.1,0l-0.1,0c-0.1,0-0.2,0-0.2,0.1c-0.2,0.2-0.1,0.6,0.2,0.6l0.1,0l0.1,0l0.1,0l0.1,0l0.1,0l0.1,0l0.1,0l0.1,0
	l0.1,0l0.1,0L70,73.5L70,73.5L70,73.5z"/>
<path class="st5" d="M72.8,73.6c0.1,0,0.3-0.1,0.3-0.2c0.1-0.2,0-0.5-0.3-0.5l0,0l-0.1,0l-0.1,0l-0.1,0l-0.1,0l-0.1,0l-0.1,0l-0.1,0
	l-0.1,0l-0.1,0l-0.1,0l-0.1,0l0,0c-0.2,0-0.3,0.1-0.3,0.2c-0.1,0.2,0.1,0.5,0.3,0.5l0,0l0.1,0l0.1,0l0.1,0l0.1,0l0.1,0l0.1,0l0.1,0
	l0.1,0l0.1,0L72.8,73.6L72.8,73.6L72.8,73.6L72.8,73.6z"/>
<path class="st3" d="M75.6,73.8c0.4,0,0.5-0.5,0.2-0.7c0,0-0.1,0-0.1,0l0,0l-0.1,0l-0.1,0l-0.1,0l-0.1,0l-0.1,0l-0.1,0l-0.1,0
	l-0.1,0l-0.1,0l-0.1,0l-0.1,0l-0.1,0l-0.1,0l0,0c-0.2,0-0.3,0.1-0.4,0.2c-0.1,0.2,0.1,0.5,0.3,0.5l0,0l0.1,0l0.1,0l0.1,0l0.1,0
	l0.1,0l0.1,0l0.1,0l0.1,0l0.1,0l0.1,0l0.1,0L75.6,73.8L75.6,73.8L75.6,73.8L75.6,73.8z"/>
<path class="st5" d="M78.4,74.1c0.3,0,0.5-0.4,0.3-0.6c-0.1-0.1-0.1-0.1-0.2-0.1l0,0l0,0l0,0l0,0l0,0l0,0l0,0l0,0l0,0l0,0l0,0l0,0
	l0,0l0,0l0,0l0,0l0,0l0,0c-0.2,0-0.3,0.1-0.4,0.2c-0.1,0.2,0.1,0.5,0.3,0.5l0,0l0,0l0,0l0,0l0,0l0,0l0,0l0,0l0,0l0,0l0,0l0,0l0,0
	l0,0L78.4,74.1L78.4,74.1L78.4,74.1L78.4,74.1L78.4,74.1z"/>
<path class="st5" d="M66.4,72.7c-0.3,0-0.5,0.4-0.2,0.6c0.1,0,0.1,0.1,0.2,0.1l0.1,0l0.1,0l0.1,0l0.1,0l0.1,0l0.1,0l0.1,0l0.1,0
	l0.1,0l0.1,0l0.1,0l0,0c0.4,0,0.5-0.4,0.2-0.7c-0.1,0-0.1-0.1-0.2-0.1l0,0l-0.1,0l-0.1,0l-0.1,0l-0.1,0l-0.1,0l-0.1,0l-0.1,0l-0.1,0
	l-0.1,0L66.4,72.7L66.4,72.7L66.4,72.7z"/>
<path class="st3" d="M51.1,73.5c0.1,0,0.2-0.1,0.3-0.2c0.2-0.2,0-0.6-0.3-0.5l0,0l-0.1,0l-0.1,0l-0.1,0l-0.1,0l-0.1,0l-0.1,0l-0.1,0
	l-0.1,0l-0.1,0l-0.1,0l0,0l-0.1,0l0,0l0,0c-0.1,0-0.2,0.1-0.3,0.2c-0.2,0.2,0,0.6,0.3,0.6l0,0l0,0l0,0l0.1,0l0.1,0l0.1,0l0.1,0
	l0.1,0l0.1,0l0.1,0l0.1,0l0.1,0L51.1,73.5L51.1,73.5L51.1,73.5L51.1,73.5z"/>
<path class="st5" d="M54,73.5c0.1,0,0.1,0,0.2-0.1c0.3-0.2,0.1-0.6-0.2-0.6l0,0l-0.1,0l-0.1,0l-0.1,0l-0.1,0l-0.1,0l-0.1,0l-0.1,0
	l-0.1,0l-0.1,0l-0.1,0l-0.1,0l0,0c-0.4,0-0.5,0.5-0.1,0.7c0,0,0.1,0,0.1,0l0,0l0.1,0l0.1,0l0.1,0l0.1,0l0.1,0l0.1,0l0.1,0l0.1,0
	l0.1,0L54,73.5L54,73.5L54,73.5L54,73.5z"/>
<path class="st5" d="M56.8,73.5c0.4,0,0.5-0.5,0.1-0.7c0,0-0.1,0-0.1,0l0,0l-0.1,0l-0.1,0l-0.1,0l-0.1,0l-0.1,0l-0.1,0l-0.1,0
	l-0.1,0l-0.1,0l-0.1,0l0,0c-0.4,0-0.5,0.5-0.2,0.7c0.1,0,0.1,0,0.2,0l0,0l0.1,0l0.1,0l0.1,0l0.1,0l0.1,0l0.1,0l0.1,0l0.1,0l0.1,0
	L56.8,73.5L56.8,73.5L56.8,73.5z"/>
<path class="st7" d="M59.7,73.4c0.1,0,0.2-0.1,0.3-0.1c0.2-0.2,0-0.6-0.3-0.6l0,0l-0.1,0l-0.1,0l-0.1,0l-0.1,0l-0.1,0l-0.1,0l-0.1,0
	l-0.1,0l-0.1,0l-0.1,0l0,0c-0.1,0-0.2,0.1-0.3,0.2c-0.1,0.2,0,0.5,0.3,0.5l0,0l0.1,0l0.1,0l0.1,0l0.1,0l0.1,0l0.1,0l0.1,0l0.1,0
	L59.7,73.4L59.7,73.4L59.7,73.4L59.7,73.4z"/>
<path class="st5" d="M47.5,72.9c-0.4,0-0.5,0.5-0.1,0.7c0,0,0.1,0,0.1,0l0,0l0,0l0,0l0,0l0,0l0,0l0,0l0,0l0,0l0,0l0,0l0,0l0,0l0,0
	l0,0l0,0l0,0l0,0l0,0l0,0l0,0l0,0l0,0c0.1,0,0.3-0.1,0.3-0.2c0.1-0.2-0.1-0.5-0.3-0.5l0,0l0,0l0,0l0,0l0,0l0,0l0,0l0,0l0,0l0,0l0,0
	l0,0l0,0l0,0l0,0l0,0l0,0l0,0l0,0L47.5,72.9L47.5,72.9L47.5,72.9L47.5,72.9L47.5,72.9z"/>
<path class="st9" d="M63.1,72c0.6,0,1.1,0.5,1.1,1.1c0,0.6-0.5,1.1-1.1,1.1c-0.6,0-1.1-0.5-1.1-1.1C62,72.5,62.5,72,63.1,72L63.1,72
	z"/>
</svg>
