<?xml version="1.0" encoding="utf-8"?>
<!-- Generator: Adobe Illustrator 19.1.0, SVG Export Plug-In . SVG Version: 6.00 Build 0)  -->
<svg version="1.1" id="Capa_1" xmlns="http://www.w3.org/2000/svg" xmlns:xlink="http://www.w3.org/1999/xlink" x="0px" y="0px"
	 viewBox="0 0 621.3 593.5" style="enable-background:new 0 0 621.3 593.5;" xml:space="preserve">
<style type="text/css">
	.st0{fill-rule:evenodd;clip-rule:evenodd;fill:#BDBDBA;}
	.st1{fill-rule:evenodd;clip-rule:evenodd;fill:#697080;}
	.st2{fill-rule:evenodd;clip-rule:evenodd;fill:#999996;}
	.st3{fill-rule:evenodd;clip-rule:evenodd;fill:#FAF2DE;}
	.st4{fill-rule:evenodd;clip-rule:evenodd;fill:#CCCCC7;}
</style>
<path class="st0" d="M319.8,0c-18.5,0.1-29.5,0-42.1,9.3c-12.6,9.3-20.2,16-41.2,25.2c-21,9.3-71.5,36.2-81.6,40.4
	c-10.1,4.2-31.1,38.7-45.4,69c-14.3,30.3-48.8,103.5-63.1,140.5C32,321.5,16,366.1,9.3,414S0,509.1,0,520.9
	c0,11.8,17.7,6.7,47.1,7.6c29.5,0.8,52.2,11.8,50.5-2.5c-1.7-14.3-5-53,7.6-85.8c12.6-32.8,24.4-86.7,32.8-111.1
	c8.4-24.4,12.6-32.8,15.1-42.9c2.5-10.1,1.7,15.1-0.8,35.3c-2.5,20.2-8.4,69-16.8,88.4c-8.4,19.4-10.1,27.6-12.9,33.8
	c-2.8,6.2,4,7.6,4,7.6s-5.1,37.4-6.2,58.6c-1.1,21.2-4,49-4.5,53.2c-0.6,4.2,25.5,13.6,69,20.9c43.6,7.4,59.1,8.2,69.6-0.6
	c10.5-8.8,13.9-11.6,13.9-11.6s20.1-0.8,43-0.8c22.9,0,43.6,1.1,43.6,1.1s6.5,17.5,24.3,20.4c17.8,2.8,54.9-0.8,77.3-5.1
	c22.4-4.2,45.6-2,44.7-16.4c-0.8-14.4-6.8-59.1-9.1-77.5c-2.3-18.4-2.3-33.7-2.3-33.7s8.8,2.3,9.9-1.7c1.1-4-2-7.6-5.7-18.4
	c-3.7-10.8-10.5-24.1-15.6-55.5c-5.1-31.4-9.6-60-10.5-78.7c-0.8-18.7,0.8-30.6,1.4-35.7c0.6-5.1,4.5-0.6,13,38.2
	c8.5,38.8,26.2,130,31.8,166.7c5.6,36.7,8.8,49.5,8.8,57.5c0,8,28.7-0.8,52.7-0.8c23.9,0,45.5,5.6,45.5-2.4c0-8,0-40.7,0-65.5
	c0-24.7-7.2-67.8-19.2-111.7c-12-43.9-31.9-107.8-52.7-151.7c-20.8-43.9-51.1-110.9-56.7-118.1c-5.6-7.2-12.8-15.2-46.3-28.7
	C413,39.8,395.4,35,377,19.8C358.7,4.6,347.7-0.1,319.8,0L319.8,0z"/>
<path class="st1" d="M268.3,571.8c0,0,20.1-0.8,43-0.8c22.9,0,43.6,1.1,43.6,1.1c-17.3-27.3-35.5-77.3-45.2-121.5
	C305.9,502.5,284.7,547.7,268.3,571.8L268.3,571.8z"/>
<path class="st1" d="M319.8,0c-13.2,0.1-22.6,0-31.4,3.4c-13,16.4-10.6,46.6,1.2,123.2c11.9,76.5,24.1,122.9,22.5,146.6
	c9.5-31.4,18.4-71.2,33.8-145.4c15.4-74.2,19.7-116.5,4.6-124C342.4,1,333-0.1,319.8,0L319.8,0z"/>
<path class="st0" d="M290.5,10.5c8,0.7,44.7,1.4,53.9,0.9c8.2-0.5,6.6,0,6.6,3.9c0,3.9,2.3,4.1-5,5c-7.3,0.9-43.3,0.5-52-0.2
	c-8.7-0.7-7.1-1.1-6.9-4.8C287.3,11.7,286.4,10.1,290.5,10.5L290.5,10.5z"/>
<path class="st2" d="M246.4,29.8c-3.8,10.1-12.8,33.4-14.6,39.9c-1.7,6.5,7.3,8.2,12.1,11.6c4.7,3.4-8.2,9.1-13.8,12.9
	c-5.6,3.9-4.3,9.9,0.9,22.4c5.2,12.5,36.7,86.2,48.3,107.8c11.6,21.6,23.3,49.2,25.9,58.2c2.6,9.1-0.9,23.3-1.3,32.8
	c-0.4,9.5-1.3,50.4,0.8,71.5c2.1,21,5,63.6,5,63.6s-5-38.4-8.5-67.8s-4.9-61-6.3-80.7c-1.4-19.6-21-48.4-27.4-77.2
	c-6.3-28.8-17.1-64-27.4-84.4C229.7,120.2,218,99.4,226.7,92c8.7-7.4,17.4-7.3,7.2-13.4C223.7,72.5,233.1,55.9,246.4,29.8
	L246.4,29.8z"/>
<path class="st3" d="M306.7,427.1L306.7,427.1c-0.3-2.6-0.7-5.4-1-8.3c-3.8,0-6.8,3.1-6.8,6.8c0,3.8,3,6.8,6.8,6.8
	c0.6,0,1.1-0.1,1.7-0.2l-0.5-3.7c-0.2,0.2-0.5,0.2-0.8,0.1c-0.4-0.2-0.7-0.6-0.5-1.1C305.8,427.1,306.3,426.9,306.7,427.1
	L306.7,427.1z M303.9,426.1c0.4,0.2,0.7,0.6,0.5,1.1c-0.2,0.4-0.6,0.7-1.1,0.5c-0.4-0.2-0.7-0.6-0.5-1.1
	C303,426.1,303.5,425.9,303.9,426.1L303.9,426.1z M304.9,423.3c0.4,0.2,0.7,0.6,0.5,1.1c-0.2,0.4-0.6,0.7-1.1,0.5
	c-0.4-0.2-0.7-0.6-0.5-1.1C304,423.3,304.5,423.1,304.9,423.3L304.9,423.3z"/>
<path class="st2" d="M393.1,30.9c0,0,7.9,30.9,10,35.8c2.1,4.9-5.3,14.8-8.9,17.6c-3.6,2.8-2.3,4.9,4.5,9.7
	c6.8,4.7,15.2,9.1,11,15.3c-4.2,6.2-31,56.4-39.3,77.1c-8.3,20.7-17.2,44-30.6,61.5c-13.4,17.5-31.9,45.3-33.8,54.8
	c-1.9,9.6,0-0.6,2.9-3.5c2.9-2.9,19.1-32.5,26.8-39.8c7.6-7.3,26.1-14.3,35.4-43.4c9.2-29,14.7-60.6,24.2-77.1
	c9.6-16.6,13.7-24.7,15.8-28.2c2.1-3.5,1.4-11-8.5-16.6c-9.8-5.6-9.7-6.9-6.2-9.5c3.5-2.5,13.1-6.5,9.3-16.6
	C402.2,58.8,400.5,50.9,393.1,30.9L393.1,30.9z"/>
<path class="st2" d="M494.8,460.4c2.2,0,4.5-0.5,5-2.3c1.1-4-2-7.6-5.7-18.4c-3.7-10.8-10.5-24.1-15.6-55.5
	c-5.1-31.4-9.6-60-10.5-78.7c-0.8-18.7,0.8-30.6,1.4-35.7c0.2-1.4,0.5-2,1.2-1.5c-3.4-18.5-15.9-38.6-20.4-50.7
	c-4.8-12.9-6.4-25.7-4-47.5c2.4-21.7,4.4-33.5,12.4-51.7c8-18.2,15.2-34.9,29-41.3c-5.9,0.3-12.5,4.8-15.9,11.4
	c-3.5,6.6-15.9,22.2-18,33.6c-2.1,11.4-7.6,28.4-11.1,35.3c-3.5,6.9-3.5,30.5-3.1,40.2c0.3,9.7-4.9,20.4,1.4,19.7
	c6.2-0.7,10.4,6.2,17,21.5c6.6,15.2,10.4,28.4,10,37.8c-0.3,9.4-3.5,24.6-8.3,29.8c-4.9,5.2,5.9,3.5,7.3,9
	c1.4,5.5,0.9,11.3-7.2,14.2c-8.1,2.9-35.3,12.2-17.4,10.4c18-1.7,26.1-6.4,27.8,1.7c1.7,8.1,3.5,10.4-4.6,12.2
	c-8.1,1.7-55,22.6-32.4,18c22.6-4.6,42.9-3.5,41.1,2.3c-1.7,5.8,2.9,11.6,4.1,16.8c1.2,5.2,4.6,15.9,4.6,18c0,2.2-2.6,1.4-10.6,0.2
	c-8-1.2-52.5-8-60.2-9.2c-7.7-1.2-19.8-6-20-2.2c-0.2,3.9,0,16.4,0.5,25.1c0.5,8.7,0.7,20.7,15.4,24.6c14.7,3.9,68.2,10.6,82.2,12
	C491.8,459.8,493.4,460,494.8,460.4L494.8,460.4z M397.6,402.4c3.1,0,35.5,5.4,46.2,7.1c10.8,1.7,35.3,5.4,37.6,5.8
	c2.4,0.4,3.9-3.2-0.9-3.7c-4.7-0.4-29.2-3.9-37.9-5.2c-6.5-1-34.3-5.5-46.4-8.4C393.4,397.4,394.5,402.4,397.6,402.4L397.6,402.4z
	 M486.2,421.5c-1.1-3-3.2-4.5-15.5-6.7c-12.3-2.2-56.6-8.6-65.6-9.7c-9-1.1-12-1.9-11.8,3.7c0.2,5.6-0.4,24.1,3.9,29.7
	c4.3,5.6,4.5,6.2,21.3,9.5c16.8,3.2,64.9,9.7,72.3,10.1c7.3,0.4,10.3,0.6,7.3-6C495,445.4,489.4,429.5,486.2,421.5L486.2,421.5z"/>
<path class="st3" d="M317,330.3c3.8,0,6.8,3,6.8,6.8c0,3.8-3,6.8-6.8,6.8c-3.8,0-6.8-3-6.8-6.8C310.1,333.4,313.2,330.3,317,330.3
	L317,330.3z M316.2,334.8c0.4,0.2,0.7,0.6,0.5,1.1c-0.2,0.4-0.6,0.7-1.1,0.5c-0.4-0.2-0.7-0.6-0.5-1.1
	C315.3,334.8,315.7,334.6,316.2,334.8L316.2,334.8z M319,335.8c0.4,0.2,0.7,0.6,0.5,1.1c-0.2,0.4-0.6,0.7-1.1,0.5
	c-0.4-0.2-0.7-0.6-0.5-1.1C318,335.9,318.5,335.6,319,335.8L319,335.8z M315.2,337.6c0.4,0.2,0.7,0.6,0.5,1.1
	c-0.2,0.4-0.6,0.7-1.1,0.5c-0.4-0.2-0.7-0.6-0.5-1.1C314.2,337.6,314.7,337.4,315.2,337.6L315.2,337.6z M318,338.6
	c0.4,0.2,0.7,0.6,0.5,1.1c-0.2,0.4-0.6,0.7-1.1,0.5c-0.4-0.2-0.7-0.6-0.5-1.1C317,338.6,317.5,338.4,318,338.6L318,338.6z"/>
<path class="st3" d="M600.9,507.6c0.4,0.1,0.6,0.4,0.6,0.8c-0.1,0.4-0.4,0.6-0.8,0.6c-0.4-0.1-0.6-0.4-0.6-0.8
	C600.2,507.8,600.5,507.5,600.9,507.6L600.9,507.6z M603.3,508c0.4,0.1,0.6,0.4,0.6,0.8c-0.1,0.4-0.4,0.6-0.8,0.6
	c-0.4-0.1-0.6-0.4-0.6-0.8C602.6,508.2,602.9,507.9,603.3,508L603.3,508z M600.5,510c0.4,0.1,0.6,0.4,0.6,0.8
	c-0.1,0.4-0.4,0.6-0.8,0.6c-0.4-0.1-0.6-0.4-0.6-0.8C599.8,510.2,600.2,509.9,600.5,510L600.5,510z M602.9,510.4
	c0.4,0.1,0.6,0.4,0.6,0.8c-0.1,0.4-0.4,0.6-0.8,0.6c-0.4-0.1-0.6-0.4-0.6-0.8C602.2,510.6,602.6,510.3,602.9,510.4L602.9,510.4z
	 M602.1,495.7c0.4,0.1,0.5,0.5,0.4,0.9c-0.1,0.4-0.5,0.5-0.9,0.4c-0.4-0.1-0.5-0.5-0.4-0.9C601.4,495.8,601.8,495.6,602.1,495.7
	L602.1,495.7z M604.4,496.6c0.4,0.1,0.5,0.5,0.4,0.9c-0.1,0.4-0.5,0.5-0.9,0.4c-0.4-0.1-0.5-0.5-0.4-0.9
	C603.6,496.6,604,496.4,604.4,496.6L604.4,496.6z M601.3,498c0.4,0.1,0.5,0.5,0.4,0.9c-0.1,0.4-0.5,0.5-0.9,0.4
	c-0.4-0.1-0.5-0.5-0.4-0.9C600.5,498.1,600.9,497.9,601.3,498L601.3,498z M603.6,498.8c0.4,0.1,0.5,0.5,0.4,0.9
	c-0.1,0.4-0.5,0.5-0.9,0.4c-0.4-0.1-0.5-0.5-0.4-0.9C602.8,498.9,603.2,498.7,603.6,498.8L603.6,498.8z M602,484.7
	c0.4-0.1,0.7,0.1,0.8,0.5c0.1,0.4-0.1,0.7-0.5,0.8c-0.4,0.1-0.7-0.1-0.8-0.5C601.4,485.2,601.6,484.8,602,484.7L602,484.7z
	 M604.3,484.1c0.4-0.1,0.7,0.1,0.8,0.5c0.1,0.4-0.1,0.7-0.5,0.8c-0.4,0.1-0.7-0.1-0.8-0.5C603.7,484.6,604,484.2,604.3,484.1
	L604.3,484.1z M602.6,487.1c0.4-0.1,0.7,0.1,0.8,0.5c0.1,0.4-0.1,0.7-0.5,0.8c-0.4,0.1-0.7-0.1-0.8-0.5
	C602,487.5,602.3,487.2,602.6,487.1L602.6,487.1z M605,486.4c0.4-0.1,0.7,0.1,0.8,0.5c0.1,0.4-0.1,0.7-0.5,0.8
	c-0.4,0.1-0.7-0.1-0.8-0.5C604.4,486.9,604.6,486.5,605,486.4L605,486.4z M603.8,472.3c0.4,0.1,0.5,0.5,0.4,0.9
	c-0.1,0.4-0.5,0.5-0.9,0.4c-0.4-0.1-0.5-0.5-0.4-0.9C603.1,472.3,603.5,472.2,603.8,472.3L603.8,472.3z M606.1,473.1
	c0.4,0.1,0.5,0.5,0.4,0.9c-0.1,0.4-0.5,0.5-0.9,0.4c-0.4-0.1-0.5-0.5-0.4-0.9C605.3,473.2,605.7,473,606.1,473.1L606.1,473.1z
	 M603,474.6c0.4,0.1,0.5,0.5,0.4,0.9c-0.1,0.4-0.5,0.5-0.9,0.4c-0.4-0.1-0.5-0.5-0.4-0.9C602.3,474.6,602.6,474.4,603,474.6
	L603,474.6z M605.3,475.4c0.4,0.1,0.5,0.5,0.4,0.9c-0.1,0.4-0.5,0.5-0.9,0.4c-0.4-0.1-0.5-0.5-0.4-0.9
	C604.5,475.4,604.9,475.3,605.3,475.4L605.3,475.4z M604.5,468.6c3.1,0,5.6,2.5,5.6,5.6c0,3.1-2.5,5.5-5.6,5.5
	c-3.1,0-5.6-2.5-5.6-5.5C598.9,471.1,601.4,468.6,604.5,468.6L604.5,468.6z M600.4,481.4c2.5-1.8,6-1.2,7.7,1.3
	c1.8,2.5,1.2,6-1.3,7.7c-2.5,1.8-6,1.2-7.7-1.3C597.3,486.6,597.9,483.2,600.4,481.4L600.4,481.4z M602.8,492.1
	c3.1,0,5.6,2.5,5.6,5.6s-2.5,5.6-5.6,5.6c-3.1,0-5.6-2.5-5.6-5.6S599.7,492.1,602.8,492.1L602.8,492.1z M600.8,503.9
	c3-0.6,5.9,1.4,6.5,4.4c0.6,3-1.4,5.9-4.4,6.5c-3,0.6-5.9-1.4-6.5-4.4C595.9,507.4,597.8,504.5,600.8,503.9L600.8,503.9z"/>
<path class="st3" d="M12.3,502.9c0.4,0,0.7,0.3,0.7,0.7c0,0.4-0.3,0.7-0.7,0.7c-0.4,0-0.7-0.3-0.7-0.7
	C11.6,503.2,11.9,502.9,12.3,502.9L12.3,502.9z M14.7,502.9c0.4,0,0.7,0.3,0.7,0.7c0,0.4-0.3,0.7-0.7,0.7c-0.4,0-0.7-0.3-0.7-0.7
	C14,503.2,14.4,502.9,14.7,502.9L14.7,502.9z M12.3,505.3c0.4,0,0.7,0.3,0.7,0.7c0,0.4-0.3,0.7-0.7,0.7c-0.4,0-0.7-0.3-0.7-0.7
	C11.6,505.6,11.9,505.3,12.3,505.3L12.3,505.3z M14.7,505.4c0.4,0,0.7,0.3,0.7,0.7c0,0.4-0.3,0.7-0.7,0.7c-0.4,0-0.7-0.3-0.7-0.7
	C14,505.7,14.3,505.4,14.7,505.4L14.7,505.4z M11.9,491c0.4,0.1,0.6,0.4,0.5,0.8c-0.1,0.4-0.4,0.6-0.8,0.5c-0.4-0.1-0.6-0.4-0.5-0.8
	C11.2,491.1,11.6,490.9,11.9,491L11.9,491z M14.3,491.5c0.4,0.1,0.6,0.4,0.5,0.8c-0.1,0.4-0.4,0.6-0.8,0.5c-0.4-0.1-0.6-0.4-0.5-0.8
	C13.6,491.6,13.9,491.4,14.3,491.5L14.3,491.5z M11.4,493.3c0.4,0.1,0.6,0.4,0.5,0.8c-0.1,0.4-0.4,0.6-0.8,0.5
	c-0.4-0.1-0.6-0.4-0.5-0.8C10.7,493.5,11.1,493.2,11.4,493.3L11.4,493.3z M13.8,493.8c0.4,0.1,0.6,0.4,0.5,0.8
	c-0.1,0.4-0.4,0.6-0.8,0.5c-0.4-0.1-0.6-0.4-0.5-0.8C13,494,13.4,493.8,13.8,493.8L13.8,493.8z M10.3,480.1c0.4-0.1,0.8,0,0.9,0.4
	c0.1,0.3,0,0.8-0.4,0.9c-0.3,0.1-0.8,0-0.9-0.4C9.8,480.6,10,480.2,10.3,480.1L10.3,480.1z M12.6,479.1c0.4-0.1,0.8,0,0.9,0.4
	c0.1,0.3,0,0.8-0.4,0.9c-0.3,0.1-0.8,0-0.9-0.4C12.1,479.7,12.2,479.3,12.6,479.1L12.6,479.1z M11.3,482.3c0.4-0.1,0.8,0,0.9,0.4
	c0.1,0.3,0,0.8-0.4,0.9c-0.4,0.1-0.8,0-0.9-0.4C10.8,482.8,10.9,482.4,11.3,482.3L11.3,482.3z M13.5,481.4c0.4-0.1,0.8,0,0.9,0.4
	c0.1,0.3,0,0.8-0.4,0.9c-0.3,0.1-0.8,0-0.9-0.4C13,481.9,13.2,481.5,13.5,481.4L13.5,481.4z M10.5,467.5c0.4,0.1,0.6,0.4,0.5,0.8
	c-0.1,0.4-0.4,0.6-0.8,0.5c-0.4-0.1-0.6-0.4-0.5-0.8C9.8,467.7,10.1,467.4,10.5,467.5L10.5,467.5z M12.9,468
	c0.4,0.1,0.6,0.4,0.5,0.8c-0.1,0.4-0.4,0.6-0.8,0.5c-0.4-0.1-0.6-0.4-0.5-0.8C12.1,468.2,12.5,467.9,12.9,468L12.9,468z M10,469.9
	c0.4,0.1,0.6,0.4,0.5,0.8c-0.1,0.4-0.4,0.6-0.8,0.5c-0.4-0.1-0.6-0.4-0.5-0.8C9.3,470,9.6,469.8,10,469.9L10,469.9z M12.4,470.4
	c0.4,0.1,0.6,0.4,0.5,0.8c-0.1,0.4-0.4,0.6-0.8,0.5c-0.4-0.1-0.6-0.4-0.5-0.8C11.6,470.5,12,470.3,12.4,470.4L12.4,470.4z
	 M10.7,463.8c3-0.4,5.8,1.7,6.2,4.8c0.4,3-1.7,5.8-4.8,6.2c-3,0.4-5.8-1.7-6.2-4.8C5.5,467,7.6,464.2,10.7,463.8L10.7,463.8z
	 M8.3,477c2.2-2.1,5.8-2,7.8,0.3c2.1,2.2,2,5.8-0.3,7.8c-2.2,2.1-5.8,2-7.8-0.3C6,482.6,6.1,479.1,8.3,477L8.3,477z M12.1,487.3
	c3-0.4,5.8,1.7,6.2,4.8c0.4,3-1.7,5.8-4.8,6.2c-3,0.4-5.8-1.7-6.2-4.8C6.9,490.5,9,487.7,12.1,487.3L12.1,487.3z M11.7,499.2
	c2.9-1,6.1,0.6,7,3.5c1,2.9-0.6,6.1-3.5,7c-2.9,1-6.1-0.6-7-3.5C7.3,503.4,8.8,500.2,11.7,499.2L11.7,499.2z"/>
<path class="st3" d="M46,285.2c-10.9,28.3-22.7,60.9-30.7,96C53.5,373.1,57.3,316,46,285.2L46,285.2z"/>
<path class="st3" d="M610,383.4c-2.3-10.3-4.9-20.9-7.8-31.6c-6.2-22.9-14.7-51.2-24.2-79.3C557.4,295.9,555.3,382.9,610,383.4
	L610,383.4z"/>
<path class="st2" d="M119.9,393.3c6.9-24.8,13.1-49.7,18.1-64.2c8.4-24.4,12.6-32.8,15.1-42.9c2.5-10.1,1.7,15.1-0.8,35.3
	c-2.5,20.2-8.4,69-16.8,88.4c-8.4,19.4-10.1,27.6-12.9,33.8c-2.8,6.2,4,7.6,4,7.6l0,0.3c0.1,0,0.2,0,0.4,0c11,0.7,66.6-2.5,85-5
	c18.4-2.5,19.3-14.2,21.1-20.6c1.8-6.4,1.4-20.4,1.1-25.3c-0.3-4.8-16.6-1.6-26.9-0.5c-10.3,1.1-52.1,3.5-59.1,4.6
	c-7.1,1.1-10.6,1.1-6.7-3.5c3.9-4.6,8.1-14.2,5-12.8s-1.8-7.4,0.7-18.4c2.5-11,6.4-42.1,7.8-52.8c1.4-10.6,9.6-37.9,10.3-49.9
	c0.7-12,17.4-46.8,21.6-60.2c4.3-13.5,4.6-20.9,2.5-51.7c-2.1-30.8-26.6-71.5-34.4-78.3c21.3,31.9,27.6,57.4,31.2,77.2
	c3.5,19.8,0,44.3-7.4,61.6c-7.4,17.4-17,50.6-22.3,60.6s-9.2,24.4-13.5,35.1c-4.3,10.6-7.4,24.1-12.4,27.3c-5,3.2,1.1,10.3-3.9,18.1
	c-5,7.8-13.5,9.6-7.4,12c6,2.5,2.8,13.8-8.9,14.5c-11.7,0.7-2.1,6,9.2,9.6C119.6,393.2,119.8,393.2,119.9,393.3L119.9,393.3z
	 M231.5,400.8c0,2.7-1.8,2.7-7.8,3c-6,0.3-42.4,3.6-50.1,4.2c-7.8,0.6-27.8,1.8-32.2,2.4c-4.5,0.6-4.5-3.6,0.6-4.2
	c5.1-0.6,26-1.8,34.9-2.7c9-0.9,41.5-3,46.3-3.6C227.9,399.3,231.2,398.4,231.5,400.8L231.5,400.8z M135.4,415.1
	c-2.7,4.8-9.8,24.8-10.7,29.2c-0.9,4.5,0.3,6,6.6,6c6.3,0,64.2-3.3,76.7-5.7c12.5-2.4,18.8-3.3,21.8-14.3c3-11,2.7-20,2.7-23
	c0-3-2.4-2.7-6.9-2.4c-4.5,0.3-57.3,4.5-65.1,5.1s-19.4,1.8-21.8,1.8C136.3,411.9,135.7,413.4,135.4,415.1L135.4,415.1z"/>
<path class="st4" d="M380.2,193.8c-8.6,22.8-36.7,83.7-45.3,95.7c-8.5,12,17.1-4.3,33.3-6c16.2-1.7,24.8,3.4,23.9-27.3
	c-0.9-30.8-5.1-55.5,18.8-46.1c23.9,9.4,17.1-12,17.1-35c0-23.1-3.4-32.5,2.6-33.3c6-0.9-3.4-19.6-3.4-39.3c0-19.7-12-1.7-13.7-13.7
	c-1.7-12-9.4-12.8-9.4-5.1c0,7.7,12.8,14.5,6,41.9C403.3,152.8,391.3,164.4,380.2,193.8L380.2,193.8z M485.3,96.4
	c0,15.4,18.8,84.6,12,89.7c-6.8,5.1,11.1,45.3,3.4,33.3c-7.7-12-18.8-45.3-21.4-31.6c-2.6,13.7-4.3,26.5-11.1,10.3
	c-6.8-16.2-17.9-47-12.8-17.1c5.1,29.9,27.3,67.5,44.4,89.7c17.1,22.2,24.8,67.5,29.9,81.2c5.1,13.7,9.4-13.7,5.1-35
	c-4.3-21.4-25.6-123-13.7-93.1c12,29.9,36.7,58.1,29.9,30.8c-6.8-27.3-35-94.8-41-111.1C504.1,127.1,485.3,86.1,485.3,96.4
	L485.3,96.4z M415,408.9c19.1,1.8,64.4,8.9,68.5,16.1c4.2,7.2,2.4,32.8-1.2,22.6c-3.6-10.1-1.2-16.7-10.1-17.3c-8.9-0.6-8.3-6-3-6.6
	c5.4-0.6-26.8-8.9-39.9-10.7C416.2,411.3,406.7,407.2,415,408.9L415,408.9z M214.2,406.6c-9.5,1.8-57.8,7.7-67.3,7.7
	c-9.5,0-17.3,21.5-17.3,27.4c0,6,6-4.8,8.9-8.9c3-4.2,1.8-4.2,14.3-3c12.5,1.2,20.9-3,7.2-5.4c-13.7-2.4-3.6-6,11.9-6.6
	C187.4,417.3,226.1,405.4,214.2,406.6L214.2,406.6z M251.2,201.5c11.1,24.8,20.5,82,21.4,105.9c0.9,23.9-12.8,85.4-0.9,94.8
	c12,9.4,23.1,32.5,8.5,22.2c-14.5-10.3-35,15.4-43.6,18.8c-8.5,3.4-2.6-6.8,4.3-23.1c6.8-16.2,9.4-23.1,3.4-41
	c-6-17.9-4.3-21.4,7.7-13.7c12,7.7,16.2-48.7,10.3-77.7C256.4,258.7,245.2,191.2,251.2,201.5L251.2,201.5z M117.1,158.7
	c-8.2,12-41.9,81.2-47.8,101.7c-6,20.5,27.3,7.7,31.6-5.1c4.3-12.8,6,28.2,3.4,53c-2.6,24.8-9.4,85.4-15.4,99.1
	c-6,13.7-24.8,82-11.1,53.8c13.7-28.2,26.5-79.5,31.6-95.7c5.1-16.2,17.9-97.4,17.9-122.2c0-24.8,0-35-10.3-29
	c-10.3,6,3.7-38.2,10.3-53.8C134.2,144.2,125.2,146.7,117.1,158.7L117.1,158.7z M211.9,64.8c-12.8,2.6-34.2,22.2-26.5,48.7
	c7.7,26.5,9.4,62.4,15.4,41.9C206.8,134.8,229,57.1,211.9,64.8L211.9,64.8z"/>
</svg>
