<?xml version="1.0" encoding="utf-8"?>
<!-- Generator: Adobe Illustrator 19.1.0, SVG Export Plug-In . SVG Version: 6.00 Build 0)  -->
<svg version="1.1" id="图层_1" xmlns="http://www.w3.org/2000/svg" xmlns:xlink="http://www.w3.org/1999/xlink" x="0px" y="0px"
	 viewBox="0 0 220.6 215.7" style="enable-background:new 0 0 220.6 215.7;" xml:space="preserve">
<style type="text/css">
	.st0{fill-rule:evenodd;clip-rule:evenodd;fill:#3B3F53;}
	.st1{fill-rule:evenodd;clip-rule:evenodd;fill:#333647;}
	.st2{fill-rule:evenodd;clip-rule:evenodd;fill:#C3CBC8;}
	.st3{fill-rule:evenodd;clip-rule:evenodd;fill:#A3AAA7;}
	.st4{fill-rule:evenodd;clip-rule:evenodd;fill:#858A87;}
	.st5{fill:#D0B074;}
	.st6{fill-rule:evenodd;clip-rule:evenodd;fill:#D0B074;}
	.st7{fill-rule:evenodd;clip-rule:evenodd;fill:#ADB2AF;}
</style>
<path class="st0" d="M108.5,6.6c7.4,0.4,8.8-9.3,13.8-3.6c5,5.7,3.1,6,10.8,9.7c7.7,3.6,21.1,8.9,26.9,13.2c5.7,4.3,6.4,4,7.7,8.5
	c1.3,4.5,6.9,8.9,11.6,14.1c4.8,5.2,40.1,134.8,40.9,136.8c0.9,2.1,0.6,3.1-3.1,10.2c-3.4,6.5-13.6,6.6-16.2,4.9
	c-2.3-1.6-33.5-107.8-35.4-109.4c-1.8-1.6-2.5-7.3-3.5-5.2c-1,2.1-1.8,5.9-1.7,9.9c0.1,4,3.9,43.8,4.2,56.6
	c0.3,12.8,2.3,39.7,2.7,44.7c0.3,5-0.1,3.1-7.5,1.5c-7.4-1.5-24.8,10-37.2,13.3c-12.3,3.3-27.3,3.3-43.7,0
	c-16.3-3.3-32-14.1-35.7-14.5c-3.7-0.4-2-2.9-1-14.5c1-11.6,4-53.8,6-68.2c2-14.5,5.2-18.5,5.8-22.9c0.2-1.6,0.9-4.2,0.9-4.9
	c0-1.2-1.2,0.5-1.5-0.9c-0.3-2.1,0.3-4.1-2.8-0.8c-1.3,1.4-28.5,108.7-31,113c-1.1,1.8-2.3,6.5-14.8-1.2c-8-5-4.9,0.3,0-28
	c0.8-4.7,26.8-117.6,30-121c3.2-3.4,7.1-10.1,9.5-13c2.4-2.9,4.9-5,6.8-7.1c1.9-2.1,7.6-5.7,14.2-8.2c6.6-2.5,17-6.5,20.5-9
	c3.6-2.5,4.9-6.1,8.5-9.2C98-1.8,100.4,6.1,108.5,6.6L108.5,6.6z"/>
<path class="st1" d="M110.4,0.3c6.4,0.5,8.5-1.7,13.6,4c2.5,2.8,3.3,4.3,4.4,5.6l1.3,21.3l-9.7,9.2l-3.1,21.3h-11.3l0.1-12.3
	l-4.4-9.3L90.5,28.2l2.3-22C93.8,5,94.8,3.9,96,2.7C99.6-0.4,103.3-0.2,110.4,0.3L110.4,0.3z"/>
<path class="st1" d="M81.5,15.2c2.6-1.2,7.5-3.3,8.8-4.2c3.6-2.6-5.2,20.5-5.7,25.1c-0.4,3.8,4.1,1.6,6.6,1c2.5-0.7,0.1,5.1,4,5.4
	c1.8,0.2,4.7,0.6,7.3,1.5c-0.1,1.1-0.1,2.7-0.2,4.6c-1.1,0.1-2.5,0.3-4.1,0.4c-5.9,0.3-8.4,1.4-10.1,4.6c-1.8,3.3-6.2,2.5-4.6,0
	C85,51.2,74,60,66.9,63.3c-7,3.3,13.2-14.8,18.5-18c5.3-3.3,1.5-5.7-1.3-5.2c-2.9,0.5-2.4-9.8-2.9-13.1c-0.4-3.3-8.6,5.2-11,7.1
	c-2.4,1.9-5.5,7.9-5.3-0.3c0.2-8.2,8.6-4.1,11-8.2C77.4,23.1,79.5,18.8,81.5,15.2L81.5,15.2z"/>
<path class="st1" d="M135.5,37.6c-0.1-2.9-5.8-17-5.8-26v0c0.8,0.4,3.9,1.9,5.1,2.5c0.4,0.2,0.9,0.4,1.4,0.6c1.9,4.4,3.2,9,1.7,8
	c-2.2-1.4,5.5,9.6,10.8,9c5.3-0.5,8.4,17,4.2,14.2c-4.2-2.7-7.1-8.2-4.2-8.2c2.9,0-3.3-2.7-7.1-6.3c-3.7-3.6-6,3-5.1,6.3
	c0.9,3.3,1.5,4.9,4.4,7.9c0.7,0.8,1.2,1.5,1.4,2.1c2.4,2.5,4.7,4.6,6.6,5.3c5.5,2.2,8.8,9.6,5.1,7.1c-3.7-2.5,4.2,7.4,0.7,6.6
	c-3.5-0.8-9.3-10.7-16.1-16.1c-6.8-5.5-6.6-5.7-11.9-4.1c-5.3,1.6-8.6-3.8-11.7,2.5c-1.5,3.1-2.6,3.2-3.4,1.5c0-0.4,0-0.8,0-1.1
	c1.7-14.2,7.8-5.6,10.6-6.9c2.8-1.3,3-6.1,5.3-5.6c1.3,0.3,5.1,2,7,1.9c0.2,0,0.5-0.1,0.7-0.2v0C135.3,38.5,135.5,38.1,135.5,37.6
	L135.5,37.6z"/>
<path class="st1" d="M69.3,56.6c0,1.5-0.4,7.1-0.3,12.9c0.2,5.8,0.2,17.1,0.2,19c0,2,8.9,5.9,10.6,6.6c1.7,0.7,1.6,0.8,3.4,0.2
	c1.8-0.5,11.1-2.5,11.1-5.7c0-3.2,0.2-10.9,0.1-15.4C94.3,69.7,95,61,95.1,59c0.1-2,0.2-1.5-1.9-1.8C91,57,72.5,56.1,70.8,55.7
	C69.2,55.4,69.2,55.4,69.3,56.6L69.3,56.6z"/>
<path class="st1" d="M151,57.6c0.1,1.5,0.8,7.1,1,12.9c0.1,5.8,0.8,17,0.9,19c0.1,2-8.6,6-10.2,6.7c-1.6,0.7-1.5,0.8-3.3,0.3
	c-1.8-0.5-11.3-2.4-11.5-5.5c-0.2-3.2-0.8-10.9-0.9-15.4c-0.2-4.5-1.4-13.2-1.6-15.2c-0.2-2-0.3-1.5,1.8-1.8
	c2.1-0.2,20.6-1.4,22.3-1.8C151.1,56.4,151.1,56.4,151,57.6L151,57.6z"/>
<path class="st0" d="M89.1,10.7c2.5-2.4,4-5.3,7-8c0.7-0.6,1.4-1.1,2.1-1.5c-2.1,1.6-3.6,5.2-2.6,13.9c3.2,26.4,12.9,26.7,12.5,34.2
	c-0.7-5.1-9.1-6.5-12.9-6.9c-3.8-0.3-1.5-6.1-4-5.4c-2.5,0.7-7,2.8-6.6-1c0.4-3.8,2.1-23.1,4.4-25.2L89.1,10.7L89.1,10.7z
	 M121.9,2.3L121.9,2.3c0.1,0.1,0.2,0.2,0.3,0.3c0.6,0.5,1.1,1.1,1.8,1.8c4.3,4.9,3.5,5.8,7.9,8.2v0c2.4,8.5,3.5,22.1,3.6,25
	c0.1,2.9-5.9-0.2-8.2-0.7c-2.2-0.5-2.5,4.3-5.3,5.6c-2.8,1.3-8.8-7.4-10.6,6.9c-0.1-10.8,7.5-13.4,10.4-18.2
	C124.8,26.5,124,6.8,121.9,2.3L121.9,2.3z"/>
<path class="st2" d="M110.2,2c4.6,0.4,6.5-1.1,9.6,2v0c0.6,1.6,1.1,4.9,1.4,8.8c-3.9-0.2-7.2-0.1-10.9,0.2c-5.9,0.6-9-0.9-12.7-0.9
	c-0.1-5.4,1-7.9,2.4-9.2l0,0C102.5,1.4,105.5,1.6,110.2,2L110.2,2z"/>
<path class="st3" d="M114,88.9c0.6,3.2,1,5.3,1.8,8c4.2,14.7,29.5,70.4,51.5,105.1c0.6,1,1.2,1,1.7,0.5c0.8-0.8-0.4-2,0.8-3.3
	c7.2-7.8,13-18.6,17.4-26.7c3.8-7.1,6.8-12,5.7-12.9c-7.3-5.9-16.9-14.1-27.8-22.9C141.2,117.4,116.6,102,114,88.9L114,88.9z"/>
<path class="st3" d="M101.1,35.7h16.6c-3.1,3-6.4,6.5-6.3,13.7c0,11.1,0.8,31.5,2.6,39.5c0.6,3.2,1,5.3,1.8,8
	c4.2,14.6,29.2,69.7,51.1,104.4c-1.1-0.3-2.9-0.9-5.5-1.4c-7.4-1.5-24.8,10-37.2,13.3c-5.3,1.4-11.2,2.2-17.4,2.4
	c0.5-35.8,2.1-159.9,1.3-166.3C108.4,44.7,104.7,42.8,101.1,35.7L101.1,35.7z"/>
<path class="st4" d="M109.8,213.5c-1.4-0.6-2.2-8.1-1.9-16.2c0.2-8.1,2.4-19.8,1.4-33.6c-1-13.8-0.7-25.5-0.7-33.3
	c0-7.8,0.2-24,0.2-33.3c0-9.3,0-32.1,0-39.9c0-7.8,1-10.8-2.7-15.3c-3.6-4.5-3.1-5.7-5.6-6.6c-2.4-0.9,3.1,6,3.6,9.6
	c0.5,3.6-1.9,93.5-2.2,102.8c-0.1,4,0.6,18.9,0.6,33.6C102.7,200.7,102.6,219.6,109.8,213.5L109.8,213.5z"/>
<path class="st5" d="M60.9,24.1c-0.3,0.1-0.2,0.5,0.1,0.5l0.1,0l0.1,0l0.1,0l0.1,0l0,0c0.3-0.1,0.2-0.5-0.1-0.5l0,0l-0.1,0l-0.1,0
	L60.9,24.1L60.9,24.1L60.9,24.1z M86.9,17.2c0.2-0.1,0.1-0.5-0.1-0.5l0,0l0,0l-0.1,0l-0.1,0l-0.1,0l0,0c-0.2,0.1-0.1,0.5,0.1,0.5
	l0,0l0,0l0.1,0l0.1,0L86.9,17.2L86.9,17.2L86.9,17.2z M85.5,17.9c0.2-0.1,0.1-0.5-0.1-0.5l0,0l-0.1,0l-0.1,0l-0.1,0l-0.1,0
	c-0.1,0.1-0.2,0.2-0.1,0.4c0,0.1,0.1,0.1,0.2,0.1l0.1,0l0.1,0L85.5,17.9L85.5,17.9L85.5,17.9z M84,18.5c0.2-0.1,0.2-0.5-0.1-0.5l0,0
	l0,0l-0.1,0l-0.1,0l-0.1,0l-0.1,0c-0.1,0-0.1,0.1-0.1,0.3c0,0.2,0.1,0.2,0.3,0.2l0.1,0l0.1,0l0.1,0L84,18.5L84,18.5L84,18.5z
	 M82.5,19.1c0.1,0,0.1-0.1,0.1-0.2c0-0.2-0.1-0.3-0.2-0.3l-0.1,0l-0.1,0l-0.1,0l-0.1,0c-0.2,0.1-0.1,0.5,0.1,0.5l0,0l0.1,0l0.1,0
	L82.5,19.1L82.5,19.1L82.5,19.1z M81,19.6c0.2-0.1,0.2-0.5-0.1-0.5l0,0l0,0l-0.1,0l-0.1,0l-0.1,0l0,0c-0.2,0.1-0.1,0.5,0.1,0.5l0,0
	l0,0l0.1,0l0.1,0L81,19.6L81,19.6L81,19.6z M79.5,20.2c0.2-0.1,0.2-0.5,0-0.5c0,0,0,0-0.1,0l-0.1,0l-0.1,0l-0.1,0l-0.1,0
	c-0.2,0.1-0.2,0.5,0,0.5c0,0,0,0,0.1,0l0.1,0l0.1,0L79.5,20.2L79.5,20.2L79.5,20.2z M78,20.6c0.2-0.1,0.2-0.5-0.1-0.5l0,0l-0.1,0
	l-0.1,0l-0.1,0l-0.1,0c-0.2,0.1-0.2,0.5,0.1,0.5l0,0l0.1,0l0.1,0L78,20.6L78,20.6L78,20.6z M76.5,21.1c0.1,0,0.2-0.2,0.1-0.4
	c0-0.1-0.1-0.1-0.2-0.1l0,0l-0.1,0l-0.1,0l-0.1,0l0,0c-0.2,0.1-0.2,0.5,0.1,0.5l0,0l0,0l0.1,0l0.1,0L76.5,21.1L76.5,21.1L76.5,21.1z
	 M75,21.5c0.2-0.1,0.2-0.5-0.1-0.5l0,0l0,0l-0.1,0l-0.1,0l-0.1,0l0,0c-0.1,0-0.1,0.1-0.1,0.2c0,0.2,0.1,0.3,0.2,0.3l0,0l0.1,0l0.1,0
	L75,21.5L75,21.5L75,21.5z M73.5,21.9c0.2-0.1,0.2-0.5-0.1-0.5l-0.1,0l-0.1,0l-0.1,0l-0.1,0c-0.2,0-0.2,0.4,0,0.5c0,0,0,0,0.1,0
	l0.1,0l0.1,0L73.5,21.9L73.5,21.9L73.5,21.9z M72,22.3c0.2,0,0.2-0.5,0-0.5c0,0,0,0,0,0l-0.1,0l-0.1,0l-0.1,0l-0.1,0l0,0
	c-0.2,0-0.2,0.5,0,0.5l0,0l0,0l0.1,0l0.1,0L72,22.3L72,22.3L72,22.3z M70.5,22.7c0.2,0,0.2-0.4,0-0.5c0,0,0,0-0.1,0l0,0l-0.1,0
	l-0.1,0l-0.1,0l-0.1,0c-0.2,0-0.2,0.5,0,0.5c0,0,0,0,0,0l0.1,0l0.1,0l0.1,0L70.5,22.7L70.5,22.7L70.5,22.7z M68.9,23
	c0.2,0,0.2-0.5,0-0.5c0,0,0,0,0,0l0,0l-0.1,0l-0.1,0l-0.1,0l0,0c-0.2,0-0.2,0.5,0,0.5c0,0,0,0,0,0l0,0l0.1,0l0.1,0L68.9,23L68.9,23
	L68.9,23z M67.4,23.3c0.2-0.1,0.2-0.5,0-0.5l0,0l-0.1,0l-0.1,0l-0.1,0l-0.1,0l0,0c-0.2,0.1-0.2,0.5,0.1,0.5l0,0l0,0l0.1,0l0.1,0
	L67.4,23.3L67.4,23.3L67.4,23.3z M65.9,23.6c0.2,0,0.2-0.5,0-0.5c0,0,0,0,0,0l-0.1,0l-0.1,0l-0.1,0l-0.1,0l0,0
	c-0.2,0.1-0.2,0.5,0,0.5l0,0l0,0l0.1,0l0.1,0L65.9,23.6L65.9,23.6L65.9,23.6z M64.4,24c0.2-0.1,0.2-0.5,0-0.5c0,0,0,0,0,0l0,0
	l-0.1,0l-0.1,0l-0.1,0l0,0c-0.2,0.1-0.2,0.5,0,0.5l0,0l0,0l0.1,0l0.1,0L64.4,24L64.4,24L64.4,24z M62.8,24.2c0.2-0.1,0.2-0.5,0-0.5
	l0,0l-0.1,0l-0.1,0l-0.1,0l-0.1,0c-0.3,0.1-0.2,0.5,0.1,0.5l0.1,0l0.1,0L62.8,24.2L62.8,24.2L62.8,24.2z"/>
<path class="st5" d="M60.8,25.7c-0.2,0-0.3,0.5,0,0.5l0,0l0.1,0l0.1,0l0.1,0l0.1,0l0,0c0.2,0,0.2-0.5,0-0.5l0,0l0,0l-0.1,0l-0.1,0
	L60.8,25.7L60.8,25.7L60.8,25.7z M86.7,19.9c0.2-0.1,0.1-0.5-0.1-0.5c0,0,0,0,0,0l-0.1,0c-0.1,0-0.1,0.2-0.1,0.3
	C86.4,19.9,86.5,20,86.7,19.9L86.7,19.9L86.7,19.9z M85.5,20.5c0.2-0.1,0.2-0.4-0.1-0.5c0,0,0,0-0.1,0l0,0l-0.1,0l-0.1,0l-0.1,0
	l-0.1,0l0,0c-0.1,0-0.1,0.1-0.1,0.2c0,0.2,0.1,0.3,0.3,0.3l0,0l0.1,0l0.1,0L85.5,20.5L85.5,20.5L85.5,20.5L85.5,20.5z M84.1,21.1
	c0.2-0.1,0.2-0.5-0.1-0.5c0,0,0,0,0,0l0,0l-0.1,0l-0.1,0l-0.1,0l-0.1,0l0,0c-0.2,0.1-0.2,0.5,0.1,0.5c0,0,0,0,0,0l0,0l0.1,0l0.1,0
	L84.1,21.1L84.1,21.1L84.1,21.1L84.1,21.1z M82.6,21.6c0.2-0.1,0.1-0.5-0.1-0.5l0,0l-0.1,0l-0.1,0l-0.1,0l-0.1,0l0,0
	c-0.2,0.1-0.1,0.5,0.1,0.5l0,0l0.1,0l0.1,0L82.6,21.6L82.6,21.6L82.6,21.6z M81.1,22.1c0.2-0.1,0.2-0.5-0.1-0.5c0,0,0,0,0,0l0,0
	l-0.1,0l-0.1,0l-0.1,0l0,0c-0.2,0.1-0.2,0.5,0,0.5c0,0,0,0,0,0l0,0l0.1,0l0.1,0L81.1,22.1L81.1,22.1L81.1,22.1z M79.6,22.6
	c0.1,0,0.1-0.1,0.1-0.2c0-0.2-0.1-0.3-0.2-0.2l-0.1,0l-0.1,0l-0.1,0l-0.1,0c-0.2,0.1-0.2,0.5,0.1,0.5l0,0l0.1,0l0.1,0L79.6,22.6
	L79.6,22.6L79.6,22.6z M78.1,23c0.1,0,0.2-0.1,0.1-0.3c0-0.1-0.1-0.2-0.2-0.2l-0.1,0l-0.1,0l-0.1,0l-0.1,0c-0.2,0.1-0.2,0.5,0.1,0.5
	l0,0l0.1,0l0.1,0L78.1,23L78.1,23L78.1,23z M76.6,23.4c0.2,0,0.2-0.4,0-0.5c0,0,0,0-0.1,0l0,0l-0.1,0l-0.1,0l-0.1,0l0,0
	c-0.2,0-0.2,0.5,0,0.5c0,0,0,0,0,0l0,0l0.1,0l0.1,0L76.6,23.4L76.6,23.4L76.6,23.4z M75,23.8c0.2,0,0.2-0.5,0-0.5c0,0,0,0,0,0
	l-0.1,0l-0.1,0l-0.1,0l-0.1,0c-0.2,0-0.2,0.5,0,0.5c0,0,0,0,0,0l0.1,0l0.1,0L75,23.8L75,23.8L75,23.8z M73.5,24.1
	c0.2,0,0.2-0.5,0-0.5c0,0,0,0,0,0l0,0l-0.1,0l-0.1,0l-0.1,0l0,0c-0.2,0-0.2,0.5,0,0.5c0,0,0,0,0,0l0,0l0.1,0l0.1,0L73.5,24.1
	L73.5,24.1L73.5,24.1z M72,24.5c0.2-0.1,0.2-0.5,0-0.5l0,0l-0.1,0l-0.1,0l-0.1,0l-0.1,0c-0.2,0.1-0.2,0.5,0.1,0.5l0,0l0.1,0l0.1,0
	L72,24.5L72,24.5L72,24.5z M70.5,24.8c0.2-0.1,0.2-0.5,0-0.5l0,0l0,0l-0.1,0l-0.1,0l-0.1,0l0,0c-0.2,0.1-0.2,0.5,0,0.5l0,0l0,0
	l0.1,0l0.1,0L70.5,24.8L70.5,24.8L70.5,24.8z M68.9,25.1c0.3-0.1,0.2-0.5-0.1-0.5l-0.1,0l-0.1,0l-0.1,0l-0.1,0c-0.2,0-0.2,0.4,0,0.5
	c0,0,0,0,0.1,0l0.1,0l0.1,0L68.9,25.1L68.9,25.1L68.9,25.1z M67.4,25.3c0.2,0,0.2-0.4,0-0.5c0,0,0,0,0,0l-0.1,0l-0.1,0l-0.1,0
	l-0.1,0c-0.2,0-0.2,0.4,0,0.5c0,0,0,0,0.1,0l0.1,0l0.1,0L67.4,25.3L67.4,25.3L67.4,25.3z M65.9,25.6c0.2,0,0.2-0.5,0-0.5l0,0l-0.1,0
	l-0.1,0l-0.1,0l-0.1,0l0,0c-0.2,0-0.2,0.5,0,0.5c0,0,0,0,0,0l0,0l0.1,0l0.1,0L65.9,25.6L65.9,25.6L65.9,25.6z M64.3,25.8
	c0.1,0,0.2-0.1,0.2-0.2c0-0.2-0.1-0.3-0.2-0.3l-0.1,0l-0.1,0l-0.1,0l-0.1,0l0,0c-0.2,0-0.2,0.5,0,0.5l0,0l0,0l0.1,0l0.1,0L64.3,25.8
	L64.3,25.8L64.3,25.8z M62.8,26c0.1,0,0.1-0.1,0.2-0.1c0.1-0.2-0.1-0.3-0.2-0.3l-0.1,0l-0.1,0l-0.1,0l-0.1,0l0,0
	c-0.3,0-0.2,0.5,0,0.5l0,0l0.1,0l0.1,0L62.8,26L62.8,26L62.8,26z"/>
<path class="st5" d="M133,16.9c-0.2-0.1-0.4,0.2-0.2,0.4l0,0l0.1,0.1l0.1,0.1l0.1,0.1l0.1,0.1l0,0c0.2,0.1,0.4-0.3,0.2-0.4l0,0
	l-0.1,0l-0.1,0L133,16.9L133,16.9L133,16.9z M158.4,25.7c0.2,0,0.3-0.4,0.1-0.5c0,0,0,0,0,0l-0.1,0l-0.1,0l0,0
	c-0.1,0-0.2,0.1-0.2,0.3c0,0.1,0.1,0.2,0.2,0.2l0,0L158.4,25.7L158.4,25.7L158.4,25.7z M157,25.6c0.2,0,0.3-0.4,0.1-0.5c0,0,0,0,0,0
	l0,0l-0.1,0l-0.1,0l-0.1,0l-0.1,0c-0.2,0-0.3,0.4-0.1,0.5c0,0,0,0,0,0l0.1,0l0.1,0l0.1,0L157,25.6L157,25.6L157,25.6z M155.5,25.4
	c0.2,0,0.3-0.4,0.1-0.5l0,0l-0.1,0l-0.1,0l-0.1,0l-0.1,0v0c-0.2,0-0.3,0.4-0.1,0.5c0,0,0,0,0,0h0l0.1,0l0.1,0L155.5,25.4L155.5,25.4
	L155.5,25.4z M154,25.1c0.3,0,0.3-0.4,0.1-0.5l0,0l-0.1,0l-0.1,0l-0.1,0l-0.1,0c-0.1,0-0.2,0-0.2,0.1c0,0.1,0,0.3,0.1,0.3l0.1,0
	l0.1,0l0.1,0L154,25.1L154,25.1L154,25.1z M152.4,24.8c0.2,0.1,0.3-0.4,0.1-0.5l0,0l0,0l-0.1,0l-0.1,0l-0.1,0l-0.1,0
	c-0.2-0.1-0.3,0.4-0.1,0.5l0,0l0.1,0l0.1,0l0.1,0L152.4,24.8L152.4,24.8L152.4,24.8z M150.9,24.5c0.2,0.1,0.3-0.4,0.1-0.5l0,0
	l-0.1,0l-0.1,0l-0.1,0l-0.1,0l0,0c-0.1,0-0.2,0-0.2,0.1c-0.1,0.1,0,0.3,0.1,0.3l0,0l0.1,0l0.1,0L150.9,24.5L150.9,24.5L150.9,24.5z
	 M149.4,24.1c0.3,0.1,0.3-0.4,0.1-0.5l0,0l-0.1,0l-0.1,0l-0.1,0l0,0c-0.2-0.1-0.3,0.3-0.1,0.4c0,0,0,0,0,0l0,0l0.1,0l0.1,0
	L149.4,24.1L149.4,24.1L149.4,24.1z M147.9,23.7c0.2,0.1,0.3-0.3,0.1-0.5c0,0,0,0,0,0l-0.1,0l-0.1,0l-0.1,0l-0.1,0
	c-0.2-0.1-0.3,0.4-0.1,0.5l0,0l0.1,0l0.1,0l0.1,0L147.9,23.7L147.9,23.7z M146.4,23.2c0.2,0.1,0.3-0.4,0.1-0.5l0,0l0,0l-0.1,0
	l-0.1,0l-0.1,0l0,0c-0.1,0-0.3,0.1-0.2,0.3c0,0.1,0.1,0.2,0.1,0.2l0,0l0.1,0l0.1,0L146.4,23.2L146.4,23.2L146.4,23.2z M144.9,22.7
	c0.2,0.1,0.3-0.4,0.1-0.5l0,0l0,0l-0.1,0l-0.1,0l-0.1,0l0,0c-0.2-0.1-0.3,0.4-0.1,0.5l0,0l0.1,0l0.1,0L144.9,22.7L144.9,22.7
	L144.9,22.7z M143.4,22.2c0.2,0.1,0.4-0.3,0.1-0.4c0,0,0,0,0,0l0,0l-0.1,0l-0.1,0l-0.1,0l0,0c-0.2-0.1-0.3,0.3-0.2,0.4c0,0,0,0,0,0
	l0,0l0.1,0l0.1,0L143.4,22.2L143.4,22.2L143.4,22.2z M141.9,21.7c0.2,0.1,0.4-0.3,0.1-0.4c0,0,0,0,0,0l0,0l-0.1,0l-0.1,0l-0.1,0l0,0
	c-0.2-0.1-0.4,0.3-0.1,0.5l0,0l0,0l0.1,0l0.1,0L141.9,21.7L141.9,21.7L141.9,21.7z M140.4,21.1c0.2,0.1,0.4-0.3,0.1-0.5l0,0l0,0
	l-0.1,0l-0.1,0l-0.1,0l0,0c-0.2-0.1-0.4,0.3-0.1,0.4l0,0l0,0l0.1,0l0.1,0L140.4,21.1L140.4,21.1L140.4,21.1z M138.9,20.5
	c0.2,0.1,0.4-0.3,0.2-0.4c0,0,0,0,0,0l-0.1,0l-0.1,0l-0.1,0l-0.1,0c-0.2-0.1-0.4,0.3-0.1,0.4l0,0l0.1,0l0.1,0L138.9,20.5L138.9,20.5
	L138.9,20.5z M137.5,19.8c0.2,0.1,0.4-0.3,0.2-0.4c0,0,0,0,0,0l0,0l-0.1,0l-0.1,0l-0.1,0l-0.1,0c-0.1,0-0.2,0-0.2,0.1
	c0,0.1,0,0.3,0.1,0.3l0.1,0l0.1,0l0.1,0L137.5,19.8L137.5,19.8L137.5,19.8z M136,19.1c0.2,0.1,0.3-0.1,0.3-0.3
	c0-0.1-0.1-0.1-0.1-0.1l0,0l-0.1,0l-0.1,0l-0.1,0l-0.1,0c-0.2-0.1-0.4,0.3-0.1,0.4l0.1,0l0.1,0l0.1,0L136,19.1L136,19.1L136,19.1z
	 M134.6,18.4c0.2,0.1,0.4-0.3,0.2-0.4l0,0l0,0l-0.1,0l-0.1,0l-0.1,0l0,0c-0.2-0.1-0.4,0.3-0.2,0.4l0,0l0,0l0.1,0l0.1,0L134.6,18.4
	L134.6,18.4L134.6,18.4z"/>
<path class="st5" d="M133.5,19.5c0,0-0.1,0-0.1,0c-0.2,0.1-0.2,0.4,0,0.4l0,0l0,0l0,0l0,0l0,0l0,0l0,0l0,0l0,0
	c0.2,0.1,0.4-0.3,0.2-0.4c0,0,0,0,0,0l0,0l0,0l0,0l0,0l0,0l0,0L133.5,19.5L133.5,19.5L133.5,19.5L133.5,19.5z M157.8,27.1
	c0.2,0,0.3-0.3,0.1-0.5c0,0,0,0-0.1,0l-0.1,0l-0.1,0l-0.1,0l-0.1,0c-0.3,0-0.3,0.4,0,0.5l0.1,0l0.1,0L157.8,27.1L157.8,27.1
	L157.8,27.1z M156.3,27c0.2,0,0.3-0.4,0.1-0.5l0,0l0,0l-0.1,0l-0.1,0l-0.1,0c-0.1,0-0.1,0-0.1,0c-0.1,0.1-0.1,0.4,0.1,0.4l0.1,0
	l0.1,0L156.3,27L156.3,27L156.3,27z M154.7,26.7c0.2,0,0.3-0.4,0.1-0.5l0,0l0,0l-0.1,0l-0.1,0l-0.1,0c-0.2,0-0.3,0.4-0.1,0.5
	c0,0,0,0,0,0l0.1,0l0.1,0L154.7,26.7L154.7,26.7L154.7,26.7z M153.2,26.5c0.3,0,0.3-0.4,0.1-0.5l0,0l-0.1,0l-0.1,0l-0.1,0
	c-0.2,0-0.3,0.3-0.1,0.5c0,0,0,0,0,0l0.1,0l0.1,0L153.2,26.5L153.2,26.5L153.2,26.5z M151.6,26.2c0.1,0,0.2,0,0.2-0.1
	c0.1-0.1,0-0.3-0.1-0.3l0,0l-0.1,0l-0.1,0l-0.1,0c-0.2-0.1-0.3,0.4-0.1,0.5l0,0l0.1,0l0.1,0L151.6,26.2L151.6,26.2L151.6,26.2z
	 M150.1,25.8c0.2,0.1,0.3-0.4,0.1-0.5l0,0l-0.1,0l-0.1,0l-0.1,0l0,0c-0.1,0-0.2,0-0.2,0.1c-0.1,0.1,0,0.3,0.1,0.4l0,0l0.1,0
	L150.1,25.8L150.1,25.8L150.1,25.8z M148.6,25.5c0.3,0.1,0.3-0.4,0.1-0.5l0,0l-0.1,0l-0.1,0l-0.1,0c-0.2-0.1-0.3,0.3-0.1,0.5
	c0,0,0,0,0,0l0.1,0l0.1,0L148.6,25.5L148.6,25.5L148.6,25.5z M147.1,25c0.2,0.1,0.3-0.4,0.1-0.5l0,0l-0.1,0l-0.1,0l-0.1,0l-0.1,0
	c-0.2-0.1-0.3,0.4-0.1,0.5l0,0l0.1,0l0.1,0L147.1,25L147.1,25L147.1,25z M145.6,24.6c0.2,0.1,0.3-0.4,0.1-0.5l0,0l-0.1,0l-0.1,0
	l-0.1,0l-0.1,0c-0.2-0.1-0.3,0.4-0.1,0.5l0,0l0.1,0l0.1,0L145.6,24.6L145.6,24.6L145.6,24.6z M144.1,24.1c0.1,0,0.1,0,0.2-0.1
	c0.1-0.1,0-0.3-0.1-0.4l0,0l-0.1,0l-0.1,0l-0.1,0l0,0c-0.2-0.1-0.3,0.3-0.2,0.4c0,0,0,0,0.1,0l0,0l0.1,0l0.1,0L144.1,24.1
	L144.1,24.1L144.1,24.1z M142.6,23.6c0.2,0.1,0.3-0.4,0.1-0.5l0,0l-0.1,0l-0.1,0l-0.1,0l-0.1,0c-0.2-0.1-0.4,0.3-0.2,0.4
	c0,0,0,0,0,0l0.1,0l0.1,0l0.1,0L142.6,23.6L142.6,23.6L142.6,23.6z M141.1,23.1c0.2,0.1,0.4-0.3,0.2-0.4c0,0,0,0,0,0l0,0l-0.1,0
	l-0.1,0l-0.1,0l0,0c-0.1,0-0.2,0-0.2,0.1c-0.1,0.1,0,0.3,0.1,0.3l0,0l0.1,0l0.1,0L141.1,23.1L141.1,23.1L141.1,23.1z M139.6,22.6
	c0.2,0.1,0.4-0.3,0.1-0.4c0,0,0,0,0,0l-0.1,0l-0.1,0l-0.1,0l-0.1,0l0,0c-0.2-0.1-0.4,0.3-0.1,0.4c0,0,0,0,0,0l0,0l0.1,0l0.1,0
	L139.6,22.6L139.6,22.6L139.6,22.6z M138.1,22c0.1,0,0.1,0,0.2-0.1c0.1-0.1,0.1-0.3-0.1-0.4l0,0l-0.1,0l-0.1,0l-0.1,0l-0.1,0l0,0
	c-0.2-0.1-0.4,0.3-0.1,0.4l0,0l0,0l0.1,0l0.1,0l0.1,0L138.1,22L138.1,22L138.1,22z M136.7,21.4c0.2,0.1,0.4-0.3,0.2-0.4c0,0,0,0,0,0
	l-0.1,0l-0.1,0l-0.1,0l-0.1,0l-0.1,0l0,0c-0.2-0.1-0.4,0.3-0.1,0.5l0,0l0.1,0l0.1,0l0.1,0L136.7,21.4L136.7,21.4L136.7,21.4z
	 M135.2,20.8c0,0,0.1,0,0.1,0c0.2-0.1,0.2-0.4,0-0.5l0,0l-0.1,0l-0.1,0l-0.1,0l-0.1,0l-0.1,0l0,0c-0.2-0.1-0.4,0.3-0.2,0.4
	c0,0,0,0,0,0l0,0l0.1,0l0.1,0l0.1,0L135.2,20.8L135.2,20.8L135.2,20.8L135.2,20.8z"/>
<path class="st4" d="M116.8,36.6c-2.8,2.8-5.4,6.3-5.4,12.7c0,11.1,0.8,31.5,2.6,39.5c0.6,3.2,1,5.3,1.8,8
	c3.2,11.1,18.5,45.8,35.2,77c-0.2,0.7-0.4,1.3-0.6,1.8c-3.2,5.5-16.3,29.5-9.6,26.1c6.7-3.4,12.9-1.8,12.9-8.3c0-6.4,2-7.4,2.7-2.5
	c0.7,4.9,4.7,8.9,4.5,5.2c-0.2-3.7-2-7.4-5.4-12.3c-2.5-3.5-3.1-5.6-3.2-8c4.9,9,9.9,17.7,14.7,25.4c-1.1-0.3-2.9-0.9-5.5-1.4
	c-7.4-1.5-24.8,10-37.2,13.3c-5.3,1.4-11.2,2.2-17.4,2.4l0-2.3c10.3-0.2,21-3,25.6-9.8c4.7-7.1,11.4-20.2,13.4-27
	c2-6.7-15.6-41.4-19.5-50.6c-4-9.2-4-2.1-7.4,1.2c-3.5,3.4-4,4.9-2-0.9c2-5.8,4-9.5,1.7-16c-2.2-6.4-3.2-14.4-4.9-10.4
	c-1.7,4-2.5,7.7-2.2,1.2c0.2-6.4,2-11,0.7-15.3c-1.2-4.3-1-10.7-1-17.8c0-7.1-1.5-17.8-0.5-23.3C111.4,40.1,113.8,37.4,116.8,36.6
	L116.8,36.6z"/>
<path class="st4" d="M163.1,195.2c1.4,2.4,2.8,4.6,4.2,6.8c0.6,1,1.2,1,1.7,0.5c0.8-0.8-0.4-2,0.8-3.3c7.2-7.8,13-18.6,17.4-26.7
	c3.8-7.1,6.8-12,5.7-12.9c-0.4-0.3-0.8-0.6-1.2-1c-1.3,5.3-3.8,6.7-6,11.7c-2.4,5.5-6.4,11.2-11.2,20c-4.9,8.8-7.6,8.2-11.2,3.9
	C163.2,194.6,163.2,194.9,163.1,195.2L163.1,195.2z"/>
<path class="st1" d="M197.1,110.2c1.1-0.4,2.5,4,4.1,9.1c-3.3,0.7-8,3.4-6.5,1.2c1.9-2.7,2-3.2,0.4-4.2c-1.5-1-2.8-1.7-0.8-2.4
	C195.2,113.6,196,112.1,197.1,110.2L197.1,110.2z M202,122.1c0.2,0.6,0.3,1.1,0.5,1.7c-3.3,1.3-6.8,3.9-5.2,2
	C198.5,124.5,200.5,123.2,202,122.1L202,122.1z M203.6,127.3c1.2,4.1,2.2,8.3,3.1,11.4c-3.2,1.3-5.7,3.6-3.9,1.5
	c2.6-3,2.1-2.5,0.2-2.9c-1.9-0.3-4,0.1-2.1-2.1c1.8-2.1,1.7-1.9,0.1-3.2c-1.6-1.3-5.1-0.3-0.5-2.9
	C201.5,128.6,202.6,127.9,203.6,127.3L203.6,127.3z M207.6,141.8c0.2,0.6,0.4,1.1,0.6,1.5c0.1,0.1,0.1,0.2,0.1,0.3
	c-3,0.3-5.1,0.5-2.7-0.8C206.2,142.4,206.9,142.1,207.6,141.8L207.6,141.8z M204.2,148c-0.9,0.5-1.6,0.9-2.2,1.1
	c-1.5,0.8-4.1-0.4-4.8,0.1c0-0.3-0.1-0.6,0-0.9c0.2-2.9-0.4-3.6-3.1-2.3c-2.8,1.3-11-0.9-9.4-2.3c1.7-1.4,10.5,0.5,14.6-0.1
	C201.9,143.3,202.8,146,204.2,148L204.2,148z"/>
<path class="st1" d="M174.6,44.4c1.6,4,4.7,8.5,7.2,13.3c0.6,1.1,1.2,2.3,1.8,3.4c-7.3-0.3-20.6,3.3-22.6,4.3
	c-2.3,1.2,0.9-4.2,4.6-9.5c3.7-5.3,5.3-5.6,3.3-7.9c-2-2.4-7.8-5.2-6.5-10.1c1.3-4.9,2.8-5.3,5,0C169.2,41.9,172.5,45,174.6,44.4
	L174.6,44.4z"/>
<path class="st1" d="M47.3,141c0.9-10.2,1.8-19.5,2.5-24.9c2-14.5,5.2-18.5,5.8-22.9c0.2-1.6,0.9-4.2,0.9-4.9c0-0.9-0.6-0.3-1.1-0.3
	c2.1-2.1,3.3-5.4,4.6-8.5c1.6-3.7,4.3-6.7,4.5-3.1c0.2,3.7-0.2,6.2-1.6,4.2c-1.4-2-4.5,13.2-2,9.8c2.5-3.4,3.4-2.8,9.5,2.8
	c6.1,5.6,19.9,26.4,10.2,19.1c-9.7-7.3-17.7-6.7-19.9,2.2c-2.3,9-13.8,12.6-9.1,19.4c4.8,6.7,6.1,18.8,1.4,11.8
	C50.2,141.5,48.8,139.3,47.3,141L47.3,141z"/>
<path class="st1" d="M12.4,147.9c2-9.9,3.8-19,5.1-24.2c3.3-14,6-17.5,7-21.8c0.4-1.5,1.2-4,1.3-4.7c0.1-0.9-0.4-0.3-0.7-0.5
	c1.7-1.8,2.9-4.9,4.2-7.7c1.6-3.4,3.8-6,3.5-2.4c-0.3,3.6-1,6.1-1.6,3.9c-0.6-2.1-4.8,12.4-2.7,9.4c2.1-3,2.7-2.3,6,4.1
	c3.4,6.4,8.3,7.9,4.3,20.3c-3.3,10.2-11-9.2-13.7-0.6c-2.7,8.5-11,10.5-8.7,17.8c2.3,7.3,1.6,19.4-0.7,11.8
	C14.3,148.8,13.7,146.4,12.4,147.9L12.4,147.9z"/>
<path class="st1" d="M83,213.7c-0.8-0.1-1.6-0.3-2.5-0.5c-7.6-1.5-15-4.7-21.2-7.7c0-0.1,0-0.2,0-0.3c0.3-5.5,4.2-33.2,4.8-21.8
	c0.6,11.4,19.9,4.8,14.6,11.1c-5.4,6.3-6.3,13.7,1.2,11.1c7.4-2.6,21.4-9.6,14-1.8C89.1,208.8,84.9,210.6,83,213.7L83,213.7z
	 M55.6,203.7c-3.4-1.7-6.2-3.2-8.2-4.1c0.3-5.3,2.3-9.8,3.6-5.5C51.9,197,53.8,201,55.6,203.7L55.6,203.7z"/>
<path class="st1" d="M55.3,28.2c2.8,0.6,3.5,9.9,3.2,13.9s-2.2,7.1,0.7,8.9c2.9,1.8,3.9,11.1,0.4,7.6C56,55,55.6,51.5,56,44.8
	C56.3,38.1,52,27.5,55.3,28.2L55.3,28.2z"/>
<path class="st1" d="M37.8,55c0.7-0.5,1.5-1.1,2.1-1.8c0.7-0.7,1.4-1.6,2.2-2.6c3.5,2.4,8.4,4.7,11.1,7.8C56.8,62.3,44,56.2,37.8,55
	L37.8,55z"/>
<path class="st5" d="M99.9,212.8c0.3,0,0.3-0.5,0-0.5l-0.1,0l-0.1,0l-0.1,0l-0.1,0l-0.1,0l0,0c-0.2,0-0.3,0.4-0.1,0.5c0,0,0,0,0.1,0
	l0,0l0.1,0l0.1,0l0.1,0L99.9,212.8L99.9,212.8L99.9,212.8z M43.1,194.2c-0.2,0-0.3,0.3-0.1,0.5c0,0,0,0,0,0l0,0l0.1,0l0.1,0l0.1,0
	l0.1,0l0.1,0l0.1,0c0.2,0.1,0.3-0.3,0.2-0.4c0,0,0,0-0.1,0l-0.1,0l-0.1,0l-0.1,0l-0.1,0L43.1,194.2L43.1,194.2L43.1,194.2
	L43.1,194.2z M44.6,194.8c-0.2-0.1-0.4,0.3-0.1,0.5l0,0l0.1,0l0.1,0l0.1,0l0.1,0l0,0c0.2,0.1,0.4-0.3,0.2-0.4c0,0,0,0,0,0l0,0
	l-0.1,0l-0.1,0L44.6,194.8L44.6,194.8L44.6,194.8L44.6,194.8z M46,195.4c-0.2-0.1-0.4,0.3-0.1,0.4l0,0l0.1,0l0.1,0l0.1,0l0.1,0
	c0,0,0,0,0.1,0c0.2,0,0.3-0.4,0.1-0.5l-0.1,0l-0.1,0L46,195.4L46,195.4L46,195.4z M47.5,196.1c-0.2-0.1-0.3,0.1-0.3,0.3
	c0,0.1,0.1,0.1,0.1,0.1l0.1,0.1l0.1,0.1l0.1,0.1l0,0c0.2,0.1,0.4-0.3,0.1-0.4l0,0l-0.1-0.1l-0.1-0.1L47.5,196.1L47.5,196.1z
	 M48.9,196.9c-0.2-0.1-0.4,0.3-0.1,0.4l0.1,0l0.1,0.1l0.1,0.1l0,0c0.2,0.1,0.4-0.2,0.2-0.4c0,0,0,0,0,0l0,0l-0.1-0.1L48.9,196.9
	L48.9,196.9L48.9,196.9z M50.3,197.6c-0.1,0-0.1,0-0.2,0c-0.1,0.1-0.1,0.3,0,0.4l0.1,0l0.1,0.1l0.1,0.1l0,0c0.1,0,0.1,0,0.2,0
	c0.1-0.1,0.1-0.3,0-0.4l0,0l-0.1-0.1L50.3,197.6L50.3,197.6L50.3,197.6z M51.8,198.3c-0.1,0-0.2,0-0.2,0.1c-0.1,0.1,0,0.3,0.1,0.3
	l0.1,0.1l0.1,0.1l0.1,0c0.1,0,0.2,0,0.2-0.1c0.1-0.1,0-0.3-0.1-0.3l-0.1,0l-0.1-0.1L51.8,198.3L51.8,198.3z M53.2,199.1
	c-0.2-0.1-0.4,0.2-0.2,0.4c0,0,0,0,0,0l0,0l0.1,0.1l0.1,0.1l0.1,0c0.2,0.1,0.4-0.3,0.1-0.4l-0.1,0l-0.1-0.1L53.2,199.1L53.2,199.1
	L53.2,199.1z M54.6,199.8c-0.2-0.1-0.4,0.3-0.1,0.4l0.1,0l0.2,0.1l0.1,0.1c0.2,0.1,0.4-0.3,0.1-0.4l-0.1-0.1L54.6,199.8L54.6,199.8
	L54.6,199.8z M56.1,200.5c-0.2-0.1-0.3,0.1-0.3,0.3c0,0.1,0.1,0.1,0.1,0.1l0.1,0l0.2,0.1l0.1,0.1c0.1,0,0.2,0,0.2-0.1
	c0.1-0.1,0-0.3-0.1-0.4l-0.1-0.1L56.1,200.5L56.1,200.5L56.1,200.5z M57.5,201.3c-0.2-0.1-0.4,0.3-0.2,0.4l0,0l0.1,0l0.2,0.1l0.1,0
	c0.2,0.1,0.4-0.3,0.1-0.4l0,0l-0.1,0L57.5,201.3L57.5,201.3L57.5,201.3z M58.9,202c-0.2-0.1-0.4,0.3-0.2,0.4l0,0l0,0l0.2,0.1
	l0.2,0.1l0,0c0.2,0.1,0.4-0.3,0.2-0.4l0,0l0,0l-0.2-0.1L58.9,202L58.9,202L58.9,202z M60.4,202.6c-0.2-0.1-0.4,0.3-0.1,0.4l0,0
	l0.1,0.1l0.2,0.1l0.1,0c0.2,0.1,0.4-0.3,0.2-0.4l0,0l-0.1,0l-0.2-0.1L60.4,202.6L60.4,202.6z M61.8,203.3c0,0-0.1,0-0.1,0
	c-0.2,0.1-0.2,0.4,0,0.5l0.1,0l0.2,0.1l0.1,0.1c0.1,0,0.2,0,0.2-0.1c0-0.1,0-0.3-0.1-0.3l-0.1-0.1L61.8,203.3L61.8,203.3L61.8,203.3
	z M63.3,204c-0.2-0.1-0.4,0.3-0.2,0.4c0,0,0,0,0,0l0.1,0l0.2,0.1l0.1,0.1c0.2,0.1,0.4-0.2,0.2-0.4c0,0,0,0,0,0l-0.1-0.1L63.3,204
	L63.3,204L63.3,204z M64.7,204.6c-0.2-0.1-0.4,0.3-0.2,0.4c0,0,0,0,0,0l0.1,0l0.2,0.1l0.1,0.1c0.2,0.1,0.4-0.2,0.2-0.4c0,0,0,0,0,0
	l-0.1-0.1L64.7,204.6L64.7,204.6L64.7,204.6z M66.2,205.3c-0.2-0.1-0.4,0.3-0.1,0.5l0.1,0l0.2,0.1l0.1,0c0.1,0,0.2,0,0.2-0.1
	c0-0.1,0-0.3-0.1-0.3l-0.1,0L66.2,205.3L66.2,205.3L66.2,205.3z M67.6,205.9c-0.1-0.1-0.3,0.1-0.3,0.3c0,0.1,0.1,0.2,0.1,0.2l0.1,0
	l0.2,0.1l0.1,0c0.2,0.1,0.4-0.3,0.1-0.5l0,0l-0.1,0L67.6,205.9L67.6,205.9L67.6,205.9z M69.1,206.4c-0.2-0.1-0.4,0.3-0.1,0.5l0,0
	l0.1,0.1l0.2,0.1l0,0c0.2,0.1,0.4-0.3,0.1-0.5l0,0l0,0l-0.2-0.1L69.1,206.4L69.1,206.4z M70.6,207c-0.2-0.1-0.4,0.3-0.1,0.4
	c0,0,0,0,0,0l0.2,0.1l0.2,0.1c0.2,0.1,0.4-0.3,0.2-0.4c0,0,0,0,0,0l-0.2-0.1L70.6,207L70.6,207z M72.1,207.5
	c-0.2-0.1-0.3,0.3-0.2,0.4c0,0,0,0,0.1,0l0,0l0.2,0.1l0.1,0c0.3,0.1,0.3-0.4,0.1-0.5l-0.1,0L72.1,207.5L72.1,207.5L72.1,207.5z
	 M73.6,208c-0.1,0-0.2,0-0.2,0.1c0,0.1,0,0.3,0.1,0.3l0.1,0l0.2,0.1l0.1,0c0.1,0,0.2,0,0.2-0.1c0.1-0.1,0-0.3-0.1-0.4l-0.1,0
	L73.6,208L73.6,208L73.6,208z M75.1,208.5c-0.2-0.1-0.3,0.4-0.1,0.5l0,0l0.1,0l0.2,0.1l0,0c0.2,0.1,0.3-0.3,0.1-0.5l0,0l0,0
	l-0.2-0.1L75.1,208.5L75.1,208.5z M76.6,208.9c-0.2-0.1-0.3,0.3-0.1,0.5l0,0l0.2,0l0.2,0.1l0,0c0.2,0.1,0.3-0.3,0.1-0.5c0,0,0,0,0,0
	l0,0l-0.2-0.1L76.6,208.9L76.6,208.9z M78.1,209.3c-0.2-0.1-0.3,0.4-0.1,0.5l0,0l0,0l0.2,0l0.2,0c0.1,0,0.1,0,0.1,0
	c0.1-0.1,0.1-0.4-0.1-0.4l-0.2,0L78.1,209.3L78.1,209.3L78.1,209.3z M79.6,209.7c-0.2,0-0.3,0.3-0.1,0.4c0,0,0,0,0.1,0l0,0l0.2,0
	l0.2,0c0.2,0.1,0.3-0.4,0.1-0.5l0,0l-0.2,0L79.6,209.7L79.6,209.7L79.6,209.7z M81.1,210c-0.2,0-0.3,0.3-0.1,0.4c0,0,0,0,0.1,0l0,0
	l0.1,0l0.1,0l0.1,0l0.1,0l0,0c0.2,0,0.3-0.3,0.1-0.5c0,0,0,0,0,0l0,0l-0.1,0l-0.1,0L81.1,210L81.1,210L81.1,210L81.1,210z
	 M82.6,210.3c-0.3,0-0.3,0.4-0.1,0.5l0.1,0l0.1,0l0.1,0l0.1,0l0.1,0l0,0c0.3,0,0.3-0.4,0.1-0.5l0,0l-0.1,0l-0.1,0l-0.1,0L82.6,210.3
	L82.6,210.3L82.6,210.3z M84.2,210.6c-0.2,0-0.3,0.4-0.1,0.5c0,0,0,0,0,0l0,0l0.1,0l0.1,0l0.1,0l0.1,0l0.1,0c0.2,0,0.3-0.4,0.1-0.5
	l0,0l-0.1,0l-0.1,0l-0.1,0L84.2,210.6L84.2,210.6L84.2,210.6L84.2,210.6z M85.7,210.8c-0.1,0-0.2,0.1-0.2,0.2c0,0.1,0.1,0.3,0.2,0.3
	l0,0l0.1,0l0.1,0l0.1,0l0.1,0l0.1,0c0.2,0,0.3-0.4,0.1-0.5l0,0l-0.1,0l-0.1,0l-0.1,0l-0.1,0L85.7,210.8L85.7,210.8L85.7,210.8z
	 M87.2,211.1c-0.2,0-0.3,0.4,0,0.5l0,0l0,0l0.1,0l0.1,0l0.1,0l0.1,0l0,0c0.2,0,0.3-0.4,0.1-0.5c0,0,0,0,0,0l0,0l-0.1,0l-0.1,0
	l-0.1,0L87.2,211.1L87.2,211.1L87.2,211.1z M88.7,211.3c0,0-0.1,0-0.1,0c-0.2,0.1-0.1,0.4,0.1,0.4l0,0l0.1,0l0.1,0l0.1,0l0.1,0
	l0.1,0c0.2,0,0.3-0.4,0.1-0.5c0,0,0,0,0,0l-0.1,0l-0.1,0l-0.1,0l-0.1,0L88.7,211.3L88.7,211.3L88.7,211.3z M90.3,211.5
	c-0.2,0-0.3,0.4-0.1,0.5c0,0,0,0,0,0l0,0l0.1,0l0.1,0l0.1,0l0.1,0l0.1,0c0.1,0,0.2-0.1,0.2-0.1c0-0.2,0-0.3-0.2-0.3l-0.1,0l-0.1,0
	l-0.1,0L90.3,211.5L90.3,211.5L90.3,211.5L90.3,211.5z M91.8,211.7c-0.3,0-0.3,0.4,0,0.5l0.1,0l0.1,0l0.1,0l0.1,0l0.1,0l0,0
	c0.3,0,0.3-0.4,0-0.5l0,0l-0.1,0l-0.1,0l-0.1,0L91.8,211.7L91.8,211.7L91.8,211.7z M93.4,211.9c-0.2,0-0.3,0.4,0,0.5l0,0l0,0l0.1,0
	l0.1,0l0.1,0l0.1,0l0.1,0c0.2,0,0.3-0.4,0.1-0.5c0,0,0,0,0,0l-0.1,0l-0.1,0l-0.1,0L93.4,211.9L93.4,211.9L93.4,211.9L93.4,211.9z
	 M94.9,212c-0.2,0-0.3,0.4,0,0.5l0,0l0,0l0.1,0l0.1,0l0.1,0l0.1,0l0.1,0c0.2,0,0.3-0.4,0-0.5l0,0l-0.1,0l-0.1,0l-0.1,0l-0.1,0
	L94.9,212L94.9,212L94.9,212z M96.4,212.1c-0.2,0-0.3,0.4,0,0.5l0,0l0,0l0.1,0l0.1,0l0.1,0l0.1,0l0,0c0.2,0,0.3-0.4,0-0.5l0,0l0,0
	l-0.1,0l-0.1,0l-0.1,0L96.4,212.1L96.4,212.1L96.4,212.1z M98,212.2c-0.2,0-0.3,0.4,0,0.5l0,0l0,0l0.1,0l0.1,0l0.1,0l0.1,0l0.1,0
	c0.2,0,0.3-0.4,0-0.5l0,0l-0.1,0l-0.1,0l-0.1,0l-0.1,0L98,212.2L98,212.2L98,212.2z"/>
<path class="st5" d="M159,26.2c0.1-0.3-0.3-0.5-0.4-0.2l0,0l0,0.1l0,0.1l0,0.1l0,0.1l0,0.1l0,0.1l0,0c-0.1,0.3,0.3,0.4,0.4,0.2l0,0
	l0,0l0-0.1l0-0.1l0-0.1l0-0.1L159,26.2L159,26.2L159,26.2z M163.5,85.1c0.1,0.3,0.4,0.2,0.4-0.1l0,0l0-0.1l-0.1-0.3l0-0.1
	c-0.1-0.3-0.4-0.1-0.4,0.2l0,0.1L163.5,85.1L163.5,85.1L163.5,85.1z M163,83.3c0.1,0.3,0.4,0.2,0.4-0.1l0,0l-0.1-0.2l-0.1-0.3
	c-0.1-0.3-0.4-0.2-0.4,0.1l0,0l0.1,0.3L163,83.3L163,83.3z M162.5,81.5c0.1,0.3,0.4,0.2,0.4-0.1c0,0,0,0,0-0.1l-0.1-0.3l0-0.1
	c0-0.1-0.1-0.2-0.2-0.2c-0.1,0-0.3,0.1-0.2,0.3l0,0.1L162.5,81.5L162.5,81.5z M162.1,79.6c0.1,0.3,0.4,0.2,0.4-0.1c0,0,0,0,0,0
	l0-0.1l-0.1-0.3l0,0c-0.1-0.3-0.4-0.2-0.4,0.1l0,0l0,0L162.1,79.6L162.1,79.6L162.1,79.6z M161.6,77.8c0,0.2,0.2,0.2,0.3,0.1
	c0-0.1,0.1-0.1,0-0.2l0-0.2l-0.1-0.3c0-0.1-0.1-0.2-0.2-0.2c-0.1,0-0.2,0.2-0.1,0.3l0.1,0.3L161.6,77.8L161.6,77.8z M161.2,75.9
	c0,0.3,0.4,0.2,0.4-0.1c0,0,0,0,0-0.1l-0.1-0.2l0-0.2c0-0.3-0.4-0.2-0.4,0.1c0,0,0,0,0,0.1l0,0.2L161.2,75.9L161.2,75.9z
	 M160.8,74.1c0.1,0.3,0.4,0.2,0.4-0.1c0,0,0,0,0-0.1l-0.1-0.3l0-0.2c-0.1-0.3-0.4-0.2-0.4,0.1c0,0,0,0,0,0.1l0,0.2L160.8,74.1
	L160.8,74.1z M160.5,72.2c0.1,0.3,0.4,0.2,0.4-0.1c0,0,0,0,0-0.1l0,0l-0.1-0.3l0-0.1c-0.1-0.3-0.4-0.2-0.4,0.1l0,0l0,0.1L160.5,72.2
	L160.5,72.2L160.5,72.2z M160.1,70.3c0.1,0.3,0.4,0.2,0.4-0.1l0,0l0,0l-0.1-0.3l0-0.1c-0.1-0.3-0.4-0.2-0.4,0.1c0,0,0,0,0,0l0,0.1
	L160.1,70.3L160.1,70.3L160.1,70.3z M159.8,68.5c0.1,0.3,0.4,0.2,0.4-0.1v0l-0.1-0.3l0-0.2c0-0.2-0.3-0.3-0.4,0c0,0,0,0.1,0,0.1
	l0,0.2L159.8,68.5L159.8,68.5L159.8,68.5z M159.5,66.6c0,0.3,0.4,0.3,0.4,0c0,0,0,0,0-0.1l0-0.3l0-0.2c0-0.3-0.4-0.3-0.4,0
	c0,0,0,0,0,0.1l0,0.2L159.5,66.6L159.5,66.6z M159.2,64.7c0,0.3,0.4,0.2,0.4-0.1l0,0l0-0.2l0-0.3c0-0.3-0.4-0.3-0.4,0c0,0,0,0,0,0.1
	l0,0.3L159.2,64.7L159.2,64.7z M158.9,62.8c0,0.3,0.4,0.3,0.4-0.1l0,0l0-0.1l0-0.3l0-0.1c0-0.3-0.4-0.3-0.4,0c0,0,0,0,0,0l0,0.1
	l0,0.3L158.9,62.8L158.9,62.8z M158.7,60.9c0,0.3,0.4,0.2,0.4-0.1l0,0l0-0.3l0-0.2c0-0.3-0.4-0.2-0.4,0.1l0,0.2L158.7,60.9
	L158.7,60.9z M158.4,59c0,0.3,0.3,0.3,0.4,0c0,0,0-0.1,0-0.1l0-0.1l0-0.3l0,0c0-0.1,0-0.1-0.1-0.2c-0.1-0.1-0.3,0-0.3,0.2l0,0.1
	l0,0.3L158.4,59L158.4,59z M158.2,57.1c0,0.3,0.4,0.3,0.4,0c0,0,0,0,0-0.1l0-0.2l0-0.2c0-0.3-0.4-0.3-0.4,0c0,0,0,0,0,0.1l0,0.2
	L158.2,57.1L158.2,57.1z M158.1,55.2c0,0.2,0.2,0.3,0.3,0.2c0.1,0,0.1-0.1,0.1-0.2l0,0l0-0.3l0-0.2c0-0.3-0.4-0.3-0.4,0c0,0,0,0,0,0
	l0,0.2L158.1,55.2L158.1,55.2L158.1,55.2z M157.9,53.3c0,0.3,0.4,0.3,0.4,0l0,0l0,0l0-0.3l0-0.2c0-0.3-0.4-0.3-0.4,0l0,0l0,0.2
	L157.9,53.3L157.9,53.3L157.9,53.3z M157.7,51.4c0,0.3,0.3,0.3,0.4,0c0,0,0,0,0-0.1l0,0l0-0.3l0-0.2c0-0.3-0.3-0.3-0.4,0
	c0,0,0,0,0,0.1l0,0.2L157.7,51.4L157.7,51.4L157.7,51.4z M157.6,49.5c0,0.3,0.4,0.3,0.4,0v0l0-0.2l0-0.3c0-0.3-0.4-0.3-0.4,0
	c0,0,0,0,0,0l0,0.3L157.6,49.5L157.6,49.5z M157.5,47.5c0,0.3,0.4,0.3,0.4,0v0l0-0.1l0-0.3l0-0.1c0-0.1-0.1-0.2-0.2-0.2
	c-0.1,0-0.2,0.1-0.2,0.3l0,0.1L157.5,47.5L157.5,47.5L157.5,47.5z M157.5,45.6c0,0.3,0.4,0.3,0.4,0v0l0-0.2l0-0.2l0-0.1
	c0-0.3-0.4-0.3-0.4,0v0l0,0.1l0,0.2L157.5,45.6L157.5,45.6z M157.4,43.7c0,0.3,0.3,0.3,0.4,0.1c0,0,0,0,0-0.1l0-0.2l0-0.2l0-0.1
	c0-0.3-0.3-0.3-0.4-0.1c0,0,0,0,0,0.1l0,0.1l0,0.2L157.4,43.7L157.4,43.7z M157.4,41.8c0,0.1,0,0.2,0.1,0.2c0.1,0.1,0.3,0,0.3-0.2
	l0-0.1l0-0.2l0-0.2c0-0.1,0-0.2-0.1-0.2c-0.1-0.1-0.3,0-0.3,0.2l0,0.2L157.4,41.8L157.4,41.8L157.4,41.8z M157.4,39.9
	c0,0.3,0.3,0.3,0.4,0.1c0,0,0,0,0-0.1l0-0.2l0-0.2l0-0.1c0-0.3-0.3-0.3-0.4-0.1c0,0,0,0,0,0l0,0.1l0,0.2L157.4,39.9L157.4,39.9z
	 M157.4,37.9c0,0.3,0.4,0.3,0.4,0l0-0.1l0-0.2l0-0.2c0-0.3-0.3-0.4-0.4-0.1c0,0,0,0,0,0.1l0,0.2l0,0.2L157.4,37.9L157.4,37.9z
	 M157.5,36c0,0.3,0.3,0.4,0.4,0.1c0,0,0,0,0,0l0-0.2l0-0.2l0-0.1c0-0.3-0.3-0.4-0.4,0l0,0l0,0.1l0,0.2L157.5,36L157.5,36z
	 M157.6,34.1c0,0.3,0.3,0.4,0.4,0.1c0,0,0,0,0,0l0-0.1l0-0.2l0-0.2l0-0.1c0-0.3-0.3-0.4-0.4-0.1c0,0,0,0,0,0l0,0.1l0,0.2L157.6,34.1
	L157.6,34.1L157.6,34.1z M157.7,32.2c0,0.3,0.3,0.4,0.4,0.1l0,0l0,0l0-0.2l0-0.2l0-0.2c0-0.3-0.3-0.4-0.4-0.1l0,0l0,0.2l0,0.2
	L157.7,32.2L157.7,32.2L157.7,32.2z M157.9,30.3c0,0.3,0.3,0.4,0.4,0.1l0,0l0-0.1l0-0.1l0-0.1l0,0c0-0.1,0-0.2-0.1-0.2
	c-0.1-0.1-0.3-0.1-0.3,0.1l0,0l0,0.1l0,0.1L157.9,30.3L157.9,30.3L157.9,30.3z M158.2,28.4c0,0.3,0.3,0.4,0.4,0.1v0l0,0l0-0.1l0-0.1
	l0-0.1l0-0.1c0.1-0.3-0.3-0.4-0.4-0.1l0,0l0,0.1l0,0.1l0,0.1L158.2,28.4L158.2,28.4L158.2,28.4z"/>
<path class="st5" d="M157,27.5c0-0.3-0.3-0.4-0.4-0.1l0,0l0,0.1l0,0.1l0,0.1l0,0.1c0,0.1,0,0.2,0.1,0.3c0.1,0.1,0.3,0,0.3-0.2l0-0.1
	l0-0.1l0-0.1L157,27.5L157,27.5z M163,87.9c0.1,0.3,0.4,0.1,0.4-0.2l0,0l-0.1-0.2c-0.1-0.3-0.4-0.2-0.4,0.1c0,0,0,0,0,0.1L163,87.9
	L163,87.9z M162.4,86.4c0.1,0.2,0.4,0.2,0.4-0.1c0,0,0,0,0-0.1l0-0.1l-0.1-0.3l0,0c-0.1-0.3-0.4-0.2-0.4,0.1c0,0,0,0,0,0.1l0,0
	l0.1,0.3L162.4,86.4L162.4,86.4z M161.9,84.6c0.1,0.3,0.4,0.2,0.4-0.2l0,0l0,0l-0.1-0.3l0-0.1c-0.1-0.2-0.3-0.2-0.4,0
	c0,0.1,0,0.1,0,0.2l0,0.1L161.9,84.6L161.9,84.6L161.9,84.6z M161.3,82.8c0.1,0.3,0.4,0.2,0.4-0.1c0,0,0,0,0,0l-0.1-0.2l-0.1-0.3
	c-0.1-0.3-0.4-0.2-0.4,0.2l0,0l0.1,0.3L161.3,82.8L161.3,82.8z M160.8,81c0.1,0.3,0.4,0.1,0.4-0.2l0-0.1l-0.1-0.3l0-0.1
	c-0.1-0.3-0.4-0.2-0.4,0.1c0,0,0,0,0,0.1l0,0.1L160.8,81L160.8,81L160.8,81z M160.3,79.1c0.1,0.3,0.4,0.2,0.4-0.1c0,0,0,0,0-0.1
	l-0.1-0.3l-0.1-0.2c-0.1-0.3-0.4-0.2-0.4,0.1l0,0l0.1,0.2L160.3,79.1L160.3,79.1z M159.9,77.3c0.1,0.3,0.4,0.2,0.4-0.1c0,0,0,0,0,0
	l0-0.1l-0.1-0.3l0-0.1c-0.1-0.3-0.4-0.2-0.4,0.1c0,0,0,0,0,0l0,0.1l0.1,0.3L159.9,77.3L159.9,77.3z M159.4,75.4
	c0,0.1,0.1,0.2,0.2,0.2c0.1,0,0.3-0.1,0.2-0.3l-0.1-0.3l0-0.2c-0.1-0.3-0.4-0.2-0.4,0.1l0,0.2L159.4,75.4L159.4,75.4z M159,73.6
	c0,0.3,0.4,0.2,0.4-0.1c0,0,0,0,0,0l0-0.1l-0.1-0.3l0-0.1c-0.1-0.3-0.4-0.2-0.4,0.1l0,0l0,0.1l0.1,0.3L159,73.6L159,73.6z
	 M158.7,71.7c0.1,0.3,0.4,0.2,0.4-0.1l0,0l0-0.2l0-0.2c0-0.1-0.1-0.1-0.1-0.2c-0.1-0.1-0.3,0.1-0.3,0.3l0,0.2L158.7,71.7L158.7,71.7
	z M158.3,69.9c0.1,0.3,0.4,0.2,0.4-0.1l0,0l0-0.1l-0.1-0.3l0-0.1c-0.1-0.3-0.4-0.2-0.4,0.1c0,0,0,0,0,0l0,0.1L158.3,69.9L158.3,69.9
	L158.3,69.9z M158,68c0,0.3,0.4,0.3,0.4,0c0,0,0,0,0-0.1l0-0.2l0-0.3l0,0c0-0.3-0.4-0.3-0.4,0c0,0,0,0,0,0.1l0,0l0,0.3L158,68
	L158,68z M157.7,66.1c0,0.3,0.4,0.3,0.4,0c0,0,0,0,0-0.1l0-0.2l0-0.2c0-0.3-0.4-0.3-0.4,0c0,0,0,0,0,0.1l0,0.2L157.7,66.1
	L157.7,66.1z M157.4,64.2c0,0.2,0.2,0.3,0.3,0.1c0-0.1,0-0.1,0-0.2l0,0l0-0.3l0-0.2c0-0.3-0.4-0.3-0.4,0c0,0,0,0,0,0l0,0.2
	L157.4,64.2L157.4,64.2L157.4,64.2z M157.1,62.3c0,0.2,0.1,0.2,0.3,0.2c0.1,0,0.1-0.2,0.1-0.3l0-0.1l0-0.3l0-0.1
	c0-0.3-0.4-0.2-0.4,0.1l0,0l0,0.1L157.1,62.3L157.1,62.3L157.1,62.3z M156.9,60.4c0,0.3,0.4,0.3,0.4,0c0,0,0,0,0-0.1l0-0.1l0-0.3
	l0-0.1c0,0,0-0.1,0-0.1c-0.1-0.2-0.4-0.1-0.4,0.1l0,0.1L156.9,60.4L156.9,60.4L156.9,60.4z M156.7,58.5c0,0.3,0.4,0.3,0.4,0l0,0
	l0-0.1l0-0.3l0-0.2c0-0.3-0.4-0.3-0.4,0c0,0,0,0,0,0.1l0,0.2L156.7,58.5L156.7,58.5L156.7,58.5z M156.5,56.6c0,0.3,0.4,0.3,0.4,0
	l0,0l0,0l0-0.3l0-0.2c0-0.1-0.1-0.2-0.2-0.2c-0.1,0-0.2,0.1-0.1,0.3l0,0.2L156.5,56.6L156.5,56.6L156.5,56.6z M156.4,54.7
	c0,0.3,0.4,0.3,0.4,0v0l0-0.2l0-0.3v0c0-0.3-0.4-0.3-0.4,0l0,0l0,0l0,0.3L156.4,54.7L156.4,54.7z M156.2,52.8c0,0.1,0.1,0.2,0.2,0.2
	c0.1,0,0.2-0.1,0.2-0.3l0-0.1l0-0.3l0-0.1c0-0.3-0.3-0.3-0.4,0c0,0,0,0,0,0.1l0,0.1l0,0.3L156.2,52.8L156.2,52.8z M156.1,50.9
	c0,0.3,0.4,0.3,0.4,0l0,0l0-0.2l0-0.2c0-0.3-0.4-0.3-0.4,0c0,0,0,0,0,0l0,0.2L156.1,50.9L156.1,50.9z M156,48.9c0,0.3,0.4,0.3,0.4,0
	l0,0l0-0.1l0-0.2l0-0.2c0-0.3-0.4-0.3-0.4,0v0l0,0.2L156,48.9L156,48.9L156,48.9z M155.9,47c0,0.3,0.4,0.3,0.4,0v0l0-0.1l0-0.2
	l0-0.2c0-0.3-0.4-0.3-0.4,0v0l0,0.2L155.9,47L155.9,47L155.9,47z M155.9,45.1c0,0.3,0.3,0.3,0.4,0c0,0,0,0,0-0.1l0-0.1l0-0.2l0-0.2
	c0-0.3-0.3-0.3-0.4,0c0,0,0,0,0,0.1l0,0.2L155.9,45.1L155.9,45.1L155.9,45.1z M155.8,43.2c0,0.3,0.4,0.3,0.4,0l0,0l0-0.2l0-0.2v-0.1
	c0-0.3-0.4-0.3-0.4,0l0,0l0,0.1l0,0.2L155.8,43.2L155.8,43.2z M155.8,41.3c0,0.3,0.3,0.3,0.4,0.1c0,0,0,0,0-0.1v-0.1l0-0.2l0-0.2
	c0-0.1,0-0.1,0-0.1c-0.1-0.2-0.3-0.1-0.3,0.1l0,0.2L155.8,41.3L155.8,41.3L155.8,41.3z M155.8,39.3c0,0.1,0.1,0.2,0.2,0.2
	c0.1,0,0.2-0.1,0.2-0.2l0-0.1l0-0.2l0-0.2v0c0-0.1-0.1-0.2-0.2-0.2c-0.1,0-0.2,0.1-0.2,0.2v0l0,0.2L155.8,39.3L155.8,39.3
	L155.8,39.3z M155.9,37.4c0,0.1,0,0.1,0,0.2c0.1,0.2,0.3,0.1,0.3-0.1l0-0.2l0-0.2l0-0.1c0-0.2-0.3-0.4-0.4-0.1c0,0,0,0.1,0,0.1
	l0,0.1l0,0.2L155.9,37.4L155.9,37.4z M156,35.5c0,0.3,0.3,0.4,0.4,0l0,0l0-0.2l0-0.2l0-0.1c0-0.3-0.3-0.4-0.4-0.1c0,0,0,0,0,0l0,0.1
	l0,0.2L156,35.5L156,35.5z M156.1,33.6c0,0.3,0.4,0.4,0.4,0l0,0l0-0.1l0-0.2l0-0.2l0-0.1c0-0.3-0.3-0.4-0.4-0.1l0,0l0,0.1l0,0.2
	L156.1,33.6L156.1,33.6L156.1,33.6z M156.2,31.7c0,0.1,0,0.2,0.1,0.2c0.1,0.1,0.3,0,0.3-0.2l0-0.2l0-0.2l0-0.2l0,0
	c0-0.1,0-0.2-0.1-0.2c-0.1-0.1-0.3,0-0.3,0.2l0,0l0,0.2l0,0.2L156.2,31.7L156.2,31.7z M156.4,29.8c0,0.3,0.3,0.4,0.4,0.1
	c0,0,0,0,0,0l0-0.1l0-0.1l0-0.1l0-0.1v0c0-0.1,0-0.1,0-0.2c-0.1-0.2-0.3-0.1-0.3,0.1l0,0l0,0.1l0,0.1L156.4,29.8L156.4,29.8
	L156.4,29.8z"/>
<path class="st5" d="M59.9,25C59.9,25,59.9,25,59.9,25c-0.2-0.3-0.4-0.1-0.4,0.1l0,0.1l0,0.1l0,0.1l0,0.1c0,0.1,0.1,0.2,0.2,0.2
	c0.1,0,0.2-0.2,0.2-0.3l0-0.1l0-0.1l0-0.1L59.9,25L59.9,25z M55,83c0,0.1,0,0.2,0.1,0.3c0.1,0.1,0.2,0,0.3-0.1l0.1-0.3l0.1-0.1
	c0.1-0.2-0.2-0.5-0.3-0.3c0,0,0,0,0,0l-0.1,0.1L55,83L55,83z M55.7,81.3c-0.1,0.2,0.2,0.5,0.3,0.3c0,0,0,0,0,0l0-0.1l0.1-0.3l0,0
	c0.1-0.2-0.2-0.5-0.3-0.3c0,0,0,0,0,0l0,0l-0.1,0.3L55.7,81.3L55.7,81.3z M56.4,79.5c-0.1,0.3,0.2,0.5,0.3,0.2l0,0l0.1-0.2l0.1-0.2
	c0.1-0.3-0.2-0.5-0.3-0.2l0,0l-0.1,0.2L56.4,79.5L56.4,79.5z M57,77.8c0,0.1,0,0.2,0.1,0.3c0.1,0.1,0.2,0,0.3-0.1l0.1-0.3l0.1-0.2
	c0.1-0.3-0.2-0.5-0.4-0.2l0,0l-0.1,0.2L57,77.8L57,77.8z M57.6,76.1c-0.1,0.3,0.2,0.5,0.3,0.2l0,0l0,0l0.1-0.3l0-0.1
	c0.1-0.3-0.3-0.5-0.4-0.2l0,0.1L57.6,76.1L57.6,76.1L57.6,76.1z M58.2,74.3c0,0.1,0,0.2,0,0.3c0.1,0.1,0.3,0.1,0.3-0.1l0,0l0.1-0.3
	l0-0.2c0.1-0.3-0.3-0.5-0.4-0.2l0,0l0,0.2L58.2,74.3L58.2,74.3L58.2,74.3z M58.8,72.5c-0.1,0.3,0.2,0.5,0.3,0.2c0,0,0,0,0,0l0.1-0.3
	l0.1-0.2c0-0.1,0-0.2-0.1-0.3c-0.1-0.1-0.3-0.1-0.3,0.1l-0.1,0.2L58.8,72.5L58.8,72.5z M59.3,70.7c-0.1,0.3,0.3,0.5,0.4,0.2l0-0.2
	l0.1-0.3c0.1-0.2-0.2-0.4-0.3-0.3c0,0-0.1,0.1-0.1,0.1l-0.1,0.3L59.3,70.7L59.3,70.7z M59.7,68.9c-0.1,0.3,0.3,0.4,0.4,0.2l0,0
	l0-0.1l0.1-0.3l0-0.1c0.1-0.3-0.3-0.5-0.4-0.2l0,0l0,0.1L59.7,68.9L59.7,68.9L59.7,68.9z M60.2,67.1c-0.1,0.2,0.2,0.4,0.3,0.2
	c0,0,0,0,0-0.1l0.1-0.2l0.1-0.2c0.1-0.3-0.3-0.4-0.4-0.1l-0.1,0.2L60.2,67.1L60.2,67.1z M60.6,65.2c0,0.2,0.1,0.4,0.3,0.3
	c0,0,0.1-0.1,0.1-0.1l0,0L61,65l0-0.1c0.1-0.3-0.3-0.4-0.4-0.1l0,0l0,0.1L60.6,65.2L60.6,65.2L60.6,65.2z M60.9,63.4
	c0,0.2,0.2,0.4,0.3,0.2c0,0,0-0.1,0-0.1l0-0.1l0-0.3l0-0.1c0-0.3-0.2-0.4-0.4-0.2c0,0,0,0,0,0.1l0,0.1l0,0.3L60.9,63.4L60.9,63.4z
	 M61.3,61.5c0,0.1,0,0.2,0.1,0.2c0.1,0.1,0.3,0,0.3-0.2l0-0.1l0-0.3l0-0.1c0-0.3-0.3-0.4-0.4-0.1l0,0l0,0l0,0.3L61.3,61.5L61.3,61.5
	z M61.6,59.6c0,0.2,0.2,0.4,0.4,0.2c0,0,0-0.1,0-0.1l0-0.1l0-0.3l0-0.1c0-0.1,0-0.2-0.1-0.3c-0.1,0-0.2,0-0.3,0.2l0,0.1l0,0.3
	L61.6,59.6L61.6,59.6z M61.8,57.7c0,0.3,0.3,0.4,0.4,0.1c0,0,0,0,0,0l0-0.1l0-0.3l0-0.1c0-0.3-0.3-0.4-0.4-0.1c0,0,0,0,0,0l0,0.1
	L61.8,57.7L61.8,57.7L61.8,57.7z M62,55.8c0,0.1,0,0.2,0.1,0.2c0.1,0.1,0.3,0,0.3-0.2l0,0l0-0.3l0-0.2c0-0.3-0.3-0.4-0.4-0.1l0,0
	l0,0.2L62,55.8L62,55.8L62,55.8z M62.2,53.9c0,0.3,0.4,0.4,0.4,0l0-0.2l0-0.3l0-0.1c0-0.3-0.3-0.4-0.4-0.1c0,0,0,0.1,0,0.1l0,0.1
	l0,0.3L62.2,53.9L62.2,53.9z M62.3,52c0,0.3,0.3,0.4,0.4,0.1l0,0l0-0.2l0-0.2c0-0.3-0.3-0.4-0.4-0.1c0,0,0,0,0,0l0,0.2L62.3,52
	L62.3,52z M62.3,50.1c0,0.3,0.3,0.4,0.4,0.1c0,0,0,0,0-0.1l0,0l0-0.2l0-0.2c0-0.3-0.4-0.3-0.4,0l0,0.2L62.3,50.1L62.3,50.1
	L62.3,50.1z M62.4,48.2c0,0.3,0.4,0.3,0.4,0l0,0l0,0l0-0.2l0-0.2c0-0.1-0.1-0.2-0.2-0.2c-0.1,0-0.2,0.1-0.2,0.2l0,0.2L62.4,48.2
	L62.4,48.2L62.4,48.2z M62.4,46.3c0,0.3,0.3,0.3,0.4,0.1c0,0,0,0,0-0.1l0-0.2l0-0.2l0,0c0-0.3-0.4-0.3-0.4,0l0,0l0,0.2L62.4,46.3
	L62.4,46.3z M62.3,44.4c0,0.3,0.4,0.3,0.4,0l0,0l0-0.1l0-0.2l0-0.1c0-0.3-0.3-0.3-0.4,0c0,0,0,0,0,0.1l0,0.1l0,0.2L62.3,44.4
	L62.3,44.4z M62.2,42.5c0,0.3,0.4,0.3,0.4,0c0,0,0,0,0,0l0-0.2l0-0.2l0-0.1c0-0.3-0.3-0.3-0.4,0c0,0,0,0,0,0.1l0,0.1l0,0.2
	L62.2,42.5L62.2,42.5z M62.1,40.6c0,0.3,0.4,0.3,0.4,0l0,0l0,0l0-0.2l0-0.2l0-0.1c0-0.3-0.3-0.3-0.4,0c0,0,0,0,0,0.1l0,0.1l0,0.2
	L62.1,40.6L62.1,40.6L62.1,40.6z M61.9,38.7c0,0.3,0.4,0.3,0.4,0c0,0,0,0,0-0.1l0-0.2l0-0.2l0-0.1c0-0.3-0.3-0.3-0.4,0
	c0,0,0,0.1,0,0.1l0,0.1l0,0.2L61.9,38.7L61.9,38.7z M61.7,36.8c0,0.3,0.4,0.2,0.4-0.1l0,0l0-0.1l0-0.2l0-0.2l0,0
	c0-0.3-0.4-0.2-0.4,0.1l0,0l0,0l0,0.2L61.7,36.8L61.7,36.8L61.7,36.8z M61.5,34.9c0,0.3,0.4,0.3,0.4,0c0,0,0,0,0-0.1l0-0.1l0-0.2
	l0-0.2l0,0c0-0.3-0.4-0.3-0.4,0c0,0,0,0,0,0.1l0,0l0,0.2L61.5,34.9L61.5,34.9L61.5,34.9z M61.2,33c0,0.3,0.4,0.3,0.4,0
	c0,0,0,0,0-0.1l0,0l0-0.2l0-0.2l0-0.1c-0.1-0.3-0.4-0.2-0.4,0.1l0,0.1l0,0.2L61.2,33L61.2,33L61.2,33z M60.9,31.1
	c0.1,0.3,0.4,0.2,0.4-0.1c0,0,0,0,0,0l0,0l0-0.2l0-0.2l0-0.1c0-0.1-0.1-0.2-0.2-0.2c-0.1,0-0.2,0.1-0.2,0.3l0,0.1l0,0.2L60.9,31.1
	L60.9,31.1L60.9,31.1z M60.5,29.3c0.1,0.3,0.4,0.2,0.4-0.1l0,0l0-0.1l0-0.2l0-0.2l0-0.1c0-0.3-0.4-0.2-0.4,0.1c0,0,0,0,0,0l0,0.1
	l0,0.2L60.5,29.3L60.5,29.3L60.5,29.3z M60.1,27.4c0,0.1,0.1,0.2,0.2,0.2c0.1,0,0.2-0.2,0.1-0.3l0,0l0-0.1l0-0.1l0-0.1l0,0
	C60.3,26.6,60,26.7,60,27l0,0l0,0l0,0.1l0,0.1L60.1,27.4L60.1,27.4L60.1,27.4z"/>
<path class="st5" d="M61.9,26.5c-0.1-0.3-0.4-0.2-0.4,0.1l0,0l0,0.2l0,0.2l0,0.1c0.1,0.3,0.4,0.2,0.4-0.1c0,0,0,0,0,0l0-0.1l0-0.2
	L61.9,26.5L61.9,26.5z M55.1,85.7c-0.1,0.1,0,0.3,0.1,0.4c0.1,0,0.2,0,0.2-0.1l0.1-0.3l0-0.1c0.1-0.2-0.1-0.5-0.3-0.3c0,0,0,0,0,0.1
	l0,0.1L55.1,85.7L55.1,85.7z M55.9,84.2c-0.1,0.3,0.2,0.5,0.3,0.3l0,0l0.1-0.3l0.1-0.1c0-0.1,0-0.1,0-0.2c0-0.2-0.3-0.3-0.4-0.1
	L56,83.9L55.9,84.2L55.9,84.2L55.9,84.2z M56.7,82.5c-0.1,0.3,0.2,0.5,0.3,0.3l0,0l0.1-0.2l0.1-0.2c0.1-0.3-0.2-0.5-0.3-0.2
	l-0.1,0.2L56.7,82.5L56.7,82.5z M57.4,80.9c-0.1,0.2,0.2,0.5,0.3,0.3c0,0,0,0,0,0l0.1-0.1l0.1-0.3l0,0c0.1-0.3-0.2-0.5-0.3-0.3l0,0
	l0,0l-0.1,0.3L57.4,80.9L57.4,80.9z M58.2,79.2c0,0.1,0,0.1,0,0.2c0,0.2,0.3,0.2,0.4,0l0,0l0.1-0.3l0.1-0.1c0.1-0.1,0-0.3-0.2-0.3
	c-0.1,0-0.1,0-0.2,0.1l-0.1,0.1L58.2,79.2L58.2,79.2L58.2,79.2z M58.8,77.5c-0.1,0.3,0.2,0.5,0.3,0.2l0,0l0.1-0.2l0.1-0.3l0,0
	c0.1-0.3-0.2-0.5-0.3-0.2c0,0,0,0,0,0l0,0l-0.1,0.3L58.8,77.5L58.8,77.5z M59.5,75.7c-0.1,0.3,0.2,0.5,0.3,0.2l0,0l0.1-0.3l0.1-0.2
	c0-0.1,0-0.2-0.1-0.3c-0.1-0.1-0.2-0.1-0.3,0.1l-0.1,0.2L59.5,75.7L59.5,75.7z M60.1,74c-0.1,0.2,0.1,0.4,0.3,0.3
	c0,0,0.1-0.1,0.1-0.1l0-0.1l0.1-0.3l0-0.1c0-0.1,0-0.3-0.1-0.3c-0.1-0.1-0.2,0-0.3,0.1l0,0.1L60.1,74L60.1,74L60.1,74z M60.6,72.2
	c-0.1,0.3,0.2,0.5,0.3,0.2c0,0,0,0,0,0l0-0.1l0.1-0.3l0-0.1c0.1-0.3-0.2-0.5-0.4-0.2l0,0l0,0.1l-0.1,0.3L60.6,72.2L60.6,72.2z
	 M61.2,70.4c-0.1,0.3,0.3,0.5,0.4,0.2l0-0.1l0.1-0.3l0-0.1c0-0.1,0-0.3-0.1-0.3c-0.1,0-0.2,0-0.3,0.1l0,0.1l-0.1,0.3L61.2,70.4
	L61.2,70.4z M61.6,68.6c0,0.2,0.1,0.4,0.2,0.3c0.1,0,0.1-0.1,0.1-0.2l0-0.1l0.1-0.3l0-0.1c0.1-0.3-0.2-0.4-0.4-0.2c0,0,0,0,0,0
	l0,0.1l-0.1,0.3L61.6,68.6L61.6,68.6z M62.1,66.7c-0.1,0.3,0.3,0.4,0.4,0.1l0-0.1l0.1-0.3l0-0.1c0.1-0.3-0.3-0.4-0.4-0.1l0,0l0,0.1
	l-0.1,0.3L62.1,66.7L62.1,66.7z M62.5,64.9c-0.1,0.3,0.3,0.4,0.4,0.1l0,0l0-0.1l0.1-0.3l0-0.1c0-0.1,0-0.2-0.1-0.3
	c-0.1,0-0.2,0-0.2,0.2l0,0.1L62.5,64.9L62.5,64.9L62.5,64.9z M62.8,63c0,0.3,0.2,0.4,0.4,0.2c0,0,0,0,0-0.1l0,0l0-0.3l0-0.2
	c0-0.3-0.3-0.4-0.4-0.1c0,0,0,0,0,0l0,0.2L62.8,63L62.8,63L62.8,63z M63.1,61.2c0,0.1,0,0.1,0,0.2c0.1,0.2,0.3,0.1,0.3-0.1l0-0.2
	l0-0.3l0-0.1c0-0.3-0.3-0.4-0.4-0.1l0,0l0,0.1l0,0.3L63.1,61.2L63.1,61.2z M63.4,59.3C63.4,59.3,63.4,59.3,63.4,59.3
	c0.1,0.3,0.3,0.3,0.4,0.1l0,0l0-0.3l0-0.2c0-0.3-0.3-0.4-0.4-0.1l0,0.2L63.4,59.3L63.4,59.3L63.4,59.3z M63.6,57.4
	c0,0.3,0.3,0.4,0.4,0.1l0,0l0-0.2l0-0.3l0-0.1c0-0.2-0.1-0.3-0.3-0.2c-0.1,0-0.1,0.1-0.1,0.2l0,0.1l0,0.2L63.6,57.4L63.6,57.4z
	 M63.7,55.5c0,0.3,0.3,0.4,0.4,0.1c0,0,0,0,0,0l0-0.2l0-0.2c0-0.3-0.3-0.4-0.4-0.1c0,0,0,0,0,0.1l0,0.2L63.7,55.5L63.7,55.5z
	 M63.9,53.6c0,0.2,0.1,0.3,0.2,0.3c0.1,0,0.2-0.1,0.2-0.2l0,0l0-0.2l0-0.2c0-0.3-0.3-0.4-0.4-0.1c0,0,0,0,0,0l0,0.2L63.9,53.6
	L63.9,53.6L63.9,53.6z M64,51.7c0,0.3,0.3,0.4,0.4,0.1c0,0,0,0,0-0.1l0-0.1l0-0.2l0-0.2c0-0.3-0.3-0.4-0.4-0.1c0,0,0,0,0,0.1l0,0.2
	L64,51.7L64,51.7L64,51.7z M64,49.8c0,0.3,0.3,0.3,0.4,0.1c0,0,0,0,0,0l0-0.1l0-0.2l0-0.2c0-0.3-0.4-0.3-0.4,0l0,0l0,0.2L64,49.8
	L64,49.8L64,49.8z M64,47.9c0,0.3,0.4,0.3,0.4,0l0,0l0,0l0-0.2l0-0.2c0-0.1,0-0.1-0.1-0.2c-0.1-0.1-0.3,0-0.3,0.2l0,0.2L64,47.9
	L64,47.9L64,47.9z M64,45.9c0,0.3,0.4,0.3,0.4,0l0,0l0-0.2l0-0.2l0-0.1c0-0.3-0.4-0.3-0.4,0l0,0l0,0.1l0,0.2L64,45.9L64,45.9z
	 M63.9,44c0,0.3,0.3,0.3,0.4,0c0,0,0,0,0-0.1l0-0.1l0-0.2l0-0.2c0-0.3-0.4-0.3-0.4,0c0,0,0,0,0,0l0,0.2L63.9,44L63.9,44L63.9,44z
	 M63.8,42.1c0,0.3,0.4,0.3,0.4,0l0-0.2l0-0.2l0-0.1c0-0.1-0.1-0.2-0.1-0.2c-0.1-0.1-0.3,0.1-0.3,0.2l0,0.1l0,0.2L63.8,42.1
	L63.8,42.1z M63.7,40.2c0,0.3,0.4,0.3,0.4,0c0,0,0,0,0,0l0-0.2l0-0.2l0-0.1c0-0.3-0.4-0.3-0.4,0l0,0l0,0.1l0,0.2L63.7,40.2
	L63.7,40.2z M63.5,38.3c0,0.3,0.4,0.3,0.4,0l0,0l0-0.2l0-0.2l0-0.1c0-0.3-0.4-0.3-0.4,0c0,0,0,0,0,0.1l0,0.1l0,0.2L63.5,38.3
	L63.5,38.3z M63.2,36.4c0,0.3,0.4,0.2,0.4-0.1l0,0l0-0.1l0-0.2l0-0.1c0-0.3-0.4-0.3-0.4,0.1l0,0l0,0.1l0,0.2L63.2,36.4L63.2,36.4z
	 M63,34.6c0,0.1,0.1,0.2,0.2,0.2c0.1,0,0.2-0.1,0.2-0.3l0,0l0-0.2l0-0.2l0-0.1c0-0.3-0.4-0.3-0.4,0c0,0,0,0,0,0.1l0,0.1l0,0.2
	L63,34.6L63,34.6L63,34.6z M62.7,32.7c0.1,0.3,0.4,0.2,0.4-0.1l0,0l0-0.2l0-0.2l0-0.1c-0.1-0.3-0.4-0.2-0.4,0.1l0,0l0,0.1l0,0.2
	L62.7,32.7L62.7,32.7L62.7,32.7z M62.4,30.8c0,0.1,0.1,0.1,0.1,0.2c0.1,0.1,0.3-0.1,0.3-0.3l0-0.2l0-0.2l0-0.1c0-0.1,0-0.1-0.1-0.1
	c-0.1-0.1-0.3,0-0.3,0.3l0,0.1l0,0.2L62.4,30.8L62.4,30.8z M62,29c0,0.3,0.4,0.2,0.4-0.1c0,0,0,0,0,0l0,0l0-0.2l0-0.2l0-0.1
	c0-0.3-0.4-0.2-0.4,0.1c0,0,0,0,0,0.1l0,0.1l0,0.2L62,29L62,29L62,29z"/>
<path class="st0" d="M69.9,57.5c0,1.5-0.4,6.8-0.3,12.3c0.2,5.5,0.2,16.3,0.2,18.2c0,1.9,8.5,5.6,10.1,6.3c1.6,0.6,1.5,0.7,3.2,0.2
	c1.7-0.5,10.6-2.4,10.6-5.4c0-3,0.2-10.4,0.1-14.7c-0.1-4.3,0.6-12.6,0.7-14.5c0.1-1.9,0.2-1.5-1.9-1.7c-2-0.2-19.7-1.1-21.3-1.5
	C69.7,56.3,69.7,56.3,69.9,57.5L69.9,57.5z"/>
<path class="st1" d="M69.1,56.6c0,1.2-0.2,4.6-0.3,8.7c0,1.2,0,0.9,0.8,1.6c1.7,1.4,3.6,2.7,4.5,2.7c1.4,0,6.8-3.7,8.6-3.7
	c1.7,0,5.8,4.9,7.6,4.9c0.9,0,2.3-0.6,3.8-1.4c1.1-0.6,0.9-0.4,0.9-1.9c0.2-3.7,0.5-7.3,0.5-8.5c0.1-2,0.2-1.6-2-1.8
	c-2.2-0.2-21.1-1.2-22.8-1.6C68.9,55.4,68.9,55.4,69.1,56.6L69.1,56.6z"/>
<path class="st0" d="M70.1,57.1c0,1.1-0.2,4.2-0.3,8c0,1.1,0,0.8,0.7,1.5c1.6,1.3,2.9,1.9,3.7,1.9c1.2,0,6.9-3.8,8.5-3.8
	c1.6,0,6.2,5.2,7.8,5.2c0.8,0,1.2-0.2,2.6-1c1-0.6,0.8-0.4,0.9-1.7c0.2-3.4,0.4-6.7,0.5-7.8c0.1-1.9,0.2-1.4-1.8-1.6
	c-2-0.2-19.5-1.1-21.1-1.4C69.9,56,69.9,56,70.1,57.1L70.1,57.1z"/>
<path class="st6" d="M89.6,65.8c0.1,0,0.1,0.2,0.1,0.3c0,0.1-0.1,0.2-0.2,0.1c-0.1,0-0.1-0.2-0.1-0.3C89.4,65.8,89.5,65.7,89.6,65.8
	L89.6,65.8z M90.2,66c0.1,0,0.1,0.2,0.1,0.3c0,0.1-0.1,0.2-0.2,0.1c-0.1,0-0.1-0.2-0.1-0.3C90,66.1,90.1,66,90.2,66L90.2,66z
	 M89.4,66.5c0.1,0,0.1,0.2,0.1,0.3c0,0.1-0.1,0.2-0.2,0.1c-0.1,0-0.1-0.2-0.1-0.3C89.2,66.5,89.3,66.5,89.4,66.5L89.4,66.5z
	 M89.9,66.8c0.1,0,0.1,0.2,0.1,0.3c0,0.1-0.1,0.2-0.2,0.1c-0.1,0-0.1-0.2-0.1-0.3C89.8,66.8,89.9,66.7,89.9,66.8L89.9,66.8z
	 M89.7,64.6c0.8,0,1.4,0.8,1.4,1.8s-0.6,1.8-1.4,1.8c-0.8,0-1.4-0.8-1.4-1.8S89,64.6,89.7,64.6L89.7,64.6z"/>
<path class="st6" d="M75.8,63.8c0.6,0.7,0.6,1.8,0,2.5c-0.6,0.7-1.5,0.7-2,0c-0.6-0.7-0.6-1.8,0-2.5C74.3,63.1,75.2,63.1,75.8,63.8
	L75.8,63.8z M75,64.5c0,0.1,0,0.2-0.1,0.3c-0.1,0.1-0.2,0-0.2-0.1c0-0.1,0-0.2,0.1-0.3C74.9,64.3,75,64.4,75,64.5L75,64.5z
	 M75.3,65.2c0,0.1,0,0.2-0.1,0.3c-0.1,0.1-0.2,0-0.2-0.1c0-0.1,0-0.2,0.1-0.3C75.1,65,75.3,65.1,75.3,65.2L75.3,65.2z M74.5,64.8
	c0,0.1,0,0.2-0.1,0.3c-0.1,0.1-0.2,0-0.2-0.1c0-0.1,0-0.2,0.1-0.3C74.3,64.7,74.4,64.7,74.5,64.8L74.5,64.8z M74.7,65.5
	c0,0.1,0,0.2-0.1,0.3c-0.1,0.1-0.2,0-0.2-0.1c0-0.1,0-0.2,0.1-0.3C74.6,65.4,74.7,65.4,74.7,65.5L74.7,65.5z"/>
<path class="st5" d="M70.4,57.4c-0.2,0-0.3,0.4-0.1,0.5l0,0l0,0l0,0l0.1,0l0.1,0l0.1,0l0.1,0l0.1,0l0,0c0.2,0,0.3-0.4,0.1-0.5
	c0,0,0,0,0,0l0,0l-0.1,0l-0.1,0l-0.1,0l-0.1,0L70.4,57.4L70.4,57.4L70.4,57.4L70.4,57.4z M93.9,59.5c0.2,0,0.3-0.4,0-0.5l0,0l0,0
	l-0.1,0l-0.1,0l-0.1,0l-0.1,0l-0.1,0c-0.2,0-0.3,0.4-0.1,0.5c0,0,0,0,0,0l0.1,0l0.1,0l0.1,0L93.9,59.5L93.9,59.5L93.9,59.5
	L93.9,59.5z M92.3,59.4c0.2,0,0.3-0.4,0-0.5l0,0l-0.1,0l-0.1,0l-0.1,0l-0.1,0l-0.1,0c-0.2,0-0.3,0.4,0,0.5l0,0l0.1,0l0.1,0l0.1,0
	L92.3,59.4L92.3,59.4L92.3,59.4z M90.8,59.3c0.2,0,0.3-0.4,0-0.5l0,0l-0.1,0l-0.1,0l-0.1,0l-0.1,0l0,0c-0.2,0-0.3,0.4,0,0.5
	c0,0,0,0,0,0l0,0l0.1,0l0.1,0L90.8,59.3L90.8,59.3L90.8,59.3z M89.3,59.2c0.2,0,0.3-0.4,0-0.5l0,0l-0.1,0l-0.1,0l-0.1,0l-0.1,0
	c-0.2,0-0.3,0.4,0,0.5l0,0l0.1,0l0.1,0L89.3,59.2L89.3,59.2L89.3,59.2z M87.7,59.1c0.1,0,0.2-0.1,0.2-0.2c0-0.1-0.1-0.3-0.2-0.3
	l-0.1,0l-0.1,0l-0.1,0l-0.1,0c-0.1,0-0.2,0.1-0.2,0.2c0,0.1,0.1,0.3,0.2,0.3l0.1,0l0.1,0L87.7,59.1L87.7,59.1L87.7,59.1z M86.2,59
	c0.2,0,0.3-0.4,0.1-0.5c0,0,0,0,0,0h0l-0.1,0l-0.1,0l-0.1,0l0,0c-0.2,0-0.3,0.4-0.1,0.5c0,0,0,0,0,0l0,0l0.1,0l0.1,0L86.2,59
	L86.2,59L86.2,59z M84.6,58.9c0.2,0,0.3-0.4,0.1-0.5c0,0,0,0,0,0l-0.1,0l-0.1,0l-0.1,0l0,0c-0.2,0-0.3,0.4,0,0.5l0,0l0,0l0.1,0
	l0.1,0L84.6,58.9L84.6,58.9z M83.1,58.8c0.2,0,0.3-0.4,0.1-0.5c0,0,0,0,0,0l-0.1,0l-0.1,0l-0.1,0l0,0c-0.2,0-0.3,0.4-0.1,0.5
	c0,0,0,0,0,0l0,0l0.1,0l0.1,0L83.1,58.8L83.1,58.8z M81.5,58.7c0.2,0,0.3-0.4,0.1-0.5c0,0,0,0,0,0l-0.1,0l-0.1,0l-0.1,0l0,0
	c-0.2,0-0.3,0.4-0.1,0.5c0,0,0,0,0,0l0,0l0.1,0l0.1,0L81.5,58.7L81.5,58.7z M80,58.6c0.1,0,0.2-0.1,0.2-0.2c0-0.1-0.1-0.3-0.2-0.3
	l-0.1,0l-0.1,0l-0.1,0l0,0c-0.2,0-0.3,0.4,0,0.5l0,0l0,0l0.1,0l0.1,0L80,58.6L80,58.6z M78.4,58.5c0.2,0,0.3-0.4,0-0.5l0,0l-0.1,0
	l-0.1,0l-0.1,0l-0.1,0c-0.2,0-0.3,0.4,0,0.5l0,0l0.1,0l0.1,0L78.4,58.5L78.4,58.5L78.4,58.5z M76.9,58.4c0.2,0,0.3-0.4,0-0.5
	c0,0,0,0,0,0l-0.1,0l-0.1,0l-0.1,0l-0.1,0c-0.2,0-0.3,0.4,0,0.5l0,0l0.1,0l0.1,0L76.9,58.4L76.9,58.4L76.9,58.4z M75.4,58.3
	c0.2,0,0.3-0.4,0.1-0.5c0,0,0,0,0,0l0,0l-0.1,0l-0.1,0l-0.1,0l-0.1,0c-0.2,0-0.3,0.4,0,0.5l0,0l0.1,0l0.1,0l0.1,0L75.4,58.3
	L75.4,58.3L75.4,58.3z M73.8,58.2c0.1,0,0.2-0.2,0.2-0.3c0-0.1-0.1-0.1-0.2-0.2l0,0l-0.1,0l-0.1,0l-0.1,0l-0.1,0l0,0
	c-0.2,0-0.3,0.4-0.1,0.5c0,0,0,0,0,0l0,0l0.1,0l0.1,0L73.8,58.2L73.8,58.2L73.8,58.2L73.8,58.2z M72.3,58.1c0.1,0,0.2-0.2,0.2-0.3
	c0-0.1-0.1-0.1-0.2-0.1l-0.1,0l-0.1,0l-0.1,0l-0.1,0l-0.1,0l0,0c-0.2,0-0.3,0.4-0.1,0.5c0,0,0,0,0,0l0,0l0.1,0l0.1,0l0.1,0
	L72.3,58.1L72.3,58.1L72.3,58.1z"/>
<path class="st5" d="M70.2,59.4c-0.2,0-0.3,0.4-0.1,0.5l0,0l0,0l0,0l0,0l0.1,0l0.1,0l0.1,0l0.1,0l0,0c0.2,0,0.3-0.4,0.1-0.5
	c0,0,0,0,0,0l0,0l-0.1,0l-0.1,0l-0.1,0l-0.1,0L70.2,59.4L70.2,59.4L70.2,59.4L70.2,59.4z M93.7,61.5c0.2,0,0.3-0.4,0-0.5l0,0l0,0
	l-0.1,0l-0.1,0l-0.1,0l-0.1,0l-0.1,0l0,0c-0.2,0-0.3,0.4-0.1,0.5c0,0,0,0,0,0l0,0l0.1,0l0.1,0l0.1,0L93.7,61.5L93.7,61.5L93.7,61.5
	L93.7,61.5z M92.1,61.4c0.2,0,0.3-0.4,0-0.5l0,0l0,0l-0.1,0l-0.1,0l-0.1,0l-0.1,0l0,0c-0.2,0-0.3,0.4-0.1,0.5c0,0,0,0,0,0l0,0l0.1,0
	l0.1,0l0.1,0L92.1,61.4L92.1,61.4L92.1,61.4z M90.6,61.3c0.2,0,0.3-0.4,0-0.5l0,0l0,0l-0.1,0l-0.1,0l-0.1,0l0,0
	c-0.2,0-0.3,0.4,0,0.5c0,0,0,0,0,0l0,0l0.1,0l0.1,0L90.6,61.3L90.6,61.3L90.6,61.3z M89,61.2c0.2,0,0.3-0.4,0-0.5l0,0l0,0l-0.1,0
	l-0.1,0l-0.1,0l0,0c-0.2,0-0.3,0.4,0,0.5l0,0l0,0l0.1,0l0.1,0L89,61.2L89,61.2L89,61.2z M87.5,61.1c0.2,0,0.3-0.4,0.1-0.5
	c0,0,0,0,0,0l0,0l-0.1,0l-0.1,0l-0.1,0l0,0c-0.2,0-0.3,0.4-0.1,0.5c0,0,0,0,0,0l0,0l0.1,0l0.1,0L87.5,61.1L87.5,61.1L87.5,61.1z
	 M86,61c0.2,0,0.3-0.4,0-0.5l0,0l0,0l-0.1,0l-0.1,0l-0.1,0c-0.2,0-0.3,0.4,0,0.5l0,0l0.1,0l0.1,0L86,61L86,61L86,61z M84.4,60.9
	c0.2,0,0.3-0.4,0-0.5l0,0l0,0l-0.1,0l-0.1,0l-0.1,0l0,0c-0.2,0-0.3,0.4,0,0.5l0,0l0,0l0.1,0l0.1,0L84.4,60.9L84.4,60.9L84.4,60.9z
	 M82.9,60.8c0.2,0,0.3-0.4,0-0.5l0,0l0,0l-0.1,0l-0.1,0l-0.1,0h0c-0.2,0-0.3,0.4,0,0.5l0,0l0,0l0.1,0l0.1,0L82.9,60.8L82.9,60.8
	L82.9,60.8z M81.3,60.7c0.2,0,0.3-0.4,0-0.5l0,0l0,0l-0.1,0l-0.1,0l-0.1,0c-0.2,0-0.3,0.4,0,0.5l0,0l0.1,0l0.1,0L81.3,60.7
	L81.3,60.7L81.3,60.7z M79.8,60.6c0.2,0,0.3-0.4,0.1-0.5c0,0,0,0,0,0l0,0l-0.1,0l-0.1,0l-0.1,0l0,0c-0.1,0-0.2,0.1-0.2,0.2
	c0,0.1,0.1,0.3,0.2,0.3l0,0l0.1,0l0.1,0L79.8,60.6L79.8,60.6L79.8,60.6z M78.2,60.5c0.2,0,0.3-0.4,0-0.5l0,0l-0.1,0l-0.1,0l-0.1,0
	l-0.1,0c-0.2,0-0.3,0.4,0,0.5l0,0l0.1,0l0.1,0L78.2,60.5L78.2,60.5L78.2,60.5z M76.7,60.4c0.2,0,0.3-0.4,0-0.5c0,0,0,0,0,0l-0.1,0
	l-0.1,0l-0.1,0l-0.1,0c-0.2,0-0.3,0.4,0,0.5c0,0,0,0,0,0l0.1,0l0.1,0L76.7,60.4L76.7,60.4L76.7,60.4z M75.1,60.3
	c0.2,0,0.3-0.4,0-0.5l0,0l0,0l-0.1,0l-0.1,0l-0.1,0l-0.1,0c-0.2,0-0.3,0.4,0,0.5l0,0l0.1,0l0.1,0l0.1,0L75.1,60.3L75.1,60.3
	L75.1,60.3z M73.6,60.2c0.2,0,0.3-0.4,0-0.5l0,0l0,0l-0.1,0l-0.1,0l-0.1,0l-0.1,0l0,0c-0.2,0-0.3,0.4-0.1,0.5c0,0,0,0,0,0l0,0l0.1,0
	l0.1,0l0.1,0L73.6,60.2L73.6,60.2L73.6,60.2z M72.1,60.1c0.2,0,0.3-0.4,0.1-0.5c0,0,0,0,0,0l-0.1,0l-0.1,0l-0.1,0l-0.1,0l-0.1,0l0,0
	c-0.3,0-0.3,0.4,0,0.5l0,0l0,0l0.1,0l0.1,0l0.1,0L72.1,60.1L72.1,60.1L72.1,60.1z"/>
<path class="st0" d="M150.5,58.5c0.1,1.5,0.8,6.8,0.9,12.3c0.1,5.5,0.7,16.3,0.8,18.1c0.1,1.9-8.2,5.7-9.8,6.4
	c-1.6,0.6-1.5,0.7-3.2,0.2c-1.7-0.5-10.8-2.3-10.9-5.3c-0.2-3-0.8-10.4-0.9-14.7c-0.2-4.3-1.3-12.6-1.5-14.5
	c-0.2-1.9-0.3-1.5,1.8-1.7c2-0.2,19.7-1.4,21.3-1.7C150.6,57.3,150.6,57.3,150.5,58.5L150.5,58.5z"/>
<path class="st1" d="M150.9,57.8c0.1,1.1,0.5,4.5,0.8,8.5c0.1,1.1,0.1,0.9-0.7,1.5c-1.6,1.4-3.4,2.7-4.2,2.7c-1.3,0-6.9-3.5-8.6-3.5
	c-1.7,0-5.4,4.8-7.1,4.9c-0.9,0-2.2-0.5-3.8-1.4c-1.1-0.6-0.9-0.4-1-1.8c-0.4-3.6-0.9-7.1-1-8.2c-0.2-1.9-0.3-1.5,1.8-1.8
	c2.1-0.2,20.5-1.4,22.2-1.8C151.1,56.6,151.1,56.6,150.9,57.8L150.9,57.8z"/>
<path class="st0" d="M150.2,58.2c0.1,1.1,0.5,4.2,0.7,7.9c0.1,1.1,0.1,0.8-0.6,1.5c-1.5,1.3-2.7,1.8-3.4,1.8c-1.2,0-6.9-3.3-8.5-3.3
	c-1.6,0-5.3,4.5-7,4.6c-0.8,0-1.9,0.3-3.3-0.5c-1-0.6-0.8-0.4-1-1.7c-0.4-3.4-0.8-6.7-0.9-7.7c-0.2-1.8-0.2-1.4,1.7-1.6
	c2-0.2,19.3-1.3,20.8-1.7C150.3,57.1,150.3,57.1,150.2,58.2L150.2,58.2z"/>
<path class="st6" d="M131.2,66.2c-0.1,0.1-0.1,0.2,0,0.3c0.1,0.1,0.2,0.1,0.2,0c0.1-0.1,0.1-0.2,0-0.3
	C131.4,66.2,131.3,66.2,131.2,66.2L131.2,66.2z M130.7,66.7c-0.1,0.1-0.1,0.2,0,0.3c0.1,0.1,0.2,0.1,0.2,0c0.1-0.1,0.1-0.2,0-0.3
	C130.9,66.7,130.8,66.7,130.7,66.7L130.7,66.7z M131.6,66.8c-0.1,0.1-0.1,0.2,0,0.3c0.1,0.1,0.2,0.1,0.2,0s0.1-0.2,0-0.3
	C131.8,66.8,131.7,66.8,131.6,66.8L131.6,66.8z M131.1,67.3c-0.1,0.1-0.1,0.2,0,0.3c0.1,0.1,0.2,0.1,0.2,0c0.1-0.1,0.1-0.2,0-0.3
	C131.3,67.3,131.2,67.2,131.1,67.3L131.1,67.3z M130.8,65.2c-0.7,0.3-1.1,1.3-0.9,2.2s1.1,1.4,1.8,1.1c0.7-0.3,1.1-1.3,0.9-2.2
	C132.3,65.4,131.5,64.9,130.8,65.2L130.8,65.2z"/>
<path class="st6" d="M146.3,65c-0.1,0-0.1,0.2-0.1,0.3c0,0.1,0.1,0.2,0.2,0.1c0.1,0,0.1-0.2,0.1-0.3C146.5,65,146.4,64.9,146.3,65
	L146.3,65z M145.7,65.2c-0.1,0-0.1,0.2-0.1,0.3c0,0.1,0.1,0.2,0.2,0.1c0.1,0,0.1-0.2,0.1-0.3C145.9,65.2,145.8,65.2,145.7,65.2
	L145.7,65.2z M146.5,65.7c-0.1,0-0.1,0.2-0.1,0.3c0,0.1,0.1,0.2,0.2,0.1c0.1,0,0.1-0.2,0.1-0.3C146.7,65.7,146.6,65.6,146.5,65.7
	L146.5,65.7z M146,65.9c-0.1,0-0.1,0.2-0.1,0.3c0,0.1,0.1,0.2,0.2,0.1c0.1,0,0.1-0.2,0.1-0.3C146.2,66,146.1,65.9,146,65.9L146,65.9
	z M146.2,63.8c-0.8,0-1.4,0.8-1.4,1.8c0,1,0.6,1.8,1.4,1.8c0.8,0,1.4-0.8,1.4-1.8C147.6,64.6,147,63.8,146.2,63.8L146.2,63.8z"/>
<path class="st5" d="M150.2,58.8c0.2,0,0.2-0.4,0-0.5c0,0,0,0,0,0l0,0l0,0l0,0l0,0l-0.1,0l-0.1,0l-0.1,0l0,0c-0.2,0-0.2,0.5,0,0.5
	l0,0l0,0l0.1,0l0.1,0l0.1,0l0.1,0L150.2,58.8L150.2,58.8L150.2,58.8L150.2,58.8z M126.6,60.1c-0.2,0-0.3,0.4,0,0.5c0,0,0,0,0.1,0
	l0,0l0.1,0l0.1,0l0.1,0l0.1,0l0.1,0l0,0c0.2,0,0.2-0.4,0-0.5c0,0,0,0,0,0l0,0l-0.1,0l-0.1,0l-0.1,0L126.6,60.1L126.6,60.1
	L126.6,60.1L126.6,60.1z M128.2,60c-0.2,0-0.3,0.5,0,0.5l0,0l0,0l0.1,0l0.1,0l0.1,0l0.1,0l0,0c0.2,0,0.2-0.4,0-0.5c0,0,0,0,0,0l0,0
	l-0.1,0l-0.1,0l-0.1,0L128.2,60L128.2,60L128.2,60z M129.7,59.9c-0.2,0-0.3,0.4,0,0.5c0,0,0,0,0,0l0,0l0.1,0l0.1,0l0.1,0l0.1,0
	c0.1,0,0.1-0.1,0.2-0.1c0.1-0.2,0-0.3-0.2-0.3l-0.1,0l-0.1,0l-0.1,0L129.7,59.9L129.7,59.9L129.7,59.9z M131.3,59.8
	c-0.2,0-0.2,0.5,0,0.5l0,0l0.1,0l0.1,0l0.1,0l0.1,0c0.1,0,0.2-0.1,0.2-0.2c0-0.1-0.1-0.3-0.2-0.3l-0.1,0l-0.1,0L131.3,59.8
	L131.3,59.8L131.3,59.8z M132.8,59.7c-0.2,0-0.2,0.5,0,0.5l0,0l0,0l0.1,0l0.1,0l0.1,0l0,0c0.2,0,0.2-0.5,0-0.5l0,0l0,0l-0.1,0
	l-0.1,0L132.8,59.7L132.8,59.7L132.8,59.7z M134.4,59.6c-0.2,0-0.3,0.4,0,0.5c0,0,0,0,0,0l0.1,0l0.1,0l0.1,0l0.1,0
	c0.2,0,0.2-0.5,0-0.5l0,0l-0.1,0l-0.1,0L134.4,59.6L134.4,59.6L134.4,59.6z M135.9,59.5c-0.2,0-0.2,0.5,0,0.5l0,0l0,0l0.1,0l0.1,0
	l0.1,0l0,0c0.2,0,0.2-0.5,0-0.5l0,0l0,0l-0.1,0l-0.1,0L135.9,59.5L135.9,59.5L135.9,59.5z M137.4,59.4c-0.2,0-0.2,0.5,0,0.5l0,0l0,0
	l0.1,0l0.1,0l0.1,0l0,0c0.2,0,0.2-0.5,0-0.5l0,0l0,0l-0.1,0l-0.1,0L137.4,59.4L137.4,59.4L137.4,59.4z M139,59.3
	c-0.2,0-0.2,0.5,0,0.5l0,0h0l0.1,0l0.1,0l0.1,0l0,0c0.2,0,0.2-0.5,0-0.5l0,0l0,0l-0.1,0l-0.1,0L139,59.3L139,59.3L139,59.3z
	 M140.5,59.1c-0.2,0-0.2,0.5,0,0.5h0l0.1,0l0.1,0l0.1,0l0.1,0c0.2,0,0.2-0.5,0-0.5l0,0l-0.1,0l-0.1,0L140.5,59.1L140.5,59.1
	L140.5,59.1z M142.1,59c-0.2,0-0.3,0.4,0,0.5c0,0,0,0,0,0l0,0l0.1,0l0.1,0l0.1,0l0,0c0.2,0,0.2-0.5,0-0.5l0,0l0,0l-0.1,0l-0.1,0
	L142.1,59L142.1,59L142.1,59z M143.6,58.9c-0.2,0-0.3,0.4,0,0.5c0,0,0,0,0,0l0,0l0.1,0l0.1,0l0.1,0l0,0c0.1,0,0.1-0.1,0.2-0.1
	c0.1-0.2,0-0.3-0.2-0.3l0,0l-0.1,0l-0.1,0L143.6,58.9L143.6,58.9L143.6,58.9z M145.2,58.8c-0.2,0-0.3,0.4,0,0.5c0,0,0,0,0,0l0.1,0
	l0.1,0l0.1,0l0.1,0l0,0c0.1,0,0.2-0.1,0.2-0.2c0-0.1-0.1-0.3-0.2-0.3l0,0l-0.1,0l-0.1,0L145.2,58.8L145.2,58.8L145.2,58.8z
	 M146.7,58.7c-0.2,0-0.2,0.4,0,0.5c0,0,0,0,0,0l0,0l0.1,0l0.1,0l0.1,0l0.1,0c0.2,0,0.2-0.5,0-0.5l0,0l-0.1,0l-0.1,0l-0.1,0
	L146.7,58.7L146.7,58.7L146.7,58.7z M148.2,58.6c-0.2,0-0.3,0.4,0,0.5c0,0,0,0,0.1,0l0.1,0l0.1,0l0.1,0l0.1,0l0.1,0l0,0
	c0.2,0,0.2-0.4,0-0.5c0,0,0,0,0,0l0,0l-0.1,0l-0.1,0l-0.1,0L148.2,58.6L148.2,58.6L148.2,58.6z"/>
<path class="st5" d="M150.4,60.7c0.2,0,0.2-0.5,0-0.5l0,0l0,0l0,0l0,0l0,0l0,0l0,0l0,0l0,0l0,0c-0.2,0-0.2,0.5,0,0.5l0,0l0,0l0,0
	l0,0l0,0l0,0l0,0L150.4,60.7L150.4,60.7L150.4,60.7L150.4,60.7z M126.9,62.1c-0.2,0-0.2,0.5,0,0.5h0l0.1,0l0.1,0l0.1,0
	c0.2,0,0.2-0.5,0-0.5l0,0l-0.1,0l-0.1,0L126.9,62.1L126.9,62.1z M128.4,62.1c-0.3,0-0.2,0.5,0,0.5h0l0,0l0.1,0l0.1,0l0.1,0
	c0.3,0,0.2-0.5,0-0.5h0l-0.1,0l-0.1,0L128.4,62.1L128.4,62.1L128.4,62.1z M130,62c-0.2,0-0.2,0.5,0,0.5h0l0,0l0.1,0l0.1,0l0.1,0
	c0.2,0,0.3-0.4,0-0.5c0,0,0,0,0,0l-0.1,0l-0.1,0L130,62L130,62L130,62z M131.5,61.9c-0.2,0-0.2,0.5,0,0.5h0l0.1,0l0.1,0l0.1,0
	c0.2,0,0.2-0.5,0-0.5l0,0l-0.1,0l-0.1,0L131.5,61.9L131.5,61.9z M133.1,61.8c-0.2,0-0.3,0.4,0,0.5c0,0,0,0,0,0l0,0l0.1,0l0.1,0
	l0.1,0c0.2,0,0.2-0.5,0-0.5l0,0l-0.1,0l-0.1,0L133.1,61.8L133.1,61.8L133.1,61.8z M134.6,61.7c-0.2,0-0.2,0.5,0,0.5l0,0l0.1,0l0.1,0
	l0.1,0l0.1,0c0.1,0,0.2-0.1,0.2-0.2c0-0.1-0.1-0.3-0.2-0.3l-0.1,0l-0.1,0L134.6,61.7L134.6,61.7L134.6,61.7z M136.1,61.6
	c-0.2,0-0.3,0.4,0,0.5c0,0,0,0,0,0l0.1,0l0.1,0l0.1,0l0.1,0c0.2,0,0.3-0.4,0-0.5c0,0,0,0,0,0l-0.1,0l-0.1,0L136.1,61.6L136.1,61.6
	L136.1,61.6z M137.7,61.5c-0.2,0-0.2,0.5,0,0.5h0l0,0l0.1,0l0.1,0l0.1,0l0,0c0.2,0,0.3-0.4,0.1-0.5c0,0,0,0-0.1,0l0,0l-0.1,0l-0.1,0
	L137.7,61.5L137.7,61.5L137.7,61.5z M139.2,61.4c-0.2,0-0.3,0.4,0,0.5c0,0,0,0,0,0l0.1,0l0.1,0l0.1,0l0.1,0c0.2,0,0.2-0.5,0-0.5h0
	l-0.1,0l-0.1,0L139.2,61.4L139.2,61.4L139.2,61.4z M140.8,61.3c-0.2,0-0.2,0.4,0,0.5c0,0,0,0,0,0l0.1,0l0.1,0l0.1,0l0.1,0l0,0
	c0.2,0,0.2-0.5,0-0.5l0,0l0,0l-0.1,0l-0.1,0L140.8,61.3L140.8,61.3L140.8,61.3z M142.3,61.2c-0.2,0-0.2,0.5,0,0.5l0,0l0,0l0.1,0
	l0.1,0l0.1,0l0.1,0c0.2,0,0.2-0.5,0-0.5l0,0l-0.1,0l-0.1,0l-0.1,0L142.3,61.2L142.3,61.2L142.3,61.2z M143.8,61
	c-0.2,0-0.3,0.4,0,0.5c0,0,0,0,0.1,0l0.1,0l0.1,0l0.1,0l0.1,0l0.1,0c0.2,0,0.3-0.4,0-0.5c0,0,0,0,0,0l-0.1,0l-0.1,0l-0.1,0L143.8,61
	L143.8,61L143.8,61z M145.4,60.9c-0.2,0-0.2,0.4,0,0.5c0,0,0,0,0.1,0l0.1,0l0.1,0l0.1,0l0.1,0l0.1,0l0,0c0.3,0,0.2-0.5,0-0.5l0,0
	l-0.1,0l-0.1,0l-0.1,0L145.4,60.9L145.4,60.9L145.4,60.9z M146.9,60.7c-0.2,0-0.2,0.5,0,0.5l0,0l0,0l0.1,0l0.1,0l0.1,0l0.1,0l0.1,0
	l0,0c0.2,0,0.2-0.5,0-0.5l0,0l0,0l-0.1,0l-0.1,0l-0.1,0L146.9,60.7L146.9,60.7L146.9,60.7L146.9,60.7z M148.5,60.5
	c-0.2,0-0.2,0.5,0,0.5l0,0l0,0l0.1,0l0.1,0l0.1,0l0.1,0l0.1,0l0.1,0l0,0c0.1,0,0.2-0.1,0.2-0.2c0-0.2-0.1-0.3-0.2-0.3l0,0l-0.1,0
	l-0.1,0l-0.1,0l-0.1,0L148.5,60.5L148.5,60.5L148.5,60.5L148.5,60.5z"/>
<path class="st2" d="M106.8,215.7c-2.3,0.1-4.6,0.1-7,0c0.5-30.1,1.7-154.8,2.7-171.6c2.8,1,5.3,2.7,5.6,5.3
	C108.9,55.7,107.3,179.9,106.8,215.7L106.8,215.7z"/>
<path class="st7" d="M106.4,49.2c0.6,0.7,0.6,1.8,0,2.5c-0.6,0.7-1.5,0.7-2,0c-0.6-0.7-0.6-1.8,0-2.5
	C104.9,48.6,105.8,48.6,106.4,49.2L106.4,49.2z M105.6,49.9c0,0.1,0,0.2-0.1,0.3c-0.1,0.1-0.2,0-0.2-0.1c0-0.1,0-0.2,0.1-0.3
	C105.5,49.8,105.6,49.8,105.6,49.9L105.6,49.9z M105.9,50.6c0,0.1,0,0.2-0.1,0.3c-0.1,0.1-0.2,0-0.2-0.1c0-0.1,0-0.2,0.1-0.3
	C105.7,50.5,105.8,50.5,105.9,50.6L105.9,50.6z M105.1,50.3c0,0.1,0,0.2-0.1,0.3c-0.1,0.1-0.2,0-0.2-0.1c0-0.1,0-0.2,0.1-0.3
	C104.9,50.1,105,50.1,105.1,50.3L105.1,50.3z M105.3,50.9c0,0.1,0,0.2-0.1,0.3c-0.1,0.1-0.2,0-0.2-0.1c0-0.1,0-0.2,0.1-0.3
	C105.2,50.8,105.3,50.8,105.3,50.9L105.3,50.9z"/>
<path class="st7" d="M106.4,68.8c0.6,0.7,0.6,1.8,0,2.5c-0.6,0.7-1.5,0.7-2,0c-0.6-0.7-0.6-1.8,0-2.5
	C104.9,68.1,105.8,68.1,106.4,68.8L106.4,68.8z M105.6,69.5c0,0.1,0,0.2-0.1,0.3c-0.1,0.1-0.2,0-0.2-0.1c0-0.1,0-0.2,0.1-0.3
	C105.5,69.3,105.6,69.3,105.6,69.5L105.6,69.5z M105.9,70.1c0,0.1,0,0.2-0.1,0.3c-0.1,0.1-0.2,0-0.2-0.1c0-0.1,0-0.2,0.1-0.3
	C105.7,70,105.8,70,105.9,70.1L105.9,70.1z M105.1,69.8c0,0.1,0,0.2-0.1,0.3c-0.1,0.1-0.2,0-0.2-0.1c0-0.1,0-0.2,0.1-0.3
	C104.9,69.6,105,69.7,105.1,69.8L105.1,69.8z M105.3,70.5c0,0.1,0,0.2-0.1,0.3c-0.1,0.1-0.2,0-0.2-0.1c0-0.1,0-0.2,0.1-0.3
	C105.2,70.3,105.3,70.4,105.3,70.5L105.3,70.5z"/>
<path class="st7" d="M106,88.3c0.6,0.7,0.6,1.8,0,2.5c-0.6,0.7-1.5,0.7-2,0c-0.6-0.7-0.6-1.8,0-2.5C104.6,87.6,105.5,87.6,106,88.3
	L106,88.3z M105.3,89c0,0.1,0,0.2-0.1,0.3c-0.1,0.1-0.2,0-0.2-0.1c0-0.1,0-0.2,0.1-0.3C105.1,88.8,105.2,88.9,105.3,89L105.3,89z
	 M105.5,89.7c0,0.1,0,0.2-0.1,0.3c-0.1,0.1-0.2,0-0.2-0.1c0-0.1,0-0.2,0.1-0.3C105.4,89.5,105.5,89.6,105.5,89.7L105.5,89.7z
	 M104.7,89.3c0,0.1,0,0.2-0.1,0.3c-0.1,0.1-0.2,0-0.2-0.1c0-0.1,0-0.2,0.1-0.3C104.5,89.1,104.7,89.2,104.7,89.3L104.7,89.3z
	 M105,90c0,0.1,0,0.2-0.1,0.3c-0.1,0.1-0.2,0-0.2-0.1c0-0.1,0-0.2,0.1-0.3C104.8,89.8,104.9,89.9,105,90L105,90z"/>
<path class="st7" d="M105.9,107.8c0.6,0.7,0.6,1.8,0,2.5c-0.6,0.7-1.5,0.7-2,0c-0.6-0.7-0.6-1.8,0-2.5
	C104.4,107.1,105.3,107.1,105.9,107.8L105.9,107.8z M105.1,108.5c0,0.1,0,0.2-0.1,0.3c-0.1,0.1-0.2,0-0.2-0.1c0-0.1,0-0.2,0.1-0.3
	C105,108.3,105.1,108.4,105.1,108.5L105.1,108.5z M105.4,109.2c0,0.1,0,0.2-0.1,0.3c-0.1,0.1-0.2,0-0.2-0.1c0-0.1,0-0.2,0.1-0.3
	C105.2,109,105.3,109.1,105.4,109.2L105.4,109.2z M104.6,108.8c0,0.1,0,0.2-0.1,0.3c-0.1,0.1-0.2,0-0.2-0.1c0-0.1,0-0.2,0.1-0.3
	C104.4,108.7,104.5,108.7,104.6,108.8L104.6,108.8z M104.8,109.5c0,0.1,0,0.2-0.1,0.3c-0.1,0.1-0.2,0-0.2-0.1c0-0.1,0-0.2,0.1-0.3
	C104.7,109.4,104.8,109.4,104.8,109.5L104.8,109.5z"/>
<path class="st7" d="M105.7,127.3c0.6,0.7,0.6,1.8,0,2.5c-0.6,0.7-1.5,0.7-2,0c-0.6-0.7-0.6-1.8,0-2.5
	C104.3,126.7,105.2,126.7,105.7,127.3L105.7,127.3z M105,128c0,0.1,0,0.2-0.1,0.3c-0.1,0.1-0.2,0-0.2-0.1c0-0.1,0-0.2,0.1-0.3
	C104.8,127.9,104.9,127.9,105,128L105,128z M105.2,128.7c0,0.1,0,0.2-0.1,0.3c-0.1,0.1-0.2,0-0.2-0.1c0-0.1,0-0.2,0.1-0.3
	C105.1,128.6,105.2,128.6,105.2,128.7L105.2,128.7z M104.4,128.4c0,0.1,0,0.2-0.1,0.3c-0.1,0.1-0.2,0-0.2-0.1c0-0.1,0-0.2,0.1-0.3
	C104.3,128.2,104.4,128.2,104.4,128.4L104.4,128.4z M104.7,129c0,0.1,0,0.2-0.1,0.3c-0.1,0.1-0.2,0-0.2-0.1c0-0.1,0-0.2,0.1-0.3
	C104.5,128.9,104.6,128.9,104.7,129L104.7,129z"/>
<path class="st7" d="M105.6,146.9c0.6,0.7,0.6,1.8,0,2.5c-0.6,0.7-1.5,0.7-2,0c-0.6-0.7-0.6-1.8,0-2.5
	C104.1,146.2,105,146.2,105.6,146.9L105.6,146.9z M104.8,147.6c0,0.1,0,0.2-0.1,0.3c-0.1,0.1-0.2,0-0.2-0.1c0-0.1,0-0.2,0.1-0.3
	C104.7,147.4,104.8,147.4,104.8,147.6L104.8,147.6z M105.1,148.2c0,0.1,0,0.2-0.1,0.3c-0.1,0.1-0.2,0-0.2-0.1c0-0.1,0-0.2,0.1-0.3
	C104.9,148.1,105,148.1,105.1,148.2L105.1,148.2z M104.2,147.9c0,0.1,0,0.2-0.1,0.3c-0.1,0.1-0.2,0-0.2-0.1c0-0.1,0-0.2,0.1-0.3
	C104.1,147.7,104.2,147.8,104.2,147.9L104.2,147.9z M104.5,148.6c0,0.1,0,0.2-0.1,0.3c-0.1,0.1-0.2,0-0.2-0.1c0-0.1,0-0.2,0.1-0.3
	C104.4,148.4,104.5,148.5,104.5,148.6L104.5,148.6z"/>
<path class="st7" d="M105.1,166.4c0.6,0.7,0.6,1.8,0,2.5c-0.6,0.7-1.5,0.7-2,0c-0.6-0.7-0.6-1.8,0-2.5
	C103.7,165.7,104.6,165.7,105.1,166.4L105.1,166.4z M104.4,167.1c0,0.1,0,0.2-0.1,0.3c-0.1,0.1-0.2,0-0.2-0.1c0-0.1,0-0.2,0.1-0.3
	C104.2,166.9,104.3,167,104.4,167.1L104.4,167.1z M104.6,167.8c0,0.1,0,0.2-0.1,0.3c-0.1,0.1-0.2,0-0.2-0.1c0-0.1,0-0.2,0.1-0.3
	C104.5,167.6,104.6,167.7,104.6,167.8L104.6,167.8z M103.8,167.4c0,0.1,0,0.2-0.1,0.3c-0.1,0.1-0.2,0-0.2-0.1c0-0.1,0-0.2,0.1-0.3
	C103.7,167.2,103.8,167.3,103.8,167.4L103.8,167.4z M104.1,168.1c0,0.1,0,0.2-0.1,0.3c-0.1,0.1-0.2,0-0.2-0.1c0-0.1,0-0.2,0.1-0.3
	C103.9,167.9,104,168,104.1,168.1L104.1,168.1z"/>
<path class="st7" d="M105.4,185.9c0.6,0.7,0.6,1.8,0,2.5c-0.6,0.7-1.5,0.7-2,0c-0.6-0.7-0.6-1.8,0-2.5
	C103.9,185.2,104.8,185.2,105.4,185.9L105.4,185.9z M104.6,186.6c0,0.1,0,0.2-0.1,0.3c-0.1,0.1-0.2,0-0.2-0.1c0-0.1,0-0.2,0.1-0.3
	C104.5,186.4,104.6,186.5,104.6,186.6L104.6,186.6z M104.9,187.3c0,0.1,0,0.2-0.1,0.3c-0.1,0.1-0.2,0-0.2-0.1c0-0.1,0-0.2,0.1-0.3
	C104.7,187.1,104.8,187.2,104.9,187.3L104.9,187.3z M104.1,186.9c0,0.1,0,0.2-0.1,0.3c-0.1,0.1-0.2,0-0.2-0.1c0-0.1,0-0.2,0.1-0.3
	C103.9,186.8,104,186.8,104.1,186.9L104.1,186.9z M104.3,187.6c0,0.1,0,0.2-0.1,0.3c-0.1,0.1-0.2,0-0.2-0.1c0-0.1,0-0.2,0.1-0.3
	C104.2,187.5,104.3,187.5,104.3,187.6L104.3,187.6z"/>
<path class="st7" d="M105.1,205.4c0.6,0.7,0.6,1.8,0,2.5c-0.6,0.7-1.5,0.7-2,0c-0.6-0.7-0.6-1.8,0-2.5
	C103.7,204.8,104.6,204.8,105.1,205.4L105.1,205.4z M104.4,206.1c0,0.1,0,0.2-0.1,0.3c-0.1,0.1-0.2,0-0.2-0.1c0-0.1,0-0.2,0.1-0.3
	C104.2,206,104.3,206,104.4,206.1L104.4,206.1z M104.6,206.8c0,0.1,0,0.2-0.1,0.3c-0.1,0.1-0.2,0-0.2-0.1c0-0.1,0-0.2,0.1-0.3
	C104.5,206.7,104.6,206.7,104.6,206.8L104.6,206.8z M103.8,206.5c0,0.1,0,0.2-0.1,0.3c-0.1,0.1-0.2,0-0.2-0.1c0-0.1,0-0.2,0.1-0.3
	C103.7,206.3,103.8,206.3,103.8,206.5L103.8,206.5z M104.1,207.1c0,0.1,0,0.2-0.1,0.3c-0.1,0.1-0.2,0-0.2-0.1c0-0.1,0-0.2,0.1-0.3
	C103.9,207,104,207,104.1,207.1L104.1,207.1z"/>
<path class="st2" d="M95.3,10.6c-0.9,6.5-2,20.8-2,30.7c0.4,0.6,0.9,1.1,1.9,1.2c3.8,0.3,12.3,1.8,12.9,6.9
	c0.4-7.5-9.4-7.9-12.5-34.2C95.4,13.5,95.3,12,95.3,10.6L95.3,10.6z M125.5,37.9c0.2-6.2-0.2-14.1-1.8-24.1c0-0.2-0.1-0.4-0.1-0.6
	c0.4,7,0,15.1-1.8,17.9c-2.9,4.7-10.6,7.4-10.4,18.2c1.7-14.2,7.8-5.6,10.6-6.9C123.8,41.6,124.6,39.3,125.5,37.9L125.5,37.9z"/>
<path class="st6" d="M106.1,49c0.6,0.7,0.6,1.8,0,2.5c-0.6,0.7-1.5,0.7-2,0c-0.6-0.7-0.6-1.8,0-2.5C104.7,48.3,105.6,48.3,106.1,49
	L106.1,49z M105.4,49.7c0,0.1,0,0.2-0.1,0.3c-0.1,0.1-0.2,0-0.2-0.1c0-0.1,0-0.2,0.1-0.3C105.2,49.5,105.3,49.6,105.4,49.7
	L105.4,49.7z M105.6,50.4c0,0.1,0,0.2-0.1,0.3c-0.1,0.1-0.2,0-0.2-0.1c0-0.1,0-0.2,0.1-0.3C105.5,50.2,105.6,50.3,105.6,50.4
	L105.6,50.4z M104.8,50c0,0.1,0,0.2-0.1,0.3c-0.1,0.1-0.2,0-0.2-0.1c0-0.1,0-0.2,0.1-0.3C104.7,49.8,104.8,49.9,104.8,50L104.8,50z
	 M105.1,50.7c0,0.1,0,0.2-0.1,0.3c-0.1,0.1-0.2,0-0.2-0.1c0-0.1,0-0.2,0.1-0.3C104.9,50.5,105,50.6,105.1,50.7L105.1,50.7z"/>
<path class="st6" d="M106.1,68.5c0.6,0.7,0.6,1.8,0,2.5c-0.6,0.7-1.5,0.7-2,0c-0.6-0.7-0.6-1.8,0-2.5
	C104.7,67.8,105.6,67.8,106.1,68.5L106.1,68.5z M105.4,69.2c0,0.1,0,0.2-0.1,0.3c-0.1,0.1-0.2,0-0.2-0.1c0-0.1,0-0.2,0.1-0.3
	C105.2,69,105.3,69.1,105.4,69.2L105.4,69.2z M105.6,69.9c0,0.1,0,0.2-0.1,0.3c-0.1,0.1-0.2,0-0.2-0.1c0-0.1,0-0.2,0.1-0.3
	C105.5,69.7,105.6,69.8,105.6,69.9L105.6,69.9z M104.8,69.5c0,0.1,0,0.2-0.1,0.3c-0.1,0.1-0.2,0-0.2-0.1c0-0.1,0-0.2,0.1-0.3
	C104.7,69.4,104.8,69.4,104.8,69.5L104.8,69.5z M105.1,70.2c0,0.1,0,0.2-0.1,0.3c-0.1,0.1-0.2,0-0.2-0.1c0-0.1,0-0.2,0.1-0.3
	C104.9,70.1,105,70.1,105.1,70.2L105.1,70.2z"/>
<path class="st6" d="M105.8,88c0.6,0.7,0.6,1.8,0,2.5c-0.6,0.7-1.4,0.7-2,0c-0.6-0.7-0.6-1.8,0-2.5C104.3,87.4,105.2,87.4,105.8,88
	L105.8,88z M105,88.7c0,0.1,0,0.2-0.1,0.3c-0.1,0.1-0.2,0-0.2-0.1c0-0.1,0-0.2,0.1-0.3C104.9,88.6,105,88.6,105,88.7L105,88.7z
	 M105.3,89.4c0,0.1,0,0.2-0.1,0.3c-0.1,0.1-0.2,0-0.2-0.1c0-0.1,0-0.2,0.1-0.3C105.1,89.3,105.2,89.3,105.3,89.4L105.3,89.4z
	 M104.4,89c0,0.1,0,0.2-0.1,0.3c-0.1,0.1-0.2,0-0.2-0.1c0-0.1,0-0.2,0.1-0.3C104.3,88.9,104.4,88.9,104.4,89L104.4,89z M104.7,89.7
	c0,0.1,0,0.2-0.1,0.3c-0.1,0.1-0.2,0-0.2-0.1c0-0.1,0-0.2,0.1-0.3C104.6,89.6,104.7,89.6,104.7,89.7L104.7,89.7z"/>
<path class="st6" d="M105.6,107.6c0.6,0.7,0.6,1.8,0,2.5c-0.6,0.7-1.5,0.7-2,0c-0.6-0.7-0.6-1.8,0-2.5
	C104.2,106.9,105.1,106.9,105.6,107.6L105.6,107.6z M104.9,108.2c0,0.1,0,0.2-0.1,0.3c-0.1,0.1-0.2,0-0.2-0.1c0-0.1,0-0.2,0.1-0.3
	C104.7,108.1,104.8,108.1,104.9,108.2L104.9,108.2z M105.1,108.9c0,0.1,0,0.2-0.1,0.3c-0.1,0.1-0.2,0-0.2-0.1c0-0.1,0-0.2,0.1-0.3
	C105,108.8,105.1,108.8,105.1,108.9L105.1,108.9z M104.3,108.6c0,0.1,0,0.2-0.1,0.3c-0.1,0.1-0.2,0-0.2-0.1c0-0.1,0-0.2,0.1-0.3
	C104.2,108.4,104.3,108.5,104.3,108.6L104.3,108.6z M104.6,109.3c0,0.1,0,0.2-0.1,0.3c-0.1,0.1-0.2,0-0.2-0.1c0-0.1,0-0.2,0.1-0.3
	C104.4,109.1,104.5,109.2,104.6,109.3L104.6,109.3z"/>
<path class="st6" d="M105.5,127.1c0.6,0.7,0.6,1.8,0,2.5c-0.6,0.7-1.5,0.7-2,0c-0.6-0.7-0.6-1.8,0-2.5
	C104,126.4,104.9,126.4,105.5,127.1L105.5,127.1z M104.7,127.8c0,0.1,0,0.2-0.1,0.3c-0.1,0.1-0.2,0-0.2-0.1c0-0.1,0-0.2,0.1-0.3
	C104.6,127.6,104.7,127.7,104.7,127.8L104.7,127.8z M105,128.5c0,0.1,0,0.2-0.1,0.3c-0.1,0.1-0.2,0-0.2-0.1c0-0.1,0-0.2,0.1-0.3
	C104.8,128.3,104.9,128.4,105,128.5L105,128.5z M104.2,128.1c0,0.1,0,0.2-0.1,0.3c-0.1,0.1-0.2,0-0.2-0.1c0-0.1,0-0.2,0.1-0.3
	C104,127.9,104.1,128,104.2,128.1L104.2,128.1z M104.4,128.8c0,0.1,0,0.2-0.1,0.3c-0.1,0.1-0.2,0-0.2-0.1c0-0.1,0-0.2,0.1-0.3
	C104.3,128.6,104.4,128.7,104.4,128.8L104.4,128.8z"/>
<path class="st6" d="M105.3,146.6c0.6,0.7,0.6,1.8,0,2.5c-0.6,0.7-1.5,0.7-2,0c-0.6-0.7-0.6-1.8,0-2.5
	C103.9,145.9,104.8,145.9,105.3,146.6L105.3,146.6z M104.5,147.3c0,0.1,0,0.2-0.1,0.3c-0.1,0.1-0.2,0-0.2-0.1c0-0.1,0-0.2,0.1-0.3
	C104.4,147.1,104.5,147.2,104.5,147.3L104.5,147.3z M104.8,148c0,0.1,0,0.2-0.1,0.3c-0.1,0.1-0.2,0-0.2-0.1c0-0.1,0-0.2,0.1-0.3
	C104.7,147.8,104.8,147.9,104.8,148L104.8,148z M104,147.6c0,0.1,0,0.2-0.1,0.3c-0.1,0.1-0.2,0-0.2-0.1c0-0.1,0-0.2,0.1-0.3
	C103.8,147.5,103.9,147.5,104,147.6L104,147.6z M104.2,148.3c0,0.1,0,0.2-0.1,0.3c-0.1,0.1-0.2,0-0.2-0.1c0-0.1,0-0.2,0.1-0.3
	C104.1,148.2,104.2,148.2,104.2,148.3L104.2,148.3z"/>
<path class="st6" d="M104.9,166.1c0.6,0.7,0.6,1.8,0,2.5s-1.5,0.7-2,0c-0.6-0.7-0.6-1.8,0-2.5C103.4,165.5,104.3,165.5,104.9,166.1
	L104.9,166.1z M104.1,166.8c0,0.1,0,0.2-0.1,0.3c-0.1,0.1-0.2,0-0.2-0.1c0-0.1,0-0.2,0.1-0.3C104,166.7,104.1,166.7,104.1,166.8
	L104.1,166.8z M104.4,167.5c0,0.1,0,0.2-0.1,0.3c-0.1,0.1-0.2,0-0.2-0.1c0-0.1,0-0.2,0.1-0.3C104.2,167.4,104.3,167.4,104.4,167.5
	L104.4,167.5z M103.6,167.1c0,0.1,0,0.2-0.1,0.3c-0.1,0.1-0.2,0-0.2-0.1c0-0.1,0-0.2,0.1-0.3C103.4,167,103.5,167,103.6,167.1
	L103.6,167.1z M103.8,167.8c0,0.1,0,0.2-0.1,0.3c-0.1,0.1-0.2,0-0.2-0.1c0-0.1,0-0.2,0.1-0.3C103.7,167.7,103.8,167.7,103.8,167.8
	L103.8,167.8z"/>
<path class="st6" d="M105.1,185.7c0.6,0.7,0.6,1.8,0,2.5c-0.6,0.7-1.5,0.7-2,0c-0.6-0.7-0.6-1.8,0-2.5
	C103.7,185,104.6,185,105.1,185.7L105.1,185.7z M104.4,186.3c0,0.1,0,0.2-0.1,0.3c-0.1,0.1-0.2,0-0.2-0.1c0-0.1,0-0.2,0.1-0.3
	C104.2,186.2,104.3,186.2,104.4,186.3L104.4,186.3z M104.6,187c0,0.1,0,0.2-0.1,0.3c-0.1,0.1-0.2,0-0.2-0.1c0-0.1,0-0.2,0.1-0.3
	C104.5,186.9,104.6,186.9,104.6,187L104.6,187z M103.8,186.7c0,0.1,0,0.2-0.1,0.3c-0.1,0.1-0.2,0-0.2-0.1c0-0.1,0-0.2,0.1-0.3
	C103.7,186.5,103.8,186.6,103.8,186.7L103.8,186.7z M104.1,187.4c0,0.1,0,0.2-0.1,0.3c-0.1,0.1-0.2,0-0.2-0.1c0-0.1,0-0.2,0.1-0.3
	C103.9,187.2,104,187.3,104.1,187.4L104.1,187.4z"/>
<path class="st6" d="M104.9,205.2c0.6,0.7,0.6,1.8,0,2.5c-0.6,0.7-1.5,0.7-2,0c-0.6-0.7-0.6-1.8,0-2.5
	C103.4,204.5,104.3,204.5,104.9,205.2L104.9,205.2z M104.1,205.9c0,0.1,0,0.2-0.1,0.3c-0.1,0.1-0.2,0-0.2-0.1c0-0.1,0-0.2,0.1-0.3
	C104,205.7,104.1,205.8,104.1,205.9L104.1,205.9z M104.4,206.6c0,0.1,0,0.2-0.1,0.3c-0.1,0.1-0.2,0-0.2-0.1c0-0.1,0-0.2,0.1-0.3
	C104.2,206.4,104.3,206.5,104.4,206.6L104.4,206.6z M103.6,206.2c0,0.1,0,0.2-0.1,0.3c-0.1,0.1-0.2,0-0.2-0.1c0-0.1,0-0.2,0.1-0.3
	C103.4,206,103.5,206.1,103.6,206.2L103.6,206.2z M103.8,206.9c0,0.1,0,0.2-0.1,0.3c-0.1,0.1-0.2,0-0.2-0.1c0-0.1,0-0.2,0.1-0.3
	C103.7,206.7,103.8,206.8,103.8,206.9L103.8,206.9z"/>
<path class="st5" d="M90.1,10.2c0.1-0.3-0.2-0.5-0.3-0.2l0,0l0,0l0,0l0,0l0,0l0,0l0,0.1l0,0.1l0,0.1l0,0.1l0,0c0,0.1,0,0.1,0,0.2
	c0.1,0.2,0.3,0.2,0.4,0l0,0l0-0.1l0-0.1l0,0l0,0l0,0l0,0L90.1,10.2L90.1,10.2L90.1,10.2L90.1,10.2z M92.6,35c0,0,0.1,0,0.1-0.1
	c0.1-0.2,0-0.4-0.2-0.4l0,0l0,0l0,0l0,0l0,0l0,0l0,0l0,0l0,0l0,0l0,0l0,0l0,0l0,0l0,0l0,0l0,0l0,0l0,0l0,0l0,0l0,0
	c-0.2,0.1-0.2,0.5,0.1,0.5c0,0,0,0,0,0l0,0l0,0l0,0l0,0l0,0l0,0l0,0l0,0l0,0l0,0l0,0l0,0l0,0l0,0l0,0L92.6,35L92.6,35L92.6,35
	L92.6,35L92.6,35L92.6,35L92.6,35L92.6,35z M91.1,35.5c0.2-0.1,0.2-0.5-0.1-0.5c0,0,0,0,0,0l0,0l0,0l0,0l0,0l0,0l0,0l0,0l0,0l0,0
	l0,0l0,0l0,0l0,0l0,0l0,0l0,0l0,0l0,0c-0.2,0.1-0.2,0.5,0.1,0.5c0,0,0,0,0,0l0,0l0,0l0,0l0,0l0,0l0,0l0,0l0,0l0,0l0,0l0,0l0,0
	L91.1,35.5L91.1,35.5L91.1,35.5L91.1,35.5L91.1,35.5L91.1,35.5L91.1,35.5z M89.6,35.9c0.2-0.1,0.2-0.5-0.1-0.5c0,0,0,0,0,0l0,0l0,0
	l0,0l0,0l0,0l0,0l0,0l0,0l0,0l0,0l0,0l0,0l0,0l0,0l0,0l0,0l0,0l0,0c-0.2,0.1-0.2,0.5,0.1,0.5l0,0l0,0l0,0l0,0l0,0l0,0l0,0l0,0l0,0
	l0,0l0,0l0,0l0,0L89.6,35.9L89.6,35.9L89.6,35.9L89.6,35.9L89.6,35.9L89.6,35.9L89.6,35.9z M88.1,36.4c0.1,0,0.1-0.1,0.1-0.2
	c0-0.2-0.1-0.4-0.2-0.3l0,0l0,0l0,0l0,0l0,0l0,0l0,0l0,0l0,0l0,0l0,0l0,0l0,0l0,0l0,0l0,0l0,0l0,0l0,0l0,0l0,0c-0.2,0-0.2,0.5,0,0.5
	c0,0,0,0,0,0l0,0l0,0l0,0l0,0l0,0l0,0l0,0l0,0l0,0l0,0l0,0l0,0l0,0l0,0l0,0L88.1,36.4L88.1,36.4L88.1,36.4L88.1,36.4L88.1,36.4
	L88.1,36.4L88.1,36.4z M86.5,36.6c0.1,0,0.1,0,0.2-0.1c0.1-0.1,0-0.4-0.1-0.4l0,0l0,0l0,0l0,0l0,0l0,0l0,0l0,0l0,0l0,0l0,0l0,0l0,0
	l0,0l0,0l0,0l0,0l0,0l0,0l0,0l0,0l0,0l0,0l0,0l0,0l0,0l0,0l0,0l0,0l0,0l0,0l0,0l0,0l0,0l0,0l0,0l0,0l0,0l0,0l0,0
	c-0.2-0.2-0.4,0.2-0.2,0.4l0,0l0,0l0,0l0,0l0,0l0,0l0,0l0,0l0,0l0,0l0,0l0,0l0,0l0,0l0,0l0,0l0,0l0,0l0,0l0,0l0,0l0,0l0,0l0,0l0,0
	l0,0l0,0l0,0l0,0l0,0l0,0l0,0L86.5,36.6L86.5,36.6L86.5,36.6L86.5,36.6L86.5,36.6L86.5,36.6L86.5,36.6L86.5,36.6L86.5,36.6
	L86.5,36.6z M85.7,34.9c0,0.1,0,0.1,0,0.2c0.1,0.2,0.3,0.1,0.3-0.1l0,0l0,0l0,0l0,0l0,0l0,0l0,0l0,0l0,0l0,0l0,0l0,0l0,0l0,0l0,0
	c0-0.2-0.1-0.3-0.2-0.3c-0.1,0-0.1,0.1-0.1,0.2l0,0l0,0l0,0l0,0l0,0l0,0l0,0l0,0l0,0l0,0l0,0L85.7,34.9L85.7,34.9L85.7,34.9
	L85.7,34.9L85.7,34.9z M85.8,33c0,0.3,0.3,0.4,0.4,0.1l0,0l0-0.1l0-0.1l0-0.1l0-0.1l0-0.1l0-0.1c0-0.3-0.3-0.4-0.4-0.1l0,0.1l0,0.1
	l0,0.1l0,0.1l0,0.1L85.8,33L85.8,33L85.8,33z M86.1,31.1c0,0.2,0.2,0.4,0.4,0.2c0,0,0-0.1,0-0.1l0-0.1l0-0.1l0-0.1l0-0.1l0-0.1l0,0
	c0-0.1,0-0.2-0.1-0.3c-0.1-0.1-0.3,0-0.3,0.2l0,0l0,0.1l0,0.1l0,0.1L86.1,31.1L86.1,31.1L86.1,31.1z M86.3,29.2
	c0,0.2,0.2,0.4,0.4,0.2c0,0,0-0.1,0-0.1l0-0.1l0-0.1l0-0.1l0-0.1l0-0.1c0-0.1,0-0.2-0.1-0.3c-0.1-0.1-0.3,0-0.3,0.2l0,0.1l0,0.1
	l0,0.1L86.3,29.2L86.3,29.2L86.3,29.2z M86.6,27.3c0,0.2,0.2,0.4,0.4,0.2c0,0,0-0.1,0-0.1l0-0.1l0-0.1l0-0.1l0-0.1l0,0
	c0-0.3-0.3-0.4-0.4-0.1l0,0l0,0l0,0.1l0,0.1L86.6,27.3L86.6,27.3L86.6,27.3z M86.9,25.4c0,0.1,0,0.2,0.1,0.3c0.1,0,0.2-0.1,0.2-0.2
	l0,0l0-0.1l0-0.1l0-0.1l0,0c0-0.3-0.3-0.4-0.4-0.1l0,0l0,0l0,0.1l0,0.1L86.9,25.4L86.9,25.4L86.9,25.4z M87.2,23.5
	c0,0.1,0,0.2,0.1,0.3c0.1,0.1,0.3,0,0.3-0.2l0-0.1l0-0.1l0-0.1l0-0.1c0-0.3-0.3-0.4-0.4-0.1l0,0l0,0.1l0,0.1l0,0.1L87.2,23.5
	L87.2,23.5z M87.4,21.6c0,0.1,0,0.2,0.1,0.3c0.1,0,0.2,0,0.2-0.2l0-0.1l0-0.1l0-0.1l0-0.1l0,0c0-0.1,0-0.2-0.1-0.2
	c-0.1-0.1-0.3,0-0.3,0.2l0,0l0,0.1l0,0.1L87.4,21.6L87.4,21.6L87.4,21.6z M87.7,19.8c0,0.3,0.3,0.4,0.4,0.1l0,0l0-0.1l0-0.1l0-0.1
	l0-0.1c0-0.3-0.3-0.4-0.4-0.1l0,0l0,0.1l0,0.1l0,0.1L87.7,19.8L87.7,19.8z M88.1,17.9c0,0.3,0.3,0.4,0.4,0.1l0,0l0-0.1l0-0.1l0-0.1
	l0-0.1c0-0.3-0.2-0.4-0.4-0.2c0,0,0,0,0,0.1l0,0.1l0,0.1l0,0.1L88.1,17.9L88.1,17.9L88.1,17.9z M88.4,16c-0.1,0.3,0.3,0.4,0.4,0.1
	l0,0l0-0.1l0-0.1l0-0.1l0-0.1l0-0.1c0.1-0.3-0.3-0.4-0.4-0.2c0,0,0,0,0,0l0,0.1l0,0.1l0,0.1L88.4,16L88.4,16L88.4,16z M88.7,14.1
	c0,0.1,0,0.1,0,0.2c0.1,0.2,0.3,0.1,0.3-0.1l0-0.1l0-0.1l0-0.1l0-0.1l0-0.1c0.1-0.3-0.3-0.4-0.4-0.1l0,0l0,0.1l0,0.1l0,0.1
	L88.7,14.1L88.7,14.1L88.7,14.1z M89.1,12.3c-0.1,0.3,0.3,0.4,0.4,0.1l0,0l0,0l0-0.1l0-0.1l0-0.1l0-0.1l0-0.1l0,0
	c0.1-0.2-0.2-0.4-0.4-0.2c0,0,0,0,0,0.1l0,0l0,0.1l0,0.1l0,0.1L89.1,12.3L89.1,12.3L89.1,12.3L89.1,12.3z"/>
<path class="st5" d="M130.8,12c-0.1-0.2-0.4-0.2-0.4,0.1c0,0,0,0.1,0,0.1l0,0l0,0l0,0l0,0l0,0l0,0l0,0l0,0l0,0l0,0l0,0l0,0
	c0.1,0.3,0.4,0.2,0.4-0.1l0,0l0,0l0,0l0,0l0,0l0,0l0,0l0,0l0,0l0,0L130.8,12L130.8,12L130.8,12L130.8,12z M126.2,34.6
	c-0.3,0-0.3,0.4,0,0.5l0,0l0,0l0,0l0,0l0,0l0,0l0,0l0,0l0,0l0,0l0,0c0.2,0,0.3-0.4,0.1-0.5l0,0l0,0l0,0l0,0l0,0l0,0l0,0l0,0
	L126.2,34.6L126.2,34.6L126.2,34.6L126.2,34.6L126.2,34.6z M127.7,34.8c-0.2,0-0.3,0.4-0.1,0.5c0,0,0,0,0,0l0,0l0,0l0,0l0,0l0,0l0,0
	l0,0l0,0l0,0l0,0l0,0c0.2,0,0.3-0.3,0.1-0.4c0,0,0,0-0.1,0l0,0l0,0l0,0l0,0l0,0l0,0l0,0l0,0L127.7,34.8L127.7,34.8L127.7,34.8
	L127.7,34.8z M129.3,35.1c-0.2-0.1-0.3,0.4-0.1,0.5l0,0l0,0l0,0l0,0l0,0l0,0l0,0l0,0l0,0l0,0l0,0l0,0l0,0c0.1,0,0.2,0,0.2-0.1
	c0.1-0.1,0-0.3-0.1-0.4l0,0l0,0l0,0l0,0l0,0l0,0l0,0l0,0L129.3,35.1L129.3,35.1L129.3,35.1L129.3,35.1L129.3,35.1z M130.8,35.5
	c-0.2-0.1-0.3,0.3-0.1,0.5c0,0,0,0,0,0l0,0l0,0l0,0l0,0l0,0l0,0l0,0l0,0l0,0l0,0l0,0l0,0l0,0l0,0c0.2,0.1,0.3-0.3,0.1-0.5l0,0l0,0
	l0,0l0,0l0,0l0,0l0,0l0,0l0,0l0,0l0,0L130.8,35.5L130.8,35.5L130.8,35.5L130.8,35.5L130.8,35.5z M132.3,36c-0.2-0.1-0.3,0.4-0.1,0.5
	l0,0l0,0l0,0l0,0l0,0l0,0l0,0l0,0l0,0l0,0l0,0l0,0l0,0l0,0l0,0l0,0l0,0l0,0l0,0l0,0l0,0l0,0l0,0l0,0c0,0,0.1,0,0.1,0
	c0.2-0.1,0.1-0.4,0-0.4l0,0l0,0l0,0l0,0l0,0l0,0l0,0l0,0l0,0l0,0l0,0l0,0l0,0l0,0l0,0l0,0l0,0L132.3,36L132.3,36L132.3,36L132.3,36
	L132.3,36L132.3,36L132.3,36z M133.8,36.4c-0.2,0-0.3,0.3-0.1,0.4c0,0,0,0,0.1,0c0.2,0,0.4,0,0.5-0.3c0-0.1,0-0.1,0-0.2
	c0-0.2-0.2-0.3-0.4-0.1l0,0C133.9,36.5,133.8,36.5,133.8,36.4L133.8,36.4z M134,35.1c0,0.3,0.4,0.3,0.4,0l0,0l0,0l0,0l0,0l0,0l0,0
	l0,0l0,0l0,0l0,0l0,0l0-0.1l0,0c0-0.3-0.3-0.3-0.4,0c0,0,0,0,0,0.1l0,0l0,0l0,0l0,0l0,0l0,0l0,0l0,0L134,35.1L134,35.1L134,35.1
	L134,35.1L134,35.1z M133.8,33.3c0,0.3,0.4,0.2,0.4-0.1v0l0-0.1l0-0.1l0-0.1l0-0.1l0-0.1l0-0.1l0,0c0-0.2-0.1-0.2-0.3-0.2
	c-0.1,0-0.1,0.2-0.1,0.3l0,0l0,0.1l0,0.1l0,0.1l0,0.1L133.8,33.3L133.8,33.3L133.8,33.3z M133.5,31.4c0,0.3,0.4,0.2,0.4-0.1l0,0l0,0
	l0-0.1l0-0.1l0-0.1l0-0.1l0-0.1c0-0.3-0.4-0.3-0.4,0.1l0,0l0,0.1l0,0.1l0,0.1l0,0.1L133.5,31.4L133.5,31.4L133.5,31.4z M133.3,29.5
	c0,0.3,0.4,0.2,0.4-0.1l0,0l0-0.1l0-0.1l0-0.1l0-0.1l0,0c0-0.3-0.4-0.3-0.4,0c0,0,0,0,0,0l0,0l0,0.1l0,0.1L133.3,29.5L133.3,29.5
	L133.3,29.5z M133,27.6c0,0.1,0.1,0.2,0.2,0.2c0.1,0,0.2-0.2,0.1-0.3l0,0l0-0.1l0-0.1l0-0.1l0-0.1c0-0.2-0.2-0.3-0.3-0.1
	c0,0.1,0,0.1,0,0.2l0,0.1l0,0.1l0,0.1L133,27.6L133,27.6L133,27.6z M132.7,25.7c0,0.3,0.4,0.3,0.4,0c0,0,0,0,0-0.1l0-0.1l0-0.1
	l0-0.1l0-0.1l0,0c0-0.3-0.4-0.2-0.4,0.1l0,0l0,0l0,0.1l0,0.1L132.7,25.7L132.7,25.7L132.7,25.7z M132.5,23.8c0,0.1,0.1,0.2,0.2,0.2
	c0.1,0,0.2-0.1,0.2-0.3l0,0l0-0.1l0-0.1l0-0.1l0-0.1c0-0.1-0.1-0.2-0.2-0.2c-0.1,0-0.2,0.1-0.2,0.3l0,0.1l0,0.1l0,0.1L132.5,23.8
	L132.5,23.8L132.5,23.8z M132.2,21.9c0,0.1,0.1,0.2,0.2,0.2c0.1,0,0.2-0.1,0.2-0.3l0-0.1l0-0.1l0-0.1l0-0.1c0-0.3-0.4-0.3-0.4,0
	c0,0,0,0,0,0.1l0,0.1l0,0.1l0,0.1L132.2,21.9L132.2,21.9z M131.9,20c0,0.3,0.4,0.3,0.4,0c0,0,0,0,0-0.1l0,0l0-0.1l0-0.1l0-0.1l0-0.1
	c0-0.3-0.4-0.3-0.4,0c0,0,0,0,0,0.1l0,0.1l0,0.1l0,0.1L131.9,20L131.9,20L131.9,20z M131.6,18.2c0,0.1,0.1,0.2,0.2,0.2
	c0.1,0,0.2-0.2,0.1-0.3l0-0.1l0-0.1l0-0.1l0-0.1l0,0c0-0.3-0.4-0.3-0.4,0c0,0,0,0,0,0.1l0,0l0,0.1l0,0.1l0,0.1L131.6,18.2
	L131.6,18.2z M131.3,16.3c0.1,0.3,0.4,0.2,0.4-0.1l0,0l0,0l0-0.1l0-0.1l0-0.1l0-0.1l0-0.1c0-0.1-0.1-0.2-0.2-0.2
	c-0.1,0-0.2,0.1-0.2,0.3l0,0.1l0,0.1l0,0.1l0,0.1L131.3,16.3L131.3,16.3L131.3,16.3z M130.9,14.4c0,0.3,0.4,0.2,0.4-0.1
	c0,0,0,0,0-0.1l0,0l0-0.1l0-0.1l0-0.1l0-0.1l0-0.1l0,0c-0.1-0.3-0.4-0.2-0.4,0.1c0,0,0,0,0,0.1l0,0l0,0.1l0,0.1l0,0.1l0,0.1
	L130.9,14.4L130.9,14.4L130.9,14.4z"/>
<path class="st0" d="M109.9,15.6c-2.3,0-8.8-2.9-10.2-0.9c-1.4,2-0.9,8.9,0,13.5c0.9,4.6,0.7,6.6,3.2,7.2c2.6,0.6,13,0,14.9-0.3
	c1.9-0.3,2.8-4.3,3-8.6c0.2-4.3,2.6-13.2-1.2-12.1C115.9,15.6,114.8,15.6,109.9,15.6L109.9,15.6z"/>
<path class="st5" d="M101.3,33.8c-0.2,0-0.3,0.4,0,0.5c0,0,0,0,0,0h0h0h0l0,0l0,0h0l0,0l0,0l0,0h0c0.2,0,0.3-0.5,0-0.5h0h0l0,0l0,0
	l0,0l0,0h0l0,0H101.3L101.3,33.8L101.3,33.8L101.3,33.8z M118.6,34.6c0.2,0,0.3-0.4,0-0.5c0,0,0,0,0,0l0,0l0,0l0,0l0,0l0,0l0,0l0,0
	l0,0l0,0l0,0c-0.2,0-0.3,0.4,0,0.5c0,0,0,0,0,0l0,0l0,0l0,0l0,0l0,0l0,0l0,0L118.6,34.6L118.6,34.6L118.6,34.6L118.6,34.6z
	 M117.1,34.6c0.1,0,0.2-0.1,0.2-0.2c0-0.1-0.1-0.3-0.2-0.3l0,0l-0.1,0l-0.1,0l-0.1,0l-0.1,0l-0.1,0l-0.1,0l0,0c-0.2,0-0.3,0.4,0,0.5
	c0,0,0,0,0,0l0,0l0.1,0l0.1,0l0.1,0l0.1,0L117.1,34.6L117.1,34.6L117.1,34.6L117.1,34.6z M115.5,34.5c0.2,0,0.3-0.4,0-0.5l0,0l0,0
	l-0.1,0l-0.1,0l-0.1,0l-0.1,0l-0.1,0c-0.2,0-0.3,0.4,0,0.5l0,0l0.1,0l0.1,0l0.1,0l0.1,0L115.5,34.5L115.5,34.5L115.5,34.5z
	 M114,34.5c0.2,0,0.3-0.4,0-0.5c0,0,0,0,0,0h0l-0.1,0l-0.1,0l-0.1,0l-0.1,0l-0.1,0c-0.2,0-0.3,0.4,0,0.5c0,0,0,0,0,0l0.1,0l0.1,0
	l0.1,0L114,34.5L114,34.5L114,34.5L114,34.5z M112.5,34.5c0.2,0,0.3-0.4,0-0.5l0,0l0,0l-0.1,0l-0.1,0l-0.1,0l-0.1,0l0,0
	c-0.2,0-0.3,0.4,0,0.5c0,0,0,0,0,0l0,0l0.1,0l0.1,0L112.5,34.5L112.5,34.5L112.5,34.5L112.5,34.5z M110.9,34.5c0.2,0,0.3-0.4,0-0.5
	l0,0l0,0l-0.1,0l-0.1,0l-0.1,0l-0.1,0l0,0c-0.2,0-0.3,0.4,0,0.5l0,0l0,0l0.1,0l0.1,0L110.9,34.5L110.9,34.5L110.9,34.5L110.9,34.5z
	 M109.4,34.4c0.2,0,0.3-0.4,0-0.5l0,0l0,0l-0.1,0l-0.1,0l-0.1,0l-0.1,0l0,0c-0.2,0-0.3,0.4,0,0.5c0,0,0,0,0,0l0,0l0.1,0l0.1,0l0.1,0
	L109.4,34.4L109.4,34.4L109.4,34.4z M107.8,34.4c0.2,0,0.3-0.4,0-0.5c0,0,0,0,0,0l0,0l-0.1,0l-0.1,0l-0.1,0l-0.1,0l0,0
	c-0.2,0-0.3,0.4,0,0.5c0,0,0,0,0,0l0,0l0.1,0l0.1,0l0.1,0L107.8,34.4L107.8,34.4L107.8,34.4z M106.3,34.4c0.2,0,0.3-0.2,0.1-0.4
	c0,0-0.1-0.1-0.1-0.1l-0.1,0l-0.1,0l-0.1,0l-0.1,0l-0.1,0c-0.2,0-0.3,0.4,0,0.5c0,0,0,0,0,0l0.1,0l0.1,0l0.1,0L106.3,34.4
	L106.3,34.4L106.3,34.4z M104.7,34.3c0.2,0,0.3-0.4,0-0.5l0,0l0,0l-0.1,0l-0.1,0l-0.1,0l-0.1,0l-0.1,0l0,0c-0.1,0-0.2,0.1-0.2,0.2
	c0,0.1,0.1,0.3,0.2,0.3l0,0l0.1,0l0.1,0l0.1,0L104.7,34.3L104.7,34.3L104.7,34.3L104.7,34.3z M103.2,34.3c0.2,0,0.3-0.4,0-0.5
	c0,0,0,0,0,0l-0.1,0l-0.1,0l-0.1,0l-0.1,0l-0.1,0l-0.1,0l0,0c-0.2,0-0.3,0.4,0,0.5c0,0,0,0,0,0l0,0l0.1,0l0.1,0l0.1,0l0.1,0
	L103.2,34.3L103.2,34.3L103.2,34.3z"/>
<path class="st5" d="M1,188.1c0-0.1-0.3,0-0.3,0.2l0,0l0,0l0,0l0,0l0,0l0,0l0,0l0,0l0,0l0,0c0,0,0.1,0.1,0.1,0
	c0.1,0,0.2-0.2,0.2-0.3l0,0l0,0l0,0l0,0l0,0L1,188.1L1,188.1L1,188.1L1,188.1L1,188.1z M20.3,195.7c0.1,0,0.2-0.1,0.2-0.1
	c0.1-0.1,0-0.2-0.1-0.2l-0.1,0l-0.1,0l-0.1,0l0,0c-0.2,0-0.3,0.3-0.1,0.3c0,0,0,0,0,0l0,0l0.1,0L20.3,195.7L20.3,195.7L20.3,195.7z
	 M19,195.8c0.2,0,0.3-0.3,0.2-0.3c0,0,0,0,0,0l0,0l-0.1,0l-0.1,0l-0.1,0l0,0c-0.2,0-0.3,0.3-0.1,0.3l0,0l0,0l0.1,0l0.1,0L19,195.8
	L19,195.8L19,195.8z M17.8,195.9c0.2,0,0.3-0.3,0.2-0.3c0,0,0,0,0,0l-0.1,0l-0.1,0l-0.1,0l0,0c-0.1,0-0.1,0-0.2,0.1
	c-0.1,0.1-0.1,0.2,0,0.2l0,0l0.1,0L17.8,195.9L17.8,195.9L17.8,195.9z M16.6,195.8c0.2,0,0.3-0.3,0.2-0.3l0,0l-0.1,0l-0.1,0l-0.1,0
	c-0.2,0-0.4,0.3-0.2,0.3l0.1,0l0.1,0L16.6,195.8L16.6,195.8L16.6,195.8z M15.5,195.7c0.2,0,0.3-0.2,0.2-0.3c0,0,0,0,0,0l0,0l-0.1,0
	l-0.1,0l-0.1,0c-0.2,0-0.4,0.3-0.2,0.3l0,0l0.1,0l0.1,0L15.5,195.7L15.5,195.7L15.5,195.7z M14.4,195.5c0.2,0,0.4-0.3,0.2-0.3l0,0
	l-0.1,0l-0.1,0l0,0c0,0-0.1,0-0.1,0c-0.2,0.1-0.2,0.3-0.1,0.3l0,0l0.1,0L14.4,195.5L14.4,195.5L14.4,195.5z M13.3,195.3
	c0.2,0,0.4-0.2,0.2-0.3c0,0,0,0,0,0l-0.1,0l-0.1,0l-0.1,0c-0.2,0-0.4,0.2-0.2,0.3c0,0,0,0,0,0l0.1,0L13.3,195.3L13.3,195.3
	L13.3,195.3z M12.2,195c0.2,0,0.4-0.2,0.2-0.3l0,0l0,0l-0.1,0l-0.1,0l0,0c-0.1,0-0.4,0.2-0.2,0.3c0,0,0,0,0,0l0,0l0.1,0L12.2,195
	L12.2,195L12.2,195z M11.2,194.7c0.2,0.1,0.4-0.2,0.2-0.3l-0.1,0l-0.1,0l-0.1,0c-0.2-0.1-0.4,0.2-0.2,0.3l0.1,0L11.2,194.7
	L11.2,194.7L11.2,194.7z M10.2,194.3c0.2,0.1,0.4-0.2,0.2-0.3l0,0l-0.1,0l-0.1,0l-0.1,0c-0.1-0.1-0.4,0.2-0.2,0.3c0,0,0,0,0,0l0.1,0
	L10.2,194.3L10.2,194.3L10.2,194.3z M9.2,194c0.1,0.1,0.4-0.2,0.3-0.3c0,0,0,0,0,0l0,0l-0.1,0l-0.1,0l0,0c-0.1-0.1-0.4,0.2-0.2,0.3
	c0,0,0,0,0,0l0,0l0.1,0L9.2,194L9.2,194L9.2,194z M8.2,193.6c0.1,0,0.2,0,0.2-0.1c0.1-0.1,0.1-0.2,0-0.2l-0.1,0l-0.1,0l-0.1,0
	c-0.1-0.1-0.4,0.2-0.3,0.3c0,0,0,0,0,0l0.1,0L8.2,193.6L8.2,193.6L8.2,193.6z M7.3,193.1c0.1,0.1,0.4-0.2,0.2-0.3l0,0l0,0l-0.1,0
	l-0.1,0l0,0c-0.2-0.1-0.4,0.2-0.2,0.3l0,0l0,0l0.1,0L7.3,193.1L7.3,193.1L7.3,193.1z M6.4,192.7c0.1,0.1,0.4-0.2,0.3-0.3
	c0,0,0,0,0,0l-0.1,0l-0.1,0l-0.1,0l0,0c-0.1-0.1-0.4,0.2-0.3,0.3c0,0,0,0,0,0l0,0l0.1,0L6.4,192.7L6.4,192.7L6.4,192.7z M5.5,192.2
	C5.5,192.2,5.5,192.2,5.5,192.2c0.2,0,0.4-0.2,0.2-0.3l0,0l-0.1,0l-0.1,0l0,0c-0.1-0.1-0.4,0.2-0.3,0.3c0,0,0,0,0,0l0,0l0.1,0
	L5.5,192.2L5.5,192.2L5.5,192.2z M4.6,191.7c0.1,0.1,0.4-0.2,0.3-0.3l0,0l-0.1,0l-0.1,0l-0.1,0l0,0c-0.1-0.1-0.4,0.2-0.3,0.3l0,0
	l0,0l0.1,0L4.6,191.7L4.6,191.7L4.6,191.7z M3.8,191.2c0.1,0.1,0.4-0.1,0.3-0.3c0,0,0,0,0,0l0,0l-0.1,0l-0.1,0l0,0
	c-0.1-0.1-0.4,0.1-0.3,0.3c0,0,0,0,0,0l0,0l0.1,0L3.8,191.2L3.8,191.2L3.8,191.2z M2.9,190.6c0.1,0.1,0.4-0.2,0.3-0.3l0,0l0,0
	l-0.1,0l-0.1,0l-0.1,0l0,0c-0.1-0.1-0.4,0.2-0.3,0.3l0,0l0,0l0.1,0L2.9,190.6L2.9,190.6L2.9,190.6L2.9,190.6z M2.2,190
	c0.1,0.1,0.4-0.1,0.3-0.2c0,0,0,0,0,0l0,0l0,0l0,0l0,0l0,0c0,0-0.1,0-0.2,0c-0.1,0.1-0.1,0.2-0.1,0.2l0,0l0,0L2.2,190L2.2,190
	L2.2,190L2.2,190z M1.4,189.3c0.1,0.1,0.4-0.1,0.3-0.2c0,0,0,0,0,0l0,0l0,0l0,0l0,0l0,0l0,0c-0.1-0.1-0.4,0.1-0.3,0.3l0,0l0,0
	L1.4,189.3L1.4,189.3L1.4,189.3L1.4,189.3L1.4,189.3z"/>
<path class="st5" d="M219.5,183.7c0.1-0.1-0.2-0.3-0.3-0.2l0,0l0,0l0,0l0,0l0,0l0,0c-0.1,0.1,0.1,0.3,0.2,0.2c0,0,0,0,0,0l0,0l0,0
	l0,0L219.5,183.7L219.5,183.7L219.5,183.7L219.5,183.7z M199.7,196.3c-0.1,0-0.1,0-0.1,0.1c0,0.1,0,0.2,0.2,0.2l0.1,0l0.1,0l0.1,0
	l0.1,0c0.1,0,0.2-0.1,0.1-0.2c0-0.1-0.1-0.1-0.2-0.1l-0.1,0l-0.1,0L199.7,196.3L199.7,196.3L199.7,196.3z M200.9,196.4
	c-0.2,0-0.1,0.3,0.1,0.3l0,0l0.1,0l0.1,0l0.1,0c0.2,0,0.1-0.3-0.1-0.3c0,0,0,0,0,0l-0.1,0l-0.1,0L200.9,196.4L200.9,196.4
	L200.9,196.4z M202.1,196.3c-0.2,0-0.1,0.3,0.1,0.3l0,0l0.1,0l0.1,0l0.1,0l0,0c0.2,0,0.1-0.3-0.1-0.3l0,0l0,0l-0.1,0L202.1,196.3
	L202.1,196.3L202.1,196.3z M203.2,196.1c-0.1,0-0.1,0.1-0.1,0.1c0,0.1,0.1,0.2,0.2,0.1l0.1,0l0.1,0l0.1,0l0,0c0.2,0,0.1-0.3-0.1-0.3
	l0,0l0,0l-0.1,0L203.2,196.1L203.2,196.1L203.2,196.1z M204.3,195.8c-0.2,0.1-0.1,0.3,0.1,0.3c0,0,0,0,0,0l0,0l0.1,0l0.1,0l0,0
	c0.2-0.1,0-0.3-0.2-0.3l0,0l0,0l-0.1,0L204.3,195.8L204.3,195.8L204.3,195.8z M205.3,195.4c-0.2,0.1,0,0.3,0.2,0.3l0,0l0,0l0.1,0
	l0.1,0l0,0c0.2-0.1,0-0.3-0.2-0.3l0,0l0,0l-0.1,0L205.3,195.4L205.3,195.4L205.3,195.4z M206.4,194.9c-0.1,0.1,0,0.3,0.2,0.3l0,0
	l0.1,0l0.1,0l0.1,0c0.1-0.1,0-0.3-0.2-0.3l0,0l-0.1,0L206.4,194.9L206.4,194.9L206.4,194.9z M207.3,194.4c-0.2,0.1,0,0.3,0.2,0.3
	l0,0l0,0l0.1-0.1l0.1-0.1c0.1-0.1,0-0.3-0.2-0.3c0,0,0,0,0,0l-0.1,0.1L207.3,194.4L207.3,194.4L207.3,194.4z M208.3,193.9
	c-0.1,0.1,0,0.3,0.2,0.3c0,0,0,0,0.1,0l0,0l0.1-0.1l0.1-0.1c0.1-0.1,0-0.3-0.2-0.3c0,0,0,0,0,0l-0.1,0.1L208.3,193.9L208.3,193.9
	L208.3,193.9z M209.2,193.3c0,0-0.1,0.1,0,0.1c0,0.1,0.2,0.2,0.3,0.1l0.1,0l0.1-0.1l0.1-0.1c0.1-0.1,0-0.3-0.2-0.3l0,0l-0.1,0.1
	L209.2,193.3L209.2,193.3L209.2,193.3z M210.1,192.7c-0.1,0.1,0.1,0.3,0.2,0.2l0,0l0.1-0.1l0.1-0.1l0.1,0c0.1-0.1-0.1-0.3-0.2-0.3
	l0,0l-0.1,0L210.1,192.7L210.1,192.7L210.1,192.7z M210.9,192c-0.1,0.1,0.1,0.3,0.2,0.2l0,0l0.1-0.1l0.1-0.1l0,0
	c0.1-0.1-0.1-0.3-0.2-0.2l0,0l0,0L211,192L210.9,192L210.9,192L210.9,192z M211.7,191.4c-0.1,0.1,0.1,0.3,0.2,0.2l0,0l0,0l0.1-0.1
	l0.1-0.1c0.1-0.1,0-0.3-0.2-0.3c0,0,0,0,0,0l-0.1,0.1L211.7,191.4L211.7,191.4L211.7,191.4z M212.6,190.7c-0.1,0,0,0.1,0,0.2
	c0.1,0.1,0.2,0.1,0.2,0l0.1-0.1l0.1-0.1l0.1-0.1c0.1-0.1,0-0.3-0.2-0.3c0,0,0,0,0,0l-0.1,0.1L212.6,190.7L212.6,190.7L212.6,190.7z
	 M213.4,190c-0.1,0.1,0.1,0.3,0.2,0.2c0,0,0,0,0,0l0.1-0.1l0.1-0.1l0,0c0.1-0.1-0.1-0.3-0.2-0.2c0,0,0,0,0,0l0,0L213.4,190
	L213.4,190L213.4,190z M214.1,189.2c-0.1,0.1,0.1,0.3,0.2,0.2l0,0l0.1-0.1l0.1-0.1l0,0c0.1-0.1-0.1-0.3-0.2-0.3c0,0,0,0,0,0l0,0
	L214.1,189.2L214.1,189.2L214.1,189.2z M214.9,188.5c-0.1,0.1,0.1,0.3,0.2,0.2l0,0l0,0l0.1-0.1l0.1-0.1c0.1-0.1-0.1-0.3-0.2-0.2l0,0
	l-0.1,0.1L214.9,188.5L214.9,188.5L214.9,188.5z M215.6,187.7c-0.1,0.1,0.1,0.3,0.2,0.2l0,0l0,0l0.1-0.1l0.1-0.1l0,0
	c0.1-0.1-0.1-0.3-0.3-0.2l0,0L215.6,187.7L215.6,187.7L215.6,187.7L215.6,187.7z M216.4,187c-0.1,0.1,0,0.2,0.2,0.3c0,0,0.1,0,0.1,0
	l0.1-0.1l0.1-0.1l0.1-0.1c0.1-0.1-0.1-0.3-0.2-0.2l0,0l-0.1,0.1L216.4,187L216.4,187L216.4,187z M217.1,186.2
	c-0.1,0.1,0.1,0.3,0.3,0.2l0,0l0,0l0.1-0.1l0.1-0.1l0.1-0.1c0.1-0.1-0.1-0.3-0.2-0.2l0,0l-0.1,0.1L217.1,186.2L217.1,186.2
	L217.1,186.2L217.1,186.2z M217.7,185.4c-0.1,0.1,0.1,0.3,0.2,0.2c0,0,0,0,0,0l0,0l0.1-0.1l0-0.1l0-0.1c0,0,0,0,0,0
	c0-0.1-0.2-0.3-0.3-0.2l0,0.1L217.7,185.4L217.7,185.4L217.7,185.4L217.7,185.4z M218.4,184.5c-0.1,0.1,0.2,0.3,0.3,0.2l0,0l0,0
	l0-0.1l0-0.1l0-0.1l0,0c0,0,0-0.1,0-0.1c0-0.1-0.2-0.2-0.3-0.1l0,0l0,0.1L218.4,184.5L218.4,184.5L218.4,184.5L218.4,184.5z"/>
</svg>
