<?xml version="1.0" encoding="utf-8"?>
<!-- Generator: Adobe Illustrator 19.1.0, SVG Export Plug-In . SVG Version: 6.00 Build 0)  -->
<svg version="1.1" id="图层_1" xmlns="http://www.w3.org/2000/svg" xmlns:xlink="http://www.w3.org/1999/xlink" x="0px" y="0px"
	 viewBox="0 0 231.8 307.1" style="enable-background:new 0 0 231.8 307.1;" xml:space="preserve">
<style type="text/css">
	.st0{fill:#925F3B;stroke:#845533;stroke-width:0.9087;stroke-linejoin:bevel;stroke-miterlimit:10;}
	.st1{fill:#A96F43;stroke:#845533;stroke-width:0.9087;stroke-miterlimit:10;}
	.st2{fill:#A96F43;stroke:#845533;stroke-width:0.9087;stroke-linejoin:bevel;stroke-miterlimit:10;}
	.st3{fill:none;stroke:#845533;stroke-width:0.9087;stroke-miterlimit:10;}
	.st4{fill:#353640;stroke:#10121B;stroke-width:0.9087;stroke-miterlimit:10;}
	.st5{fill:#7F8E93;stroke:#3A3B3A;stroke-width:0.9087;stroke-miterlimit:10;}
</style>
<g>
	<path class="st0" d="M64.9,7.5c0,0,8.3-5.2,19-4.1c10.7,1.1,15-2.5,20.3-2.8c5.3-0.3,27.7-0.3,31,1.7c3.3,1.9,19.3,0.6,23,3
		c0,0-7.3,23.7-27.3,27.8S83.9,28.9,64.9,7.5z"/>
	<path class="st1" d="M27,40.4c0,0-7.5,5.4-10,38.4S6.5,198.1,5.5,208.4s-3.5,45-5,47.5c-1.5,2.5,20.5,12.8,41,3.7
		c0,0,6-66.1,8-80.1C49.5,179.5,68,93.2,27,40.4z"/>
	<path class="st1" d="M210,43.2c0,0,9.5,28.1,9.5,44.2s4,54.1,5,59.5c1,5.4,8.5,92.5,6.5,108.2c0,0-7,10.3-33,2.9c0,0-1-54.5-8.5-78
		C189.5,179.9,171,72.6,210,43.2z"/>
	<path class="st1" d="M27,40.4c0,0,6-12,42.5-17.8c0,0,19-2.5,33.5,5h35.5c0,0,23-6.6,32-5.8c0,0,32,7,39.5,21.5
		c0,0-0.5,16.5-12.5,35.9s-7.5,80.9-6.5,93.3c1,12.4,4.5,93.7,3,105.3c0,0-8.5,33-68.5,28.5S48,305.8,45,276.1s4-109.1,4.5-120.3
		S48,105.2,45,96.1S26.5,62.7,27,40.4z"/>
	<path class="st1" d="M135.8,96.7c0,0,21-5.8,27.2,2.9s0,20.6-27,17.5"/>
	<path class="st1" d="M138.5,27.6c0,0,1.7,3-2.3,12.7s-1.3,21.2-1.3,24.5c0,3.3,1.3,6.1,14,4.7c12.7-1.4,20-1.7,29.3,0.8
		c9.3,2.5,15.7,0.3,19.7,0.6s4.7-4.7,4-8.3c-0.7-3.6,0.7-21.7,2.7-25.6c0,0-8.3-9.9-35.3-15.7C169.2,21.2,139.2,25.1,138.5,27.6z"/>
	<path class="st1" d="M103,27.6c0,0-1.2,14,0.5,19s1.3,18.4-2,20.6c-3.3,2.2-13.7,0.6-21.3,0.3c-7.7-0.3-22.7,0-29.3,0
		c-6.7,0-15.3,3.6-16-2.8c-0.7-6.3-3-20.9-2.7-30c0,0,14.7-9.9,37.3-12.1C69.5,22.6,90.2,21.2,103,27.6z"/>
	<path class="st1" d="M103,27.6c0,0-26.2-17.6-38.2-20.1c0,0-11.7,10.7-11.7,18.2c0,0,5-2.5,12-1.1c7,1.4,19.7,2.8,27.7,1.9
		S103,27.6,103,27.6z"/>
	<path class="st2" d="M138.5,27.6c0,0,6.7-5.2,7.7-8.5s5.3-11.6,12-13.8c0,0,7,3.6,8.3,8c1.3,4.4,6,4.7,7.7,9.4c0,0-6-1.4-12,0.6
		C156.2,25.1,145.5,24,138.5,27.6z"/>
	<path class="st2" d="M194.2,196.3c0,0,1-8-1.3-8s-1.3,5-8,6.6c-6.7,1.7-13,2.2-12.7,4.7c0.3,2.5,0.7,8.5,0.7,15.4
		c0,6.9-1.3,34.4-0.7,39.1c0.7,4.7,2.3,15.7,8.3,12.1c6-3.6,11.7-13.8,14-15.7C194.5,250.5,195.9,205.1,194.2,196.3z"/>
	<path class="st2" d="M194.2,196.3c0,0-7,7.4-21.3,8.3"/>
	<path class="st1" d="M67.9,203.4c0,0,1.3-4.1-6-5.2c-7.3-1.1-14.7,0-16-7.7c0,0-4.3,0.8-1.7,9.4c2.7,8.5,1,47.6-0.3,52.3
		c-1.3,4.7-2,8.5,3.7,12.1c5.7,3.6,17,5.5,18.3-0.6C67.2,257.7,70.2,212.2,67.9,203.4z"/>
	<path class="st1" d="M44.2,199.9c0,0,10,6.1,23.7,3.6"/>
	<path class="st3" d="M137.5,69.3c0,0,0.5,14.9-1,22.7s0,48.3,0,54.9c0,6.6-0.5,21.9,0.5,34.3c1,12.4-0.5,33-1,38.4
		c-0.5,5.4-1,49.1-0.5,54.1s2.5,27.7,1.5,33"/>
	<path class="st3" d="M101.5,67.2c0,0-2,18.2-1.5,31.8s0.5,21.5-0.5,28.9s-1,23.5,0,32.2c1,8.7,0.5,26.4,0.5,30.1s0.5,24.4,1,33.9
		s0,26-0.5,28.5s-1,44.2,1.5,52.4"/>
	<path class="st3" d="M136.3,160.3c0,0,23.8-3.5,27.2,3.3c3.5,6.8,3,20.8-26.5,16.7"/>
	<path class="st3" d="M136.3,222.2c0,0,14.5-1,18.5,0.4s8.5,3.5,8.2,9.5s-9.5,10.9-27.5,7.6"/>
	<path class="st3" d="M137.3,296.3c0,0,47.2,3.7,56.8-22.5"/>
	<path class="st3" d="M100.3,295.9c0,0-42.2,2.5-54.2-13.2"/>
	<path class="st3" d="M101.3,240c0,0-24.5,4.7-25.5-7.2c-1-12,20.8-10.9,25-10.5"/>
	<path class="st3" d="M100,179.3c0,0-23.2,2.9-24.5-9.5c-1.2-12.4,24-9.7,24-9.7"/>
	<path class="st3" d="M99.8,115.9c0,0-22.8,2.5-24.2-8.5S100,96.7,100,96.7"/>
	<path class="st3" d="M46,99.4c0,0-10.5,22.7-12,42.9s-2,50.4-1,61.5c1,11.1-1.5,55.7-3,59"/>
	<path class="st3" d="M1.5,247.2c0,0,24,9.9,41,3.7"/>
	<path class="st3" d="M103.5,64.7c0,0-2,18.4-1.5,32.1s0.5,21.7-0.5,29.2c-1,7.5-1,23.8,0,32.5s0.5,26.7,0.5,30.5
		c0,3.8,0.5,24.6,1,34.2s0,26.3-0.5,28.8c-0.5,2.5-1,44.6,1.5,53"/>
	<path class="st4" d="M83.6,50.5c6.1-0.9,11.7-0.4,17.8-0.1c6.8,0.4,13.5-0.7,19.8-2.7c1.8-0.6,1-2.9-0.8-2.4
		c-7.1,2.2-14.3,3.2-21.9,2.3c-5.2-0.6-10.7-0.3-15.8,0.5C80.9,48.4,81.7,50.8,83.6,50.5L83.6,50.5z"/>
	<path class="st4" d="M156.8,48c-5-1.2-10.1-2.5-15.3-3c-3.1-0.2-6.1-0.2-9.2,0c-2.5,0.2-7,0.5-8.9-1.1c-0.2,0.7-0.4,1.4-0.7,2.1
		c0.1,0,0.2,0,0.2-0.1c-0.6-0.3-1.2-0.6-1.8-0.9c0,0,0,0.1,0,0.1c0.5,1.5,3.4,0.9,2.9-0.7c0,0,0-0.1,0-0.1c-0.2-0.6-1.1-1.1-1.8-0.9
		c-0.1,0-0.2,0-0.2,0.1c-1.1,0.3-1.5,1.4-0.7,2.1c3,2.5,8.9,2,12.6,1.7c7.5-0.7,15,1.2,22.1,3C157.9,50.8,158.7,48.4,156.8,48
		L156.8,48z"/>
	<path class="st4" d="M82.5,105c11.2,2.2,22.6,3.3,34.1,3.5c1.9,0,1.9-2.5,0-2.5c-11.2-0.2-22.3-1.3-33.3-3.4
		C81.4,102.2,80.6,104.6,82.5,105L82.5,105z"/>
	<path class="st4" d="M82.9,169.8c12-0.9,24.5,0.3,35.5,4.5c1.7,0.7,3.3-1.5,1.5-2.1c-11.6-4.4-24.5-5.8-37.1-4.8
		C81,167.5,80.9,170,82.9,169.8L82.9,169.8z"/>
	<path class="st4" d="M83.1,232.4c11.2,0.1,22.6,0.2,32.7,4.7c1.7,0.8,3.2-1.4,1.5-2.1c-10.6-4.7-22.5-4.9-34.2-5
		C81.2,229.9,81.2,232.4,83.1,232.4L83.1,232.4z"/>
	<path class="st4" d="M120.1,235.4c12-3.2,24.5-4.1,37-2.5c1.9,0.2,2.8-2.1,0.8-2.4c-13.1-1.7-26.1-0.9-38.6,2.5
		C117.4,233.6,118.3,236,120.1,235.4L120.1,235.4z"/>
	<path class="st4" d="M120.9,172.8c12.1-1.9,24.3-2.8,36.6-2.8c1.9,0,1.9-2.5,0-2.5c-12.6,0-25.1,0.9-37.4,2.9
		C118.2,170.7,119,173.1,120.9,172.8L120.9,172.8z"/>
	<path class="st4" d="M121,109.5c12.4-2.8,24.8-3.1,37.5-2.9c1.9,0,1.9-2.5,0-2.5c-13-0.1-25.7,0.2-38.3,3
		C118.4,107.5,119.2,109.9,121,109.5L121,109.5z"/>
	<path class="st5" d="M127,50.5l-12.3-6.3c-1.3-0.7-1.7-2.1-0.9-3.1l0,0c0.8-1.1,2.5-1.4,3.8-0.7l12.3,6.3c1.3,0.7,1.7,2.1,0.9,3.1
		l0,0C130,50.8,128.3,51.2,127,50.5z"/>
	<path class="st5" d="M121.2,113l-9.5-9.1c-1-0.9-0.9-2.4,0.3-3.2v0c1.1-0.8,2.9-0.7,3.9,0.2l9.5,9.1c1,0.9,0.9,2.4-0.3,3.2l0,0
		C123.9,114.1,122.2,114,121.2,113z"/>
	<path class="st5" d="M119.3,177.4l-5.2-11.2c-0.5-1.2,0.2-2.5,1.6-2.9l0,0c1.4-0.4,3,0.1,3.6,1.3l5.2,11.2c0.5,1.2-0.2,2.5-1.6,2.9
		l0,0C121.5,179.2,119.9,178.6,119.3,177.4z"/>
	<path class="st5" d="M121.2,240.7l-11.3-7.5c-1.2-0.8-1.4-2.2-0.4-3.2l0,0c0.9-1,2.7-1.1,3.9-0.3l11.3,7.5c1.2,0.8,1.4,2.2,0.4,3.2
		l0,0C124.1,241.4,122.4,241.5,121.2,240.7z"/>
</g>
</svg>
