<?xml version="1.0" encoding="utf-8"?>
<!-- Generator: Adobe Illustrator 19.1.0, SVG Export Plug-In . SVG Version: 6.00 Build 0)  -->
<svg version="1.1" id="图层_1" xmlns="http://www.w3.org/2000/svg" xmlns:xlink="http://www.w3.org/1999/xlink" x="0px" y="0px"
	 viewBox="0 0 193.3 191.3" style="enable-background:new 0 0 193.3 191.3;" xml:space="preserve">
<style type="text/css">
	.st0{fill-rule:evenodd;clip-rule:evenodd;fill:#BDBDBA;}
	.st1{fill-rule:evenodd;clip-rule:evenodd;fill:#686F7F;}
	.st2{fill-rule:evenodd;clip-rule:evenodd;fill:#999996;}
	.st3{fill-rule:evenodd;clip-rule:evenodd;fill:#F8F0DC;}
	.st4{fill-rule:evenodd;clip-rule:evenodd;fill:#CBCCC7;}
	.st5{fill-rule:evenodd;clip-rule:evenodd;fill:#3D4D4D;}
	.st6{opacity:0.77;fill-rule:evenodd;clip-rule:evenodd;fill:#B3C5C5;}
</style>
<path class="st0" d="M99.5,6.6c-5.8,0-9.2,0-13.1,2.9s-6.3,5-12.8,7.9C67,20.2,51.3,28.6,48.2,29.9C45,31.2,38.5,42,34,51.4
	c-4.5,9.4-15.2,32.2-19.6,43.7C10,106.6,5,120.5,2.9,135.4S0,165,0,168.7c0,3.7,5.5,2.1,14.7,2.4c9.2,0.3,16.2,3.7,15.7-0.8
	c-0.5-4.5-1.6-16.5,2.4-26.7c3.9-10.2,7.6-27,10.2-34.6c2.6-7.6,3.9-10.2,4.7-13.4c0.8-3.1,0.5,4.7-0.3,11
	c-0.8,6.3-2.6,21.5-5.2,27.5c-2.6,6-3.1,8.6-4,10.5c-0.9,1.9,1.2,2.4,1.2,2.4s-1.6,11.6-1.9,18.2c-0.4,6.6-1.2,15.2-1.4,16.6
	c-0.2,1.3,7.9,4.2,21.5,6.5c13.6,2.3,18.4,2.6,21.7-0.2c3.3-2.7,4.3-3.6,4.3-3.6s6.3-0.3,13.4-0.3c7.1,0,13.6,0.4,13.6,0.4
	s2,5.5,7.6,6.3c5.5,0.9,17.1-0.3,24-1.6c7-1.3,14.2-0.6,13.9-5.1c-0.3-4.5-2.1-18.4-2.8-24.1c-0.7-5.7-0.7-10.5-0.7-10.5
	s2.7,0.7,3.1-0.5c0.4-1.2-0.6-2.4-1.8-5.7c-1.1-3.3-3.3-7.5-4.8-17.3c-1.6-9.8-3-18.7-3.3-24.5c-0.3-5.8,0.3-9.5,0.4-11.1
	c0.2-1.6,1.4-0.2,4.1,11.9c2.6,12.1,8.2,40.5,9.9,51.9c1.7,11.4,2.7,15.4,2.7,17.9c0,2.5,8.9-0.2,16.4-0.2s14.2,1.7,14.2-0.7
	c0-2.5,0-12.7,0-20.4c0-7.7-2.2-21.1-6-34.8c-3.7-13.7-9.9-33.5-16.4-47.2c-6.5-13.7-15.9-34.5-17.6-36.8c-1.7-2.2-4-4.7-14.4-8.9
	c-10.4-4.2-15.9-5.7-21.6-10.4C111.6,8,108.2,6.6,99.5,6.6L99.5,6.6z"/>
<path class="st1" d="M83.5,184.5c0,0,6.3-0.3,13.4-0.3c7.1,0,13.6,0.4,13.6,0.4c-5.4-8.5-11.1-24.1-14.1-37.8
	C95.2,163,88.6,177,83.5,184.5L83.5,184.5z"/>
<path class="st1" d="M99.5,6.6c-4.1,0-7,0-9.8,1.1c-4,5.1-3.3,14.5,0.4,38.3c3.7,23.8,7.5,38.3,7,45.6c3-9.8,5.7-22.2,10.5-45.2
	c4.8-23.1,6.1-36.3,1.4-38.6C106.6,6.9,103.6,6.6,99.5,6.6L99.5,6.6z"/>
<path class="st2" d="M76.7,15.9c-1.2,3.1-4,10.4-4.5,12.4c-0.5,2,2.3,2.5,3.8,3.6c1.5,1.1-2.5,2.8-4.3,4c-1.7,1.2-1.3,3.1,0.3,7
	c1.6,3.9,11.4,26.8,15,33.5c3.6,6.7,7.2,15.3,8.1,18.1c0.8,2.8-0.3,7.2-0.4,10.2c-0.1,3-0.4,15.7,0.3,22.2
	c0.7,6.6,1.6,19.8,1.6,19.8s-1.6-11.9-2.7-21.1c-1.1-9.2-1.5-19-2-25.1c-0.4-6.1-6.6-15.1-8.5-24c-2-9-5.3-19.9-8.5-26.3
	c-3.2-6.3-6.9-12.8-4.2-15.1c2.7-2.3,5.4-2.3,2.2-4.2C69.6,29.2,72.6,24,76.7,15.9L76.7,15.9z"/>
<path class="st3" d="M95.4,139.5L95.4,139.5c-0.1-0.8-0.2-1.7-0.3-2.6c-1.2,0-2.1,1-2.1,2.1c0,1.2,0.9,2.1,2.1,2.1
	c0.2,0,0.4,0,0.5-0.1l-0.1-1.1c-0.1,0.1-0.2,0.1-0.2,0c-0.1,0-0.2-0.2-0.2-0.3C95.2,139.5,95.3,139.5,95.4,139.5L95.4,139.5z
	 M94.6,139.2c0.1,0,0.2,0.2,0.2,0.3c0,0.1-0.2,0.2-0.3,0.2c-0.1,0-0.2-0.2-0.2-0.3C94.3,139.2,94.4,139.1,94.6,139.2L94.6,139.2z
	 M94.9,138.3c0.1,0,0.2,0.2,0.2,0.3c0,0.1-0.2,0.2-0.3,0.2c-0.1,0-0.2-0.2-0.2-0.3C94.6,138.3,94.8,138.3,94.9,138.3L94.9,138.3z"/>
<path class="st2" d="M122.3,16.2c0,0,2.5,9.6,3.1,11.1c0.6,1.5-1.6,4.6-2.8,5.5c-1.1,0.9-0.7,1.5,1.4,3c2.1,1.5,4.7,2.8,3.4,4.8
	c-1.3,1.9-9.7,17.5-12.2,24c-2.6,6.4-5.4,13.7-9.5,19.1c-4.2,5.5-9.9,14.1-10.5,17.1c-0.6,3,0-0.2,0.9-1.1c0.9-0.9,6-10.1,8.3-12.4
	c2.4-2.3,8.1-4.5,11-13.5c2.9-9,4.6-18.8,7.5-24c3-5.2,4.2-7.7,4.9-8.8c0.7-1.1,0.4-3.4-2.6-5.2c-3.1-1.7-3-2.2-1.9-2.9
	c1.1-0.8,4.1-2,2.9-5.2C125.2,24.9,124.6,22.4,122.3,16.2L122.3,16.2z"/>
<path class="st2" d="M154,149.9c0.7,0,1.4-0.1,1.6-0.7c0.4-1.2-0.6-2.4-1.8-5.7c-1.1-3.3-3.3-7.5-4.8-17.3c-1.6-9.8-3-18.7-3.3-24.5
	c-0.3-5.8,0.3-9.5,0.4-11.1c0-0.4,0.2-0.6,0.4-0.5c-1.1-5.7-4.9-12-6.4-15.8c-1.5-4-2-8-1.3-14.8c0.8-6.8,1.4-10.4,3.9-16.1
	c2.5-5.7,4.7-10.9,9-12.9c-1.8,0.1-3.9,1.5-5,3.6c-1.1,2-5,6.9-5.6,10.5c-0.6,3.6-2.4,8.8-3.4,11c-1.1,2.2-1.1,9.5-1,12.5
	c0.1,3-1.5,6.4,0.4,6.1c1.9-0.2,3.2,1.9,5.3,6.7c2,4.7,3.2,8.8,3.1,11.8c-0.1,2.9-1.1,7.7-2.6,9.3c-1.5,1.6,1.8,1.1,2.3,2.8
	c0.4,1.7,0.3,3.5-2.2,4.4c-2.5,0.9-11,3.8-5.4,3.2c5.6-0.5,8.1-2,8.7,0.5c0.5,2.5,1.1,3.2-1.4,3.8c-2.5,0.5-17.1,7-10.1,5.6
	c7-1.4,13.3-1.1,12.8,0.7c-0.5,1.8,0.9,3.6,1.3,5.2c0.4,1.6,1.4,4.9,1.4,5.6c0,0.7-0.8,0.4-3.3,0.1c-2.5-0.4-16.3-2.5-18.7-2.8
	c-2.4-0.4-6.1-1.9-6.2-0.7c-0.1,1.2,0,5.1,0.2,7.8c0.1,2.7,0.2,6.4,4.8,7.6c4.6,1.2,21.2,3.3,25.6,3.7
	C153.1,149.7,153.5,149.8,154,149.9L154,149.9z M123.7,131.8c1,0,11,1.7,14.4,2.2c3.3,0.5,11,1.7,11.7,1.8c0.7,0.1,1.2-1-0.3-1.1
	c-1.5-0.1-9.1-1.2-11.8-1.6c-2-0.3-10.7-1.7-14.4-2.6C122.4,130.3,122.8,131.8,123.7,131.8L123.7,131.8z M151.3,137.8
	c-0.3-0.9-1-1.4-4.8-2.1c-3.8-0.7-17.6-2.7-20.4-3c-2.8-0.3-3.7-0.6-3.7,1.1c0.1,1.7-0.1,7.5,1.2,9.2c1.3,1.7,1.4,1.9,6.6,2.9
	c5.2,1,20.2,3,22.5,3.1c2.3,0.1,3.2,0.2,2.3-1.9C154,145.2,152.3,140.3,151.3,137.8L151.3,137.8z"/>
<path class="st3" d="M98.6,109.4c1.2,0,2.1,0.9,2.1,2.1c0,1.2-0.9,2.1-2.1,2.1c-1.2,0-2.1-0.9-2.1-2.1
	C96.5,110.3,97.5,109.4,98.6,109.4L98.6,109.4z M98.4,110.8c0.1,0,0.2,0.2,0.2,0.3c0,0.1-0.2,0.2-0.3,0.2c-0.1,0-0.2-0.2-0.2-0.3
	C98.1,110.8,98.3,110.7,98.4,110.8L98.4,110.8z M99.3,111.1c0.1,0,0.2,0.2,0.2,0.3c0,0.1-0.2,0.2-0.3,0.2c-0.1,0-0.2-0.2-0.2-0.3
	C99,111.1,99.1,111,99.3,111.1L99.3,111.1z M98.1,111.6c0.1,0,0.2,0.2,0.2,0.3c0,0.1-0.2,0.2-0.3,0.2c-0.1,0-0.2-0.2-0.2-0.3
	C97.8,111.7,97.9,111.6,98.1,111.6L98.1,111.6z M98.9,112c0.1,0,0.2,0.2,0.2,0.3c0,0.1-0.2,0.2-0.3,0.2c-0.1,0-0.2-0.2-0.2-0.3
	C98.7,112,98.8,111.9,98.9,112L98.9,112z"/>
<path class="st3" d="M187,164.6c0.1,0,0.2,0.1,0.2,0.2c0,0.1-0.1,0.2-0.2,0.2c-0.1,0-0.2-0.1-0.2-0.2
	C186.8,164.6,186.9,164.5,187,164.6L187,164.6z M187.8,164.7c0.1,0,0.2,0.1,0.2,0.2c0,0.1-0.1,0.2-0.2,0.2c-0.1,0-0.2-0.1-0.2-0.2
	C187.5,164.7,187.6,164.7,187.8,164.7L187.8,164.7z M186.9,165.3c0.1,0,0.2,0.1,0.2,0.2c0,0.1-0.1,0.2-0.2,0.2
	c-0.1,0-0.2-0.1-0.2-0.2C186.7,165.4,186.8,165.3,186.9,165.3L186.9,165.3z M187.6,165.4c0.1,0,0.2,0.1,0.2,0.2
	c0,0.1-0.1,0.2-0.2,0.2c-0.1,0-0.2-0.1-0.2-0.2C187.4,165.5,187.5,165.4,187.6,165.4L187.6,165.4z M187.4,160.9
	c0.1,0,0.2,0.2,0.1,0.3c0,0.1-0.2,0.2-0.3,0.1c-0.1,0-0.2-0.2-0.1-0.3C187.1,160.9,187.3,160.8,187.4,160.9L187.4,160.9z
	 M188.1,161.1c0.1,0,0.2,0.2,0.1,0.3c0,0.1-0.2,0.2-0.3,0.1c-0.1,0-0.2-0.2-0.1-0.3C187.9,161.1,188,161.1,188.1,161.1L188.1,161.1z
	 M187.1,161.6c0.1,0,0.2,0.2,0.1,0.3c0,0.1-0.2,0.2-0.3,0.1c-0.1,0-0.2-0.2-0.1-0.3C186.9,161.6,187,161.5,187.1,161.6L187.1,161.6z
	 M187.8,161.8c0.1,0,0.2,0.2,0.1,0.3c0,0.1-0.2,0.2-0.3,0.1c-0.1,0-0.2-0.2-0.1-0.3C187.6,161.9,187.7,161.8,187.8,161.8
	L187.8,161.8z M187.3,157.4c0.1,0,0.2,0,0.3,0.2c0,0.1,0,0.2-0.2,0.3c-0.1,0-0.2,0-0.3-0.2C187.2,157.6,187.2,157.5,187.3,157.4
	L187.3,157.4z M188.1,157.2c0.1,0,0.2,0,0.3,0.2c0,0.1,0,0.2-0.2,0.3c-0.1,0-0.2,0-0.3-0.2C187.9,157.4,188,157.3,188.1,157.2
	L188.1,157.2z M187.5,158.2c0.1,0,0.2,0,0.3,0.2c0,0.1,0,0.2-0.2,0.3c-0.1,0-0.2,0-0.3-0.2C187.4,158.3,187.4,158.2,187.5,158.2
	L187.5,158.2z M188.3,158c0.1,0,0.2,0,0.3,0.2c0,0.1,0,0.2-0.2,0.3c-0.1,0-0.2,0-0.3-0.2C188.1,158.1,188.2,158,188.3,158L188.3,158
	z M187.9,153.6c0.1,0,0.2,0.2,0.1,0.3c0,0.1-0.2,0.2-0.3,0.1c-0.1,0-0.2-0.2-0.1-0.3C187.7,153.6,187.8,153.5,187.9,153.6
	L187.9,153.6z M188.6,153.8c0.1,0,0.2,0.2,0.1,0.3c0,0.1-0.2,0.2-0.3,0.1c-0.1,0-0.2-0.2-0.1-0.3
	C188.4,153.9,188.5,153.8,188.6,153.8L188.6,153.8z M187.7,154.3c0.1,0,0.2,0.2,0.1,0.3c0,0.1-0.2,0.2-0.3,0.1
	c-0.1,0-0.2-0.2-0.1-0.3C187.4,154.3,187.5,154.2,187.7,154.3L187.7,154.3z M188.4,154.5c0.1,0,0.2,0.2,0.1,0.3
	c0,0.1-0.2,0.2-0.3,0.1c-0.1,0-0.2-0.2-0.1-0.3C188.1,154.6,188.3,154.5,188.4,154.5L188.4,154.5z M188.1,152.4c1,0,1.7,0.8,1.7,1.7
	c0,1-0.8,1.7-1.7,1.7c-1,0-1.7-0.8-1.7-1.7C186.4,153.2,187.2,152.4,188.1,152.4L188.1,152.4z M186.8,156.4c0.8-0.6,1.9-0.4,2.4,0.4
	c0.6,0.8,0.4,1.9-0.4,2.4c-0.8,0.6-1.9,0.4-2.4-0.4C185.9,158,186.1,157,186.8,156.4L186.8,156.4z M187.6,159.7c1,0,1.7,0.8,1.7,1.7
	s-0.8,1.7-1.7,1.7c-1,0-1.7-0.8-1.7-1.7S186.6,159.7,187.6,159.7L187.6,159.7z M187,163.4c0.9-0.2,1.8,0.4,2,1.4
	c0.2,0.9-0.4,1.8-1.4,2c-0.9,0.2-1.8-0.4-2-1.4C185.4,164.5,186,163.6,187,163.4L187,163.4z"/>
<path class="st3" d="M3.8,163.1c0.1,0,0.2,0.1,0.2,0.2c0,0.1-0.1,0.2-0.2,0.2c-0.1,0-0.2-0.1-0.2-0.2C3.6,163.2,3.7,163.1,3.8,163.1
	L3.8,163.1z M4.6,163.1c0.1,0,0.2,0.1,0.2,0.2c0,0.1-0.1,0.2-0.2,0.2c-0.1,0-0.2-0.1-0.2-0.2C4.4,163.2,4.5,163.1,4.6,163.1
	L4.6,163.1z M3.8,163.9c0.1,0,0.2,0.1,0.2,0.2c0,0.1-0.1,0.2-0.2,0.2c-0.1,0-0.2-0.1-0.2-0.2C3.6,163.9,3.7,163.8,3.8,163.9
	L3.8,163.9z M4.6,163.9c0.1,0,0.2,0.1,0.2,0.2c0,0.1-0.1,0.2-0.2,0.2c-0.1,0-0.2-0.1-0.2-0.2C4.4,164,4.5,163.9,4.6,163.9L4.6,163.9
	z M3.7,159.4c0.1,0,0.2,0.1,0.2,0.3c0,0.1-0.1,0.2-0.3,0.2c-0.1,0-0.2-0.1-0.2-0.3C3.5,159.4,3.6,159.4,3.7,159.4L3.7,159.4z
	 M4.5,159.5c0.1,0,0.2,0.1,0.2,0.3c0,0.1-0.1,0.2-0.3,0.2c-0.1,0-0.2-0.1-0.2-0.3C4.2,159.6,4.3,159.5,4.5,159.5L4.5,159.5z
	 M3.6,160.1c0.1,0,0.2,0.1,0.2,0.3c0,0.1-0.1,0.2-0.3,0.2c-0.1,0-0.2-0.1-0.2-0.3C3.3,160.2,3.4,160.1,3.6,160.1L3.6,160.1z
	 M4.3,160.3c0.1,0,0.2,0.1,0.2,0.3c0,0.1-0.1,0.2-0.3,0.2c-0.1,0-0.2-0.1-0.2-0.3C4.1,160.3,4.2,160.3,4.3,160.3L4.3,160.3z
	 M3.2,156c0.1,0,0.2,0,0.3,0.1c0,0.1,0,0.2-0.1,0.3c-0.1,0-0.2,0-0.3-0.1C3.1,156.2,3.1,156,3.2,156L3.2,156z M3.9,155.7
	c0.1,0,0.2,0,0.3,0.1c0,0.1,0,0.2-0.1,0.3c-0.1,0-0.2,0-0.3-0.1C3.8,155.9,3.8,155.8,3.9,155.7L3.9,155.7z M3.5,156.7
	c0.1,0,0.2,0,0.3,0.1c0,0.1,0,0.2-0.1,0.3c-0.1,0-0.2,0-0.3-0.1C3.4,156.9,3.4,156.7,3.5,156.7L3.5,156.7z M4.2,156.4
	c0.1,0,0.2,0,0.3,0.1c0,0.1,0,0.2-0.1,0.3c-0.1,0-0.2,0-0.3-0.1C4,156.6,4.1,156.4,4.2,156.4L4.2,156.4z M3.3,152.1
	c0.1,0,0.2,0.1,0.2,0.3c0,0.1-0.1,0.2-0.3,0.2c-0.1,0-0.2-0.1-0.2-0.3C3,152.1,3.2,152.1,3.3,152.1L3.3,152.1z M4,152.2
	c0.1,0,0.2,0.1,0.2,0.3c0,0.1-0.1,0.2-0.3,0.2c-0.1,0-0.2-0.1-0.2-0.3C3.8,152.3,3.9,152.2,4,152.2L4,152.2z M3.1,152.8
	c0.1,0,0.2,0.1,0.2,0.3c0,0.1-0.1,0.2-0.3,0.2c-0.1,0-0.2-0.1-0.2-0.3C2.9,152.9,3,152.8,3.1,152.8L3.1,152.8z M3.8,153
	c0.1,0,0.2,0.1,0.2,0.3c0,0.1-0.1,0.2-0.3,0.2c-0.1,0-0.2-0.1-0.2-0.3C3.6,153,3.7,153,3.8,153L3.8,153z M3.3,150.9
	c0.9-0.1,1.8,0.5,1.9,1.5c0.1,0.9-0.5,1.8-1.5,1.9c-0.9,0.1-1.8-0.5-1.9-1.5C1.7,151.9,2.4,151.1,3.3,150.9L3.3,150.9z M2.6,155
	c0.7-0.6,1.8-0.6,2.4,0.1c0.6,0.7,0.6,1.8-0.1,2.4c-0.7,0.6-1.8,0.6-2.4-0.1C1.9,156.8,1.9,155.7,2.6,155L2.6,155z M3.8,158.2
	c0.9-0.1,1.8,0.5,1.9,1.5c0.1,0.9-0.5,1.8-1.5,1.9c-0.9,0.1-1.8-0.5-1.9-1.5C2.2,159.2,2.8,158.4,3.8,158.2L3.8,158.2z M3.7,162
	c0.9-0.3,1.9,0.2,2.2,1.1c0.3,0.9-0.2,1.9-1.1,2.2c-0.9,0.3-1.9-0.2-2.2-1.1C2.3,163.3,2.8,162.3,3.7,162L3.7,162z"/>
<path class="st3" d="M14.3,95.3c-3.4,8.8-7.1,18.9-9.5,29.9C16.7,122.7,17.8,104.9,14.3,95.3L14.3,95.3z"/>
<path class="st3" d="M189.8,125.9c-0.7-3.2-1.5-6.5-2.4-9.8c-1.9-7.1-4.6-15.9-7.5-24.7C173.5,98.7,172.8,125.8,189.8,125.9
	L189.8,125.9z"/>
<path class="st2" d="M37.3,129c2.1-7.7,4.1-15.5,5.6-20c2.6-7.6,3.9-10.2,4.7-13.4c0.8-3.1,0.5,4.7-0.3,11
	c-0.8,6.3-2.6,21.5-5.2,27.5c-2.6,6-3.1,8.6-4,10.5c-0.9,1.9,1.2,2.4,1.2,2.4l0,0.1c0,0,0.1,0,0.1,0c3.4,0.2,20.7-0.8,26.5-1.5
	s6-4.4,6.6-6.4c0.6-2,0.4-6.4,0.4-7.9c-0.1-1.5-5.2-0.5-8.4-0.2c-3.2,0.3-16.2,1.1-18.4,1.4c-2.2,0.3-3.3,0.3-2.1-1.1
	c1.2-1.4,2.5-4.4,1.5-4c-1,0.4-0.6-2.3,0.2-5.7c0.8-3.4,2-13.1,2.4-16.4c0.4-3.3,3-11.8,3.2-15.5c0.2-3.7,5.4-14.5,6.7-18.7
	c1.3-4.2,1.4-6.5,0.8-16.1c-0.7-9.6-8.3-22.3-10.7-24.4c6.6,9.9,8.6,17.9,9.7,24c1.1,6.2,0,13.8-2.3,19.2
	c-2.3,5.4-5.3,15.8-6.9,18.8s-2.9,7.6-4.2,10.9c-1.3,3.3-2.3,7.5-3.9,8.5c-1.5,1,0.3,3.2-1.2,5.6c-1.5,2.4-4.2,3-2.3,3.7
	c1.9,0.8,0.9,4.3-2.8,4.5c-3.6,0.2-0.7,1.9,2.9,3C37.2,129,37.3,129,37.3,129L37.3,129z M72,131.3c0,0.8-0.6,0.8-2.4,0.9
	c-1.9,0.1-13.2,1.1-15.6,1.3c-2.4,0.2-8.6,0.6-10,0.7c-1.4,0.2-1.4-1.1,0.2-1.3c1.6-0.2,8.1-0.6,10.9-0.8c2.8-0.3,12.9-0.9,14.4-1.1
	C70.9,130.9,72,130.6,72,131.3L72,131.3z M42.1,135.8c-0.8,1.5-3.1,7.7-3.3,9.1c-0.3,1.4,0.1,1.9,2,1.9c2,0,20-1,23.9-1.8
	c3.9-0.7,5.9-1,6.8-4.5c0.9-3.4,0.8-6.2,0.8-7.2c0-0.9-0.7-0.8-2.1-0.7c-1.4,0.1-17.8,1.4-20.2,1.6c-2.4,0.2-6,0.6-6.8,0.6
	C42.4,134.8,42.2,135.2,42.1,135.8L42.1,135.8z"/>
<path class="st4" d="M118.3,66.9c-2.7,7.1-11.4,26.1-14.1,29.8c-2.7,3.7,5.3-1.3,10.4-1.9c5.1-0.5,7.7,1.1,7.4-8.5
	c-0.3-9.6-1.6-17.3,5.8-14.4c7.4,2.9,5.3-3.7,5.3-10.9c0-7.2-1.1-10.1,0.8-10.4c1.9-0.3-1.1-6.1-1.1-12.2c0-6.1-3.7-0.5-4.3-4.3
	c-0.5-3.7-2.9-4-2.9-1.6c0,2.4,4,4.5,1.9,13C125.5,54.1,121.8,57.8,118.3,66.9L118.3,66.9z M151,36.6c0,4.8,5.8,26.3,3.7,27.9
	c-2.1,1.6,3.5,14.1,1.1,10.4c-2.4-3.7-5.8-14.1-6.6-9.8c-0.8,4.3-1.3,8.2-3.5,3.2c-2.1-5.1-5.6-14.6-4-5.3c1.6,9.3,8.5,21,13.8,27.9
	c5.3,6.9,7.7,21,9.3,25.3c1.6,4.3,2.9-4.3,1.6-10.9c-1.3-6.6-8-38.3-4.3-29c3.7,9.3,11.4,18.1,9.3,9.6c-2.1-8.5-10.9-29.5-12.8-34.6
	C156.9,46.2,151,33.4,151,36.6L151,36.6z M129.2,133.9c5.9,0.6,20,2.8,21.3,5c1.3,2.2,0.7,10.2-0.4,7c-1.1-3.2-0.4-5.2-3.2-5.4
	c-2.8-0.2-2.6-1.9-0.9-2c1.7-0.2-8.3-2.8-12.4-3.3C129.5,134.6,126.6,133.3,129.2,133.9L129.2,133.9z M66.7,133.1
	c-3,0.6-18,2.4-21,2.4c-3,0-5.4,6.7-5.4,8.5s1.9-1.5,2.8-2.8c0.9-1.3,0.6-1.3,4.5-0.9c3.9,0.4,6.5-0.9,2.2-1.7
	c-4.3-0.7-1.1-1.9,3.7-2C58.3,136.5,70.4,132.8,66.7,133.1L66.7,133.1z M78.2,69.3c3.5,7.7,6.4,25.5,6.6,33c0.3,7.4-4,26.6-0.3,29.5
	c3.7,2.9,7.2,10.1,2.7,6.9c-4.5-3.2-10.9,4.8-13.6,5.8c-2.7,1.1-0.8-2.1,1.3-7.2c2.1-5.1,2.9-7.2,1.1-12.8c-1.9-5.6-1.3-6.6,2.4-4.3
	c3.7,2.4,5.1-15.2,3.2-24.2C79.8,87.1,76.3,66.1,78.2,69.3L78.2,69.3z M36.4,56c-2.5,3.7-13,25.3-14.9,31.6C19.7,94,30.1,90,31.4,86
	c1.3-4,1.9,8.8,1.1,16.5c-0.8,7.7-2.9,26.6-4.8,30.8c-1.9,4.3-7.7,25.5-3.5,16.8c4.3-8.8,8.2-24.7,9.8-29.8c1.6-5.1,5.6-30.3,5.6-38
	c0-7.7,0-10.9-3.2-9c-3.2,1.9,1.1-11.9,3.2-16.8C41.8,51.5,39,52.3,36.4,56L36.4,56z M66,26.8c-4,0.8-10.6,6.9-8.2,15.2
	c2.4,8.2,2.9,19.4,4.8,13C64.4,48.6,71.3,24.4,66,26.8L66,26.8z"/>
<path class="st5" d="M130.2,78.8c0.5,0.3,1,0.8,1.5,1.6c-3.4-5-8-11.9-8-17.3c0-5.4-1.1-14.2-0.8-17.2c0.4-3.1,0.6,3.1,3.8,9.4
	c3.3,6.3,5.9,9.4,10.3,16.1c4.4,6.7,12.8,20.3,15.9,26.1c3.1,5.7,5.7,4.8,4.4,1.7c-1.2-2.8,1.9,1.2,5.6,4.2c0.5-0.5,1-1,1.4-1.5
	c-1.7-0.8-3.1-2.4-5.4-6.4c-3.8-6.5-7.3-12.3-7.9-19c-0.6-6.7-2.1-17.6-2.7-11.1c-0.6,6.5,0.8,16.9,3.3,20.7c2.5,3.8,5,13.2,1,6.1
	c-4-7.1-9.6-16.9-14-22.6c-4.4-5.7-4.8-9-6.7-12.8c-1.9-3.8,1.1-0.4-0.4-7.1c-1.5-6.7-1.7-28.9-2.5-21.6c-0.8,7.3-3.1,12.5-3.6,7.5
	c-0.6-5,0.6-14.9-0.8-11.5c-1.3,3.4-2.9,2.9-6.1,0.4c-3.3-2.5-7.3-11.1-8.8-8.2c-1.5,2.9-4.4,9-4.4,5.2c0-3.8,3.8-9.4,9.4-8.4
	c5.6,1,9.6,2.5,13.8,6.5c4.2,4,9.8,11.7,7.7,6.9c-2.1-4.8-4.6-6.5-9.8-10.2c-5.2-3.6-12.6-3.4-15.7-6.3c-3.1-2.9-5.2-5.4-6.9-3.4
	c-1.7,1.9,2.1,3.8,0.4,7.5c-1.7,3.6-1.1,14.4-3.4,13.8c-2.3-0.6-7.3,0-9-4.6c-1.7-4.6-4.2-12.1-6.5-9.4c-2.3,2.7,3.4,6.7,0.6,9.2
	c-2.9,2.5-3.8,6.7,0.2,4.6c3.7-1.9,4.3-1.9,6-1.2c0.9,0,2.5,1.5,4.3,2.7c2.5,1.7,4-0.4,6.9,1.5c1.3,0.9,2,1.8,2.6,2.9
	c0-0.1,0-0.3,0-0.4c0.2-3.6,1.9-7.5,4.6-8c2.7-0.6,0.4-5,2.5-3.1c2.1,1.9,3.3,3.1,5.2,6.9c1.9,3.8,2.5,11.3,2.5,16.7
	c0,5.4-0.2,6.1-3.1,0.8c-2.9-5.4-4-9.4-2.5-13.4c1.5-4-1.7-9.6-4-4.8c-2.3,4.8,0,7.5-1.9,6.5c-1.2-0.6-1.6,0.3-1.7,2.1
	c0.2,0.3,0.4,0.6,0.6,1c1.7,2.7,1.3,4.2,2.9,7.9c1.5,3.6,3.4,4.4,2.1,6.5c-1.3,2.1-1.3,5.7-1.9,10.2c-0.5,4,0.2,6.5-2.4,5.7
	c0.2,1.7,0.1,3-0.8,3.1c-2.5,0.4-5.7,2.7-8.6-0.2c-2.9-2.9-4,0-1.9,1c2.1,1-2.9,1-2.7,2.7c0.2,1.7-2.1,3.6-4,1.7
	c-1.9-1.9-2.7-0.6-1,1.7c1.7,2.3,0.8,3.6-1,2.1c-1.7-1.5-1,0.8,1.9,6.5c2.9,5.7,8.4,19.5,8.4,14.9c0-4.6-3.3-10.2-6.3-15.1
	c-3.1-5-1.9-6.5,0.8-4c2.7,2.5,6.7,3.1,4.8,1.5c-1.9-1.5-5.2-2.9-1.9-5.2c3.3-2.3,1.3-4.8,4.4-4.4c3.1,0.4,7.3-2.1,6.5,0.4
	c-0.8,2.5,2.7,3.4,3.4-0.8c0.8-4.2,1.3-7.5,2.1-4c0.8,3.4,2.3,0.4,1-2.9c-1.3-3.3-0.8-7.3-0.4-10.7c0.4-3.4,1.3-11.3,3.1-7.9
	c1.7,3.4,4,5.6,3.8,10c-0.2,4.4-1,12.8,0.4,8.8C121.9,63.3,123.5,71.6,130.2,78.8L130.2,78.8z"/>
<path class="st5" d="M164.9,96.4c-3.2-4.3-8.6-14.8-9.9-20s1.1-3.5,2.3,2.7C158.5,85.3,162.6,90.4,164.9,96.4L164.9,96.4z"/>
<path class="st5" d="M99.2,0.2c-9.9,0.3-25.3,5.2-32,18.5c-6.1,12.2-9.5,22.3-9.6,31.5c0,2,0.2,3.9,0.4,5.7c0.2,1.3,0.3,2.5,0.5,3.6
	c2.1,11.8,7.1,19.3,8.7,24.1c1.9,5.9-4.4,11.7-4.6,15.7c-0.2,4,5.4-8.2,6.5-11.3c1.1-3.1,8.2,10.2,12.9,14.6c1.2-5-3.4-16-4.7-22.1
	c-1.3-6.1-4.2-13-1.7-13c2.5,0,5.4-3.4,8.4,3.4c3.1,6.9,3.8,6.9,3.1,4.2c-0.8-2.7-3.4-10.5-7.3-13.8c-3.8-3.3-7.5-11.7-9.6-21.3
	c-2.1-9.6,3.3-10.4,1.9-8.4c-1.4,2,0,10.9,0.8,8.6c0.8-2.3,0.4-14.4,1.3-21.3c1-6.9-0.2-6.1,6.1-11.7c6.3-5.6,10.2-4.4,15.7-4
	C101.7,3.7,104.3,0.3,99.2,0.2L99.2,0.2z M69.7,28.4c-2.3,3.6-8.8,11.7-10.2,16.5c-1.3,4.8,0.4,9.8,0.6,14.2c0.2,4.4,2.1-1,4.2-4.6
	c2.1-3.6,5.6-7.3,3.6-1.5c-1.9,5.7-6.5,11.7-4,17.8c2.5,6.1,4,10,6.7,14.8c2.7,4.8,10,14.8,9.2,10.9c-0.8-3.8-3.6-16.5-6.3-21.6
	c-2.7-5.2-5-11.5-4.8-15.1c0.2-3.6,1.7,1.7,5,1.3c3.3-0.4,4.4,1,1.3-4c-3.1-5-5.6-6.3-7.1-11.7c-1.5-5.4-0.2-10,1.1-12.5
	C70.5,30.3,73,26.1,69.7,28.4L69.7,28.4z M72.4,14.2c-3.3,4.8-9,15.3-10.9,22.8c-1.9,7.5-1.1,2.3,3.6-4c4.8-6.3,6.3-8,6.5-11.9
	C71.8,17.3,74.7,11.5,72.4,14.2L72.4,14.2z"/>
<path class="st5" d="M86,9.8c-2.7-0.8-4.8,1.3-5.7,4.8c-1,3.4-0.4,6.9-2.3,8.8c-1.9,1.9-1.3,10.2-2.1,14.2c-0.8,4-1.7,8.8,1,13.2
	c2.7,4.4,11.5,13,13.2,15.3c1.7,2.3,5.2,5.6,2.7,1.1c-2.5-4.4-15.5-16.1-11.5-13.4c4,2.7,7.1,2.9,2.7-0.6c-4.4-3.4-7.7-8-4.4-10
	c3.3-1.9,4.8-5.4,1.3-3.8c-3.4,1.5-5.2-0.2-3.3-4.6c1.9-4.4,2.9-4.6,1.9-7.3c-1-2.7,1-3.4,2.7-5.6c1.7-2.1-2.5-3.8,0.4-7.7
	C85.4,10.6,90.4,9.4,86,9.8L86,9.8z"/>
<path class="st5" d="M102.3,75.1c-1.7,1-0.8,3.1-2.1,4.2c-1.3,1.1-1.3,4.8,1.9,5.2c3.3,0.4,6.1,0,2.9-1.9c-3.3-1.9-4.2-3.6-1-5
	C107.3,76.3,105,74.5,102.3,75.1L102.3,75.1z"/>
<path class="st5" d="M117.5,71.8c1.2,2.6,2,8.1-0.8,10.8c-2.9,2.7,2.6,1.3,3.9-0.6c1.3-1.9,0.7-8.2-0.8-10.8
	C118.3,68.5,115.9,68.5,117.5,71.8L117.5,71.8z"/>
<path class="st6" d="M98.8,0c-9.5-0.5-27.2,4-34.4,18.5c-7.2,14.5-10.7,26-9.3,36.7c1.4,10.7,2.9,15.3,3.2,22
	c0.3,6.7-1.7,19.7-2.6,23.1c-0.9,3.5,6.1,2.9,11.3,2.9c5.2,0,9,0,11.3-0.9c2.3-0.9,4.6,4.9,5.8,6.9c1.2,2,5.8-1.4,9.5-3.5
	c3.8-2,7.2-3.8,6.1-7.5c-1.2-3.8-2.3-11.3-3.8-13.3c-1.4-2,7.2,2,12.7,1.2c5.5-0.9,11-4.3,13.6-6.4c2.6-2,4.6-2.6,6.7,0.3
	c2,2.9,17.1,25.7,21.4,27.8c4.3,2,4.6-0.6,7.2-2.6c2.6-2,6.7-4.9,4.9-8.1c-1.7-3.2,3.8-4.6,2.6-7.2c-1.2-2.6,6.1-3.2,3.8-6.4
	c-2.3-3.2-13.9-9.5-17.9-18.2c-4-8.7-8.4-18.8-11.6-25.7c-3.2-6.9-1.4-12.7-7.8-21.1c-6.4-8.4-4.3-11-11.9-14.5
	C112.1,0.6,106.4,0.4,98.8,0L98.8,0z M88.6,26.9c-0.3,2.3,0.2,5.7-1.7,7.7c-1.9,1.9-0.6,5.2-2.5,8.4c-1.9,3.3-4,3.8-0.6,5.4
	c3.4,1.5,8.8,6.3,12.1,10.7c3.3,4.4,5.6,6.7,9.2,8.2c3.6,1.5,2.7-1,3.3-5.4c0.6-4.4,0.6-8,1.9-10.2c1.3-2.1-0.6-2.9-2.1-6.5
	c-1.5-3.6-1.1-5.2-2.9-7.9c-1.7-2.7-1.9-5.2-4.8-7.1c-2.9-1.9-4.4,0.2-6.9-1.5C91.1,27.1,88.9,24.9,88.6,26.9L88.6,26.9z"/>
</svg>
