<?xml version="1.0" encoding="utf-8"?>
<!-- Generator: Adobe Illustrator 19.1.0, SVG Export Plug-In . SVG Version: 6.00 Build 0)  -->
<svg version="1.1" id="图层_1" xmlns="http://www.w3.org/2000/svg" xmlns:xlink="http://www.w3.org/1999/xlink" x="0px" y="0px"
	 viewBox="0 0 213.9 125.2" style="enable-background:new 0 0 213.9 125.2;" xml:space="preserve">
<style type="text/css">
	.st0{fill:#8B8B8B;}
	.st1{fill:#BDBEBE;}
</style>
<g>
	
		<image style="overflow:visible;opacity:0.75;" width="1020" height="676" xlink:href="20165F869665426C.png"  transform="matrix(0.24 0 0 0.24 -18.5111 -15.426)">
	</image>
	<g>
		<g>
			<path class="st0" d="M172.3,34.6c-4.7,0-9.2,0.9-13.3,2.6c-2.6-13.5-14.4-24.6-29.9-26.8c-9.5-1.3-18.5,1-25.5,5.8
				C98,6.5,88.3,0,77.3,0C61.5,0,48.4,13.3,46.4,30.6c-3.4-1.1-7.1-1.7-10.9-1.7C15.9,28.8,0,44.9,0,64.8c0,19.9,15.9,36,35.5,36
				c4.8,0,9.4-1,13.6-2.8c0.1,0.4,0.3,0.8,0.5,1.2c2.9,12.2,11.2,22,22.9,25c14.2,3.6,29-4.1,36.9-17.9c4.9,5.3,11.4,8.8,18.8,9.5
				c10.9,1,20.9-4.5,27.3-13.5c5,2.7,10.7,4.3,16.8,4.3c19.6,0,35.5-16.1,35.5-36C207.8,50.7,191.9,34.6,172.3,34.6z"/>
		</g>
	</g>
</g>
<g>
	
		<image style="overflow:visible;opacity:0.75;" width="646" height="451" xlink:href="20165F869665426D.png"  transform="matrix(0.24 0 0 0.24 77.4956 36.6535)">
	</image>
	<g>
		<g>
			<path class="st1" d="M193.8,71.7c-2.7,0-5.2,0.5-7.6,1.5c-1.5-7.6-8.2-14-17-15.2c-5.4-0.7-10.5,0.6-14.5,3.3
				c-3.2-5.5-8.6-9.2-14.9-9.2c-9,0-16.4,7.6-17.5,17.3c-2-0.6-4-1-6.2-1C105,68.4,96,77.6,96,88.9c0,11.3,9,20.4,20.1,20.4
				c2.7,0,5.4-0.6,7.7-1.6c0.1,0.2,0.2,0.5,0.3,0.7c1.6,6.9,6.4,12.5,13,14.2c8.1,2,16.5-2.3,21-10.2c2.8,3,6.5,5,10.7,5.4
				c6.2,0.5,11.9-2.5,15.5-7.7c2.8,1.6,6.1,2.4,9.6,2.4c11.1,0,20.1-9.2,20.1-20.4C213.9,80.9,204.9,71.7,193.8,71.7z"/>
		</g>
	</g>
</g>
</svg>
