<?xml version="1.0" encoding="utf-8"?>
<!-- Generator: Adobe Illustrator 19.1.0, SVG Export Plug-In . SVG Version: 6.00 Build 0)  -->
<svg version="1.1" id="图层_1" xmlns="http://www.w3.org/2000/svg" xmlns:xlink="http://www.w3.org/1999/xlink" x="0px" y="0px"
	 viewBox="0 0 423.2 40.8" style="enable-background:new 0 0 423.2 40.8;" xml:space="preserve">
<style type="text/css">
	.st0{fill-rule:evenodd;clip-rule:evenodd;fill:#D28288;}
	.st1{fill-rule:evenodd;clip-rule:evenodd;fill:#FADCDC;}
	.st2{fill-rule:evenodd;clip-rule:evenodd;fill:#C1CC97;}
	.st3{fill-rule:evenodd;clip-rule:evenodd;fill:#6FA292;}
	.st4{fill-rule:evenodd;clip-rule:evenodd;fill:#FADDAC;}
	.st5{fill-rule:evenodd;clip-rule:evenodd;fill:#E6C88D;}
</style>
<path class="st0" d="M273.5,20.5c0.2,5,9.1,9.1,12.2,7.4c4.2-2.4,1.3-6.8,1.3-7.3c0-0.5,2.9-4.9-1.3-7.3
	C282.6,11.6,273.6,15.5,273.5,20.5L273.5,20.5z"/>
<path class="st0" d="M272.1,18.9c4.8,1.4,11.5-5.9,10.8-9.4c-1-4.8-6-3.4-6.5-3.5c-0.5-0.2-3.8-4.3-7.3-1
	C266.5,7.5,267.5,17.2,272.1,18.9L272.1,18.9z"/>
<path class="st0" d="M270.2,19.6c2.8-4.1-2-12.7-5.6-13.2c-4.8-0.6-5.1,4.7-5.3,5.1c-0.3,0.4-5.2,2.3-3.2,6.7
	C257.6,21.5,267.2,23.6,270.2,19.6L270.2,19.6z"/>
<path class="st0" d="M270.4,21.7c-3.1-3.9-12.8-2-14.2,1.3c-2,4.4,2.9,6.3,3.2,6.7c0.3,0.4,0.5,5.7,5.4,5.1
	C268.2,34.3,273.2,25.8,270.4,21.7L270.4,21.7z"/>
<path class="st0" d="M272.3,22.2c-4.7,1.7-5.8,11.5-3.2,13.9c3.6,3.3,6.8-0.8,7.3-1c0.5-0.2,5.5,1.2,6.5-3.5
	C283.6,28.1,277.1,20.8,272.3,22.2L272.3,22.2z"/>
<path class="st1" d="M275.7,19.8c0.7-0.3,1.3-0.6,1.6-0.9c-0.5-0.1-1.3,0-2.2,0.2c2.1-1.3,4.5-3.1,5.1-4.6c-1.7,0.1-4.4,2-6.2,3.6
	c0.5-0.8,0.9-1.7,1-2.3c-0.6,0.3-1.1,0.4-1.7,1.3c0.7-2.1,1.4-5.1,1.2-6.9c-1.2,1.6-2,4.3-2.5,6.3c-0.1-0.5-0.2-1.6-0.4-1.9
	c-0.2,0.3-0.4,0.9-0.5,1.4c-0.6-2.2-1.4-4.5-2.5-5.5c-0.4,1.7,0.5,4.7,1.4,7.1c-0.6-0.8-1.3-1.4-1.8-1.7c0.1,0.6,0.5,1.5,1.1,2.3
	c-2-1.6-4.7-3.3-6.5-3.3c0.7,1.4,2.8,2.9,4.8,4c-0.6-0.1-1.1-0.1-1.5,0c0.3,0.3,0.8,0.6,1.4,0.9c-2.3-0.2-5-0.1-6.4,0.7
	c1.4,0.9,4.6,1,7,0.8c-0.9,0.3-1.7,0.7-2,1.2c0.6,0.1,1.4,0,2.3-0.3c-2.1,1.4-4.4,3.3-5,4.9c1.5-0.2,3.7-1.7,5.4-3.2
	c-0.3,0.5-0.5,1.1-0.6,1.5c0.4-0.2,0.8-0.5,1.2-0.9c-0.9,2.1-1.7,4.6-1.4,6.1c1.3-1.1,2.5-4.1,3.1-6.5c0,1,0.1,1.9,0.5,2.4
	c0.3-0.6,0.5-1.5,0.5-2.6c0.7,2.4,1.9,5.5,3.2,6.6c0.3-1.6-0.6-4.4-1.7-6.6c0.6,0.6,1.1,1.1,1.6,1.3c-0.1-0.4-0.3-1-0.7-1.5
	c1.8,1.5,4.1,2.9,5.7,2.9c-0.6-1.5-2.9-3.2-5-4.4c0.7,0.2,1.4,0.3,1.9,0.1c-0.3-0.4-0.9-0.7-1.5-0.9c2.4,0.2,5.2,0,6.5-0.8
	C280.9,19.8,278.1,19.6,275.7,19.8L275.7,19.8z"/>
<path class="st2" d="M274.8,20.6c0-2.4-2.8-4.2-5.4-2.3c-1.9,2.6-0.2,5.4,2.3,5.4C273.4,23.7,274.8,22.3,274.8,20.6L274.8,20.6z"/>
<path class="st3" d="M317.6,18c-1.4-1.6-0.9-14.3,3.7-17.7C324.2,5.3,319.5,17.1,317.6,18L317.6,18z M318.7,21.5
	c2.1-0.4,12.9,6.4,13.5,12C326.5,33.6,318.6,23.6,318.7,21.5L318.7,21.5z M317.8,22.1c2,0.7,8,11.9,5.6,17.2
	C318.5,36.5,316.6,23.8,317.8,22.1L317.8,22.1z M316.7,22.2c1.4,1.6,0.9,14.3-3.7,17.7C310.1,34.9,314.8,23.1,316.7,22.2L316.7,22.2
	z M315.8,21.7c0.4,2.1-6.4,12.9-12,13.5C303.7,29.4,313.6,21.5,315.8,21.7L315.8,21.7z M315.2,20.8c-0.7,2-11.9,8-17.2,5.6
	C300.8,21.4,313.4,19.5,315.2,20.8L315.2,20.8z M315.1,19.7c-1.6,1.4-14.3,0.9-17.7-3.7C302.3,13.1,314.2,17.7,315.1,19.7
	L315.1,19.7z M315.6,18.7c-2.1,0.4-12.9-6.4-13.5-12C307.9,6.6,315.8,16.6,315.6,18.7L315.6,18.7z M316.5,18.1
	c-2-0.7-8-11.9-5.6-17.2C315.9,3.7,317.7,16.4,316.5,18.1L316.5,18.1z M318.6,18.5c-0.4-2.1,6.4-12.9,12-13.5
	C330.7,10.8,320.7,18.7,318.6,18.5L318.6,18.5z M319.2,19.4c0.7-2,11.9-8,17.2-5.6C333.5,18.8,320.9,20.7,319.2,19.4L319.2,19.4z
	 M319.2,20.5c1.6-1.4,14.3-0.9,17.7,3.7C332,27.1,320.1,22.5,319.2,20.5L319.2,20.5z"/>
<path class="st2" d="M318.1,18.2c-1-1.9,2.4-14.2,7.7-16.3C327.4,7.3,320.1,17.8,318.1,18.2L318.1,18.2z M318.4,21.8
	c2.1,0.1,11.1,9.2,10.3,14.8C323.1,35.4,317.7,23.8,318.4,21.8L318.4,21.8z M317.3,22.2c1.8,1.1,5,13.5,1.5,18
	C314.7,36.3,315.8,23.6,317.3,22.2L317.3,22.2z M316.3,22c1,1.9-2.4,14.2-7.7,16.3C306.9,32.9,314.2,22.4,316.3,22L316.3,22z
	 M315.4,21.3c-0.1,2.1-9.2,11.1-14.8,10.3C301.9,26.1,313.4,20.6,315.4,21.3L315.4,21.3z M315.1,20.3c-1.1,1.8-13.5,5-18,1.5
	C300.9,17.6,313.7,18.7,315.1,20.3L315.1,20.3z M315.3,19.2c-1.9,1-14.2-2.4-16.3-7.7C304.4,9.8,314.8,17.1,315.3,19.2L315.3,19.2z
	 M316,18.4c-2.1-0.1-11.1-9.2-10.3-14.8C311.2,4.8,316.6,16.4,316,18.4L316,18.4z M317,18c-1.8-1.1-5-13.5-1.5-18
	C319.7,3.9,318.6,16.6,317,18L317,18z M318.9,18.9c0.1-2.1,9.2-11.1,14.8-10.3C332.5,14.1,320.9,19.6,318.9,18.9L318.9,18.9z
	 M319.3,19.9c1.1-1.8,13.5-5,18-1.5C333.4,22.6,320.7,21.5,319.3,19.9L319.3,19.9z M319.1,21c1.9-1,14.2,2.4,16.3,7.7
	C330,30.4,319.5,23.1,319.1,21L319.1,21z"/>
<path class="st3" d="M317.6,19.2c-0.5-0.9,1.1-6.7,3.6-7.8C322,14,318.6,19,317.6,19.2L317.6,19.2z M317.7,20.9c1,0,5.3,4.3,4.9,7
	C320,27.4,317.4,21.9,317.7,20.9L317.7,20.9z M317.3,21.1c0.9,0.5,2.4,6.4,0.7,8.5C316,27.8,316.5,21.8,317.3,21.1L317.3,21.1z
	 M316.7,21c0.5,0.9-1.1,6.7-3.6,7.8C312.3,26.2,315.8,21.2,316.7,21L316.7,21z M316.3,20.7c0,1-4.3,5.3-7,4.9
	C309.9,22.9,315.4,20.4,316.3,20.7L316.3,20.7z M316.2,20.2c-0.5,0.9-6.4,2.4-8.5,0.7C309.5,18.9,315.5,19.4,316.2,20.2L316.2,20.2z
	 M316.3,19.7c-0.9,0.5-6.7-1.1-7.8-3.6C311.1,15.2,316.1,18.7,316.3,19.7L316.3,19.7z M316.6,19.3c-1,0-5.3-4.3-4.9-7
	C314.3,12.8,316.9,18.3,316.6,19.3L316.6,19.3z M317.1,19.1c-0.9-0.5-2.4-6.4-0.7-8.5C318.4,12.4,317.8,18.4,317.1,19.1L317.1,19.1z
	 M318,19.5c0-1,4.3-5.3,7-4.9C324.4,17.3,318.9,19.8,318,19.5L318,19.5z M318.2,20c0.5-0.9,6.4-2.4,8.5-0.7
	C324.9,21.3,318.8,20.8,318.2,20L318.2,20z M318.1,20.5c0.9-0.5,6.7,1.1,7.8,3.6C323.3,25,318.3,21.5,318.1,20.5L318.1,20.5z"/>
<path class="st4" d="M320.7,20.8c0.6-2.8-2.2-5.5-5.6-3.9c-2.9,2.5-1.5,6.1,1.3,6.7C318.4,24.1,320.3,22.8,320.7,20.8L320.7,20.8z"
	/>
<path class="st0" d="M104.5,20.6c-1.4-1.2-2.6-11.9,0.9-15.3C108.5,9.1,106,19.7,104.5,20.6L104.5,20.6z M105.9,23.4
	c1.7-0.6,11.6,3.8,12.8,8.5C113.9,32.7,106,25.2,105.9,23.4L105.9,23.4z M105.2,24c1.8,0.3,8.2,9.1,6.8,13.7
	C107.5,36,104.4,25.7,105.2,24L105.2,24z M104.3,24.2c1.4,1.2,2.6,11.9-0.9,15.3C100.3,35.8,102.8,25.2,104.3,24.2L104.3,24.2z
	 M103.4,23.9c0.6,1.7-3.8,11.6-8.5,12.8C94.2,31.9,101.6,24,103.4,23.9L103.4,23.9z M102.8,23.2c-0.3,1.8-9.1,8.2-13.7,6.8
	C90.8,25.6,101.2,22.4,102.8,23.2L102.8,23.2z M102.6,22.3c-1.2,1.4-11.9,2.6-15.3-0.9C91.1,18.3,101.6,20.8,102.6,22.3L102.6,22.3z
	 M102.9,21.4c-1.7,0.6-11.6-3.8-12.8-8.5C94.9,12.2,102.8,19.6,102.9,21.4L102.9,21.4z M103.6,20.8c-1.8-0.3-8.2-9.1-6.8-13.7
	C101.3,8.8,104.4,19.2,103.6,20.8L103.6,20.8z M105.4,20.9c-0.6-1.7,3.8-11.6,8.5-12.8C114.6,12.9,107.2,20.8,105.4,20.9L105.4,20.9
	z M106,21.6c0.3-1.8,9.1-8.2,13.7-6.8C118,19.3,107.6,22.4,106,21.6L106,21.6z M106.2,22.5c1.2-1.4,11.9-2.6,15.3,0.9
	C117.7,26.5,107.2,24.1,106.2,22.5L106.2,22.5z"/>
<path class="st1" d="M104.9,20.7c-1.1-1.4,0.3-12.2,4.4-14.7C111.5,10.4,106.6,20.1,104.9,20.7L104.9,20.7z M105.6,23.8
	c1.8-0.2,10.4,6.3,10.5,11.2C111.3,34.6,105.3,25.5,105.6,23.8L105.6,23.8z M104.8,24.2c1.7,0.7,5.9,10.7,3.5,14.9
	C104.3,36.4,103.6,25.6,104.8,24.2L104.8,24.2z M103.9,24.2c1.1,1.4-0.3,12.2-4.4,14.7C97.3,34.5,102.2,24.8,103.9,24.2L103.9,24.2z
	 M103.1,23.7c0.2,1.8-6.3,10.4-11.2,10.5C92.3,29.3,101.3,23.4,103.1,23.7L103.1,23.7z M102.6,22.8c-0.7,1.7-10.7,5.9-14.9,3.5
	C90.5,22.3,101.3,21.7,102.6,22.8L102.6,22.8z M102.7,21.9c-1.4,1.1-12.2-0.3-14.7-4.4C92.4,15.4,102.1,20.2,102.7,21.9L102.7,21.9z
	 M103.2,21.1c-1.8,0.2-10.4-6.3-10.5-11.2C97.5,10.3,103.5,19.4,103.2,21.1L103.2,21.1z M104,20.7c-1.7-0.7-5.9-10.7-3.5-14.9
	C104.5,8.5,105.1,19.3,104,20.7L104,20.7z M105.7,21.2c-0.2-1.8,6.3-10.4,11.2-10.5C116.5,15.5,107.5,21.5,105.7,21.2L105.7,21.2z
	 M106.1,22c0.7-1.7,10.7-5.9,14.9-3.5C118.3,22.5,107.5,23.2,106.1,22L106.1,22z M106.1,23c1.4-1.1,12.2,0.3,14.7,4.4
	C116.4,29.5,106.7,24.7,106.1,23L106.1,23z"/>
<path class="st0" d="M104.6,21.6c-0.5-0.7,0.1-5.8,2.1-7C107.7,16.7,105.4,21.3,104.6,21.6L104.6,21.6z M105,23.1c0.8-0.1,5,3,5,5.3
	C107.7,28.2,104.8,23.9,105,23.1L105,23.1z M104.6,23.3c0.8,0.3,2.8,5.1,1.7,7.1C104.4,29.1,104,23.9,104.6,23.3L104.6,23.3z
	 M104.2,23.3c0.5,0.7-0.1,5.8-2.1,7C101,28.2,103.3,23.5,104.2,23.3L104.2,23.3z M103.8,23c0.1,0.8-3,5-5.3,5
	C98.6,25.7,102.9,22.9,103.8,23L103.8,23z M103.6,22.6c-0.3,0.8-5.1,2.8-7.1,1.7C97.8,22.4,102.9,22.1,103.6,22.6L103.6,22.6z
	 M103.6,22.2c-0.7,0.5-5.8-0.1-7-2.1C98.7,19.1,103.3,21.4,103.6,22.2L103.6,22.2z M103.8,21.8c-0.8,0.1-5-3-5-5.3
	C101.1,16.7,104,21,103.8,21.8L103.8,21.8z M104.2,21.6c-0.8-0.3-2.8-5.1-1.7-7.1C104.4,15.8,104.8,21,104.2,21.6L104.2,21.6z
	 M105,21.9c-0.1-0.8,3-5,5.3-5C110.2,19.2,105.9,22,105,21.9L105,21.9z M105.2,22.2c0.3-0.8,5.1-2.8,7.1-1.7
	C111,22.5,105.9,22.8,105.2,22.2L105.2,22.2z M105.2,22.7c0.7-0.5,5.8,0.1,7,2.1C110.1,25.8,105.5,23.5,105.2,22.7L105.2,22.7z"/>
<path class="st4" d="M107.5,22.6c0.1-2.4-2.5-4.4-5.2-2.6c-2.1,2.4-0.5,5.3,1.9,5.5C105.9,25.6,107.4,24.3,107.5,22.6L107.5,22.6z"
	/>
<path class="st0" d="M407.5,22.3c-1.7,3.5,6.7,11.6,9.8,11.6c4.2,0.1,0.8-5.6,0.9-6c0.2-0.3,6.9-0.8,4.4-4.2
	C420.8,21.2,409.4,18.8,407.5,22.3L407.5,22.3z"/>
<path class="st0" d="M407.2,20.5c2.9,2.7,13.1-2.8,14.1-5.8c1.4-4-5.1-2.5-5.4-2.7c-0.3-0.3,1.4-6.8-2.7-5.4
	C410.2,7.5,404.5,17.5,407.2,20.5L407.2,20.5z"/>
<path class="st0" d="M405.3,20.2c3.4-1.9,1.4-13.3-1.1-15.2c-3.4-2.6-3.9,4.1-4.3,4.3c-0.4,0.2-6-3.4-6,0.9
	C393.9,13.3,401.7,21.9,405.3,20.2L405.3,20.2z"/>
<path class="st0" d="M404.5,21.9c-0.7-3.9-12.3-5.4-14.8-3.6c-3.5,2.4,2.7,5,2.8,5.4c0.1,0.4-5.1,4.7-1,6
	C394.4,30.6,405,25.9,404.5,21.9L404.5,21.9z"/>
<path class="st0" d="M405.9,23.2c-3.9-0.5-8.9,10-8,13c1.2,4.1,5.6-1,6-1c0.4,0.1,2.9,6.3,5.4,2.8C411,35.5,409.8,24,405.9,23.2
	L405.9,23.2z"/>
<path class="st1" d="M406.4,20.3c0.3-1.3,0.6-3.1,0.3-3.9c-0.5,0.7-0.8,2.3-0.9,3.5c-0.7-2-2.2-5-3.4-5.9c0,1.6,1.7,4.8,2.9,6.5
	c-0.2,0.1-0.3,0.3-0.4,0.5c-1.1-0.7-2.9-1.7-3.8-1.7c0.6,0.8,2.4,1.7,3.7,2.2c0,0.1,0,0.2,0,0.2c-2.1,0-5.6,0.4-6.9,1.4
	c1.6,0.5,5.2-0.1,7.2-0.7l0,0c-1,0.8-2.6,2.3-2.9,3.2c0.9-0.3,2.4-1.8,3.2-2.9c0.1,0,0.1,0.1,0.2,0.1c0.1,0.1,0.3,0.1,0.4,0.1
	c-0.6,1.9-1.5,5.7-0.9,7.4c1-1.3,1.4-4.7,1.5-6.8c0.5,1.2,1.2,2.5,1.9,3c0-0.9-0.9-2.7-1.6-3.8c0.2-0.1,0.3-0.2,0.4-0.4
	c1.5,1.2,5.1,3.3,7,3.3c-1.1-1.5-5-3.3-6.8-3.8c0-0.1,0-0.1,0-0.2c1.3-0.1,3.1-0.4,3.8-0.9c-0.8-0.3-2.6,0-3.9,0.3l0,0
	c1.6-1.1,4.7-3.8,5.2-5.5c-1.7,0.5-4.4,3.4-5.5,5c-0.1-0.1-0.2-0.2-0.4-0.3C406.6,20.4,406.5,20.3,406.4,20.3L406.4,20.3z"/>
<path class="st4" d="M408.5,22.9c1-1.9-0.5-4.5-3.3-4c-2.6,1.2-2.3,4.2-0.4,5.2C406.2,24.8,407.8,24.3,408.5,22.9L408.5,22.9z"/>
<path class="st0" d="M188.8,20c-0.9,3.8-12.5,5.8-14.9,3.9c-3.4-2.6,2.9-5.8,3-6.2c0.1-0.4-4.8-4.9-0.8-6
	C179.1,10.9,189.4,16.1,188.8,20L188.8,20z"/>
<path class="st0" d="M190.2,18.8c-3.9,0.3-8.5-10.4-7.4-13.3c1.4-4,5.5,1.3,5.9,1.2c0.4,0,3.2-6.1,5.5-2.6
	C195.9,6.8,194.1,18.2,190.2,18.8L190.2,18.8z"/>
<path class="st0" d="M191.8,19.8c-1.5-3.6,7.2-11.2,10.3-11.2c4.2,0.1,0.5,5.7,0.7,6c0.2,0.4,6.8,2.1,4.1,5.4
	C205,22.4,193.6,23.3,191.8,19.8L191.8,19.8z"/>
<path class="st0" d="M191.4,21.5c3-2.5,12.9,3.4,13.8,6.4c1.2,4.1-5.2,2.2-5.5,2.5c-0.3,0.3,1,7.8-2.9,6.3
	C193.8,35.6,188.5,24.3,191.4,21.5L191.4,21.5z"/>
<path class="st0" d="M189.5,21.7c3.3,2,0.7,14.3-1.8,16.1c-3.5,2.4-3.7-5.3-4.1-5.5c-0.3-0.2-6.2,3.1-5.9-1.1
	C177.8,28.1,186,19.9,189.5,21.7L189.5,21.7z"/>
<path class="st1" d="M190.9,19.1c0.5-1.2,1.4-2.8,2.2-3.3c0,0.8-0.8,2.2-1.5,3.3c1.8-1.1,4.8-2.5,6.3-2.5c-1,1.3-4.3,2.7-6.3,3.2
	c0.1,0.2,0.1,0.4,0.1,0.6c1.3,0.1,3.3,0.5,4,1.1c-0.9,0.3-3-0.2-4.2-0.6c0,0.1-0.1,0.1-0.1,0.2c1.6,1.3,4.1,3.8,4.6,5.4
	c-1.6-0.6-4-3.3-5.1-5l0,0c0.3,1.3,0.6,3.4,0.2,4.3c-0.5-0.8-0.7-2.9-0.7-4.2c-0.1,0-0.1,0-0.2,0c-0.2,0-0.3-0.1-0.4-0.2
	c-0.7,1.9-2.4,5.4-3.9,6.4c0.1-1.6,1.8-4.6,3.1-6.2c-1.1,0.6-2.5,1.2-3.4,1.2c0.6-0.7,2.4-1.5,3.6-1.9c-0.1-0.2-0.1-0.3-0.1-0.5
	c-1.9,0-6.1-0.6-7.5-1.7c1.8-0.5,5.9,0.6,7.6,1.3c0-0.1,0.1-0.1,0.1-0.2c-1-0.9-2.2-2.2-2.4-3.1c0.8,0.3,2.1,1.6,2.8,2.7l0,0
	c-0.6-1.8-1.3-5.9-0.6-7.6c1,1.4,1.3,5.4,1.2,7.4c0.2,0,0.3,0,0.5,0C190.7,19.1,190.8,19.1,190.9,19.1L190.9,19.1z"/>
<path class="st4" d="M187.6,19.8c0.4-2.1,3.2-3.2,5.1-1.1c1.3,2.6-0.8,4.7-2.9,4.3C188.3,22.8,187.3,21.3,187.6,19.8L187.6,19.8z"/>
<path class="st0" d="M20.7,20c1,4.2,13.7,5.3,16.4,3.2c3.7-2.8-3.2-5.4-3.3-5.8c-0.1-0.4,5.3-5.4,0.8-6.6C31.3,9.9,20,15.7,20.7,20
	L20.7,20z"/>
<path class="st0" d="M19.1,18.6C23.4,19,28.4,7.2,27.3,4c-1.6-4.4-6.1,1.4-6.5,1.4c-0.4-0.1-3.5-6.7-6-2.8
	C12.9,5.4,14.8,18,19.1,18.6L19.1,18.6z"/>
<path class="st0" d="M17.4,19.7C19,15.7,9.4,7.3,6,7.4C1.3,7.5,5.4,13.6,5.3,14c-0.2,0.4-7.5,2.5-4.6,6.1
	C2.8,22.8,15.4,23.6,17.4,19.7L17.4,19.7z"/>
<path class="st0" d="M17.8,21.7c-3.3-2.8-14.2,3.8-15.2,7.1c-1.3,4.5,5.8,2.4,6.1,2.7c0.3,0.3-1.1,7.5,3.2,5.8
	C15.1,36.1,21,24.8,17.8,21.7L17.8,21.7z"/>
<path class="st0" d="M19.9,21.8c-3.7,2.2-0.8,14.7,2,16.6c3.8,2.6,4.1-4.7,4.5-4.9c0.4-0.2,6.8,3.4,6.5-1.2
	C32.7,28.9,23.8,19.8,19.9,21.8L19.9,21.8z"/>
<path class="st1" d="M18.4,19c-0.6-1.3-1.6-3.1-2.4-3.6c0,0.9,0.9,2.5,1.7,3.6c-2-1.2-5.3-2.8-7-2.7c1.1,1.4,4.7,2.9,6.9,3.6
	c-0.1,0.2-0.1,0.5-0.1,0.7c-1.4,0.1-3.6,0.5-4.4,1.2c1,0.3,3.3-0.2,4.6-0.7c0,0.1,0.1,0.2,0.2,0.2c-1.8,1.4-4.5,4.2-5,6
	c1.7-0.6,4.4-3.7,5.7-5.5l0,0c-0.3,1.4-0.7,3.7-0.3,4.7c0.6-0.9,0.8-3.2,0.8-4.7c0.1,0,0.2,0,0.2,0c0.2,0,0.3-0.1,0.5-0.2
	c0.7,2,2.7,5.9,4.3,7c-0.1-1.8-2-5.1-3.4-6.9c1.2,0.7,2.8,1.3,3.7,1.3c-0.6-0.8-2.6-1.7-4-2.1c0.1-0.2,0.1-0.4,0.1-0.6
	c2,0,6.7-0.7,8.3-1.9c-1.9-0.6-6.5,0.6-8.4,1.4c0-0.1-0.1-0.2-0.1-0.2c1.1-1,2.4-2.4,2.7-3.4c-0.9,0.3-2.3,1.8-3.1,3l0,0
	c0.6-2,1.4-6.5,0.7-8.3c-1.1,1.6-1.4,5.9-1.3,8.1c-0.2,0-0.3,0-0.5,0C18.6,18.9,18.5,19,18.4,19L18.4,19z"/>
<path class="st4" d="M22,19.8c-0.5-2.4-3.5-3.5-5.6-1.2c-1.4,2.8,0.9,5.2,3.2,4.8C21.2,23,22.3,21.4,22,19.8L22,19.8z"/>
<path class="st1" d="M165.2,22.3c0.1-3.5-3.9-6.4-8.9-6.5c-5-0.1-9.1,2.6-9.2,6c-0.1,3.5,3.9,6.4,8.9,6.5
	C160.9,28.5,165.1,25.8,165.2,22.3L165.2,22.3z"/>
<path class="st1" d="M152.1,3.3c-3.3-1.2-7.3,1.7-8.9,6.5c-1.7,4.7-0.4,9.5,2.9,10.6c3.3,1.2,7.3-1.7,8.9-6.5
	C156.7,9.2,155.4,4.5,152.1,3.3L152.1,3.3z"/>
<path class="st1" d="M130,9.9c-2.1,2.8-0.6,7.5,3.4,10.5c4,3,8.9,3.3,11,0.5c2.1-2.8,0.6-7.5-3.4-10.5C137.1,7.3,132.1,7.1,130,9.9
	L130,9.9z"/>
<path class="st1" d="M129.4,32.9c2,2.9,6.9,2.9,11,0c4.1-2.8,5.9-7.5,3.9-10.3c-2-2.9-6.9-2.9-11,0C129.2,25.4,127.4,30,129.4,32.9
	L129.4,32.9z"/>
<path class="st1" d="M151.1,40.6c3.3-1,4.9-5.7,3.4-10.5c-1.4-4.8-5.3-7.9-8.6-6.9c-3.3,1-4.9,5.7-3.4,10.5
	C144,38.5,147.8,41.6,151.1,40.6L151.1,40.6z"/>
<path class="st0" d="M158.7,22.1c0.1-2.2-2.5-4.1-5.7-4.2c-3.2-0.1-5.9,1.7-5.9,3.9c-0.1,2.2,2.5,4.1,5.7,4.2
	C156,26.1,158.6,24.4,158.7,22.1L158.7,22.1z"/>
<path class="st0" d="M150.3,9.9c-2.1-0.7-4.7,1.1-5.8,4.2c-1.1,3-0.2,6.1,1.9,6.8c2.1,0.7,4.7-1.1,5.8-4.2
	C153.2,13.7,152.4,10.7,150.3,9.9L150.3,9.9z"/>
<path class="st0" d="M136.1,14.1c-1.4,1.8-0.4,4.8,2.2,6.8c2.6,2,5.7,2.1,7.1,0.3c1.4-1.8,0.4-4.8-2.2-6.8
	C140.6,12.5,137.4,12.4,136.1,14.1L136.1,14.1z"/>
<path class="st0" d="M135.7,29c1.3,1.8,4.4,1.9,7.1,0c2.7-1.8,3.8-4.8,2.5-6.6c-1.3-1.8-4.4-1.9-7.1,0
	C135.5,24.1,134.4,27.1,135.7,29L135.7,29z"/>
<path class="st0" d="M149.7,33.9c2.1-0.6,3.1-3.7,2.2-6.7c-0.9-3.1-3.4-5.1-5.5-4.4c-2.1,0.6-3.1,3.7-2.2,6.7
	C145,32.5,147.5,34.5,149.7,33.9L149.7,33.9z"/>
<path class="st5" d="M151,21.9c0.1-4.3-4.8-7.6-9.4-4.3c-3.6,4.4-0.5,9.5,3.8,9.6C148.5,27.4,151,25,151,21.9L151,21.9z"/>
<path class="st2" d="M64.1,21.3c-0.6,4.1,10.4,9.5,13.6,8.6c4.3-1.3-1-5.9-0.9-6.3c0.1-0.4,6.6-3,3-5.6C77.1,16,65,17.2,64.1,21.3
	L64.1,21.3z"/>
<path class="st2" d="M63.2,19.5c3.7,1.8,12.3-7,12.4-10.2c0.1-4.5-5.9-0.9-6.3-1.1c-0.4-0.2-0.8-7.2-4.4-4.6
	C62.2,5.5,59.6,17.4,63.2,19.5L63.2,19.5z"/>
<path class="st2" d="M61.3,19.9c2.9-3-2.8-13.8-5.9-14.9c-4.2-1.5-2.6,5.4-2.9,5.7c-0.3,0.3-7.1-1.5-5.8,2.8
	C47.6,16.5,58.2,22.7,61.3,19.9L61.3,19.9z"/>
<path class="st2" d="M61,21.8c-2-3.6-14-1.6-16,1c-2.7,3.5,4.3,4.2,4.5,4.5c0.2,0.4-3.6,6.3,0.8,6.3C53.6,33.7,62.7,25.6,61,21.8
	L61,21.8z"/>
<path class="st2" d="M62.8,22.7c-4.1,0.7-5.8,12.9-4,15.6c2.5,3.7,5.3-2.8,5.7-2.9c0.4-0.1,4.9,5.4,6.3,1.2
	C71.8,33.4,66.9,22.2,62.8,22.7L62.8,22.7z"/>
<path class="st3" d="M62.4,19.6c-0.1-1.4-0.4-3.3-0.9-4c-0.3,0.8,0,2.5,0.3,3.8c-1.3-1.8-3.7-4.3-5.3-4.8c0.5,1.6,3.2,4.3,4.9,5.6
	c-0.1,0.2-0.2,0.4-0.3,0.6c-1.3-0.4-3.4-0.8-4.4-0.5c0.8,0.6,3,0.9,4.4,1c0,0.1,0,0.2,0.1,0.3c-2.1,0.7-5.5,2.2-6.5,3.6
	c1.8,0,5.2-1.8,7-3l0,0c-0.8,1.1-1.9,3.1-1.9,4.1c0.9-0.6,1.8-2.6,2.3-3.9c0.1,0,0.1,0,0.2,0.1c0.2,0,0.3,0,0.5,0
	c-0.1,2.1,0.4,6.2,1.4,7.7c0.6-1.6-0.1-5.2-0.6-7.3c0.9,1,2,2.2,2.8,2.4c-0.3-0.9-1.8-2.4-2.8-3.3c0.1-0.1,0.2-0.3,0.3-0.5
	c1.8,0.7,6.2,1.7,8.1,1.2c-1.5-1.2-6-1.7-8-1.7c0-0.1,0-0.2,0-0.2c1.3-0.5,3-1.3,3.6-2.1c-0.9,0-2.6,0.8-3.8,1.6l0,0
	c1.2-1.6,3.5-5.3,3.5-7.2c-1.5,1.1-3.3,4.8-4,6.8c-0.1-0.1-0.3-0.1-0.5-0.2C62.6,19.6,62.5,19.6,62.4,19.6L62.4,19.6z"/>
<path class="st4" d="M65.3,21.5c0.4-2.3-1.9-4.4-4.6-3c-2.2,2.1-1,5,1.2,5.4C63.6,24.2,65.1,23.1,65.3,21.5L65.3,21.5z"/>
<path class="st2" d="M233.6,20.9c0.2,5.3,9.7,9.7,13.1,7.9c4.5-2.5,1.4-7.2,1.4-7.7c0-0.5,3.1-5.2-1.4-7.7
	C243.4,11.4,233.8,15.6,233.6,20.9L233.6,20.9z"/>
<path class="st2" d="M232.2,19.2c5.1,1.5,12.2-6.3,11.5-10c-1-5.1-6.4-3.6-6.9-3.7c-0.5-0.2-4-4.5-7.8-1
	C226.2,7,227.2,17.4,232.2,19.2L232.2,19.2z"/>
<path class="st2" d="M230.2,20c3-4.4-2.2-13.6-6-14c-5.1-0.6-5.4,5-5.7,5.4c-0.3,0.4-5.6,2.4-3.4,7.1
	C216.7,21.9,226.9,24.2,230.2,20L230.2,20z"/>
<path class="st2" d="M230.3,22.2c-3.3-4.2-13.6-2.1-15.2,1.3c-2.2,4.7,3.1,6.7,3.4,7.1c0.3,0.4,0.6,6,5.7,5.4
	C228,35.6,233.3,26.6,230.3,22.2L230.3,22.2z"/>
<path class="st2" d="M232.4,22.7c-5,1.8-6.2,12.3-3.4,14.8c3.8,3.5,7.3-0.9,7.8-1c0.5-0.2,5.9,1.3,6.9-3.8
	C244.5,29,237.5,21.2,232.4,22.7L232.4,22.7z"/>
<path class="st3" d="M236,20.2c0.7-0.3,1.3-0.6,1.7-1c-0.6-0.1-1.4,0-2.3,0.2c2.2-1.4,4.8-3.3,5.5-4.9c-1.8,0.1-4.6,2.1-6.7,3.8
	c0.6-0.9,1-1.8,1-2.4c-0.7,0.3-1.2,0.4-1.8,1.4c0.7-2.2,1.5-5.4,1.3-7.3c-1.3,1.7-2.1,4.6-2.7,6.7c-0.1-0.5-0.2-1.7-0.4-2
	c-0.2,0.3-0.4,1-0.5,1.5c-0.6-2.3-1.5-4.8-2.7-5.9c-0.5,1.8,0.5,5.1,1.5,7.5c-0.6-0.8-1.3-1.5-2-1.8c0.1,0.7,0.6,1.6,1.2,2.4
	c-2.1-1.7-5-3.5-6.9-3.5c0.7,1.4,3,3.1,5.1,4.3c-0.6-0.1-1.2-0.1-1.6,0c0.3,0.3,0.9,0.7,1.5,0.9c-2.5-0.2-5.4-0.1-6.8,0.8
	c1.5,1,4.9,1.1,7.5,0.8c-0.9,0.3-1.8,0.8-2.2,1.3c0.6,0.1,1.5,0,2.4-0.3c-2.2,1.4-4.7,3.5-5.4,5.2c1.6-0.2,3.9-1.8,5.8-3.5
	c-0.3,0.6-0.6,1.1-0.6,1.6c0.4-0.2,0.8-0.5,1.3-1c-1,2.3-1.8,4.9-1.5,6.5c1.4-1.1,2.7-4.3,3.3-6.9c0,1,0.2,2,0.5,2.6
	c0.4-0.6,0.5-1.6,0.5-2.7c0.7,2.6,2,5.9,3.5,7c0.3-1.7-0.7-4.7-1.8-7.1c0.6,0.7,1.2,1.2,1.8,1.4c-0.1-0.5-0.3-1-0.7-1.6
	c2,1.5,4.4,3.1,6,3.1c-0.7-1.6-3.1-3.4-5.3-4.7c0.8,0.2,1.5,0.3,2.1,0.1c-0.3-0.4-0.9-0.7-1.6-1c2.5,0.2,5.5,0,6.9-0.8
	C241.5,20.1,238.6,20,236,20.2L236,20.2z"/>
<path class="st5" d="M235.1,21c0-2.6-3-4.5-5.7-2.4c-2.1,2.7-0.2,5.7,2.4,5.7C233.6,24.3,235.1,22.8,235.1,21L235.1,21z"/>
<path class="st0" d="M360.9,21.4c-1.3-1.1-2.4-11.1,0.9-14.3C364.7,10.6,362.4,20.5,360.9,21.4L360.9,21.4z M362.2,24
	c1.6-0.6,10.8,3.5,12,7.9C369.7,32.6,362.3,25.7,362.2,24L362.2,24z M361.6,24.6c1.7,0.3,7.6,8.5,6.4,12.8
	C363.8,35.8,360.8,26.1,361.6,24.6L361.6,24.6z M360.7,24.7c1.3,1.1,2.4,11.1-0.9,14.3C357,35.5,359.3,25.7,360.7,24.7L360.7,24.7z
	 M359.9,24.5c0.6,1.6-3.5,10.8-7.9,12C351.3,31.9,358.2,24.6,359.9,24.5L359.9,24.5z M359.3,23.8c-0.3,1.7-8.5,7.6-12.8,6.4
	C348.1,26,357.8,23.1,359.3,23.8L359.3,23.8z M359.2,23c-1.1,1.3-11.1,2.4-14.3-0.9C348.4,19.2,358.2,21.6,359.2,23L359.2,23z
	 M359.4,22.1c-1.6,0.6-10.8-3.5-12-7.9C352,13.5,359.3,20.5,359.4,22.1L359.4,22.1z M360.1,21.6c-1.7-0.3-7.6-8.5-6.4-12.8
	C357.9,10.4,360.9,20.1,360.1,21.6L360.1,21.6z M361.8,21.7c-0.6-1.6,3.5-10.8,7.9-12C370.4,14.2,363.5,21.6,361.8,21.7L361.8,21.7z
	 M362.3,22.3c0.3-1.7,8.5-7.6,12.8-6.4C373.5,20.2,363.8,23.1,362.3,22.3L362.3,22.3z M362.5,23.2c1.1-1.3,11.1-2.4,14.3,0.9
	C373.3,26.9,363.4,24.6,362.5,23.2L362.5,23.2z"/>
<path class="st1" d="M361.3,21.5c-1-1.4,0.2-11.4,4.1-13.7C367.4,11.8,362.9,20.9,361.3,21.5L361.3,21.5z M362,24.3
	c1.7-0.2,9.7,5.9,9.8,10.4C367.3,34.4,361.7,25.9,362,24.3L362,24.3z M361.2,24.7c1.5,0.7,5.5,10,3.3,14
	C360.8,36.1,360.1,26,361.2,24.7L361.2,24.7z M360.4,24.7c1,1.4-0.2,11.4-4.1,13.7C354.3,34.3,358.8,25.3,360.4,24.7L360.4,24.7z
	 M359.6,24.2c0.2,1.7-5.9,9.7-10.4,9.8C349.5,29.5,358,23.9,359.6,24.2L359.6,24.2z M359.2,23.5c-0.7,1.5-10,5.5-14,3.3
	C347.8,23,357.9,22.4,359.2,23.5L359.2,23.5z M359.2,22.6c-1.4,1-11.4-0.2-13.7-4.1C349.6,16.5,358.7,21,359.2,22.6L359.2,22.6z
	 M359.7,21.8c-1.7,0.2-9.7-5.9-9.8-10.4C354.4,11.7,360,20.2,359.7,21.8L359.7,21.8z M360.5,21.4c-1.5-0.7-5.5-10-3.3-14
	C360.9,10,361.5,20.1,360.5,21.4L360.5,21.4z M362.1,21.9c-0.2-1.7,5.9-9.7,10.4-9.8C372.2,16.6,363.7,22.2,362.1,21.9L362.1,21.9z
	 M362.5,22.7c0.7-1.5,10-5.5,14-3.3C373.9,23.2,363.8,23.8,362.5,22.7L362.5,22.7z M362.5,23.6c1.4-1,11.4,0.2,13.7,4.1
	C372.1,29.7,363,25.1,362.5,23.6L362.5,23.6z"/>
<path class="st0" d="M361.1,22.3c-0.5-0.6,0.1-5.4,2-6.5C364,17.7,361.8,22,361.1,22.3L361.1,22.3z M361.4,23.7
	c0.8-0.1,4.6,2.8,4.7,5C363.9,28.5,361.3,24.4,361.4,23.7L361.4,23.7z M361,23.8c0.7,0.3,2.6,4.7,1.6,6.6
	C360.8,29.3,360.5,24.5,361,23.8L361,23.8z M360.6,23.8c0.5,0.6-0.1,5.4-2,6.5C357.7,28.4,359.9,24.1,360.6,23.8L360.6,23.8z
	 M360.3,23.6c0.1,0.8-2.8,4.6-5,4.7C355.5,26.1,359.5,23.5,360.3,23.6L360.3,23.6z M360.1,23.3c-0.3,0.7-4.7,2.6-6.6,1.6
	C354.7,23,359.5,22.7,360.1,23.3L360.1,23.3z M360.1,22.8c-0.6,0.5-5.4-0.1-6.5-2C355.5,19.9,359.8,22.1,360.1,22.8L360.1,22.8z
	 M360.3,22.5c-0.8,0.1-4.6-2.8-4.7-5C357.8,17.7,360.4,21.7,360.3,22.5L360.3,22.5z M360.7,22.3c-0.7-0.3-2.6-4.7-1.6-6.6
	C360.9,16.9,361.2,21.7,360.7,22.3L360.7,22.3z M361.4,22.5c-0.1-0.8,2.8-4.6,5-4.7C366.2,20,362.2,22.7,361.4,22.5L361.4,22.5z
	 M361.6,22.9c0.3-0.7,4.7-2.6,6.6-1.6C367,23.1,362.2,23.4,361.6,22.9L361.6,22.9z M361.6,23.3c0.6-0.5,5.4,0.1,6.5,2
	C366.2,26.2,361.9,24.1,361.6,23.3L361.6,23.3z"/>
<path class="st4" d="M363.7,23.2c0.1-2.3-2.4-4.1-4.9-2.4c-2,2.3-0.5,5,1.8,5.1C362.3,26,363.6,24.8,363.7,23.2L363.7,23.2z"/>
</svg>
