<?xml version="1.0" encoding="utf-8"?>
<!-- Generator: Adobe Illustrator 19.1.0, SVG Export Plug-In . SVG Version: 6.00 Build 0)  -->
<svg version="1.1" id="图层_1" xmlns="http://www.w3.org/2000/svg" xmlns:xlink="http://www.w3.org/1999/xlink" x="0px" y="0px"
	 viewBox="-240 333.1 129.4 127.9" style="enable-background:new -240 333.1 129.4 127.9;" xml:space="preserve">
<style type="text/css">
	.st0{fill:#E99F90;}
	.st1{fill:#B17F49;}
	.st2{fill:#FFFCEB;}
</style>
<g>
	<path class="st0" d="M-135.6,453.1c-10.8-63.3-22.7-65.3-22.7-65.3c3.5,0,6-16.7,6-16.7c6-7.4-1.3-15.5-1.3-15.5
		c4.5-8.6,10.5-7.9,10.5-7.9l-0.3-1.7c-1.9-10.2-14.4-8.8-14.4-8.8c-2.9-0.2-7.1-3.1-7.1-3.1l-11,3.8l-10.9-3.8c0,0-4.2,2.9-7.1,3.1
		c0,0-12.5-1.4-14.4,8.8l-0.3,1.7c0,0,6-0.7,10.5,7.9c0,0-7.3,8.1-1.3,15.5c0,0,2.4,16.6,6,16.7c0,0-11.9,2-22.7,65.3
		c0,0,16,6.3,40.5,6.3v0C-151.4,459.2-135.6,453.1-135.6,453.1z"/>
	<rect x="-194.7" y="386.5" class="st1" width="37.6" height="2.5"/>
	<g>
		<path class="st2" d="M-193,337.1c0,0-1.3,10.1,9.8,8.7c2.9-0.4,6-3,7.3-7.8l-10.5-4.9L-193,337.1z"/>
		<path class="st2" d="M-158.7,337.1l-6.6-4l-10.5,4.9c1.3,4.8,4.4,7.4,7.3,7.8C-157.4,347.2-158.7,337.1-158.7,337.1z"/>
	</g>
</g>
</svg>
