<?xml version="1.0" encoding="utf-8"?>
<!-- Generator: Adobe Illustrator 19.1.0, SVG Export Plug-In . SVG Version: 6.00 Build 0)  -->
<svg version="1.1" id="图层_1" xmlns="http://www.w3.org/2000/svg" xmlns:xlink="http://www.w3.org/1999/xlink" x="0px" y="0px"
	 viewBox="0 0 191 246.6" style="enable-background:new 0 0 191 246.6;" xml:space="preserve">
<style type="text/css">
	.st0{fill-rule:evenodd;clip-rule:evenodd;fill:#941E23;}
	.st1{fill-rule:evenodd;clip-rule:evenodd;fill:#3C080E;}
	.st2{fill:#941E23;}
	.st3{fill:#A32632;}
	.st4{fill-rule:evenodd;clip-rule:evenodd;fill:#7B181D;}
	.st5{fill-rule:evenodd;clip-rule:evenodd;fill:#44060C;}
	.st6{fill:#44060C;}
	.st7{fill-rule:evenodd;clip-rule:evenodd;fill:#74161B;}
	.st8{fill-rule:evenodd;clip-rule:evenodd;fill:#A48B77;}
	.st9{fill-rule:evenodd;clip-rule:evenodd;fill:#DFD5CB;}
</style>
<g>
	<path class="st0" d="M38,52.1c0,0-6.8,3.5-12.8,5.4c-6,1.9-10.2,10.1-13.6,35.8C8.2,119,6.5,131,5.2,138.4c-1.3,7.4,1.7,7.8,2.1,21
		c0.4,13.2-0.9,34.2-2.6,42.4c-1.7,8.2-5.5,31.1-4.7,37.3c0.9,6.2,1.5-0.9,1.1,2.6c-0.4,3.5,3.6,3.2,13,2.8
		c9.4-0.4,15.3,3.1,15.3-3.9c0-7-0.9,5.5,1.3-2.7c2.1-8.2,0.9-19.1,1.3-28c0.4-8.9,1.3-14.8,2.6-25.7c1.3-10.9,0.4-20.6,3-32.3
		c2.6-11.7,4.7-29.2,6-36.2c1.3-7,1.8-8.3,2.6-0.9c0.9,7.4-0.5,23.5-0.5,29.7c0,6.2-3.8,21-5.5,29.6c-1.7,8.6-2.6,32.7-4.3,39.3
		c-1.7,6.6-5.1,12.8,11.1,15.9s61.6,5.4,67.6,3.9c6-1.6,0-1.6,9.8-2.7c9.8-1.2,20.8-2.3,25.1-3.5c4.3-1.2,0.4-6.2,0.4-13.2
		c0-7-2.6-26.4-5.5-40.8c-3-14.4-6-26.8-6.4-37.7c-0.4-10.9-0.9-22.9-0.4-28.8c0.4-5.8,1.4-5.9,2.9-7.4c1.4-1.6,0.8,0.1,0.4,4.5
		c-0.4,4.3,2.2,20.4,3,25.9c0.9,5.5,2.2,16.1,3,24.8c0.9,8.7,2.9,19.8,5.2,31.7c2.3,11.9,5.8,40.4,6.1,45.4c0.3,5,0.6-2.7,1.7,3.6
		c1.2,6.3,3.2,4.9,3.7,9.1c0.6,4.2,4.9,2.1,15.3,0.8c10.4-1.3,12.8,0.6,11.7-5.2c-1.2-5.8,0.8-0.9,0.1-4.4
		c-0.6-3.2-6.6-31.7-8.7-39.6c-2-7.9-4-24-3.5-29.3c0.6-5.3-2-7.9-1.4-12.9c0.6-5-3.5-34.6-4.9-46.7c-1.4-12.1-4.3-37.7-7.8-43.3
		c-3.5-5.5-7.2-7.9-11.8-9.5c-4.6-1.6-11.8-5-11.8-5s9.5-3.2,10.1-6.6c0.6-3.4,1.7-10.3-14.4-16.9C120.2,19,98,11.1,85.3,13.2
		c-12.7,2.1-40.4,11.6-48.5,18.7C28.8,39,29.1,44.8,38,52.1L38,52.1z"/>
	<path class="st1" d="M77.7,61.9c2,0.9,2.8,3.1,1.8,4.9c-1,1.8-3.4,2.6-5.4,1.7c-2-0.9-2.8-3.1-1.8-4.9C73.3,61.7,75.7,61,77.7,61.9
		L77.7,61.9z M76.8,66.3c0.3,0.2,0.5,0.5,0.3,0.8c-0.2,0.3-0.6,0.4-0.9,0.3c-0.3-0.2-0.5-0.5-0.3-0.8C76.1,66.2,76.5,66.1,76.8,66.3
		L76.8,66.3z M74.4,65.2c0.3,0.2,0.5,0.5,0.3,0.8c-0.2,0.3-0.6,0.4-0.9,0.3c-0.3-0.2-0.5-0.5-0.3-0.8C73.6,65.1,74,65,74.4,65.2
		L74.4,65.2z M75.6,62.9c0.3,0.2,0.5,0.5,0.3,0.8c-0.2,0.3-0.6,0.4-0.9,0.3c-0.3-0.2-0.5-0.5-0.3-0.8C74.8,62.9,75.2,62.8,75.6,62.9
		L75.6,62.9z M78,64c0.3,0.2,0.5,0.5,0.3,0.8c-0.2,0.3-0.6,0.4-0.9,0.3c-0.3-0.2-0.5-0.5-0.3-0.8C77.3,64,77.7,63.9,78,64L78,64z"/>
	<path class="st2" d="M74.3,66c-0.2,0.1-0.4,0.1-0.5-0.1c-0.1-0.1-0.1-0.4,0.1-0.5c0.4-0.3,0.9-0.5,1.5-0.8l0,0
		c0.1,0,0.2-0.1,0.3-0.1c-0.2-0.4-0.4-0.7-0.6-0.9c-0.1-0.1-0.1-0.3,0-0.5c0.1-0.1,0.4-0.1,0.5,0c0.3,0.3,0.5,0.6,0.8,1.1
		c0.4-0.1,0.9-0.1,1.4-0.1c0.2,0,0.4,0.1,0.4,0.3c0,0.2-0.2,0.3-0.4,0.3c-0.4,0-0.8,0.1-1.2,0.1c0.2,0.5,0.3,1.1,0.3,1.8
		c0,0.2-0.1,0.3-0.3,0.3c-0.2,0-0.4-0.1-0.4-0.3c0-0.6-0.1-1.2-0.3-1.6c-0.1,0-0.2,0.1-0.3,0.1l0,0l0,0C75.1,65.5,74.6,65.8,74.3,66
		L74.3,66z"/>
	<path class="st3" d="M118.7,225.2c-0.2,0-0.4-0.1-0.4-0.3c0-0.2,0.1-0.3,0.3-0.4c0.9-0.1,2.7-0.1,4.9-0.2c8-0.1,22.2-0.3,26.8-4.6
		c0.1-0.1,0.4-0.1,0.5,0c0.1,0.1,0.1,0.3,0,0.5c-4.9,4.4-19.3,4.7-27.3,4.8C121.3,225.1,119.6,225.1,118.7,225.2L118.7,225.2z"/>
	<path class="st4" d="M140,99.4c0.1-0.1,0.2-0.2,0.3-0.3c0.9-1,1-0.7,0.8,0.9c0.8-2.4,5.7-8.1,7.6-11.6c2-3.7,7.2-12.3,10.3-15.7
		c3.1-3.4,4.5-4.1,0.3-1.1c-4.2,3-8.8,12.2-11.4,16.4C145.3,92,142,97.4,140,99.4L140,99.4L140,99.4z"/>
	<path class="st4" d="M45.6,111.3c-0.7-4.6-2.2-8.4-5.1-15.5c-3-7.1-5.6-14.5-6.3-17.1c-0.7-2.6-5.9-8.5-7.9-9.9
		c-2-1.3,0.1,0.8,2.3,3c2.2,2.2,4.2,4.6,5.3,7.7c1.1,3.1,3.7,9,1.7,6.9c-2-2.1-4.4-3.1-1.3,0.2c3.1,3.3,3.5,3.9,5.9,9.5
		C42.3,101.7,44.4,106.4,45.6,111.3L45.6,111.3z"/>
	<path class="st4" d="M0,236c0,0.3,0,0.7,0,1c0.6-0.2,1.5-0.4,3.2-0.7c4.4-0.8,7.4-1.5,13.5-1.5c5.3,0,11.1,0.5,14.6,0.6
		c0-0.2,0.1-0.5,0.1-0.8c-0.5,0-1.1-0.1-1.7-0.1c-7.1-0.5-16-0.6-20.1,0C5.5,235.1,4,235.5,0,236L0,236z M34.7,183.2
		c0.2-2.2,0.4-4.4,0.5-6.6c-2.4-3.8-7.7-4.3-12.4-11.5c-4.9-7.6-14.6-18.9-10-11.1c4.6,7.8,10.7,12.7,13.6,16.9
		C29.1,174.6,34,175.2,34.7,183.2L34.7,183.2z M35.8,164.8c0.1-1.1,0.2-2.3,0.3-3.4c-3.6-4.8-14.9-20.8-10.8-14.1
		C29.3,153.9,34.7,159.6,35.8,164.8L35.8,164.8z M39.8,139.6c0.4-2.4,0.8-4.7,1.1-7c-0.1,0.2-0.2,0.3-0.4,0.3
		c-1.5,0.4-8.3-20.2-7-13.8c1.2,6.4,6.3,12.4,6.3,20C39.8,139.2,39.8,139.4,39.8,139.6L39.8,139.6z M42.9,119.6
		c0.2-1.4,0.4-2.7,0.6-3.7c0.1-0.6,0.2-1.1,0.3-1.5c0-0.1,0-0.3,0-0.4c-1,1.1-2.7,0.2-4.6-5.1c-1.9-5.3-7.8-14.2-4.9-8.2
		c2.9,6,7.3,15.6,8.5,18.7C42.8,119.4,42.8,119.5,42.9,119.6L42.9,119.6z"/>
	<path class="st5" d="M3.9,244.2c-1.6-0.4-0.6-1.1,3.2-1.4c3.9-0.3,14.9-0.6,18.1-0.1c3.1,0.5,3.7,1.8,0.8,1.9
		c-2.8,0.1-8.7-0.8-12.4-0.5C10.1,244.4,6.1,244.5,3.9,244.2L3.9,244.2z"/>
	<path class="st5" d="M178,242.8L178,242.8c4.3-0.8,15.2-0.3,12.6,0.4"/>
	<path class="st4" d="M158.3,235.6c0,0.2,0.1,0.5,0.1,0.7c3.6-0.8,8-1.9,10.5-2.2c5.7-0.9,11.4-1.1,17.4-1.1c2.1,0,3.3,0,4.2,0.1
		c0-0.2,0-0.4-0.1-0.6c-1.4-0.2-2.8-0.3-3.9-0.4c-4.7-0.2-13.2,0.9-17.7,1.4C165.7,233.8,161.4,234.7,158.3,235.6L158.3,235.6z"/>
	<path class="st3" d="M36.1,212.2c0,0.2-0.1,2,0,2.9c-0.1,3.1-0.2,7.3,14.3,9.5c6.3,0.9,16.4,1.8,26.7,2.5c16,1.1,32.3,1.7,34.7,1.6
		c2.3-0.1,2.1-4.1,1.9-10.3c-0.1-3.1-0.3-6.6-0.2-10.5c0.2-8,0.1-16-0.1-22.9c-0.1-3.6-0.1-6.9-0.1-9.6c0-3.9,0.1-9.6,0.2-15.4
		c0.1-6,0.2-12.2,0.2-16.9c0-3.9,0.2-11.3,0.5-19.1c0.3-9.8,0.6-20.2,0.5-24.9c-0.1-3-0.2-7.2-0.3-11.5c-0.2-7.8-0.5-15.6-0.5-18.7
		c0-5.6,0.7-5.4,0.7,0c0,3.2,0.2,11,0.5,18.7c0.1,4.4,0.2,8.5,0.3,11.5c0.1,4.7-0.2,15.1-0.5,24.9c-0.2,7.7-0.5,15-0.5,19.1
		c0,4.5-0.1,10.8-0.2,16.9c-0.1,5.7-0.2,11.3-0.2,15.4c0,2.9,0.1,6.1,0.1,9.6c0.1,6.9,0.3,14.9,0.1,22.9c-0.1,3.9,0,7.5,0.2,10.5
		c0.3,6.6,0.5,10.9-2.6,11c-2.4,0.1-18.7-0.6-34.8-1.6c-10.3-0.7-20.5-1.5-26.8-2.5c-15.2-2.3-15-7-14.9-10.3
		C35.4,214.9,35.8,213.5,36.1,212.2L36.1,212.2z"/>
	<path class="st3" d="M45.8,55.9c1.2,4,3.6,12,5.5,23.4c1.9,11.5,3.3,26.4,2.6,44.4c-0.6,15.9-2.1,33-3.5,49.2
		c-1.8,20.4-3.4,39.3-2.9,51.8l-0.7,0c-0.4-12.6,1.2-31.4,2.9-51.9c1.4-16.1,2.9-33.3,3.5-49.1c0.7-18-0.7-32.9-2.6-44.3
		C48.7,68,46.3,60,45.1,56L45.8,55.9L45.8,55.9z"/>
	<path class="st3" d="M141,49.1c-0.3,4.1-1.8,10.7-3.4,17.9c-2.4,10.6-5.1,22.7-5.1,31c0,6-0.4,12.6-0.8,19.9
		c-0.6,9.8-1.2,20.9-1.1,32.9c0.1,10.6,0.3,23.5,0.4,36.5c0.1,12.7,0.3,25.6,0.4,36.9l-0.7,0c-0.1-11.3-0.3-24.2-0.4-36.9
		c-0.1-13-0.3-25.8-0.4-36.5c-0.2-12.1,0.5-23.1,1.1-33c0.4-7.3,0.8-13.9,0.8-19.9c0-8.4,2.7-20.5,5.1-31.1
		c1.6-7.2,3.1-13.8,3.4-17.8L141,49.1L141,49.1z"/>
	<path class="st6" d="M137.6,164.2c0-0.2,0.1-0.3,0.3-0.4c0.2,0,0.4,0.1,0.4,0.3c0.7,3.5,2.6,11.5,4.6,19.4
		c1.8,7.2,3.7,14.4,4.8,18.2c0.1,0.2-0.1,0.4-0.3,0.4c-0.2,0-0.4-0.1-0.4-0.2c-1.1-3.7-3-10.9-4.8-18.2
		C140.2,175.7,138.3,167.7,137.6,164.2L137.6,164.2z"/>
	<path class="st5" d="M38.1,192.6c-0.1,1.4-0.2,2.8-0.3,4.1c0.9-3.6,2-7.8,3.1-12.1c2-7.9,3.8-15.9,4.6-19.4c0-0.2-0.1-0.3-0.3-0.4
		c-0.2,0-0.4,0.1-0.4,0.3c-0.7,3.5-2.6,11.5-4.6,19.4C39.5,187.3,38.8,190,38.1,192.6L38.1,192.6z"/>
	<path class="st3" d="M78.5,62.6c-0.2,0-0.3-0.2-0.3-0.4c0-0.2,0.2-0.3,0.4-0.3c3.4,0.4,7.7,0.8,12.6,0.8c4.9,0.1,10.3-0.2,15.8-1.3
		c0.2,0,0.4,0.1,0.4,0.3c0,0.2-0.1,0.4-0.3,0.4c-5.6,1.1-11.1,1.4-16,1.3C86.2,63.4,81.9,63,78.5,62.6L78.5,62.6z"/>
	<path class="st7" d="M86.6,60.7c2.1,0.3,10,0.6,12,0.1c2-0.4,0.3-0.9,2.3-2.8c2-1.9,9.3-10.3,12.1-12.9c2.8-2.5-8.8-1.2-19.2-1.2
		c-10.3,0-20.8-0.1-22.6-0.1c-1.8,0,1.5,2.5,6.6,7C82.8,55.3,86.6,57.2,86.6,60.7L86.6,60.7z"/>
	<path class="st4" d="M70.5,44.2c-1.8-2.4-3.3-9.6-7-8.7c-3.8,0.9-5.7,1-3.4-0.6c2.3-1.6,5.1-2.4,6.6,0
		C68.1,37.3,69.7,40.6,70.5,44.2L70.5,44.2z"/>
	<path class="st4" d="M113.1,44.6c2.6-2.5,4.3-5.7,8.7-7.9c4.4-2.2,6.7-2.8,3.6-2.8C122.3,33.8,116.4,38.9,113.1,44.6L113.1,44.6z"
		/>
	<path class="st4" d="M60,31c3.6-2.1,12-4.5,10-2.8c-2,1.6,0,2.4,2.9,2.4c2.9,0-0.5,1.5-5.2,1C63,31.1,58.2,32.2,60,31L60,31z"/>
	<path class="st4" d="M87.7,25.9c5.4-0.7,5.7,0.4,12,0.3c6.2-0.1,10.3-2.2,13.1-0.6c2.8,1.6,1.8,1.5-1,1c-2.8-0.4-4.6,3.3-10,3.3
		c-5.4,0-8.4-2.5-11.1-2.5C87.9,27.4,81.2,26.2,87.7,25.9L87.7,25.9z"/>
	<path class="st5" d="M83.6,59.7c-1.3-1.8-5.2,0.4-10.3,1.9c-5.1,1.5-9.3,3.1-12.3,1.8c-2.9-1.3-3.8-1.5-4.1-4.8
		c-0.3-3.3-0.3-3.9-0.3-3.9s-6.1,1.5-10.6,0.7c-4.6-0.7-15.7-1.1-17.3-2.4c-0.7-0.6,4.6,2.2,5.2,4.8c0.5,2,3.4,3.8,6.3,3.3
		c1.8-0.3,2.6,2.1,3.9,2.1c6.9,0.2,7.4-2,9.7-2.7c0,0,0.7,1.4,1.9,1c1.3-0.4,2.6,1.5,4.5,2.1c2,0.6,0.1,3.5,5.7,2.1
		C71.5,64.4,77,59.8,83.6,59.7L83.6,59.7z"/>
	<path class="st5" d="M101.1,60.1c0.8-1.3,2.5-1.3,5.2,0.7c2.7,2,6,3.5,9.6,4.1c3.6,0.6,5.7-0.3,7.1-1.8c1.4-1.5,1.9-5.1,2.9-8.3
		c1-3.1,1.4-4.3,2.4-6.5c0.9-2.2,2.3-3.2,3.1-6.7c0.8-3.4,1.8-7.6-3.2-12.5c-5-5-8-8-19.7-7.7c-11.7,0.3-29.3,0.7-37.9,2.1
		c-8.6,1.4-20.2,5.4-19.6,10.7c0.6,5.4,2.1,12.9,3.5,15.6c1.4,2.6,2,5,2,5s-1.5-1.2-2.7-4.7c-1.2-3.4-3.6-12.1-3.3-15.8
		c0.3-3.7,4.4-8.9,19.6-11.3c15.2-2.3,32.5-1.9,38.2-1.9c5.7,0,11.9-1,20.6,7.8c8.7,8.8,1.8,5,5.3,6.2c3.5,1.2,4.1,1.9,1.7,2.2
		c-2.4,0.3-1.2,3.4-2.4,5c-1.2,1.5-0.3,4-1.7,4c-1.4,0-1.7,0.3-2.1,1.5c-0.5,1.2-0.9,1.4,2.3,1.7c3.2,0.3,6.8,0,8.2-0.2
		c1.4-0.3,0.9,0.2,0.9,0.2s4.5,2.1,5.6,2.5c0.8,0.3-4.3,3.8-7.6,2.1c-3.8-1.9-1.4,0.7-2.3,0.6c-3.9-0.1-5.8-1.4-6.3,0.3
		c-0.5,1.7-0.4,4.8-2.1,7.7c-1.7,2.9-6.2,5.9-8.9,5.3c-2.6-0.7-2.9-1.9-7.2-3.3C107.9,63,103.1,59,101.1,60.1L101.1,60.1z"/>
	<path class="st4" d="M178.4,170c0-1.4,0-2.7,0.1-3.6c0.1-1.1,0.1-2,0-2.9c-0.1,0.4-0.2,0.9-0.4,1.3c-1.3,4.5-3.2,8.1-0.6,5.7
		C177.8,170.3,178.1,170.1,178.4,170L178.4,170z M176.9,155.5c0-0.6,0-1.3,0.1-2c0.2-1.9-0.2-7.3-0.9-13.9c-0.6,1-1,1.9-1,2.9
		c0.2,4,1.7,9.8-2.3,11.6c-4,1.7-10.2,9.5-5.9,5.7c4.3-3.8,7.6-7.4,9.8-4.5C176.8,155.4,176.9,155.5,176.9,155.5L176.9,155.5z
		 M170.2,91.3c-0.6-4.2-1.2-8.6-1.9-12.5c-0.1,0.7-0.2,1.6-0.2,2.5c-2.1,5.4-14,38.5-9.4,29.5c4.5-9,9.3-31.1,11.1-21.3
		C169.9,90.1,170,90.7,170.2,91.3L170.2,91.3z"/>
	<path class="st4" d="M156.1,163.9c1.4-7.9,15-15.2,9.4-10.6C159.9,158,154.3,168.6,156.1,163.9L156.1,163.9z"/>
	<path class="st1" d="M78.3,98.3c2,0.9,2.8,3.1,1.8,4.9c-1,1.8-3.4,2.6-5.4,1.7c-2-0.9-2.8-3.1-1.8-4.9
		C73.9,98.2,76.3,97.4,78.3,98.3L78.3,98.3z M77.4,102.8c0.3,0.2,0.5,0.5,0.3,0.8c-0.2,0.3-0.6,0.4-0.9,0.3
		c-0.3-0.2-0.5-0.5-0.3-0.8C76.7,102.7,77.1,102.6,77.4,102.8L77.4,102.8z M75,101.7c0.3,0.2,0.5,0.5,0.3,0.8
		c-0.2,0.3-0.6,0.4-0.9,0.3c-0.3-0.2-0.5-0.5-0.3-0.8C74.2,101.6,74.6,101.5,75,101.7L75,101.7z M76.2,99.4c0.3,0.2,0.5,0.5,0.3,0.8
		s-0.6,0.4-0.9,0.3c-0.3-0.2-0.5-0.5-0.3-0.8C75.4,99.4,75.8,99.3,76.2,99.4L76.2,99.4z M78.6,100.5c0.3,0.2,0.5,0.5,0.3,0.8
		c-0.2,0.3-0.6,0.4-0.9,0.3c-0.3-0.2-0.5-0.5-0.3-0.8C77.9,100.5,78.3,100.4,78.6,100.5L78.6,100.5z"/>
	<path class="st2" d="M74.9,102.5c-0.2,0.1-0.4,0.1-0.5-0.1c-0.1-0.1-0.1-0.4,0.1-0.5c0.4-0.3,0.9-0.5,1.5-0.8l0,0
		c0.1,0,0.2-0.1,0.3-0.1c-0.2-0.4-0.4-0.7-0.6-0.9c-0.1-0.1-0.1-0.3,0-0.5c0.1-0.1,0.4-0.1,0.5,0c0.3,0.3,0.5,0.6,0.8,1.1
		c0.4-0.1,0.9-0.1,1.4-0.1c0.2,0,0.4,0.1,0.4,0.3c0,0.2-0.2,0.3-0.4,0.3c-0.4,0-0.8,0.1-1.2,0.1c0.2,0.5,0.3,1.1,0.3,1.8
		c0,0.2-0.1,0.3-0.3,0.3c-0.2,0-0.4-0.1-0.4-0.3c0-0.6-0.1-1.2-0.3-1.6c-0.1,0-0.2,0.1-0.3,0.1l0,0h0
		C75.7,102,75.2,102.2,74.9,102.5L74.9,102.5z"/>
	<path class="st1" d="M76.7,142.4c2,0.9,2.8,3.1,1.8,4.9c-1,1.8-3.4,2.6-5.4,1.7c-2-0.9-2.8-3.1-1.8-4.9
		C72.3,142.3,74.7,141.5,76.7,142.4L76.7,142.4z M75.9,146.8c0.3,0.2,0.5,0.5,0.3,0.8c-0.2,0.3-0.6,0.4-0.9,0.3
		c-0.3-0.2-0.5-0.5-0.3-0.8C75.1,146.8,75.5,146.7,75.9,146.8L75.9,146.8z M73.4,145.7c0.3,0.2,0.5,0.5,0.3,0.8
		c-0.2,0.3-0.6,0.4-0.9,0.3c-0.3-0.2-0.5-0.5-0.3-0.8C72.7,145.7,73.1,145.6,73.4,145.7L73.4,145.7z M74.6,143.5
		c0.3,0.2,0.5,0.5,0.3,0.8c-0.2,0.3-0.6,0.4-0.9,0.3c-0.3-0.2-0.5-0.5-0.3-0.8C73.9,143.5,74.3,143.3,74.6,143.5L74.6,143.5z
		 M77.1,144.6c0.3,0.2,0.5,0.5,0.3,0.8c-0.2,0.3-0.6,0.4-0.9,0.3c-0.3-0.2-0.5-0.5-0.3-0.8C76.3,144.6,76.7,144.5,77.1,144.6
		L77.1,144.6z"/>
	<path class="st2" d="M73.3,146.5c-0.2,0.1-0.4,0.1-0.5-0.1c-0.1-0.1-0.1-0.4,0.1-0.5c0.4-0.3,0.9-0.5,1.5-0.8v0
		c0.1,0,0.2-0.1,0.3-0.1c-0.2-0.4-0.4-0.7-0.6-0.9c-0.1-0.1-0.1-0.3,0-0.5c0.1-0.1,0.4-0.1,0.5,0c0.3,0.3,0.5,0.6,0.8,1.1
		c0.4-0.1,0.9-0.1,1.4-0.1c0.2,0,0.4,0.1,0.4,0.3c0,0.2-0.2,0.3-0.4,0.3c-0.4,0-0.8,0.1-1.2,0.1c0.2,0.5,0.3,1.1,0.3,1.8
		c0,0.2-0.1,0.3-0.3,0.3c-0.2,0-0.4-0.1-0.4-0.3c0-0.6-0.1-1.2-0.3-1.6c-0.1,0-0.2,0.1-0.3,0.1l0,0l0,0
		C74.1,146.1,73.7,146.3,73.3,146.5L73.3,146.5z"/>
	<path class="st1" d="M77.2,187.1c2,0.9,2.8,3.1,1.8,4.9c-1,1.8-3.4,2.6-5.4,1.7c-2-0.9-2.8-3.1-1.8-4.9
		C72.7,186.9,75.2,186.2,77.2,187.1L77.2,187.1z M76.3,191.5c0.3,0.2,0.5,0.5,0.3,0.8c-0.2,0.3-0.6,0.4-0.9,0.3
		c-0.3-0.2-0.5-0.5-0.3-0.8C75.5,191.5,75.9,191.3,76.3,191.5L76.3,191.5z M73.8,190.4c0.3,0.2,0.5,0.5,0.3,0.8
		c-0.2,0.3-0.6,0.4-0.9,0.3c-0.3-0.2-0.5-0.5-0.3-0.8C73.1,190.4,73.5,190.2,73.8,190.4L73.8,190.4z M75,188.2
		c0.3,0.2,0.5,0.5,0.3,0.8c-0.2,0.3-0.6,0.4-0.9,0.3c-0.3-0.2-0.5-0.5-0.3-0.8C74.3,188.1,74.7,188,75,188.2L75,188.2z M77.5,189.3
		c0.3,0.2,0.5,0.5,0.3,0.8c-0.2,0.3-0.6,0.4-0.9,0.3c-0.3-0.2-0.5-0.5-0.3-0.8C76.7,189.2,77.1,189.1,77.5,189.3L77.5,189.3z"/>
	<path class="st2" d="M73.8,191.2c-0.2,0.1-0.4,0.1-0.5-0.1c-0.1-0.1-0.1-0.4,0.1-0.5c0.4-0.3,0.9-0.5,1.5-0.8l0,0
		c0.1,0,0.2-0.1,0.3-0.1c-0.2-0.4-0.4-0.7-0.6-0.9c-0.1-0.1-0.1-0.3,0-0.5c0.1-0.1,0.4-0.1,0.5,0c0.3,0.3,0.5,0.6,0.8,1.1
		c0.4-0.1,0.9-0.1,1.4-0.1c0.2,0,0.4,0.1,0.4,0.3c0,0.2-0.2,0.3-0.4,0.3c-0.4,0-0.8,0.1-1.2,0.1c0.2,0.5,0.3,1.1,0.3,1.8
		c0,0.2-0.1,0.3-0.3,0.3c-0.2,0-0.4-0.1-0.4-0.3c0-0.6-0.1-1.2-0.3-1.6c-0.1,0-0.2,0.1-0.3,0.1l0,0h0
		C74.5,190.7,74.1,191,73.8,191.2L73.8,191.2z"/>
	<path class="st5" d="M38,52.1c0,0-1.2,0.6-3,1.4c5.7,1.3,12.3,2.2,20.7,2.1c-0.2-1.1-0.5-2.3-0.6-2.8l0,0c-0.4-0.7-0.9-1.6-1.3-2.8
		c-1.2-3.4-3.6-12.1-3.3-15.8c0.3-3.7,4.4-8.9,19.6-11.3c15.2-2.3,32.5-1.9,38.2-1.9c5.7,0,11.9-1,20.6,7.8c8.7,8.8,1.8,5,5.3,6.2
		c3.5,1.2,4.1,1.9,1.7,2.2c-2.4,0.3-1.2,3.4-2.4,5c-1.2,1.5-0.3,4-1.7,4c-1.4,0-1.7,0.3-2.1,1.5c-0.5,1.2-0.9,1.4,2.3,1.7
		c3.2,0.3,6.8,0,8.2-0.2c0.5-0.1,0.8-0.1,0.9-0.1c1.6-0.6,9.3-3.4,9.8-6.5c0.6-3.4,1.7-10.3-14.4-16.9C120.2,19,98,11.1,85.3,13.2
		c-12.7,2.1-40.4,11.6-48.5,18.7C28.8,39,29.1,44.8,38,52.1L38,52.1z"/>
	<path class="st8" d="M53.5,58.8c-4.9,4.1-10.3,5.1-10.3,2.3c0-2.9-8.1,0.5-8.1-3.2c0-3.7-11.1-1-9-4.8s-8.4-6.2-5.2-7.8
		c3.1-1.6-8.1-8.3-1.9-10.8c6.3-2.5-1.1-7.5,6.5-8.3c7.6-0.8,7-11.6,10.1-9.2c3.1,2.5,4.6-6.3,11.3-3.5c6.7,2.9,9.1-8.4,11.3-6.4
		c2.2,2,7-4.4,7.9-2c0.9,2.5,8-6.8,13.8-3.5c5.8,3.3,4.5-1.9,8.5-0.3c4,1.6,12.3-3.9,11.8-0.2c-0.4,3.7,5.3-2.5,8.9,2.1
		c3.6,4.6,10.6-0.6,10.5,3.4c-0.1,4.4,9.6-0.5,10.1,2.8c0.4,3.3,8.6-0.4,10.4,4.9c1.8,5.3,10.6,5.3,10.1,9.4
		c-0.4,4.1,7.3,1.8,5.9,4.6c-1.3,2.9,8.6,6.7,5.1,8.8c-3.6,2-3.4,6.7-6.5,7.5c-3.1,0.8-2.7,6.1-4.9,6.1c-2.2,0-7.6,3-10.3,2
		c-1.4-0.5-4.3-1.8-4.4-0.8c-0.2,2.4-2.2-0.5-4.5,1.4c-0.7,0.6-2.6,0.4-2.7-1.3c0.9-0.6,0.7-1.8,0.9-2.6c0.3-1.1,0.8-1.6,0.8-2
		c0.1-0.5,0.4-1.4,1.2-1.4c1-0.1,1.6-0.1,1.7-0.8c0.1,0,0.1,0.1,0.2,0.1c4.9,2.9,7.2-2.5,12.1-0.9c4.9,1.6-3.1-5.5-0.4-7.1
		c2.7-1.6-4.5,0-4-3.3c0.4-3.3-4.5-3.7-4.9-5.7c-0.4-2-4.5-1.6-5.4-4.1c-0.9-2.5-13.4-2.9-9.9-3.7c3.6-0.8-6.7,0-11.2-2.9
		c-4.5-2.9-6.3-0.8-11.6-2.5c-5.4-1.6-5.8,3.7-9.9,1.2c-4-2.5-8.1,2.5-12.1,0.4c-4-2-9.4,6.6-9,3.7c0.4-2.9-10.3,6.1-10.3,3.3
		c0-2.9-2.2,1.6-6.3,2.5c-4,0.8-2.7,6.1-8.5,6.1c-5.8,0-0.4,4.9-5.4,5.3c-4.9,0.4,2.7,3.7,0,7c-2.7,3.3,4.5,2.5,7.6,5.7
		c3.1,3.3,3.6,0.9,6.1,2.6c2.5,1.7,3.4,0,5-0.9c0.6,1,1.2,1.9,1.8,2.4c-0.5,1.4-0.5,4.3-0.1,5.4C55.7,60.4,54.8,59.8,53.5,58.8
		L53.5,58.8z"/>
	<path class="st9" d="M53.1,56.7c-4.9,4.1-8.2,5.1-8.2,2.3c0-2.9-7.9-0.4-7.9-4.1c0-3.7-9,0.6-6.9-3.2c2.1-3.8-9.3-6.5-6.1-8.2
		c3.1-1.6-8.2-6.2-1.9-8.6c6.3-2.5-2.1-6.1,5.5-6.9c7.6-0.8,5.3-10.5,8.4-8.1c3.1,2.5,3.2-8.1,9.9-5.2c6.7,2.9,10.7-6.9,12.9-4.8
		c2.2,2,4.4-2.4,7.2,2.3c2.8,4.8,6.7-12.2,12.5-8.9c5.8,3.3,6.7-0.7,10.8,0.9c4,1.6,10,0.2,9.6,3.9c-0.4,3.7,6.3-5.6,9.9-1
		c3.6,4.6,6.5-4.7,10.6,2.1c2.3,3.8,8.1-0.5,8.5,2.8c0.4,3.3,7.6,0,9.4,5.3c1.8,5.3,10.8,4,10.4,8.1c-0.4,4.1,7.9,1.9,6.6,4.8
		c-1.3,2.9,3.9,5.3,0.3,7.3c-3.6,2-0.5,6.2-3.6,7c-3.1,0.8-1.9,4.2-4.1,4.2c-2.2,0-4.2,2.4-7,1.4c-1.4-0.5-5-0.4-5.1,0.6
		c-0.2,2.4-1.9-1-4.3,0.9c-0.7,0.6-2.2,1.7-2.3-0.1c0.3-0.6,0.3-1.4,0.5-2.1c0.3-1.1,0.5-0.5,0.5-1c0.1-0.5,0.4-1.5,0.8-1.6
		c0.7-0.1,1.4,1,2.5,1.3c1.3,0.4,1.2-1.5,3.7,0c2.7,1.5,3.6-3,7.2-1.8c4.9,1.6,1.9-4.5,4.6-6.1c2.7-1.6,0.9-3.7-4.5-6.6
		c-5.3-2.9-2.5-1.5-3.4-6.6c-0.9-5.1-6.4-1.9-7.3-4.3c-0.9-2.5-5.5-0.4-6.5-4.6c-1-4.1-10.3,4.3-15-0.1c-4.7-4.4-8.3-5-13.6-6.6
		C92.4,9.7,90,16.9,86,14.4c-4-2.5-6.5,1.5-10.5-0.5c-4-2-11.8,5.9-11.4,3c0.4-2.9-8.9,5.5-8.9,2.6c0-2.9-2.9,5.1-6.9,5.9
		c-4,0.8-4,2.9-9.8,2.9c-5.8,0-1.2,6.5-6.1,6.9c-4.9,0.4,3.1,4.4,0.4,7.7c-2.7,3.3,4.2,5,8.4,8.6c4.2,3.7,5,2.5,7.5,4.3
		c2.5,1.7,4.3-0.7,5.9-1.6c0.6,1,1.2-0.1,1.8,0.5C56.1,56.1,56,58,56.3,59C55.5,59.4,54.4,57.7,53.1,56.7L53.1,56.7z"/>
	<path class="st5" d="M116.3,66.3c0,1.1-0.2,13.8,0.4,24.6c0.7,10.8,0.7,17.2,0,27.7c-0.7,10.4,0.3,23.1,0.3,35.3
		c0,12.3,0.3,30.7-0.3,47s2.7,25.5,1,31.1c2.3-4.9-0.7-14.2-0.1-30.5c0.7-16.3,0.1-35.5,0.1-47.8c0-12.3-0.6-24.7,0.1-35.1
		c0.7-10.4,0.2-16.9-0.1-27.9C117.5,79.6,116.3,67.4,116.3,66.3L116.3,66.3z"/>
	<path class="st1" d="M113.6,64.8c0.6,1,0.7,2.3,0.1,3.4c-1,1.8-3.4,2.6-5.4,1.7c-2-0.9-2.8-3.1-1.8-4.9c0.6-1.2,1.9-1.9,3.2-2
		c1.3,0.7,2.5,1.3,3.2,1.6C113.1,64.5,113.3,64.6,113.6,64.8L113.6,64.8z M110.9,67.6c0.3,0.2,0.5,0.5,0.3,0.8
		c-0.2,0.3-0.6,0.4-0.9,0.3c-0.3-0.2-0.5-0.5-0.3-0.8C110.2,67.6,110.6,67.4,110.9,67.6L110.9,67.6z M108.5,66.5
		c0.3,0.2,0.5,0.5,0.3,0.8c-0.2,0.3-0.6,0.4-0.9,0.3c-0.3-0.2-0.5-0.5-0.3-0.8C107.7,66.5,108.1,66.3,108.5,66.5L108.5,66.5z
		 M109.7,64.3c0.3,0.2,0.5,0.5,0.3,0.8c-0.2,0.3-0.6,0.4-0.9,0.3c-0.3-0.2-0.5-0.5-0.3-0.8C108.9,64.2,109.3,64.1,109.7,64.3
		L109.7,64.3z M112.1,65.4c0.3,0.2,0.5,0.5,0.3,0.8c-0.2,0.3-0.6,0.4-0.9,0.3c-0.3-0.2-0.5-0.5-0.3-0.8
		C111.4,65.3,111.8,65.2,112.1,65.4L112.1,65.4z"/>
	<path class="st2" d="M108.4,67.3c-0.2,0.1-0.4,0.1-0.5-0.1c-0.1-0.1-0.1-0.4,0.1-0.5c0.4-0.3,0.9-0.5,1.5-0.8v0
		c0.1,0,0.2-0.1,0.3-0.1c-0.2-0.4-0.4-0.7-0.6-0.9c-0.1-0.1-0.1-0.3,0-0.5c0.1-0.1,0.4-0.1,0.5,0c0.3,0.3,0.5,0.6,0.8,1.1
		c0.4-0.1,0.9-0.1,1.4-0.1c0.2,0,0.4,0.1,0.4,0.3c0,0.2-0.2,0.3-0.4,0.3c-0.4,0-0.8,0.1-1.2,0.1c0.2,0.5,0.3,1.1,0.3,1.8
		c0,0.2-0.1,0.3-0.3,0.3c-0.2,0-0.4-0.1-0.4-0.3c0-0.6-0.1-1.2-0.3-1.6c-0.1,0-0.2,0.1-0.3,0.1l0,0l0,0
		C109.2,66.8,108.7,67.1,108.4,67.3L108.4,67.3z"/>
	<path class="st1" d="M112.6,96.6c2,0.9,2.8,3.1,1.8,4.9c-1,1.8-3.4,2.6-5.4,1.7c-2-0.9-2.8-3.1-1.8-4.9
		C108.2,96.4,110.6,95.7,112.6,96.6L112.6,96.6z M111.7,101c0.3,0.2,0.5,0.5,0.3,0.8c-0.2,0.3-0.6,0.4-0.9,0.3
		c-0.3-0.2-0.5-0.5-0.3-0.8C110.9,101,111.4,100.8,111.7,101L111.7,101z M109.3,99.9c0.3,0.2,0.5,0.5,0.3,0.8
		c-0.2,0.3-0.6,0.4-0.9,0.3c-0.3-0.2-0.5-0.5-0.3-0.8C108.5,99.9,108.9,99.7,109.3,99.9L109.3,99.9z M110.5,97.7
		c0.3,0.2,0.5,0.5,0.3,0.8c-0.2,0.3-0.6,0.4-0.9,0.3c-0.3-0.2-0.5-0.5-0.3-0.8C109.7,97.6,110.1,97.5,110.5,97.7L110.5,97.7z
		 M112.9,98.8c0.3,0.2,0.5,0.5,0.3,0.8c-0.2,0.3-0.6,0.4-0.9,0.3c-0.3-0.2-0.5-0.5-0.3-0.8C112.2,98.7,112.6,98.6,112.9,98.8
		L112.9,98.8z"/>
	<path class="st2" d="M109.2,100.7c-0.2,0.1-0.4,0.1-0.5-0.1c-0.1-0.1-0.1-0.4,0.1-0.5c0.4-0.3,0.9-0.5,1.5-0.8v0
		c0.1,0,0.2-0.1,0.3-0.1c-0.2-0.4-0.4-0.7-0.6-0.9c-0.1-0.1-0.1-0.3,0-0.5c0.1-0.1,0.4-0.1,0.5,0c0.3,0.3,0.5,0.6,0.8,1.1
		c0.4-0.1,0.9-0.1,1.4-0.1c0.2,0,0.4,0.1,0.4,0.3c0,0.2-0.2,0.3-0.4,0.3c-0.4,0-0.8,0.1-1.2,0.1c0.2,0.5,0.3,1.1,0.3,1.8
		c0,0.2-0.1,0.3-0.3,0.3c-0.2,0-0.4-0.1-0.4-0.3c0-0.6-0.1-1.2-0.3-1.6c-0.1,0-0.2,0.1-0.3,0.1l0,0l0,0
		C109.9,100.2,109.5,100.5,109.2,100.7L109.2,100.7z"/>
	<path class="st1" d="M111.4,141.8c2,0.9,2.8,3.1,1.8,4.9c-1,1.8-3.4,2.6-5.4,1.7c-2-0.9-2.8-3.1-1.8-4.9
		C107,141.7,109.4,140.9,111.4,141.8L111.4,141.8z M110.6,146.2c0.3,0.2,0.5,0.5,0.3,0.8c-0.2,0.3-0.6,0.4-0.9,0.3
		c-0.3-0.2-0.5-0.5-0.3-0.8C109.8,146.2,110.2,146.1,110.6,146.2L110.6,146.2z M108.1,145.1c0.3,0.2,0.5,0.5,0.3,0.8
		c-0.2,0.3-0.6,0.4-0.9,0.3c-0.3-0.2-0.5-0.5-0.3-0.8C107.4,145.1,107.8,145,108.1,145.1L108.1,145.1z M109.3,142.9
		c0.3,0.2,0.5,0.5,0.3,0.8c-0.2,0.3-0.6,0.4-0.9,0.3c-0.3-0.2-0.5-0.5-0.3-0.8C108.6,142.9,109,142.8,109.3,142.9L109.3,142.9z
		 M111.8,144c0.3,0.2,0.5,0.5,0.3,0.8c-0.2,0.3-0.6,0.4-0.9,0.3c-0.3-0.2-0.5-0.5-0.3-0.8C111,144,111.4,143.9,111.8,144L111.8,144z
		"/>
	<path class="st2" d="M108,146c-0.2,0.1-0.4,0.1-0.5-0.1c-0.1-0.1-0.1-0.4,0.1-0.5c0.4-0.3,0.9-0.5,1.5-0.8l0,0
		c0.1,0,0.2-0.1,0.3-0.1c-0.2-0.4-0.4-0.7-0.6-0.9c-0.1-0.1-0.1-0.3,0-0.5c0.1-0.1,0.4-0.1,0.5,0c0.3,0.3,0.5,0.6,0.8,1.1
		c0.4-0.1,0.9-0.1,1.4-0.1c0.2,0,0.4,0.1,0.4,0.3c0,0.2-0.2,0.3-0.4,0.3c-0.4,0-0.8,0.1-1.2,0.1c0.2,0.5,0.3,1.1,0.3,1.8
		c0,0.2-0.1,0.3-0.3,0.3c-0.2,0-0.4-0.1-0.4-0.3c0-0.6-0.1-1.2-0.3-1.6c-0.1,0-0.2,0.1-0.3,0.1v0l0,0
		C108.8,145.5,108.4,145.7,108,146L108,146z"/>
	<path class="st1" d="M111.9,186c2,0.9,2.8,3.1,1.8,4.9c-1,1.8-3.4,2.6-5.4,1.7c-2-0.9-2.8-3.1-1.8-4.9
		C107.5,185.9,109.9,185.1,111.9,186L111.9,186z M111.1,190.4c0.3,0.2,0.5,0.5,0.3,0.8c-0.2,0.3-0.6,0.4-0.9,0.3
		c-0.3-0.2-0.5-0.5-0.3-0.8C110.3,190.4,110.7,190.3,111.1,190.4L111.1,190.4z M108.6,189.3c0.3,0.2,0.5,0.5,0.3,0.8
		c-0.2,0.3-0.6,0.4-0.9,0.3c-0.3-0.2-0.5-0.5-0.3-0.8C107.9,189.3,108.3,189.2,108.6,189.3L108.6,189.3z M109.8,187.1
		c0.3,0.2,0.5,0.5,0.3,0.8c-0.2,0.3-0.6,0.4-0.9,0.3c-0.3-0.2-0.5-0.5-0.3-0.8C109.1,187.1,109.5,187,109.8,187.1L109.8,187.1z
		 M112.3,188.2c0.3,0.2,0.5,0.5,0.3,0.8c-0.2,0.3-0.6,0.4-0.9,0.3c-0.3-0.2-0.5-0.5-0.3-0.8C111.5,188.2,111.9,188.1,112.3,188.2
		L112.3,188.2z"/>
	<path class="st2" d="M108.5,190.2c-0.2,0.1-0.4,0.1-0.5-0.1c-0.1-0.1-0.1-0.4,0.1-0.5c0.4-0.3,0.9-0.5,1.5-0.8v0
		c0.1,0,0.2-0.1,0.3-0.1c-0.2-0.4-0.4-0.7-0.6-0.9c-0.1-0.1-0.1-0.3,0-0.5c0.1-0.1,0.4-0.1,0.5,0c0.3,0.3,0.5,0.6,0.8,1.1
		c0.4-0.1,0.9-0.1,1.4-0.1c0.2,0,0.4,0.1,0.4,0.3c0,0.2-0.2,0.3-0.4,0.3c-0.4,0-0.8,0.1-1.2,0.1c0.2,0.5,0.3,1.1,0.3,1.8
		c0,0.2-0.1,0.3-0.3,0.3c-0.2,0-0.4-0.1-0.4-0.3c0-0.6-0.1-1.2-0.3-1.6c-0.1,0-0.2,0.1-0.3,0.1l0,0l0,0
		C109.3,189.7,108.9,189.9,108.5,190.2L108.5,190.2z"/>
	<path class="st5" d="M82.9,59.7c0.2,0,0.5,0,0.7,0.1c3,1.9,16.4,2.1,18.3-0.2c0.2-0.1,0.3-0.3,0-0.2c-3.6,1.1-15.9,0.8-19.2-0.3
		C82.5,59,82.4,59.7,82.9,59.7L82.9,59.7z"/>
</g>
</svg>
