<?xml version="1.0" encoding="utf-8"?>
<!-- Generator: Adobe Illustrator 19.1.0, SVG Export Plug-In . SVG Version: 6.00 Build 0)  -->
<svg version="1.1" id="图层_1" xmlns="http://www.w3.org/2000/svg" xmlns:xlink="http://www.w3.org/1999/xlink" x="0px" y="0px"
	 viewBox="0 0 115.9 119.1" style="enable-background:new 0 0 115.9 119.1;" xml:space="preserve">
<style type="text/css">
	.st0{fill:#F5F6C4;}
	.st1{clip-path:url(#SVGID_2_);}
	.st2{fill:#BBD76C;}
	.st3{fill:#E61D47;}
	.st4{fill:#005933;}
	.st5{fill:#040000;}
</style>
<g>
	<g>
		<g>
			<path class="st0" d="M89.2,90.2c0-8.8-7.1-39.9-14.7-47.3c0,0,2.9-16.8,3.4-21.5c4.6,7.7,8.4,12.8,12.9,19.4
				c6.7,9.8,13.4,31,20,30.1c2.5-0.4,5.3-0.4,5.1-5.1c-0.3-4.9-3.1-9.1-7.9-19.1c-3.6-7.6-10.2-18.4-16.2-29.5c0,0-4-7-5.4-9.9
				C85.1,4.3,79.7-0.3,72.6,0c0,0-0.8,8.8-13.3,16C46.7,8.8,45.9,0,45.9,0C38.8-0.3,33.4,4.3,32,7.2S26,16,26,16
				c-18.3,31.5-27,47-26,50.8c0.5,1.9,4.8,5.4,8,3.2c2.1-1.5,6.9-11.6,12.7-19.4c5.3-7.1,11.8-21,19-26.5c0.4,4.8,4.3,18.8,4.3,18.8
				c-7.6,7.4-14.7,38.6-14.7,47.3s-9.5,17-9.5,17c9.5,12,39.5,11.9,39.5,11.9s30,0.1,39.5-11.9C98.7,107.2,89.2,99,89.2,90.2z"/>
			<g>
				<defs>
					<path id="SVGID_1_" d="M89.2,90.2c0-8.8-7.1-39.9-14.7-47.3c0,0,3-9,3.4-13.8c0,0,12.1-7.2,14.6-13c0,0-4.6-5.9-6-8.8
						C85.1,4.3,79.7-0.3,72.6,0c0,0-0.8,8.8-13.3,16C46.7,8.8,45.9,0,45.9,0C38.8-0.3,33.4,4.3,32,7.2S26,16,26,16
						c2.4,5.9,14.6,13,14.6,13C41,33.8,44,42.8,44,42.8c-7.6,7.4-14.7,38.6-14.7,47.3s-9.5,17-9.5,17c9.5,12,39.5,11.9,39.5,11.9
						s30,0.1,39.5-11.9C98.7,107.2,89.2,99,89.2,90.2z"/>
				</defs>
				<clipPath id="SVGID_2_">
					<use xlink:href="#SVGID_1_"  style="overflow:visible;"/>
				</clipPath>
				<g class="st1">
					<g>
						<path class="st2" d="M54.8,51.4C54.8,51.3,54.8,51.3,54.8,51.4c-0.1-0.7-0.7-1.5-1.2-1.5c-0.5-0.1-0.9,0-1.4,0.1
							c-0.2,0.1-0.4,0.2-0.6,0.4c-0.1,0.1-0.2,0.1-0.3,0.2c-0.3,0.3-0.7,0.6-0.9,1c-0.3,0.7-0.1,1.3,0.3,1.9c0.3,0.5,0.7,0.8,1.2,1
							c0.9,0.3,1.8-0.1,2.4-0.9c0.1-0.1,0.2-0.3,0.2-0.4C54.9,52.6,54.9,51.9,54.8,51.4z"/>
						<path class="st2" d="M71,49.2c-0.1-0.3-0.4-0.6-0.6-0.9c-0.8-0.7-1.9-1.1-3.1-1.1c0,0,0,0-0.1,0c-0.4-0.1-0.7,0-1,0.3
							c-0.2,0.2-0.3,0.4-0.3,0.7c-0.2,0.4-0.1,1,0.1,1.5c0.6,1.2,1.6,1.6,2.9,1.8c0.9,0.1,2,0,2.4-0.9C71.4,50.1,71.2,49.6,71,49.2z
							"/>
						<path class="st2" d="M67.1,33.3c-0.1-0.4-0.4-0.9-0.8-1.2c-0.2-0.3-0.6-0.6-1-0.6c-0.7,0-1.2,0.5-1.6,1.1
							c-0.3,0.3-0.6,0.7-0.7,1c-0.6,1.2-0.3,2.7,1,3.4C66.1,38,67.7,35,67.1,33.3z"/>
						<path class="st2" d="M78.1,22.4c-0.1-0.5-0.5-1.1-0.9-1.3c-0.8-0.4-3.1-1-3.9-0.2c0,0,0,0,0,0C73.1,21,73,21.1,73,21.3
							c0,0,0,0.1,0,0.1c-0.3,1.9,1.4,3.2,3.1,3.4c0.7,0.1,1.8,0,2.2-0.7C78.7,23.6,78.5,22.9,78.1,22.4z"/>
						<path class="st2" d="M81.3,9.5c-0.1-0.7-0.7-1.5-1.5-1.5c-0.1,0-0.2,0-0.4,0c-0.6,0-1.1,0.5-1.3,0.9c-0.8,1.3-0.9,3.4,0.7,4.2
							c0.5,0.3,1,0.2,1.4-0.1c1-0.4,1.3-2,1.2-2.9C81.4,9.9,81.4,9.7,81.3,9.5z"/>
						<path class="st2" d="M57.3,22c-0.5-0.7-1.2-1.2-2-1c-0.6,0.1-1.1,0.5-1.5,0.9c-0.5,0.4-0.9,0.9-1.1,1.5c0,0.1-0.1,0.3-0.1,0.4
							c-0.2,0.8,0.3,1.8,1,2.3c0.7,0.6,1.5,0.5,2.3,0.2C57.4,25.4,58.3,23.5,57.3,22z"/>
						<path class="st2" d="M44.4,17.4c-0.3-1.7-1.1-3.7-2.6-4.7c-0.5-0.3-1.1-0.5-1.6-0.2c0,0-0.1,0-0.1,0c-0.6,0.2-0.7,1.2-0.8,1.7
							c-0.2,1.6,0.7,3.3,2,4.2c0.6,0.4,1.4,0.7,2.1,0.7C44.3,19.2,44.6,18.1,44.4,17.4z"/>
						<path class="st2" d="M36.3,15.8c0.1-0.8-0.6-1.8-1.3-2.2c-0.6-0.3-1.3-0.3-1.9,0c-1,0.4-2.3,1.2-2.4,2.3
							c-0.4,0.7,0.2,1.8,0.8,2.2c0.6,0.4,1.2,0.6,1.9,0.6c0.5,0,1-0.1,1.4-0.4c0.1,0,0.1-0.1,0.2-0.1c0.7-0.4,1.1-1,1.3-1.7
							C36.3,16.2,36.3,16,36.3,15.8z"/>
						<path class="st2" d="M50.6,66.3c0-0.1,0-0.2-0.1-0.3c0.1-0.6-0.7-1.8-1.4-1.8c-0.3,0-0.5,0-0.8,0.1c-0.5,0-1,0.1-1.5,0.3
							c-0.3,0.1-0.6,0.3-0.8,0.5c-0.6,0.4-1.1,0.8-1.5,1.4c-0.5,0.8-0.5,1.7,0,2.5c0.6,0.9,1.4,1.1,2.4,1.3c1.5,0.2,2.9-1.2,3.4-2.6
							c0.1-0.2,0.2-0.4,0.2-0.5C50.7,66.8,50.7,66.5,50.6,66.3z"/>
						<path class="st2" d="M65.7,75.1c-0.1-0.6-0.4-1.2-1-1.7c-0.5-0.4-1-0.5-1.5-0.1c-0.5,0.1-1.1,0.4-1.4,1.1
							c-0.6,1-0.9,2.3-0.7,3.4c-0.1,1.6,1.4,3.7,3.1,2.6c0.6-0.4,1-1.5,1.2-2.1c0.3-0.7,0.4-1.4,0.2-2.1
							C65.7,75.9,65.8,75.5,65.7,75.1z"/>
						<path class="st2" d="M80.2,75.9c-0.1-0.7-0.6-1.3-1.3-1.6c-0.9-0.9-2.6-0.8-3.7,0c-1.5,1.1-2.7,3-1,4.6
							c0.9,0.8,2.4,0.8,3.5,0.3c0.9-0.4,2.4-1.3,2.6-2.4C80.4,76.5,80.3,76.1,80.2,75.9z"/>
						<path class="st2" d="M70.8,84.3c-0.5-0.7-1.1-1.1-1.9-1.2c-0.6,0-1.2,0.4-1.6,0.7c-1.2,0.8-2,2.1-1.3,3.5
							c0.7,1.4,2.6,2.5,3.9,1.2c0.7-0.8,1.3-1.9,1.1-2.9C71.2,85.2,71,84.6,70.8,84.3z"/>
						<path class="st2" d="M56.5,86.3c0-0.1-0.1-0.1-0.1-0.2c-0.1-0.6-0.7-1.3-1.4-1.4c-0.1,0-0.2,0-0.3,0c-0.6-0.1-1.1,0.1-1.6,0.7
							c-0.6,0.8-1.2,1.8-1.2,2.8c-0.4,1.6,1.1,4.1,2.9,3.2c0.7-0.3,1.2-1.3,1.5-2c0-0.1,0.1-0.1,0.1-0.2
							C56.8,88.4,57,87.2,56.5,86.3z"/>
						<path class="st2" d="M37.9,76.1c-0.2-0.7-0.9-1.6-1.6-2c-0.5-0.4-1.1-0.7-1.5-0.5c-0.7,0.4-0.6,1.7-0.6,2.4
							c-0.1,0.6,0,1.3,0.1,1.8c0.2,0.9,0.9,1.7,1.7,2.2c0.7,0.4,1.9,0.8,2.2-0.2c0,0,0-0.1,0-0.1C38.7,78.8,38.1,76.8,37.9,76.1z"/>
						<path class="st2" d="M41.3,51.4c-0.5-1-1.2-1.7-2.1-2.3c-0.6-0.5-1.6-0.9-2.2-0.2c-0.1,0.1-0.1,0.2-0.2,0.3c0,0-0.1,0-0.1,0
							c-0.6,0-0.4,0.8-0.2,1.3c-0.1,0.4-0.1,0.8,0,1.2c0.3,1,1,1.7,1.9,2.1c0.6,0.6,1.4,1.1,2.1,0.9c0.3,0.1,0.5,0.2,0.8,0.2
							c0.2,0,0.4-0.2,0.4-0.4C41.9,53.3,41.7,52.3,41.3,51.4z"/>
						<path class="st2" d="M35.6,91.9C35.6,91.9,35.6,91.9,35.6,91.9c0-0.1,0-0.1,0-0.2c0,0,0-0.1,0-0.1c0-0.3-0.1-0.5-0.2-0.8
							c-0.1-0.3-0.3-0.5-0.4-0.7c0,0,0-0.1-0.1-0.1c0,0,0,0,0,0c-0.1-0.1-0.2-0.2-0.3-0.3c-0.1-0.5-0.4-1-0.8-1.2
							c-0.3-0.1-0.8-0.3-1.2-0.4c-0.3-0.1-0.6-0.2-1-0.2c-0.3,0-0.5,0.2-0.7,0.4c-0.2,0.1-0.3,0.3-0.4,0.4c-0.4,0.7-0.1,1.5,0.2,2.1
							c0.4,1,1.3,1.8,2.3,2.4c1.1,0.6,2.4,0.6,2.7-0.8C35.6,92.3,35.6,92.1,35.6,91.9z"/>
						<path class="st2" d="M38.7,98c-0.6-0.1-1.2-0.1-1.7,0.2c-0.7,0.3-1.1,1.2-1.4,1.8c-0.4,0.8-0.6,1.7-0.2,2.6
							c0.5,1.1,1.4,1.3,2.5,1.3c1.5,0,2.8-1.9,3.2-3.1C41.7,99.3,40.2,97.9,38.7,98z"/>
						<path class="st2" d="M66.1,105.1c-0.3-0.6-0.9-1.4-1.7-1.5c-0.6-0.1-1.1,0.3-1.6,0.7c-0.1,0.1-0.1,0.1-0.2,0.2
							c-0.5,0.2-1,0.4-1.3,0.8c-0.5,0.6-1.2,1.4-1,2.2c0.2,0.9,0.9,1.5,1.7,1.8c0.2,0.1,0.3,0.2,0.5,0.2c0.4,0,0.7,0,0.9-0.2
							c0.2-0.1,0.5-0.2,0.7-0.4C65.4,108,66.9,106.9,66.1,105.1z"/>
						<path class="st2" d="M79.6,104.6c-0.1-0.5-0.3-1-0.6-1.4c-0.4-0.6-1.3-1.5-2.1-1c-0.1,0.1-0.2,0.2-0.3,0.3
							c-0.6,0.4-0.9,1.7-1,2.3c-0.3,1.5,0.1,3.3,1.9,3.8c0.7,0.2,1.1,0,1.5-0.4c0.1-0.1,0.3-0.2,0.4-0.3
							C80.1,107.1,80,105.6,79.6,104.6z"/>
						<path class="st2" d="M45.4,109.8c-0.3-1.2-1.1-1.6-2.2-1.7c-0.8-0.1-1.4,0.1-2,0.6c0,0,0,0,0,0c-1.2,0.5-2.4,1.5-1.8,2.8
							c0.2,0.5,0.6,0.9,0.9,1.1c0.3,0.2,0.6,0.4,0.9,0.5c0.1,0,0.2,0,0.3,0c0.6,0.1,1.2,0.1,1.8-0.1c0.8-0.3,1.3-1,1.6-1.8
							C45.3,110.8,45.5,110.4,45.4,109.8z"/>
						<path class="st2" d="M87,94.9C87,94.9,87,94.9,87,94.9c0-0.1-0.1-0.2-0.1-0.3c-0.1-0.4-0.6-1-0.8-1.1
							c-0.4-0.4-0.8-0.7-1.3-0.7c-0.3-0.3-0.6-0.6-1-0.6c-1.4,0.2-1.1,2.4-0.8,3.6c0,0.3,0.1,0.6,0.2,0.8c0.3,0.6,0.7,0.9,1.2,1.3
							c0.4,0.3,0.9,0.3,1.4,0.4c0.6,0.2,1.2-0.1,1.3-0.7C88,97,87.4,95.5,87,94.9z"/>
						<path class="st2" d="M84.2,57.2c-0.2-0.5-0.7-1.1-1.3-1.1c-0.8,0-1.4-0.1-2.1,0.4c-0.6,0.5-1.1,1.2-1.4,1.9
							c-0.3,0.7-0.4,1.3-0.2,2c0.3,0.8,1,1.5,2,1.5c1.2,0,2.5-1.2,2.9-2.3c0.2-0.4,0.2-0.9,0.1-1.3C84.4,58.1,84.3,57.5,84.2,57.2z"
							/>
						<path class="st2" d="M26.6,99.8c-0.4-0.5-0.8-0.9-1.2-1.1c-0.2-0.1-0.3-0.2-0.5-0.2c-0.2-0.2-0.4-0.4-0.6-0.6
							c-0.6-0.3-1.2-0.5-1.9-0.5c-1,0-1.1,0.6-1.1,1.4c0,0.5,0,1,0.2,1.5c0.2,1.6,1.4,2.7,2.9,3.3c0.7,0.3,1.5,0.4,2.2,0.1
							c0.4-0.2,0.7-0.6,0.7-1c0-0.1,0.1-0.2,0.1-0.3C27.9,101.4,27.4,100.5,26.6,99.8z"/>
						<path class="st2" d="M29.2,111.7c-0.1-0.4-0.3-0.7-0.5-0.9c-0.2-0.7-0.8-1.3-1.5-1.5c-0.8-0.2-1.5,0.2-2.1,0.8
							c-0.4,0.5-0.8,1-1,1.7c-0.2,0.3-0.4,0.6-0.5,0.9c-0.2,0.8,0.4,1.9,1.1,2.4c0.6,0.4,1.3,0.5,2,0.3c0.8-0.2,1.8-0.9,2.1-1.7
							C29.1,113,29.3,112.3,29.2,111.7z"/>
						<path class="st2" d="M64.5,116.1c-0.7-0.7-1.6-1-2.4-0.6c-0.1,0.1-0.3,0.1-0.4,0.2c-0.7,0.4-1.3,1-1.6,1.7
							c-0.2,0.3-0.4,0.7-0.6,1.1c-0.1,0.2,0,0.4,0,0.7c0,0.5,0.1,1,0.5,1.5c0.7,1.1,1.7,1.2,2.7,0.5
							C64.3,120.3,66.1,117.7,64.5,116.1z"/>
						<path class="st2" d="M69.5,12.9c-0.4-0.6-0.8-0.9-1.4-1c-0.2-0.1-0.4-0.2-0.6-0.2c-1.3,0.2-2.7,1.2-3,2.4
							c-0.3,1.2,0.8,2.6,2.1,2.5c0.8-0.1,1.8-0.6,2.4-1.1C69.9,14.8,70.2,13.9,69.5,12.9z"/>
						<path class="st2" d="M86.4,3.1C86.4,3,86.4,3,86.4,3.1c-0.7-2-3.9-2.5-5.4-1.3c-1.2,1-0.3,2.7,0.7,3.5
							c0.9,0.7,2.2,0.9,3.3,0.8c0.8,0,1.9-0.2,2.1-1.1C87.2,4.3,86.8,3.5,86.4,3.1z"/>
					</g>
					<g>
						<g>
							<path class="st3" d="M73,58.1l5.5,6c0,0-3.5,2.7-5.5,0.1C70.9,61.6,73,58.1,73,58.1z"/>
							<g>
								<path class="st4" d="M71.8,62.1c-0.2-2.1,1-4.1,1-4.2l0.4,0.4c0,0-2,3.3-0.1,5.7c0.5,0.6,1.1,0.9,1.7,1
									c1.7,0.2,3.4-1.1,3.4-1.1l0.3,0.4c-0.1,0.1-1.9,1.5-3.8,1.2c-0.8-0.1-1.5-0.5-2.1-1.2C72.1,63.6,71.9,62.8,71.8,62.1z"/>
							</g>
							
								<ellipse transform="matrix(0.1135 0.9935 -0.9935 0.1135 125.1448 -19.7873)" class="st5" cx="73.7" cy="60.2" rx="0.1" ry="0.2"/>
							
								<ellipse transform="matrix(0.1135 0.9935 -0.9935 0.1135 126.2753 -17.9259)" class="st5" cx="73.2" cy="61.8" rx="0.1" ry="0.2"/>
							
								<ellipse transform="matrix(0.1135 0.9935 -0.9935 0.1135 126.7423 -19.2093)" class="st5" cx="74.1" cy="61.4" rx="0.1" ry="0.2"/>
							
								<ellipse transform="matrix(0.1135 0.9935 -0.9935 0.1135 127.7244 -18.2409)" class="st5" cx="74.1" cy="62.5" rx="0.1" ry="0.2"/>
							
								<ellipse transform="matrix(0.1135 0.9935 -0.9935 0.1135 128.5433 -19.703)" class="st5" cx="75.3" cy="62.2" rx="0.1" ry="0.2"/>
							
								<ellipse transform="matrix(0.1135 0.9935 -0.9935 0.1135 128.4114 -17.206)" class="st5" cx="73.8" cy="63.4" rx="0.1" ry="0.2"/>
							
								<ellipse transform="matrix(0.1135 0.9935 -0.9935 0.1135 129.3796 -18.5627)" class="st5" cx="75.1" cy="63.2" rx="0.1" ry="0.2"/>
							
								<ellipse transform="matrix(0.1135 0.9935 -0.9935 0.1135 130.6931 -19.7743)" class="st5" cx="76.4" cy="63.4" rx="0.1" ry="0.2"/>
							
								<ellipse transform="matrix(0.1135 0.9935 -0.9935 0.1135 130.4562 -17.8025)" class="st5" cx="75.2" cy="64.2" rx="0.1" ry="0.2"/>
						</g>
						<g>
							<path class="st3" d="M38.8,34.2l8.2,0.4c0,0-0.5,4.3-3.8,3.9S38.8,34.2,38.8,34.2z"/>
							<g>
								<path class="st4" d="M40.9,37.8c-1.7-1.3-2.3-3.5-2.4-3.7l0.6,0c0,0,1,3.7,4.1,4c0.8,0.1,1.4-0.1,1.9-0.5
									c1.3-1,1.5-3.2,1.6-3.2l0.5,0.1c0,0.1-0.3,2.4-1.7,3.5c-0.7,0.5-1.4,0.7-2.3,0.6C42.3,38.7,41.5,38.3,40.9,37.8z"/>
							</g>
							
								<ellipse transform="matrix(0.7947 0.6069 -0.6069 0.7947 29.7646 -17.592)" class="st5" cx="40.9" cy="35.2" rx="0.1" ry="0.2"/>
							
								<ellipse transform="matrix(0.7947 0.6069 -0.6069 0.7947 30.7974 -17.7905)" class="st5" cx="41.7" cy="36.6" rx="0.1" ry="0.2"/>
							
								<ellipse transform="matrix(0.7947 0.6069 -0.6069 0.7947 30.3119 -18.2173)" class="st5" cx="42.1" cy="35.7" rx="0.1" ry="0.2"/>
							
								<ellipse transform="matrix(0.7947 0.6069 -0.6069 0.7947 30.9208 -18.4987)" class="st5" cx="42.8" cy="36.5" rx="0.1" ry="0.2"/>
							
								<ellipse transform="matrix(0.7947 0.6069 -0.6069 0.7947 30.4198 -19.1148)" class="st5" cx="43.5" cy="35.4" rx="0.1" ry="0.2"/>
							
								<ellipse transform="matrix(0.7947 0.6069 -0.6069 0.7947 31.5056 -18.6355)" class="st5" cx="43.3" cy="37.3" rx="0.1" ry="0.2"/>
							
								<ellipse transform="matrix(0.7947 0.6069 -0.6069 0.7947 31.0786 -19.3013)" class="st5" cx="44.1" cy="36.3" rx="0.1" ry="0.2"/>
							
								<ellipse transform="matrix(0.7947 0.6069 -0.6069 0.7947 30.7788 -20.099)" class="st5" cx="45.1" cy="35.5" rx="0.1" ry="0.2"/>
							
								<ellipse transform="matrix(0.7947 0.6069 -0.6069 0.7947 31.6121 -19.6605)" class="st5" cx="44.9" cy="36.9" rx="0.1" ry="0.2"/>
						</g>
						<g>
							<path class="st3" d="M34.4,57.9l5.5,6c0,0-3.5,2.7-5.5,0.1S34.4,57.9,34.4,57.9z"/>
							<g>
								<path class="st4" d="M33.2,61.9c-0.2-2.1,1-4.1,1-4.2l0.4,0.4c0,0-2,3.3-0.1,5.7c0.5,0.6,1.1,0.9,1.7,1
									c1.7,0.2,3.4-1.1,3.4-1.1l0.3,0.4c-0.1,0.1-1.9,1.5-3.8,1.2c-0.8-0.1-1.5-0.5-2.1-1.2C33.6,63.4,33.3,62.6,33.2,61.9z"/>
							</g>
							
								<ellipse transform="matrix(0.1135 0.9935 -0.9935 0.1135 90.7429 18.3624)" class="st5" cx="35.1" cy="60" rx="0.1" ry="0.2"/>
							
								<ellipse transform="matrix(0.1135 0.9935 -0.9935 0.1135 91.8735 20.2238)" class="st5" cx="34.6" cy="61.6" rx="0.1" ry="0.2"/>
							
								<ellipse transform="matrix(0.1135 0.9935 -0.9935 0.1135 92.3405 18.9404)" class="st5" cx="35.6" cy="61.2" rx="0.1" ry="0.2"/>
							
								<ellipse transform="matrix(0.1135 0.9935 -0.9935 0.1135 93.3225 19.9088)" class="st5" cx="35.5" cy="62.3" rx="0.1" ry="0.2"/>
							
								<ellipse transform="matrix(0.1135 0.9935 -0.9935 0.1135 94.1414 18.4467)" class="st5" cx="36.7" cy="62" rx="0.1" ry="0.2"/>
							
								<ellipse transform="matrix(0.1135 0.9935 -0.9935 0.1135 94.0095 20.9437)" class="st5" cx="35.3" cy="63.2" rx="0.1" ry="0.2"/>
							
								<ellipse transform="matrix(0.1135 0.9935 -0.9935 0.1135 94.9777 19.587)" class="st5" cx="36.5" cy="63" rx="0.1" ry="0.2"/>
							
								<ellipse transform="matrix(0.1135 0.9935 -0.9935 0.1135 96.2912 18.3754)" class="st5" cx="37.8" cy="63.1" rx="0.1" ry="0.2"/>
							
								<ellipse transform="matrix(0.1135 0.9935 -0.9935 0.1135 96.0544 20.3472)" class="st5" cx="36.6" cy="64" rx="0.1" ry="0.2"/>
						</g>
						<g>
							<path class="st3" d="M48.1,92.7l5.5,6c0,0-3.5,2.7-5.5,0.1C46,96.2,48.1,92.7,48.1,92.7z"/>
							<g>
								<path class="st4" d="M46.9,96.7c-0.2-2.1,1-4.1,1-4.2l0.4,0.4c0,0-2,3.3-0.1,5.7c0.5,0.6,1.1,0.9,1.7,1
									c1.7,0.2,3.4-1.1,3.4-1.1l0.3,0.4c-0.1,0.1-1.9,1.5-3.8,1.2c-0.8-0.1-1.5-0.5-2.1-1.2C47.3,98.2,47,97.4,46.9,96.7z"/>
							</g>
							
								<ellipse transform="matrix(0.1135 0.9935 -0.9935 0.1135 137.5014 35.5574)" class="st5" cx="48.8" cy="94.8" rx="0.1" ry="0.2"/>
							
								<ellipse transform="matrix(0.1135 0.9935 -0.9935 0.1135 138.6319 37.4188)" class="st5" cx="48.3" cy="96.4" rx="0.1" ry="0.2"/>
							
								<ellipse transform="matrix(0.1135 0.9935 -0.9935 0.1135 139.0989 36.1355)" class="st5" cx="49.3" cy="96" rx="0.1" ry="0.2"/>
							
								<ellipse transform="matrix(0.1135 0.9935 -0.9935 0.1135 140.081 37.1038)" class="st5" cx="49.2" cy="97" rx="0.1" ry="0.2"/>
							
								<ellipse transform="matrix(0.1135 0.9935 -0.9935 0.1135 140.8999 35.6417)" class="st5" cx="50.5" cy="96.8" rx="0.1" ry="0.2"/>
							<ellipse transform="matrix(0.1135 0.9935 -0.9935 0.1135 140.768 38.1388)" class="st5" cx="49" cy="98" rx="0.1" ry="0.2"/>
							
								<ellipse transform="matrix(0.1135 0.9935 -0.9935 0.1135 141.7362 36.7821)" class="st5" cx="50.3" cy="97.8" rx="0.1" ry="0.2"/>
							
								<ellipse transform="matrix(0.1135 0.9935 -0.9935 0.1135 143.0497 35.5704)" class="st5" cx="51.6" cy="97.9" rx="0.1" ry="0.2"/>
							
								<ellipse transform="matrix(0.1135 0.9935 -0.9935 0.1135 142.8128 37.5422)" class="st5" cx="50.4" cy="98.8" rx="0.1" ry="0.2"/>
						</g>
						<g>
							<path class="st3" d="M34.8,111.1l5.5,6c0,0-3.5,2.7-5.5,0.1S34.8,111.1,34.8,111.1z"/>
							<g>
								<path class="st4" d="M33.6,115.2c-0.2-2.1,1-4.1,1-4.2l0.4,0.4c0,0-2,3.3-0.1,5.7c0.5,0.6,1.1,0.9,1.7,1
									c1.7,0.2,3.4-1.1,3.4-1.1l0.3,0.4c-0.1,0.1-1.9,1.5-3.8,1.2c-0.8-0.1-1.5-0.5-2.1-1.2C34,116.7,33.7,115.9,33.6,115.2z"/>
							</g>
							
								<ellipse transform="matrix(0.1135 0.9935 -0.9935 0.1135 144.0554 65.1841)" class="st5" cx="35.5" cy="113.3" rx="0.1" ry="0.2"/>
							
								<ellipse transform="matrix(0.1135 0.9935 -0.9935 0.1135 145.1859 67.0454)" class="st5" cx="35" cy="114.9" rx="0.1" ry="0.2"/>
							
								<ellipse transform="matrix(0.1135 0.9935 -0.9935 0.1135 145.653 65.7621)" class="st5" cx="36" cy="114.5" rx="0.1" ry="0.2"/>
							
								<ellipse transform="matrix(0.1135 0.9935 -0.9935 0.1135 146.635 66.7304)" class="st5" cx="35.9" cy="115.5" rx="0.1" ry="0.2"/>
							
								<ellipse transform="matrix(0.1135 0.9935 -0.9935 0.1135 147.4539 65.2684)" class="st5" cx="37.2" cy="115.3" rx="0.1" ry="0.2"/>
							
								<ellipse transform="matrix(0.1135 0.9935 -0.9935 0.1135 147.322 67.7654)" class="st5" cx="35.7" cy="116.4" rx="0.1" ry="0.2"/>
							
								<ellipse transform="matrix(0.1135 0.9935 -0.9935 0.1135 148.2902 66.4087)" class="st5" cx="36.9" cy="116.3" rx="0.1" ry="0.2"/>
							
								<ellipse transform="matrix(0.1135 0.9935 -0.9935 0.1135 149.6037 65.197)" class="st5" cx="38.3" cy="116.4" rx="0.1" ry="0.2"/>
							
								<ellipse transform="matrix(0.1135 0.9935 -0.9935 0.1135 149.3669 67.1688)" class="st5" cx="37" cy="117.3" rx="0.1" ry="0.2"/>
						</g>
						<g>
							<path class="st3" d="M46.9,67.2l7.8,2.6c0,0-1.7,4-4.8,2.7C46.8,71.3,46.9,67.2,46.9,67.2z"/>
							<g>
								<path class="st4" d="M47.9,71.3c-1.3-1.7-1.2-4-1.2-4.2l0.6,0.2c0,0-0.1,3.8,2.8,5c0.7,0.3,1.4,0.3,2,0
									c1.5-0.6,2.4-2.6,2.4-2.6l0.5,0.2c0,0.1-0.9,2.2-2.7,2.9c-0.8,0.3-1.6,0.3-2.4,0C48.9,72.5,48.3,71.9,47.9,71.3z"/>
							</g>
							
								<ellipse transform="matrix(0.5926 0.8055 -0.8055 0.5926 75.1875 -11.1025)" class="st5" cx="48.6" cy="68.8" rx="0.1" ry="0.2"/>
							
								<ellipse transform="matrix(0.5926 0.8055 -0.8055 0.5926 76.62 -10.7502)" class="st5" cx="48.9" cy="70.4" rx="0.1" ry="0.2"/>
							
								<ellipse transform="matrix(0.5926 0.8055 -0.8055 0.5926 76.2463 -11.5864)" class="st5" cx="49.6" cy="69.6" rx="0.1" ry="0.2"/>
							
								<ellipse transform="matrix(0.5926 0.8055 -0.8055 0.5926 77.1855 -11.5907)" class="st5" cx="50.1" cy="70.5" rx="0.1" ry="0.2"/>
							
								<ellipse transform="matrix(0.5926 0.8055 -0.8055 0.5926 76.901 -12.6799)" class="st5" cx="51" cy="69.7" rx="0.1" ry="0.2"/>
							
								<ellipse transform="matrix(0.5926 0.8055 -0.8055 0.5926 78.0107 -11.4226)" class="st5" cx="50.3" cy="71.4" rx="0.1" ry="0.2"/>
							
								<ellipse transform="matrix(0.5926 0.8055 -0.8055 0.5926 77.8493 -12.5324)" class="st5" cx="51.3" cy="70.7" rx="0.1" ry="0.2"/>
							
								<ellipse transform="matrix(0.5926 0.8055 -0.8055 0.5926 77.9263 -13.7373)" class="st5" cx="52.5" cy="70.2" rx="0.1" ry="0.2"/>
							
								<ellipse transform="matrix(0.5926 0.8055 -0.8055 0.5926 78.7372 -12.6812)" class="st5" cx="51.9" cy="71.5" rx="0.1" ry="0.2"/>
						</g>
						<g>
							<path class="st3" d="M54.7,64.5l-3.2-7.4c0,0,4.2-1.4,5.3,1.7C57.8,61.8,54.7,64.5,54.7,64.5z"/>
							<g>
								<path class="st4" d="M57.1,61.1c-0.5,2.1-2.3,3.6-2.4,3.7l-0.2-0.5c0,0,3-2.5,1.9-5.4c-0.2-0.7-0.7-1.2-1.3-1.5
									c-1.5-0.7-3.6,0-3.6,0l-0.2-0.5c0.1,0,2.3-0.8,4,0c0.8,0.4,1.3,1,1.6,1.8C57.3,59.5,57.3,60.3,57.1,61.1z"/>
							</g>
							
								<ellipse transform="matrix(0.2208 -0.9753 0.9753 0.2208 -18.0398 101.8689)" class="st5" cx="54.7" cy="62.2" rx="0.1" ry="0.2"/>
							
								<ellipse transform="matrix(0.2208 -0.9753 0.9753 0.2208 -15.988 101.7783)" class="st5" cx="55.7" cy="60.9" rx="0.1" ry="0.2"/>
							
								<ellipse transform="matrix(0.2208 -0.9753 0.9753 0.2208 -16.8457 100.8223)" class="st5" cx="54.7" cy="61" rx="0.1" ry="0.2"/>
							
								<ellipse transform="matrix(0.2208 -0.9753 0.9753 0.2208 -15.6022 100.4533)" class="st5" cx="55.1" cy="60" rx="0.1" ry="0.2"/>
							
								<ellipse transform="matrix(0.2208 -0.9753 0.9753 0.2208 -16.4511 99.1298)" class="st5" cx="53.8" cy="59.9" rx="0.1" ry="0.2"/>
							
								<ellipse transform="matrix(0.2208 -0.9753 0.9753 0.2208 -14.4352 100.3553)" class="st5" cx="55.6" cy="59.2" rx="0.1" ry="0.2"/>
							
								<ellipse transform="matrix(0.2208 -0.9753 0.9753 0.2208 -15.1299 98.9569)" class="st5" cx="54.4" cy="58.9" rx="0.1" ry="0.2"/>
							
								<ellipse transform="matrix(0.2208 -0.9753 0.9753 0.2208 -15.5497 97.3413)" class="st5" cx="53.1" cy="58.4" rx="0.1" ry="0.2"/>
							
								<ellipse transform="matrix(0.2208 -0.9753 0.9753 0.2208 -14.0172 98.4175)" class="st5" cx="54.6" cy="58" rx="0.1" ry="0.2"/>
						</g>
						<g>
							<path class="st3" d="M68.1,40.3l-3.2-7.4c0,0,4.2-1.4,5.3,1.7C71.3,37.6,68.1,40.3,68.1,40.3z"/>
							<g>
								<path class="st4" d="M70.6,36.8c-0.5,2.1-2.3,3.6-2.4,3.7L68,40c0,0,3-2.5,1.9-5.4c-0.2-0.7-0.7-1.2-1.3-1.5
									c-1.5-0.7-3.6,0-3.6,0l-0.2-0.5c0.1,0,2.3-0.8,4,0c0.8,0.4,1.3,1,1.6,1.8C70.8,35.3,70.8,36.1,70.6,36.8z"/>
							</g>
							
								<ellipse transform="matrix(0.2208 -0.9753 0.9753 0.2208 16.0713 96.1061)" class="st5" cx="68.2" cy="38" rx="0.1" ry="0.2"/>
							
								<ellipse transform="matrix(0.2208 -0.9753 0.9753 0.2208 18.1231 96.0156)" class="st5" cx="69.2" cy="36.7" rx="0.1" ry="0.2"/>
							
								<ellipse transform="matrix(0.2208 -0.9753 0.9753 0.2208 17.2655 95.0596)" class="st5" cx="68.1" cy="36.7" rx="0.1" ry="0.2"/>
							
								<ellipse transform="matrix(0.2208 -0.9753 0.9753 0.2208 18.5089 94.6906)" class="st5" cx="68.5" cy="35.8" rx="0.1" ry="0.2"/>
							
								<ellipse transform="matrix(0.2208 -0.9753 0.9753 0.2208 17.66 93.367)" class="st5" cx="67.3" cy="35.6" rx="0.1" ry="0.2"/>
							<ellipse transform="matrix(0.2208 -0.9753 0.9753 0.2208 19.6759 94.5925)" class="st5" cx="69" cy="35" rx="0.1" ry="0.2"/>
							
								<ellipse transform="matrix(0.2208 -0.9753 0.9753 0.2208 18.9812 93.1942)" class="st5" cx="67.8" cy="34.7" rx="0.1" ry="0.2"/>
							
								<ellipse transform="matrix(0.2208 -0.9753 0.9753 0.2208 18.5614 91.5786)" class="st5" cx="66.6" cy="34.2" rx="0.1" ry="0.2"/>
							
								<ellipse transform="matrix(0.2208 -0.9753 0.9753 0.2208 20.094 92.6547)" class="st5" cx="68" cy="33.8" rx="0.1" ry="0.2"/>
						</g>
						<g>
							<path class="st3" d="M64.1,77.2l-1.4-7.9c0,0,4.4-0.5,4.7,2.8C67.8,75.2,64.1,77.2,64.1,77.2z"/>
							<g>
								<path class="st4" d="M67.3,74.4c-0.9,1.9-3,3-3.2,3l-0.1-0.6c0,0,3.5-1.8,3.2-4.8c-0.1-0.7-0.4-1.3-0.9-1.7
									c-1.3-1-3.5-0.8-3.5-0.8l-0.1-0.5c0.1,0,2.4-0.2,3.9,0.9c0.7,0.5,1,1.2,1.1,2.1C67.8,72.9,67.7,73.7,67.3,74.4z"/>
							</g>
							
								<ellipse transform="matrix(0.4403 -0.8978 0.8978 0.4403 -31.0845 100.0452)" class="st5" cx="64.7" cy="75" rx="0.1" ry="0.2"/>
							
								<ellipse transform="matrix(0.4403 -0.8978 0.8978 0.4403 -29.4141 100.566)" class="st5" cx="66" cy="73.9" rx="0.1" ry="0.2"/>
							
								<ellipse transform="matrix(0.4403 -0.8978 0.8978 0.4403 -29.8282 99.56)" class="st5" cx="64.9" cy="73.7" rx="0.1" ry="0.2"/>
							
								<ellipse transform="matrix(0.4403 -0.8978 0.8978 0.4403 -28.7261 99.6265)" class="st5" cx="65.5" cy="72.9" rx="0.1" ry="0.2"/>
							
								<ellipse transform="matrix(0.4403 -0.8978 0.8978 0.4403 -29.0281 98.3315)" class="st5" cx="64.4" cy="72.4" rx="0.1" ry="0.2"/>
							
								<ellipse transform="matrix(0.4403 -0.8978 0.8978 0.4403 -27.7628 99.8858)" class="st5" cx="66.2" cy="72.2" rx="0.1" ry="0.2"/>
							
								<ellipse transform="matrix(0.4403 -0.8978 0.8978 0.4403 -27.9197 98.576)" class="st5" cx="65.1" cy="71.7" rx="0.1" ry="0.2"/>
							
								<ellipse transform="matrix(0.4403 -0.8978 0.8978 0.4403 -27.7943 97.1733)" class="st5" cx="64" cy="70.9" rx="0.1" ry="0.2"/>
							
								<ellipse transform="matrix(0.4403 -0.8978 0.8978 0.4403 -26.8737 98.4696)" class="st5" cx="65.5" cy="70.8" rx="0.1" ry="0.2"/>
						</g>
						<g>
							<path class="st3" d="M54.9,111.4l5.6-5.9c0,0,3.1,3.1,0.7,5.4C58.7,113.1,54.9,111.4,54.9,111.4z"/>
							<g>
								<path class="st4" d="M59.1,112.1c-2.1,0.4-4.3-0.5-4.4-0.6l0.4-0.4c0,0,3.6,1.6,5.8-0.5c0.5-0.5,0.8-1.1,0.8-1.8
									c0-1.6-1.5-3.2-1.5-3.2l0.4-0.4c0.1,0.1,1.7,1.7,1.7,3.6c0,0.8-0.4,1.5-1,2.2C60.7,111.6,59.9,112,59.1,112.1z"/>
							</g>
							
								<ellipse transform="matrix(0.978 -0.2085 0.2085 0.978 -21.7783 14.3178)" class="st5" cx="57" cy="110.5" rx="0.1" ry="0.2"/>
							
								<ellipse transform="matrix(0.978 -0.2085 0.2085 0.978 -21.8054 14.6666)" class="st5" cx="58.7" cy="110.8" rx="0.1" ry="0.2"/>
							
								<ellipse transform="matrix(0.978 -0.2085 0.2085 0.978 -21.6312 14.546)" class="st5" cx="58.2" cy="109.9" rx="0.1" ry="0.2"/>
							
								<ellipse transform="matrix(0.978 -0.2085 0.2085 0.978 -21.5961 14.7653)" class="st5" cx="59.3" cy="109.8" rx="0.1" ry="0.2"/>
							
								<ellipse transform="matrix(0.978 -0.2085 0.2085 0.978 -21.3619 14.6555)" class="st5" cx="58.9" cy="108.7" rx="0.1" ry="0.2"/>
							
								<ellipse transform="matrix(0.978 -0.2085 0.2085 0.978 -21.6039 14.9648)" class="st5" cx="60.2" cy="110" rx="0.1" ry="0.2"/>
							
								<ellipse transform="matrix(0.978 -0.2085 0.2085 0.978 -21.3605 14.883)" class="st5" cx="59.9" cy="108.8" rx="0.1" ry="0.2"/>
							
								<ellipse transform="matrix(0.978 -0.2085 0.2085 0.978 -21.0872 14.853)" class="st5" cx="59.9" cy="107.5" rx="0.1" ry="0.2"/>
							
								<ellipse transform="matrix(0.978 -0.2085 0.2085 0.978 -21.2948 15.0845)" class="st5" cx="60.9" cy="108.6" rx="0.1" ry="0.2"/>
						</g>
						<g>
							<path class="st3" d="M76.4,53.8l-1.4-7.9c0,0,4.4-0.5,4.7,2.8S76.4,53.8,76.4,53.8z"/>
							<g>
								<path class="st4" d="M79.6,51c-0.9,1.9-3,3-3.2,3l-0.1-0.6c0,0,3.5-1.8,3.2-4.8c-0.1-0.7-0.4-1.3-0.9-1.7
									c-1.3-1-3.5-0.8-3.5-0.8L75,45.6c0.1,0,2.4-0.2,3.9,0.9c0.7,0.5,1,1.2,1.1,2.1C80.2,49.5,80,50.3,79.6,51z"/>
							</g>
							
								<ellipse transform="matrix(0.4403 -0.8978 0.8978 0.4403 -3.198 98.0185)" class="st5" cx="77" cy="51.6" rx="0.1" ry="0.2"/>
							
								<ellipse transform="matrix(0.4403 -0.8978 0.8978 0.4403 -1.5276 98.5393)" class="st5" cx="78.3" cy="50.5" rx="0.1" ry="0.2"/>
							
								<ellipse transform="matrix(0.4403 -0.8978 0.8978 0.4403 -1.9417 97.5333)" class="st5" cx="77.3" cy="50.3" rx="0.1" ry="0.2"/>
							
								<ellipse transform="matrix(0.4403 -0.8978 0.8978 0.4403 -0.8396 97.5998)" class="st5" cx="77.9" cy="49.5" rx="0.1" ry="0.2"/>
							
								<ellipse transform="matrix(0.4403 -0.8978 0.8978 0.4403 -1.1416 96.3048)" class="st5" cx="76.7" cy="49.1" rx="0.1" ry="0.2"/>
							
								<ellipse transform="matrix(0.4403 -0.8978 0.8978 0.4403 0.1237 97.859)" class="st5" cx="78.6" cy="48.8" rx="0.1" ry="0.2"/>
							
								<ellipse transform="matrix(0.4403 -0.8978 0.8978 0.4403 -3.325676e-02 96.5493)" class="st5" cx="77.4" cy="48.3" rx="0.1" ry="0.2"/>
							
								<ellipse transform="matrix(0.4403 -0.8978 0.8978 0.4403 9.215357e-02 95.1466)" class="st5" cx="76.4" cy="47.5" rx="0.1" ry="0.2"/>
							
								<ellipse transform="matrix(0.4403 -0.8978 0.8978 0.4403 1.0128 96.4428)" class="st5" cx="77.9" cy="47.4" rx="0.1" ry="0.2"/>
						</g>
						<g>
							<path class="st3" d="M80.7,70.1l7.1,4.1c0,0-2.5,3.6-5.2,1.7C79.8,74.1,80.7,70.1,80.7,70.1z"/>
							<g>
								<path class="st4" d="M80.8,74.3c-0.9-1.9-0.4-4.2-0.3-4.3l0.5,0.3c0,0-0.9,3.7,1.7,5.5c0.6,0.4,1.3,0.6,2,0.4
									c1.6-0.3,2.9-2.1,2.9-2.1l0.4,0.3c-0.1,0.1-1.4,2-3.2,2.3c-0.8,0.2-1.6,0-2.4-0.5C81.7,75.7,81.1,75,80.8,74.3z"/>
							</g>
							
								<ellipse transform="matrix(0.4175 0.9087 -0.9087 0.4175 113.186 -32.6307)" class="st5" cx="82" cy="72" rx="0.1" ry="0.2"/>
							
								<ellipse transform="matrix(0.4175 0.9087 -0.9087 0.4175 114.6893 -31.7116)" class="st5" cx="82.1" cy="73.6" rx="0.1" ry="0.2"/>
							
								<ellipse transform="matrix(0.4175 0.9087 -0.9087 0.4175 114.5607 -32.8043)" class="st5" cx="82.9" cy="73" rx="0.1" ry="0.2"/>
							
								<ellipse transform="matrix(0.4175 0.9087 -0.9087 0.4175 115.6297 -32.4713)" class="st5" cx="83.1" cy="74" rx="0.1" ry="0.2"/>
							
								<ellipse transform="matrix(0.4175 0.9087 -0.9087 0.4175 115.6922 -33.8218)" class="st5" cx="84.2" cy="73.3" rx="0.1" ry="0.2"/>
							
								<ellipse transform="matrix(0.4175 0.9087 -0.9087 0.4175 116.5081 -31.9817)" class="st5" cx="83.2" cy="74.9" rx="0.1" ry="0.2"/>
							
								<ellipse transform="matrix(0.4175 0.9087 -0.9087 0.4175 116.7178 -33.3116)" class="st5" cx="84.3" cy="74.4" rx="0.1" ry="0.2"/>
							
								<ellipse transform="matrix(0.4175 0.9087 -0.9087 0.4175 117.232 -34.6646)" class="st5" cx="85.7" cy="74.1" rx="0.1" ry="0.2"/>
							
								<ellipse transform="matrix(0.4175 0.9087 -0.9087 0.4175 117.7796 -33.1627)" class="st5" cx="84.8" cy="75.3" rx="0.1" ry="0.2"/>
						</g>
						<g>
							<path class="st3" d="M65.7,21.4l7.1,4.1c0,0-2.5,3.6-5.2,1.7S65.7,21.4,65.7,21.4z"/>
							<g>
								<path class="st4" d="M65.8,25.6c-0.9-1.9-0.4-4.2-0.3-4.3l0.5,0.3c0,0-0.9,3.7,1.7,5.5c0.6,0.4,1.3,0.6,2,0.4
									c1.6-0.3,2.9-2.1,2.9-2.1l0.4,0.3c-0.1,0.1-1.4,2-3.2,2.3c-0.8,0.2-1.6,0-2.4-0.5C66.6,27,66.1,26.3,65.8,25.6z"/>
							</g>
							
								<ellipse transform="matrix(0.4175 0.9087 -0.9087 0.4175 60.2147 -47.333)" class="st5" cx="67" cy="23.3" rx="0.1" ry="0.2"/>
							
								<ellipse transform="matrix(0.4175 0.9087 -0.9087 0.4175 61.7179 -46.4139)" class="st5" cx="67.1" cy="24.9" rx="0.1" ry="0.2"/>
							
								<ellipse transform="matrix(0.4175 0.9087 -0.9087 0.4175 61.5894 -47.5066)" class="st5" cx="67.9" cy="24.3" rx="0.1" ry="0.2"/>
							
								<ellipse transform="matrix(0.4175 0.9087 -0.9087 0.4175 62.6583 -47.1735)" class="st5" cx="68.1" cy="25.3" rx="0.1" ry="0.2"/>
							
								<ellipse transform="matrix(0.4175 0.9087 -0.9087 0.4175 62.7208 -48.5241)" class="st5" cx="69.2" cy="24.7" rx="0.1" ry="0.2"/>
							
								<ellipse transform="matrix(0.4175 0.9087 -0.9087 0.4175 63.5367 -46.684)" class="st5" cx="68.2" cy="26.2" rx="0.1" ry="0.2"/>
							
								<ellipse transform="matrix(0.4175 0.9087 -0.9087 0.4175 63.7464 -48.0139)" class="st5" cx="69.3" cy="25.7" rx="0.1" ry="0.2"/>
							
								<ellipse transform="matrix(0.4175 0.9087 -0.9087 0.4175 64.2606 -49.3669)" class="st5" cx="70.6" cy="25.4" rx="0.1" ry="0.2"/>
							
								<ellipse transform="matrix(0.4175 0.9087 -0.9087 0.4175 64.8082 -47.865)" class="st5" cx="69.7" cy="26.6" rx="0.1" ry="0.2"/>
						</g>
						<g>
							<path class="st3" d="M51,13.8l7.8-2.5c0,0,1.1,4.2-2.1,5C53.5,17.1,51,13.8,51,13.8z"/>
							<g>
								<path class="st4" d="M54.3,16.5c-2.1-0.6-3.5-2.5-3.6-2.6l0.6-0.2c0,0,2.3,3.1,5.3,2.3c0.7-0.2,1.3-0.6,1.6-1.2
									c0.8-1.4,0.3-3.5,0.3-3.5l0.5-0.1c0,0.1,0.6,2.3-0.3,3.9c-0.4,0.7-1.1,1.2-2,1.4C55.9,16.8,55,16.7,54.3,16.5z"/>
							</g>
							
								<ellipse transform="matrix(0.9577 0.2876 -0.2876 0.9577 6.2939 -14.7329)" class="st5" cx="53.3" cy="14.1" rx="0.1" ry="0.2"/>
							
								<ellipse transform="matrix(0.9577 0.2876 -0.2876 0.9577 6.6501 -15.0561)" class="st5" cx="54.6" cy="15.1" rx="0.1" ry="0.2"/>
							
								<ellipse transform="matrix(0.9577 0.2876 -0.2876 0.9577 6.3619 -15.1051)" class="st5" cx="54.6" cy="14.1" rx="0.1" ry="0.2"/>
							
								<ellipse transform="matrix(0.9577 0.2876 -0.2876 0.9577 6.5338 -15.3591)" class="st5" cx="55.5" cy="14.6" rx="0.1" ry="0.2"/>
							
								<ellipse transform="matrix(0.9577 0.2876 -0.2876 0.9577 6.1956 -15.4774)" class="st5" cx="55.8" cy="13.3" rx="0.1" ry="0.2"/>
							
								<ellipse transform="matrix(0.9577 0.2876 -0.2876 0.9577 6.7299 -15.5515)" class="st5" cx="56.3" cy="15.1" rx="0.1" ry="0.2"/>
							
								<ellipse transform="matrix(0.9577 0.2876 -0.2876 0.9577 6.409 -15.7067)" class="st5" cx="56.7" cy="14" rx="0.1" ry="0.2"/>
							
								<ellipse transform="matrix(0.9577 0.2876 -0.2876 0.9577 6.107 -15.9431)" class="st5" cx="57.3" cy="12.8" rx="0.1" ry="0.2"/>
							
								<ellipse transform="matrix(0.9577 0.2876 -0.2876 0.9577 6.5334 -15.9727)" class="st5" cx="57.6" cy="14.3" rx="0.1" ry="0.2"/>
						</g>
						<g>
							<path class="st3" d="M84.6,104.4l7.1,4.1c0,0-2.5,3.6-5.2,1.7C83.7,108.4,84.6,104.4,84.6,104.4z"/>
							<g>
								<path class="st4" d="M84.7,108.6c-0.9-1.9-0.4-4.2-0.3-4.3l0.5,0.3c0,0-0.9,3.7,1.7,5.5c0.6,0.4,1.3,0.6,2,0.4
									c1.6-0.3,2.9-2.1,2.9-2.1l0.4,0.3c-0.1,0.1-1.4,2-3.2,2.3c-0.8,0.2-1.6,0-2.4-0.5C85.5,109.9,85,109.3,84.7,108.6z"/>
							</g>
							
								<ellipse transform="matrix(0.4175 0.9087 -0.9087 0.4175 146.578 -16.1748)" class="st5" cx="85.9" cy="106.2" rx="0.1" ry="0.2"/>
							
								<ellipse transform="matrix(0.4175 0.9087 -0.9087 0.4175 148.0813 -15.2557)" class="st5" cx="85.9" cy="107.9" rx="0.1" ry="0.2"/>
							
								<ellipse transform="matrix(0.4175 0.9087 -0.9087 0.4175 147.9527 -16.3484)" class="st5" cx="86.7" cy="107.2" rx="0.1" ry="0.2"/>
							
								<ellipse transform="matrix(0.4175 0.9087 -0.9087 0.4175 149.0216 -16.0153)" class="st5" cx="87" cy="108.2" rx="0.1" ry="0.2"/>
							
								<ellipse transform="matrix(0.4175 0.9087 -0.9087 0.4175 149.0842 -17.3658)" class="st5" cx="88.1" cy="107.6" rx="0.1" ry="0.2"/>
							
								<ellipse transform="matrix(0.4175 0.9087 -0.9087 0.4175 149.9 -15.5258)" class="st5" cx="87.1" cy="109.2" rx="0.1" ry="0.2"/>
							
								<ellipse transform="matrix(0.4175 0.9087 -0.9087 0.4175 150.1097 -16.8557)" class="st5" cx="88.2" cy="108.7" rx="0.1" ry="0.2"/>
							
								<ellipse transform="matrix(0.4175 0.9087 -0.9087 0.4175 150.624 -18.2087)" class="st5" cx="89.5" cy="108.4" rx="0.1" ry="0.2"/>
							
								<ellipse transform="matrix(0.4175 0.9087 -0.9087 0.4175 151.1715 -16.7068)" class="st5" cx="88.6" cy="109.6" rx="0.1" ry="0.2"/>
						</g>
						<g>
							<path class="st3" d="M80.8,31.1l-1.4-7.9c0,0,4.4-0.5,4.7,2.8S80.8,31.1,80.8,31.1z"/>
							<g>
								<path class="st4" d="M83.9,28.3c-0.9,1.9-3,3-3.2,3l-0.1-0.6c0,0,3.5-1.8,3.2-4.8c-0.1-0.7-0.4-1.3-0.9-1.7
									c-1.3-1-3.5-0.8-3.5-0.8l-0.1-0.5c0.1,0,2.4-0.2,3.9,0.9c0.7,0.5,1,1.2,1.1,2.1C84.5,26.8,84.3,27.6,83.9,28.3z"/>
							</g>
							
								<ellipse transform="matrix(0.4403 -0.8978 0.8978 0.4403 19.5701 89.2134)" class="st5" cx="81.3" cy="28.9" rx="0.1" ry="0.2"/>
							
								<ellipse transform="matrix(0.4403 -0.8978 0.8978 0.4403 21.2405 89.7342)" class="st5" cx="82.6" cy="27.8" rx="0.1" ry="0.2"/>
							
								<ellipse transform="matrix(0.4403 -0.8978 0.8978 0.4403 20.8264 88.7282)" class="st5" cx="81.6" cy="27.7" rx="0.1" ry="0.2"/>
							
								<ellipse transform="matrix(0.4403 -0.8978 0.8978 0.4403 21.9285 88.7947)" class="st5" cx="82.2" cy="26.8" rx="0.1" ry="0.2"/>
							
								<ellipse transform="matrix(0.4403 -0.8978 0.8978 0.4403 21.6265 87.4997)" class="st5" cx="81" cy="26.4" rx="0.1" ry="0.2"/>
							
								<ellipse transform="matrix(0.4403 -0.8978 0.8978 0.4403 22.8919 89.0539)" class="st5" cx="82.9" cy="26.2" rx="0.1" ry="0.2"/>
							
								<ellipse transform="matrix(0.4403 -0.8978 0.8978 0.4403 22.7349 87.7442)" class="st5" cx="81.7" cy="25.6" rx="0.1" ry="0.2"/>
							
								<ellipse transform="matrix(0.4403 -0.8978 0.8978 0.4403 22.8603 86.3415)" class="st5" cx="80.7" cy="24.8" rx="0.1" ry="0.2"/>
							
								<ellipse transform="matrix(0.4403 -0.8978 0.8978 0.4403 23.7809 87.6377)" class="st5" cx="82.2" cy="24.7" rx="0.1" ry="0.2"/>
						</g>
						<g>
							<path class="st3" d="M41.5,7.1l-1.4-7.9c0,0,4.4-0.5,4.7,2.8S41.5,7.1,41.5,7.1z"/>
							<g>
								<path class="st4" d="M44.7,4.3c-0.9,1.9-3,3-3.2,3l-0.1-0.6c0,0,3.5-1.8,3.2-4.8c-0.1-0.7-0.4-1.3-0.9-1.7
									c-1.3-1-3.5-0.8-3.5-0.8l-0.1-0.5c0.1,0,2.4-0.2,3.9,0.9c0.7,0.5,1,1.2,1.1,2.1C45.2,2.8,45,3.6,44.7,4.3z"/>
							</g>
							
								<ellipse transform="matrix(0.4403 -0.8978 0.8978 0.4403 19.1488 40.4939)" class="st5" cx="42.1" cy="4.9" rx="0.1" ry="0.2"/>
							
								<ellipse transform="matrix(0.4403 -0.8978 0.8978 0.4403 20.8192 41.0147)" class="st5" cx="43.3" cy="3.8" rx="0.1" ry="0.2"/>
							
								<ellipse transform="matrix(0.4403 -0.8978 0.8978 0.4403 20.4051 40.0087)" class="st5" cx="42.3" cy="3.6" rx="0.1" ry="0.2"/>
							
								<ellipse transform="matrix(0.4403 -0.8978 0.8978 0.4403 21.5072 40.0752)" class="st5" cx="42.9" cy="2.8" rx="0.1" ry="0.2"/>
							
								<ellipse transform="matrix(0.4403 -0.8978 0.8978 0.4403 21.2053 38.7802)" class="st5" cx="41.7" cy="2.4" rx="0.1" ry="0.2"/>
							
								<ellipse transform="matrix(0.4403 -0.8978 0.8978 0.4403 22.4706 40.3345)" class="st5" cx="43.6" cy="2.1" rx="0.1" ry="0.2"/>
							
								<ellipse transform="matrix(0.4403 -0.8978 0.8978 0.4403 22.3136 39.0247)" class="st5" cx="42.5" cy="1.6" rx="0.1" ry="0.2"/>
							
								<ellipse transform="matrix(0.4403 -0.8978 0.8978 0.4403 22.439 37.622)" class="st5" cx="41.4" cy="0.8" rx="0.1" ry="0.2"/>
							
								<ellipse transform="matrix(0.4403 -0.8978 0.8978 0.4403 23.3597 38.9182)" class="st5" cx="42.9" cy="0.7" rx="0.1" ry="0.2"/>
						</g>
						<g>
							<path class="st3" d="M44.2,112.3l-1.4-7.9c0,0,4.4-0.5,4.7,2.8C47.9,110.4,44.2,112.3,44.2,112.3z"/>
							<g>
								<path class="st4" d="M47.4,109.5c-0.9,1.9-3,3-3.2,3l-0.1-0.6c0,0,3.5-1.8,3.2-4.8c-0.1-0.7-0.4-1.3-0.9-1.7
									c-1.3-1-3.5-0.8-3.5-0.8l-0.1-0.5c0.1,0,2.4-0.2,3.9,0.9c0.7,0.5,1,1.2,1.1,2.1C47.9,108,47.7,108.8,47.4,109.5z"/>
							</g>
							
								<ellipse transform="matrix(0.4403 -0.8978 0.8978 0.4403 -73.798 101.8411)" class="st5" cx="44.8" cy="110.1" rx="0.1" ry="0.2"/>
							
								<ellipse transform="matrix(0.4403 -0.8978 0.8978 0.4403 -72.1276 102.3619)" class="st5" cx="46" cy="109" rx="0.1" ry="0.2"/>
							
								<ellipse transform="matrix(0.4403 -0.8978 0.8978 0.4403 -72.5417 101.3559)" class="st5" cx="45" cy="108.9" rx="0.1" ry="0.2"/>
							
								<ellipse transform="matrix(0.4403 -0.8978 0.8978 0.4403 -71.4396 101.4224)" class="st5" cx="45.6" cy="108" rx="0.1" ry="0.2"/>
							
								<ellipse transform="matrix(0.4403 -0.8978 0.8978 0.4403 -71.7416 100.1274)" class="st5" cx="44.4" cy="107.6" rx="0.1" ry="0.2"/>
							
								<ellipse transform="matrix(0.4403 -0.8978 0.8978 0.4403 -70.4763 101.6816)" class="st5" cx="46.3" cy="107.4" rx="0.1" ry="0.2"/>
							
								<ellipse transform="matrix(0.4403 -0.8978 0.8978 0.4403 -70.6333 100.3719)" class="st5" cx="45.2" cy="106.8" rx="0.1" ry="0.2"/>
							
								<ellipse transform="matrix(0.4403 -0.8978 0.8978 0.4403 -70.5079 98.9692)" class="st5" cx="44.1" cy="106" rx="0.1" ry="0.2"/>
							
								<ellipse transform="matrix(0.4403 -0.8978 0.8978 0.4403 -69.5872 100.2654)" class="st5" cx="45.6" cy="105.9" rx="0.1" ry="0.2"/>
						</g>
						<g>
							<path class="st3" d="M32.1,79.9l-1.4-7.9c0,0,4.4-0.5,4.7,2.8S32.1,79.9,32.1,79.9z"/>
							<g>
								<path class="st4" d="M35.3,77.1c-0.9,1.9-3,3-3.2,3L32,79.6c0,0,3.5-1.8,3.2-4.8c-0.1-0.7-0.4-1.3-0.9-1.7
									c-1.3-1-3.5-0.8-3.5-0.8l-0.1-0.5c0.1,0,2.4-0.2,3.9,0.9c0.7,0.5,1,1.2,1.1,2.1C35.8,75.6,35.6,76.4,35.3,77.1z"/>
							</g>
							
								<ellipse transform="matrix(0.4403 -0.8978 0.8978 0.4403 -51.4766 72.8061)" class="st5" cx="32.7" cy="77.7" rx="0.1" ry="0.2"/>
							
								<ellipse transform="matrix(0.4403 -0.8978 0.8978 0.4403 -49.8062 73.3269)" class="st5" cx="33.9" cy="76.6" rx="0.1" ry="0.2"/>
							
								<ellipse transform="matrix(0.4403 -0.8978 0.8978 0.4403 -50.2203 72.3209)" class="st5" cx="32.9" cy="76.4" rx="0.1" ry="0.2"/>
							
								<ellipse transform="matrix(0.4403 -0.8978 0.8978 0.4403 -49.1182 72.3874)" class="st5" cx="33.5" cy="75.6" rx="0.1" ry="0.2"/>
							
								<ellipse transform="matrix(0.4403 -0.8978 0.8978 0.4403 -49.4202 71.0924)" class="st5" cx="32.3" cy="75.2" rx="0.1" ry="0.2"/>
							
								<ellipse transform="matrix(0.4403 -0.8978 0.8978 0.4403 -48.1549 72.6466)" class="st5" cx="34.2" cy="74.9" rx="0.1" ry="0.2"/>
							
								<ellipse transform="matrix(0.4403 -0.8978 0.8978 0.4403 -48.3118 71.3369)" class="st5" cx="33.1" cy="74.4" rx="0.1" ry="0.2"/>
							
								<ellipse transform="matrix(0.4403 -0.8978 0.8978 0.4403 -48.1864 69.9342)" class="st5" cx="32" cy="73.6" rx="0.1" ry="0.2"/>
							
								<ellipse transform="matrix(0.4403 -0.8978 0.8978 0.4403 -47.2658 71.2304)" class="st5" cx="33.5" cy="73.5" rx="0.1" ry="0.2"/>
						</g>
						<g>
							<path class="st3" d="M52.4,83.8l-8.2,0.4c0,0,0-4.3,3.4-4.3C50.8,80,52.4,83.8,52.4,83.8z"/>
							<g>
								<path class="st4" d="M49.9,80.4c1.8,1.1,2.7,3.3,2.7,3.4l-0.6,0c0,0-1.4-3.6-4.5-3.6c-0.8,0-1.4,0.2-1.9,0.7
									c-1.2,1.1-1.2,3.3-1.2,3.3l-0.5,0c0-0.1,0-2.4,1.4-3.7c0.6-0.6,1.4-0.9,2.3-0.9C48.4,79.7,49.2,80,49.9,80.4z"/>
							</g>
							
								<ellipse transform="matrix(-0.8514 -0.5245 0.5245 -0.8514 49.381 180.0324)" class="st5" cx="50.2" cy="83" rx="0.1" ry="0.2"/>
							
								<ellipse transform="matrix(-0.8514 -0.5245 0.5245 -0.8514 48.3201 177.0504)" class="st5" cx="49.2" cy="81.7" rx="0.1" ry="0.2"/>
							
								<ellipse transform="matrix(-0.8514 -0.5245 0.5245 -0.8514 47.2765 178.6842)" class="st5" cx="48.9" cy="82.6" rx="0.1" ry="0.2"/>
							
								<ellipse transform="matrix(-0.8514 -0.5245 0.5245 -0.8514 46.1636 176.9995)" class="st5" cx="48.2" cy="82" rx="0.1" ry="0.2"/>
							
								<ellipse transform="matrix(-0.8514 -0.5245 0.5245 -0.8514 44.566 178.7637)" class="st5" cx="47.6" cy="83.1" rx="0.1" ry="0.2"/>
							
								<ellipse transform="matrix(-0.8514 -0.5245 0.5245 -0.8514 45.4906 175.3216)" class="st5" cx="47.6" cy="81.2" rx="0.1" ry="0.2"/>
							
								<ellipse transform="matrix(-0.8514 -0.5245 0.5245 -0.8514 43.7115 176.8882)" class="st5" cx="46.9" cy="82.3" rx="0.1" ry="0.2"/>
							
								<ellipse transform="matrix(-0.8514 -0.5245 0.5245 -0.8514 41.4834 178.1353)" class="st5" cx="46" cy="83.2" rx="0.1" ry="0.2"/>
							
								<ellipse transform="matrix(-0.8514 -0.5245 0.5245 -0.8514 42.4025 175.4621)" class="st5" cx="46.1" cy="81.7" rx="0.1" ry="0.2"/>
						</g>
						<g>
							<path class="st3" d="M80.6,15.8l-8.2,0.4c0,0,0-4.3,3.4-4.3S80.6,15.8,80.6,15.8z"/>
							<g>
								<path class="st4" d="M78.2,12.3c1.8,1.1,2.7,3.3,2.7,3.4l-0.6,0c0,0-1.4-3.6-4.5-3.6c-0.8,0-1.4,0.2-1.9,0.7
									c-1.2,1.1-1.2,3.3-1.2,3.3l-0.5,0c0-0.1,0-2.4,1.4-3.7c0.6-0.6,1.4-0.9,2.3-0.9C76.7,11.6,77.5,11.9,78.2,12.3z"/>
							</g>
							
								<ellipse transform="matrix(-0.8514 -0.5245 0.5245 -0.8514 137.45 68.7952)" class="st5" cx="78.5" cy="14.9" rx="0.1" ry="0.2"/>
							
								<ellipse transform="matrix(-0.8514 -0.5245 0.5245 -0.8514 136.3891 65.8131)" class="st5" cx="77.5" cy="13.6" rx="0.1" ry="0.2"/>
							
								<ellipse transform="matrix(-0.8514 -0.5245 0.5245 -0.8514 135.3454 67.447)" class="st5" cx="77.2" cy="14.6" rx="0.1" ry="0.2"/>
							
								<ellipse transform="matrix(-0.8514 -0.5245 0.5245 -0.8514 134.2325 65.7623)" class="st5" cx="76.4" cy="13.9" rx="0.1" ry="0.2"/>
							
								<ellipse transform="matrix(-0.8514 -0.5245 0.5245 -0.8514 132.6349 67.5265)" class="st5" cx="75.9" cy="15" rx="0.1" ry="0.2"/>
							
								<ellipse transform="matrix(-0.8514 -0.5245 0.5245 -0.8514 133.5595 64.0844)" class="st5" cx="75.9" cy="13.1" rx="0.1" ry="0.2"/>
							
								<ellipse transform="matrix(-0.8514 -0.5245 0.5245 -0.8514 131.7805 65.6509)" class="st5" cx="75.2" cy="14.2" rx="0.1" ry="0.2"/>
							
								<ellipse transform="matrix(-0.8514 -0.5245 0.5245 -0.8514 129.5524 66.898)" class="st5" cx="74.3" cy="15.1" rx="0.1" ry="0.2"/>
							
								<ellipse transform="matrix(-0.8514 -0.5245 0.5245 -0.8514 130.4715 64.2249)" class="st5" cx="74.3" cy="13.6" rx="0.1" ry="0.2"/>
						</g>
						<g>
							<path class="st3" d="M57.7,30.9l-8.2,0.4c0,0,0-4.3,3.4-4.3C56.2,27,57.7,30.9,57.7,30.9z"/>
							<g>
								<path class="st4" d="M55.3,27.4c1.8,1.1,2.7,3.3,2.7,3.4l-0.6,0c0,0-1.4-3.6-4.5-3.6c-0.8,0-1.4,0.2-1.9,0.7
									c-1.2,1.1-1.2,3.3-1.2,3.3l-0.5,0c0-0.1,0-2.4,1.4-3.7c0.6-0.6,1.4-0.9,2.3-0.9C53.8,26.7,54.6,27,55.3,27.4z"/>
							</g>
							
								<ellipse transform="matrix(-0.8514 -0.5245 0.5245 -0.8514 87.1227 84.7393)" class="st5" cx="55.6" cy="30" rx="0.1" ry="0.2"/>
							
								<ellipse transform="matrix(-0.8514 -0.5245 0.5245 -0.8514 86.0618 81.7572)" class="st5" cx="54.6" cy="28.7" rx="0.1" ry="0.2"/>
							
								<ellipse transform="matrix(-0.8514 -0.5245 0.5245 -0.8514 85.0181 83.3911)" class="st5" cx="54.3" cy="29.7" rx="0.1" ry="0.2"/>
							
								<ellipse transform="matrix(-0.8514 -0.5245 0.5245 -0.8514 83.9053 81.7064)" class="st5" cx="53.5" cy="29" rx="0.1" ry="0.2"/>
							
								<ellipse transform="matrix(-0.8514 -0.5245 0.5245 -0.8514 82.3077 83.4706)" class="st5" cx="53" cy="30.1" rx="0.1" ry="0.2"/>
							
								<ellipse transform="matrix(-0.8514 -0.5245 0.5245 -0.8514 83.2322 80.0285)" class="st5" cx="53" cy="28.2" rx="0.1" ry="0.2"/>
							
								<ellipse transform="matrix(-0.8514 -0.5245 0.5245 -0.8514 81.4532 81.595)" class="st5" cx="52.3" cy="29.3" rx="0.1" ry="0.2"/>
							
								<ellipse transform="matrix(-0.8514 -0.5245 0.5245 -0.8514 79.2251 82.8421)" class="st5" cx="51.3" cy="30.2" rx="0.1" ry="0.2"/>
							
								<ellipse transform="matrix(-0.8514 -0.5245 0.5245 -0.8514 80.1442 80.169)" class="st5" cx="51.4" cy="28.7" rx="0.1" ry="0.2"/>
						</g>
						<g>
							<path class="st3" d="M48.2,53.1L40,53.6c0,0,0-4.3,3.4-4.3S48.2,53.1,48.2,53.1z"/>
							<g>
								<path class="st4" d="M45.8,49.7c1.8,1.1,2.7,3.3,2.7,3.4l-0.6,0c0,0-1.4-3.6-4.5-3.6c-0.8,0-1.4,0.2-1.9,0.7
									c-1.2,1.1-1.2,3.3-1.2,3.3l-0.5,0c0-0.1,0-2.4,1.4-3.7c0.6-0.6,1.4-0.9,2.3-0.9C44.3,49,45.1,49.3,45.8,49.7z"/>
							</g>
							
								<ellipse transform="matrix(-0.8514 -0.5245 0.5245 -0.8514 57.8641 121.0332)" class="st5" cx="46.1" cy="52.3" rx="0.1" ry="0.2"/>
							
								<ellipse transform="matrix(-0.8514 -0.5245 0.5245 -0.8514 56.8032 118.0511)" class="st5" cx="45.1" cy="51" rx="0.1" ry="0.2"/>
							
								<ellipse transform="matrix(-0.8514 -0.5245 0.5245 -0.8514 55.7595 119.685)" class="st5" cx="44.8" cy="51.9" rx="0.1" ry="0.2"/>
							
								<ellipse transform="matrix(-0.8514 -0.5245 0.5245 -0.8514 54.6467 118.0003)" class="st5" cx="44" cy="51.3" rx="0.1" ry="0.2"/>
							
								<ellipse transform="matrix(-0.8514 -0.5245 0.5245 -0.8514 53.0491 119.7645)" class="st5" cx="43.5" cy="52.4" rx="0.1" ry="0.2"/>
							
								<ellipse transform="matrix(-0.8514 -0.5245 0.5245 -0.8514 53.9736 116.3224)" class="st5" cx="43.5" cy="50.5" rx="0.1" ry="0.2"/>
							
								<ellipse transform="matrix(-0.8514 -0.5245 0.5245 -0.8514 52.1946 117.889)" class="st5" cx="42.8" cy="51.6" rx="0.1" ry="0.2"/>
							
								<ellipse transform="matrix(-0.8514 -0.5245 0.5245 -0.8514 49.9665 119.1361)" class="st5" cx="41.9" cy="52.5" rx="0.1" ry="0.2"/>
							
								<ellipse transform="matrix(-0.8514 -0.5245 0.5245 -0.8514 50.8856 116.4629)" class="st5" cx="41.9" cy="51" rx="0.1" ry="0.2"/>
						</g>
						<g>
							<path class="st3" d="M84.6,95.1l8-1.9c0,0,0.8,4.2-2.5,4.8C86.8,98.6,84.6,95.1,84.6,95.1z"/>
							<g>
								<path class="st4" d="M87.7,98.1c-2-0.8-3.2-2.8-3.3-2.9l0.6-0.1c0,0,2,3.3,5.1,2.8c0.7-0.1,1.3-0.5,1.7-1
									c1-1.3,0.6-3.5,0.6-3.5l0.5-0.1c0,0.1,0.4,2.4-0.7,3.9c-0.5,0.7-1.2,1.1-2.1,1.2C89.2,98.5,88.4,98.4,87.7,98.1z"/>
							</g>
							
								<ellipse transform="matrix(0.9308 0.3654 -0.3654 0.9308 40.9413 -25.1435)" class="st5" cx="86.9" cy="95.6" rx="0.1" ry="0.2"/>
							
								<ellipse transform="matrix(0.9308 0.3654 -0.3654 0.9308 41.4441 -25.4963)" class="st5" cx="88.1" cy="96.7" rx="0.1" ry="0.2"/>
							
								<ellipse transform="matrix(0.9308 0.3654 -0.3654 0.9308 41.0861 -25.6052)" class="st5" cx="88.2" cy="95.7" rx="0.1" ry="0.2"/>
							
								<ellipse transform="matrix(0.9308 0.3654 -0.3654 0.9308 41.3441 -25.9)" class="st5" cx="89.1" cy="96.3" rx="0.1" ry="0.2"/>
							
								<ellipse transform="matrix(0.9308 0.3654 -0.3654 0.9308 40.9337 -26.105)" class="st5" cx="89.4" cy="95.1" rx="0.1" ry="0.2"/>
							
								<ellipse transform="matrix(0.9308 0.3654 -0.3654 0.9308 41.6232 -26.1127)" class="st5" cx="89.8" cy="96.9" rx="0.1" ry="0.2"/>
							
								<ellipse transform="matrix(0.9308 0.3654 -0.3654 0.9308 41.2405 -26.3618)" class="st5" cx="90.3" cy="95.8" rx="0.1" ry="0.2"/>
							
								<ellipse transform="matrix(0.9308 0.3654 -0.3654 0.9308 40.8946 -26.7111)" class="st5" cx="91" cy="94.7" rx="0.1" ry="0.2"/>
							
								<ellipse transform="matrix(0.9308 0.3654 -0.3654 0.9308 41.4402 -26.6796)" class="st5" cx="91.2" cy="96.1" rx="0.1" ry="0.2"/>
						</g>
						<g>
							<path class="st3" d="M83.2,86.1l-8.2,0.4c0,0,0-4.3,3.4-4.3C81.6,82.3,83.2,86.1,83.2,86.1z"/>
							<g>
								<path class="st4" d="M80.7,82.7c1.8,1.1,2.7,3.3,2.7,3.4l-0.6,0c0,0-1.4-3.6-4.5-3.6c-0.8,0-1.4,0.2-1.9,0.7
									c-1.2,1.1-1.2,3.3-1.2,3.3l-0.5,0c0-0.1,0-2.4,1.4-3.7c0.6-0.6,1.4-0.9,2.3-0.9C79.2,82,80,82.3,80.7,82.7z"/>
							</g>
							
								<ellipse transform="matrix(-0.8514 -0.5245 0.5245 -0.8514 105.208 200.3918)" class="st5" cx="81" cy="85.3" rx="0.1" ry="0.2"/>
							
								<ellipse transform="matrix(-0.8514 -0.5245 0.5245 -0.8514 104.1471 197.4097)" class="st5" cx="80" cy="84" rx="0.1" ry="0.2"/>
							
								<ellipse transform="matrix(-0.8514 -0.5245 0.5245 -0.8514 103.1034 199.0436)" class="st5" cx="79.7" cy="84.9" rx="0.1" ry="0.2"/>
							
								<ellipse transform="matrix(-0.8514 -0.5245 0.5245 -0.8514 101.9905 197.3589)" class="st5" cx="79" cy="84.2" rx="0.1" ry="0.2"/>
							
								<ellipse transform="matrix(-0.8514 -0.5245 0.5245 -0.8514 100.393 199.1231)" class="st5" cx="78.4" cy="85.3" rx="0.1" ry="0.2"/>
							
								<ellipse transform="matrix(-0.8514 -0.5245 0.5245 -0.8514 101.3175 195.681)" class="st5" cx="78.4" cy="83.5" rx="0.1" ry="0.2"/>
							
								<ellipse transform="matrix(-0.8514 -0.5245 0.5245 -0.8514 99.5385 197.2476)" class="st5" cx="77.7" cy="84.5" rx="0.1" ry="0.2"/>
							
								<ellipse transform="matrix(-0.8514 -0.5245 0.5245 -0.8514 97.3104 198.4947)" class="st5" cx="76.8" cy="85.5" rx="0.1" ry="0.2"/>
							
								<ellipse transform="matrix(-0.8514 -0.5245 0.5245 -0.8514 98.2295 195.8215)" class="st5" cx="76.9" cy="84" rx="0.1" ry="0.2"/>
						</g>
						<g>
							<path class="st3" d="M93.4,15.3l-6.5,4.9c0,0-2.5-3.6,0.3-5.4S93.4,15.3,93.4,15.3z"/>
							<g>
								<path class="st4" d="M89.4,13.9c2.2-0.1,4.1,1.2,4.2,1.3l-0.5,0.4c0,0-3.3-2.2-5.8-0.4c-0.6,0.4-1,1-1.1,1.6
									c-0.3,1.6,0.9,3.4,0.9,3.4l-0.4,0.3c-0.1-0.1-1.4-2-1-3.8c0.2-0.8,0.6-1.5,1.4-2C87.8,14.2,88.6,13.9,89.4,13.9z"/>
							</g>
							
								<ellipse transform="matrix(-0.999 4.405709e-02 -4.405709e-02 -0.999 182.9303 27.7108)" class="st5" cx="91.2" cy="15.9" rx="0.1" ry="0.2"/>
							
								<ellipse transform="matrix(-0.999 4.405709e-02 -4.405709e-02 -0.999 179.776 26.6417)" class="st5" cx="89.6" cy="15.3" rx="0.1" ry="0.2"/>
							
								<ellipse transform="matrix(-0.999 4.405709e-02 -4.405709e-02 -0.999 180.4677 28.5348)" class="st5" cx="89.9" cy="16.3" rx="0.1" ry="0.2"/>
							
								<ellipse transform="matrix(-0.999 4.405709e-02 -4.405709e-02 -0.999 178.3581 28.3439)" class="st5" cx="88.9" cy="16.1" rx="0.1" ry="0.2"/>
							
								<ellipse transform="matrix(-0.999 4.405709e-02 -4.405709e-02 -0.999 178.8047 30.7667)" class="st5" cx="89.1" cy="17.4" rx="0.1" ry="0.2"/>
							
								<ellipse transform="matrix(-0.999 4.405709e-02 -4.405709e-02 -0.999 176.5347 27.8037)" class="st5" cx="88" cy="15.8" rx="0.1" ry="0.2"/>
							
								<ellipse transform="matrix(-0.999 4.405709e-02 -4.405709e-02 -0.999 176.7014 30.245)" class="st5" cx="88" cy="17.1" rx="0.1" ry="0.2"/>
							
								<ellipse transform="matrix(-0.999 4.405709e-02 -4.405709e-02 -0.999 176.3162 32.8417)" class="st5" cx="87.8" cy="18.4" rx="0.1" ry="0.2"/>
							
								<ellipse transform="matrix(-0.999 4.405709e-02 -4.405709e-02 -0.999 174.6815 30.3787)" class="st5" cx="87" cy="17.1" rx="0.1" ry="0.2"/>
						</g>
						<g>
							<path class="st3" d="M47.1,19.5l-6.5,4.9c0,0-2.5-3.6,0.3-5.4C43.7,17.2,47.1,19.5,47.1,19.5z"/>
							<g>
								<path class="st4" d="M43.1,18c2.2-0.1,4.1,1.2,4.2,1.3l-0.5,0.4c0,0-3.3-2.2-5.8-0.4c-0.6,0.4-1,1-1.1,1.6
									c-0.3,1.6,0.9,3.4,0.9,3.4l-0.4,0.3c-0.1-0.1-1.4-2-1-3.8c0.2-0.8,0.6-1.5,1.4-2C41.5,18.3,42.3,18.1,43.1,18z"/>
							</g>
							
								<ellipse transform="matrix(-0.999 4.405709e-02 -4.405709e-02 -0.999 90.6074 38.0212)" class="st5" cx="44.9" cy="20" rx="0.1" ry="0.2"/>
							
								<ellipse transform="matrix(-0.999 4.405709e-02 -4.405709e-02 -0.999 87.453 36.9522)" class="st5" cx="43.3" cy="19.4" rx="0.1" ry="0.2"/>
							
								<ellipse transform="matrix(-0.999 4.405709e-02 -4.405709e-02 -0.999 88.1447 38.8453)" class="st5" cx="43.6" cy="20.4" rx="0.1" ry="0.2"/>
							
								<ellipse transform="matrix(-0.999 4.405709e-02 -4.405709e-02 -0.999 86.0351 38.6544)" class="st5" cx="42.6" cy="20.3" rx="0.1" ry="0.2"/>
							
								<ellipse transform="matrix(-0.999 4.405709e-02 -4.405709e-02 -0.999 86.4818 41.0772)" class="st5" cx="42.8" cy="21.5" rx="0.1" ry="0.2"/>
							
								<ellipse transform="matrix(-0.999 4.405709e-02 -4.405709e-02 -0.999 84.2117 38.1142)" class="st5" cx="41.7" cy="20" rx="0.1" ry="0.2"/>
							
								<ellipse transform="matrix(-0.999 4.405709e-02 -4.405709e-02 -0.999 84.3784 40.5555)" class="st5" cx="41.7" cy="21.2" rx="0.1" ry="0.2"/>
							
								<ellipse transform="matrix(-0.999 4.405709e-02 -4.405709e-02 -0.999 83.9932 43.1522)" class="st5" cx="41.5" cy="22.5" rx="0.1" ry="0.2"/>
							
								<ellipse transform="matrix(-0.999 4.405709e-02 -4.405709e-02 -0.999 82.3586 40.6892)" class="st5" cx="40.7" cy="21.3" rx="0.1" ry="0.2"/>
						</g>
						<g>
							<path class="st3" d="M84,3.2l-7.9,2.2c0,0-1-4.2,2.3-4.9C81.7-0.2,84,3.2,84,3.2z"/>
							<g>
								<path class="st4" d="M80.8,0.4c2,0.7,3.4,2.6,3.4,2.7l-0.6,0.2c0,0-2.2-3.2-5.2-2.5c-0.7,0.2-1.3,0.5-1.7,1.1
									c-0.9,1.4-0.4,3.5-0.4,3.5l-0.5,0.1c0-0.1-0.5-2.3,0.5-3.9c0.5-0.7,1.1-1.1,2-1.3C79.3,0,80.1,0.1,80.8,0.4z"/>
							</g>
							
								<ellipse transform="matrix(-0.9451 -0.3268 0.3268 -0.9451 158.0325 32.24)" class="st5" cx="81.7" cy="2.8" rx="0.1" ry="0.2"/>
							
								<ellipse transform="matrix(-0.9451 -0.3268 0.3268 -0.9451 155.9968 29.693)" class="st5" cx="80.5" cy="1.7" rx="0.1" ry="0.2"/>
							
								<ellipse transform="matrix(-0.9451 -0.3268 0.3268 -0.9451 155.5411 31.6237)" class="st5" cx="80.4" cy="2.7" rx="0.1" ry="0.2"/>
							
								<ellipse transform="matrix(-0.9451 -0.3268 0.3268 -0.9451 153.8945 30.3539)" class="st5" cx="79.5" cy="2.2" rx="0.1" ry="0.2"/>
							
								<ellipse transform="matrix(-0.9451 -0.3268 0.3268 -0.9451 152.9475 32.5935)" class="st5" cx="79.2" cy="3.4" rx="0.1" ry="0.2"/>
							
								<ellipse transform="matrix(-0.9451 -0.3268 0.3268 -0.9451 152.6756 28.9459)" class="st5" cx="78.8" cy="1.6" rx="0.1" ry="0.2"/>
							
								<ellipse transform="matrix(-0.9451 -0.3268 0.3268 -0.9451 151.4861 31.0533)" class="st5" cx="78.4" cy="2.8" rx="0.1" ry="0.2"/>
							
								<ellipse transform="matrix(-0.9451 -0.3268 0.3268 -0.9451 149.7543 32.9984)" class="st5" cx="77.6" cy="3.9" rx="0.1" ry="0.2"/>
							
								<ellipse transform="matrix(-0.9451 -0.3268 0.3268 -0.9451 149.7375 30.0993)" class="st5" cx="77.4" cy="2.5" rx="0.1" ry="0.2"/>
						</g>
						<g>
							<path class="st3" d="M77.1,116l-8.2,0.4c0,0,0-4.3,3.4-4.3C75.6,112.2,77.1,116,77.1,116z"/>
							<g>
								<path class="st4" d="M74.7,112.6c1.8,1.1,2.7,3.3,2.7,3.4l-0.6,0c0,0-1.4-3.6-4.5-3.6c-0.8,0-1.4,0.2-1.9,0.7
									c-1.2,1.1-1.2,3.3-1.2,3.3l-0.5,0c0-0.1,0-2.4,1.4-3.7c0.6-0.6,1.4-0.9,2.3-0.9C73.2,111.9,74,112.2,74.7,112.6z"/>
							</g>
							
								<ellipse transform="matrix(-0.8514 -0.5245 0.5245 -0.8514 78.3909 252.5679)" class="st5" cx="75" cy="115.2" rx="0.1" ry="0.2"/>
							
								<ellipse transform="matrix(-0.8514 -0.5245 0.5245 -0.8514 77.3301 249.5859)" class="st5" cx="74" cy="113.8" rx="0.1" ry="0.2"/>
							
								<ellipse transform="matrix(-0.8514 -0.5245 0.5245 -0.8514 76.2864 251.2197)" class="st5" cx="73.7" cy="114.8" rx="0.1" ry="0.2"/>
							
								<ellipse transform="matrix(-0.8514 -0.5245 0.5245 -0.8514 75.1735 249.535)" class="st5" cx="72.9" cy="114.1" rx="0.1" ry="0.2"/>
							
								<ellipse transform="matrix(-0.8514 -0.5245 0.5245 -0.8514 73.5759 251.2992)" class="st5" cx="72.4" cy="115.2" rx="0.1" ry="0.2"/>
							
								<ellipse transform="matrix(-0.8514 -0.5245 0.5245 -0.8514 74.5005 247.8571)" class="st5" cx="72.4" cy="113.4" rx="0.1" ry="0.2"/>
							
								<ellipse transform="matrix(-0.8514 -0.5245 0.5245 -0.8514 72.7214 249.4237)" class="st5" cx="71.7" cy="114.4" rx="0.1" ry="0.2"/>
							
								<ellipse transform="matrix(-0.8514 -0.5245 0.5245 -0.8514 70.4933 250.6708)" class="st5" cx="70.8" cy="115.4" rx="0.1" ry="0.2"/>
							
								<ellipse transform="matrix(-0.8514 -0.5245 0.5245 -0.8514 71.4125 247.9976)" class="st5" cx="70.8" cy="113.9" rx="0.1" ry="0.2"/>
						</g>
						<g>
							<path class="st3" d="M34.8,104.8l-8.2,0.4c0,0,0-4.3,3.4-4.3S34.8,104.8,34.8,104.8z"/>
							<g>
								<path class="st4" d="M32.3,101.3c1.8,1.1,2.7,3.3,2.7,3.4l-0.6,0c0,0-1.4-3.6-4.5-3.6c-0.8,0-1.4,0.2-1.9,0.7
									c-1.2,1.1-1.2,3.3-1.2,3.3l-0.5,0c0-0.1,0-2.4,1.4-3.7c0.6-0.6,1.4-0.9,2.3-0.9C30.9,100.6,31.7,100.9,32.3,101.3z"/>
							</g>
							
								<ellipse transform="matrix(-0.8514 -0.5245 0.5245 -0.8514 5.8847 209.543)" class="st5" cx="32.6" cy="103.9" rx="0.1" ry="0.2"/>
							
								<ellipse transform="matrix(-0.8514 -0.5245 0.5245 -0.8514 4.8238 206.561)" class="st5" cx="31.7" cy="102.6" rx="0.1" ry="0.2"/>
							
								<ellipse transform="matrix(-0.8514 -0.5245 0.5245 -0.8514 3.7802 208.1949)" class="st5" cx="31.4" cy="103.6" rx="0.1" ry="0.2"/>
							
								<ellipse transform="matrix(-0.8514 -0.5245 0.5245 -0.8514 2.6673 206.5101)" class="st5" cx="30.6" cy="102.9" rx="0.1" ry="0.2"/>
							
								<ellipse transform="matrix(-0.8514 -0.5245 0.5245 -0.8514 1.0697 208.2744)" class="st5" cx="30" cy="104" rx="0.1" ry="0.2"/>
							
								<ellipse transform="matrix(-0.8514 -0.5245 0.5245 -0.8514 1.9943 204.8323)" class="st5" cx="30" cy="102.1" rx="0.1" ry="0.2"/>
							
								<ellipse transform="matrix(-0.8514 -0.5245 0.5245 -0.8514 0.2152 206.3988)" class="st5" cx="29.3" cy="103.2" rx="0.1" ry="0.2"/>
							
								<ellipse transform="matrix(-0.8514 -0.5245 0.5245 -0.8514 -2.0129 207.6459)" class="st5" cx="28.4" cy="104.1" rx="0.1" ry="0.2"/>
							
								<ellipse transform="matrix(-0.8514 -0.5245 0.5245 -0.8514 -1.0938 204.9727)" class="st5" cx="28.5" cy="102.6" rx="0.1" ry="0.2"/>
						</g>
						<g>
							<path class="st3" d="M58.9,52.4l6.8-4.6c0,0,2.3,3.7-0.5,5.4C62.3,54.8,58.9,52.4,58.9,52.4z"/>
							<g>
								<path class="st4" d="M62.9,54c-2.2,0-4.1-1.4-4.2-1.5l0.5-0.3c0,0,3.1,2.3,5.8,0.7c0.6-0.4,1.1-0.9,1.2-1.6
									c0.4-1.6-0.8-3.4-0.8-3.4l0.5-0.3c0.1,0.1,1.3,2,0.8,3.8c-0.2,0.8-0.7,1.4-1.5,1.9C64.5,53.8,63.7,54,62.9,54z"/>
							</g>
							<ellipse class="st5" cx="61.2" cy="51.9" rx="0.1" ry="0.2"/>
							<ellipse class="st5" cx="62.8" cy="52.6" rx="0.1" ry="0.2"/>
							<ellipse class="st5" cx="62.5" cy="51.6" rx="0.1" ry="0.2"/>
							<ellipse class="st5" cx="63.5" cy="51.8" rx="0.1" ry="0.2"/>
							<ellipse class="st5" cx="63.4" cy="50.6" rx="0.1" ry="0.2"/>
							<ellipse class="st5" cx="64.4" cy="52.1" rx="0.1" ry="0.2"/>
							<ellipse class="st5" cx="64.4" cy="50.9" rx="0.1" ry="0.2"/>
							<ellipse class="st5" cx="64.7" cy="49.6" rx="0.1" ry="0.2"/>
							<ellipse class="st5" cx="65.4" cy="50.9" rx="0.1" ry="0.2"/>
						</g>
						<g>
							<path class="st3" d="M53.5,38.9l4.6,6.7c0,0-3.8,2.2-5.5-0.6C51,42.1,53.5,38.9,53.5,38.9z"/>
							<g>
								<path class="st4" d="M51.8,42.7c0-2.1,1.5-3.9,1.6-4l0.3,0.5c0,0-2.4,3-0.8,5.7c0.4,0.6,0.9,1,1.6,1.2
									c1.6,0.4,3.5-0.7,3.5-0.7l0.3,0.5c-0.1,0-2.1,1.2-3.9,0.7c-0.8-0.2-1.5-0.7-1.9-1.5C51.9,44.3,51.8,43.5,51.8,42.7z"/>
							</g>
							<ellipse class="st5" cx="53.9" cy="41.1" rx="0.2" ry="0.1"/>
							<ellipse class="st5" cx="53.2" cy="42.6" rx="0.2" ry="0.1"/>
							<ellipse class="st5" cx="54.2" cy="42.3" rx="0.2" ry="0.1"/>
							<ellipse class="st5" cx="54" cy="43.4" rx="0.2" ry="0.1"/>
							<ellipse class="st5" cx="55.3" cy="43.2" rx="0.2" ry="0.1"/>
							<ellipse class="st5" cx="53.7" cy="44.2" rx="0.2" ry="0.1"/>
							<ellipse class="st5" cx="54.9" cy="44.2" rx="0.2" ry="0.1"/>
							<ellipse class="st5" cx="56.2" cy="44.5" rx="0.2" ry="0.1"/>
							<ellipse class="st5" cx="54.9" cy="45.2" rx="0.2" ry="0.1"/>
						</g>
						<g>
							<path class="st3" d="M30.2,6.4l4.6,6.7c0,0-3.8,2.2-5.5-0.6C27.6,9.6,30.2,6.4,30.2,6.4z"/>
							<g>
								<path class="st4" d="M28.4,10.2c0-2.1,1.5-3.9,1.6-4l0.3,0.5c0,0-2.4,3-0.8,5.7c0.4,0.6,0.9,1,1.6,1.2
									c1.6,0.4,3.5-0.7,3.5-0.7l0.3,0.5c-0.1,0-2.1,1.2-3.9,0.7c-0.8-0.2-1.5-0.7-1.9-1.5C28.6,11.8,28.4,11,28.4,10.2z"/>
							</g>
							<ellipse class="st5" cx="30.6" cy="8.6" rx="0.2" ry="0.1"/>
							<ellipse class="st5" cx="29.9" cy="10.1" rx="0.2" ry="0.1"/>
							<ellipse class="st5" cx="30.9" cy="9.8" rx="0.2" ry="0.1"/>
							<ellipse class="st5" cx="30.7" cy="10.8" rx="0.2" ry="0.1"/>
							<ellipse class="st5" cx="31.9" cy="10.7" rx="0.2" ry="0.1"/>
							<ellipse class="st5" cx="30.3" cy="11.7" rx="0.2" ry="0.1"/>
							<ellipse class="st5" cx="31.6" cy="11.7" rx="0.2" ry="0.1"/>
							<ellipse class="st5" cx="32.9" cy="12" rx="0.2" ry="0.1"/>
							<ellipse class="st5" cx="31.5" cy="12.7" rx="0.2" ry="0.1"/>
						</g>
						<g>
							<path class="st3" d="M73.5,97.1l4.6,6.7c0,0-3.8,2.2-5.5-0.6S73.5,97.1,73.5,97.1z"/>
							<g>
								<path class="st4" d="M71.7,100.9c0-2.1,1.5-3.9,1.6-4l0.3,0.5c0,0-2.4,3-0.8,5.7c0.4,0.6,0.9,1,1.6,1.2
									c1.6,0.4,3.5-0.7,3.5-0.7l0.3,0.5c-0.1,0-2.1,1.2-3.9,0.7c-0.8-0.2-1.5-0.7-1.9-1.5C71.9,102.5,71.7,101.7,71.7,100.9z"/>
							</g>
							<ellipse class="st5" cx="73.9" cy="99.3" rx="0.2" ry="0.1"/>
							<ellipse class="st5" cx="73.2" cy="100.8" rx="0.2" ry="0.1"/>
							<ellipse class="st5" cx="74.2" cy="100.6" rx="0.2" ry="0.1"/>
							<ellipse class="st5" cx="74" cy="101.6" rx="0.2" ry="0.1"/>
							<ellipse class="st5" cx="75.2" cy="101.5" rx="0.2" ry="0.1"/>
							<ellipse class="st5" cx="73.6" cy="102.4" rx="0.2" ry="0.1"/>
							<ellipse class="st5" cx="74.9" cy="102.5" rx="0.2" ry="0.1"/>
							<ellipse class="st5" cx="76.2" cy="102.8" rx="0.2" ry="0.1"/>
							<ellipse class="st5" cx="74.8" cy="103.5" rx="0.2" ry="0.1"/>
						</g>
						<g>
							<path class="st3" d="M32.1,92.6l6.8-4.6c0,0,2.3,3.7-0.5,5.4S32.1,92.6,32.1,92.6z"/>
							<g>
								<path class="st4" d="M36.1,94.2c-2.2,0-4.1-1.4-4.2-1.5l0.5-0.3c0,0,3.1,2.3,5.8,0.7c0.6-0.4,1.1-0.9,1.2-1.6
									c0.4-1.6-0.8-3.4-0.8-3.4l0.5-0.3c0.1,0.1,1.3,2,0.8,3.8c-0.2,0.8-0.7,1.4-1.5,1.9C37.7,94.1,36.9,94.2,36.1,94.2z"/>
							</g>
							<ellipse class="st5" cx="34.4" cy="92.2" rx="0.1" ry="0.2"/>
							<ellipse class="st5" cx="35.9" cy="92.8" rx="0.1" ry="0.2"/>
							<ellipse class="st5" cx="35.7" cy="91.9" rx="0.1" ry="0.2"/>
							<ellipse class="st5" cx="36.7" cy="92" rx="0.1" ry="0.2"/>
							<ellipse class="st5" cx="36.6" cy="90.8" rx="0.1" ry="0.2"/>
							<ellipse class="st5" cx="37.6" cy="92.4" rx="0.1" ry="0.2"/>
							<ellipse class="st5" cx="37.6" cy="91.2" rx="0.1" ry="0.2"/>
							<ellipse class="st5" cx="37.9" cy="89.9" rx="0.1" ry="0.2"/>
							<ellipse class="st5" cx="38.6" cy="91.2" rx="0.1" ry="0.2"/>
						</g>
						<g>
							<path class="st3" d="M60.9,93.8l6.8-4.6c0,0,2.3,3.7-0.5,5.4C64.2,96.3,60.9,93.8,60.9,93.8z"/>
							<g>
								<path class="st4" d="M64.8,95.4c-2.2,0-4.1-1.4-4.2-1.5l0.5-0.3c0,0,3.1,2.3,5.8,0.7c0.6-0.4,1.1-0.9,1.2-1.6
									c0.4-1.6-0.8-3.4-0.8-3.4l0.5-0.3c0.1,0.1,1.3,2,0.8,3.8c-0.2,0.8-0.7,1.4-1.5,1.9C66.4,95.3,65.6,95.4,64.8,95.4z"/>
							</g>
							<ellipse class="st5" cx="63.1" cy="93.4" rx="0.1" ry="0.2"/>
							<ellipse class="st5" cx="64.7" cy="94" rx="0.1" ry="0.2"/>
							<ellipse class="st5" cx="64.4" cy="93.1" rx="0.1" ry="0.2"/>
							<ellipse class="st5" cx="65.5" cy="93.2" rx="0.1" ry="0.2"/>
							<ellipse class="st5" cx="65.3" cy="92" rx="0.1" ry="0.2"/>
							<ellipse class="st5" cx="66.3" cy="93.6" rx="0.1" ry="0.2"/>
							<ellipse class="st5" cx="66.3" cy="92.3" rx="0.1" ry="0.2"/>
							<ellipse class="st5" cx="66.6" cy="91.1" rx="0.1" ry="0.2"/>
							<ellipse class="st5" cx="67.4" cy="92.3" rx="0.1" ry="0.2"/>
						</g>
					</g>
				</g>
			</g>
		</g>
		<g>
			<path class="st5" d="M75.3,41.1c0,0-11.6,0.8-16.2,0.6c-4.7,0.3-16.2-0.6-16.2-0.6c-0.3,1,0.3,2.2,0.3,2.2c5.4,1.4,16,1.4,16,1.4
				s10.5,0.1,16-1.4C75.1,43.3,75.6,42.2,75.3,41.1z"/>
			<polygon class="st2" points="59.9,40.4 57.6,43.5 59.9,46.5 62.1,43.5 			"/>
		</g>
		<g>
			<path class="st4" d="M40.6,29c0,0-0.2-0.8-0.3-1.9c-0.2-1.2-0.3-2.7-0.4-4.2c-0.1-1.5-0.1-3.1-0.1-4.3c0-1.2,0.1-1.9,0.1-1.9
				s0.1,0.8,0.2,1.9c0.1,1.2,0.2,2.7,0.3,4.2c0.1,1.5,0.1,3.1,0.2,4.2C40.6,28.2,40.6,29,40.6,29z"/>
		</g>
		<g>
			<path class="st4" d="M77.8,29c0,0,0-0.8,0-1.9c0-1.2,0.1-2.7,0.2-4.2c0.1-1.5,0.2-3.1,0.3-4.2c0.1-1.2,0.2-1.9,0.2-1.9
				s0.1,0.8,0.1,1.9c0,1.2,0,2.7-0.1,4.3c-0.1,1.5-0.3,3.1-0.4,4.2C77.9,28.2,77.8,29,77.8,29z"/>
		</g>
	</g>
</g>
<path class="st2" d="M29.9,24c-0.3-0.6-0.9-1.4-1.7-1.5c-0.6-0.1-1.1,0.3-1.6,0.7c-0.1,0.1-0.1,0.1-0.2,0.2c-0.5,0.2-1,0.4-1.3,0.8
	c-0.5,0.6-1.2,1.4-1,2.2c0.2,0.9,0.9,1.5,1.7,1.8c0.2,0.1,0.3,0.2,0.5,0.2c0.4,0,0.7,0,0.9-0.2c0.2-0.1,0.5-0.2,0.7-0.4
	C29.1,26.9,30.6,25.7,29.9,24z"/>
<path class="st3" d="M18.6,30.2l5.6-5.9c0,0,3.1,3.1,0.7,5.4S18.6,30.2,18.6,30.2z"/>
<path class="st4" d="M22.9,31c-2.1,0.4-4.3-0.5-4.4-0.6l0.4-0.4c0,0,3.6,1.6,5.8-0.5c0.5-0.5,0.8-1.1,0.8-1.8c0-1.6-1.5-3.2-1.5-3.2
	l0.4-0.4c0.1,0.1,1.7,1.7,1.7,3.6c0,0.8-0.4,1.5-1,2.2C24.4,30.5,23.6,30.8,22.9,31"/>
<ellipse transform="matrix(0.978 -0.2085 0.2085 0.978 -5.6563 4.9759)" class="st5" cx="20.8" cy="29.3" rx="0.1" ry="0.2"/>
<ellipse transform="matrix(0.978 -0.2085 0.2085 0.978 -5.6833 5.3247)" class="st5" cx="22.4" cy="29.6" rx="0.1" ry="0.2"/>
<ellipse transform="matrix(0.978 -0.2085 0.2085 0.978 -5.5091 5.2041)" class="st5" cx="21.9" cy="28.7" rx="0.1" ry="0.2"/>
<ellipse transform="matrix(0.978 -0.2085 0.2085 0.978 -5.4741 5.4234)" class="st5" cx="23" cy="28.7" rx="0.1" ry="0.2"/>
<ellipse transform="matrix(0.978 -0.2085 0.2085 0.978 -5.2398 5.3136)" class="st5" cx="22.6" cy="27.5" rx="0.1" ry="0.2"/>
<ellipse transform="matrix(0.978 -0.2085 0.2085 0.978 -5.4818 5.6229)" class="st5" cx="23.9" cy="28.8" rx="0.1" ry="0.2"/>
<ellipse transform="matrix(0.978 -0.2085 0.2085 0.978 -5.2384 5.5411)" class="st5" cx="23.7" cy="27.6" rx="0.1" ry="0.2"/>
<ellipse transform="matrix(0.978 -0.2085 0.2085 0.978 -4.9651 5.5111)" class="st5" cx="23.7" cy="26.3" rx="0.1" ry="0.2"/>
<ellipse transform="matrix(0.978 -0.2085 0.2085 0.978 -5.1728 5.7426)" class="st5" cx="24.7" cy="27.4" rx="0.1" ry="0.2"/>
<path class="st2" d="M12.8,59.7c-0.3-0.6-0.9-1.4-1.7-1.5c-0.6-0.1-1.1,0.3-1.6,0.7c-0.1,0.1-0.1,0.1-0.2,0.2
	c-0.5,0.2-1,0.4-1.3,0.8c-0.5,0.6-1.2,1.4-1,2.2c0.2,0.9,0.9,1.5,1.7,1.8C8.9,64,9,64.1,9.2,64.1c0.4,0,0.7,0,0.9-0.2
	c0.2-0.1,0.5-0.2,0.7-0.4C12.1,62.6,13.6,61.4,12.8,59.7z"/>
<path class="st3" d="M1.6,66L7.2,60c0,0,3.1,3.1,0.7,5.4S1.6,66,1.6,66z"/>
<path class="st4" d="M5.8,66.7c-2.1,0.4-4.3-0.5-4.4-0.6l0.4-0.4c0,0,3.6,1.6,5.8-0.5c0.5-0.5,0.8-1.1,0.8-1.8
	c0-1.6-1.5-3.2-1.5-3.2l0.4-0.4c0.1,0.1,1.7,1.7,1.7,3.6c0,0.8-0.4,1.5-1,2.2C7.3,66.2,6.6,66.5,5.8,66.7"/>
<ellipse transform="matrix(0.978 -0.2085 0.2085 0.978 -13.4798 2.2069)" class="st5" cx="3.7" cy="65.1" rx="0.1" ry="0.2"/>
<ellipse transform="matrix(0.978 -0.2085 0.2085 0.978 -13.5069 2.5557)" class="st5" cx="5.4" cy="65.4" rx="0.1" ry="0.2"/>
<ellipse transform="matrix(0.978 -0.2085 0.2085 0.978 -13.3327 2.4351)" class="st5" cx="4.9" cy="64.5" rx="0.1" ry="0.2"/>
<ellipse transform="matrix(0.978 -0.2085 0.2085 0.978 -13.2976 2.6544)" class="st5" cx="5.9" cy="64.4" rx="0.1" ry="0.2"/>
<ellipse transform="matrix(0.978 -0.2085 0.2085 0.978 -13.0633 2.5446)" class="st5" cx="5.5" cy="63.3" rx="0.1" ry="0.2"/>
<ellipse transform="matrix(0.978 -0.2085 0.2085 0.978 -13.3054 2.8539)" class="st5" cx="6.9" cy="64.6" rx="0.1" ry="0.2"/>
<ellipse transform="matrix(0.978 -0.2085 0.2085 0.978 -13.062 2.7721)" class="st5" cx="6.6" cy="63.4" rx="0.1" ry="0.2"/>
<ellipse transform="matrix(0.978 -0.2085 0.2085 0.978 -12.7886 2.7421)" class="st5" cx="6.6" cy="62" rx="0.1" ry="0.2"/>
<ellipse transform="matrix(0.978 -0.2085 0.2085 0.978 -12.9963 2.9736)" class="st5" cx="7.6" cy="63.1" rx="0.1" ry="0.2"/>
<path class="st2" d="M17.2,47.5c0.7,0.1,1.8,0,2.3-0.5c0.4-0.5,0.4-1.1,0.3-1.7c0-0.1-0.1-0.2-0.1-0.3c0.1-0.5,0.2-1,0.1-1.5
	c-0.2-0.8-0.5-1.7-1.3-2c-0.8-0.3-1.8-0.2-2.5,0.3c-0.2,0.1-0.4,0.2-0.5,0.3c-0.2,0.3-0.3,0.6-0.4,0.9c-0.1,0.2-0.1,0.5-0.1,0.8
	C15.1,45.3,15.3,47.2,17.2,47.5z"/>
<path class="st3" d="M18.1,34.9l2,7.8c0,0-4.3,0.8-4.9-2.4C14.5,37.1,18.1,34.9,18.1,34.9z"/>
<path class="st4" d="M15.1,37.9c0.8-2,2.8-3.2,2.9-3.3l0.1,0.6c0,0-3.3,2-2.8,5c0.1,0.7,0.5,1.3,1.1,1.7c1.4,0.9,3.5,0.6,3.6,0.5
	l0.1,0.5c-0.1,0-2.4,0.4-4-0.6c-0.7-0.5-1.1-1.1-1.3-2C14.7,39.5,14.8,38.6,15.1,37.9"/>
<ellipse transform="matrix(-0.3733 0.9277 -0.9277 -0.3733 58.7584 34.6183)" class="st5" cx="17.7" cy="37.2" rx="0.1" ry="0.2"/>
<ellipse transform="matrix(-0.3733 0.9277 -0.9277 -0.3733 58.2325 37.3036)" class="st5" cx="16.5" cy="38.3" rx="0.1" ry="0.2"/>
<ellipse transform="matrix(-0.3733 0.9277 -0.9277 -0.3733 59.7304 36.4895)" class="st5" cx="17.5" cy="38.4" rx="0.1" ry="0.2"/>
<ellipse transform="matrix(-0.3733 0.9277 -0.9277 -0.3733 59.8157 38.2143)" class="st5" cx="17" cy="39.3" rx="0.1" ry="0.2"/>
<ellipse transform="matrix(-0.3733 0.9277 -0.9277 -0.3733 61.7835 37.5255)" class="st5" cx="18.2" cy="39.6" rx="0.1" ry="0.2"/>
<ellipse transform="matrix(-0.3733 0.9277 -0.9277 -0.3733 59.5765 39.756)" class="st5" cx="16.4" cy="40" rx="0.1" ry="0.2"/>
<ellipse transform="matrix(-0.3733 0.9277 -0.9277 -0.3733 61.5922 39.2902)" class="st5" cx="17.5" cy="40.4" rx="0.1" ry="0.2"/>
<ellipse transform="matrix(-0.3733 0.9277 -0.9277 -0.3733 63.8013 39.2476)" class="st5" cx="18.6" cy="41.2" rx="0.1" ry="0.2"/>
<ellipse transform="matrix(-0.3733 0.9277 -0.9277 -0.3733 61.9375 40.8986)" class="st5" cx="17.2" cy="41.4" rx="0.1" ry="0.2"/>
<path class="st2" d="M11.5,47.8c-0.6,0.3-1.4,1.1-1.4,1.8c0,0.6,0.4,1.1,0.9,1.4c0.1,0.1,0.2,0.1,0.2,0.2c0.2,0.5,0.5,0.9,1,1.2
	c0.7,0.4,1.5,1,2.4,0.7c0.8-0.3,1.5-1,1.7-1.8c0.1-0.2,0.2-0.3,0.2-0.5c0-0.4-0.1-0.6-0.3-0.9c-0.1-0.2-0.3-0.4-0.5-0.6
	C14.5,48.2,13.2,46.9,11.5,47.8z"/>
<path class="st3" d="M15.9,55.3l-6.6-4.8c0,0,2.8-3.3,5.4-1.2C17.2,51.4,15.9,55.3,15.9,55.3z"/>
<path class="st4" d="M16.2,51.1c0.7,2-0.1,4.2-0.1,4.3l-0.5-0.4c0,0,1.2-3.6-1.2-5.6c-0.6-0.5-1.2-0.7-1.9-0.6
	c-1.7,0.1-3.1,1.8-3.1,1.8L9,50.4c0.1-0.1,1.6-1.8,3.5-2c0.8-0.1,1.6,0.2,2.3,0.7C15.5,49.7,15.9,50.4,16.2,51.1"/>
<ellipse transform="matrix(-0.3244 -0.9459 0.9459 -0.3244 -30.9293 84.576)" class="st5" cx="14.7" cy="53.3" rx="0.1" ry="0.2"/>
<ellipse transform="matrix(-0.3244 -0.9459 0.9459 -0.3244 -29.2178 82.5434)" class="st5" cx="14.9" cy="51.7" rx="0.1" ry="0.2"/>
<ellipse transform="matrix(-0.3244 -0.9459 0.9459 -0.3244 -30.8796 82.4917)" class="st5" cx="14" cy="52.3" rx="0.1" ry="0.2"/>
<ellipse transform="matrix(-0.3244 -0.9459 0.9459 -0.3244 -30.1415 80.9751)" class="st5" cx="13.8" cy="51.3" rx="0.1" ry="0.2"/>
<ellipse transform="matrix(-0.3244 -0.9459 0.9459 -0.3244 -32.1457 80.5817)" class="st5" cx="12.7" cy="51.8" rx="0.1" ry="0.2"/>
<ellipse transform="matrix(-0.3244 -0.9459 0.9459 -0.3244 -29.2124 79.7768)" class="st5" cx="13.9" cy="50.3" rx="0.1" ry="0.2"/>
<ellipse transform="matrix(-0.3244 -0.9459 0.9459 -0.3244 -31.1527 79.169)" class="st5" cx="12.7" cy="50.7" rx="0.1" ry="0.2"/>
<ellipse transform="matrix(-0.3244 -0.9459 0.9459 -0.3244 -33.059 78.1029)" class="st5" cx="11.4" cy="50.9" rx="0.1" ry="0.2"/>
<ellipse transform="matrix(-0.3244 -0.9459 0.9459 -0.3244 -30.6914 77.622)" class="st5" cx="12.4" cy="49.8" rx="0.1" ry="0.2"/>
<path class="st2" d="M95.7,30.6c0.4-0.6,0.8-1.5,0.5-2.2c-0.2-0.6-0.8-0.8-1.4-1c-0.1,0-0.2,0-0.3-0.1c-0.4-0.4-0.8-0.6-1.4-0.7
	c-0.8-0.2-1.8-0.3-2.5,0.2c-0.7,0.6-1,1.5-0.8,2.3c0,0.2,0,0.4,0.1,0.6c0.1,0.3,0.4,0.5,0.6,0.7c0.2,0.2,0.4,0.3,0.7,0.4
	C92.8,31.4,94.5,32.1,95.7,30.6z"/>
<path class="st3" d="M84.6,24.1l8,1.9c0,0-1.3,4.1-4.5,3.2S84.6,24.1,84.6,24.1z"/>
<path class="st4" d="M86,28c-1.4-1.6-1.6-3.9-1.6-4l0.6,0.1c0,0,0.3,3.8,3.3,4.7c0.7,0.2,1.4,0.2,2-0.2c1.5-0.8,2.1-2.8,2.1-2.8
	l0.5,0.2c0,0.1-0.7,2.3-2.4,3.2c-0.7,0.4-1.6,0.5-2.4,0.2C87.2,29.1,86.5,28.6,86,28"/>
<ellipse transform="matrix(0.6703 0.7421 -0.7421 0.6703 47.4024 -55.7891)" class="st5" cx="86.5" cy="25.4" rx="0.1" ry="0.2"/>
<ellipse transform="matrix(0.6703 0.7421 -0.7421 0.6703 48.7259 -55.6706)" class="st5" cx="87" cy="27" rx="0.1" ry="0.2"/>
<ellipse transform="matrix(0.6703 0.7421 -0.7421 0.6703 48.2815 -56.3624)" class="st5" cx="87.6" cy="26.2" rx="0.1" ry="0.2"/>
<ellipse transform="matrix(0.6703 0.7421 -0.7421 0.6703 49.118 -56.4936)" class="st5" cx="88.1" cy="27" rx="0.1" ry="0.2"/>
<ellipse transform="matrix(0.6703 0.7421 -0.7421 0.6703 48.7196 -57.4222)" class="st5" cx="89" cy="26.1" rx="0.1" ry="0.2"/>
<ellipse transform="matrix(0.6703 0.7421 -0.7421 0.6703 49.8758 -56.4563)" class="st5" cx="88.5" cy="27.9" rx="0.1" ry="0.2"/>
<ellipse transform="matrix(0.6703 0.7421 -0.7421 0.6703 49.5843 -57.4199)" class="st5" cx="89.4" cy="27.1" rx="0.1" ry="0.2"/>
<ellipse transform="matrix(0.6703 0.7421 -0.7421 0.6703 49.4926 -58.5003)" class="st5" cx="90.6" cy="26.4" rx="0.1" ry="0.2"/>
<ellipse transform="matrix(0.6703 0.7421 -0.7421 0.6703 50.3558 -57.6726)" class="st5" cx="90.1" cy="27.8" rx="0.1" ry="0.2"/>
<path class="st2" d="M99.3,31.9c-0.6-0.3-1.7-0.5-2.3-0.1c-0.5,0.3-0.7,0.9-0.8,1.5c0,0.1,0,0.2,0,0.3c-0.3,0.4-0.5,0.9-0.5,1.5
	c0,0.8,0,1.8,0.7,2.3c0.7,0.5,1.7,0.7,2.5,0.4c0.2,0,0.4-0.1,0.6-0.2c0.3-0.2,0.5-0.4,0.6-0.7c0.1-0.2,0.2-0.5,0.3-0.7
	C100.6,34.6,101,32.8,99.3,31.9z"/>
<path class="st3" d="M94.7,43.7l0.5-8c0,0,4.4,0.5,4,3.7C98.7,42.7,94.7,43.7,94.7,43.7z"/>
<path class="st4" d="M98.4,41.7c-1.3,1.6-3.6,2.2-3.8,2.3l0-0.6c0,0,3.8-1,4.2-4c0.1-0.7-0.1-1.4-0.5-1.9c-1-1.3-3.2-1.5-3.2-1.5
	l0.1-0.5c0.1,0,2.4,0.3,3.6,1.7c0.5,0.6,0.7,1.4,0.6,2.3C99.3,40.4,98.9,41.1,98.4,41.7"/>
<ellipse transform="matrix(0.6313 -0.7755 0.7755 0.6313 2.9505 89.6164)" class="st5" cx="95.7" cy="41.7" rx="0.1" ry="0.2"/>
<ellipse transform="matrix(0.6313 -0.7755 0.7755 0.6313 4.0957 90.4676)" class="st5" cx="97.2" cy="40.9" rx="0.1" ry="0.2"/>
<ellipse transform="matrix(0.6313 -0.7755 0.7755 0.6313 4.0464 89.5884)" class="st5" cx="96.3" cy="40.5" rx="0.1" ry="0.2"/>
<ellipse transform="matrix(0.6313 -0.7755 0.7755 0.6313 4.8761 89.9389)" class="st5" cx="97" cy="39.8" rx="0.1" ry="0.2"/>
<ellipse transform="matrix(0.6313 -0.7755 0.7755 0.6313 4.9903 88.87)" class="st5" cx="96" cy="39.2" rx="0.1" ry="0.2"/>
<ellipse transform="matrix(0.6313 -0.7755 0.7755 0.6313 5.5475 90.3985)" class="st5" cx="97.9" cy="39.4" rx="0.1" ry="0.2"/>
<ellipse transform="matrix(0.6313 -0.7755 0.7755 0.6313 5.7772 89.3577)" class="st5" cx="96.9" cy="38.6" rx="0.1" ry="0.2"/>
<ellipse transform="matrix(0.6313 -0.7755 0.7755 0.6313 6.2489 88.323)" class="st5" cx="96" cy="37.6" rx="0.1" ry="0.2"/>
<ellipse transform="matrix(0.6313 -0.7755 0.7755 0.6313 6.61 89.5611)" class="st5" cx="97.5" cy="37.8" rx="0.1" ry="0.2"/>
<path class="st2" d="M100.6,43.6c-0.7,0.2-1.6,0.7-1.8,1.4c-0.2,0.6,0.1,1.1,0.4,1.6c0.1,0.1,0.1,0.1,0.2,0.2c0.1,0.5,0.2,1,0.6,1.4
	c0.5,0.6,1.2,1.4,2.1,1.3c0.9,0,1.7-0.6,2.1-1.3c0.1-0.1,0.3-0.3,0.3-0.5c0.1-0.3,0.1-0.6,0-0.9c0-0.2-0.1-0.5-0.3-0.7
	C103.4,44.8,102.5,43.2,100.6,43.6z"/>
<path class="st3" d="M104.9,55.5l-5-6.4c0,0,3.6-2.4,5.5,0.3C107.3,52.1,104.9,55.5,104.9,55.5z"/>
<path class="st4" d="M106.4,51.6c0.1,2.1-1.3,4-1.3,4.1l-0.4-0.5c0,0,2.2-3.2,0.5-5.7c-0.4-0.6-1-1-1.7-1.1
	c-1.6-0.3-3.5,0.9-3.5,0.9l-0.3-0.4c0.1-0.1,2-1.3,3.9-1c0.8,0.2,1.5,0.6,2,1.3C106.2,50,106.4,50.8,106.4,51.6"/>
<ellipse transform="matrix(-4.141503e-02 -0.9991 0.9991 -4.141503e-02 55.4907 159.8147)" class="st5" cx="104.4" cy="53.3" rx="0.1" ry="0.2"/>
<ellipse transform="matrix(-4.141503e-02 -0.9991 0.9991 -4.141503e-02 57.6308 158.8132)" class="st5" cx="105" cy="51.8" rx="0.1" ry="0.2"/>
<ellipse transform="matrix(-4.141503e-02 -0.9991 0.9991 -4.141503e-02 56.2996 158.1626)" class="st5" cx="104" cy="52.1" rx="0.1" ry="0.2"/>
<ellipse transform="matrix(-4.141503e-02 -0.9991 0.9991 -4.141503e-02 57.4585 157.2178)" class="st5" cx="104.1" cy="51" rx="0.1" ry="0.2"/>
<ellipse transform="matrix(-4.141503e-02 -0.9991 0.9991 -4.141503e-02 55.9752 156.1678)" class="st5" cx="102.9" cy="51.2" rx="0.1" ry="0.2"/>
<ellipse transform="matrix(-4.141503e-02 -0.9991 0.9991 -4.141503e-02 58.6553 156.5981)" class="st5" cx="104.4" cy="50.2" rx="0.1" ry="0.2"/>
<ellipse transform="matrix(-4.141503e-02 -0.9991 0.9991 -4.141503e-02 57.3029 155.3997)" class="st5" cx="103.2" cy="50.2" rx="0.1" ry="0.2"/>
<ellipse transform="matrix(-4.141503e-02 -0.9991 0.9991 -4.141503e-02 56.147 153.8465)" class="st5" cx="101.9" cy="50" rx="0.1" ry="0.2"/>
<ellipse transform="matrix(-4.141503e-02 -0.9991 0.9991 -4.141503e-02 58.2481 154.3291)" class="st5" cx="103.2" cy="49.2" rx="0.1" ry="0.2"/>
<path class="st2" d="M109.2,54.9c-0.7-0.1-1.8,0-2.2,0.6c-0.4,0.5-0.4,1.1-0.2,1.7c0,0.1,0.1,0.2,0.1,0.3c-0.1,0.5-0.2,1,0,1.5
	c0.2,0.8,0.6,1.7,1.4,2c0.8,0.3,1.8,0.1,2.5-0.4c0.2-0.1,0.4-0.2,0.5-0.3c0.2-0.3,0.3-0.6,0.3-0.9c0.1-0.2,0.1-0.5,0-0.8
	C111.4,57,111.2,55.2,109.2,54.9z"/>
<path class="st3" d="M108.6,67.5l-2.1-7.8c0,0,4.3-0.9,5,2.3C112.1,65.2,108.6,67.5,108.6,67.5z"/>
<path class="st4" d="M111.5,64.4c-0.7,2-2.7,3.3-2.8,3.3l-0.1-0.6c0,0,3.3-2.1,2.7-5.1c-0.2-0.7-0.5-1.3-1.1-1.7
	c-1.4-0.9-3.5-0.5-3.6-0.5l-0.1-0.5c0.1,0,2.4-0.5,4,0.5c0.7,0.5,1.1,1.1,1.3,2C111.9,62.9,111.8,63.7,111.5,64.4"/>
<ellipse transform="matrix(0.3511 -0.9364 0.9364 0.3511 9.6561 144.4069)" class="st5" cx="109" cy="65.2" rx="0.1" ry="0.2"/>
<ellipse transform="matrix(0.3511 -0.9364 0.9364 0.3511 11.5127 144.7026)" class="st5" cx="110.2" cy="64" rx="0.1" ry="0.2"/>
<ellipse transform="matrix(0.3511 -0.9364 0.9364 0.3511 10.9174 143.693)" class="st5" cx="109.1" cy="64" rx="0.1" ry="0.2"/>
<ellipse transform="matrix(0.3511 -0.9364 0.9364 0.3511 12.0996 143.5921)" class="st5" cx="109.6" cy="63.1" rx="0.1" ry="0.2"/>
<ellipse transform="matrix(0.3511 -0.9364 0.9364 0.3511 11.579 142.2565)" class="st5" cx="108.4" cy="62.8" rx="0.1" ry="0.2"/>
<ellipse transform="matrix(0.3511 -0.9364 0.9364 0.3511 13.164 143.7188)" class="st5" cx="110.3" cy="62.4" rx="0.1" ry="0.2"/>
<ellipse transform="matrix(0.3511 -0.9364 0.9364 0.3511 12.7953 142.3448)" class="st5" cx="109.1" cy="61.9" rx="0.1" ry="0.2"/>
<ellipse transform="matrix(0.3511 -0.9364 0.9364 0.3511 12.7126 140.8274)" class="st5" cx="108" cy="61.2" rx="0.1" ry="0.2"/>
<ellipse transform="matrix(0.3511 -0.9364 0.9364 0.3511 13.8914 142.068)" class="st5" cx="109.4" cy="61" rx="0.1" ry="0.2"/>
</svg>
