<?xml version="1.0" encoding="utf-8"?>
<!-- Generator: Adobe Illustrator 19.1.0, SVG Export Plug-In . SVG Version: 6.00 Build 0)  -->
<svg version="1.1" id="图层_1" xmlns="http://www.w3.org/2000/svg" xmlns:xlink="http://www.w3.org/1999/xlink" x="0px" y="0px"
	 viewBox="0 0 194.5 240.8" style="enable-background:new 0 0 194.5 240.8;" xml:space="preserve">
<style type="text/css">
	.st0{fill:url(#SVGID_1_);}
	.st1{fill:url(#SVGID_2_);}
	.st2{fill:url(#SVGID_3_);}
	.st3{fill:url(#SVGID_4_);}
	.st4{fill:url(#SVGID_5_);}
	.st5{fill:url(#SVGID_6_);}
	.st6{fill:url(#SVGID_7_);}
	.st7{fill:url(#SVGID_8_);}
	.st8{fill:url(#SVGID_9_);}
	.st9{fill:url(#SVGID_10_);}
	.st10{fill:url(#SVGID_11_);}
	.st11{fill:url(#SVGID_12_);}
	.st12{fill:url(#SVGID_13_);}
	.st13{fill:url(#SVGID_14_);}
	.st14{fill:url(#SVGID_15_);}
	.st15{fill:url(#SVGID_16_);}
	.st16{fill:url(#SVGID_17_);}
	.st17{fill:url(#SVGID_18_);}
	.st18{fill:url(#SVGID_19_);}
	.st19{fill:url(#SVGID_20_);}
	.st20{fill:url(#SVGID_21_);}
	.st21{fill:url(#SVGID_22_);}
	.st22{fill:url(#SVGID_23_);}
	.st23{fill:url(#SVGID_24_);}
	.st24{fill:url(#SVGID_25_);}
	.st25{fill:url(#SVGID_26_);}
	.st26{fill:url(#SVGID_27_);}
	.st27{fill:#C7C8C8;}
</style>
<radialGradient id="SVGID_1_" cx="21.8093" cy="142.6951" r="6.9926" gradientTransform="matrix(0.2297 0.9733 -0.6559 0.1548 110.3999 99.3773)" gradientUnits="userSpaceOnUse">
	<stop  offset="0" style="stop-color:#7FCCDD"/>
	<stop  offset="1" style="stop-color:#5B658C"/>
</radialGradient>
<path class="st0" d="M24.7,144.8c0,2.1-1.7,3.7-3.7,3.7s-3.7-1.7-3.7-3.7c0-2.1,3.7-8.9,3.7-8.9S24.7,142.7,24.7,144.8z"/>
<radialGradient id="SVGID_2_" cx="50.5484" cy="155.3024" r="6.9926" gradientTransform="matrix(0.2297 0.9733 -0.6559 0.1548 140.8071 82.0621)" gradientUnits="userSpaceOnUse">
	<stop  offset="0" style="stop-color:#7FCCDD"/>
	<stop  offset="1" style="stop-color:#5B658C"/>
</radialGradient>
<path class="st1" d="M53.4,157.4c0,2.1-1.7,3.7-3.7,3.7c-2.1,0-3.7-1.7-3.7-3.7c0-2.1,3.7-8.9,3.7-8.9S53.4,155.3,53.4,157.4z"/>
<radialGradient id="SVGID_3_" cx="79.2875" cy="167.9097" r="6.9926" gradientTransform="matrix(0.2297 0.9733 -0.6559 0.1548 171.2143 64.747)" gradientUnits="userSpaceOnUse">
	<stop  offset="0" style="stop-color:#7FCCDD"/>
	<stop  offset="1" style="stop-color:#5B658C"/>
</radialGradient>
<path class="st2" d="M82.2,170c0,2.1-1.7,3.7-3.7,3.7c-2.1,0-3.7-1.7-3.7-3.7s3.7-8.9,3.7-8.9S82.2,167.9,82.2,170z"/>
<radialGradient id="SVGID_4_" cx="44.32" cy="127.4847" r="6.9926" gradientTransform="matrix(0.2297 0.9733 -0.6559 0.1548 117.7625 64.613)" gradientUnits="userSpaceOnUse">
	<stop  offset="0" style="stop-color:#7FCCDD"/>
	<stop  offset="1" style="stop-color:#5B658C"/>
</radialGradient>
<path class="st3" d="M47.2,129.6c0,2.1-1.7,3.7-3.7,3.7s-3.7-1.7-3.7-3.7c0-2.1,3.7-8.9,3.7-8.9S47.2,127.5,47.2,129.6z"/>
<radialGradient id="SVGID_5_" cx="100.2945" cy="184.5414" r="6.9925" gradientTransform="matrix(0.2297 0.9733 -0.6559 0.1548 198.3053 58.3585)" gradientUnits="userSpaceOnUse">
	<stop  offset="0" style="stop-color:#7FCCDD"/>
	<stop  offset="1" style="stop-color:#5B658C"/>
</radialGradient>
<path class="st4" d="M103.2,186.6c0,2.1-1.7,3.7-3.7,3.7s-3.7-1.7-3.7-3.7c0-2.1,3.7-8.9,3.7-8.9S103.2,184.6,103.2,186.6z"/>
<radialGradient id="SVGID_6_" cx="130.7683" cy="199.4277" r="6.9925" gradientTransform="matrix(0.2297 0.9733 -0.6559 0.1548 231.5436 41.2814)" gradientUnits="userSpaceOnUse">
	<stop  offset="0" style="stop-color:#7FCCDD"/>
	<stop  offset="1" style="stop-color:#5B658C"/>
</radialGradient>
<path class="st5" d="M133.6,201.5c0,2.1-1.7,3.7-3.7,3.7c-2.1,0-3.7-1.7-3.7-3.7c0-2.1,3.7-8.9,3.7-8.9S133.6,199.4,133.6,201.5z"/>
<radialGradient id="SVGID_7_" cx="171.6532" cy="204.0634" r="6.9925" gradientTransform="matrix(0.2297 0.9733 -0.6559 0.1548 266.0776 5.4077)" gradientUnits="userSpaceOnUse">
	<stop  offset="0" style="stop-color:#7FCCDD"/>
	<stop  offset="1" style="stop-color:#5B658C"/>
</radialGradient>
<path class="st6" d="M174.5,206.1c0,2.1-1.7,3.7-3.7,3.7c-2.1,0-3.7-1.7-3.7-3.7s3.7-8.9,3.7-8.9S174.5,204.1,174.5,206.1z"/>
<radialGradient id="SVGID_8_" cx="58.0284" cy="222.9741" r="6.9925" gradientTransform="matrix(0.2297 0.9733 -0.6559 0.1548 190.958 131.9771)" gradientUnits="userSpaceOnUse">
	<stop  offset="0" style="stop-color:#7FCCDD"/>
	<stop  offset="1" style="stop-color:#5B658C"/>
</radialGradient>
<path class="st7" d="M60.9,225.1c0,2.1-1.7,3.7-3.7,3.7s-3.7-1.7-3.7-3.7c0-2.1,3.7-8.9,3.7-8.9S60.9,223,60.9,225.1z"/>
<radialGradient id="SVGID_9_" cx="24.052" cy="230.9458" r="6.9925" gradientTransform="matrix(0.2297 0.9733 -0.6559 0.1548 170.0153 171.7825)" gradientUnits="userSpaceOnUse">
	<stop  offset="0" style="stop-color:#7FCCDD"/>
	<stop  offset="1" style="stop-color:#5B658C"/>
</radialGradient>
<path class="st8" d="M26.9,233c0,2.1-1.7,3.7-3.7,3.7s-3.7-1.7-3.7-3.7c0-2.1,3.7-8.9,3.7-8.9S26.9,231,26.9,233z"/>
<radialGradient id="SVGID_10_" cx="85.3892" cy="230.9462" r="6.9925" gradientTransform="matrix(0.2297 0.9733 -0.6559 0.1548 217.263 112.0858)" gradientUnits="userSpaceOnUse">
	<stop  offset="0" style="stop-color:#7FCCDD"/>
	<stop  offset="1" style="stop-color:#5B658C"/>
</radialGradient>
<path class="st9" d="M88.3,233c0,2.1-1.7,3.7-3.7,3.7c-2.1,0-3.7-1.7-3.7-3.7s3.7-8.9,3.7-8.9S88.3,231,88.3,233z"/>
<radialGradient id="SVGID_11_" cx="71.3792" cy="140.4156" r="6.9925" gradientTransform="matrix(0.2297 0.9733 -0.6559 0.1548 147.088 49.2064)" gradientUnits="userSpaceOnUse">
	<stop  offset="0" style="stop-color:#7FCCDD"/>
	<stop  offset="1" style="stop-color:#5B658C"/>
</radialGradient>
<path class="st10" d="M74.3,142.5c0,2.1-1.7,3.7-3.7,3.7c-2.1,0-3.7-1.7-3.7-3.7s3.7-8.9,3.7-8.9S74.3,140.4,74.3,142.5z"/>
<radialGradient id="SVGID_12_" cx="100.1183" cy="153.0229" r="6.9925" gradientTransform="matrix(0.2297 0.9733 -0.6559 0.1548 177.4951 31.8912)" gradientUnits="userSpaceOnUse">
	<stop  offset="0" style="stop-color:#7FCCDD"/>
	<stop  offset="1" style="stop-color:#5B658C"/>
</radialGradient>
<path class="st11" d="M103,155.1c0,2.1-1.7,3.7-3.7,3.7c-2.1,0-3.7-1.7-3.7-3.7c0-2.1,3.7-8.9,3.7-8.9S103,153,103,155.1z"/>
<radialGradient id="SVGID_13_" cx="121.3162" cy="174.2135" r="6.9925" gradientTransform="matrix(0.2297 0.9733 -0.6559 0.1548 207.7235 29.1701)" gradientUnits="userSpaceOnUse">
	<stop  offset="0" style="stop-color:#7FCCDD"/>
	<stop  offset="1" style="stop-color:#5B658C"/>
</radialGradient>
<path class="st12" d="M124.2,176.3c0,2.1-1.7,3.7-3.7,3.7c-2.1,0-3.7-1.7-3.7-3.7s3.7-8.9,3.7-8.9S124.2,174.2,124.2,176.3z"/>
<radialGradient id="SVGID_14_" cx="74.5808" cy="204.0634" r="6.9925" gradientTransform="matrix(0.2297 0.9733 -0.6559 0.1548 191.3037 99.8843)" gradientUnits="userSpaceOnUse">
	<stop  offset="0" style="stop-color:#7FCCDD"/>
	<stop  offset="1" style="stop-color:#5B658C"/>
</radialGradient>
<path class="st13" d="M77.5,206.1c0,2.1-1.7,3.7-3.7,3.7s-3.7-1.7-3.7-3.7s3.7-8.9,3.7-8.9S77.5,204.1,77.5,206.1z"/>
<radialGradient id="SVGID_15_" cx="105.409" cy="216.6707" r="6.9925" gradientTransform="matrix(0.2297 0.9733 -0.6559 0.1548 223.32 80.536)" gradientUnits="userSpaceOnUse">
	<stop  offset="0" style="stop-color:#7FCCDD"/>
	<stop  offset="1" style="stop-color:#5B658C"/>
</radialGradient>
<path class="st14" d="M108.3,218.8c0,2.1-1.7,3.7-3.7,3.7c-2.1,0-3.7-1.7-3.7-3.7c0-2.1,3.7-8.9,3.7-8.9S108.3,216.7,108.3,218.8z"
	/>
<radialGradient id="SVGID_16_" cx="146.654" cy="212.0354" r="6.9925" gradientTransform="matrix(0.2297 0.9733 -0.6559 0.1548 252.0502 36.4762)" gradientUnits="userSpaceOnUse">
	<stop  offset="0" style="stop-color:#7FCCDD"/>
	<stop  offset="1" style="stop-color:#5B658C"/>
</radialGradient>
<path class="st15" d="M149.5,214.1c0,2.1-1.7,3.7-3.7,3.7s-3.7-1.7-3.7-3.7c0-2.1,3.7-8.9,3.7-8.9S149.5,212.1,149.5,214.1z"/>
<radialGradient id="SVGID_17_" cx="127.6477" cy="226.9018" r="6.9925" gradientTransform="matrix(0.2297 0.9733 -0.6559 0.1548 247.1613 67.5391)" gradientUnits="userSpaceOnUse">
	<stop  offset="0" style="stop-color:#7FCCDD"/>
	<stop  offset="1" style="stop-color:#5B658C"/>
</radialGradient>
<path class="st16" d="M130.5,229c0,2.1-1.7,3.7-3.7,3.7s-3.7-1.7-3.7-3.7s3.7-8.9,3.7-8.9S130.5,226.9,130.5,229z"/>
<radialGradient id="SVGID_18_" cx="161.765" cy="234.9287" r="6.9925" gradientTransform="matrix(0.2297 0.9733 -0.6559 0.1548 278.7068 41.1184)" gradientUnits="userSpaceOnUse">
	<stop  offset="0" style="stop-color:#7FCCDD"/>
	<stop  offset="1" style="stop-color:#5B658C"/>
</radialGradient>
<path class="st17" d="M164.6,237c0,2.1-1.7,3.7-3.7,3.7c-2.1,0-3.7-1.7-3.7-3.7s3.7-8.9,3.7-8.9S164.6,234.9,164.6,237z"/>
<radialGradient id="SVGID_19_" cx="150.3939" cy="149.8712" r="6.9925" gradientTransform="matrix(0.2297 0.9733 -0.6559 0.1548 214.1546 -19.7037)" gradientUnits="userSpaceOnUse">
	<stop  offset="0" style="stop-color:#7FCCDD"/>
	<stop  offset="1" style="stop-color:#5B658C"/>
</radialGradient>
<path class="st18" d="M153.3,152c0,2.1-1.7,3.7-3.7,3.7c-2.1,0-3.7-1.7-3.7-3.7c0-2.1,3.7-8.9,3.7-8.9S153.3,149.9,153.3,152z"/>
<radialGradient id="SVGID_20_" cx="175.3931" cy="146.7195" r="6.9925" gradientTransform="matrix(0.2297 0.9733 -0.6559 0.1548 231.3438 -46.6982)" gradientUnits="userSpaceOnUse">
	<stop  offset="0" style="stop-color:#7FCCDD"/>
	<stop  offset="1" style="stop-color:#5B658C"/>
</radialGradient>
<path class="st19" d="M178.3,148.8c0,2.1-1.7,3.7-3.7,3.7c-2.1,0-3.7-1.7-3.7-3.7c0-2.1,3.7-8.9,3.7-8.9S178.3,146.7,178.3,148.8z"
	/>
<radialGradient id="SVGID_21_" cx="144.3965" cy="175.0858" r="6.9925" gradientTransform="matrix(0.2297 0.9733 -0.6559 0.1548 226.0742 7.4443)" gradientUnits="userSpaceOnUse">
	<stop  offset="0" style="stop-color:#7FCCDD"/>
	<stop  offset="1" style="stop-color:#5B658C"/>
</radialGradient>
<path class="st20" d="M147.3,177.2c0,2.1-1.7,3.7-3.7,3.7c-2.1,0-3.7-1.7-3.7-3.7s3.7-8.9,3.7-8.9S147.3,175.1,147.3,177.2z"/>
<radialGradient id="SVGID_22_" cx="127.6477" cy="140.4156" r="6.9925" gradientTransform="matrix(0.2297 0.9733 -0.6559 0.1548 190.431 -5.5574)" gradientUnits="userSpaceOnUse">
	<stop  offset="0" style="stop-color:#7FCCDD"/>
	<stop  offset="1" style="stop-color:#5B658C"/>
</radialGradient>
<path class="st21" d="M130.5,142.5c0,2.1-1.7,3.7-3.7,3.7s-3.7-1.7-3.7-3.7s3.7-8.9,3.7-8.9S130.5,140.4,130.5,142.5z"/>
<radialGradient id="SVGID_23_" cx="165.9544" cy="181.3893" r="6.9925" gradientTransform="matrix(0.2297 0.9733 -0.6559 0.1548 246.8149 -8.2097)" gradientUnits="userSpaceOnUse">
	<stop  offset="0" style="stop-color:#7FCCDD"/>
	<stop  offset="1" style="stop-color:#5B658C"/>
</radialGradient>
<path class="st22" d="M168.8,183.5c0,2.1-1.7,3.7-3.7,3.7c-2.1,0-3.7-1.7-3.7-3.7c0-2.1,3.7-8.9,3.7-8.9S168.8,181.4,168.8,183.5z"
	/>
<radialGradient id="SVGID_24_" cx="37.1976" cy="205.7316" r="6.9925" gradientTransform="matrix(0.2297 0.9733 -0.6559 0.1548 163.602 137.6778)" gradientUnits="userSpaceOnUse">
	<stop  offset="0" style="stop-color:#7FCCDD"/>
	<stop  offset="1" style="stop-color:#5B658C"/>
</radialGradient>
<path class="st23" d="M40.1,207.8c0,2.1-1.7,3.7-3.7,3.7c-2.1,0-3.7-1.7-3.7-3.7c0-2.1,3.7-8.9,3.7-8.9S40.1,205.7,40.1,207.8z"/>
<radialGradient id="SVGID_25_" cx="14.3294" cy="201.347" r="6.9925" gradientTransform="matrix(0.2297 0.9733 -0.6559 0.1548 143.1109 156.2287)" gradientUnits="userSpaceOnUse">
	<stop  offset="0" style="stop-color:#7FCCDD"/>
	<stop  offset="1" style="stop-color:#5B658C"/>
</radialGradient>
<path class="st24" d="M17.2,203.4c0,2.1-1.7,3.7-3.7,3.7c-2.1,0-3.7-1.7-3.7-3.7s3.7-8.9,3.7-8.9S17.2,201.4,17.2,203.4z"/>
<radialGradient id="SVGID_26_" cx="29.2893" cy="178.2375" r="6.9925" gradientTransform="matrix(0.2297 0.9733 -0.6559 0.1548 139.4757 122.1372)" gradientUnits="userSpaceOnUse">
	<stop  offset="0" style="stop-color:#7FCCDD"/>
	<stop  offset="1" style="stop-color:#5B658C"/>
</radialGradient>
<path class="st25" d="M32.2,180.3c0,2.1-1.7,3.7-3.7,3.7s-3.7-1.7-3.7-3.7c0-2.1,3.7-8.9,3.7-8.9S32.2,178.3,32.2,180.3z"/>
<radialGradient id="SVGID_27_" cx="58.0284" cy="190.8448" r="6.9925" gradientTransform="matrix(0.2297 0.9733 -0.6559 0.1548 169.8829 104.822)" gradientUnits="userSpaceOnUse">
	<stop  offset="0" style="stop-color:#7FCCDD"/>
	<stop  offset="1" style="stop-color:#5B658C"/>
</radialGradient>
<path class="st26" d="M60.9,192.9c0,2.1-1.7,3.7-3.7,3.7s-3.7-1.7-3.7-3.7s3.7-8.9,3.7-8.9S60.9,190.9,60.9,192.9z"/>
<g>
	<path class="st27" d="M0.5,83.3c0,16.6,13.5,30.1,30.1,30.1c5.8,0,11.2-1.6,15.8-4.5c4.6,10.9,15.4,18.5,27.9,18.5
		c8.8,0,16.7-3.7,22.2-9.7c5.4,3.5,11.8,5.6,18.8,5.6c5,0,9.8-1.1,14.2-3.1c6.8,5,15.1,7.9,24.2,7.9c22.6,0,40.9-18.3,40.9-40.9
		c0-21.2-16.2-38.7-36.9-40.7c0.2-1.5,0.3-3.1,0.3-4.7c0-23.2-18.8-42-42-42C98.9,0,84.3,10,77.7,24.4C71.9,19.2,64.2,16,55.8,16
		c-18,0-32.6,14.6-32.6,32.6c0,1.8,0.2,3.6,0.5,5.4C10.4,57.2,0.5,69.1,0.5,83.3z"/>
	<circle class="st27" cx="153.7" cy="87.1" r="40.8"/>
	<circle class="st27" cx="114.1" cy="91.6" r="31.9"/>
	<path class="st27" d="M43.5,95c0,17.6,13.2,32.4,30.8,32.4c17.6,0,30.3-14,30.3-31.6c0-17.6-12.5-31.6-30.1-31.6
		C56.8,64.1,43.5,77.4,43.5,95z"/>
	<circle class="st27" cx="30.3" cy="83.1" r="30.3"/>
	<circle class="st27" cx="54.8" cy="47.6" r="31.6"/>
	<path class="st27" d="M73.4,42.4c0,23.4,19,42.4,42.4,42.4c23.4,0,42-19,42-42.4c0-23.4-18.5-42.4-42-42.4
		C92.4,0,73.4,19,73.4,42.4z"/>
</g>
</svg>
