<?xml version="1.0" encoding="utf-8"?>
<!-- Generator: Adobe Illustrator 19.1.0, SVG Export Plug-In . SVG Version: 6.00 Build 0)  -->
<svg version="1.1" xmlns="http://www.w3.org/2000/svg" xmlns:xlink="http://www.w3.org/1999/xlink" x="0px" y="0px"
	 viewBox="0 0 248.1 244.4" style="enable-background:new 0 0 248.1 244.4;" xml:space="preserve">
<style type="text/css">
	.st0{fill:url(#SVGID_1_);}
	.st1{fill:url(#SVGID_2_);}
</style>
<g id="Layer_2">
</g>
<g id="Layer_1">
	<g>
		<linearGradient id="SVGID_1_" gradientUnits="userSpaceOnUse" x1="121.5433" y1="-3.9325" x2="126.5369" y2="249.074">
			<stop  offset="0" style="stop-color:#FFCD00"/>
			<stop  offset="1" style="stop-color:#FF8E00"/>
		</linearGradient>
		<path class="st0" d="M248.1,122.2c0-6.8-18.8-11.9-20-18.4c-1.2-6.7,14.8-17.9,12.5-24.1c-2.3-6.3-21.7-4.6-25.1-10.4
			c-3.4-5.8,7.8-21.8,3.5-26.9c-4.3-5.1-22,3.1-27.1-1.2c-5.1-4.3-0.1-23.1-5.9-26.5c-5.8-3.3-19.6,10.4-25.9,8.1
			c-6.2-2.3-8-21.7-14.6-22.9c-6.5-1.1-14.7,16.5-21.5,16.5c-6.8,0-15.1-17.6-21.5-16.5c-6.7,1.2-8.4,20.6-14.6,22.9
			c-6.3,2.3-20.1-11.4-25.9-8.1c-5.8,3.4-0.8,22.2-5.9,26.5C51,45.6,33.3,37.4,29,42.5c-4.3,5.1,6.8,21.1,3.5,26.9
			c-3.3,5.8-22.8,4.1-25.1,10.4C5.2,86,21.1,97.2,20,103.9c-1.1,6.5-20,11.6-20,18.4c0,6.8,18.8,11.9,20,18.4
			c1.2,6.7-14.8,17.9-12.5,24.1c2.3,6.3,21.7,4.6,25.1,10.4c3.4,5.8-7.8,21.8-3.5,26.9c4.3,5.1,22-3.1,27.1,1.2
			c5.1,4.3,0.1,23.1,5.9,26.5c5.8,3.3,19.6-10.4,25.9-8.1c6.2,2.3,8,21.7,14.6,22.9c6.5,1.1,14.7-16.5,21.5-16.5
			c6.8,0,15.1,17.6,21.5,16.5c6.7-1.2,8.4-20.6,14.6-22.9c6.3-2.3,20.1,11.4,25.9,8.1c5.8-3.4,0.8-22.2,5.9-26.5
			c5.1-4.3,22.8,3.9,27.1-1.2c4.3-5.1-6.8-21.1-3.5-26.9c3.3-5.8,22.8-4.1,25.1-10.4c2.3-6.2-13.7-17.4-12.5-24.1
			C229.2,134.1,248.1,129,248.1,122.2z M123.7,222.4c-55.4,0-100.4-44.9-100.4-100.4c0-55.4,44.9-100.4,100.4-100.4
			c55.4,0,100.4,44.9,100.4,100.4C224,177.5,179.1,222.4,123.7,222.4z"/>
		<linearGradient id="SVGID_2_" gradientUnits="userSpaceOnUse" x1="119.8073" y1="36.1174" x2="128.1238" y2="217.4174">
			<stop  offset="0" style="stop-color:#FFCD00"/>
			<stop  offset="1" style="stop-color:#FF8E00"/>
		</linearGradient>
		<path class="st1" d="M123.7,211.5c-52.1,0-94.5-40.7-94.5-90.7c0-50,42.4-90.7,94.5-90.7c52.1,0,94.5,40.7,94.5,90.7
			C218.2,170.8,175.8,211.5,123.7,211.5z"/>
	</g>
</g>
</svg>
