<?xml version="1.0" encoding="utf-8"?>
<!-- Generator: Adobe Illustrator 19.1.0, SVG Export Plug-In . SVG Version: 6.00 Build 0)  -->
<svg version="1.1" id="图层_1" xmlns="http://www.w3.org/2000/svg" xmlns:xlink="http://www.w3.org/1999/xlink" x="0px" y="0px"
	 viewBox="0 0 504 37.8" style="enable-background:new 0 0 504 37.8;" xml:space="preserve">
<style type="text/css">
	.st0{fill:#F8DBDA;}
	.st1{fill:#CA7F84;}
	.st2{fill:#E1C48C;}
	.st3{fill:#070001;}
	.st4{font-family:'SavoyeLetPlain';}
	.st5{font-size:24px;}
	.st6{fill:#F5D9AA;}
</style>
<g>
	<path class="st0" d="M504,19.3c0.1-3.5-3.9-6.4-8.9-6.5s-9.1,2.6-9.2,6c-0.1,3.5,3.9,6.4,8.9,6.5C499.7,25.5,503.9,22.8,504,19.3
		L504,19.3z"/>
	<path class="st0" d="M490.9,0.3c-3.3-1.2-7.3,1.7-8.9,6.5c-1.7,4.7-0.4,9.5,2.9,10.6c3.3,1.2,7.3-1.7,8.9-6.5
		C495.5,6.2,494.2,1.5,490.9,0.3L490.9,0.3z"/>
	<path class="st0" d="M468.8,6.9c-2.1,2.8-0.6,7.5,3.4,10.5s8.9,3.3,11,0.5s0.6-7.5-3.4-10.5C475.9,4.3,470.9,4.1,468.8,6.9
		L468.8,6.9z"/>
	<path class="st0" d="M468.2,29.9c2,2.9,6.9,2.9,11,0c4.1-2.8,5.9-7.5,3.9-10.3c-2-2.9-6.9-2.9-11,0C468,22.4,466.2,27,468.2,29.9
		L468.2,29.9z"/>
	<path class="st0" d="M489.9,37.6c3.3-1,4.9-5.7,3.4-10.5c-1.4-4.8-5.3-7.9-8.6-6.9c-3.3,1-4.9,5.7-3.4,10.5
		C482.8,35.5,486.6,38.6,489.9,37.6L489.9,37.6z"/>
	<path class="st1" d="M497.5,19.1c0.1-2.2-2.5-4.1-5.7-4.2c-3.2-0.1-5.9,1.7-5.9,3.9c-0.1,2.2,2.5,4.1,5.7,4.2
		C494.8,23.1,497.4,21.4,497.5,19.1L497.5,19.1z"/>
	<path class="st1" d="M489.1,6.9c-2.1-0.7-4.7,1.1-5.8,4.2c-1.1,3-0.2,6.1,1.9,6.8c2.1,0.7,4.7-1.1,5.8-4.2
		C492,10.7,491.2,7.7,489.1,6.9L489.1,6.9z"/>
	<path class="st1" d="M474.9,11.1c-1.4,1.8-0.4,4.8,2.2,6.8s5.7,2.1,7.1,0.3c1.4-1.8,0.4-4.8-2.2-6.8
		C479.4,9.5,476.2,9.4,474.9,11.1L474.9,11.1z"/>
	<path class="st1" d="M474.5,26c1.3,1.8,4.4,1.9,7.1,0c2.7-1.8,3.8-4.8,2.5-6.6c-1.3-1.8-4.4-1.9-7.1,0
		C474.3,21.1,473.2,24.1,474.5,26L474.5,26z"/>
	<path class="st1" d="M488.5,30.9c2.1-0.6,3.1-3.7,2.2-6.7c-0.9-3.1-3.4-5.1-5.5-4.4c-2.1,0.6-3.1,3.7-2.2,6.7
		C483.8,29.5,486.3,31.5,488.5,30.9L488.5,30.9z"/>
	<path class="st2" d="M489.8,18.9c0.1-4.3-4.8-7.6-9.4-4.3c-3.6,4.4-0.5,9.5,3.8,9.6C487.3,24.4,489.8,22,489.8,18.9L489.8,18.9z"/>
</g>
<g>
	<path class="st0" d="M36.6,19.7c0.1-3.5-3.9-6.4-8.9-6.5s-9.1,2.6-9.2,6c-0.1,3.5,3.9,6.4,8.9,6.5C32.3,25.9,36.5,23.2,36.6,19.7
		L36.6,19.7z"/>
	<path class="st0" d="M23.5,0.7c-3.3-1.2-7.3,1.7-8.9,6.5c-1.7,4.7-0.4,9.5,2.9,10.6c3.3,1.2,7.3-1.7,8.9-6.5
		C28.1,6.6,26.8,1.9,23.5,0.7L23.5,0.7z"/>
	<path class="st0" d="M1.4,7.3c-2.1,2.8-0.6,7.5,3.4,10.5s8.9,3.3,11,0.5s0.6-7.5-3.4-10.5C8.5,4.7,3.5,4.5,1.4,7.3L1.4,7.3z"/>
	<path class="st0" d="M0.8,30.3c2,2.9,6.9,2.9,11,0c4.1-2.8,5.9-7.5,3.9-10.3c-2-2.9-6.9-2.9-11,0C0.6,22.8-1.2,27.4,0.8,30.3
		L0.8,30.3z"/>
	<path class="st0" d="M22.5,38c3.3-1,4.9-5.7,3.4-10.5c-1.4-4.8-5.3-7.9-8.6-6.9s-4.9,5.7-3.4,10.5S19.2,39,22.5,38L22.5,38z"/>
	<path class="st1" d="M30.1,19.5c0.1-2.2-2.5-4.1-5.7-4.2c-3.2-0.1-5.9,1.7-5.9,3.9c-0.1,2.2,2.5,4.1,5.7,4.2
		C27.4,23.5,30,21.8,30.1,19.5L30.1,19.5z"/>
	<path class="st1" d="M21.7,7.3c-2.1-0.7-4.7,1.1-5.8,4.2c-1.1,3-0.2,6.1,1.9,6.8c2.1,0.7,4.7-1.1,5.8-4.2
		C24.6,11.1,23.8,8.1,21.7,7.3L21.7,7.3z"/>
	<path class="st1" d="M7.5,11.5c-1.4,1.8-0.4,4.8,2.2,6.8c2.6,2,5.7,2.1,7.1,0.3c1.4-1.8,0.4-4.8-2.2-6.8C12,9.9,8.8,9.8,7.5,11.5
		L7.5,11.5z"/>
	<path class="st1" d="M7.1,26.4c1.3,1.8,4.4,1.9,7.1,0c2.7-1.8,3.8-4.8,2.5-6.6c-1.3-1.8-4.4-1.9-7.1,0C6.9,21.5,5.8,24.5,7.1,26.4
		L7.1,26.4z"/>
	<path class="st1" d="M21.1,31.3c2.1-0.6,3.1-3.7,2.2-6.7c-0.9-3.1-3.4-5.1-5.5-4.4c-2.1,0.6-3.1,3.7-2.2,6.7
		C16.4,29.9,18.9,31.9,21.1,31.3L21.1,31.3z"/>
	<path class="st2" d="M22.4,19.3c0.1-4.3-4.8-7.6-9.4-4.3c-3.6,4.4-0.5,9.5,3.8,9.6C19.9,24.8,22.4,22.4,22.4,19.3L22.4,19.3z"/>
</g>
<text transform="matrix(1 0 0 1 98.9998 28.758)" class="st3 st4 st5">The 25 Most Popular Cities To Visit In America</text>
<g>
	<path class="st1" d="M64,17c-1.4-1.2-2.6-11.9,0.9-15.3C68,5.5,65.5,16.1,64,17L64,17z M65.4,19.8c1.7-0.6,11.6,3.8,12.8,8.5
		C73.4,29.1,65.5,21.6,65.4,19.8L65.4,19.8z M64.7,20.4c1.8,0.3,8.2,9.1,6.8,13.7C67,32.4,63.9,22.1,64.7,20.4L64.7,20.4z
		 M63.8,20.6c1.4,1.2,2.6,11.9-0.9,15.3C59.8,32.2,62.3,21.6,63.8,20.6L63.8,20.6z M62.9,20.3c0.6,1.7-3.8,11.6-8.5,12.8
		C53.7,28.3,61.1,20.4,62.9,20.3L62.9,20.3z M62.3,19.6c-0.3,1.8-9.1,8.2-13.7,6.8C50.3,22,60.7,18.8,62.3,19.6L62.3,19.6z
		 M62.1,18.7c-1.2,1.4-11.9,2.6-15.3-0.9C50.6,14.7,61.1,17.2,62.1,18.7L62.1,18.7z M62.4,17.8c-1.7,0.6-11.6-3.8-12.8-8.5
		C54.4,8.6,62.3,16,62.4,17.8L62.4,17.8z M63.1,17.2c-1.8-0.3-8.2-9.1-6.8-13.7C60.8,5.2,63.9,15.6,63.1,17.2L63.1,17.2z M64.9,17.3
		c-0.6-1.7,3.8-11.6,8.5-12.8C74.1,9.3,66.7,17.2,64.9,17.3L64.9,17.3z M65.5,18c0.3-1.8,9.1-8.2,13.7-6.8
		C77.5,15.7,67.1,18.8,65.5,18L65.5,18z M65.7,18.9c1.2-1.4,11.9-2.6,15.3,0.9C77.2,22.9,66.7,20.5,65.7,18.9L65.7,18.9z"/>
	<path class="st0" d="M64.4,17.1c-1.1-1.4,0.3-12.2,4.4-14.7C71,6.8,66.1,16.5,64.4,17.1L64.4,17.1z M65.1,20.2
		c1.8-0.2,10.4,6.3,10.5,11.2C70.8,31,64.8,21.9,65.1,20.2L65.1,20.2z M64.3,20.6c1.7,0.7,5.9,10.7,3.5,14.9
		C63.8,32.8,63.1,22,64.3,20.6L64.3,20.6z M63.4,20.6c1.1,1.4-0.3,12.2-4.4,14.7C56.8,30.9,61.7,21.2,63.4,20.6L63.4,20.6z
		 M62.6,20.1c0.2,1.8-6.3,10.4-11.2,10.5C51.8,25.7,60.8,19.8,62.6,20.1L62.6,20.1z M62.1,19.2c-0.7,1.7-10.7,5.9-14.9,3.5
		C50,18.7,60.8,18.1,62.1,19.2L62.1,19.2z M62.2,18.3C60.8,19.4,50,18,47.5,13.9C51.9,11.8,61.6,16.6,62.2,18.3L62.2,18.3z
		 M62.7,17.5c-1.8,0.2-10.4-6.3-10.5-11.2C57,6.7,63,15.8,62.7,17.5L62.7,17.5z M63.5,17.1C61.8,16.4,57.6,6.4,60,2.2
		C64,4.9,64.6,15.7,63.5,17.1L63.5,17.1z M65.2,17.6C65,15.8,71.5,7.2,76.4,7.1C76,11.9,67,17.9,65.2,17.6L65.2,17.6z M65.6,18.4
		c0.7-1.7,10.7-5.9,14.9-3.5C77.8,18.9,67,19.6,65.6,18.4L65.6,18.4z M65.6,19.4c1.4-1.1,12.2,0.3,14.7,4.4
		C75.9,25.9,66.2,21.1,65.6,19.4L65.6,19.4z"/>
	<path class="st1" d="M64.1,18c-0.5-0.7,0.1-5.8,2.1-7C67.2,13.1,64.9,17.7,64.1,18L64.1,18z M64.5,19.5c0.8-0.1,5,3,5,5.3
		C67.2,24.6,64.3,20.3,64.5,19.5L64.5,19.5z M64.1,19.7c0.8,0.3,2.8,5.1,1.7,7.1C63.9,25.5,63.5,20.3,64.1,19.7L64.1,19.7z
		 M63.7,19.7c0.5,0.7-0.1,5.8-2.1,7C60.5,24.6,62.8,19.9,63.7,19.7L63.7,19.7z M63.3,19.4c0.1,0.8-3,5-5.3,5
		C58.1,22.1,62.4,19.3,63.3,19.4L63.3,19.4z M63.1,19c-0.3,0.8-5.1,2.8-7.1,1.7C57.3,18.8,62.4,18.5,63.1,19L63.1,19z M63.1,18.6
		c-0.7,0.5-5.8-0.1-7-2.1C58.2,15.5,62.8,17.8,63.1,18.6L63.1,18.6z M63.3,18.2c-0.8,0.1-5-3-5-5.3C60.6,13.1,63.5,17.4,63.3,18.2
		L63.3,18.2z M63.7,18c-0.8-0.3-2.8-5.1-1.7-7.1C63.9,12.2,64.3,17.4,63.7,18L63.7,18z M64.5,18.3c-0.1-0.8,3-5,5.3-5
		C69.7,15.6,65.4,18.4,64.5,18.3L64.5,18.3z M64.7,18.6c0.3-0.8,5.1-2.8,7.1-1.7C70.5,18.9,65.4,19.2,64.7,18.6L64.7,18.6z
		 M64.7,19.1c0.7-0.5,5.8,0.1,7,2.1C69.6,22.2,65,19.9,64.7,19.1L64.7,19.1z"/>
	<path class="st6" d="M67,19c0.1-2.4-2.5-4.4-5.2-2.6c-2.1,2.4-0.5,5.3,1.9,5.5C65.4,22,66.9,20.7,67,19L67,19z"/>
</g>
<g>
	<path class="st1" d="M442,17.1c-1.4-1.2-2.6-11.9,0.9-15.3C446,5.6,443.5,16.2,442,17.1L442,17.1z M443.4,19.9
		c1.7-0.6,11.6,3.8,12.8,8.5C451.4,29.2,443.5,21.7,443.4,19.9L443.4,19.9z M442.7,20.5c1.8,0.3,8.2,9.1,6.8,13.7
		C445,32.5,441.9,22.2,442.7,20.5L442.7,20.5z M441.8,20.7c1.4,1.2,2.6,11.9-0.9,15.3C437.8,32.3,440.3,21.7,441.8,20.7L441.8,20.7z
		 M440.9,20.4c0.6,1.7-3.8,11.6-8.5,12.8C431.7,28.4,439.1,20.5,440.9,20.4L440.9,20.4z M440.3,19.7c-0.3,1.8-9.1,8.2-13.7,6.8
		C428.3,22.1,438.7,18.9,440.3,19.7L440.3,19.7z M440.1,18.8c-1.2,1.4-11.9,2.6-15.3-0.9C428.6,14.8,439.1,17.3,440.1,18.8
		L440.1,18.8z M440.4,17.9c-1.7,0.6-11.6-3.8-12.8-8.5C432.4,8.7,440.3,16.1,440.4,17.9L440.4,17.9z M441.1,17.3
		c-1.8-0.3-8.2-9.1-6.8-13.7C438.8,5.3,441.9,15.7,441.1,17.3L441.1,17.3z M442.9,17.4c-0.6-1.7,3.8-11.6,8.5-12.8
		C452.1,9.4,444.7,17.3,442.9,17.4L442.9,17.4z M443.5,18.1c0.3-1.8,9.1-8.2,13.7-6.8C455.5,15.8,445.1,18.9,443.5,18.1L443.5,18.1z
		 M443.7,19c1.2-1.4,11.9-2.6,15.3,0.9C455.2,23,444.7,20.6,443.7,19L443.7,19z"/>
	<path class="st0" d="M442.4,17.2c-1.1-1.4,0.3-12.2,4.4-14.7C449,6.9,444.1,16.6,442.4,17.2L442.4,17.2z M443.1,20.3
		c1.8-0.2,10.4,6.3,10.5,11.2C448.8,31.1,442.8,22,443.1,20.3L443.1,20.3z M442.3,20.7c1.7,0.7,5.9,10.7,3.5,14.9
		C441.8,32.9,441.1,22.1,442.3,20.7L442.3,20.7z M441.4,20.7c1.1,1.4-0.3,12.2-4.4,14.7C434.8,31,439.7,21.3,441.4,20.7L441.4,20.7z
		 M440.6,20.2c0.2,1.8-6.3,10.4-11.2,10.5C429.8,25.8,438.8,19.9,440.6,20.2L440.6,20.2z M440.1,19.3c-0.7,1.7-10.7,5.9-14.9,3.5
		C428,18.8,438.8,18.2,440.1,19.3L440.1,19.3z M440.2,18.4c-1.4,1.1-12.2-0.3-14.7-4.4C429.9,11.9,439.6,16.7,440.2,18.4L440.2,18.4
		z M440.7,17.6c-1.8,0.2-10.4-6.3-10.5-11.2C435,6.8,441,15.9,440.7,17.6L440.7,17.6z M441.5,17.2c-1.7-0.7-5.9-10.7-3.5-14.9
		C442,5,442.6,15.8,441.5,17.2L441.5,17.2z M443.2,17.7c-0.2-1.8,6.3-10.4,11.2-10.5C454,12,445,18,443.2,17.7L443.2,17.7z
		 M443.6,18.5c0.7-1.7,10.7-5.9,14.9-3.5C455.8,19,445,19.7,443.6,18.5L443.6,18.5z M443.6,19.5c1.4-1.1,12.2,0.3,14.7,4.4
		C453.9,26,444.2,21.2,443.6,19.5L443.6,19.5z"/>
	<path class="st1" d="M442.1,18.1c-0.5-0.7,0.1-5.8,2.1-7C445.2,13.2,442.9,17.8,442.1,18.1L442.1,18.1z M442.5,19.6
		c0.8-0.1,5,3,5,5.3C445.2,24.7,442.3,20.4,442.5,19.6L442.5,19.6z M442.1,19.8c0.8,0.3,2.8,5.1,1.7,7.1
		C441.9,25.6,441.5,20.4,442.1,19.8L442.1,19.8z M441.7,19.8c0.5,0.7-0.1,5.8-2.1,7C438.5,24.7,440.8,20,441.7,19.8L441.7,19.8z
		 M441.3,19.5c0.1,0.8-3,5-5.3,5C436.1,22.2,440.4,19.4,441.3,19.5L441.3,19.5z M441.1,19.1c-0.3,0.8-5.1,2.8-7.1,1.7
		C435.3,18.9,440.4,18.6,441.1,19.1L441.1,19.1z M441.1,18.7c-0.7,0.5-5.8-0.1-7-2.1C436.2,15.6,440.8,17.9,441.1,18.7L441.1,18.7z
		 M441.3,18.3c-0.8,0.1-5-3-5-5.3C438.6,13.2,441.5,17.5,441.3,18.3L441.3,18.3z M441.7,18.1c-0.8-0.3-2.8-5.1-1.7-7.1
		C441.9,12.3,442.3,17.5,441.7,18.1L441.7,18.1z M442.5,18.4c-0.1-0.8,3-5,5.3-5C447.7,15.7,443.4,18.5,442.5,18.4L442.5,18.4z
		 M442.7,18.7c0.3-0.8,5.1-2.8,7.1-1.7C448.5,19,443.4,19.3,442.7,18.7L442.7,18.7z M442.7,19.2c0.7-0.5,5.8,0.1,7,2.1
		C447.6,22.3,443,20,442.7,19.2L442.7,19.2z"/>
	<path class="st6" d="M445,19.1c0.1-2.4-2.5-4.4-5.2-2.6c-2.1,2.4-0.5,5.3,1.9,5.5C443.4,22.1,444.9,20.8,445,19.1L445,19.1z"/>
</g>
</svg>
