<?xml version="1.0" encoding="utf-8"?>
<!-- Generator: Adobe Illustrator 19.1.0, SVG Export Plug-In . SVG Version: 6.00 Build 0)  -->
<svg version="1.1" id="Layer_1" xmlns="http://www.w3.org/2000/svg" xmlns:xlink="http://www.w3.org/1999/xlink" x="0px" y="0px"
	 viewBox="-129 379.5 352.5 35.5" style="enable-background:new -129 379.5 352.5 35.5;" xml:space="preserve">
<style type="text/css">
	.st0{fill:#FFC8D2;}
	.st1{fill:none;stroke:#FFC8D2;stroke-width:0.5;stroke-miterlimit:10;}
	.st2{font-family:'SavoyeLetPlain';}
	.st3{font-size:21px;}
</style>
<g>
	<g>
		<g>
			<path class="st0" d="M-114.8,410.3C-114.8,410.3-114.7,410.3-114.8,410.3c0.2-0.1,0.2-0.2,0.1-0.2c-0.2-0.3-0.4-0.7-0.5-1
				c-0.1-0.3-0.3-0.5-0.4-0.8c0-0.1-0.1-0.1-0.2,0c-0.1,0-0.1,0.1,0,0.2c0.1,0.2,0.3,0.5,0.4,0.8c0.2,0.4,0.3,0.7,0.6,1.1
				C-114.9,410.3-114.8,410.3-114.8,410.3z"/>
		</g>
		<g>
			<path class="st0" d="M-110,412.6c0.1,0,0.1,0,0.1-0.1c0.8-2.1,2-3.4,3.8-4.2c0.7-0.3,1.4-0.6,2.1-0.9c0.8-0.4,1.7-0.7,2.5-1.1
				c0.3-0.1,0.6-0.2,0.9-0.3c0.5-0.2,1.1-0.4,1.5-0.7c0.3-0.2,0.7-0.5,1-0.7c0.1-0.1,0.3-0.2,0.4-0.3c0.7-0.5,1.3-1.1,1.8-1.9
				c0-0.1,0-0.2,0-0.2c-0.1,0-0.2,0-0.2,0c-0.5,0.8-1.1,1.4-1.7,1.8c-0.1,0.1-0.3,0.2-0.4,0.3c-0.3,0.2-0.6,0.5-1,0.7
				c-0.5,0.3-1,0.5-1.5,0.7c-0.3,0.1-0.6,0.2-0.9,0.4c-0.8,0.4-1.7,0.7-2.5,1.1c-0.7,0.3-1.4,0.6-2.1,0.9c-1.9,0.8-3.2,2.2-4,4.4
				C-110.1,412.5-110.1,412.6-110,412.6L-110,412.6z"/>
		</g>
		<g>
			<path class="st0" d="M-97.6,410.8L-97.6,410.8c0.1,0,0.2-0.1,0.1-0.2c-0.9-2.2-4.6-3.5-6.7-3.4c-0.1,0-0.1,0.1-0.1,0.2
				s0.1,0.2,0.2,0.1C-102,407.4-98.5,408.6-97.6,410.8C-97.7,410.7-97.7,410.8-97.6,410.8z"/>
		</g>
		<g>
			<path class="st0" d="M-103.3,407.1L-103.3,407.1c0.6-0.2,1.4-0.2,2-0.1c0.3,0,0.6,0,0.8,0c0.1,0,0.2-0.1,0.2-0.2
				c0-0.1-0.1-0.2-0.2-0.2c-0.2,0-0.5,0-0.8,0c-0.7,0-1.5-0.1-2.1,0.1c-0.1,0-0.1,0.1-0.1,0.2C-103.4,407.1-103.4,407.1-103.3,407.1
				z"/>
		</g>
		<g>
			<path class="st0" d="M-105.2,408c0.1,0,0.1,0,0.1-0.1c0.1-0.3,0.3-0.5,0.5-0.8c0.2-0.2,0.3-0.4,0.5-0.6c0.1-0.2,0.2-0.3,0.2-0.5
				c0.1-0.2,0.2-0.4,0.4-0.6c0.1-0.2,0.3-0.3,0.5-0.4c0.3-0.2,0.5-0.4,0.7-0.7c0-0.1,0-0.2-0.1-0.2c-0.1,0-0.2,0-0.2,0.1
				c-0.1,0.2-0.4,0.4-0.6,0.6c-0.2,0.1-0.4,0.3-0.6,0.5c-0.2,0.2-0.3,0.5-0.4,0.7c-0.1,0.1-0.1,0.3-0.2,0.4
				c-0.1,0.2-0.3,0.4-0.4,0.6c-0.2,0.3-0.5,0.5-0.6,0.9C-105.4,407.8-105.4,407.9-105.2,408C-105.3,408-105.2,408-105.2,408z"/>
		</g>
		<g>
			<path class="st0" d="M-105.9,408c0.1,0,0.2-0.1,0.2-0.1c0-0.3,0.2-0.5,0.3-0.8c0.1-0.2,0.2-0.4,0.2-0.6c0.1-0.5,0.2-0.9,0.3-1.4
				c0-0.2,0.1-0.5,0.1-0.7c0.2-1.1,0.1-2.2-0.2-3.6c0-0.1-0.1-0.1-0.2-0.1s-0.1,0.1-0.1,0.2c0.3,1.3,0.3,2.4,0.2,3.5
				c0,0.2-0.1,0.5-0.1,0.7c-0.1,0.5-0.1,0.9-0.3,1.4c-0.1,0.2-0.1,0.4-0.2,0.6c-0.1,0.3-0.2,0.5-0.3,0.8
				C-106.1,407.9-106.1,408-105.9,408C-106,408-105.9,408-105.9,408z"/>
		</g>
		<g>
			<path class="st0" d="M-109.4,411.2L-109.4,411.2c0.1-0.1,0.2-0.1,0.1-0.2c-0.2-0.3,0-0.9,0.2-1.3c0-0.1,0.1-0.2,0.1-0.2
				c0-0.1,0.1-0.3,0.1-0.4c0.2-0.6,0.4-1.4,0.8-1.8c0.1-0.1,0.1-0.2,0-0.2c-0.1-0.1-0.2-0.1-0.2,0c-0.4,0.4-0.7,1.3-0.9,1.9
				c0,0.2-0.1,0.3-0.1,0.4s0,0.1-0.1,0.2c-0.2,0.5-0.4,1.1-0.2,1.6C-109.5,411.1-109.5,411.2-109.4,411.2z"/>
		</g>
		<g>
			<path class="st0" d="M-105,403.1c0.1,0,0.1-0.1,0.2-0.1c0.1-0.9,1.4-1.4,2-1.7c0.2-0.1,0.4-0.2,0.6-0.3c0.5-0.2,1-0.4,1.5-0.6
				c0.3-0.1,0.6-0.1,0.8-0.2c0.4-0.1,0.7-0.1,1.1-0.3c1.4-0.5,5.9-2.5,5.9-6.5c0-0.1-0.1-0.2-0.2-0.2c-0.1,0-0.2,0.1-0.2,0.2
				c0,3.8-4.4,5.8-5.7,6.3c-0.3,0.1-0.7,0.2-1,0.3c-0.3,0.1-0.6,0.1-0.9,0.2c-0.5,0.2-1,0.4-1.6,0.6c-0.2,0.1-0.4,0.2-0.6,0.3
				c-0.7,0.3-2,0.8-2.2,1.9C-105.2,403-105.1,403-105,403.1L-105,403.1z"/>
		</g>
		<g>
			<path class="st0" d="M-100.6,400.4c0.2,0,0.3-0.1,0.5-0.2c0.6-0.6,0.6-2.2,0.6-3v-0.1c0-0.1,0-0.3,0-0.4c0-1.6,0-3,1.2-4.2
				c0.1-0.1,0.1-0.2,0-0.2c-0.1-0.1-0.2-0.1-0.2,0c-1.3,1.3-1.3,2.8-1.3,4.4c0,0.1,0,0.3,0,0.4v0.1c0,0.6,0,2.3-0.5,2.7
				c-0.1,0.1-0.2,0.1-0.2,0.1c-0.1,0-0.2,0.1-0.2,0.2C-100.8,400.3-100.7,400.4-100.6,400.4L-100.6,400.4z"/>
		</g>
		<g>
			<path class="st0" d="M-99.8,395.7L-99.8,395.7c0.1,0,0.2-0.1,0.1-0.2c-0.1-0.3-0.3-0.6-0.4-1c-0.2-0.4-0.5-0.9-0.5-1.2
				c0-0.1-0.1-0.1-0.2-0.1c-0.1,0-0.1,0.1-0.1,0.2c0.1,0.4,0.3,0.9,0.5,1.3c0.2,0.3,0.3,0.6,0.4,0.9
				C-100,395.7-99.9,395.7-99.8,395.7z"/>
		</g>
		<g>
			<path class="st0" d="M-111.9,411.5L-111.9,411.5c0.1,0,0.2-0.1,0.1-0.2c-0.4-1-1-1.9-1.5-2.7c-0.6-0.9-1.2-1.8-1.6-2.8
				c-0.5-1.2-0.7-2.2-0.9-3.4c-0.2-0.9-0.2-1.8-0.2-2.7c0-0.3,0-0.6,0-0.9c0-1.5,0.3-2.9,0.7-4.2c0.3-1.4,0.7-2.8,0.7-4.2
				c0-0.8-0.2-1.6-0.3-2.4c-0.1-0.8-0.3-1.5-0.3-2.3c0-0.2,0-0.4,0-0.7c0-0.5,0-1,0-1.5c0.1-0.5,0.3-0.8,0.6-1.2
				c0.1-0.2,0.3-0.4,0.4-0.6c0-0.1,0-0.2-0.1-0.2c-0.1,0-0.2,0-0.2,0.1c-0.1,0.2-0.2,0.4-0.4,0.6c-0.3,0.4-0.5,0.8-0.6,1.4
				c-0.1,0.5,0,1,0,1.5c0,0.2,0,0.4,0,0.6c0,0.8,0.2,1.6,0.3,2.3c0.2,0.8,0.3,1.5,0.3,2.3c0,1.5-0.4,2.8-0.7,4.2
				c-0.4,1.4-0.7,2.8-0.7,4.3c0,0.3,0,0.6,0,0.9c0,0.9,0,1.8,0.2,2.7c0.2,1.2,0.5,2.2,0.9,3.4c0.4,1.1,1,2,1.6,2.9
				c0.6,0.8,1.1,1.7,1.5,2.7C-112.1,411.4-112,411.5-111.9,411.5z"/>
		</g>
		<g>
			<path class="st0" d="M-114.7,406.5c0.1,0,0.1,0,0.1-0.1s0-0.2-0.1-0.2c-0.3-0.1-0.3-1.1,0-2.7c0-0.1,0-0.3,0.1-0.3
				c0.1-0.7,0.2-1.4,0.4-2c0.1-0.3,0.2-0.6,0.4-0.9c0.2-0.3,0.3-0.7,0.4-1c0-0.1,0-0.2-0.1-0.2c-0.1,0-0.2,0-0.2,0.1
				c-0.1,0.3-0.2,0.6-0.3,0.9c-0.1,0.3-0.3,0.6-0.4,0.9c-0.2,0.7-0.3,1.3-0.4,2c0,0.1,0,0.2-0.1,0.3
				C-115.2,404.7-115.4,406.2-114.7,406.5C-114.8,406.5-114.8,406.5-114.7,406.5z"/>
		</g>
		<g>
			<path class="st0" d="M-115.5,404.7c0.1,0,0.1,0,0.1-0.1s0-0.2-0.1-0.3c-0.1-0.1-0.3-0.2-0.4-0.3c-0.9-0.6-1.6-1.1-2.8-1.1l0,0
				c-0.5,0-1.2,0.1-1.8,0.1c-0.9,0.1-1.8,0.2-2.5,0.1c-0.1,0-0.2,0.1-0.2,0.2c0,0.1,0,0.2,0.1,0.2c0.7,0.1,1.6,0,2.5-0.1
				c0.6-0.1,1.2-0.1,1.7-0.1l0,0c1.1,0,1.8,0.5,2.6,1.1C-115.8,404.5-115.7,404.6-115.5,404.7L-115.5,404.7z"/>
		</g>
		<g>
			<path class="st0" d="M-122.9,405.4L-122.9,405.4c0.7-0.3,1.2-1,1.7-1.6c0.1-0.2,0.2-0.3,0.3-0.4s0-0.2,0-0.2
				c-0.1-0.1-0.2,0-0.2,0c-0.1,0.1-0.2,0.3-0.3,0.5c-0.4,0.6-0.9,1.2-1.5,1.5C-123,405.2-123,405.3-122.9,405.4L-122.9,405.4z"/>
		</g>
		<g>
			<path class="st0" d="M-115.8,396.5c0,0,0.1,0,0.1-0.1c0.1-0.1,0.1-0.3,0-0.4v-0.1v-0.1c-0.3-2.4-1.5-4.5-3-5.8
				c-0.2-0.1-0.4-0.3-0.6-0.4c-0.3-0.2-0.7-0.5-0.9-0.7c-0.3-0.3-0.6-0.7-0.8-1.1c-0.1-0.2-0.2-0.4-0.4-0.5
				c-0.5-0.6-0.6-1.1-0.7-1.7c0-0.2,0-0.5,0-0.8c0-0.5,0-1.1-0.2-1.4c0-0.1-0.1-0.1-0.2-0.1s-0.1,0.1-0.1,0.2
				c0.1,0.3,0.1,0.8,0.1,1.3c0,0.3,0,0.6,0,0.9c0.1,0.8,0.4,1.3,0.8,1.9c0.1,0.2,0.2,0.3,0.4,0.5c0.3,0.4,0.5,0.8,0.9,1.1
				c0.3,0.3,0.6,0.5,1,0.8c0.2,0.1,0.4,0.3,0.6,0.4c1.6,1.3,2.7,3.5,3,6C-115.9,396.4-115.9,396.4-115.8,396.5L-115.8,396.5z"/>
		</g>
		<g>
			<path class="st0" d="M-120.6,388.9c0,0,0.1,0,0.1-0.1c0.1-0.1,0-0.2,0-0.2c-0.6-0.5-0.4-2.1-0.2-3.3c0.1-0.6,0.2-1.1,0.2-1.4
				c0-0.1-0.1-0.2-0.2-0.1c-0.1,0-0.1,0.1-0.1,0.2c0,0.3-0.1,0.8-0.2,1.3C-121.2,386.7-121.4,388.3-120.6,388.9L-120.6,388.9z"/>
		</g>
		<g>
			<path class="st0" d="M-122.8,395.4C-122.8,395.4-122.7,395.4-122.8,395.4c0.1-0.1,0.2-0.1,0.1-0.2c-0.5-1-0.2-3,0.6-3.9
				c0.3-0.4,1.8-1.2,2.6-1.1c0.2,0,0.4,0.1,0.5,0.2c0,0.1,0.1,0.1,0.2,0.1s0.1-0.1,0.1-0.2c-0.1-0.2-0.4-0.4-0.7-0.4
				c-1-0.1-2.5,0.8-2.9,1.2c-0.9,1-1.2,3.1-0.7,4.3C-122.9,395.3-122.8,395.4-122.8,395.4z"/>
		</g>
		<g>
			<path class="st0" d="M-123.1,390.7L-123.1,390.7c0.5,0,1.1-0.2,1.6-0.3c0.6-0.2,1.3-0.4,1.9-0.3c0.1,0,0.2-0.1,0.2-0.1
				c0-0.1,0-0.2-0.1-0.2c-0.7-0.1-1.4,0.1-2.1,0.3c-0.5,0.2-1,0.3-1.5,0.3c-0.1,0-0.1,0.1-0.1,0.2
				C-123.2,390.6-123.2,390.7-123.1,390.7z"/>
		</g>
		<g>
			<path class="st0" d="M-114.9,391.7C-114.9,391.7-114.8,391.7-114.9,391.7c0.1,0,0.2-0.1,0.1-0.2c-0.4-1.4-1.1-2.4-2.4-3.1
				c-0.1,0-0.2,0-0.2,0.1s0,0.2,0.1,0.2c1.2,0.7,1.9,1.6,2.2,2.9C-115,391.7-114.9,391.7-114.9,391.7z"/>
		</g>
		<g>
			<path class="st0" d="M-115.3,387.2C-115.2,387.2-115.2,387.2-115.3,387.2c0.1-0.1,0.1-0.2,0.1-0.3c-0.1-0.2-0.3-0.4-0.4-0.6
				c-0.2-0.3-0.3-0.6-0.5-0.8c-0.2-0.3-0.5-0.6-0.8-0.8c-0.3-0.2-0.5-0.4-0.7-0.6c0-0.1-0.1-0.1-0.2,0c-0.1,0.1-0.1,0.2,0,0.2
				c0.2,0.3,0.5,0.5,0.7,0.7c0.3,0.2,0.6,0.4,0.8,0.7c0.2,0.2,0.3,0.5,0.5,0.8C-115.7,386.7-115.5,386.9-115.3,387.2
				C-115.3,387.2-115.3,387.2-115.3,387.2z"/>
		</g>
		<g>
			<path class="st0" d="M-109,408.7C-108.9,408.7-108.9,408.7-109,408.7c0.1,0,0.2-0.1,0.1-0.2c-0.7-2.6-1.5-5.5,0.2-7.9
				c0.4-0.5,0.8-1,1.2-1.4c0.5-0.5,1-1.1,1.4-1.7c1-1.6,0.1-3.3-0.6-4.2c-0.3-0.5-0.7-0.9-1-1.3c-0.7-0.8-1.3-1.6-1.8-2.5
				c-0.3-1-0.5-3-0.1-4.2c0.2-0.5,0.5-0.9,0.9-1.1c0.1,0,0.1-0.1,0.1-0.2s-0.1-0.1-0.2-0.1c-0.5,0.2-0.8,0.6-1,1.2
				c-0.6,1.4-0.3,3.4,0.2,4.4c0.5,0.9,1.2,1.8,1.8,2.6c0.3,0.4,0.7,0.9,1,1.3c0.6,0.8,1.5,2.5,0.6,3.9c-0.4,0.6-0.9,1.2-1.4,1.7
				c-0.4,0.5-0.8,0.9-1.2,1.4c-1.8,2.5-1,5.5-0.3,8.1C-109.1,408.6-109,408.7-109,408.7z"/>
		</g>
		<g>
			<path class="st0" d="M-105.7,395.7L-105.7,395.7c2.4-1,2.8-4.4,2.4-7.3c-0.3-1.8-0.7-3.1-1.4-4.2c-0.1-0.1-0.1-0.2-0.2-0.2
				c-0.3-0.5-0.6-0.9-1-1.3c-0.2-0.2-0.4-0.3-0.6-0.5c-0.3-0.2-0.5-0.4-0.7-0.6c-0.1-0.1-0.1-0.1-0.2,0s-0.1,0.2,0,0.2
				c0.2,0.3,0.5,0.5,0.8,0.7c0.2,0.1,0.4,0.3,0.6,0.5c0.4,0.4,0.6,0.8,0.9,1.3c0,0,0.1,0,0.1,0.1c0.6,1,1.1,2.4,1.4,4.1
				c0.4,2.6,0.1,5.7-1.9,6.8c0,0,0-0.1-0.1-0.1s-0.2,0-0.2,0.1l0,0c0,0-0.1,0.1-0.1,0.2C-105.8,395.6-105.8,395.7-105.7,395.7
				C-105.8,395.7-105.7,395.7-105.7,395.7z"/>
		</g>
		<g>
			<path class="st0" d="M-104.6,385.4C-104.5,385.4-104.5,385.4-104.6,385.4c0.1,0,0.2-0.1,0.1-0.2c0-0.1,0-0.3,0-0.4l0,0
				c1.2-0.5,2-1.8,2-3.1c0-0.1-0.1-0.1-0.2-0.1c-0.1,0-0.1,0.1-0.1,0.2c0,1.2-0.7,2.5-1.8,2.8c-0.1,0-0.1,0.1-0.1,0.1v0.1
				c0,0.2,0,0.3,0,0.5C-104.7,385.4-104.6,385.4-104.6,385.4z"/>
		</g>
		<g>
			<path class="st0" d="M-107.1,392.8L-107.1,392.8c0.2-0.1,0.2-0.2,0.1-0.2c-0.3-0.2-0.9-0.4-1.7-0.6c-0.6-0.1-1.7-0.4-1.7-0.6
				c0-0.1-0.1-0.2-0.2-0.1l0,0c-0.1,0-0.1,0.1-0.1,0.2c0,0.4,0.7,0.6,1.9,0.9c0.6,0.2,1.4,0.3,1.6,0.5
				C-107.2,392.8-107.1,392.8-107.1,392.8z"/>
		</g>
		<g>
			<path class="st0" d="M-108.1,399.9L-108.1,399.9c0.1,0,0.2-0.1,0.2-0.2c0-0.3,0-0.6,0-0.9c0-0.6,0-1.2-0.3-1.8
				c-0.5-1-1.7-2.4-3.1-2.5c-0.1,0-0.2,0.1-0.2,0.1c0,0.1,0.1,0.2,0.1,0.2c1.1,0.1,2.3,1.2,2.8,2.3c0.2,0.5,0.2,1,0.2,1.6
				c0,0.3,0,0.6,0,0.9C-108.2,399.8-108.2,399.9-108.1,399.9z"/>
		</g>
		<g>
			<path class="st0" d="M-103.4,389.3C-103.4,389.3-103.3,389.3-103.4,389.3L-103.4,389.3c0.2-0.1,0.2-0.2,0.2-0.2
				c0.1-0.9,1-2,1.8-2.6c0.3-0.2,0.5-0.4,0.8-0.6c0.6-0.4,1.2-0.8,1.7-1.4c0.2-0.2,1.5-1.9,1-3c0-0.1-0.1-0.1-0.2-0.1
				c-0.1,0-0.1,0.1-0.1,0.2c0.4,0.8-0.5,2.1-0.9,2.6c-0.4,0.5-1,1-1.6,1.4c-0.3,0.2-0.5,0.4-0.8,0.6c-0.8,0.6-1.7,1.7-1.9,2.7
				c-0.1,0-0.1,0.1-0.1,0.1l0,0C-103.6,389.1-103.6,389.2-103.4,389.3C-103.5,389.3-103.5,389.3-103.4,389.3z"/>
		</g>
		<g>
			<path class="st0" d="M-98.6,384L-98.6,384c0.6-0.2,1.2-0.4,1.8-0.6c0.3-0.1,0.6-0.2,0.9-0.3c0.6-0.2,1.2-0.4,1.8-0.4
				c0.2,0,0.4,0,0.7,0c0.6,0,1.2,0,1.7-0.2c0.1,0,0.1-0.1,0.1-0.2c0-0.1-0.1-0.1-0.2-0.1c-0.4,0.2-1,0.2-1.5,0.2c-0.3,0-0.5,0-0.7,0
				c-0.7,0-1.3,0.2-1.9,0.4c-0.3,0.1-0.6,0.2-0.9,0.3c-0.6,0.2-1.2,0.4-1.8,0.6c-0.1,0-0.1,0.1-0.1,0.2
				C-98.8,383.9-98.7,384-98.6,384z"/>
		</g>
		<g>
			<path class="st0" d="M-103.4,390.2L-103.4,390.2c0.5-0.5,0.9-0.7,1.4-1c0.1,0,0.2-0.1,0.3-0.2s0.2-0.2,0.4-0.2
				c0.2-0.2,0.4-0.3,0.7-0.4c0.4-0.2,0.9-0.2,1.4-0.3c0.3-0.1,0.7-0.1,1.1-0.2c0.1,0,0.1-0.1,0.1-0.2c0-0.1-0.1-0.1-0.2-0.1
				c-0.3,0.1-0.7,0.2-1,0.2c-0.5,0.1-0.9,0.2-1.4,0.3c-0.4,0.1-0.7,0.2-0.9,0.4c-0.1,0.1-0.2,0.1-0.3,0.2c-0.1,0.1-0.2,0.1-0.3,0.1
				c-0.5,0.3-0.9,0.6-1.4,1.1c-0.1,0.1-0.1,0.2,0,0.2C-103.5,390.2-103.4,390.2-103.4,390.2z"/>
		</g>
		<g>
			<path class="st0" d="M-93.9,396.3c0.1,0,0.1-0.1,0.2-0.1c0-0.1-0.1-0.2-0.1-0.2c-0.9,0-1.6-1-1.9-1.9c0-0.1-0.1-0.1-0.2-0.1
				s-0.1,0.1-0.1,0.2C-95.7,395.1-95,396.2-93.9,396.3L-93.9,396.3z"/>
		</g>
		<g>
			<path class="st0" d="M-109.6,389.5c0,0,0.1,0,0.1-0.1c0.1-0.1,0-0.2,0-0.2l0,0c-0.5-0.4-2.2-1.7-1.8-2.4c0-0.1,0-0.2-0.1-0.2
				s-0.2,0-0.2,0.1c-0.5,1,1.1,2.3,1.9,2.9L-109.6,389.5L-109.6,389.5z"/>
		</g>
		<g>
			<path class="st0" d="M-117,413.3C-116.9,413.3-116.9,413.3-117,413.3c0.6-1.1,2.7-1.2,3.5-1.2c0.9,0,2.2-0.1,3,0.4
				c0.1,0,0.2,0,0.2,0c0-0.1,0-0.2,0-0.2c-0.8-0.5-2.2-0.5-3.1-0.4C-114.3,411.9-116.4,412-117,413.3
				C-117.1,413.2-117.1,413.3-117,413.3L-117,413.3z"/>
		</g>
		<g>
			<path class="st0" d="M-93.5,393.4c0,0-1.5-0.9-1.5-2.2c0,0,0.2-0.1,0.7,0.2c0,0-0.2-0.3-0.1-0.8c0,0,0.3-0.1,0.6,0.3
				c0,0,0.3-0.7,0.5-0.8c0,0,0.5,0.4,0.5,0.8c0,0,0.4-0.1,0.9-0.2c0,0,0.3,0.4,0.2,1c0,0,0.5-0.4,0.8-0.5c0,0,0.2,0.8,0,1.1
				c0,0,0.3,0,0.5,0c0,0-0.3,0.7-0.6,0.8c0,0,0.4,0.2,0.5,0.3C-90.6,393.4-91.9,393.9-93.5,393.4z"/>
			<path class="st0" d="M-92,390.8c0,0-0.1,1.2-0.7,1.6l0.9-0.7C-91.8,391.7-91.6,391.4-92,390.8z"/>
			<path class="st0" d="M-90.9,391.8c0,0-0.5,0.8-0.9,1.1c-0.5,0.3,0.8,0.2,0.8,0.2l0.6-0.8h-0.5L-90.9,391.8z"/>
		</g>
		<g>
			<path class="st0" d="M-109.2,384.3c0,0-0.8-0.5-0.8-1.2c0,0,0.1-0.1,0.4,0.1c0,0-0.1-0.1-0.1-0.4c0,0,0.2,0,0.3,0.2
				c0,0,0.1-0.4,0.3-0.4c0,0,0.3,0.2,0.3,0.4c0,0,0.2-0.1,0.5-0.1c0,0,0.2,0.2,0.1,0.5c0,0,0.3-0.2,0.5-0.3c0,0,0.1,0.4,0,0.6
				c0,0,0.2,0,0.3,0c0,0-0.1,0.4-0.3,0.5c0,0,0.2,0.1,0.3,0.1C-107.6,384.3-108.2,384.5-109.2,384.3z"/>
			<path class="st0" d="M-108.3,382.8c0,0,0,0.7-0.4,0.9l0.5-0.4C-108.2,383.4-108.1,383.2-108.3,382.8z"/>
			<path class="st0" d="M-107.7,383.4c0,0-0.3,0.5-0.5,0.6c-0.3,0.2,0.4,0.1,0.4,0.1l0.3-0.5h-0.3L-107.7,383.4z"/>
		</g>
		<g>
			<path class="st0" d="M-96,394.7c0,0-1.1,0.7-1.9,0.2c0,0,0-0.2,0.4-0.4c0,0-0.3,0.1-0.5-0.2c0,0,0.1-0.3,0.4-0.3
				c0,0-0.3-0.4-0.4-0.6c0,0,0.4-0.2,0.7,0c0,0,0.1-0.3,0.2-0.7c0,0,0.4-0.1,0.7,0.2c0,0-0.1-0.5,0-0.7c0,0,0.6,0.2,0.7,0.4
				c0,0,0.1-0.2,0.2-0.3c0,0,0.4,0.4,0.3,0.7c0,0,0.2-0.2,0.3-0.2C-95,392.8-95.1,393.7-96,394.7z"/>
			<path class="st0" d="M-97.1,392.8c0,0,0.8,0.5,0.8,1l-0.1-0.8C-96.4,393-96.6,392.7-97.1,392.8z"/>
			<path class="st0" d="M-96.1,392.4c0,0,0.4,0.6,0.4,1s0.4-0.4,0.4-0.4l-0.3-0.7l-0.2,0.3L-96.1,392.4z"/>
		</g>
		<g>
			<path class="st0" d="M-108.3,407c0,0-0.6-0.8-0.3-1.4c0,0,0.1,0,0.3,0.3c0,0-0.1-0.2,0.1-0.4c0,0,0.2,0,0.2,0.3
				c0,0,0.3-0.3,0.4-0.3c0,0,0.2,0.3,0.1,0.5c0,0,0.2,0,0.5,0.1c0,0,0.1,0.3-0.1,0.5c0,0,0.4-0.1,0.5-0.1c0,0-0.1,0.5-0.2,0.6
				c0,0,0.2,0.1,0.3,0.1c0,0-0.3,0.3-0.5,0.3l0.2,0.2C-106.9,407.6-107.6,407.6-108.3,407z"/>
			<path class="st0" d="M-107,405.9c0,0-0.3,0.6-0.7,0.7l0.6-0.2C-107.1,406.5-107,406.4-107,405.9z"/>
			<path class="st0" d="M-106.7,406.7c0,0-0.4,0.3-0.7,0.4c-0.3,0,0.3,0.3,0.3,0.3l0.5-0.3l-0.3-0.1L-106.7,406.7z"/>
		</g>
		<g>
			<path class="st0" d="M-96.1,402.2c0,0-0.6-0.8-0.3-1.4c0,0,0.1,0,0.3,0.3c0,0-0.1-0.2,0.1-0.4c0,0,0.2,0,0.2,0.3
				c0,0,0.3-0.3,0.4-0.3c0,0,0.2,0.3,0.1,0.5c0,0,0.2,0,0.5,0.1c0,0,0.1,0.3-0.1,0.5c0,0,0.4-0.1,0.5-0.1c0,0-0.1,0.5-0.2,0.6
				c0,0,0.2,0.1,0.3,0.1c0,0-0.3,0.3-0.5,0.3l0.2,0.2C-94.7,402.8-95.4,402.8-96.1,402.2z"/>
			<path class="st0" d="M-94.8,401.2c0,0-0.3,0.6-0.7,0.7l0.6-0.2C-94.9,401.7-94.7,401.6-94.8,401.2z"/>
			<path class="st0" d="M-94.5,402c0,0-0.4,0.3-0.7,0.4c-0.3,0,0.3,0.3,0.3,0.3l0.5-0.3l-0.3-0.1L-94.5,402z"/>
		</g>
		<g>
			<path class="st0" d="M-117,389c0,0-0.8,0.5-1.4,0.2c0,0,0-0.1,0.3-0.3c0,0-0.2,0-0.4-0.1c0,0,0-0.2,0.3-0.2c0,0-0.2-0.3-0.3-0.4
				c0,0,0.3-0.2,0.5,0c0,0,0-0.2,0.1-0.5c0,0,0.3-0.1,0.5,0.2c0,0-0.1-0.4,0-0.5c0,0,0.4,0.1,0.5,0.3l0.1-0.2c0,0,0.3,0.3,0.2,0.5
				c0,0,0.2-0.1,0.2-0.2C-116.2,387.6-116.3,388.3-117,389z"/>
			<path class="st0" d="M-117.8,387.6c0,0,0.6,0.3,0.6,0.7l-0.1-0.6C-117.3,387.8-117.4,387.6-117.8,387.6z"/>
			<path class="st0" d="M-117,387.4c0,0,0.3,0.4,0.3,0.7c0,0.3,0.3-0.3,0.3-0.3l-0.2-0.5l-0.2,0.2L-117,387.4z"/>
		</g>
		<g>
			<path class="st0" d="M-113.7,399.5c0,0,0.4-1.6,1.5-2c0,0,0.2,0.2,0,0.7c0,0,0.2-0.3,0.7-0.3c0,0,0.2,0.3-0.1,0.7
				c0,0,0.7,0.1,0.9,0.2c0,0-0.2,0.6-0.6,0.6c0,0,0.2,0.3,0.5,0.8c0,0-0.3,0.4-0.8,0.4c0,0,0.5,0.4,0.7,0.6c0,0-0.7,0.4-1,0.3
				c0,0,0.1,0.3,0.1,0.5c0,0-0.7-0.1-0.9-0.3c0,0,0,0.4-0.1,0.5C-112.9,402.1-113.7,401.2-113.7,399.5z"/>
			<path class="st0" d="M-111,400.2c0,0-1.1,0.3-1.7-0.2l0.8,0.6C-111.8,400.6-111.4,400.7-111,400.2z"/>
			<path class="st0" d="M-111.6,401.5c0,0-0.9-0.2-1.2-0.6c-0.4-0.3,0,0.8,0,0.8l0.9,0.3l-0.2-0.5H-111.6z"/>
		</g>
		<g>
			<path class="st0" d="M-98.6,387.6c0,0-0.7-0.9-0.4-1.7c0,0,0.2,0,0.4,0.3c0,0-0.1-0.2,0.1-0.5c0,0,0.2,0,0.3,0.4
				c0,0,0.3-0.3,0.5-0.4c0,0,0.2,0.4,0.1,0.6c0,0,0.3,0,0.6,0.1c0,0,0.1,0.3-0.1,0.6c0,0,0.4-0.1,0.6-0.1c0,0-0.1,0.5-0.2,0.7
				c0,0,0.2,0.1,0.3,0.1c0,0-0.3,0.4-0.6,0.4c0,0,0.2,0.2,0.2,0.3C-96.8,388.4-97.7,388.4-98.6,387.6z"/>
			<path class="st0" d="M-97.1,386.4c0,0-0.3,0.7-0.8,0.8l0.7-0.2C-97.2,387-97,386.9-97.1,386.4z"/>
			<path class="st0" d="M-96.7,387.3c0,0-0.5,0.4-0.8,0.4c-0.3,0.1,0.4,0.3,0.4,0.3l0.6-0.4l-0.3-0.1L-96.7,387.3z"/>
		</g>
		<g>
			<path class="st0" d="M-91.9,382.1c0,0,1.2-0.5,1.9,0.1c0,0,0,0.2-0.5,0.3c0,0,0.3,0,0.5,0.3c0,0-0.1,0.2-0.5,0.2
				c0,0,0.3,0.5,0.3,0.6c0,0-0.5,0.1-0.7-0.1c0,0-0.1,0.3-0.3,0.6c0,0-0.4,0-0.6-0.3c0,0,0,0.5-0.1,0.7c0,0-0.5-0.3-0.6-0.5
				c0,0-0.2,0.2-0.2,0.3c0,0-0.3-0.5-0.2-0.7c0,0-0.3,0.2-0.4,0.1C-93.3,383.8-93,382.9-91.9,382.1z"/>
			<path class="st0" d="M-91.2,384.2c0,0-0.7-0.6-0.6-1.2v0.8C-91.8,383.9-91.7,384.1-91.2,384.2z"/>
			<path class="st0" d="M-92.2,384.4c0,0-0.2-0.7-0.2-1c0.1-0.4-0.5,0.3-0.5,0.3l0.2,0.7l0.2-0.3L-92.2,384.4z"/>
		</g>
		<g>
			<path class="st0" d="M-110.1,411.6c0,0,0.7-0.9,1.5-0.8c0,0,0.1,0.2-0.2,0.4c0,0,0.2-0.1,0.5,0c0,0,0,0.2-0.3,0.4
				c0,0,0.4,0.2,0.5,0.4c0,0-0.3,0.3-0.5,0.2c0,0,0,0.3,0.1,0.6c0,0-0.3,0.2-0.6,0c0,0,0.2,0.4,0.3,0.6c0,0-0.5,0.1-0.7-0.1
				c0,0,0,0.2,0,0.3c0,0-0.4-0.2-0.5-0.5c0,0-0.1,0.2-0.2,0.3C-110.3,413.4-110.5,412.6-110.1,411.6z"/>
			<path class="st0" d="M-108.6,412.8c0,0-0.8-0.2-1-0.6l0.4,0.6C-109.2,412.8-109,413-108.6,412.8z"/>
			<path class="st0" d="M-109.3,413.4c0,0-0.5-0.4-0.6-0.7c-0.1-0.3-0.2,0.5-0.2,0.5l0.5,0.5v-0.3H-109.3z"/>
		</g>
		<g>
			<path class="st0" d="M-102.6,404.1c0,0-0.5-0.7-0.3-1.2c0,0,0.1,0,0.3,0.2c0,0-0.1-0.2,0.1-0.4c0,0,0.2,0,0.2,0.3
				c0,0,0.2-0.3,0.3-0.3c0,0,0.2,0.3,0.1,0.4c0,0,0.2,0,0.5,0.1c0,0,0.1,0.3-0.1,0.5c0,0,0.3-0.1,0.5-0.1c0,0,0,0.4-0.2,0.5l0.2,0.1
				c0,0-0.2,0.3-0.4,0.3c0,0,0.1,0.1,0.2,0.2C-101.3,404.6-101.9,404.6-102.6,404.1z"/>
			<path class="st0" d="M-101.5,403.2c0,0-0.2,0.6-0.6,0.6l0.5-0.1C-101.6,403.7-101.4,403.6-101.5,403.2z"/>
			<path class="st0" d="M-101.2,403.9c0,0-0.4,0.3-0.6,0.3c-0.3,0,0.3,0.2,0.3,0.2l0.4-0.3l-0.2-0.1L-101.2,403.9z"/>
		</g>
		<g>
			<path class="st0" d="M-111.4,395c0,0-1.4,0.4-2.1-0.3c0,0,0.1-0.2,0.5-0.3c0,0-0.3,0-0.5-0.4c0,0,0.1-0.3,0.5-0.2
				c0,0-0.2-0.5-0.2-0.7c0,0,0.5-0.1,0.7,0.2c0,0,0.1-0.3,0.4-0.7c0,0,0.4,0,0.7,0.4c0,0,0-0.6,0.2-0.8c0,0,0.6,0.3,0.6,0.6
				c0,0,0.2-0.2,0.3-0.3c0,0,0.3,0.5,0.1,0.8c0,0,0.3-0.1,0.4-0.1C-109.8,393.2-110.2,394.2-111.4,395z"/>
			<path class="st0" d="M-112.1,392.6c0,0,0.7,0.7,0.6,1.3l0.1-0.9C-111.4,393-111.5,392.7-112.1,392.6z"/>
			<path class="st0" d="M-110.9,392.5c0,0,0.2,0.7,0.1,1.2c-0.1,0.4,0.6-0.3,0.6-0.3l-0.2-0.9l-0.3,0.3L-110.9,392.5z"/>
		</g>
		<g>
			<path class="st0" d="M-120.5,384.1c0,0-0.7,0.2-1-0.1c0,0,0-0.1,0.3-0.2c0,0-0.1,0-0.3-0.2c0,0,0.1-0.1,0.3-0.1
				c0,0-0.1-0.3-0.1-0.4c0,0,0.3-0.1,0.4,0.1c0,0,0.1-0.1,0.2-0.3c0,0,0.2,0,0.3,0.2c0,0,0-0.3,0.1-0.4c0,0,0.3,0.2,0.3,0.3l0.1-0.1
				c0,0,0.1,0.3,0.1,0.4c0,0,0.1-0.1,0.2-0.1C-119.7,383.2-119.9,383.7-120.5,384.1z"/>
			<path class="st0" d="M-120.8,382.9c0,0,0.3,0.4,0.3,0.6v-0.4C-120.5,383.1-120.5,383-120.8,382.9z"/>
			<path class="st0" d="M-120.2,382.9c0,0,0.1,0.4,0.1,0.6s0.3-0.2,0.3-0.2l-0.2-0.4l-0.1,0.1L-120.2,382.9z"/>
		</g>
		<g>
			<path class="st0" d="M-99,392.3c0,0-1.1-0.7-1.1-1.6c0,0,0.2-0.1,0.5,0.2c0,0-0.2-0.2-0.1-0.6c0,0,0.3-0.1,0.4,0.3
				c0,0,0.2-0.5,0.3-0.6c0,0,0.4,0.3,0.3,0.6c0,0,0.3-0.1,0.7-0.2c0,0,0.3,0.3,0.1,0.7c0,0,0.4-0.3,0.6-0.4c0,0,0.1,0.6,0,0.8
				c0,0,0.3,0,0.4,0c0,0-0.2,0.5-0.4,0.6c0,0,0.3,0.1,0.3,0.2C-96.9,392.3-97.8,392.7-99,392.3z"/>
			<path class="st0" d="M-97.9,390.4c0,0-0.1,0.9-0.5,1.2l0.6-0.5C-97.7,391.1-97.6,390.9-97.9,390.4z"/>
			<path class="st0" d="M-97.1,391.2c0,0-0.4,0.6-0.7,0.8c-0.3,0.2,0.6,0.2,0.6,0.2l0.4-0.6h-0.4L-97.1,391.2z"/>
		</g>
		<g>
			<path class="st0" d="M-98,409.9c0,0,0.2-1.1,0.9-1.3c0,0,0.1,0.1,0,0.5c0,0,0.1-0.2,0.4-0.2c0,0,0.1,0.2-0.1,0.4
				c0,0,0.4,0,0.6,0.1c0,0-0.1,0.4-0.4,0.4c0,0,0.1,0.2,0.3,0.5c0,0-0.2,0.3-0.5,0.3c0,0,0.4,0.2,0.5,0.4c0,0-0.4,0.3-0.6,0.2
				c0,0,0.1,0.2,0.1,0.3c0,0-0.4,0-0.6-0.2c0,0,0,0.3-0.1,0.3C-97.4,411.6-98,411-98,409.9z"/>
			<path class="st0" d="M-96.2,410.3c0,0-0.7,0.2-1.1-0.1l0.6,0.4C-96.7,410.6-96.5,410.7-96.2,410.3z"/>
			<path class="st0" d="M-96.6,411.2c0,0-0.6-0.1-0.8-0.3c-0.2-0.2,0,0.5,0,0.5l0.6,0.2l-0.1-0.3L-96.6,411.2z"/>
		</g>
		<g>
			<path class="st0" d="M-116.5,412.4c0,0,0.4,0.7,0.1,1.2c0,0-0.1,0-0.2-0.3c0,0,0,0.2-0.1,0.3c0,0-0.2-0.1-0.2-0.3
				c0,0-0.3,0.2-0.4,0.2c0,0-0.1-0.3,0-0.4c0,0-0.2,0-0.4-0.1c0,0,0-0.3,0.2-0.4c0,0-0.3,0-0.4,0c0,0,0.1-0.4,0.3-0.4
				c0,0-0.1-0.1-0.2-0.1c0,0,0.3-0.2,0.4-0.2l-0.1-0.2C-117.6,411.6-117,411.8-116.5,412.4z"/>
			<path class="st0" d="M-117.7,413c0,0,0.3-0.5,0.7-0.5h-0.5C-117.5,412.6-117.7,412.6-117.7,413z"/>
			<path class="st0" d="M-117.8,412.3c0,0,0.4-0.2,0.6-0.2c0.2,0-0.2-0.3-0.2-0.3l-0.4,0.2l0.2,0.1L-117.8,412.3z"/>
		</g>
		<g>
			<path class="st0" d="M-117.7,383.9c0,0,0.4,0.7,0.1,1.2c0,0-0.1,0-0.2-0.3c0,0,0,0.2-0.1,0.3c0,0-0.2-0.1-0.2-0.3
				c0,0-0.3,0.2-0.4,0.2c0,0-0.1-0.3,0-0.4c0,0-0.2,0-0.4-0.1c0,0,0-0.3,0.2-0.4c0,0-0.3,0-0.4,0c0,0,0.1-0.4,0.3-0.4
				c0,0-0.1-0.1-0.2-0.1c0,0,0.3-0.2,0.4-0.2l-0.1-0.2C-118.8,383.1-118.2,383.2-117.7,383.9z"/>
			<path class="st0" d="M-118.9,384.5c0,0,0.3-0.5,0.7-0.5h-0.5C-118.7,384.1-118.9,384.1-118.9,384.5z"/>
			<path class="st0" d="M-119.1,383.8c0,0,0.4-0.2,0.6-0.2s-0.2-0.3-0.2-0.3l-0.4,0.2l0.2,0.1L-119.1,383.8z"/>
		</g>
		<g>
			<path class="st0" d="M-107.7,387.4c0,0,0.2-0.4-0.1-0.6c0,0-0.3-0.2-0.6,0.2c0,0-0.2-0.3-0.5-0.1c0,0-0.5,0.3-0.1,0.8
				c0,0-0.5,0.1-0.2,0.6c0,0,0.2,0.3,0.5,0.1c0,0,0.2,0.5,0.6,0.4c0,0,0.5-0.2,0.4-0.7c0,0,0.3,0.2,0.5-0.3
				C-107.3,387.9-107.2,387.3-107.7,387.4z"/>
			<ellipse class="st0" cx="-108.4" cy="387.7" rx="0.4" ry="0.4"/>
		</g>
		<g>
			<path class="st0" d="M-116.7,396.9c0,0,0.2-0.5-0.1-0.6c0,0-0.3-0.2-0.6,0.2c0,0-0.2-0.3-0.5-0.1c0,0-0.5,0.3-0.1,0.8
				c0,0-0.5,0.1-0.2,0.6c0,0,0.2,0.3,0.5,0.1c0,0,0.2,0.5,0.6,0.4c0,0,0.5-0.2,0.4-0.7c0,0,0.3,0.2,0.5-0.3
				C-116.3,397.4-116.2,396.8-116.7,396.9z"/>
			<ellipse class="st0" cx="-117.4" cy="397.3" rx="0.4" ry="0.4"/>
		</g>
		<g>
			<path class="st0" d="M-118.8,394.1c0,0,0.3-0.5-0.2-0.8c0,0-0.4-0.3-0.7,0.3c0,0-0.2-0.3-0.7-0.1c0,0-0.6,0.4-0.1,1
				c0,0-0.6,0.1-0.3,0.7c0,0,0.2,0.3,0.6,0.1c0,0,0.2,0.6,0.7,0.5c0,0,0.7-0.2,0.4-0.8c0,0,0.4,0.2,0.6-0.3
				C-118.4,394.7-118.3,394-118.8,394.1z"/>
			<ellipse class="st0" cx="-119.7" cy="394.5" rx="0.4" ry="0.4"/>
		</g>
		<path class="st0" d="M-99.8,395.6c0,0-1.4-1.4-3,0.1C-102.8,395.7-101.3,396.9-99.8,395.6z"/>
		<path class="st0" d="M-114.8,391.6c0,0-1-1-2.1,0.1C-116.9,391.7-115.8,392.5-114.8,391.6z"/>
		<path class="st0" d="M-111.4,386.7c0,0-1-1-2.1,0.1C-113.5,386.8-112.4,387.6-111.4,386.7z"/>
		<path class="st0" d="M-111.3,386.7c0,0,0.9-1-0.1-2.1C-111.5,384.6-112.2,385.7-111.3,386.7z"/>
		<path class="st0" d="M-122.6,383.8c0,0,0.9-1-0.1-2.1C-122.7,381.7-123.5,382.8-122.6,383.8z"/>
		<path class="st0" d="M-100.6,393.5c0,0-1-1-2.1,0.1C-102.7,393.6-101.6,394.4-100.6,393.5z"/>
		<path class="st0" d="M-100.8,393.5c0,0,0.9-1-0.1-2.1C-100.9,391.4-101.7,392.5-100.8,393.5z"/>
		<path class="st0" d="M-110.5,391.5c0,0-1-1-2.1,0.1C-112.6,391.6-111.6,392.4-110.5,391.5z"/>
		<path class="st0" d="M-110.7,391.4c0,0,0.9-1-0.1-2.1C-110.9,389.3-111.6,390.4-110.7,391.4z"/>
		<path class="st0" d="M-113.5,399.2c0,0-1-1-2.1,0.1C-115.6,399.3-114.5,400.1-113.5,399.2z"/>
		<path class="st0" d="M-113.5,399.2c0,0,0.9-1-0.1-2.1C-113.6,397.1-114.4,398.2-113.5,399.2z"/>
		<path class="st0" d="M-105,401c0,0-1-1-2.1,0.1C-107.1,401.1-106.1,401.9-105,401z"/>
		<path class="st0" d="M-105.2,401c0,0,0.9-1-0.1-2.1C-105.3,398.9-106.1,400-105.2,401z"/>
		<path class="st0" d="M-115.8,408.7c0,0,0.5-1-0.6-1.6C-116.4,407.1-116.7,408.1-115.8,408.7z"/>
		<path class="st0" d="M-115.8,408.5c0,0,1,0.5,1.6-0.7C-114.2,407.9-115.3,407.5-115.8,408.5z"/>
		<path class="st0" d="M-100.6,406.7c0,0,0.7,0.4,1.2-0.3C-99.4,406.4-100.1,406.1-100.6,406.7z"/>
		<path class="st0" d="M-100.5,406.7c0,0-0.4,0.7,0.4,1.2C-100.1,407.9-99.8,407.2-100.5,406.7z"/>
		<path class="st0" d="M-104.4,385.4c0,0-1-1-2.1,0.1C-106.5,385.5-105.4,386.3-104.4,385.4z"/>
	</g>
</g>
<g>
	<g>
		<g>
			<path class="st0" d="M195.3,410.2C195.3,410.2,195.4,410.2,195.3,410.2c0.2-0.1,0.2-0.2,0.1-0.3c-0.2-0.3-0.4-0.7-0.6-1
				c-0.1-0.3-0.3-0.5-0.4-0.8c0-0.1-0.1-0.1-0.2,0c-0.1,0-0.1,0.1,0,0.2c0.1,0.2,0.3,0.5,0.4,0.8c0.2,0.4,0.3,0.7,0.6,1.1
				C195.2,410.2,195.3,410.2,195.3,410.2z"/>
		</g>
		<g>
			<path class="st0" d="M200.2,412.5c0.1,0,0.1,0,0.1-0.1c0.8-2.1,2-3.5,3.9-4.3c0.7-0.3,1.4-0.6,2.1-0.9c0.8-0.4,1.7-0.7,2.6-1.1
				c0.3-0.1,0.6-0.2,0.9-0.3c0.5-0.2,1.1-0.4,1.6-0.7c0.3-0.2,0.7-0.5,1-0.7c0.1-0.1,0.3-0.2,0.4-0.3c0.7-0.5,1.3-1.1,1.8-1.9
				c0-0.1,0-0.2,0-0.2c-0.1,0-0.2,0-0.2,0c-0.5,0.8-1.1,1.4-1.7,1.9c-0.1,0.1-0.3,0.2-0.4,0.3c-0.3,0.2-0.6,0.5-1,0.7
				c-0.5,0.3-1,0.5-1.5,0.7c-0.3,0.1-0.6,0.2-0.9,0.4c-0.8,0.4-1.7,0.7-2.6,1.1c-0.7,0.3-1.4,0.6-2.1,0.9
				C202.3,408.8,201,410.3,200.2,412.5C200,412.4,200.1,412.5,200.2,412.5L200.2,412.5z"/>
		</g>
		<g>
			<path class="st0" d="M212.7,410.6C212.8,410.6,212.8,410.6,212.7,410.6c0.1,0,0.2-0.1,0.1-0.2c-0.9-2.2-4.6-3.5-6.8-3.4
				c-0.1,0-0.2,0.1-0.1,0.2c0,0.1,0.1,0.2,0.2,0.2C208.2,407.3,211.8,408.5,212.7,410.6C212.6,410.6,212.7,410.6,212.7,410.6z"/>
		</g>
		<g>
			<path class="st0" d="M206.9,406.9C207,406.9,207,406.9,206.9,406.9c0.6-0.2,1.4-0.2,2.1-0.1c0.3,0,0.6,0,0.8,0
				c0.1,0,0.2-0.1,0.2-0.2s-0.1-0.2-0.2-0.2c-0.2,0-0.5,0-0.8,0c-0.7,0-1.5-0.1-2.1,0.1c-0.1,0-0.1,0.1-0.1,0.2
				C206.8,406.9,206.9,406.9,206.9,406.9z"/>
		</g>
		<g>
			<path class="st0" d="M205,407.8c0.1,0,0.1,0,0.1-0.1c0.1-0.3,0.3-0.5,0.6-0.8c0.2-0.2,0.3-0.4,0.5-0.6c0.1-0.2,0.2-0.3,0.2-0.5
				c0.1-0.2,0.2-0.4,0.4-0.6c0.1-0.2,0.3-0.3,0.5-0.5c0.3-0.2,0.5-0.4,0.7-0.7c0-0.1,0-0.2-0.1-0.2s-0.2,0-0.2,0.1
				c-0.1,0.2-0.4,0.4-0.6,0.6c-0.2,0.1-0.4,0.3-0.6,0.5s-0.3,0.5-0.4,0.7c-0.1,0.2-0.1,0.3-0.2,0.4c-0.1,0.2-0.3,0.4-0.4,0.6
				c-0.2,0.3-0.5,0.6-0.6,0.9C204.8,407.7,204.9,407.7,205,407.8L205,407.8z"/>
		</g>
		<g>
			<path class="st0" d="M204.3,407.9c0.1,0,0.2-0.1,0.2-0.1c0-0.3,0.2-0.5,0.3-0.8c0.1-0.2,0.2-0.4,0.2-0.6c0.1-0.5,0.2-1,0.3-1.4
				c0-0.2,0.1-0.5,0.1-0.7c0.2-1.1,0.1-2.2-0.2-3.6c0-0.1-0.1-0.1-0.2-0.1s-0.2,0.1-0.1,0.2c0.3,1.3,0.3,2.5,0.2,3.5
				c0,0.2-0.1,0.5-0.1,0.7c-0.1,0.5-0.1,0.9-0.3,1.4c-0.1,0.2-0.1,0.4-0.2,0.6c-0.1,0.3-0.2,0.6-0.3,0.9
				C204.1,407.8,204.2,407.8,204.3,407.9L204.3,407.9z"/>
		</g>
		<g>
			<path class="st0" d="M200.8,411L200.8,411c0.1-0.1,0.2-0.1,0.1-0.2c-0.2-0.3,0.1-0.9,0.2-1.3c0-0.1,0.1-0.2,0.1-0.2
				c0-0.1,0.1-0.3,0.1-0.4c0.2-0.6,0.4-1.5,0.8-1.8c0.1-0.1,0.1-0.2,0-0.2c-0.1-0.1-0.2-0.1-0.2,0c-0.4,0.4-0.7,1.3-0.9,2
				c0,0.2-0.1,0.3-0.1,0.4c0,0.1,0,0.1-0.1,0.2c-0.2,0.5-0.4,1.1-0.2,1.6C200.6,411,200.7,411,200.8,411z"/>
		</g>
		<g>
			<path class="st0" d="M205.2,402.8c0.1,0,0.1-0.1,0.2-0.1c0.1-0.9,1.4-1.4,2-1.7c0.2-0.1,0.4-0.2,0.6-0.3c0.5-0.2,1-0.4,1.5-0.6
				c0.3-0.1,0.6-0.1,0.9-0.2c0.4-0.1,0.7-0.1,1.1-0.3c1.4-0.5,6-2.5,6-6.6c0-0.1-0.1-0.2-0.2-0.2s-0.2,0.1-0.2,0.2
				c0,3.9-4.4,5.8-5.8,6.3c-0.3,0.1-0.7,0.2-1.1,0.3c-0.3,0.1-0.6,0.1-0.9,0.2c-0.5,0.2-1.1,0.4-1.6,0.6c-0.2,0.1-0.4,0.2-0.6,0.3
				c-0.7,0.3-2.1,0.8-2.2,1.9C205.1,402.7,205.1,402.8,205.2,402.8L205.2,402.8z"/>
		</g>
		<g>
			<path class="st0" d="M209.7,400.1c0.2,0,0.3-0.1,0.5-0.2c0.6-0.6,0.6-2.3,0.6-3v-0.1c0-0.1,0-0.3,0-0.4c0-1.6,0-3.1,1.2-4.3
				c0.1-0.1,0.1-0.2,0-0.2c-0.1-0.1-0.2-0.1-0.2,0c-1.3,1.3-1.3,2.8-1.3,4.5c0,0.1,0,0.3,0,0.4v0.1c0,0.6,0,2.3-0.5,2.8
				c-0.1,0.1-0.2,0.1-0.2,0.1c-0.1,0-0.2,0.1-0.2,0.2C209.5,400.1,209.6,400.1,209.7,400.1L209.7,400.1z"/>
		</g>
		<g>
			<path class="st0" d="M210.5,395.3L210.5,395.3c0.1,0,0.2-0.1,0.1-0.2c-0.1-0.3-0.3-0.6-0.5-1s-0.5-0.9-0.5-1.2
				c0-0.1-0.1-0.1-0.2-0.1s-0.1,0.1-0.1,0.2c0.1,0.4,0.3,0.9,0.5,1.3c0.2,0.3,0.3,0.6,0.4,0.9C210.4,395.3,210.4,395.3,210.5,395.3z
				"/>
		</g>
		<g>
			<path class="st0" d="M198.2,411.3L198.2,411.3c0.1,0,0.2-0.1,0.1-0.2c-0.4-1-1-1.9-1.6-2.8c-0.6-0.9-1.2-1.8-1.6-2.9
				c-0.5-1.2-0.7-2.3-0.9-3.4c-0.2-0.9-0.2-1.8-0.2-2.7c0-0.3,0-0.6,0-0.9c0-1.5,0.4-2.9,0.7-4.3c0.4-1.4,0.7-2.8,0.7-4.3
				c0-0.8-0.2-1.7-0.3-2.4c-0.1-0.7-0.3-1.5-0.3-2.3c0-0.2,0-0.4,0-0.7c0-0.5,0-1,0-1.5c0.1-0.5,0.3-0.8,0.6-1.2
				c0.1-0.2,0.3-0.4,0.4-0.6c0-0.1,0-0.2-0.1-0.2s-0.2,0-0.2,0.1c-0.1,0.2-0.2,0.4-0.4,0.6c-0.3,0.4-0.5,0.8-0.6,1.4
				c-0.1,0.5,0,1,0,1.6c0,0.2,0,0.4,0,0.7c0,0.8,0.2,1.6,0.3,2.4c0.2,0.8,0.3,1.6,0.3,2.4c0,1.5-0.4,2.9-0.7,4.2
				c-0.4,1.4-0.7,2.8-0.7,4.4c0,0.3,0,0.6,0,0.9c0,0.9,0,1.8,0.2,2.8c0.2,1.2,0.5,2.2,0.9,3.5c0.4,1.1,1,2,1.6,2.9
				c0.6,0.8,1.2,1.7,1.5,2.7C198.1,411.3,198.1,411.3,198.2,411.3z"/>
		</g>
		<g>
			<path class="st0" d="M195.4,406.3c0.1,0,0.1,0,0.1-0.1c0-0.1,0-0.2-0.1-0.2c-0.3-0.1-0.3-1.1,0-2.8c0-0.1,0-0.3,0.1-0.3
				c0.1-0.7,0.2-1.4,0.4-2c0.1-0.3,0.2-0.6,0.4-0.9c0.2-0.4,0.3-0.7,0.4-1c0-0.1,0-0.2-0.1-0.2s-0.2,0-0.2,0.1
				c-0.1,0.3-0.2,0.6-0.4,0.9c-0.1,0.3-0.3,0.6-0.4,1c-0.2,0.7-0.3,1.4-0.4,2.1c0,0.1,0,0.2-0.1,0.3
				C194.9,404.5,194.7,406,195.4,406.3C195.3,406.3,195.3,406.3,195.4,406.3z"/>
		</g>
		<g>
			<path class="st0" d="M194.6,404.5c0.1,0,0.1,0,0.1-0.1s0-0.2-0.1-0.3s-0.3-0.2-0.4-0.3c-0.9-0.6-1.6-1.1-2.8-1.1l0,0
				c-0.6,0-1.2,0.1-1.8,0.1c-0.9,0.1-1.8,0.2-2.5,0.1c-0.1,0-0.2,0.1-0.2,0.2s0.1,0.2,0.1,0.2c0.7,0.1,1.7,0,2.6-0.1
				c0.6-0.1,1.2-0.1,1.8-0.1l0,0c1.1,0,1.8,0.5,2.7,1.1C194.3,404.3,194.4,404.4,194.6,404.5L194.6,404.5z"/>
		</g>
		<g>
			<path class="st0" d="M187.1,405.2L187.1,405.2c0.7-0.3,1.2-1,1.7-1.6c0.1-0.2,0.2-0.3,0.3-0.5c0.1-0.1,0-0.2,0-0.2
				c-0.1-0.1-0.2,0-0.2,0c-0.1,0.1-0.2,0.3-0.3,0.5c-0.4,0.6-0.9,1.3-1.5,1.5c-0.1,0-0.1,0.1-0.1,0.2
				C187,405.1,187,405.2,187.1,405.2z"/>
		</g>
		<g>
			<path class="st0" d="M194.3,396.1c0,0,0.1,0,0.1-0.1c0.1-0.1,0.1-0.3,0-0.4v-0.1v-0.1c-0.3-2.4-1.5-4.6-3.1-5.8
				c-0.2-0.1-0.4-0.3-0.6-0.4c-0.3-0.2-0.7-0.5-0.9-0.7c-0.3-0.3-0.6-0.7-0.8-1.1c-0.1-0.2-0.2-0.4-0.4-0.6
				c-0.5-0.6-0.7-1.1-0.8-1.8c0-0.2,0-0.5,0-0.8c0-0.6,0-1.1-0.2-1.5c0-0.1-0.1-0.1-0.2-0.1s-0.1,0.1-0.1,0.2
				c0.1,0.3,0.1,0.8,0.1,1.3c0,0.3,0,0.6,0,0.9c0.1,0.8,0.4,1.3,0.8,1.9c0.1,0.2,0.2,0.4,0.4,0.5c0.3,0.4,0.5,0.8,0.9,1.2
				c0.3,0.3,0.6,0.5,1,0.8c0.2,0.1,0.4,0.3,0.6,0.4c1.6,1.3,2.8,3.6,3,6.1C194.2,396,194.2,396.1,194.3,396.1L194.3,396.1z"/>
		</g>
		<g>
			<path class="st0" d="M189.5,388.5c0,0,0.1,0,0.1-0.1c0.1-0.1,0-0.2,0-0.2c-0.6-0.5-0.4-2.1-0.2-3.3c0.1-0.6,0.2-1.1,0.2-1.4
				c0-0.1-0.1-0.2-0.2-0.2s-0.2,0.1-0.1,0.2c0,0.3-0.1,0.8-0.2,1.4C188.9,386.2,188.6,387.8,189.5,388.5
				C189.4,388.5,189.4,388.5,189.5,388.5z"/>
		</g>
		<g>
			<path class="st0" d="M187.2,395C187.2,395,187.3,395,187.2,395c0.1-0.1,0.2-0.1,0.1-0.2c-0.5-1-0.2-3,0.6-4
				c0.3-0.4,1.8-1.2,2.7-1.1c0.2,0,0.4,0.1,0.5,0.3c0,0.1,0.1,0.1,0.2,0.1s0.1-0.1,0.1-0.2c-0.1-0.2-0.4-0.4-0.7-0.4
				c-1-0.1-2.5,0.8-2.9,1.2C186.9,391.8,186.6,393.8,187.2,395C187.1,395,187.2,395,187.2,395z"/>
		</g>
		<g>
			<path class="st0" d="M186.9,390.2L186.9,390.2c0.5,0,1.1-0.2,1.6-0.3c0.6-0.2,1.3-0.4,2-0.3c0.1,0,0.2-0.1,0.2-0.1
				c0-0.1-0.1-0.2-0.1-0.2c-0.7-0.1-1.4,0.1-2.1,0.3c-0.5,0.2-1,0.3-1.5,0.3c-0.1,0-0.2,0.1-0.1,0.2
				C186.8,390.2,186.8,390.2,186.9,390.2z"/>
		</g>
		<g>
			<path class="st0" d="M195.2,391.3C195.2,391.3,195.3,391.3,195.2,391.3c0.1,0,0.2-0.1,0.1-0.2c-0.4-1.4-1.2-2.4-2.4-3.2
				c-0.1,0-0.2,0-0.2,0.1s0,0.2,0.1,0.2c1.2,0.7,1.9,1.6,2.3,3C195.1,391.3,195.2,391.3,195.2,391.3z"/>
		</g>
		<g>
			<path class="st0" d="M194.8,386.8C194.9,386.8,194.9,386.8,194.8,386.8c0.1-0.1,0.1-0.2,0.1-0.3c-0.1-0.2-0.3-0.4-0.4-0.6
				c-0.2-0.3-0.3-0.6-0.5-0.8c-0.2-0.3-0.6-0.6-0.9-0.8c-0.3-0.2-0.5-0.4-0.7-0.6c-0.1-0.1-0.1-0.1-0.2,0c-0.1,0.1-0.1,0.2,0,0.2
				c0.2,0.3,0.5,0.5,0.7,0.7c0.3,0.2,0.6,0.4,0.8,0.7c0.2,0.2,0.3,0.5,0.5,0.8c0.1,0.2,0.3,0.5,0.4,0.7
				C194.8,386.7,194.8,386.8,194.8,386.8z"/>
		</g>
		<g>
			<path class="st0" d="M201.2,408.5C201.2,408.5,201.3,408.5,201.2,408.5c0.1,0,0.2-0.1,0.1-0.2c-0.7-2.6-1.5-5.6,0.2-8
				c0.4-0.5,0.8-1,1.2-1.4c0.5-0.5,1-1.1,1.4-1.8c1-1.6,0.1-3.4-0.6-4.3c-0.3-0.5-0.7-0.9-1-1.3c-0.7-0.8-1.3-1.6-1.8-2.6
				c-0.5-0.9-0.7-2.9-0.3-4.1c0.2-0.5,0.5-0.9,0.9-1.1c0.1,0,0.1-0.1,0.1-0.2s-0.1-0.1-0.2-0.1c-0.5,0.2-0.8,0.6-1,1.3
				c-0.5,1.3-0.2,3.4,0.3,4.4s1.2,1.8,1.8,2.6c0.3,0.4,0.7,0.9,1,1.3c0.6,0.9,1.5,2.5,0.6,3.9c-0.4,0.6-0.9,1.2-1.4,1.7
				c-0.4,0.5-0.9,0.9-1.2,1.5c-1.8,2.6-1,5.6-0.3,8.3C201.1,408.5,201.2,408.5,201.2,408.5z"/>
		</g>
		<g>
			<path class="st0" d="M204.5,395.4C204.5,395.4,204.6,395.4,204.5,395.4c2.4-1.1,2.8-4.5,2.4-7.4c-0.3-1.8-0.7-3.2-1.4-4.3
				c-0.1-0.1-0.1-0.2-0.2-0.3c-0.3-0.5-0.6-0.9-1-1.3c-0.2-0.2-0.4-0.3-0.6-0.5c-0.3-0.2-0.5-0.4-0.7-0.6c-0.1-0.1-0.1-0.1-0.2,0
				s-0.1,0.2,0,0.2c0.2,0.3,0.5,0.5,0.8,0.7c0.2,0.1,0.4,0.3,0.6,0.5c0.4,0.4,0.6,0.8,0.9,1.3c0.1,0.1,0.1,0.2,0.2,0.3
				c0.7,1.1,1.1,2.4,1.4,4.1c0.4,2.7,0.1,5.8-1.9,6.9c0,0,0-0.1-0.1-0.1s-0.2,0-0.2,0.1l0,0c0,0-0.1,0.1-0.1,0.2
				C204.4,395.3,204.4,395.3,204.5,395.4L204.5,395.4z"/>
		</g>
		<g>
			<path class="st0" d="M205.7,384.9L205.7,384.9c0.1,0,0.2-0.1,0.1-0.2c0-0.1,0-0.3,0-0.4l0,0c1.2-0.5,2-1.8,2-3.2
				c0-0.1-0.1-0.2-0.2-0.2s-0.2,0.1-0.1,0.2c0,1.3-0.8,2.5-1.9,2.9c-0.1,0-0.1,0.1-0.1,0.1v0.1c0,0.2,0,0.3,0,0.5
				C205.6,384.9,205.6,384.9,205.7,384.9z"/>
		</g>
		<g>
			<path class="st0" d="M203.1,392.4h0.1c0.1-0.1,0.1-0.2,0-0.2c-0.3-0.2-0.9-0.4-1.7-0.6c-0.6-0.1-1.7-0.4-1.7-0.6
				c0-0.1-0.1-0.2-0.2-0.2l0,0c-0.1,0-0.2,0.1-0.1,0.2c0,0.4,0.8,0.6,2,0.9C202.2,392.1,202.9,392.2,203.1,392.4
				C203,392.4,203.1,392.4,203.1,392.4z"/>
		</g>
		<g>
			<path class="st0" d="M202.1,399.6L202.1,399.6c0.1,0,0.2-0.1,0.2-0.2c0-0.3,0-0.6,0-0.9c0-0.6,0-1.2-0.3-1.8
				c-0.5-1-1.7-2.4-3.1-2.5c-0.1,0-0.2,0.1-0.2,0.1c0,0.1,0.1,0.2,0.1,0.2c1.1,0.1,2.3,1.2,2.8,2.3c0.3,0.5,0.2,1.1,0.2,1.6
				c0,0.3,0,0.6,0,0.9C202,399.5,202,399.6,202.1,399.6z"/>
		</g>
		<g>
			<path class="st0" d="M206.8,388.9c0,0,0.1,0,0.1-0.1l0,0c0.1,0,0.1-0.1,0.1-0.1c0.1-1,1-2,1.8-2.6c0.3-0.2,0.5-0.4,0.8-0.6
				c0.6-0.4,1.2-0.9,1.7-1.4c0.2-0.2,1.5-1.9,1-3c0-0.1-0.1-0.1-0.2-0.1s-0.1,0.1-0.1,0.2c0.4,0.8-0.5,2.1-0.9,2.7
				c-0.5,0.6-1.1,1-1.6,1.4c-0.3,0.2-0.5,0.4-0.8,0.6c-0.8,0.5-1.7,1.6-1.9,2.6c-0.1,0-0.1,0.1-0.1,0.1l0,0
				C206.7,388.7,206.7,388.8,206.8,388.9C206.8,388.8,206.8,388.9,206.8,388.9z"/>
		</g>
		<g>
			<path class="st0" d="M211.7,383.4L211.7,383.4c0.6-0.2,1.2-0.4,1.8-0.6c0.3-0.1,0.6-0.2,0.9-0.3c0.6-0.2,1.2-0.4,1.8-0.4
				c0.2,0,0.5,0,0.7,0c0.6,0,1.2,0,1.7-0.2c0.1,0,0.1-0.1,0.1-0.2c0-0.1-0.1-0.1-0.2-0.1c-0.4,0.2-1,0.2-1.6,0.2c-0.3,0-0.5,0-0.7,0
				c-0.7,0-1.3,0.2-1.9,0.4c-0.3,0.1-0.6,0.2-0.9,0.3c-0.6,0.2-1.2,0.4-1.8,0.6c-0.1,0-0.1,0.1-0.1,0.2
				C211.6,383.4,211.6,383.4,211.7,383.4z"/>
		</g>
		<g>
			<path class="st0" d="M206.9,389.8h0.1c0.4-0.5,0.8-0.7,1.4-1c0.1,0,0.2-0.1,0.3-0.2c0.1-0.1,0.3-0.2,0.4-0.2
				c0.2-0.2,0.4-0.3,0.7-0.4c0.4-0.2,0.9-0.2,1.4-0.3c0.3-0.1,0.7-0.1,1.1-0.2c0.1,0,0.1-0.1,0.1-0.2c0-0.1-0.1-0.1-0.2-0.1
				c-0.4,0.1-0.7,0.2-1,0.2c-0.5,0.1-1,0.2-1.4,0.3c-0.4,0.1-0.6,0.3-0.8,0.4c-0.1,0.1-0.2,0.2-0.3,0.2c-0.1,0.1-0.2,0.1-0.3,0.2
				c-0.6,0.3-1,0.6-1.4,1.1c-0.1,0.1-0.1,0.2,0,0.2C206.8,389.8,206.9,389.8,206.9,389.8z"/>
		</g>
		<g>
			<path class="st0" d="M216.5,395.9c0.1,0,0.2-0.1,0.2-0.2c0-0.1-0.1-0.2-0.2-0.2c-0.9,0-1.6-1-1.9-1.9c0-0.1-0.1-0.1-0.2-0.1
				s-0.1,0.1-0.1,0.2C214.7,394.7,215.4,395.9,216.5,395.9L216.5,395.9z"/>
		</g>
		<g>
			<path class="st0" d="M200.6,389.1c0,0,0.1,0,0.1-0.1c0.1-0.1,0-0.2,0-0.2l0,0c-0.5-0.4-2.2-1.8-1.8-2.5c0-0.1,0-0.2-0.1-0.2
				s-0.2,0-0.2,0.1c-0.5,1,1.2,2.3,1.9,2.9H200.6L200.6,389.1z"/>
		</g>
		<g>
			<path class="st0" d="M193.1,413.2c0.1,0,0.1,0,0.1-0.1c0.6-1,2.6-1.1,3.5-1.1s2.2-0.1,3,0.4c0.1,0,0.2,0,0.2,0c0-0.1,0-0.2,0-0.2
				c-0.9-0.6-2.3-0.5-3.2-0.4c-0.9,0-3.1,0.2-3.7,1.3C192.9,413.1,193,413.2,193.1,413.2L193.1,413.2z"/>
		</g>
		<g>
			<path class="st0" d="M216.9,393c0,0-1.5-0.9-1.5-2.2c0,0,0.2-0.1,0.7,0.2c0,0-0.2-0.3-0.1-0.8c0,0,0.3-0.1,0.6,0.3
				c0,0,0.3-0.7,0.5-0.8c0,0,0.5,0.4,0.5,0.8c0,0,0.4-0.1,0.9-0.2c0,0,0.3,0.4,0.2,1c0,0,0.5-0.4,0.8-0.5c0,0,0.2,0.8,0,1.1
				c0,0,0.3,0,0.5,0c0,0-0.3,0.7-0.6,0.8c0,0,0.4,0.2,0.5,0.3C219.8,393,218.6,393.5,216.9,393z"/>
			<path class="st0" d="M218.4,390.4c0,0-0.1,1.3-0.7,1.6l0.9-0.7C218.6,391.3,218.8,391,218.4,390.4z"/>
			<path class="st0" d="M219.5,391.4c0,0-0.5,0.8-1,1.1s0.8,0.2,0.8,0.2l0.6-0.8h-0.5L219.5,391.4z"/>
		</g>
		<g>
			<path class="st0" d="M201,383.7c0,0-0.8-0.5-0.8-1.2c0,0,0.1-0.1,0.4,0.1c0,0-0.1-0.2-0.1-0.4c0,0,0.2,0,0.3,0.2
				c0,0,0.1-0.4,0.3-0.5c0,0,0.3,0.2,0.3,0.5c0,0,0.2-0.1,0.5-0.1c0,0,0.2,0.2,0.1,0.5c0,0,0.3-0.2,0.5-0.3c0,0,0.1,0.5,0,0.6
				c0,0,0.2,0,0.3,0c0,0-0.1,0.4-0.3,0.5c0,0,0.2,0.1,0.3,0.2C202.6,383.8,202,384,201,383.7z"/>
			<path class="st0" d="M201.9,382.3c0,0,0,0.7-0.4,0.9l0.5-0.4C202,382.8,202.1,382.7,201.9,382.3z"/>
			<path class="st0" d="M202.5,382.9c0,0-0.3,0.5-0.5,0.6c-0.3,0.2,0.4,0.1,0.4,0.1l0.3-0.5h-0.3L202.5,382.9z"/>
		</g>
		<g>
			<path class="st0" d="M214.4,394.3c0,0-1.1,0.7-1.9,0.2c0,0,0-0.2,0.4-0.4c0,0-0.3,0.1-0.5-0.2c0,0,0.1-0.3,0.4-0.3
				c0,0-0.3-0.4-0.4-0.6c0,0,0.4-0.2,0.7,0c0,0,0.1-0.3,0.2-0.7c0,0,0.4-0.1,0.7,0.2c0,0-0.1-0.5,0-0.7c0,0,0.6,0.2,0.7,0.4
				c0,0,0.1-0.2,0.2-0.3c0,0,0.4,0.4,0.3,0.7c0,0,0.2-0.2,0.3-0.2C215.4,392.4,215.3,393.4,214.4,394.3z"/>
			<path class="st0" d="M213.2,392.4c0,0,0.8,0.5,0.8,1.1l-0.1-0.8C213.9,392.6,213.8,392.3,213.2,392.4z"/>
			<path class="st0" d="M214.3,392c0,0,0.4,0.6,0.4,1s0.4-0.4,0.4-0.4l-0.3-0.7l-0.2,0.3L214.3,392z"/>
		</g>
		<g>
			<path class="st0" d="M201.9,406.8c0,0-0.6-0.8-0.3-1.5c0,0,0.1,0,0.3,0.3c0,0-0.1-0.2,0.1-0.4c0,0,0.2,0,0.2,0.3
				c0,0,0.3-0.3,0.4-0.3c0,0,0.2,0.3,0.1,0.5c0,0,0.2,0,0.5,0.1c0,0,0.1,0.3-0.1,0.5c0,0,0.4-0.1,0.5-0.1c0,0-0.1,0.5-0.2,0.6
				c0,0,0.2,0.1,0.3,0.1c0,0-0.3,0.3-0.5,0.3l0.2,0.2C203.4,407.4,202.6,407.4,201.9,406.8z"/>
			<path class="st0" d="M203.2,405.7c0,0-0.3,0.6-0.7,0.7l0.6-0.2C203.1,406.3,203.3,406.2,203.2,405.7z"/>
			<path class="st0" d="M203.5,406.5c0,0-0.4,0.3-0.7,0.4c-0.3,0,0.3,0.3,0.3,0.3l0.5-0.3l-0.3-0.1L203.5,406.5z"/>
		</g>
		<g>
			<path class="st0" d="M214.2,401.9c0,0-0.6-0.8-0.3-1.5c0,0,0.1,0,0.3,0.3c0,0-0.1-0.2,0.1-0.4c0,0,0.2,0,0.2,0.3
				c0,0,0.3-0.3,0.4-0.3c0,0,0.2,0.3,0.1,0.5c0,0,0.2,0,0.5,0.1c0,0,0.1,0.3-0.1,0.5c0,0,0.4-0.1,0.5-0.1c0,0-0.1,0.5-0.2,0.6
				c0,0,0.2,0.1,0.3,0.1c0,0-0.3,0.3-0.5,0.3l0.2,0.2C215.7,402.6,215,402.6,214.2,401.9z"/>
			<path class="st0" d="M215.6,400.9c0,0-0.3,0.6-0.7,0.7l0.6-0.2C215.5,401.5,215.6,401.3,215.6,400.9z"/>
			<path class="st0" d="M215.9,401.7c0,0-0.4,0.3-0.7,0.4c-0.3,0,0.3,0.3,0.3,0.3l0.5-0.3l-0.3-0.1L215.9,401.7z"/>
		</g>
		<g>
			<path class="st0" d="M193.1,388.6c0,0-0.8,0.5-1.4,0.2c0,0,0-0.1,0.3-0.3c0,0-0.2,0-0.4-0.1c0,0,0.1-0.2,0.3-0.2
				c0,0-0.2-0.3-0.3-0.4c0,0,0.3-0.2,0.5,0c0,0,0-0.2,0.1-0.5c0,0,0.3-0.1,0.5,0.2c0,0-0.1-0.4,0-0.5c0,0,0.4,0.1,0.5,0.3l0.1-0.2
				c0,0,0.3,0.3,0.2,0.5c0,0,0.2-0.1,0.2-0.2C193.8,387.2,193.8,387.9,193.1,388.6z"/>
			<path class="st0" d="M192.3,387.1c0,0,0.6,0.3,0.6,0.8l-0.1-0.6C192.8,387.3,192.7,387.1,192.3,387.1z"/>
			<path class="st0" d="M193,386.9c0,0,0.3,0.4,0.3,0.7c0,0.3,0.3-0.3,0.3-0.3l-0.2-0.5l-0.1,0.2L193,386.9z"/>
		</g>
		<g>
			<path class="st0" d="M196.4,399.2c0,0,0.4-1.7,1.5-2c0,0,0.2,0.2,0,0.7c0,0,0.2-0.3,0.7-0.3c0,0,0.2,0.3-0.1,0.7
				c0,0,0.7,0.1,0.9,0.2c0,0-0.2,0.6-0.6,0.7c0,0,0.2,0.3,0.5,0.8c0,0-0.3,0.4-0.8,0.4c0,0,0.5,0.4,0.7,0.6c0,0-0.7,0.4-1,0.3
				c0,0,0.1,0.3,0.1,0.5c0,0-0.7-0.1-0.9-0.3c0,0,0,0.4-0.1,0.5C197.2,401.9,196.4,400.9,196.4,399.2z"/>
			<path class="st0" d="M199.2,399.9c0,0-1.1,0.3-1.7-0.2l0.8,0.6C198.4,400.3,198.7,400.4,199.2,399.9z"/>
			<path class="st0" d="M198.5,401.2c0,0-0.9-0.2-1.2-0.6c-0.4-0.4,0,0.8,0,0.8l0.9,0.3l-0.1-0.5H198.5z"/>
		</g>
		<g>
			<path class="st0" d="M211.7,387.2c0,0-0.7-0.9-0.4-1.7c0,0,0.2,0,0.4,0.3c0,0-0.1-0.2,0.1-0.5c0,0,0.2,0,0.3,0.4
				c0,0,0.3-0.3,0.5-0.4c0,0,0.2,0.4,0.1,0.6c0,0,0.3,0,0.6,0.1c0,0,0.1,0.4-0.1,0.6c0,0,0.4-0.1,0.6-0.1c0,0-0.1,0.6-0.3,0.7
				c0,0,0.2,0.1,0.3,0.1c0,0-0.3,0.4-0.6,0.4c0,0,0.2,0.2,0.2,0.3C213.5,387.9,212.6,387.9,211.7,387.2z"/>
			<path class="st0" d="M213.3,385.9c0,0-0.3,0.8-0.8,0.8l0.7-0.2C213.2,386.6,213.4,386.4,213.3,385.9z"/>
			<path class="st0" d="M213.7,386.8c0,0-0.5,0.4-0.8,0.5c-0.3,0.1,0.4,0.3,0.4,0.3l0.6-0.4l-0.3-0.1L213.7,386.8z"/>
		</g>
		<g>
			<path class="st0" d="M218.5,381.6c0,0,1.2-0.5,1.9,0.1c0,0,0,0.2-0.5,0.3c0,0,0.3,0,0.5,0.3c0,0-0.1,0.2-0.5,0.2
				c0,0,0.3,0.5,0.3,0.6c0,0-0.5,0.1-0.7-0.1c0,0-0.1,0.3-0.3,0.7c0,0-0.4,0-0.6-0.3c0,0,0,0.5-0.1,0.7c0,0-0.6-0.3-0.6-0.5
				c0,0-0.2,0.2-0.2,0.3c0,0-0.3-0.5-0.2-0.7c0,0-0.3,0.2-0.4,0.1C217.2,383.3,217.4,382.4,218.5,381.6z"/>
			<path class="st0" d="M219.3,383.7c0,0-0.7-0.6-0.6-1.2v0.8C218.7,383.4,218.7,383.6,219.3,383.7z"/>
			<path class="st0" d="M218.2,383.9c0,0-0.2-0.7-0.2-1.1c0.1-0.4-0.5,0.3-0.5,0.3l0.2,0.7l0.2-0.3L218.2,383.9z"/>
		</g>
		<g>
			<path class="st0" d="M200.1,411.4c0,0,0.7-0.9,1.5-0.8c0,0,0.1,0.2-0.2,0.5c0,0,0.2-0.1,0.5,0c0,0,0,0.2-0.3,0.4
				c0,0,0.4,0.2,0.5,0.4c0,0-0.3,0.3-0.6,0.2c0,0,0,0.3,0.1,0.6c0,0-0.3,0.2-0.6,0c0,0,0.2,0.4,0.3,0.6c0,0-0.5,0.1-0.7-0.1
				c0,0,0,0.2,0,0.3c0,0-0.4-0.2-0.5-0.5c0,0-0.1,0.2-0.2,0.3C199.8,413.3,199.6,412.5,200.1,411.4z"/>
			<path class="st0" d="M201.6,412.7c0,0-0.8-0.2-1-0.6l0.4,0.6C201,412.7,201.2,412.9,201.6,412.7z"/>
			<path class="st0" d="M200.9,413.3c0,0-0.5-0.4-0.6-0.7c-0.1-0.3-0.2,0.5-0.2,0.5l0.5,0.5v-0.3H200.9z"/>
		</g>
		<g>
			<path class="st0" d="M207.7,403.9c0,0-0.5-0.7-0.3-1.3c0,0,0.1,0,0.3,0.2c0,0-0.1-0.2,0.1-0.4c0,0,0.2,0,0.2,0.3
				c0,0,0.2-0.3,0.3-0.3c0,0,0.2,0.3,0.1,0.5c0,0,0.2,0,0.5,0.1c0,0,0.1,0.3-0.1,0.5c0,0,0.3-0.1,0.5-0.1c0,0,0,0.4-0.2,0.5l0.2,0.1
				c0,0-0.2,0.3-0.4,0.3c0,0,0.1,0.1,0.2,0.2C209,404.4,208.3,404.4,207.7,403.9z"/>
			<path class="st0" d="M208.8,403c0,0-0.2,0.6-0.6,0.6l0.5-0.2C208.7,403.4,208.9,403.3,208.8,403z"/>
			<path class="st0" d="M209.1,403.6c0,0-0.4,0.3-0.6,0.3c-0.3,0,0.3,0.2,0.3,0.2l0.4-0.3l-0.2-0.1L209.1,403.6z"/>
		</g>
		<g>
			<path class="st0" d="M198.7,394.6c0,0-1.4,0.4-2.1-0.3c0,0,0.1-0.2,0.5-0.3c0,0-0.3,0-0.5-0.4c0,0,0.1-0.3,0.5-0.2
				c0,0-0.2-0.5-0.2-0.7c0,0,0.5-0.1,0.7,0.2c0,0,0.1-0.3,0.4-0.7c0,0,0.4,0,0.7,0.4c0,0,0-0.6,0.2-0.8c0,0,0.6,0.3,0.6,0.6
				c0,0,0.2-0.2,0.3-0.3c0,0,0.3,0.5,0.1,0.8c0,0,0.3-0.2,0.4-0.1C200.4,392.8,200,393.8,198.7,394.6z"/>
			<path class="st0" d="M198,392.2c0,0,0.7,0.7,0.6,1.3l0.1-0.9C198.7,392.6,198.7,392.3,198,392.2z"/>
			<path class="st0" d="M199.3,392.1c0,0,0.2,0.8,0.1,1.2c-0.1,0.4,0.6-0.3,0.6-0.3l-0.1-0.8l-0.3,0.3L199.3,392.1z"/>
		</g>
		<g>
			<path class="st0" d="M189.5,383.6c0,0-0.7,0.2-1-0.1c0,0,0-0.1,0.3-0.2c0,0-0.1,0-0.3-0.2c0,0,0.1-0.1,0.3-0.1
				c0,0-0.1-0.3-0.1-0.4c0,0,0.3-0.1,0.4,0.1c0,0,0.1-0.1,0.2-0.3c0,0,0.2,0,0.3,0.2c0,0,0-0.3,0.1-0.4c0,0,0.3,0.2,0.3,0.3l0.1-0.1
				c0,0,0.1,0.3,0.1,0.4c0,0,0.1-0.1,0.2-0.1C190.3,382.7,190.1,383.2,189.5,383.6z"/>
			<path class="st0" d="M189.2,382.4c0,0,0.3,0.4,0.3,0.7v-0.4C189.5,382.6,189.5,382.5,189.2,382.4z"/>
			<path class="st0" d="M189.8,382.4c0,0,0.1,0.4,0.1,0.6s0.3-0.2,0.3-0.2l-0.1-0.4l-0.2,0.1L189.8,382.4z"/>
		</g>
		<g>
			<path class="st0" d="M211.3,391.9c0,0-1.1-0.7-1.1-1.6c0,0,0.2-0.1,0.5,0.2c0,0-0.2-0.2-0.1-0.6c0,0,0.3-0.1,0.5,0.3
				c0,0,0.2-0.5,0.3-0.6c0,0,0.4,0.3,0.3,0.6c0,0,0.3-0.1,0.7-0.2c0,0,0.3,0.3,0.1,0.7c0,0,0.4-0.3,0.6-0.4c0,0,0.1,0.6,0,0.8
				c0,0,0.3,0,0.4,0c0,0-0.2,0.5-0.5,0.6c0,0,0.3,0.1,0.3,0.2C213.5,391.9,212.6,392.3,211.3,391.9z"/>
			<path class="st0" d="M212.5,390c0,0-0.1,0.9-0.5,1.2l0.6-0.5C212.6,390.7,212.8,390.5,212.5,390z"/>
			<path class="st0" d="M213.3,390.7c0,0-0.4,0.6-0.7,0.8c-0.3,0.2,0.6,0.2,0.6,0.2l0.5-0.6h-0.4V390.7z"/>
		</g>
		<g>
			<path class="st0" d="M212.3,409.8c0,0,0.2-1.1,0.9-1.3c0,0,0.1,0.1,0,0.5c0,0,0.1-0.2,0.4-0.2c0,0,0.1,0.2-0.1,0.4
				c0,0,0.4,0,0.6,0.1c0,0-0.1,0.4-0.4,0.4c0,0,0.1,0.2,0.3,0.5c0,0-0.2,0.3-0.5,0.3c0,0,0.4,0.2,0.5,0.4c0,0-0.4,0.3-0.6,0.2
				c0,0,0.1,0.2,0.1,0.3c0,0-0.5,0-0.6-0.2c0,0,0,0.3-0.1,0.3C212.9,411.5,212.4,410.9,212.3,409.8z"/>
			<path class="st0" d="M214.1,410.2c0,0-0.7,0.2-1.1-0.1l0.6,0.4C213.6,410.5,213.8,410.5,214.1,410.2z"/>
			<path class="st0" d="M213.8,411c0,0-0.6-0.1-0.8-0.3c-0.3-0.2,0,0.5,0,0.5l0.6,0.2l-0.1-0.3L213.8,411z"/>
		</g>
		<g>
			<path class="st0" d="M193.6,412.3c0,0,0.4,0.7,0.1,1.2c0,0-0.1,0-0.2-0.3c0,0,0,0.2-0.1,0.3c0,0-0.2-0.1-0.2-0.3
				c0,0-0.3,0.2-0.4,0.2c0,0-0.1-0.3,0-0.4c0,0-0.2,0-0.4-0.1c0,0,0-0.3,0.2-0.4c0,0-0.3,0-0.5,0c0,0,0.1-0.4,0.3-0.4
				c0,0-0.1-0.1-0.2-0.1c0,0,0.3-0.2,0.4-0.2l-0.1-0.2C192.5,411.5,193.1,411.6,193.6,412.3z"/>
			<path class="st0" d="M192.4,412.9c0,0,0.3-0.5,0.7-0.5h-0.5C192.6,412.5,192.4,412.5,192.4,412.9z"/>
			<path class="st0" d="M192.2,412.2c0,0,0.4-0.2,0.6-0.2s-0.2-0.3-0.2-0.3l-0.4,0.2l0.2,0.1L192.2,412.2z"/>
		</g>
		<g>
			<path class="st0" d="M192.4,383.3c0,0,0.4,0.7,0.1,1.2c0,0-0.1,0-0.2-0.3c0,0,0,0.2-0.1,0.3c0,0-0.2-0.1-0.2-0.3
				c0,0-0.3,0.2-0.4,0.2c0,0-0.1-0.3,0-0.4c0,0-0.2,0-0.4-0.1c0,0,0-0.3,0.2-0.4c0,0-0.3,0-0.5,0c0,0,0.1-0.4,0.3-0.4
				c0,0-0.1-0.1-0.2-0.1c0,0,0.3-0.2,0.4-0.2l-0.1-0.2C191.3,382.6,191.9,382.7,192.4,383.3z"/>
			<path class="st0" d="M191.2,384c0,0,0.3-0.5,0.7-0.5h-0.5C191.3,383.6,191.2,383.6,191.2,384z"/>
			<path class="st0" d="M191,383.3c0,0,0.4-0.2,0.6-0.2s-0.2-0.3-0.2-0.3L191,383l0.2,0.1L191,383.3z"/>
		</g>
		<g>
			<path class="st0" d="M202.5,386.9c0,0,0.2-0.5-0.1-0.6c0,0-0.3-0.2-0.6,0.3c0,0-0.2-0.3-0.6-0.1c0,0-0.5,0.3-0.1,0.8
				c0,0-0.5,0.1-0.2,0.6c0,0,0.2,0.3,0.5,0.1c0,0,0.2,0.5,0.6,0.4c0,0,0.5-0.2,0.4-0.7c0,0,0.3,0.2,0.5-0.3
				C202.9,387.4,203,386.9,202.5,386.9z"/>
			<ellipse class="st0" cx="201.8" cy="387.3" rx="0.4" ry="0.4"/>
		</g>
		<g>
			<path class="st0" d="M193.4,396.5c0,0,0.2-0.5-0.1-0.6c0,0-0.3-0.2-0.6,0.3c0,0-0.2-0.3-0.6-0.1c0,0-0.5,0.3-0.1,0.8
				c0,0-0.5,0.1-0.2,0.6c0,0,0.2,0.3,0.5,0.1c0,0,0.2,0.5,0.6,0.4c0,0,0.5-0.2,0.4-0.7c0,0,0.3,0.2,0.5-0.3
				C193.8,397.1,193.8,396.5,193.4,396.5z"/>
			<ellipse class="st0" cx="192.6" cy="396.9" rx="0.4" ry="0.4"/>
		</g>
		<g>
			<path class="st0" d="M191.2,393.7c0,0,0.3-0.6-0.2-0.8c0,0-0.4-0.3-0.7,0.3c0,0-0.2-0.3-0.7-0.1c0,0-0.6,0.4-0.1,1
				c0,0-0.6,0.1-0.3,0.7c0,0,0.2,0.3,0.7,0.1c0,0,0.3,0.6,0.7,0.5c0,0,0.7-0.2,0.4-0.8c0,0,0.4,0.2,0.6-0.3
				C191.7,394.3,191.8,393.6,191.2,393.7z"/>
			
				<ellipse transform="matrix(-3.915286e-02 0.9992 -0.9992 -3.915286e-02 591.7341 219.3825)" class="st0" cx="190.4" cy="394.2" rx="0.4" ry="0.5"/>
		</g>
		<path class="st0" d="M210.5,395.2c0,0-1.4-1.4-3,0.1C207.5,395.4,209,396.6,210.5,395.2z"/>
		<path class="st0" d="M195.3,391.1c0,0-1-1-2.1,0.1C193.2,391.2,194.3,392.1,195.3,391.1z"/>
		<path class="st0" d="M198.8,386.2c0,0-1-1-2.1,0.1C196.7,386.3,197.7,387.2,198.8,386.2z"/>
		<path class="st0" d="M198.8,386.2c0,0,0.9-1-0.2-2.1C198.7,384.1,197.9,385.2,198.8,386.2z"/>
		<path class="st0" d="M187.4,383.3c0,0,0.9-1-0.1-2.1C187.3,381.1,186.5,382.2,187.4,383.3z"/>
		<path class="st0" d="M209.7,393.1c0,0-1-1-2.1,0.1C207.6,393.2,208.6,394.1,209.7,393.1z"/>
		<path class="st0" d="M209.5,393.1c0,0,0.9-1-0.1-2.1C209.4,391,208.6,392.1,209.5,393.1z"/>
		<path class="st0" d="M199.6,391.1c0,0-1-1-2.1,0.1C197.5,391.2,198.6,392,199.6,391.1z"/>
		<path class="st0" d="M199.5,391c0,0,0.9-1-0.1-2.1C199.3,388.9,198.5,390,199.5,391z"/>
		<path class="st0" d="M196.7,398.9c0,0-1-1-2.1,0.1C194.5,399,195.6,399.8,196.7,398.9z"/>
		<path class="st0" d="M196.6,398.9c0,0,0.9-1-0.1-2.1C196.5,396.8,195.7,397.9,196.6,398.9z"/>
		<path class="st0" d="M205.2,400.7c0,0-1-1-2.1,0.1C203.1,400.8,204.2,401.7,205.2,400.7z"/>
		<path class="st0" d="M205,400.7c0,0,0.9-1-0.2-2.1C204.9,398.6,204.1,399.7,205,400.7z"/>
		<path class="st0" d="M194.3,408.5c0,0,0.5-1-0.6-1.6C193.7,406.9,193.3,407.9,194.3,408.5z"/>
		<path class="st0" d="M194.3,408.4c0,0,1,0.5,1.6-0.7C195.9,407.7,194.8,407.3,194.3,408.4z"/>
		<path class="st0" d="M209.7,406.5c0,0,0.7,0.4,1.2-0.3C210.9,406.2,210.2,405.8,209.7,406.5z"/>
		<path class="st0" d="M209.8,406.5c0,0-0.4,0.7,0.4,1.2C210.2,407.7,210.5,407,209.8,406.5z"/>
		<path class="st0" d="M205.9,384.9c0,0-1-1-2.1,0.1C203.8,385,204.8,385.8,205.9,384.9z"/>
	</g>
</g>
<rect x="-128.8" y="379.7" class="st1" width="352" height="35"/>
<text transform="matrix(1 0 0 1 -80.8644 403.9484)" class="st2 st3">The 25 Most Popular Cities to Visit in America</text>
</svg>
