<?xml version="1.0" encoding="utf-8"?>
<!-- Generator: Adobe Illustrator 19.1.0, SVG Export Plug-In . SVG Version: 6.00 Build 0)  -->
<svg version="1.1" id="图层_1" xmlns="http://www.w3.org/2000/svg" xmlns:xlink="http://www.w3.org/1999/xlink" x="0px" y="0px"
	 viewBox="2 367.9 615 59.1" style="enable-background:new 2 367.9 615 59.1;" xml:space="preserve">
<style type="text/css">
	.st0{fill:#CA7F84;}
	.st1{fill:#F8DBDA;}
	.st2{fill:#BEC895;}
	.st3{fill:#6E9E8E;}
	.st4{fill:#F5D9AA;}
	.st5{fill:#E1C48C;}
	.st6{fill:none;}
	.st7{fill:#040000;}
	.st8{font-family:'SavoyeLetPlain';}
	.st9{font-size:48px;}
</style>
<path class="st0" d="M457.7,398c0.2,5,9.1,9.1,12.2,7.4c4.2-2.4,1.3-6.8,1.3-7.3s2.9-4.9-1.3-7.3C466.8,389.1,457.8,393,457.7,398
	L457.7,398z"/>
<path class="st0" d="M456.3,396.4c4.8,1.4,11.5-5.9,10.8-9.4c-1-4.8-6-3.4-6.5-3.5c-0.5-0.2-3.8-4.3-7.3-1
	C450.7,385,451.7,394.7,456.3,396.4L456.3,396.4z"/>
<path class="st0" d="M454.4,397.1c2.8-4.1-2-12.7-5.6-13.2c-4.8-0.6-5.1,4.7-5.3,5.1c-0.3,0.4-5.2,2.3-3.2,6.7
	C441.8,399,451.4,401.1,454.4,397.1L454.4,397.1z"/>
<path class="st0" d="M454.6,399.2c-3.1-3.9-12.8-2-14.2,1.3c-2,4.4,2.9,6.3,3.2,6.7c0.3,0.4,0.5,5.7,5.4,5.1
	C452.4,411.8,457.4,403.3,454.6,399.2L454.6,399.2z"/>
<path class="st0" d="M456.5,399.7c-4.7,1.7-5.8,11.5-3.2,13.9c3.6,3.3,6.8-0.8,7.3-1c0.5-0.2,5.5,1.2,6.5-3.5
	C467.8,405.6,461.3,398.3,456.5,399.7L456.5,399.7z"/>
<path class="st1" d="M459.9,397.3c0.7-0.3,1.3-0.6,1.6-0.9c-0.5-0.1-1.3,0-2.2,0.2c2.1-1.3,4.5-3.1,5.1-4.6c-1.7,0.1-4.4,2-6.2,3.6
	c0.5-0.8,0.9-1.7,1-2.3c-0.6,0.3-1.1,0.4-1.7,1.3c0.7-2.1,1.4-5.1,1.2-6.9c-1.2,1.6-2,4.3-2.5,6.3c-0.1-0.5-0.2-1.6-0.4-1.9
	c-0.2,0.3-0.4,0.9-0.5,1.4c-0.6-2.2-1.4-4.5-2.5-5.5c-0.4,1.7,0.5,4.7,1.4,7.1c-0.6-0.8-1.3-1.4-1.8-1.7c0.1,0.6,0.5,1.5,1.1,2.3
	c-2-1.6-4.7-3.3-6.5-3.3c0.7,1.4,2.8,2.9,4.8,4c-0.6-0.1-1.1-0.1-1.5,0c0.3,0.3,0.8,0.6,1.4,0.9c-2.3-0.2-5-0.1-6.4,0.7
	c1.4,0.9,4.6,1,7,0.8c-0.9,0.3-1.7,0.7-2,1.2c0.6,0.1,1.4,0,2.3-0.3c-2.1,1.4-4.4,3.3-5,4.9c1.5-0.2,3.7-1.7,5.4-3.2
	c-0.3,0.5-0.5,1.1-0.6,1.5c0.4-0.2,0.8-0.5,1.2-0.9c-0.9,2.1-1.7,4.6-1.4,6.1c1.3-1.1,2.5-4.1,3.1-6.5c0,1,0.1,1.9,0.5,2.4
	c0.3-0.6,0.5-1.5,0.5-2.6c0.7,2.4,1.9,5.5,3.2,6.6c0.3-1.6-0.6-4.4-1.7-6.6c0.6,0.6,1.1,1.1,1.6,1.3c-0.1-0.4-0.3-1-0.7-1.5
	c1.8,1.5,4.1,2.9,5.7,2.9c-0.6-1.5-2.9-3.2-5-4.4c0.7,0.2,1.4,0.3,1.9,0.1c-0.3-0.4-0.9-0.7-1.5-0.9c2.4,0.2,5.2,0,6.5-0.8
	C465.1,397.3,462.3,397.1,459.9,397.3L459.9,397.3z"/>
<path class="st2" d="M459,398.1c0-2.4-2.8-4.2-5.4-2.3c-1.9,2.6-0.2,5.4,2.3,5.4C457.6,401.2,459,399.8,459,398.1L459,398.1z"/>
<path class="st3" d="M501.8,395.5c-1.4-1.6-0.9-14.3,3.7-17.7C508.4,382.8,503.7,394.6,501.8,395.5L501.8,395.5z M502.9,399
	c2.1-0.4,12.9,6.4,13.5,12C510.7,411.1,502.8,401.1,502.9,399L502.9,399z M502,399.6c2,0.7,8,11.9,5.6,17.2
	C502.7,414,500.8,401.3,502,399.6L502,399.6z M500.9,399.7c1.4,1.6,0.9,14.3-3.7,17.7C494.3,412.4,499,400.6,500.9,399.7
	L500.9,399.7z M500,399.2c0.4,2.1-6.4,12.9-12,13.5C487.9,406.9,497.8,399,500,399.2L500,399.2z M499.4,398.3
	c-0.7,2-11.9,8-17.2,5.6C485,398.9,497.6,397,499.4,398.3L499.4,398.3z M499.3,397.2c-1.6,1.4-14.3,0.9-17.7-3.7
	C486.5,390.6,498.4,395.2,499.3,397.2L499.3,397.2z M499.8,396.2c-2.1,0.4-12.9-6.4-13.5-12C492.1,384.1,500,394.1,499.8,396.2
	L499.8,396.2z M500.7,395.6c-2-0.7-8-11.9-5.6-17.2C500.1,381.2,501.9,393.9,500.7,395.6L500.7,395.6z M502.8,396
	c-0.4-2.1,6.4-12.9,12-13.5C514.9,388.3,504.9,396.2,502.8,396L502.8,396z M503.4,396.9c0.7-2,11.9-8,17.2-5.6
	C517.7,396.3,505.1,398.2,503.4,396.9L503.4,396.9z M503.4,398c1.6-1.4,14.3-0.9,17.7,3.7C516.2,404.6,504.3,400,503.4,398
	L503.4,398z"/>
<path class="st2" d="M502.3,395.7c-1-1.9,2.4-14.2,7.7-16.3C511.6,384.8,504.3,395.3,502.3,395.7L502.3,395.7z M502.6,399.3
	c2.1,0.1,11.1,9.2,10.3,14.8C507.3,412.9,501.9,401.3,502.6,399.3L502.6,399.3z M501.5,399.7c1.8,1.1,5,13.5,1.5,18
	C498.9,413.8,500,401.1,501.5,399.7L501.5,399.7z M500.5,399.5c1,1.9-2.4,14.2-7.7,16.3C491.1,410.4,498.4,399.9,500.5,399.5
	L500.5,399.5z M499.6,398.8c-0.1,2.1-9.2,11.1-14.8,10.3C486.1,403.6,497.6,398.1,499.6,398.8L499.6,398.8z M499.3,397.8
	c-1.1,1.8-13.5,5-18,1.5C485.1,395.1,497.9,396.2,499.3,397.8L499.3,397.8z M499.5,396.7c-1.9,1-14.2-2.4-16.3-7.7
	C488.6,387.3,499,394.6,499.5,396.7L499.5,396.7z M500.2,395.9c-2.1-0.1-11.1-9.2-10.3-14.8C495.4,382.3,500.8,393.9,500.2,395.9
	L500.2,395.9z M501.2,395.5c-1.8-1.1-5-13.5-1.5-18C503.9,381.4,502.8,394.1,501.2,395.5L501.2,395.5z M503.1,396.4
	c0.1-2.1,9.2-11.1,14.8-10.3C516.7,391.6,505.1,397.1,503.1,396.4L503.1,396.4z M503.5,397.4c1.1-1.8,13.5-5,18-1.5
	C517.6,400.1,504.9,399,503.5,397.4L503.5,397.4z M503.3,398.5c1.9-1,14.2,2.4,16.3,7.7C514.2,407.9,503.7,400.6,503.3,398.5
	L503.3,398.5z"/>
<path class="st3" d="M501.8,396.7c-0.5-0.9,1.1-6.7,3.6-7.8C506.2,391.5,502.8,396.5,501.8,396.7L501.8,396.7z M501.9,398.4
	c1,0,5.3,4.3,4.9,7C504.2,404.9,501.6,399.4,501.9,398.4L501.9,398.4z M501.5,398.6c0.9,0.5,2.4,6.4,0.7,8.5
	C500.2,405.3,500.7,399.3,501.5,398.6L501.5,398.6z M500.9,398.5c0.5,0.9-1.1,6.7-3.6,7.8C496.5,403.7,500,398.7,500.9,398.5
	L500.9,398.5z M500.5,398.2c0,1-4.3,5.3-7,4.9C494.1,400.4,499.6,397.9,500.5,398.2L500.5,398.2z M500.4,397.7
	c-0.5,0.9-6.4,2.4-8.5,0.7C493.7,396.4,499.7,396.9,500.4,397.7L500.4,397.7z M500.5,397.2c-0.9,0.5-6.7-1.1-7.8-3.6
	C495.3,392.7,500.3,396.2,500.5,397.2L500.5,397.2z M500.8,396.8c-1,0-5.3-4.3-4.9-7C498.5,390.3,501.1,395.8,500.8,396.8
	L500.8,396.8z M501.3,396.6c-0.9-0.5-2.4-6.4-0.7-8.5C502.6,389.9,502,395.9,501.3,396.6L501.3,396.6z M502.2,397c0-1,4.3-5.3,7-4.9
	C508.6,394.8,503.1,397.3,502.2,397L502.2,397z M502.4,397.5c0.5-0.9,6.4-2.4,8.5-0.7C509.1,398.8,503,398.3,502.4,397.5
	L502.4,397.5z M502.3,398c0.9-0.5,6.7,1.1,7.8,3.6C507.5,402.5,502.5,399,502.3,398L502.3,398z"/>
<path class="st4" d="M504.9,398.3c0.6-2.8-2.2-5.5-5.6-3.9c-2.9,2.5-1.5,6.1,1.3,6.7C502.6,401.6,504.5,400.3,504.9,398.3
	L504.9,398.3z"/>
<path class="st0" d="M288.7,398.1c-1.4-1.2-2.6-11.9,0.9-15.3C292.7,386.6,290.2,397.2,288.7,398.1L288.7,398.1z M290.1,400.9
	c1.7-0.6,11.6,3.8,12.8,8.5C298.1,410.2,290.2,402.7,290.1,400.9L290.1,400.9z M289.4,401.5c1.8,0.3,8.2,9.1,6.8,13.7
	C291.7,413.5,288.6,403.2,289.4,401.5L289.4,401.5z M288.5,401.7c1.4,1.2,2.6,11.9-0.9,15.3C284.5,413.3,287,402.7,288.5,401.7
	L288.5,401.7z M287.6,401.4c0.6,1.7-3.8,11.6-8.5,12.8C278.4,409.4,285.8,401.5,287.6,401.4L287.6,401.4z M287,400.7
	c-0.3,1.8-9.1,8.2-13.7,6.8C275,403.1,285.4,399.9,287,400.7L287,400.7z M286.8,399.8c-1.2,1.4-11.9,2.6-15.3-0.9
	C275.3,395.8,285.8,398.3,286.8,399.8L286.8,399.8z M287.1,398.9c-1.7,0.6-11.6-3.8-12.8-8.5C279.1,389.7,287,397.1,287.1,398.9
	L287.1,398.9z M287.8,398.3c-1.8-0.3-8.2-9.1-6.8-13.7C285.5,386.3,288.6,396.7,287.8,398.3L287.8,398.3z M289.6,398.4
	c-0.6-1.7,3.8-11.6,8.5-12.8C298.8,390.4,291.4,398.3,289.6,398.4L289.6,398.4z M290.2,399.1c0.3-1.8,9.1-8.2,13.7-6.8
	C302.2,396.8,291.8,399.9,290.2,399.1L290.2,399.1z M290.4,400c1.2-1.4,11.9-2.6,15.3,0.9C301.9,404,291.4,401.6,290.4,400
	L290.4,400z"/>
<path class="st1" d="M289.1,398.2c-1.1-1.4,0.3-12.2,4.4-14.7C295.7,387.9,290.8,397.6,289.1,398.2L289.1,398.2z M289.8,401.3
	c1.8-0.2,10.4,6.3,10.5,11.2C295.5,412.1,289.5,403,289.8,401.3L289.8,401.3z M289,401.7c1.7,0.7,5.9,10.7,3.5,14.9
	C288.5,413.9,287.8,403.1,289,401.7L289,401.7z M288.1,401.7c1.1,1.4-0.3,12.2-4.4,14.7C281.5,412,286.4,402.3,288.1,401.7
	L288.1,401.7z M287.3,401.2c0.2,1.8-6.3,10.4-11.2,10.5C276.5,406.8,285.5,400.9,287.3,401.2L287.3,401.2z M286.8,400.3
	c-0.7,1.7-10.7,5.9-14.9,3.5C274.7,399.8,285.5,399.2,286.8,400.3L286.8,400.3z M286.9,399.4c-1.4,1.1-12.2-0.3-14.7-4.4
	C276.6,392.9,286.3,397.7,286.9,399.4L286.9,399.4z M287.4,398.6c-1.8,0.2-10.4-6.3-10.5-11.2C281.7,387.8,287.7,396.9,287.4,398.6
	L287.4,398.6z M288.2,398.2c-1.7-0.7-5.9-10.7-3.5-14.9C288.7,386,289.3,396.8,288.2,398.2L288.2,398.2z M289.9,398.7
	c-0.2-1.8,6.3-10.4,11.2-10.5C300.7,393,291.7,399,289.9,398.7L289.9,398.7z M290.3,399.5c0.7-1.7,10.7-5.9,14.9-3.5
	C302.5,400,291.7,400.7,290.3,399.5L290.3,399.5z M290.3,400.5c1.4-1.1,12.2,0.3,14.7,4.4C300.6,407,290.9,402.2,290.3,400.5
	L290.3,400.5z"/>
<path class="st0" d="M288.8,399.1c-0.5-0.7,0.1-5.8,2.1-7C291.9,394.2,289.6,398.8,288.8,399.1L288.8,399.1z M289.2,400.6
	c0.8-0.1,5,3,5,5.3C291.9,405.7,289,401.4,289.2,400.6L289.2,400.6z M288.8,400.8c0.8,0.3,2.8,5.1,1.7,7.1
	C288.6,406.6,288.2,401.4,288.8,400.8L288.8,400.8z M288.4,400.8c0.5,0.7-0.1,5.8-2.1,7C285.2,405.7,287.5,401,288.4,400.8
	L288.4,400.8z M288,400.5c0.1,0.8-3,5-5.3,5C282.8,403.2,287.1,400.4,288,400.5L288,400.5z M287.8,400.1c-0.3,0.8-5.1,2.8-7.1,1.7
	C282,399.9,287.1,399.6,287.8,400.1L287.8,400.1z M287.8,399.7c-0.7,0.5-5.8-0.1-7-2.1C282.9,396.6,287.5,398.9,287.8,399.7
	L287.8,399.7z M288,399.3c-0.8,0.1-5-3-5-5.3C285.3,394.2,288.2,398.5,288,399.3L288,399.3z M288.4,399.1c-0.8-0.3-2.8-5.1-1.7-7.1
	C288.6,393.3,289,398.5,288.4,399.1L288.4,399.1z M289.2,399.4c-0.1-0.8,3-5,5.3-5C294.4,396.7,290.1,399.5,289.2,399.4L289.2,399.4
	z M289.4,399.7c0.3-0.8,5.1-2.8,7.1-1.7C295.2,400,290.1,400.3,289.4,399.7L289.4,399.7z M289.4,400.2c0.7-0.5,5.8,0.1,7,2.1
	C294.3,403.3,289.7,401,289.4,400.2L289.4,400.2z"/>
<path class="st4" d="M291.7,400.1c0.1-2.4-2.5-4.4-5.2-2.6c-2.1,2.4-0.5,5.3,1.9,5.5C290.1,403.1,291.6,401.8,291.7,400.1
	L291.7,400.1z"/>
<path class="st0" d="M591.7,399.8c-1.7,3.5,6.7,11.6,9.8,11.6c4.2,0.1,0.8-5.6,0.9-6c0.2-0.3,6.9-0.8,4.4-4.2
	C605,398.7,593.6,396.3,591.7,399.8L591.7,399.8z"/>
<path class="st0" d="M591.4,398c2.9,2.7,13.1-2.8,14.1-5.8c1.4-4-5.1-2.5-5.4-2.7c-0.3-0.3,1.4-6.8-2.7-5.4
	C594.4,385,588.7,395,591.4,398L591.4,398z"/>
<path class="st0" d="M589.5,397.7c3.4-1.9,1.4-13.3-1.1-15.2c-3.4-2.6-3.9,4.1-4.3,4.3c-0.4,0.2-6-3.4-6,0.9
	C578.1,390.8,585.9,399.4,589.5,397.7L589.5,397.7z"/>
<path class="st0" d="M588.7,399.4c-0.7-3.9-12.3-5.4-14.8-3.6c-3.5,2.4,2.7,5,2.8,5.4c0.1,0.4-5.1,4.7-1,6
	C578.6,408.1,589.2,403.4,588.7,399.4L588.7,399.4z"/>
<path class="st0" d="M590.1,400.7c-3.9-0.5-8.9,10-8,13c1.2,4.1,5.6-1,6-1c0.4,0.1,2.9,6.3,5.4,2.8C595.2,413,594,401.5,590.1,400.7
	L590.1,400.7z"/>
<path class="st1" d="M590.6,397.8c0.3-1.3,0.6-3.1,0.3-3.9c-0.5,0.7-0.8,2.3-0.9,3.5c-0.7-2-2.2-5-3.4-5.9c0,1.6,1.7,4.8,2.9,6.5
	c-0.2,0.1-0.3,0.3-0.4,0.5c-1.1-0.7-2.9-1.7-3.8-1.7c0.6,0.8,2.4,1.7,3.7,2.2c0,0.1,0,0.2,0,0.2c-2.1,0-5.6,0.4-6.9,1.4
	c1.6,0.5,5.2-0.1,7.2-0.7l0,0c-1,0.8-2.6,2.3-2.9,3.2c0.9-0.3,2.4-1.8,3.2-2.9c0.1,0,0.1,0.1,0.2,0.1c0.1,0.1,0.3,0.1,0.4,0.1
	c-0.6,1.9-1.5,5.7-0.9,7.4c1-1.3,1.4-4.7,1.5-6.8c0.5,1.2,1.2,2.5,1.9,3c0-0.9-0.9-2.7-1.6-3.8c0.2-0.1,0.3-0.2,0.4-0.4
	c1.5,1.2,5.1,3.3,7,3.3c-1.1-1.5-5-3.3-6.8-3.8c0-0.1,0-0.1,0-0.2c1.3-0.1,3.1-0.4,3.8-0.9c-0.8-0.3-2.6,0-3.9,0.3l0,0
	c1.6-1.1,4.7-3.8,5.2-5.5c-1.7,0.5-4.4,3.4-5.5,5c-0.1-0.1-0.2-0.2-0.4-0.3C590.8,397.9,590.7,397.8,590.6,397.8L590.6,397.8z"/>
<path class="st4" d="M592.7,400.4c1-1.9-0.5-4.5-3.3-4c-2.6,1.2-2.3,4.2-0.4,5.2C590.4,402.3,592,401.8,592.7,400.4L592.7,400.4z"/>
<path class="st0" d="M373,397.5c-0.9,3.8-12.5,5.8-14.9,3.9c-3.4-2.6,2.9-5.8,3-6.2c0.1-0.4-4.8-4.9-0.8-6
	C363.3,388.4,373.6,393.6,373,397.5L373,397.5z"/>
<path class="st0" d="M374.4,396.3c-3.9,0.3-8.5-10.4-7.4-13.3c1.4-4,5.5,1.3,5.9,1.2c0.4,0,3.2-6.1,5.5-2.6
	C380.1,384.3,378.3,395.7,374.4,396.3L374.4,396.3z"/>
<path class="st0" d="M376,397.3c-1.5-3.6,7.2-11.2,10.3-11.2c4.2,0.1,0.5,5.7,0.7,6c0.2,0.4,6.8,2.1,4.1,5.4
	C389.2,399.9,377.8,400.8,376,397.3L376,397.3z"/>
<path class="st0" d="M375.6,399c3-2.5,12.9,3.4,13.8,6.4c1.2,4.1-5.2,2.2-5.5,2.5s1,7.8-2.9,6.3C378,413.1,372.7,401.8,375.6,399
	L375.6,399z"/>
<path class="st0" d="M373.7,399.2c3.3,2,0.7,14.3-1.8,16.1c-3.5,2.4-3.7-5.3-4.1-5.5c-0.3-0.2-6.2,3.1-5.9-1.1
	C362,405.6,370.2,397.4,373.7,399.2L373.7,399.2z"/>
<path class="st1" d="M375.1,396.6c0.5-1.2,1.4-2.8,2.2-3.3c0,0.8-0.8,2.2-1.5,3.3c1.8-1.1,4.8-2.5,6.3-2.5c-1,1.3-4.3,2.7-6.3,3.2
	c0.1,0.2,0.1,0.4,0.1,0.6c1.3,0.1,3.3,0.5,4,1.1c-0.9,0.3-3-0.2-4.2-0.6c0,0.1-0.1,0.1-0.1,0.2c1.6,1.3,4.1,3.8,4.6,5.4
	c-1.6-0.6-4-3.3-5.1-5l0,0c0.3,1.3,0.6,3.4,0.2,4.3c-0.5-0.8-0.7-2.9-0.7-4.2c-0.1,0-0.1,0-0.2,0c-0.2,0-0.3-0.1-0.4-0.2
	c-0.7,1.9-2.4,5.4-3.9,6.4c0.1-1.6,1.8-4.6,3.1-6.2c-1.1,0.6-2.5,1.2-3.4,1.2c0.6-0.7,2.4-1.5,3.6-1.9c-0.1-0.2-0.1-0.3-0.1-0.5
	c-1.9,0-6.1-0.6-7.5-1.7c1.8-0.5,5.9,0.6,7.6,1.3c0-0.1,0.1-0.1,0.1-0.2c-1-0.9-2.2-2.2-2.4-3.1c0.8,0.3,2.1,1.6,2.8,2.7l0,0
	c-0.6-1.8-1.3-5.9-0.6-7.6c1,1.4,1.3,5.4,1.2,7.4C374.7,396.7,374.8,396.7,375.1,396.6C374.9,396.6,375,396.6,375.1,396.6
	L375.1,396.6z"/>
<path class="st4" d="M371.8,397.3c0.4-2.1,3.2-3.2,5.1-1.1c1.3,2.6-0.8,4.7-2.9,4.3C372.5,400.3,371.5,398.8,371.8,397.3
	L371.8,397.3z"/>
<path class="st0" d="M204.9,397.5c1,4.2,13.7,5.3,16.4,3.2c3.7-2.8-3.2-5.4-3.3-5.8s5.3-5.4,0.8-6.6
	C215.5,387.4,204.2,393.2,204.9,397.5L204.9,397.5z"/>
<path class="st0" d="M203.3,396.1c4.3,0.4,9.3-11.4,8.2-14.6c-1.6-4.4-6.1,1.4-6.5,1.4c-0.4-0.1-3.5-6.7-6-2.8
	C197.1,382.9,199,395.5,203.3,396.1L203.3,396.1z"/>
<path class="st0" d="M201.6,397.2c1.6-4-8-12.4-11.4-12.3c-4.7,0.1-0.6,6.2-0.7,6.6c-0.2,0.4-7.5,2.5-4.6,6.1
	C187,400.3,199.6,401.1,201.6,397.2L201.6,397.2z"/>
<path class="st0" d="M202,399.2c-3.3-2.8-14.2,3.8-15.2,7.1c-1.3,4.5,5.8,2.4,6.1,2.7c0.3,0.3-1.1,7.5,3.2,5.8
	C199.3,413.6,205.2,402.3,202,399.2L202,399.2z"/>
<path class="st0" d="M204.1,399.3c-3.7,2.2-0.8,14.7,2,16.6c3.8,2.6,4.1-4.7,4.5-4.9c0.4-0.2,6.8,3.4,6.5-1.2
	C216.9,406.4,208,397.3,204.1,399.3L204.1,399.3z"/>
<path class="st1" d="M202.6,396.5c-0.6-1.3-1.6-3.1-2.4-3.6c0,0.9,0.9,2.5,1.7,3.6c-2-1.2-5.3-2.8-7-2.7c1.1,1.4,4.7,2.9,6.9,3.6
	c-0.1,0.2-0.1,0.5-0.1,0.7c-1.4,0.1-3.6,0.5-4.4,1.2c1,0.3,3.3-0.2,4.6-0.7c0,0.1,0.1,0.2,0.2,0.2c-1.8,1.4-4.5,4.2-5,6
	c1.7-0.6,4.4-3.7,5.7-5.5l0,0c-0.3,1.4-0.7,3.7-0.3,4.7c0.6-0.9,0.8-3.2,0.8-4.7c0.1,0,0.2,0,0.2,0c0.2,0,0.3-0.1,0.5-0.2
	c0.7,2,2.7,5.9,4.3,7c-0.1-1.8-2-5.1-3.4-6.9c1.2,0.7,2.8,1.3,3.7,1.3c-0.6-0.8-2.6-1.7-4-2.1c0.1-0.2,0.1-0.4,0.1-0.6
	c2,0,6.7-0.7,8.3-1.9c-1.9-0.6-6.5,0.6-8.4,1.4c0-0.1-0.1-0.2-0.1-0.2c1.1-1,2.4-2.4,2.7-3.4c-0.9,0.3-2.3,1.8-3.1,3l0,0
	c0.6-2,1.4-6.5,0.7-8.3c-1.1,1.6-1.4,5.9-1.3,8.1c-0.2,0-0.3,0-0.5,0C202.8,396.4,202.7,396.5,202.6,396.5L202.6,396.5z"/>
<path class="st4" d="M206.2,397.3c-0.5-2.4-3.5-3.5-5.6-1.2c-1.4,2.8,0.9,5.2,3.2,4.8C205.4,400.5,206.5,398.9,206.2,397.3
	L206.2,397.3z"/>
<path class="st1" d="M349.4,399.8c0.1-3.5-3.9-6.4-8.9-6.5s-9.1,2.6-9.2,6c-0.1,3.5,3.9,6.4,8.9,6.5
	C345.1,406,349.3,403.3,349.4,399.8L349.4,399.8z"/>
<path class="st1" d="M336.3,380.8c-3.3-1.2-7.3,1.7-8.9,6.5c-1.7,4.7-0.4,9.5,2.9,10.6c3.3,1.2,7.3-1.7,8.9-6.5
	C340.9,386.7,339.6,382,336.3,380.8L336.3,380.8z"/>
<path class="st1" d="M314.2,387.4c-2.1,2.8-0.6,7.5,3.4,10.5s8.9,3.3,11,0.5s0.6-7.5-3.4-10.5C321.3,384.8,316.3,384.6,314.2,387.4
	L314.2,387.4z"/>
<path class="st1" d="M313.6,410.4c2,2.9,6.9,2.9,11,0c4.1-2.8,5.9-7.5,3.9-10.3c-2-2.9-6.9-2.9-11,0
	C313.4,402.9,311.6,407.5,313.6,410.4L313.6,410.4z"/>
<path class="st1" d="M335.3,418.1c3.3-1,4.9-5.7,3.4-10.5c-1.4-4.8-5.3-7.9-8.6-6.9c-3.3,1-4.9,5.7-3.4,10.5
	C328.2,416,332,419.1,335.3,418.1L335.3,418.1z"/>
<path class="st0" d="M342.9,399.6c0.1-2.2-2.5-4.1-5.7-4.2s-5.9,1.7-5.9,3.9c-0.1,2.2,2.5,4.1,5.7,4.2S342.8,401.9,342.9,399.6
	L342.9,399.6z"/>
<path class="st0" d="M334.5,387.4c-2.1-0.7-4.7,1.1-5.8,4.2c-1.1,3-0.2,6.1,1.9,6.8s4.7-1.1,5.8-4.2
	C337.4,391.2,336.6,388.2,334.5,387.4L334.5,387.4z"/>
<path class="st0" d="M320.3,391.6c-1.4,1.8-0.4,4.8,2.2,6.8s5.7,2.1,7.1,0.3c1.4-1.8,0.4-4.8-2.2-6.8
	C324.8,390,321.6,389.9,320.3,391.6L320.3,391.6z"/>
<path class="st0" d="M319.9,406.5c1.3,1.8,4.4,1.9,7.1,0c2.7-1.8,3.8-4.8,2.5-6.6s-4.4-1.9-7.1,0
	C319.7,401.6,318.6,404.6,319.9,406.5L319.9,406.5z"/>
<path class="st0" d="M333.9,411.4c2.1-0.6,3.1-3.7,2.2-6.7c-0.9-3.1-3.4-5.1-5.5-4.4c-2.1,0.6-3.1,3.7-2.2,6.7
	C329.2,410,331.7,412,333.9,411.4L333.9,411.4z"/>
<path class="st5" d="M335.2,399.4c0.1-4.3-4.8-7.6-9.4-4.3c-3.6,4.4-0.5,9.5,3.8,9.6C332.7,404.9,335.2,402.5,335.2,399.4
	L335.2,399.4z"/>
<path class="st2" d="M248.3,398.8c-0.6,4.1,10.4,9.5,13.6,8.6c4.3-1.3-1-5.9-0.9-6.3s6.6-3,3-5.6
	C261.3,393.5,249.2,394.7,248.3,398.8L248.3,398.8z"/>
<path class="st2" d="M247.4,397c3.7,1.8,12.3-7,12.4-10.2c0.1-4.5-5.9-0.9-6.3-1.1c-0.4-0.2-0.8-7.2-4.4-4.6
	C246.4,383,243.8,394.9,247.4,397L247.4,397z"/>
<path class="st2" d="M245.5,397.4c2.9-3-2.8-13.8-5.9-14.9c-4.2-1.5-2.6,5.4-2.9,5.7c-0.3,0.3-7.1-1.5-5.8,2.8
	C231.8,394,242.4,400.2,245.5,397.4L245.5,397.4z"/>
<path class="st2" d="M245.2,399.3c-2-3.6-14-1.6-16,1c-2.7,3.5,4.3,4.2,4.5,4.5c0.2,0.4-3.6,6.3,0.8,6.3
	C237.8,411.2,246.9,403.1,245.2,399.3L245.2,399.3z"/>
<path class="st2" d="M247,400.2c-4.1,0.7-5.8,12.9-4,15.6c2.5,3.7,5.3-2.8,5.7-2.9s4.9,5.4,6.3,1.2C256,410.9,251.1,399.7,247,400.2
	L247,400.2z"/>
<path class="st3" d="M246.6,397.1c-0.1-1.4-0.4-3.3-0.9-4c-0.3,0.8,0,2.5,0.3,3.8c-1.3-1.8-3.7-4.3-5.3-4.8c0.5,1.6,3.2,4.3,4.9,5.6
	c-0.1,0.2-0.2,0.4-0.3,0.6c-1.3-0.4-3.4-0.8-4.4-0.5c0.8,0.6,3,0.9,4.4,1c0,0.1,0,0.2,0.1,0.3c-2.1,0.7-5.5,2.2-6.5,3.6
	c1.8,0,5.2-1.8,7-3l0,0c-0.8,1.1-1.9,3.1-1.9,4.1c0.9-0.6,1.8-2.6,2.3-3.9c0.1,0,0.1,0,0.2,0.1c0.2,0,0.3,0,0.5,0
	c-0.1,2.1,0.4,6.2,1.4,7.7c0.6-1.6-0.1-5.2-0.6-7.3c0.9,1,2,2.2,2.8,2.4c-0.3-0.9-1.8-2.4-2.8-3.3c0.1-0.1,0.2-0.3,0.3-0.5
	c1.8,0.7,6.2,1.7,8.1,1.2c-1.5-1.2-6-1.7-8-1.7c0-0.1,0-0.2,0-0.2c1.3-0.5,3-1.3,3.6-2.1c-0.9,0-2.6,0.8-3.8,1.6l0,0
	c1.2-1.6,3.5-5.3,3.5-7.2c-1.5,1.1-3.3,4.8-4,6.8c-0.1-0.1-0.3-0.1-0.5-0.2C246.8,397.1,246.7,397.1,246.6,397.1L246.6,397.1z"/>
<path class="st4" d="M249.5,399c0.4-2.3-1.9-4.4-4.6-3c-2.2,2.1-1,5,1.2,5.4C247.8,401.7,249.3,400.6,249.5,399L249.5,399z"/>
<path class="st2" d="M417.8,398.4c0.2,5.3,9.7,9.7,13.1,7.9c4.5-2.5,1.4-7.2,1.4-7.7s3.1-5.2-1.4-7.7
	C427.6,388.9,418,393.1,417.8,398.4L417.8,398.4z"/>
<path class="st2" d="M416.4,396.7c5.1,1.5,12.2-6.3,11.5-10c-1-5.1-6.4-3.6-6.9-3.7c-0.5-0.2-4-4.5-7.8-1
	C410.4,384.5,411.4,394.9,416.4,396.7L416.4,396.7z"/>
<path class="st2" d="M414.4,397.5c3-4.4-2.2-13.6-6-14c-5.1-0.6-5.4,5-5.7,5.4c-0.3,0.4-5.6,2.4-3.4,7.1
	C400.9,399.4,411.1,401.7,414.4,397.5L414.4,397.5z"/>
<path class="st2" d="M414.5,399.7c-3.3-4.2-13.6-2.1-15.2,1.3c-2.2,4.7,3.1,6.7,3.4,7.1c0.3,0.4,0.6,6,5.7,5.4
	C412.2,413.1,417.5,404.1,414.5,399.7L414.5,399.7z"/>
<path class="st2" d="M416.6,400.2c-5,1.8-6.2,12.3-3.4,14.8c3.8,3.5,7.3-0.9,7.8-1c0.5-0.2,5.9,1.3,6.9-3.8
	C428.7,406.5,421.7,398.7,416.6,400.2L416.6,400.2z"/>
<path class="st3" d="M420.2,397.7c0.7-0.3,1.3-0.6,1.7-1c-0.6-0.1-1.4,0-2.3,0.2c2.2-1.4,4.8-3.3,5.5-4.9c-1.8,0.1-4.6,2.1-6.7,3.8
	c0.6-0.9,1-1.8,1-2.4c-0.7,0.3-1.2,0.4-1.8,1.4c0.7-2.2,1.5-5.4,1.3-7.3c-1.3,1.7-2.1,4.6-2.7,6.7c-0.1-0.5-0.2-1.7-0.4-2
	c-0.2,0.3-0.4,1-0.5,1.5c-0.6-2.3-1.5-4.8-2.7-5.9c-0.5,1.8,0.5,5.1,1.5,7.5c-0.6-0.8-1.3-1.5-2-1.8c0.1,0.7,0.6,1.6,1.2,2.4
	c-2.1-1.7-5-3.5-6.9-3.5c0.7,1.4,3,3.1,5.1,4.3c-0.6-0.1-1.2-0.1-1.6,0c0.3,0.3,0.9,0.7,1.5,0.9c-2.5-0.2-5.4-0.1-6.8,0.8
	c1.5,1,4.9,1.1,7.5,0.8c-0.9,0.3-1.8,0.8-2.2,1.3c0.6,0.1,1.5,0,2.4-0.3c-2.2,1.4-4.7,3.5-5.4,5.2c1.6-0.2,3.9-1.8,5.8-3.5
	c-0.3,0.6-0.6,1.1-0.6,1.6c0.4-0.2,0.8-0.5,1.3-1c-1,2.3-1.8,4.9-1.5,6.5c1.4-1.1,2.7-4.3,3.3-6.9c0,1,0.2,2,0.5,2.6
	c0.4-0.6,0.5-1.6,0.5-2.7c0.7,2.6,2,5.9,3.5,7c0.3-1.7-0.7-4.7-1.8-7.1c0.6,0.7,1.2,1.2,1.8,1.4c-0.1-0.5-0.3-1-0.7-1.6
	c2,1.5,4.4,3.1,6,3.1c-0.7-1.6-3.1-3.4-5.3-4.7c0.8,0.2,1.5,0.3,2.1,0.1c-0.3-0.4-0.9-0.7-1.6-1c2.5,0.2,5.5,0,6.9-0.8
	C425.7,397.6,422.8,397.5,420.2,397.7L420.2,397.7z"/>
<path class="st5" d="M419.3,398.5c0-2.6-3-4.5-5.7-2.4c-2.1,2.7-0.2,5.7,2.4,5.7C417.8,401.8,419.3,400.3,419.3,398.5L419.3,398.5z"
	/>
<path class="st0" d="M545.1,398.9c-1.3-1.1-2.4-11.1,0.9-14.3C548.9,388.1,546.6,398,545.1,398.9L545.1,398.9z M546.4,401.5
	c1.6-0.6,10.8,3.5,12,7.9C553.9,410.1,546.5,403.2,546.4,401.5L546.4,401.5z M545.8,402.1c1.7,0.3,7.6,8.5,6.4,12.8
	C548,413.3,545,403.6,545.8,402.1L545.8,402.1z M544.9,402.2c1.3,1.1,2.4,11.1-0.9,14.3C541.2,413,543.5,403.2,544.9,402.2
	L544.9,402.2z M544.1,402c0.6,1.6-3.5,10.8-7.9,12C535.5,409.4,542.4,402.1,544.1,402L544.1,402z M543.5,401.3
	c-0.3,1.7-8.5,7.6-12.8,6.4C532.3,403.5,542,400.6,543.5,401.3L543.5,401.3z M543.4,400.5c-1.1,1.3-11.1,2.4-14.3-0.9
	C532.6,396.7,542.4,399.1,543.4,400.5L543.4,400.5z M543.6,399.6c-1.6,0.6-10.8-3.5-12-7.9C536.2,391,543.5,398,543.6,399.6
	L543.6,399.6z M544.3,399.1c-1.7-0.3-7.6-8.5-6.4-12.8C542.1,387.9,545.1,397.6,544.3,399.1L544.3,399.1z M546,399.2
	c-0.6-1.6,3.5-10.8,7.9-12C554.6,391.7,547.7,399.1,546,399.2L546,399.2z M546.5,399.8c0.3-1.7,8.5-7.6,12.8-6.4
	C557.7,397.7,548,400.6,546.5,399.8L546.5,399.8z M546.7,400.7c1.1-1.3,11.1-2.4,14.3,0.9C557.5,404.4,547.6,402.1,546.7,400.7
	L546.7,400.7z"/>
<path class="st1" d="M545.5,399c-1-1.4,0.2-11.4,4.1-13.7C551.6,389.3,547.1,398.4,545.5,399L545.5,399z M546.2,401.8
	c1.7-0.2,9.7,5.9,9.8,10.4C551.5,411.9,545.9,403.4,546.2,401.8L546.2,401.8z M545.4,402.2c1.5,0.7,5.5,10,3.3,14
	C545,413.6,544.3,403.5,545.4,402.2L545.4,402.2z M544.6,402.2c1,1.4-0.2,11.4-4.1,13.7C538.5,411.8,543,402.8,544.6,402.2
	L544.6,402.2z M543.8,401.7c0.2,1.7-5.9,9.7-10.4,9.8C533.7,407,542.2,401.4,543.8,401.7L543.8,401.7z M543.4,401
	c-0.7,1.5-10,5.5-14,3.3C532,400.5,542.1,399.9,543.4,401L543.4,401z M543.4,400.1c-1.4,1-11.4-0.2-13.7-4.1
	C533.8,394,542.9,398.5,543.4,400.1L543.4,400.1z M543.9,399.3c-1.7,0.2-9.7-5.9-9.8-10.4C538.6,389.2,544.2,397.7,543.9,399.3
	L543.9,399.3z M544.7,398.9c-1.5-0.7-5.5-10-3.3-14C545.1,387.5,545.7,397.6,544.7,398.9L544.7,398.9z M546.3,399.4
	c-0.2-1.7,5.9-9.7,10.4-9.8C556.4,394.1,547.9,399.7,546.3,399.4L546.3,399.4z M546.7,400.2c0.7-1.5,10-5.5,14-3.3
	C558.1,400.7,548,401.3,546.7,400.2L546.7,400.2z M546.7,401.1c1.4-1,11.4,0.2,13.7,4.1C556.3,407.2,547.2,402.6,546.7,401.1
	L546.7,401.1z"/>
<path class="st0" d="M545.3,399.8c-0.5-0.6,0.1-5.4,2-6.5C548.2,395.2,546,399.5,545.3,399.8L545.3,399.8z M545.6,401.2
	c0.8-0.1,4.6,2.8,4.7,5C548.1,406,545.5,401.9,545.6,401.2L545.6,401.2z M545.2,401.3c0.7,0.3,2.6,4.7,1.6,6.6
	C545,406.8,544.7,402,545.2,401.3L545.2,401.3z M544.8,401.3c0.5,0.6-0.1,5.4-2,6.5C541.9,405.9,544.1,401.6,544.8,401.3
	L544.8,401.3z M544.5,401.1c0.1,0.8-2.8,4.6-5,4.7C539.7,403.6,543.7,401,544.5,401.1L544.5,401.1z M544.3,400.8
	c-0.3,0.7-4.7,2.6-6.6,1.6C538.9,400.5,543.7,400.2,544.3,400.8L544.3,400.8z M544.3,400.3c-0.6,0.5-5.4-0.1-6.5-2
	C539.7,397.4,544,399.6,544.3,400.3L544.3,400.3z M544.5,400c-0.8,0.1-4.6-2.8-4.7-5C542,395.2,544.6,399.2,544.5,400L544.5,400z
	 M544.9,399.8c-0.7-0.3-2.6-4.7-1.6-6.6C545.1,394.4,545.4,399.2,544.9,399.8L544.9,399.8z M545.6,400c-0.1-0.8,2.8-4.6,5-4.7
	C550.4,397.5,546.4,400.2,545.6,400L545.6,400z M545.8,400.4c0.3-0.7,4.7-2.6,6.6-1.6C551.2,400.6,546.4,400.9,545.8,400.4
	L545.8,400.4z M545.8,400.8c0.6-0.5,5.4,0.1,6.5,2C550.4,403.7,546.1,401.6,545.8,400.8L545.8,400.8z"/>
<path class="st4" d="M547.9,400.7c0.1-2.3-2.4-4.1-4.9-2.4c-2,2.3-0.5,5,1.8,5.1C546.5,403.5,547.8,402.3,547.9,400.7L547.9,400.7z"
	/>
<rect x="2.2" y="369.4" class="st6" width="614.5" height="57.3"/>
<text transform="matrix(1 0 0 1 9.9961 411.1625)" class="st7 st8 st9">WeatherApp</text>
</svg>
