<?xml version="1.0" encoding="utf-8"?>
<!-- Generator: Adobe Illustrator 19.1.0, SVG Export Plug-In . SVG Version: 6.00 Build 0)  -->
<svg version="1.1" id="图层_1" xmlns="http://www.w3.org/2000/svg" xmlns:xlink="http://www.w3.org/1999/xlink" x="0px" y="0px"
	 viewBox="0 0 713.8 123.8" style="enable-background:new 0 0 713.8 123.8;" xml:space="preserve">
<style type="text/css">
	.st0{fill:#2F9BA6;}
	.st1{fill:#ECE4CE;}
	.st2{fill:#F5EDD5;}
	.st3{fill:#785B3C;}
	.st4{fill:#A37B52;}
	.st5{fill:#DAA622;}
	.st6{fill:#EFB622;}
	.st7{fill:#F4F1F0;}
	.st8{fill:#36AEB9;}
	.st9{fill:#ACD8DB;}
	.st10{fill:#B5B4B4;}
	.st11{fill:none;stroke:#FFFFFF;stroke-width:2.7136;stroke-miterlimit:10;}
	.st12{fill:none;stroke:#FFFFFF;stroke-width:2.7136;stroke-miterlimit:10;stroke-dasharray:11.0441,11.0441;}
	.st13{fill:#CDB260;}
	.st14{fill:#58595B;}
	.st15{fill:#FFFFFF;}
	.st16{fill:#D1E2E1;}
	.st17{fill:#E46427;}
	.st18{fill:#D87675;}
	.st19{fill:#042F3F;}
	.st20{fill:#27A1AF;}
	.st21{fill:#3C3837;}
	.st22{fill:none;stroke:#042F3F;stroke-width:0.364;stroke-miterlimit:10;}
	.st23{fill:none;stroke:#042F3F;stroke-width:0.364;stroke-miterlimit:10;stroke-dasharray:0.3638,0.3638;}
	.st24{fill:none;stroke:#042F3F;stroke-width:0.364;stroke-miterlimit:10;stroke-dasharray:0.3619,0.3619;}
	.st25{fill:#F4D373;}
	.st26{fill:#004345;}
	.st27{fill:#9ECDC7;}
	.st28{fill:#85AFA9;}
	.st29{fill:#EFF0BA;}
	.st30{fill:#E6E7E8;}
</style>
<g>
	<circle class="st0" cx="210.7" cy="60.9" r="60.3"/>
	<g>
		<path class="st1" d="M175.5,75.9c-3.2,0.8-4.8,1.5-4.8,5.4c0,1.9,0.4,4.1,0.9,5.8c0.5,2,2.2,3.4,4.3,3.6l29.7,2.3V63.8
			C196.2,68.4,187.7,73,175.5,75.9z"/>
		<path class="st2" d="M262.7,51.9c0.2-1.2-0.8-2.3-2.1-2.3c-27.9,1.6-42.3,7.8-55.1,14.1v29.3l45.7,3.6c2.2,0.2,3.7-2.3,2.4-4.1
			l-3.4-5.1c-0.6-0.9-0.6-2,0-2.8C256.2,75.5,261.3,62.5,262.7,51.9z"/>
		<path class="st3" d="M202.2,33.2c-1.6,0-2.9,1.3-2.9,2.9v3.1h6.2v-5.9H202.2z"/>
		<path class="st4" d="M210.7,36.1c0-1.6-1.3-2.9-2.9-2.9h-2.3v5.9h5.1V36.1z"/>
		<path class="st4" d="M246.6,72.2c0-0.7-0.6-1.3-1.3-1.3c-0.7,0-1.3,0.6-1.3,1.3c0,2-1.3,3.6-3.1,4.2v-8.8c1-0.5,1.6-1.5,1.6-2.6
			c0-1.6-1.3-2.9-2.9-2.9c-1.6,0-2.9,1.3-2.9,2.9c0,1.2,0.7,2.1,1.6,2.6v8.8c-1.8-0.6-3.1-2.2-3.1-4.2c0-0.7-0.6-1.3-1.3-1.3
			c-0.7,0-1.3,0.6-1.3,1.3c0,3.8,3.1,7,7,7C243.4,79.2,246.6,76,246.6,72.2z"/>
		<path class="st5" d="M199.3,41.9v5.9h-10.1c-0.6,0-1.6,0.3-2.2,0.7l-6.3,4.3c-1.1,0.7-1.7,1.9-1.7,3.2v16.3
			c8.4-2.5,15.1-5.8,22-9.2c1.5-0.7,2.9-1.5,4.4-2.2v-19H199.3z"/>
		<path class="st6" d="M221.9,50.5c0-1.4-1.1-2.6-2.6-2.6h-8.7v-5.9h-5.1v19c5-2.4,10.2-4.8,16.4-6.9V50.5z"/>
		<path class="st7" d="M202.7,25.7C202.7,25.7,202.7,25.7,202.7,25.7c0.2-0.5,0.3-1.1,0.3-1.7c0-2.4-2-4.4-4.4-4.4
			c-0.1,0-0.2,0-0.2,0c-0.7-2.5-2.9-4.3-5.6-4.3c-3.2,0-5.9,2.6-5.9,5.9c0,3.2,2.6,5.9,5.9,5.9c0.8,0,1.6-0.2,2.3-0.5
			c0.8,1.1,2.1,1.8,3.6,1.8c0.5,0,0.9-0.1,1.4-0.2c0,0.1,0,0.2,0,0.2c0,1.5,1.2,2.7,2.7,2.7c1.5,0,2.7-1.2,2.7-2.7
			C205.4,26.9,204.2,25.7,202.7,25.7z"/>
	</g>
</g>
<g>
	<g>
		<circle class="st8" cx="60.3" cy="60.3" r="60.3"/>
		<g>
			<g>
				<path class="st6" d="M85.4,41.2l-9.8,6.1l0-0.1l-10.7,6.6l0,0l0,0.1L42.7,67.3c-0.9,0.5-1.6,1-2.2,1.6l-0.1-0.1l-5.5,4.8
					l1.8,3.2l7-2.7l0-0.1c0.7-0.2,1.5-0.6,2.3-1l22.9-12l0.1,0.1l11.2-5.7l0-0.1L90.3,50c2.4-1.4,3.3-4.4,1.9-6.9
					C90.8,40.7,87.8,39.9,85.4,41.2z"/>
				<polygon class="st5" points="67.3,41.8 60.9,37.9 60.9,37.9 58,36.1 58,36.1 50.3,31.3 42.4,35.8 64.3,52.9 64.9,53.9 
					75.6,47.3 75.3,46.8 70.2,43.6 70.2,43.6 67.3,41.8 				"/>
				<polygon class="st5" points="80,55.2 68.8,60.9 69.2,61.7 73.5,90.9 81.3,86.5 81.1,79.3 81.1,79.3 81,75.9 81,76 81,76 
					80.6,66.9 80.7,66.9 80.6,63.5 80.5,63.5 80.2,55.5 				"/>
				<polygon class="st5" points="32.4,63.8 28,65.1 34.9,73.5 34.9,73.5 40.5,68.8 				"/>
				<polygon class="st5" points="36.7,76.8 40.7,87.6 44,84.5 43.7,74 36.7,76.7 				"/>
				<path class="st6" d="M86.8,76.1c0.7-0.4,1-1.3,0.6-2c-0.4-0.7-1.3-1-2-0.6L81,76l0.1,3.4L86.8,76.1z"/>
				<path class="st6" d="M85.1,60.9l-4.6,2.6l0.1,3.4l6-3.4c0.7-0.4,1-1.3,0.6-2C86.8,60.8,85.9,60.5,85.1,60.9z"/>
				<path class="st6" d="M72.7,38.8l-5.4,3l2.9,1.8l3.9-2.2c0.7-0.4,1-1.3,0.6-2C74.3,38.6,73.4,38.4,72.7,38.8z"/>
				<path class="st6" d="M65.1,35.5c0.7-0.4,1-1.3,0.6-2c-0.4-0.7-1.3-1-2-0.6L58,36.1l2.9,1.8L65.1,35.5z"/>
			</g>
		</g>
	</g>
</g>
<g>
	<circle class="st9" cx="653.5" cy="62.2" r="60.3"/>
	<path class="st10" d="M653.5,122.5c28.5,0,52.4-19.8,58.7-46.3H594.8C601.1,102.7,625,122.5,653.5,122.5z"/>
	<g>
		<g>
			<line class="st11" x1="598.4" y1="96.2" x2="603.8" y2="96.2"/>
			<line class="st12" x1="614.8" y1="96.2" x2="697.7" y2="96.2"/>
			<line class="st11" x1="703.2" y1="96.2" x2="708.6" y2="96.2"/>
		</g>
	</g>
	<g>
		<path class="st13" d="M713.7,59.8c-2-0.4-6.9-2.3-15.6-10.5c-12.1-11.4-19.5,0-21.4,3.3c-1.9,3.3-5.6-13.8-13-14.6
			c-7.4-0.8-14.8,18.1-14.8,18.1s-10.3-27.9-23.4-26.3c-10.5,1.3-25.8,15.8-31.4,21.4c-0.7,3.6-1,7.2-1,11c0,4.8,0.6,9.5,1.6,14l0,0
			h117.3l0,0c1.1-4.5,1.6-9.2,1.6-14C713.8,61.4,713.8,60.6,713.7,59.8z"/>
	</g>
	<g>
		<path class="st14" d="M623.8,81.8h-6.4c-0.4,0-0.6,0.2-0.6,0.5v2c0,0.3,0.3,0.5,0.6,0.5h6.4c0.4,0,0.7-0.2,0.7-0.5v-2
			C624.4,82,624.1,81.8,623.8,81.8"/>
		<path class="st14" d="M668.1,79.1c-4.4,0-7.9,3.6-7.9,7.9c0,4.4,3.6,7.9,7.9,7.9c4.4,0,7.9-3.6,7.9-7.9
			C676,82.6,672.5,79.1,668.1,79.1"/>
		<path class="st15" d="M668.1,90.2c-1.8,0-3.2-1.4-3.2-3.2c0-1.8,1.4-3.2,3.2-3.2c1.8,0,3.2,1.4,3.2,3.2
			C671.3,88.8,669.9,90.2,668.1,90.2"/>
		<path class="st14" d="M635.2,79.1c-4.4,0-7.9,3.6-7.9,7.9c0,4.4,3.6,7.9,7.9,7.9c4.4,0,7.9-3.6,7.9-7.9
			C643.1,82.6,639.6,79.1,635.2,79.1"/>
		<path class="st15" d="M635.2,90.2c-1.8,0-3.2-1.4-3.2-3.2c0-1.8,1.4-3.2,3.2-3.2c1.8,0,3.2,1.4,3.2,3.2
			C638.4,88.8,637,90.2,635.2,90.2"/>
		<g>
			<path class="st16" d="M689.4,75.8c-1.1,0-1.9,0.9-1.9,2.1c0,1.2,0.9,2.1,1.9,2.1c0.3,0,0.5-0.1,0.8-0.2c0-1.4-0.1-2.8-0.4-3.9
				C689.7,75.8,689.6,75.8,689.4,75.8z"/>
			<path class="st17" d="M687.5,77.9c0-1.2,0.9-2.1,1.9-2.1c0.1,0,0.3,0,0.4,0.1c-0.1-0.6-0.3-1.1-0.5-1.5c-1.6-3-18.3-4.7-18.3-4.7
				s-9.2-11.4-10.7-12.2c-1.5-0.8-6.1-1.2-10.9-1.2c-4.8,0-11.3,0.3-12.4,1.4c-1.1,1.1-9,8.7-10.6,12.3c-0.2,0.5-3.8,0.3-5.6,0.3
				c-1.7,0-2.1,15.9-2.1,15.9c-0.1,0.2,0,0.4,0.1,0.6c0.1,0.2,0.3,0.3,0.5,0.3h6.3c0,0,0,0,0-0.1c0-5.2,4.2-9.5,9.5-9.5
				c5.2,0,9.5,4.2,9.5,9.5c0,0,0,0,0,0.1h14c0,0,0,0,0-0.1c0-5.2,4.2-9.5,9.5-9.5c5.2,0,9.5,4.2,9.5,9.5c0,0,0,0,0,0.1h11.6
				c0.4,0,0.6-0.3,0.6-0.6c0,0,0.4-3.4,0.4-6.7c-0.2,0.1-0.5,0.2-0.8,0.2C688.4,80,687.5,79,687.5,77.9z"/>
		</g>
		<path class="st16" d="M647.8,69.8c0,0.2-0.1,0.3-0.3,0.3h-17.4c-0.1,0-0.2-0.1-0.3-0.2c-0.1-0.1,0-0.3,0.1-0.3l8.6-10.4
			c0.1-0.1,0.1-0.1,0.2-0.1l8.8,0c0.2,0,0.3,0.1,0.3,0.3L647.8,69.8z"/>
		<path class="st16" d="M667.3,70c-0.1,0.1-0.2,0.2-0.3,0.2h-16.7c-0.2,0-0.3-0.1-0.3-0.3l-0.1-10.3c0-0.2,0.1-0.3,0.3-0.3l9.2,0.1
			c0.1,0,0.2,0,0.3,0.1l7.7,10.3C667.3,69.7,667.4,69.8,667.3,70"/>
		<path class="st16" d="M689.4,87.5h-11.8c0-1.4-0.2-2.7-0.2-2.7H690C690,84.9,690,87.5,689.4,87.5"/>
	</g>
</g>
<g>
	<circle class="st18" cx="355.5" cy="63.5" r="60.3"/>
	<g>
		<path class="st19" d="M403.5,57.7l-30.1,0c-0.5,0-0.9-0.4-0.9-0.9c0-0.5,0.4-0.9,0.9-0.9l30.1,0c0.5,0,0.9,0.4,0.9,0.9
			C404.4,57.3,404,57.7,403.5,57.7z"/>
		<path class="st20" d="M368.3,68.7c-0.1,0-0.2,0-0.4-0.1c-0.4-0.2-0.6-0.7-0.5-1.2l7.5-17c0.2-0.4,0.7-0.6,1.2-0.4
			c0.4,0.2,0.6,0.7,0.5,1.2l-7.5,17C369,68.5,368.6,68.7,368.3,68.7z"/>
		<path class="st21" d="M322.1,96.1c-10,0-18.1-8.1-18.1-18.1c0-10,8.1-18.1,18.1-18.1c10,0,18.1,8.1,18.1,18.1
			C340.3,87.9,332.1,96.1,322.1,96.1z M322.1,61.1c-9.3,0-16.9,7.6-16.9,16.9c0,9.3,7.6,16.9,16.9,16.9c9.3,0,16.9-7.6,16.9-16.9
			C339,68.6,331.4,61.1,322.1,61.1z"/>
		<path class="st19" d="M339.7,86.3c-0.1,0-0.2,0-0.3-0.1c-0.3-0.2-0.5-0.6-0.4-0.9c3.4-7.9,0.8-17.4-6.3-22.4
			c-7.1-5.1-16.9-4.4-23.3,1.5c-0.3,0.3-0.7,0.2-1,0c-0.3-0.3-0.2-0.7,0-1c6.9-6.4,17.4-7.1,25.1-1.6c7.6,5.4,10.4,15.5,6.7,24.1
			C340.2,86.1,340,86.3,339.7,86.3z"/>
		<path class="st20" d="M368.5,67.2c-0.1,0-0.2,0-0.3-0.1L338.8,52c-0.3-0.2-0.5-0.6-0.3-0.9c0.2-0.3,0.6-0.5,0.9-0.3l29.4,15.1
			c0.3,0.2,0.5,0.6,0.3,0.9C369,67,368.8,67.2,368.5,67.2z"/>
		<path class="st20" d="M355.3,78.2c-0.2,0-0.4-0.1-0.5-0.2l-18.6-21.9c-0.2-0.3-0.2-0.7,0.1-1c0.3-0.2,0.7-0.2,1,0.1l18.6,21.9
			c0.2,0.3,0.2,0.7-0.1,1C355.7,78.2,355.5,78.2,355.3,78.2z"/>
		<path class="st21" d="M378.9,52c-2.5,0.3-8.1-1.9-9.5-4.7c-0.2-1.4,7.1-1.7,12.4-0.1c0.3,0.1,0.7,0.2,1,0.5
			C383.3,49.1,381.9,51.6,378.9,52z"/>
		<path class="st15" d="M322.1,94.8c-9.3,0-16.9-7.6-16.9-16.9c0-9.3,7.6-16.9,16.9-16.9c9.3,0,16.9,7.6,16.9,16.9
			C339,87.2,331.5,94.8,322.1,94.8z M322.1,61.8c-8.9,0-16.1,7.2-16.1,16.1c0,8.9,7.2,16.1,16.1,16.1c8.9,0,16.1-7.2,16.1-16.1
			C338.3,69,331,61.8,322.1,61.8z"/>
		<path class="st21" d="M398.6,92.3c-8,6-19.4,4.4-25.4-3.6c-6-8-4.4-19.4,3.6-25.4c8-6,19.4-4.4,25.4,3.6
			C408.2,74.9,406.6,86.3,398.6,92.3z M377.6,64.3c-7.4,5.6-9,16.2-3.4,23.6c5.6,7.4,16.2,9,23.6,3.4c7.4-5.6,9-16.2,3.4-23.6
			C395.7,60.2,385.1,58.7,377.6,64.3z"/>
		<path class="st19" d="M406.8,73.9c-0.1,0.1-0.2,0.1-0.3,0.1c-0.4,0.1-0.7-0.1-0.8-0.5c-2-8.4-9.8-14.4-18.4-14.2
			c-8.8,0.2-16.2,6.6-17.8,15.2c-0.1,0.4-0.4,0.6-0.8,0.6c-0.4-0.1-0.6-0.4-0.6-0.8c1.7-9.2,9.7-16.1,19.1-16.3
			c9.3-0.2,17.6,6.2,19.8,15.2C407.1,73.5,407,73.8,406.8,73.9z"/>
		<path class="st15" d="M397.9,91.3c-7.5,5.6-18.1,4.1-23.6-3.4c-5.6-7.5-4.1-18.1,3.4-23.6c7.5-5.6,18.1-4.1,23.6,3.4
			C406.8,75.1,405.3,85.7,397.9,91.3z M378.1,64.9c-7.1,5.3-8.6,15.5-3.2,22.6c5.3,7.1,15.5,8.6,22.6,3.2c7.1-5.3,8.6-15.5,3.2-22.6
			C395.3,61,385.2,59.5,378.1,64.9z"/>
		<g>
			<path class="st21" d="M404.4,79.3L389.1,78l0,0l15.1,3.4l0,0l0,0L389,78.2l0,0l14.6,5.3c0,0,0,0,0,0c0,0,0,0,0,0L389,78.3l0,0
				l13.9,7c0,0,0,0,0,0c0,0,0,0,0,0l-13.9-6.9l0,0l12.9,8.7c0,0,0,0,0,0c0,0,0,0,0,0l-13-8.6l0,0l11.8,10.2c0,0,0,0,0,0c0,0,0,0,0,0
				l-11.9-10.1l0,0l10.5,11.6c0,0,0,0,0,0c0,0,0,0,0,0l-10.6-11.5l0,0l9,12.8c0,0,0,0,0,0c0,0,0,0,0,0L388.4,79l0.1,0l7.4,13.8
				c0,0,0,0,0,0c0,0,0,0,0,0L388.3,79l0.1,0l5.7,14.6c0,0,0,0,0,0c0,0,0,0,0,0l-5.8-14.5l0.1,0l3.8,15.1c0,0,0,0,0,0.1
				c0,0,0,0-0.1,0l-4-15.1l0.1,0l1.9,15.4c0,0,0,0,0,0.1c0,0,0,0-0.1,0l-2.1-15.4l0.1,0l0,15.5c0,0,0,0.1,0,0.1c0,0,0,0,0,0
				l-0.2-15.5l0.1,0l-1.9,15.3c0,0,0,0.1-0.1,0c0,0-0.1,0,0-0.1l1.7-15.3l0.1,0L383.8,94c0,0,0,0-0.1,0c0,0,0,0,0-0.1l3.6-14.9
				l0.1,0l-5.6,14.2c0,0,0,0-0.1,0c0,0,0,0,0-0.1l5.5-14.3l0.1,0.1l-7.4,13.3c0,0-0.1,0-0.1,0c0,0,0-0.1,0-0.1l7.2-13.4l0.1,0.1
				l-9,12.2c0,0-0.1,0-0.1,0c0,0,0-0.1,0-0.1l8.9-12.3l0.1,0.1l-10.5,10.9c0,0-0.1,0-0.1,0c0,0,0-0.1,0-0.1l10.4-11.1l0.1,0.1
				L375,88.2c0,0-0.1,0-0.1,0c0,0,0-0.1,0-0.1l11.7-9.6l0.1,0.1l-12.9,7.9c0,0-0.1,0-0.1,0c0,0,0-0.1,0-0.1l12.8-8l0.1,0.2
				l-13.9,6.1c0,0-0.1,0-0.1,0c0,0,0-0.1,0-0.1l13.8-6.3l0.1,0.2L372,82.6c0,0-0.1,0-0.1-0.1c0,0,0-0.1,0.1-0.1l14.5-4.5l0,0.2
				l-15,2.4c-0.1,0-0.1,0-0.1-0.1c0-0.1,0-0.1,0.1-0.1l15-2.6l0,0.2l-15.3,0.5c-0.1,0-0.1,0-0.1-0.1c0-0.1,0-0.1,0.1-0.1l15.3-0.6
				l0,0.2l-15.3-1.5c-0.1,0-0.1-0.1-0.1-0.1c0-0.1,0.1-0.1,0.1-0.1l15.3,1.3l0,0.2l-15.1-3.4c-0.1,0-0.1-0.1-0.1-0.1
				c0-0.1,0.1-0.1,0.1-0.1l15.1,3.2l-0.1,0.2l-14.6-5.3c0,0-0.1-0.1-0.1-0.1c0,0,0.1-0.1,0.1-0.1l14.6,5.1l-0.1,0.2l-13.9-7
				c0,0-0.1-0.1,0-0.1c0,0,0.1-0.1,0.1,0l13.9,6.9l-0.1,0.2l-12.9-8.7c0,0-0.1-0.1,0-0.1c0,0,0.1-0.1,0.1,0l13,8.6l-0.1,0.1
				l-11.8-10.2c0,0,0-0.1,0-0.1c0,0,0.1,0,0.1,0l11.9,10.1l-0.1,0.1l-10.5-11.6c0,0,0-0.1,0-0.1c0,0,0.1,0,0.1,0l10.6,11.5l-0.1,0.1
				l-9-12.8c0,0,0-0.1,0-0.1c0,0,0.1,0,0.1,0l9.2,12.7l-0.1,0.1l-7.4-13.8c0,0,0-0.1,0-0.1c0,0,0.1,0,0.1,0l7.5,13.7l-0.1,0.1
				L381.5,62c0,0,0-0.1,0-0.1c0,0,0.1,0,0.1,0l5.8,14.5l-0.1,0l-3.8-15.1c0,0,0-0.1,0-0.1c0,0,0.1,0,0.1,0l4,15.1l-0.1,0l-1.9-15.4
				c0,0,0-0.1,0.1-0.1c0,0,0.1,0,0.1,0l2.1,15.4l-0.1,0l0-15.5c0,0,0-0.1,0.1-0.1s0.1,0,0.1,0.1l0.2,15.5l-0.1,0l1.9-15.3
				c0,0,0,0,0.1,0c0,0,0,0,0,0.1L388,76.5l-0.1,0l3.8-14.9c0,0,0,0,0.1,0c0,0,0,0,0,0.1l-3.6,14.9l-0.1,0l5.6-14.2c0,0,0,0,0.1,0
				c0,0,0,0,0,0.1l-5.5,14.3l-0.1,0l7.4-13.3c0,0,0,0,0,0c0,0,0,0,0,0l-7.2,13.4l-0.1,0l9-12.2c0,0,0,0,0,0c0,0,0,0,0,0l-8.9,12.3
				l0,0L399,65.8c0,0,0,0,0,0c0,0,0,0,0,0l-10.4,11l0,0l11.8-9.5c0,0,0,0,0,0c0,0,0,0,0,0L388.8,77l0,0l12.9-7.9c0,0,0,0,0,0
				c0,0,0,0,0,0l-12.8,8l0,0l13.9-6.1c0,0,0,0,0,0c0,0,0,0,0,0L389,77.3l0,0l14.6-4.3c0,0,0,0,0,0c0,0,0,0,0,0L389,77.5l0,0
				l15.1-2.4c0,0,0,0,0,0c0,0,0,0,0,0l-15,2.6l0,0l15.3-0.5l0,0l0,0l-15.3,0.6v0L404.4,79.3z M404.4,79.3l-15.3-1.5v0l15.3-0.6v0
				l-15.3,0.5c0,0,0,0,0,0c0,0,0,0,0,0l15-2.6l0,0l-15,2.4c0,0,0,0,0,0c0,0,0,0,0,0l14.5-4.5l0,0L389,77.3c0,0,0,0,0,0c0,0,0,0,0,0
				l13.8-6.3l0,0l-13.9,6.1c0,0,0,0,0,0c0,0,0,0,0,0l12.8-8l0,0L388.8,77c0,0,0,0,0,0c0,0,0,0,0,0l11.7-9.6l0,0l-11.8,9.5
				c0,0,0,0,0,0c0,0,0,0,0,0L399,65.8l0,0l-10.5,10.9c0,0,0,0,0,0c0,0,0,0,0,0l8.9-12.3l0.1,0l-9,12.2c0,0,0,0,0,0c0,0,0,0,0,0
				l7.2-13.4l0.1,0l-7.4,13.3c0,0,0,0-0.1,0c0,0,0,0,0,0l5.5-14.3l0.1,0l-5.6,14.2c0,0,0,0-0.1,0c0,0,0,0,0-0.1l3.6-14.9l0.1,0
				L388,76.5c0,0,0,0-0.1,0c0,0,0,0,0-0.1l1.7-15.3l0.1,0l-1.9,15.3c0,0,0,0-0.1,0c0,0,0,0,0-0.1L387.6,61l0.1,0l0,15.5
				c0,0,0,0.1-0.1,0.1c0,0-0.1,0-0.1,0l-2.1-15.4l0.1,0l1.9,15.4c0,0,0,0.1-0.1,0.1c0,0-0.1,0-0.1,0l-4-15.1l0.1,0l3.8,15.1
				c0,0,0,0.1,0,0.1c0,0-0.1,0-0.1,0L381.5,62l0.1,0l5.7,14.6c0,0,0,0.1,0,0.1c0,0-0.1,0-0.1,0l-7.5-13.7l0.1-0.1l7.4,13.8
				c0,0,0,0.1,0,0.1c0,0-0.1,0-0.1,0L377.8,64l0.1-0.1l9,12.8c0,0,0,0.1,0,0.1c0,0-0.1,0-0.1,0l-10.6-11.5l0.1-0.1l10.5,11.6
				c0,0,0,0.1,0,0.1c0,0-0.1,0-0.1,0l-11.9-10.1l0.1-0.1l11.8,10.2c0,0,0,0.1,0,0.1c0,0-0.1,0-0.1,0l-13-8.6l0.1-0.1l12.9,8.7
				c0,0,0.1,0.1,0,0.1c0,0-0.1,0.1-0.1,0l-13.9-6.9l0.1-0.2l13.9,7c0,0,0.1,0.1,0,0.1c0,0-0.1,0.1-0.1,0l-14.6-5.1l0.1-0.2l14.6,5.3
				c0.1,0,0.1,0.1,0.1,0.1c0,0-0.1,0.1-0.1,0.1l-15.1-3.2l0-0.2l15.1,3.4c0.1,0,0.1,0.1,0.1,0.1c0,0.1-0.1,0.1-0.1,0.1l-15.3-1.3
				l0-0.2l15.3,1.5c0.1,0,0.1,0.1,0.1,0.1c0,0.1,0,0.1-0.1,0.1l-15.3,0.6l0-0.2l15.3-0.5c0.1,0,0.1,0,0.1,0.1c0,0,0,0.1-0.1,0.1
				l-15,2.6l0-0.2l15-2.4c0.1,0,0.1,0,0.1,0.1c0,0,0,0.1-0.1,0.1L372,82.6l-0.1-0.2l14.6-4.3c0,0,0.1,0,0.1,0.1c0,0,0,0.1,0,0.1
				l-13.8,6.3l-0.1-0.2l13.9-6.1c0,0,0.1,0,0.1,0c0,0,0,0.1,0,0.1l-12.8,8l-0.1-0.1l12.9-7.9c0,0,0.1,0,0.1,0c0,0,0,0.1,0,0.1
				L375,88.2l-0.1-0.1l11.8-9.5c0,0,0.1,0,0.1,0c0,0,0,0.1,0,0.1l-10.4,11l-0.1-0.1l10.5-10.9c0,0,0.1,0,0.1,0c0,0,0,0.1,0,0.1
				l-8.9,12.3l-0.1-0.1l9-12.2c0,0,0.1,0,0.1,0c0,0,0,0.1,0,0.1l-7.2,13.4l-0.1-0.1l7.4-13.3c0,0,0.1,0,0.1,0c0,0,0,0.1,0,0.1
				l-5.5,14.3l-0.1,0l5.6-14.2c0,0,0,0,0.1,0c0,0,0,0,0,0.1L383.8,94l-0.1,0l3.8-14.9c0,0,0,0,0.1,0c0,0,0,0,0,0.1l-1.7,15.3l-0.1,0
				l1.9-15.3c0,0,0,0,0.1,0c0,0,0,0,0,0.1l0.2,15.5l-0.1,0l0-15.5c0,0,0,0,0,0c0,0,0,0,0,0l2.1,15.4l-0.1,0L388,79.1c0,0,0,0,0,0
				c0,0,0,0,0,0l4,15.1l-0.1,0l-3.8-15.1c0,0,0,0,0,0c0,0,0,0,0,0l5.8,14.5l-0.1,0L388.3,79c0,0,0,0,0,0c0,0,0,0,0,0l7.5,13.7
				l-0.1,0L388.4,79c0,0,0,0,0,0c0,0,0,0,0,0l9.2,12.7l0,0l-9-12.8c0,0,0,0,0,0c0,0,0,0,0,0l10.6,11.5l0,0l-10.5-11.6c0,0,0,0,0,0
				c0,0,0,0,0,0l11.9,10.1l0,0l-11.8-10.2c0,0,0,0,0,0c0,0,0,0,0,0l13,8.6l0,0l-12.9-8.7c0,0,0,0,0,0c0,0,0,0,0,0l13.9,6.9l0,0
				l-13.9-7c0,0,0,0,0,0c0,0,0,0,0,0l14.6,5.1l0,0L389,78.2c0,0,0,0,0,0c0,0,0,0,0,0l15.1,3.2l0,0L389.1,78v0L404.4,79.3z"/>
		</g>
		<g>
			<path class="st21" d="M338.8,79.4l-15.3-1.3l0,0l15.1,3.4l0,0l0,0l-15.1-3.2l0,0l14.6,5.3c0,0,0,0,0,0c0,0,0,0,0,0l-14.6-5.1l0,0
				l13.9,7c0,0,0,0,0,0c0,0,0,0,0,0l-13.9-6.9l0,0l12.9,8.7c0,0,0,0,0,0c0,0,0,0,0,0l-13-8.6l0,0L335,89c0,0,0,0,0,0c0,0,0,0,0,0
				l-11.9-10.1l0,0l10.5,11.6c0,0,0,0,0,0c0,0,0,0,0,0L323,79l0,0l9,12.8c0,0,0,0,0,0c0,0,0,0,0,0l-9.2-12.7l0.1,0l7.4,13.8
				c0,0,0,0,0,0c0,0,0,0,0,0l-7.5-13.7l0.1,0l5.7,14.6c0,0,0,0,0,0c0,0,0,0,0,0l-5.8-14.5l0.1,0l3.8,15.1c0,0,0,0,0,0.1
				c0,0,0,0-0.1,0l-4-15.1l0.1,0l1.9,15.4c0,0,0,0,0,0.1c0,0,0,0-0.1,0l-2.1-15.4l0.1,0l0,15.5c0,0,0,0.1-0.1,0.1c0,0,0,0-0.1,0
				L322,79.3l0.1,0l-1.9,15.3c0,0,0,0.1-0.1,0c0,0-0.1,0,0-0.1l1.7-15.3l0.1,0l-3.8,14.9c0,0,0,0.1-0.1,0c0,0,0,0,0-0.1l3.6-14.9
				l0.1,0l-5.6,14.2c0,0,0,0-0.1,0c0,0,0,0,0-0.1l5.5-14.3l0.1,0.1l-7.4,13.3c0,0-0.1,0-0.1,0c0,0,0-0.1,0-0.1l7.2-13.4l0.1,0.1
				l-9,12.2c0,0-0.1,0-0.1,0c0,0,0-0.1,0-0.1l8.9-12.3l0.1,0.1l-10.5,10.9c0,0-0.1,0-0.1,0c0,0,0-0.1,0-0.1l10.4-11.1l0.1,0.1
				l-11.8,9.5c0,0-0.1,0-0.1,0c0,0,0-0.1,0-0.1l11.7-9.6l0.1,0.1l-12.9,7.9c0,0-0.1,0-0.1,0c0,0,0-0.1,0-0.1l12.8-8l0.1,0.2
				l-13.9,6.1c0,0-0.1,0-0.1,0c0,0,0-0.1,0-0.1l13.8-6.3l0.1,0.2l-14.6,4.3c0,0-0.1,0-0.1-0.1c0,0,0-0.1,0.1-0.1l14.5-4.5l0,0.2
				l-15,2.4c-0.1,0-0.1,0-0.1-0.1c0-0.1,0-0.1,0.1-0.1l15-2.6l0,0.2l-15.3,0.5c-0.1,0-0.1,0-0.1-0.1c0-0.1,0-0.1,0.1-0.1l15.3-0.6
				l0,0.2l-15.3-1.5c-0.1,0-0.1-0.1-0.1-0.1c0-0.1,0.1-0.1,0.1-0.1l15.3,1.3l0,0.2l-15.1-3.4c-0.1,0-0.1-0.1-0.1-0.1
				c0-0.1,0.1-0.1,0.1-0.1l15.1,3.2l-0.1,0.2l-14.6-5.3c0,0-0.1-0.1-0.1-0.1c0,0,0.1-0.1,0.1-0.1l14.6,5.1l-0.1,0.2l-13.9-7
				c0,0-0.1-0.1,0-0.1c0,0,0.1-0.1,0.1,0l13.9,6.9l-0.1,0.2L308,68.6c0,0-0.1-0.1,0-0.1c0,0,0.1-0.1,0.1,0l13,8.6l-0.1,0.1
				l-11.8-10.2c0,0,0-0.1,0-0.1c0,0,0.1,0,0.1,0l11.9,10.1l-0.1,0.1l-10.5-11.6c0,0,0-0.1,0-0.1c0,0,0.1,0,0.1,0l10.6,11.5l-0.1,0.1
				l-9-12.8c0,0,0-0.1,0-0.1c0,0,0.1,0,0.1,0l9.2,12.7l-0.1,0.1L314,63c0,0,0-0.1,0-0.1c0,0,0.1,0,0.1,0l7.5,13.7l-0.1,0.1
				l-5.7-14.6c0,0,0-0.1,0-0.1c0,0,0.1,0,0.1,0l5.8,14.5l-0.1,0l-3.8-15.1c0,0,0-0.1,0-0.1c0,0,0.1,0,0.1,0l4,15.1l-0.1,0l-1.9-15.4
				c0,0,0-0.1,0.1-0.1c0,0,0.1,0,0.1,0l2.1,15.4l-0.1,0l0-15.5c0,0,0-0.1,0.1-0.1c0,0,0.1,0,0.1,0.1l0.2,15.5l-0.1,0l1.9-15.3
				c0,0,0,0,0.1,0c0,0,0,0,0,0.1l-1.7,15.3l-0.1,0l3.8-14.9c0,0,0,0,0.1,0c0,0,0,0,0,0.1l-3.6,14.9l-0.1,0l5.6-14.2c0,0,0,0,0.1,0
				c0,0,0,0,0,0.1l-5.5,14.3l-0.1,0l7.4-13.3c0,0,0,0,0.1,0c0,0,0,0,0,0l-7.2,13.4l-0.1,0l9-12.2c0,0,0,0,0,0c0,0,0,0,0,0L323,76.9
				l0,0L333.4,66c0,0,0,0,0,0c0,0,0,0,0,0l-10.4,11l0,0l11.8-9.5c0,0,0,0,0,0c0,0,0,0,0,0l-11.7,9.6l0,0l12.9-7.9c0,0,0,0,0,0
				c0,0,0,0,0,0l-12.8,8l0,0l13.9-6.1c0,0,0,0,0,0c0,0,0,0,0,0l-13.8,6.3l0,0l14.6-4.3c0,0,0,0,0,0c0,0,0,0,0,0l-14.5,4.5l0,0
				l15-2.4c0,0,0,0,0,0c0,0,0,0,0,0l-15,2.6l0,0l15.3-0.5l0,0l0,0L323.5,78l0,0L338.8,79.4z M338.8,79.4L323.5,78v0l15.3-0.6l0,0
				l-15.3,0.5c0,0,0,0,0,0c0,0,0,0,0,0l15-2.6l0,0l-15,2.4c0,0,0,0,0,0c0,0,0,0,0,0l14.5-4.5l0,0l-14.6,4.3c0,0,0,0,0,0c0,0,0,0,0,0
				l13.8-6.3l0,0l-13.9,6.1c0,0,0,0,0,0c0,0,0,0,0,0l12.8-8l0,0l-12.9,7.9c0,0,0,0,0,0c0,0,0,0,0,0l11.7-9.6l0,0l-11.8,9.5
				c0,0,0,0,0,0c0,0,0,0,0,0L333.4,66l0,0L323,76.9c0,0,0,0,0,0c0,0,0,0,0,0l8.9-12.3l0.1,0l-9,12.2c0,0,0,0,0,0c0,0,0,0,0,0
				l7.2-13.4l0.1,0l-7.4,13.3c0,0,0,0-0.1,0c0,0,0,0,0,0l5.5-14.3l0.1,0l-5.6,14.2c0,0,0,0-0.1,0c0,0,0,0,0-0.1l3.6-14.9l0.1,0
				l-3.8,14.9c0,0,0,0-0.1,0c0,0,0,0,0-0.1l1.7-15.3l0.1,0l-1.9,15.3c0,0,0,0-0.1,0c0,0,0,0,0-0.1L322,61.1l0.1,0l0,15.5
				c0,0,0,0.1-0.1,0.1c0,0-0.1,0-0.1,0l-2.1-15.4l0.1,0l1.9,15.4c0,0,0,0.1-0.1,0.1c0,0-0.1,0-0.1,0l-4-15.1l0.1,0l3.8,15.1
				c0,0,0,0.1,0,0.1c0,0-0.1,0-0.1,0l-5.8-14.5l0.1,0l5.7,14.6c0,0,0,0.1,0,0.1c0,0-0.1,0-0.1,0L314,63l0.1-0.1l7.4,13.8
				c0,0,0,0.1,0,0.1c0,0-0.1,0-0.1,0l-9.2-12.7l0.1-0.1l9,12.8c0,0,0,0.1,0,0.1c0,0-0.1,0-0.1,0l-10.6-11.5l0.1-0.1l10.5,11.6
				c0,0,0,0.1,0,0.1c0,0-0.1,0-0.1,0l-11.9-10.1l0.1-0.1l11.8,10.2c0,0,0,0.1,0,0.1c0,0-0.1,0-0.1,0l-13-8.6l0.1-0.1l12.9,8.7
				c0,0,0.1,0.1,0,0.1c0,0-0.1,0.1-0.1,0L307,70.5l0.1-0.2l13.9,7c0,0,0.1,0.1,0,0.1c0,0-0.1,0.1-0.1,0l-14.6-5.1l0.1-0.2l14.6,5.3
				c0.1,0,0.1,0.1,0.1,0.1c0,0-0.1,0.1-0.1,0.1l-15.1-3.2l0-0.2l15.1,3.4c0.1,0,0.1,0.1,0.1,0.1c0,0.1-0.1,0.1-0.1,0.1l-15.3-1.3
				l0-0.2l15.3,1.5c0.1,0,0.1,0.1,0.1,0.1c0,0.1,0,0.1-0.1,0.1l-15.3,0.6l0-0.2l15.3-0.5c0.1,0,0.1,0,0.1,0.1c0,0,0,0.1-0.1,0.1
				l-15,2.6l0-0.2l15-2.4c0.1,0,0.1,0,0.1,0.1c0,0,0,0.1-0.1,0.1l-14.5,4.5l-0.1-0.2l14.6-4.3c0,0,0.1,0,0.1,0.1c0,0,0,0.1,0,0.1
				l-13.8,6.3l-0.1-0.2l13.9-6.1c0,0,0.1,0,0.1,0c0,0,0,0.1,0,0.1l-12.8,8l-0.1-0.1l12.9-7.9c0,0,0.1,0,0.1,0c0,0,0,0.1,0,0.1
				l-11.7,9.6l-0.1-0.1l11.8-9.5c0,0,0.1,0,0.1,0c0,0,0,0.1,0,0.1l-10.4,11l-0.1-0.1l10.5-10.9c0,0,0.1,0,0.1,0c0,0,0,0.1,0,0.1
				l-8.9,12.3l-0.1-0.1l9-12.2c0,0,0.1,0,0.1,0c0,0,0,0.1,0,0.1l-7.2,13.4l-0.1-0.1l7.4-13.3c0,0,0.1,0,0.1,0c0,0,0,0.1,0,0.1
				l-5.5,14.3l-0.1,0l5.6-14.2c0,0,0,0,0.1,0c0,0,0,0,0,0.1l-3.6,14.9l-0.1,0l3.8-14.9c0,0,0,0,0.1,0c0,0,0,0,0,0.1l-1.7,15.3
				l-0.1,0l1.9-15.3c0,0,0,0,0.1,0c0,0,0,0,0,0.1l0.2,15.5l-0.1,0l0-15.5c0,0,0,0,0,0c0,0,0,0,0,0l2.1,15.4l-0.1,0l-1.9-15.4
				c0,0,0,0,0,0c0,0,0,0,0,0l4,15.1l-0.1,0l-3.8-15.1c0,0,0,0,0,0c0,0,0,0,0,0l5.8,14.5l-0.1,0l-5.7-14.6c0,0,0,0,0,0c0,0,0,0,0,0
				l7.5,13.7l-0.1,0l-7.4-13.8c0,0,0,0,0,0c0,0,0,0,0,0l9.2,12.7l0,0L323,79c0,0,0,0,0,0c0,0,0,0,0,0l10.6,11.5l0,0l-10.5-11.6
				c0,0,0,0,0,0c0,0,0,0,0,0L335,89l0,0l-11.8-10.2c0,0,0,0,0,0c0,0,0,0,0,0l13,8.6l0,0l-12.9-8.7c0,0,0,0,0,0c0,0,0,0,0,0l13.9,6.9
				l0,0l-13.9-7c0,0,0,0,0,0c0,0,0,0,0,0l14.6,5.1l0,0l-14.6-5.3c0,0,0,0,0,0c0,0,0,0,0,0l15.1,3.2l0,0l-15.1-3.4l0,0L338.8,79.4z"
				/>
		</g>
		<path class="st20" d="M322.2,78.5c-0.3,0-0.5-0.2-0.6-0.5c-0.1-0.4,0.1-0.8,0.4-0.9c1.5-0.6,8.3-4.8,10.7-13.8c0,0,0-0.1,0-0.1
			l8.4-20.6c0.8-2.9,2.8-4.7,5.2-4.7c0.4,0,0.7,0.3,0.7,0.7c0,0.4-0.3,0.7-0.7,0.7c-1.7,0-3.2,1.4-3.9,3.7c0,0,0,0.1,0,0.1L334,63.7
			c-2.6,9.6-9.8,14-11.6,14.7C322.4,78.5,322.3,78.5,322.2,78.5z"/>
		<path class="st21" d="M355.8,38.8c0,0.9-0.7,1.6-1.6,1.6l-6.6,0c-0.9,0-1.6-0.7-1.6-1.6l0,0c0-0.9,0.7-1.6,1.6-1.6l6.6,0
			C355.1,37.2,355.8,37.9,355.8,38.8L355.8,38.8z"/>
		<path class="st20" d="M338.4,49.8l3.2-11.8c0.5-3,2.2-5,4.6-5.3c0.4,0,0.7,0.2,0.8,0.6c0,0.4-0.2,0.7-0.6,0.8
			c-1.7,0.2-3,1.8-3.4,4.2c0,0,0,0.1,0,0.1l-3.2,11.5"/>
		<path class="st21" d="M355.7,32.4c0.1,0.9-0.5,1.7-1.4,1.8l-6.6,0.8c-0.9,0.1-1.7-0.5-1.8-1.4l0,0c-0.1-0.9,0.5-1.7,1.4-1.8
			l6.6-0.8C354.8,30.9,355.6,31.5,355.7,32.4L355.7,32.4z"/>
		<polygon class="st19" points="354.5,72.8 355.9,73.1 357.2,72.7 358.2,73.6 359.6,73.9 360,75.2 361.1,76.1 360.8,77.5 
			361.2,78.8 360.3,79.8 360,81.2 358.7,81.6 357.8,82.6 356.4,82.4 355.1,82.8 354.1,81.9 352.7,81.6 352.3,80.3 351.2,79.3 
			351.5,78 351.1,76.7 352,75.6 352.3,74.3 353.6,73.8 		"/>
		<polygon class="st19" points="386.6,74.1 387.7,74.3 388.7,73.9 389.6,74.7 390.7,74.9 391,76 391.8,76.7 391.6,77.8 392,78.9 
			391.2,79.7 391,80.8 389.9,81.1 389.2,82 388.1,81.7 387,82.1 386.2,81.3 385.1,81.1 384.8,80 383.9,79.3 384.2,78.2 383.8,77.2 
			384.6,76.3 384.8,75.2 385.8,74.9 		"/>
		<path class="st20" d="M349.7,85.2c0,0-0.1-0.1-0.1-0.1c-0.2-0.2-0.2-0.4-0.1-0.6l6.2-6.8c0.1-0.1,0.4-0.1,0.5,0
			c0.2,0.2,0.2,0.4,0.1,0.5l-6.2,6.8C350,85.2,349.8,85.3,349.7,85.2z"/>
		<path class="st21" d="M353.4,88.1c-0.3,0.6-0.9,0.9-1.3,0.6l-3.1-2.3c-0.4-0.3-0.5-1.1-0.2-1.7l0,0c0.3-0.6,0.9-0.9,1.3-0.6
			l3.1,2.3C353.6,86.7,353.7,87.4,353.4,88.1L353.4,88.1z"/>
		<g>
			<line class="st19" x1="354.8" y1="73.6" x2="388.2" y2="76.9"/>
			<g>
				<line class="st22" x1="354.8" y1="73.6" x2="355" y2="73.6"/>
				<line class="st23" x1="355.4" y1="73.7" x2="387.8" y2="76.8"/>
				<line class="st22" x1="388" y1="76.8" x2="388.2" y2="76.9"/>
			</g>
		</g>
		<g>
			<line class="st19" x1="356.1" y1="81.2" x2="387.8" y2="79.1"/>
			<g>
				<line class="st22" x1="356.1" y1="81.2" x2="356.2" y2="81.2"/>
				<line class="st24" x1="356.6" y1="81.2" x2="387.5" y2="79.2"/>
				<line class="st22" x1="387.7" y1="79.1" x2="387.8" y2="79.1"/>
			</g>
		</g>
		<circle class="st20" cx="322" cy="77.7" r="1.8"/>
		<path class="st19" d="M387.8,76.5c-0.2,0-0.4-0.1-0.5-0.3l-11.9-18.9c-0.2-0.3-0.1-0.7,0.1-1c0.3-0.2,0.7-0.2,0.9,0.2l11.3,17.9
			l7.3-17.6c0.1-0.4,0.5-0.5,0.8-0.3c0.3,0.2,0.4,0.6,0.3,0.9l-7.7,18.7C388.2,76.3,388,76.5,387.8,76.5
			C387.8,76.5,387.8,76.5,387.8,76.5z"/>
	</g>
</g>
<g>
	<circle class="st25" cx="506.4" cy="63" r="60.3"/>
	<g>
		<path class="st26" d="M468.5,103.6c-0.4,0.7-0.2,1.6,0.5,2.1c0.2,0.1,0.3,0.2,0.5,0.2c0.6,0.1,1.2-0.1,1.6-0.7
			c6.1-9.6,13.4-16.1,20.4-20.5l-4.8-0.5C480.3,88.7,473.9,95,468.5,103.6z"/>
		<path class="st27" d="M519.1,37.9c-2.8-1.7-6-4.2-10.5-3.9c-4.4,0.3-19,1.2-24.7,0.9c-5.7-0.3-6.8,4.9-7,6.8
			c-0.2,1.9-5.4,23.4-6.2,32.5c-0.8,9.1,7.6,13.7,13.3,13.9c5.8,0.2,28.4-1.4,30.6-1.4c1.2,0,2.1-2.3,8-5.7l6.8-36.3
			C526.2,43,522.7,40.8,519.1,37.9z"/>
		<path class="st28" d="M553.6,52.7c-2.7-0.6-12-1.1-24.2-7.9l-6.8,36.3c5.3-3,14.6-6.9,31.7-10.7C554,67.3,554.8,56,553.6,52.7z"/>
		<circle class="st29" cx="481.1" cy="76.3" r="4.1"/>
		<circle class="st29" cx="505.1" cy="75.2" r="4.1"/>
		<path class="st15" d="M485.8,42.8c-2.8,0.1-3.3,1.6-3.5,3.2c-0.2,1.5-0.8,5.2-1.5,8.7c-0.7,3.5,3.3,3.4,5.5,3.2
			c2.2-0.1,16.1-0.4,19.8-0.7c3.7-0.3,3.4-3.2,3.1-4.7c-0.3-1.4-1.1-4.9-1.6-7.1c-0.6-2.7-1.4-3-3.7-3.2
			C501.5,41.9,488.6,42.6,485.8,42.8z"/>
		<path class="st26" d="M487.5,37.3c-2,0.4-0.4,2.7,0.6,2.6c1-0.1,10.5-0.4,12.8-0.6c1.9-0.2,1.4-2.4,0-2.5
			C499.5,36.5,489.5,36.9,487.5,37.3z"/>
		<path class="st15" d="M519,44.4c0.9,0.1,5.8,2.7,6.4,3c1.8,0.7,0.8,13.2,0.2,13.6c-0.6,0.4-5.9,0.4-6.6,0.5
			C519.3,58.9,519.3,50.2,519,44.4z"/>
		<path class="st30" d="M529.1,48.9c0.7,0.1,4,1.5,4.4,1.7c1.3,0.5,0.8,10.1,0.3,10.4c-0.4,0.3-4.7,0.1-5.3,0.1
			C529.4,58.1,529.3,53.2,529.1,48.9z"/>
		<path class="st30" d="M537.1,51.5c0.5,0.1,3.5,1.1,3.9,1.3c1.1,0.4,0.3,8.4,0,8.6c-0.3,0.3-3.8-0.2-4.3-0.2
			C537.4,58.8,537.3,55,537.1,51.5z"/>
		<path class="st30" d="M544.4,53.3c0.4,0.1,3.3,0.9,3.6,1c0.9,0.4,0.2,7.3-0.1,7.6c-0.3,0.2-3.5-0.4-3.8-0.4
			C544.6,59.5,544.6,56.2,544.4,53.3z"/>
		<path class="st26" d="M555.9,73.9c-0.1-0.8-0.8-1.5-1.6-1.4c-0.9,0.1-17,1.5-32.7,14.2l-0.9,4.8c15.9-14.5,33.6-16,33.8-16
			C555.4,75.5,556,74.8,555.9,73.9z"/>
		<path class="st26" d="M506.6,103.8c-0.4,0.7-0.2,1.6,0.5,2.1c0.2,0.1,0.3,0.2,0.5,0.2c0.6,0.1,1.2-0.1,1.6-0.7
			c3.5-5.6,7.5-10.1,11.6-13.8l0.9-4.8C516.4,91,511.2,96.6,506.6,103.8z"/>
		<polygon class="st26" points="479.7,91.7 517.7,90.3 514.1,95.3 476.5,96 		"/>
	</g>
</g>
</svg>
