<?xml version="1.0" encoding="utf-8"?>
<!-- Generator: Adobe Illustrator 19.1.0, SVG Export Plug-In . SVG Version: 6.00 Build 0)  -->
<svg version="1.1" id="图层_1" xmlns="http://www.w3.org/2000/svg" xmlns:xlink="http://www.w3.org/1999/xlink" x="0px" y="0px"
	 viewBox="0 0 722.1 120.6" style="enable-background:new 0 0 722.1 120.6;" xml:space="preserve">
<style type="text/css">
	.st0{fill:#ACD8DB;}
	.st1{fill:#36AEB9;}
	.st2{fill:#EFF0BA;}
	.st3{fill:#DADB81;}
	.st4{fill:#5BA340;}
	.st5{fill:#674C32;}
	.st6{fill:#735739;}
	.st7{fill:#65B147;}
	.st8{fill:#DAA622;}
	.st9{fill:#EFB622;}
	.st10{fill:#FFFFFF;}
	.st11{fill:#B9D9D7;}
	.st12{fill:#D87675;}
	.st13{fill:#EBEAD9;}
	.st14{fill:#D05754;}
	.st15{fill:#EBB84B;}
	.st16{fill:#51C1E1;}
	.st17{fill:#8BC17C;}
	.st18{fill:#F3B724;}
	.st19{fill:#D9A521;}
	.st20{fill:#504F51;}
	.st21{fill:#5A5A5D;}
	.st22{fill:#68462C;}
	.st23{fill:#765134;}
	.st24{fill:#C52B24;}
	.st25{fill:#D73222;}
	.st26{fill:#D8A62C;}
	.st27{fill:#F3B524;}
	.st28{fill:#E6E7E8;}
	.st29{fill:#F6E96F;}
	.st30{fill:#E6E6E5;stroke:#F6F7F9;stroke-width:0.3429;stroke-miterlimit:10;}
	.st31{fill:#EB6166;}
	.st32{fill:#F6F7F9;stroke:#F6F7F9;stroke-width:0.3976;stroke-miterlimit:10;}
	.st33{fill:#827338;}
	.st34{fill:#EFB682;}
	.st35{fill:#B8865E;}
	.st36{fill:#83CBC4;}
	.st37{fill:#ACDBD8;}
</style>
<g>
	<circle class="st0" cx="368.6" cy="60.3" r="60.3"/>
	<g>
		<ellipse class="st1" cx="368.6" cy="79.3" rx="42.8" ry="22.6"/>
		<g>
			<path class="st2" d="M364.2,52.6c0,0-29.8,11.4-27.4,20.3c2.4,9,13.7,21.3,34.1,17.5c20.3-3.8,5.7-8.5,21.8-12.3
				c16.1-3.8,5.2-16.6-3.8-20.8C379.8,53.1,364.2,52.6,364.2,52.6z"/>
			<path class="st3" d="M388.8,57.8c9,4.3,19.9,17,3.8,20.8c-16.1,3.8-1.4,8.5-21.8,12.3c-20.3,3.8-31.7-8.5-34.1-17.5
				c-0.5-1.8,0.3-3.7,1.9-5.6c0,0,1.8,7.9,13.2,11.2c11.4,3.3,24.1,3.3,27.4,0.5c3.3-2.8,6.6-5.2,11.8-7.1
				C396.4,70.6,388.8,57.8,388.8,57.8z"/>
		</g>
		<g>
			<path class="st4" d="M353.2,30.1l0.1,0l0-1l0,1l0.9-0.3c0,0,0,0-0.1,0c1.4-1.6,3.9-2.4,8.2-1.4l6.3,1.5c0,0-2.5-7.3-17.4-4.4
				c0,0,6-5.3,11.1-5.3c0,0-16.1-6.2-16.5,8.3c0,0-11.2,12.6,0,17.5c0,0-2.4-10.4,3.2-13.1c0,0-0.3,13.1,6.4,13.1
				c0.1,0.2-4-8.9-2.2-14.2c0.1,0.1,0.1,0.1,0.2,0.2l0-1.6L353.2,30.1z"/>
			<path class="st5" d="M354.2,29.8l-0.9,0.3l0,1.6c13.1,12.7,8.3,30.4,8.3,30.4h3h2.9V48.6C363.9,36.7,358.3,31.8,354.2,29.8z"/>
			<path class="st6" d="M379,35.7l-1.2-0.4c0,0,0.1,0.1,0.1,0.1c-3.1,1.5-7.4,5.1-10.3,13.4c0,0,0-0.1,0-0.1v13.5h2.7h1.5
				c0,0-4-14.7,7-25.3L379,35.7z"/>
			<path class="st7" d="M384.8,34.2c-0.4-12-13.7-6.8-13.7-6.8c4.2,0,9.2,4.4,9.2,4.4c-12.3-2.4-14.4,3.6-14.4,3.6l5.2-1.2
				c3.5-0.8,5.5-0.2,6.7,1.1l1.2,0.4l0.2-1l-0.2,1l0.8,0.3l-0.8-0.3l-0.3,1.2c0,0,0,0,0,0c1.4,4.4-1.9,11.9-1.9,11.7
				c5.5,0,5.3-10.8,5.3-10.8c4.7,2.3,2.6,10.8,2.6,10.8C394.1,44.6,384.8,34.2,384.8,34.2z"/>
			<circle class="st8" cx="353" cy="32.2" r="3"/>
			<circle class="st9" cx="378.4" cy="37.6" r="3"/>
		</g>
	</g>
</g>
<g>
	<circle class="st1" cx="215.1" cy="60.3" r="60.3"/>
	<path class="st10" d="M244.4,47.3c-0.3-7.7-6.6-13.8-14.4-13.8c-1.7,0-3.3,0.3-4.9,0.8c-3.1,1.1-5.7,3.2-7.4,6
		c-2-1.6-4.6-2.6-7.4-2.6c-6.4,0-11.6,5.2-11.6,11.6c0,0.8,0.1,1.5,0.2,2.2c-5.1,1.6-8.7,6.4-8.7,12c0,7,5.6,12.6,12.6,12.6
		c0.6,0,1.2,0,1.8-0.1h20.5h17.1c0.5,0.1,1,0.1,1.6,0.1c7.9,0,14.4-6.4,14.4-14.4C258.2,53.9,252.1,47.6,244.4,47.3z M219,57.2
		C219,57.2,219,57.1,219,57.2c0.1,0,0.1,0,0.1,0H219z"/>
	<g>
		<path class="st9" d="M264.2,44.8c-0.2-1-0.4-2.9-5.6-3.2c-1.4,0-2.5,0.1-3,0.1c-0.3,0.1-0.7,0.2-1,0.3l-1.2,0.4l-3.9,1.5
			c-2.2,0.8-4.6-0.3-5.4-2.4c-0.5-1.2,0.6-1.8,2-2.1c-2.3,0.1-4.4,0.4-5.7,1l-13.8,5.1l-10.5-2.4l-7.8,2.9l5.2,4.4l-26.7,10
			l-6.2-2.6l-3.2-1.3l-5-2.1l-7.2,2.7l0.7,0.9l5.5,5.5l0.6,0.6l-2.2,4.7l4-1.5l0.7-0.7l0.6,0.6l3.3,3.4l6.3,6.5
			c3.7-0.8,15-4.9,16.4-5.6l10.5-3.9L203,81.9l10.5-3.9l17.9-18.1l18-6.7l2.3-0.9c0.1,0,0.1-0.1,0.2-0.1c3-1.2,0.2-0.1,6.1-2.7
			C264.7,46.9,264.2,44.8,264.2,44.8 M206.1,60.2l-5.4,2l-0.3-3.1l5.4-2L206.1,60.2z M215.1,56.8l-5.4,2l-0.3-3.1l5.4-2L215.1,56.8z
			 M224.1,53.4l-5.4,2l-0.3-3.1l5.4-2L224.1,53.4z M233.1,50.1l-5.4,2l-0.3-3.1l5.4-2L233.1,50.1z"/>
		<path class="st8" d="M196.6,68.2c-0.2,0.9-0.1,2.1,0.4,3.4c0.1,0.3,0.3,0.7,0.4,1c0.4,0.9,1,1.5,1.5,1.9
			c-6.2,2.2-11.1,2.9-13.4,2.5c-0.3-0.1-0.5-0.1-0.7-0.2c-0.3-0.1-0.4-0.3-0.5-0.5c0,0,0,0,0,0C183.9,74.9,188.8,71.3,196.6,68.2"/>
		<path class="st11" d="M197.1,72.7c-0.2-0.3-0.3-0.6-0.4-1c-0.6-1.5-0.5-2.8-0.3-3.3c0.1-0.1,0.2-0.3,0.3-0.3c0,0,0,0,0.1,0
			c0.1,0,0.3,0,0.5,0.1c0.6,0.3,1.3,1.2,1.8,2.6c0.1,0.4,0.2,0.7,0.3,1c0.2,0.9,0.2,1.7,0,2.2c-0.1,0.2-0.2,0.3-0.3,0.4c0,0,0,0,0,0
			c-0.1,0-0.2,0-0.4-0.1C198.2,74.3,197.6,73.7,197.1,72.7"/>
		<polyline class="st8" points="213.5,50.3 208.3,46 216.1,43.1 226.6,45.5 		"/>
		<path class="st11" d="M246,39.4c-1.4,0.4-2.5,0.9-2,2.1c0.8,2.1,3.3,3.3,5.5,2.5l4-1.5l1.1-0.4c0.3-0.1,0.8-0.2,1.1-0.3
			C255.7,41.8,252,38.1,246,39.4"/>
	</g>
</g>
<circle class="st12" cx="661.8" cy="60.3" r="60.3"/>
<g>
	<g>
		<path class="st13" d="M626.1,60c0,19.7,16,35.7,35.7,35.7c19.7,0,35.7-16,35.7-35.7c0-19.7-16-35.7-35.7-35.7
			C642.1,24.3,626.1,40.3,626.1,60"/>
		<path class="st14" d="M660.6,39.8c0,0,33.5,13.6,35.7,29.7c0,0-4.6,21.5-28.7,25.9c0,0-11-17.3-12.7-51
			C654.8,44.2,656.3,39.4,660.6,39.8"/>
		<path class="st15" d="M648.3,43c0,0-20.9,13.9-18.2,33.4c0,0-6.3-9.1-3.1-25.5c0,0,2.8-15.8,18.3-13.9C645.3,37,650,38.2,648.3,43
			"/>
		<path class="st16" d="M653.7,32.1c0,0,0.1-9.5,14.3-7.4c0,0,8.4,1.5,16.3,7.4c0,0-20.1-4.3-24.8,2.9
			C659.5,35,653.8,37.5,653.7,32.1"/>
		<path class="st10" d="M646.4,42c1.9,3.1,6.4,3.7,10.1,1.5c3.7-2.3,5.1-6.6,3.2-9.6c-1.9-3.1-6.4-3.7-10.1-1.5
			C646,34.6,644.6,38.9,646.4,42"/>
	</g>
</g>
<g>
	<circle class="st17" cx="60.3" cy="60.3" r="60.3"/>
	<g>
		<rect x="74" y="37.3" class="st18" width="7.1" height="1.9"/>
		<rect x="40.8" y="37.3" class="st19" width="7.1" height="1.9"/>
		<g>
			<rect x="60.6" y="40" class="st20" width="0.2" height="1.9"/>
			<path class="st20" d="M60.8,33.8v-4h-9.5c-1.9,0-3.5,1.6-3.5,3.5v8.1c0,0.6,0.5,1.1,1.1,1.1c0.5,0,0.9-0.3,1.1-0.7h3.4
				c0.1,0,0.1,0,0.2,0c0.1,0,0.1,0,0.2,0h6.8V40h-7.9c0,0,0-5.1,0-6.2L60.8,33.8z"/>
			<path class="st21" d="M70.8,29.8h-10v4l9.1,0C69.9,35,70,40,70,40h-9.2v1.9h7.8c0.1,0,0.1,0,0.2,0c0.1,0,0.1,0,0.2,0h3.2
				c0.2,0.4,0.6,0.7,1.1,0.7c0.5,0,0.9-0.3,1.1-0.7h0v-0.1c0-0.1,0-0.2,0-0.3v-8.1C74.3,31.4,72.7,29.8,70.8,29.8z"/>
		</g>
		<path class="st22" d="M39.1,39h-9.5c-1,0-1.8,0.8-1.8,1.8v9.4v26.5v8.8c0,1,0.8,1.8,1.8,1.8h8.8h22.2V39H39.1z"/>
		<path class="st23" d="M91.1,39h-8.8H60.6v48.3h21.7h8.8c1,0,1.8-0.8,1.8-1.8v-8.8v-27v-8.8C92.9,39.8,92.1,39,91.1,39z"/>
		<path class="st24" d="M36.8,39.4c0-0.2,0-0.3,0-0.5h-7.6c-0.8,0-1.4,0.6-1.4,1.4v7.5c0.2,0,0.4,0,0.6,0
			C33,47.9,36.8,44.1,36.8,39.4z"/>
		<path class="st25" d="M92.9,48v-7.5c0-0.9-0.7-1.5-1.5-1.5h-7.5C83.8,43.9,87.9,48,92.9,48z"/>
		<path class="st25" d="M92.9,85.7v-7.5c-5,0-9,4.1-9,9h7.5C92.2,87.2,92.9,86.6,92.9,85.7z"/>
		<path class="st24" d="M27.7,78.2v7.5c0,0.8,0.7,1.5,1.5,1.5h7.5C36.8,82.3,32.7,78.2,27.7,78.2z"/>
		<rect x="42.4" y="39" class="st26" width="3.9" height="48.3"/>
		<rect x="75.9" y="39" class="st27" width="3.9" height="48.3"/>
		<rect x="39" y="60.3" class="st28" width="11" height="6.7"/>
		<rect x="72.3" y="60.3" class="st10" width="11" height="6.7"/>
	</g>
</g>
<g>
	<circle class="st29" cx="515.2" cy="60.3" r="60.3"/>
	<g>
		<polygon class="st30" points="483.3,26.2 520.5,24.5 553,43.6 552.6,47.5 548.2,47.9 544.3,49.3 533.5,48.3 525.8,44.9 
			512.4,44.2 501.5,38.1 489.5,35 485.3,29.8 		"/>
		<path class="st31" d="M483.6,26c0,0-3.6,2.4-1.5,5c0,0,1.9,1.5,3.2-1.1c0,0-1.4,4.7,4.4,7.9c0,0,5.2,2.3,11.8,0.4
			C501.5,38.1,484.3,32.7,483.6,26"/>
		<path class="st32" d="M485.4,29.5c-0.6-0.9-1.7-1.9-1.8-3.6c0,0-3.6,2.4-1.5,5c0,0,1.9,1.5,3.2-1.1L485.4,29.5z"/>
		<path class="st32" d="M501.5,38.1c0,0,14.4,5.9,24.3,6.8C525.8,44.9,509.8,52.3,501.5,38.1"/>
		<path class="st31" d="M553.8,44.9c0,0,0.9,4.8-3,5.9c0,0-3.3,0.5-2.8-2.5c0,0-3.7,4.3-10.9,3.3c0,0-8.8-1.3-11.3-6.7
			C525.8,44.9,543.3,52.3,553.8,44.9"/>
		<path class="st33" d="M502.7,88c5.2-17.4,10.3-34.9,15.5-52.3c0,0,0,0,0,0c0.2-0.8-0.9-1.1-1.2-0.3c-5.2,17.4-10.3,34.9-15.5,52.3
			c0,0,0,0,0,0C501.3,88.5,502.5,88.8,502.7,88"/>
		<path class="st33" d="M516.4,39.9c-6-3.8-11.9-7.7-17.9-11.5c-0.3-0.2-0.6,0.3-0.3,0.5c6,3.8,11.9,7.7,17.9,11.5
			C516.4,40.7,516.7,40.1,516.4,39.9"/>
		<path class="st33" d="M503.7,28.3c4.1,4,8.2,8.1,12.3,12.1c0.3,0.3,0.7-0.2,0.4-0.4c-4.1-4-8.2-8.1-12.3-12.1
			C503.9,27.6,503.4,28.1,503.7,28.3"/>
		<path class="st33" d="M514.3,33.8c0.5,2.2,1.1,4.3,1.6,6.5c0.1,0.4,0.7,0.2,0.6-0.2c-0.5-2.2-1.1-4.3-1.6-6.5
			C514.8,33.3,514.2,33.4,514.3,33.8"/>
		<path class="st33" d="M517.1,40c1.9-1.1,3.8-2.2,5.7-3.3c0.3-0.2,0-0.7-0.3-0.5c-1.9,1.1-3.8,2.2-5.7,3.3
			C516.4,39.7,516.7,40.2,517.1,40"/>
		<path class="st33" d="M516.9,40.5c6-0.9,12-1.7,18-2.6c0.4-0.1,0.2-0.6-0.2-0.6c-6,0.9-12,1.7-18,2.6
			C516.3,40,516.5,40.5,516.9,40.5"/>
		<path class="st33" d="M516.8,40.8c7.4,0.1,14.9,0.3,22.3,0.4c0.4,0,0.4-0.6,0-0.6c-7.4-0.1-14.9-0.3-22.3-0.4
			C516.4,40.2,516.4,40.8,516.8,40.8"/>
		<path class="st31" d="M522.2,21.8l-37.9,2.1c0,0-1.8,2.9,0.6,4c0,0,2.7,0.6,3.4-1.8L522.2,21.8z"/>
		<path class="st32" d="M522.2,21.8l-15.2,6.6c0,0-13.3,5.3-18.7-2.4L522.2,21.8z"/>
		<path class="st31" d="M533,35.6c0,0-16.1,5.3-26.4-7.1l15.5-6.7L533,35.6z"/>
		<path class="st32" d="M552,43l-29.9-21.3L533,35.6C533,35.6,540,46.1,552,43"/>
		<path class="st31" d="M522.1,21.8L554.8,44c0,0,0.7,2.8-2,2.6c0,0-1.4-1.1-0.9-3.6L522.1,21.8z"/>
		<path class="st34" d="M492.2,55.3c8.9,11.3,17.9,22.7,26.8,34c0.9,1.1,1.8,2.3,2.7,3.4c0.9,1.1,2.7-0.1,1.8-1.2
			c-8.9-11.3-17.9-22.7-26.8-34c-0.9-1.1-1.8-2.3-2.7-3.4C493.2,53,491.4,54.1,492.2,55.3"/>
		<path class="st35" d="M503.3,65.6c-2.1,6.6-4.1,13.2-6.2,19.8c-0.4,1.3,1.7,1.8,2.1,0.5c2.1-6.6,4.1-13.2,6.2-19.8
			C505.8,64.7,503.7,64.3,503.3,65.6"/>
		<path class="st34" d="M503.2,65.7C503.2,65.8,503.3,65.6,503.2,65.7c0.6-0.9,2.6-0.4,1.6,2.1c0-0.1,0.5-1.5,0.5-1.6
			C505.9,64.6,503.6,64.1,503.2,65.7"/>
		<path class="st34" d="M521.3,75.7c0,0-0.3-0.5-1.4-0.2l-1.8,0.6l1.1,1.9l1.8-0.7C521,77.4,521.9,76.7,521.3,75.7"/>
		<path class="st35" d="M492.7,53.7c-0.6,0.3-0.9,0.9-0.5,1.4C500.4,66.4,509.4,77,518,88c1.3,1.6,2.6,3.2,3.8,4.9
			c0.4,0.5,1.1,0.5,1.6,0.2L492.7,53.7z"/>
		<path class="st34" d="M478.6,60.9c5.2-0.9,10.4-1.9,15.7-2.8c1.3-0.2,1.3-2.4-0.1-2.2c-5.2,0.9-10.4,1.9-15.7,2.8
			C477.1,59,477.2,61.2,478.6,60.9"/>
		<path class="st35" d="M477.6,60.4c0.1,0.5,0.4,1,1.1,0.8c5.2-1,10.4-2.1,15.6-3.1c0.6-0.1,0.9-0.6,0.9-1.1L477.6,60.4z"/>
		<path class="st34" d="M504.5,94.7c5-1.8,10-3.6,15-5.4c0.3-0.1,0.5-0.2,0.7-0.4c0.8-0.4-0.2-2.1-1.2-1.8c-5,1.8-10,3.6-15,5.4
			C502.8,93,503.5,95.1,504.5,94.7"/>
		<path class="st35" d="M503.5,94.3c0.3,0.5,0.5,0.9,1.1,0.7c5-1.9,9.9-3.8,14.9-5.7c0.3-0.1,0.8-0.2,0.7-0.4
			c-0.1-0.2-0.3-0.4-0.6-0.7L503.5,94.3z"/>
		<path class="st36" d="M490.7,56.1c0,0,4.2,1.7,7,11c0,0,4.3,10.6,16.4,10.5l-10.7,3.8c0,0-12,2.3-17.2-12.2c0,0-1.6-7.5-6.7-10.7
			L490.7,56.1z"/>
		<path class="st37" d="M506.4,80.3c0,0,1.7-0.9,2.1,0.4c0,0,0.1,1-1.6,1.6l12.4-4.4c0,0,0.5-0.5,0.2-1.2c0,0-0.2-1-1.8-0.6
			L506.4,80.3z"/>
		<path class="st34" d="M475.9,58.9c9,11.5,17.9,22.9,26.8,34.4c1.3,1.7,2.6,3.4,4,5.1c0.9,1.1,2.7-0.1,1.8-1.2
			c-8.9-11.5-17.9-22.9-26.8-34.4c-1.3-1.7-2.6-3.4-4-5.1C476.8,56.6,475,57.8,475.9,58.9"/>
		<path class="st35" d="M476.1,57.6c-0.5,0.3-0.8,0.9-0.4,1.5c9,11.4,18,22.8,27,34.3c1.3,1.7,2.7,3.4,4,5.1
			c0.4,0.5,1.1,0.5,1.6,0.2L476.1,57.6z"/>
		<path class="st35" d="M481.9,91.6c2-6.7,3.9-13.5,5.9-20.2c0.4-1.4-1.7-1.8-2.1-0.5c-2,6.7-3.9,13.5-5.9,20.2
			C479.4,92.5,481.5,92.9,481.9,91.6"/>
		<path class="st34" d="M478.7,93.4c9.7-3.8,19.4-7.6,29.2-11.4c1.3-0.5,0.6-2.6-0.7-2.1c-9.7,3.8-19.4,7.6-29.2,11.4
			C476.7,91.8,477.4,93.9,478.7,93.4"/>
		<path class="st35" d="M477.4,92.7c0.2,0.5,0.7,0.9,1.3,0.6c9.7-3.8,19.4-7.6,29.2-11.4c0.6-0.2,0.8-0.9,0.7-1.4L477.4,92.7z"/>
	</g>
</g>
</svg>
